G04 #@! TF.GenerationSoftware,KiCad,Pcbnew,6.0.11-2627ca5db0~126~ubuntu22.04.1*
G04 #@! TF.CreationDate,2023-09-21T12:17:28+02:00*
G04 #@! TF.ProjectId,CyphalPicoBase-CAN,43797068-616c-4506-9963-6f426173652d,0.3*
G04 #@! TF.SameCoordinates,PX55d4a80PY57bcf00*
G04 #@! TF.FileFunction,Soldermask,Top*
G04 #@! TF.FilePolarity,Negative*
%FSLAX46Y46*%
G04 Gerber Fmt 4.6, Leading zero omitted, Abs format (unit mm)*
G04 Created by KiCad (PCBNEW 6.0.11-2627ca5db0~126~ubuntu22.04.1) date 2023-09-21 12:17:28*
%MOMM*%
%LPD*%
G01*
G04 APERTURE LIST*
G04 Aperture macros list*
%AMRoundRect*
0 Rectangle with rounded corners*
0 $1 Rounding radius*
0 $2 $3 $4 $5 $6 $7 $8 $9 X,Y pos of 4 corners*
0 Add a 4 corners polygon primitive as box body*
4,1,4,$2,$3,$4,$5,$6,$7,$8,$9,$2,$3,0*
0 Add four circle primitives for the rounded corners*
1,1,$1+$1,$2,$3*
1,1,$1+$1,$4,$5*
1,1,$1+$1,$6,$7*
1,1,$1+$1,$8,$9*
0 Add four rect primitives between the rounded corners*
20,1,$1+$1,$2,$3,$4,$5,0*
20,1,$1+$1,$4,$5,$6,$7,0*
20,1,$1+$1,$6,$7,$8,$9,0*
20,1,$1+$1,$8,$9,$2,$3,0*%
G04 Aperture macros list end*
%ADD10C,5.902000*%
%ADD11RoundRect,0.251000X0.275000X-0.200000X0.275000X0.200000X-0.275000X0.200000X-0.275000X-0.200000X0*%
%ADD12RoundRect,0.201000X0.150000X-0.875000X0.150000X0.875000X-0.150000X0.875000X-0.150000X-0.875000X0*%
%ADD13RoundRect,0.276000X-0.250000X0.225000X-0.250000X-0.225000X0.250000X-0.225000X0.250000X0.225000X0*%
%ADD14RoundRect,0.276000X-0.225000X-0.250000X0.225000X-0.250000X0.225000X0.250000X-0.225000X0.250000X0*%
%ADD15RoundRect,0.251000X-0.275000X0.200000X-0.275000X-0.200000X0.275000X-0.200000X0.275000X0.200000X0*%
%ADD16RoundRect,0.201000X0.625000X-0.150000X0.625000X0.150000X-0.625000X0.150000X-0.625000X-0.150000X0*%
%ADD17RoundRect,0.301000X0.650000X-0.350000X0.650000X0.350000X-0.650000X0.350000X-0.650000X-0.350000X0*%
%ADD18RoundRect,0.201000X-0.150000X-0.625000X0.150000X-0.625000X0.150000X0.625000X-0.150000X0.625000X0*%
%ADD19RoundRect,0.301000X-0.350000X-0.650000X0.350000X-0.650000X0.350000X0.650000X-0.350000X0.650000X0*%
%ADD20RoundRect,0.051000X-0.850000X0.850000X-0.850000X-0.850000X0.850000X-0.850000X0.850000X0.850000X0*%
%ADD21O,1.802000X1.802000*%
%ADD22RoundRect,0.051000X-0.600000X0.450000X-0.600000X-0.450000X0.600000X-0.450000X0.600000X0.450000X0*%
%ADD23RoundRect,0.201000X0.150000X-0.825000X0.150000X0.825000X-0.150000X0.825000X-0.150000X-0.825000X0*%
%ADD24RoundRect,0.201000X-0.700000X0.150000X-0.700000X-0.150000X0.700000X-0.150000X0.700000X0.150000X0*%
%ADD25RoundRect,0.301000X-1.100000X0.250000X-1.100000X-0.250000X1.100000X-0.250000X1.100000X0.250000X0*%
%ADD26RoundRect,0.269750X0.218750X0.256250X-0.218750X0.256250X-0.218750X-0.256250X0.218750X-0.256250X0*%
%ADD27RoundRect,0.251000X-0.200000X-0.275000X0.200000X-0.275000X0.200000X0.275000X-0.200000X0.275000X0*%
%ADD28RoundRect,0.201000X-0.150000X0.825000X-0.150000X-0.825000X0.150000X-0.825000X0.150000X0.825000X0*%
%ADD29RoundRect,0.051000X0.550000X-0.650000X0.550000X0.650000X-0.550000X0.650000X-0.550000X-0.650000X0*%
%ADD30RoundRect,0.276000X0.225000X0.250000X-0.225000X0.250000X-0.225000X-0.250000X0.225000X-0.250000X0*%
%ADD31RoundRect,0.051000X0.850000X-0.850000X0.850000X0.850000X-0.850000X0.850000X-0.850000X-0.850000X0*%
%ADD32RoundRect,0.051000X0.750000X0.750000X-0.750000X0.750000X-0.750000X-0.750000X0.750000X-0.750000X0*%
%ADD33RoundRect,0.276000X0.250000X-0.225000X0.250000X0.225000X-0.250000X0.225000X-0.250000X-0.225000X0*%
%ADD34RoundRect,0.301000X1.500000X-0.250000X1.500000X0.250000X-1.500000X0.250000X-1.500000X-0.250000X0*%
%ADD35RoundRect,0.301001X1.449999X-0.499999X1.449999X0.499999X-1.449999X0.499999X-1.449999X-0.499999X0*%
%ADD36RoundRect,0.201000X-0.587500X-0.150000X0.587500X-0.150000X0.587500X0.150000X-0.587500X0.150000X0*%
%ADD37RoundRect,0.301000X0.625000X-0.375000X0.625000X0.375000X-0.625000X0.375000X-0.625000X-0.375000X0*%
%ADD38RoundRect,0.301000X-0.550000X1.250000X-0.550000X-1.250000X0.550000X-1.250000X0.550000X1.250000X0*%
G04 APERTURE END LIST*
D10*
X-23000000Y15000000D03*
X23000000Y15000000D03*
X-23000000Y-15000000D03*
X23000000Y-15000000D03*
D11*
X-10200000Y2975000D03*
X-10200000Y4625000D03*
D12*
X-5880000Y-4850000D03*
X-4610000Y-4850000D03*
X-3340000Y-4850000D03*
X-2070000Y-4850000D03*
X-800000Y-4850000D03*
X470000Y-4850000D03*
X1740000Y-4850000D03*
X3010000Y-4850000D03*
X4280000Y-4850000D03*
X4280000Y4450000D03*
X3010000Y4450000D03*
X1740000Y4450000D03*
X470000Y4450000D03*
X-800000Y4450000D03*
X-2070000Y4450000D03*
X-3340000Y4450000D03*
X-4610000Y4450000D03*
X-5880000Y4450000D03*
D13*
X-7700000Y1475000D03*
X-7700000Y-75000D03*
D14*
X-11775000Y0D03*
X-10225000Y0D03*
D15*
X6800000Y4425000D03*
X6800000Y2775000D03*
D11*
X-8500000Y2975000D03*
X-8500000Y4625000D03*
D13*
X10000000Y4775000D03*
X10000000Y3225000D03*
D16*
X20700000Y-5700000D03*
X20700000Y-4700000D03*
X20700000Y-3700000D03*
X20700000Y-2700000D03*
D17*
X24575000Y-7000000D03*
X24575000Y-1400000D03*
D18*
X-17700000Y-12700000D03*
X-16700000Y-12700000D03*
X-15700000Y-12700000D03*
X-14700000Y-12700000D03*
D19*
X-19000000Y-16575000D03*
X-13400000Y-16575000D03*
D20*
X16900000Y-13800000D03*
D21*
X16900000Y-16340000D03*
X14360000Y-13800000D03*
X14360000Y-16340000D03*
X11820000Y-13800000D03*
X11820000Y-16340000D03*
D22*
X-17900000Y10950000D03*
X-17900000Y7650000D03*
D23*
X12295000Y-4875000D03*
X13565000Y-4875000D03*
X14835000Y-4875000D03*
X16105000Y-4875000D03*
X16105000Y75000D03*
X14835000Y75000D03*
X13565000Y75000D03*
X12295000Y75000D03*
D15*
X13500000Y3725000D03*
X13500000Y2075000D03*
X15000000Y3725000D03*
X15000000Y2075000D03*
X16700000Y-9575000D03*
X16700000Y-11225000D03*
D11*
X14500000Y-11225000D03*
X14500000Y-9575000D03*
D24*
X-20450000Y-3025000D03*
X-20450000Y-4275000D03*
X-20450000Y-5525000D03*
X-20450000Y-6775000D03*
D25*
X-23650000Y-1175000D03*
X-23650000Y-8625000D03*
D26*
X9187500Y-15900000D03*
X7612500Y-15900000D03*
D27*
X4475000Y-15900000D03*
X6125000Y-15900000D03*
D28*
X-8595000Y-2025000D03*
X-9865000Y-2025000D03*
X-11135000Y-2025000D03*
X-12405000Y-2025000D03*
X-12405000Y-6975000D03*
X-11135000Y-6975000D03*
X-9865000Y-6975000D03*
X-8595000Y-6975000D03*
D29*
X6800000Y-1150000D03*
X6800000Y-3450000D03*
X8600000Y-3450000D03*
X8600000Y-1150000D03*
D24*
X-20450000Y6675000D03*
X-20450000Y5425000D03*
X-20450000Y4175000D03*
X-20450000Y2925000D03*
D25*
X-23650000Y1075000D03*
X-23650000Y8525000D03*
D13*
X-9900000Y-9825000D03*
X-9900000Y-11375000D03*
D11*
X-11400000Y-11425000D03*
X-11400000Y-9775000D03*
D15*
X-8400000Y-9775000D03*
X-8400000Y-11425000D03*
D27*
X-1725000Y-15900000D03*
X-75000Y-15900000D03*
D30*
X-3825000Y7700000D03*
X-5375000Y7700000D03*
X-825000Y7700000D03*
X-2375000Y7700000D03*
X2175000Y7700000D03*
X625000Y7700000D03*
X5175000Y7700000D03*
X3625000Y7700000D03*
D31*
X-15000000Y13925000D03*
D21*
X-15000000Y16465000D03*
X-12460000Y13925000D03*
X-12460000Y16465000D03*
X-9920000Y13925000D03*
X-9920000Y16465000D03*
X-7380000Y13925000D03*
X-7380000Y16465000D03*
X-4840000Y13925000D03*
X-4840000Y16465000D03*
X-2300000Y13925000D03*
X-2300000Y16465000D03*
X240000Y13925000D03*
X240000Y16465000D03*
X2780000Y13925000D03*
X2780000Y16465000D03*
X5320000Y13925000D03*
X5320000Y16465000D03*
X7860000Y13925000D03*
X7860000Y16465000D03*
X10400000Y13925000D03*
X10400000Y16465000D03*
X12940000Y13925000D03*
X12940000Y16465000D03*
X15480000Y13925000D03*
X15480000Y16465000D03*
D11*
X-5400000Y9775000D03*
X-5400000Y11425000D03*
X600000Y9775000D03*
X600000Y11425000D03*
X3600000Y9775000D03*
X3600000Y11425000D03*
D15*
X-900000Y11425000D03*
X-900000Y9775000D03*
X2100000Y11425000D03*
X2100000Y9775000D03*
X5100000Y11425000D03*
X5100000Y9775000D03*
X8900000Y11425000D03*
X8900000Y9775000D03*
X10400000Y11425000D03*
X10400000Y9775000D03*
X-9400000Y9425000D03*
X-9400000Y7775000D03*
X-10900000Y9425000D03*
X-10900000Y7775000D03*
X13200000Y11425000D03*
X13200000Y9775000D03*
X15000000Y11425000D03*
X15000000Y9775000D03*
D32*
X1200000Y-13000000D03*
X-6600000Y-13000000D03*
D15*
X-3900000Y11425000D03*
X-3900000Y9775000D03*
D33*
X10300000Y-1575000D03*
X10300000Y-25000D03*
D11*
X-2400000Y9775000D03*
X-2400000Y11425000D03*
D13*
X10300000Y-3025000D03*
X10300000Y-4575000D03*
D26*
X2987500Y-15900000D03*
X1412500Y-15900000D03*
D34*
X18050000Y3900000D03*
X18050000Y5900000D03*
X18050000Y7900000D03*
D35*
X23800000Y10250000D03*
X23800000Y1550000D03*
D36*
X-16237500Y-4250000D03*
X-16237500Y-6150000D03*
X-14362500Y-5200000D03*
D37*
X-15000000Y7900000D03*
X-15000000Y10700000D03*
D38*
X-16200000Y5200000D03*
X-16200000Y800000D03*
G36*
X25241900Y750001D02*
G01*
X25241900Y748001D01*
X25240497Y747028D01*
X25240491Y747027D01*
X25240162Y747000D01*
X22359838Y747000D01*
X22358106Y748000D01*
X22358106Y750000D01*
X22359838Y751000D01*
X25240168Y751001D01*
X25241900Y750001D01*
G37*
G36*
X25241894Y2352000D02*
G01*
X25241894Y2350000D01*
X25240162Y2349000D01*
X22359832Y2348999D01*
X22358100Y2349999D01*
X22358100Y2351999D01*
X22359503Y2352972D01*
X22359509Y2352973D01*
X22359838Y2353000D01*
X25240162Y2353000D01*
X25241894Y2352000D01*
G37*
G36*
X25241900Y9450001D02*
G01*
X25241900Y9448001D01*
X25240497Y9447028D01*
X25240491Y9447027D01*
X25240162Y9447000D01*
X22359838Y9447000D01*
X22358106Y9448000D01*
X22358106Y9450000D01*
X22359838Y9451000D01*
X25240168Y9451001D01*
X25241900Y9450001D01*
G37*
G36*
X25241894Y11052000D02*
G01*
X25241894Y11050000D01*
X25240162Y11049000D01*
X22359832Y11048999D01*
X22358100Y11049999D01*
X22358100Y11051999D01*
X22359503Y11052972D01*
X22359509Y11052973D01*
X22359838Y11053000D01*
X25240162Y11053000D01*
X25241894Y11052000D01*
G37*
M02*
