%TF.GenerationSoftware,KiCad,Pcbnew,6.0.11-2627ca5db0~126~ubuntu22.04.1*%
%TF.CreationDate,2023-08-09T03:57:06+02:00*%
%TF.ProjectId,OpenCyphalPicoBase,4f70656e-4379-4706-9861-6c5069636f42,0.3*%
%TF.SameCoordinates,PX55d4a80PY57bcf00*%
%TF.FileFunction,Drillmap*%
%TF.FilePolarity,Positive*%
%FSLAX45Y45*%
G04 Gerber Fmt 4.5, Leading zero omitted, Abs format (unit mm)*
G04 Created by KiCad (PCBNEW 6.0.11-2627ca5db0~126~ubuntu22.04.1) date 2023-08-09 03:57:06*
%MOMM*%
%LPD*%
G01*
G04 APERTURE LIST*
%ADD10C,0.050000*%
%ADD11C,0.200000*%
%ADD12C,0.040000*%
%ADD13C,0.100000*%
%ADD14C,0.320000*%
G04 APERTURE END LIST*
D10*
X2300000Y-1800000D02*
X-2287868Y-1800000D01*
X-2600000Y1500000D02*
X-2600000Y-1500000D01*
X2600000Y1500000D02*
X2600000Y-1500000D01*
X2300000Y1800000D02*
X-2300000Y1800000D01*
X2600000Y1500000D02*
G75*
G03*
X2300000Y1800000I-300000J0D01*
G01*
X-2300000Y1800000D02*
G75*
G03*
X-2600000Y1500000I0J-300000D01*
G01*
X2300000Y-1800000D02*
G75*
G03*
X2600000Y-1500000I0J300000D01*
G01*
X-2600005Y-1500000D02*
G75*
G03*
X-2287868Y-1800000I312135J12380D01*
G01*
D11*
D12*
X-2470000Y130000D02*
X-2430000Y90000D01*
X-2430000Y130000D02*
X-2470000Y90000D01*
X-2470000Y-100000D02*
X-2430000Y-140000D01*
X-2430000Y-100000D02*
X-2470000Y-140000D01*
X-2350000Y700000D02*
X-2310000Y660000D01*
X-2310000Y700000D02*
X-2350000Y660000D01*
X-2290000Y-670000D02*
X-2250000Y-710000D01*
X-2250000Y-670000D02*
X-2290000Y-710000D01*
X-2260000Y440000D02*
X-2220000Y400000D01*
X-2220000Y440000D02*
X-2260000Y400000D01*
X-2030000Y-180000D02*
X-1990000Y-220000D01*
X-1990000Y-180000D02*
X-2030000Y-220000D01*
X-1950000Y-1310000D02*
X-1910000Y-1350000D01*
X-1910000Y-1310000D02*
X-1950000Y-1350000D01*
X-1920000Y-880000D02*
X-1880000Y-920000D01*
X-1880000Y-880000D02*
X-1920000Y-920000D01*
X-1920000Y-1680000D02*
X-1880000Y-1720000D01*
X-1880000Y-1680000D02*
X-1920000Y-1720000D01*
X-1875000Y-305000D02*
X-1835000Y-345000D01*
X-1835000Y-305000D02*
X-1875000Y-345000D01*
X-1850000Y-660000D02*
X-1810000Y-700000D01*
X-1810000Y-660000D02*
X-1850000Y-700000D01*
X-1840000Y100000D02*
X-1800000Y60000D01*
X-1800000Y100000D02*
X-1840000Y60000D01*
X-1810000Y540000D02*
X-1770000Y500000D01*
X-1770000Y540000D02*
X-1810000Y500000D01*
X-1784953Y-584112D02*
X-1744953Y-624112D01*
X-1744953Y-584112D02*
X-1784953Y-624112D01*
X-1604778Y-502861D02*
X-1564778Y-542861D01*
X-1564778Y-502861D02*
X-1604778Y-542861D01*
X-1440000Y-630000D02*
X-1400000Y-670000D01*
X-1400000Y-630000D02*
X-1440000Y-670000D01*
X-1430000Y-360000D02*
X-1390000Y-400000D01*
X-1390000Y-360000D02*
X-1430000Y-400000D01*
X-1360000Y-1250000D02*
X-1320000Y-1290000D01*
X-1320000Y-1250000D02*
X-1360000Y-1290000D01*
X-1360000Y-1680000D02*
X-1320000Y-1720000D01*
X-1320000Y-1680000D02*
X-1360000Y-1720000D01*
X-1310000Y-30000D02*
X-1270000Y-70000D01*
X-1270000Y-30000D02*
X-1310000Y-70000D01*
X-1279950Y520000D02*
X-1239950Y480000D01*
X-1239950Y520000D02*
X-1279950Y480000D01*
X-1180000Y520000D02*
X-1140000Y480000D01*
X-1140000Y520000D02*
X-1180000Y480000D01*
X-1130000Y-1230000D02*
X-1090000Y-1270000D01*
X-1090000Y-1230000D02*
X-1130000Y-1270000D01*
X-981000Y151000D02*
X-941000Y111000D01*
X-941000Y151000D02*
X-981000Y111000D01*
X-880000Y-450000D02*
X-840000Y-490000D01*
X-840000Y-450000D02*
X-880000Y-490000D01*
X-690000Y760000D02*
X-650000Y720000D01*
X-650000Y760000D02*
X-690000Y720000D01*
X-472000Y152000D02*
X-432000Y112000D01*
X-432000Y152000D02*
X-472000Y112000D01*
X-401000Y909000D02*
X-361000Y869000D01*
X-361000Y909000D02*
X-401000Y869000D01*
X-300000Y30000D02*
X-260000Y-10000D01*
X-260000Y30000D02*
X-300000Y-10000D01*
X-218000Y152000D02*
X-178000Y112000D01*
X-178000Y152000D02*
X-218000Y112000D01*
X-180000Y909000D02*
X-140000Y869000D01*
X-140000Y909000D02*
X-180000Y869000D01*
X-147000Y-869000D02*
X-107000Y-909000D01*
X-107000Y-869000D02*
X-147000Y-909000D01*
X29000Y159000D02*
X69000Y119000D01*
X69000Y159000D02*
X29000Y119000D01*
X120000Y909000D02*
X160000Y869000D01*
X160000Y909000D02*
X120000Y869000D01*
X220000Y-1170000D02*
X260000Y-1210000D01*
X260000Y-1170000D02*
X220000Y-1210000D01*
X291000Y151000D02*
X331000Y111000D01*
X331000Y151000D02*
X291000Y111000D01*
X400000Y-1220000D02*
X440000Y-1260000D01*
X440000Y-1220000D02*
X400000Y-1260000D01*
X410000Y900000D02*
X450000Y860000D01*
X450000Y900000D02*
X410000Y860000D01*
X540000Y400000D02*
X580000Y360000D01*
X580000Y400000D02*
X540000Y360000D01*
X542000Y152000D02*
X582000Y112000D01*
X582000Y152000D02*
X542000Y112000D01*
X615000Y-869000D02*
X655000Y-909000D01*
X655000Y-869000D02*
X615000Y-909000D01*
X869000Y909000D02*
X909000Y869000D01*
X909000Y909000D02*
X869000Y869000D01*
X869000Y-869000D02*
X909000Y-909000D01*
X909000Y-869000D02*
X869000Y-909000D01*
X870000Y180000D02*
X910000Y140000D01*
X910000Y180000D02*
X870000Y140000D01*
X1123000Y909000D02*
X1163000Y869000D01*
X1163000Y909000D02*
X1123000Y869000D01*
X1226143Y348803D02*
X1266143Y308803D01*
X1266143Y348803D02*
X1226143Y308803D01*
X1377000Y870000D02*
X1417000Y830000D01*
X1417000Y870000D02*
X1377000Y830000D01*
X1390000Y-220000D02*
X1430000Y-260000D01*
X1430000Y-220000D02*
X1390000Y-260000D01*
X1631000Y1036000D02*
X1671000Y996000D01*
X1671000Y1036000D02*
X1631000Y996000D01*
X1650000Y-649050D02*
X1690000Y-689050D01*
X1690000Y-649050D02*
X1650000Y-689050D01*
X1700000Y-40000D02*
X1740000Y-80000D01*
X1740000Y-40000D02*
X1700000Y-80000D01*
X1760000Y250000D02*
X1800000Y210000D01*
X1800000Y250000D02*
X1760000Y210000D01*
X1760000Y-649050D02*
X1800000Y-689050D01*
X1800000Y-649050D02*
X1760000Y-689050D01*
X1800000Y1300000D02*
X1840000Y1260000D01*
X1840000Y1300000D02*
X1800000Y1260000D01*
X1890000Y-1240000D02*
X1930000Y-1280000D01*
X1930000Y-1240000D02*
X1890000Y-1280000D01*
X1900000Y1010000D02*
X1940000Y970000D01*
X1940000Y1010000D02*
X1900000Y970000D01*
X2100000Y570000D02*
X2140000Y530000D01*
X2140000Y570000D02*
X2100000Y530000D01*
X2230000Y-590000D02*
X2270000Y-630000D01*
X2270000Y-590000D02*
X2230000Y-630000D01*
X2270000Y170000D02*
X2310000Y130000D01*
X2310000Y170000D02*
X2270000Y130000D01*
X2470000Y170000D02*
X2510000Y130000D01*
X2510000Y170000D02*
X2470000Y130000D01*
X2470000Y-120000D02*
X2510000Y-160000D01*
X2510000Y-120000D02*
X2470000Y-160000D01*
X2470000Y-680000D02*
X2510000Y-720000D01*
X2510000Y-680000D02*
X2470000Y-720000D01*
D13*
X-1450000Y1646500D02*
G75*
G03*
X-1450000Y1646500I-50000J0D01*
G01*
X-1450000Y1392500D02*
G75*
G03*
X-1450000Y1392500I-50000J0D01*
G01*
X-1196000Y1646500D02*
G75*
G03*
X-1196000Y1646500I-50000J0D01*
G01*
X-1196000Y1392500D02*
G75*
G03*
X-1196000Y1392500I-50000J0D01*
G01*
X-942000Y1646500D02*
G75*
G03*
X-942000Y1646500I-50000J0D01*
G01*
X-942000Y1392500D02*
G75*
G03*
X-942000Y1392500I-50000J0D01*
G01*
X-688000Y1646500D02*
G75*
G03*
X-688000Y1646500I-50000J0D01*
G01*
X-688000Y1392500D02*
G75*
G03*
X-688000Y1392500I-50000J0D01*
G01*
X-434000Y1646500D02*
G75*
G03*
X-434000Y1646500I-50000J0D01*
G01*
X-434000Y1392500D02*
G75*
G03*
X-434000Y1392500I-50000J0D01*
G01*
X-180000Y1646500D02*
G75*
G03*
X-180000Y1646500I-50000J0D01*
G01*
X-180000Y1392500D02*
G75*
G03*
X-180000Y1392500I-50000J0D01*
G01*
X74000Y1646500D02*
G75*
G03*
X74000Y1646500I-50000J0D01*
G01*
X74000Y1392500D02*
G75*
G03*
X74000Y1392500I-50000J0D01*
G01*
X328000Y1646500D02*
G75*
G03*
X328000Y1646500I-50000J0D01*
G01*
X328000Y1392500D02*
G75*
G03*
X328000Y1392500I-50000J0D01*
G01*
X582000Y1646500D02*
G75*
G03*
X582000Y1646500I-50000J0D01*
G01*
X582000Y1392500D02*
G75*
G03*
X582000Y1392500I-50000J0D01*
G01*
X836000Y1646500D02*
G75*
G03*
X836000Y1646500I-50000J0D01*
G01*
X836000Y1392500D02*
G75*
G03*
X836000Y1392500I-50000J0D01*
G01*
X1090000Y1646500D02*
G75*
G03*
X1090000Y1646500I-50000J0D01*
G01*
X1090000Y1392500D02*
G75*
G03*
X1090000Y1392500I-50000J0D01*
G01*
X1232000Y-1380000D02*
G75*
G03*
X1232000Y-1380000I-50000J0D01*
G01*
X1232000Y-1634000D02*
G75*
G03*
X1232000Y-1634000I-50000J0D01*
G01*
X1344000Y1646500D02*
G75*
G03*
X1344000Y1646500I-50000J0D01*
G01*
X1344000Y1392500D02*
G75*
G03*
X1344000Y1392500I-50000J0D01*
G01*
X1486000Y-1380000D02*
G75*
G03*
X1486000Y-1380000I-50000J0D01*
G01*
X1486000Y-1634000D02*
G75*
G03*
X1486000Y-1634000I-50000J0D01*
G01*
X1598000Y1646500D02*
G75*
G03*
X1598000Y1646500I-50000J0D01*
G01*
X1598000Y1392500D02*
G75*
G03*
X1598000Y1392500I-50000J0D01*
G01*
X1740000Y-1380000D02*
G75*
G03*
X1740000Y-1380000I-50000J0D01*
G01*
X1740000Y-1634000D02*
G75*
G03*
X1740000Y-1634000I-50000J0D01*
G01*
D14*
X-2300000Y1660000D02*
X-2300000Y1340000D01*
X-2460000Y1500000D02*
X-2140000Y1500000D01*
X-2300000Y-1340000D02*
X-2300000Y-1660000D01*
X-2460000Y-1500000D02*
X-2140000Y-1500000D01*
X2300000Y1660000D02*
X2300000Y1340000D01*
X2140000Y1500000D02*
X2460000Y1500000D01*
X2300000Y-1340000D02*
X2300000Y-1660000D01*
X2140000Y-1500000D02*
X2460000Y-1500000D01*
D11*
X-2344881Y-2112976D02*
X-2344881Y-1912976D01*
X-2297262Y-1912976D01*
X-2268691Y-1922500D01*
X-2249643Y-1941548D01*
X-2240119Y-1960595D01*
X-2230595Y-1998690D01*
X-2230595Y-2027262D01*
X-2240119Y-2065357D01*
X-2249643Y-2084405D01*
X-2268691Y-2103452D01*
X-2297262Y-2112976D01*
X-2344881Y-2112976D01*
X-2144881Y-2112976D02*
X-2144881Y-1979643D01*
X-2144881Y-2017738D02*
X-2135357Y-1998690D01*
X-2125833Y-1989167D01*
X-2106786Y-1979643D01*
X-2087738Y-1979643D01*
X-2021071Y-2112976D02*
X-2021071Y-1979643D01*
X-2021071Y-1912976D02*
X-2030595Y-1922500D01*
X-2021071Y-1932024D01*
X-2011548Y-1922500D01*
X-2021071Y-1912976D01*
X-2021071Y-1932024D01*
X-1897262Y-2112976D02*
X-1916310Y-2103452D01*
X-1925833Y-2084405D01*
X-1925833Y-1912976D01*
X-1792500Y-2112976D02*
X-1811548Y-2103452D01*
X-1821071Y-2084405D01*
X-1821071Y-1912976D01*
X-1563929Y-2112976D02*
X-1563929Y-1912976D01*
X-1497262Y-2055833D01*
X-1430595Y-1912976D01*
X-1430595Y-2112976D01*
X-1249643Y-2112976D02*
X-1249643Y-2008214D01*
X-1259167Y-1989167D01*
X-1278214Y-1979643D01*
X-1316310Y-1979643D01*
X-1335357Y-1989167D01*
X-1249643Y-2103452D02*
X-1268691Y-2112976D01*
X-1316310Y-2112976D01*
X-1335357Y-2103452D01*
X-1344881Y-2084405D01*
X-1344881Y-2065357D01*
X-1335357Y-2046309D01*
X-1316310Y-2036786D01*
X-1268691Y-2036786D01*
X-1249643Y-2027262D01*
X-1154405Y-1979643D02*
X-1154405Y-2179643D01*
X-1154405Y-1989167D02*
X-1135357Y-1979643D01*
X-1097262Y-1979643D01*
X-1078214Y-1989167D01*
X-1068691Y-1998690D01*
X-1059167Y-2017738D01*
X-1059167Y-2074881D01*
X-1068691Y-2093928D01*
X-1078214Y-2103452D01*
X-1097262Y-2112976D01*
X-1135357Y-2112976D01*
X-1154405Y-2103452D01*
X-973452Y-2093928D02*
X-963929Y-2103452D01*
X-973452Y-2112976D01*
X-982976Y-2103452D01*
X-973452Y-2093928D01*
X-973452Y-2112976D01*
X-973452Y-1989167D02*
X-963929Y-1998690D01*
X-973452Y-2008214D01*
X-982976Y-1998690D01*
X-973452Y-1989167D01*
X-973452Y-2008214D01*
D12*
X-2642500Y-2422500D02*
X-2602500Y-2462500D01*
X-2602500Y-2422500D02*
X-2642500Y-2462500D01*
D11*
X-2306786Y-2332976D02*
X-2287738Y-2332976D01*
X-2268691Y-2342500D01*
X-2259167Y-2352024D01*
X-2249643Y-2371071D01*
X-2240119Y-2409167D01*
X-2240119Y-2456786D01*
X-2249643Y-2494881D01*
X-2259167Y-2513929D01*
X-2268691Y-2523452D01*
X-2287738Y-2532976D01*
X-2306786Y-2532976D01*
X-2325833Y-2523452D01*
X-2335357Y-2513929D01*
X-2344881Y-2494881D01*
X-2354405Y-2456786D01*
X-2354405Y-2409167D01*
X-2344881Y-2371071D01*
X-2335357Y-2352024D01*
X-2325833Y-2342500D01*
X-2306786Y-2332976D01*
X-2154405Y-2513929D02*
X-2144881Y-2523452D01*
X-2154405Y-2532976D01*
X-2163929Y-2523452D01*
X-2154405Y-2513929D01*
X-2154405Y-2532976D01*
X-1973452Y-2399643D02*
X-1973452Y-2532976D01*
X-2021071Y-2323452D02*
X-2068690Y-2466310D01*
X-1944881Y-2466310D01*
X-1830595Y-2332976D02*
X-1811548Y-2332976D01*
X-1792500Y-2342500D01*
X-1782976Y-2352024D01*
X-1773452Y-2371071D01*
X-1763929Y-2409167D01*
X-1763929Y-2456786D01*
X-1773452Y-2494881D01*
X-1782976Y-2513929D01*
X-1792500Y-2523452D01*
X-1811548Y-2532976D01*
X-1830595Y-2532976D01*
X-1849643Y-2523452D01*
X-1859167Y-2513929D01*
X-1868690Y-2494881D01*
X-1878214Y-2456786D01*
X-1878214Y-2409167D01*
X-1868690Y-2371071D01*
X-1859167Y-2352024D01*
X-1849643Y-2342500D01*
X-1830595Y-2332976D01*
X-1640119Y-2332976D02*
X-1621071Y-2332976D01*
X-1602024Y-2342500D01*
X-1592500Y-2352024D01*
X-1582976Y-2371071D01*
X-1573452Y-2409167D01*
X-1573452Y-2456786D01*
X-1582976Y-2494881D01*
X-1592500Y-2513929D01*
X-1602024Y-2523452D01*
X-1621071Y-2532976D01*
X-1640119Y-2532976D01*
X-1659167Y-2523452D01*
X-1668690Y-2513929D01*
X-1678214Y-2494881D01*
X-1687738Y-2456786D01*
X-1687738Y-2409167D01*
X-1678214Y-2371071D01*
X-1668690Y-2352024D01*
X-1659167Y-2342500D01*
X-1640119Y-2332976D01*
X-1487738Y-2532976D02*
X-1487738Y-2399643D01*
X-1487738Y-2418690D02*
X-1478214Y-2409167D01*
X-1459167Y-2399643D01*
X-1430595Y-2399643D01*
X-1411548Y-2409167D01*
X-1402024Y-2428214D01*
X-1402024Y-2532976D01*
X-1402024Y-2428214D02*
X-1392500Y-2409167D01*
X-1373452Y-2399643D01*
X-1344881Y-2399643D01*
X-1325833Y-2409167D01*
X-1316310Y-2428214D01*
X-1316310Y-2532976D01*
X-1221072Y-2532976D02*
X-1221072Y-2399643D01*
X-1221072Y-2418690D02*
X-1211548Y-2409167D01*
X-1192500Y-2399643D01*
X-1163929Y-2399643D01*
X-1144881Y-2409167D01*
X-1135357Y-2428214D01*
X-1135357Y-2532976D01*
X-1135357Y-2428214D02*
X-1125833Y-2409167D01*
X-1106786Y-2399643D01*
X-1078214Y-2399643D01*
X-1059167Y-2409167D01*
X-1049643Y-2428214D01*
X-1049643Y-2532976D01*
X-659167Y-2323452D02*
X-830595Y-2580595D01*
X-402024Y-2332976D02*
X-382976Y-2332976D01*
X-363929Y-2342500D01*
X-354405Y-2352024D01*
X-344881Y-2371071D01*
X-335357Y-2409167D01*
X-335357Y-2456786D01*
X-344881Y-2494881D01*
X-354405Y-2513929D01*
X-363929Y-2523452D01*
X-382976Y-2532976D01*
X-402024Y-2532976D01*
X-421071Y-2523452D01*
X-430595Y-2513929D01*
X-440119Y-2494881D01*
X-449643Y-2456786D01*
X-449643Y-2409167D01*
X-440119Y-2371071D01*
X-430595Y-2352024D01*
X-421071Y-2342500D01*
X-402024Y-2332976D01*
X-249643Y-2513929D02*
X-240119Y-2523452D01*
X-249643Y-2532976D01*
X-259167Y-2523452D01*
X-249643Y-2513929D01*
X-249643Y-2532976D01*
X-116310Y-2332976D02*
X-97262Y-2332976D01*
X-78214Y-2342500D01*
X-68691Y-2352024D01*
X-59167Y-2371071D01*
X-49643Y-2409167D01*
X-49643Y-2456786D01*
X-59167Y-2494881D01*
X-68691Y-2513929D01*
X-78214Y-2523452D01*
X-97262Y-2532976D01*
X-116310Y-2532976D01*
X-135357Y-2523452D01*
X-144881Y-2513929D01*
X-154405Y-2494881D01*
X-163929Y-2456786D01*
X-163929Y-2409167D01*
X-154405Y-2371071D01*
X-144881Y-2352024D01*
X-135357Y-2342500D01*
X-116310Y-2332976D01*
X140833Y-2532976D02*
X26548Y-2532976D01*
X83690Y-2532976D02*
X83690Y-2332976D01*
X64643Y-2361548D01*
X45595Y-2380595D01*
X26548Y-2390119D01*
X321786Y-2332976D02*
X226548Y-2332976D01*
X217024Y-2428214D01*
X226548Y-2418690D01*
X245595Y-2409167D01*
X293214Y-2409167D01*
X312262Y-2418690D01*
X321786Y-2428214D01*
X331310Y-2447262D01*
X331310Y-2494881D01*
X321786Y-2513929D01*
X312262Y-2523452D01*
X293214Y-2532976D01*
X245595Y-2532976D01*
X226548Y-2523452D01*
X217024Y-2513929D01*
X397976Y-2332976D02*
X531310Y-2332976D01*
X445595Y-2532976D01*
X597976Y-2332976D02*
X597976Y-2371071D01*
X674167Y-2332976D02*
X674167Y-2371071D01*
X969405Y-2609167D02*
X959881Y-2599643D01*
X940833Y-2571071D01*
X931309Y-2552024D01*
X921786Y-2523452D01*
X912262Y-2475833D01*
X912262Y-2437738D01*
X921786Y-2390119D01*
X931309Y-2361548D01*
X940833Y-2342500D01*
X959881Y-2313929D01*
X969405Y-2304405D01*
X1131310Y-2332976D02*
X1093214Y-2332976D01*
X1074167Y-2342500D01*
X1064643Y-2352024D01*
X1045595Y-2380595D01*
X1036071Y-2418690D01*
X1036071Y-2494881D01*
X1045595Y-2513929D01*
X1055119Y-2523452D01*
X1074167Y-2532976D01*
X1112262Y-2532976D01*
X1131310Y-2523452D01*
X1140833Y-2513929D01*
X1150357Y-2494881D01*
X1150357Y-2447262D01*
X1140833Y-2428214D01*
X1131310Y-2418690D01*
X1112262Y-2409167D01*
X1074167Y-2409167D01*
X1055119Y-2418690D01*
X1045595Y-2428214D01*
X1036071Y-2447262D01*
X1226548Y-2352024D02*
X1236071Y-2342500D01*
X1255119Y-2332976D01*
X1302738Y-2332976D01*
X1321786Y-2342500D01*
X1331310Y-2352024D01*
X1340833Y-2371071D01*
X1340833Y-2390119D01*
X1331310Y-2418690D01*
X1217024Y-2532976D01*
X1340833Y-2532976D01*
X1578928Y-2532976D02*
X1578928Y-2332976D01*
X1664643Y-2532976D02*
X1664643Y-2428214D01*
X1655119Y-2409167D01*
X1636071Y-2399643D01*
X1607500Y-2399643D01*
X1588452Y-2409167D01*
X1578928Y-2418690D01*
X1788452Y-2532976D02*
X1769405Y-2523452D01*
X1759881Y-2513929D01*
X1750357Y-2494881D01*
X1750357Y-2437738D01*
X1759881Y-2418690D01*
X1769405Y-2409167D01*
X1788452Y-2399643D01*
X1817024Y-2399643D01*
X1836071Y-2409167D01*
X1845595Y-2418690D01*
X1855119Y-2437738D01*
X1855119Y-2494881D01*
X1845595Y-2513929D01*
X1836071Y-2523452D01*
X1817024Y-2532976D01*
X1788452Y-2532976D01*
X1969405Y-2532976D02*
X1950357Y-2523452D01*
X1940833Y-2504405D01*
X1940833Y-2332976D01*
X2121786Y-2523452D02*
X2102738Y-2532976D01*
X2064643Y-2532976D01*
X2045595Y-2523452D01*
X2036071Y-2504405D01*
X2036071Y-2428214D01*
X2045595Y-2409167D01*
X2064643Y-2399643D01*
X2102738Y-2399643D01*
X2121786Y-2409167D01*
X2131310Y-2428214D01*
X2131310Y-2447262D01*
X2036071Y-2466310D01*
X2207500Y-2523452D02*
X2226548Y-2532976D01*
X2264643Y-2532976D01*
X2283690Y-2523452D01*
X2293214Y-2504405D01*
X2293214Y-2494881D01*
X2283690Y-2475833D01*
X2264643Y-2466310D01*
X2236071Y-2466310D01*
X2217024Y-2456786D01*
X2207500Y-2437738D01*
X2207500Y-2428214D01*
X2217024Y-2409167D01*
X2236071Y-2399643D01*
X2264643Y-2399643D01*
X2283690Y-2409167D01*
X2359881Y-2609167D02*
X2369405Y-2599643D01*
X2388452Y-2571071D01*
X2397976Y-2552024D01*
X2407500Y-2523452D01*
X2417024Y-2475833D01*
X2417024Y-2437738D01*
X2407500Y-2390119D01*
X2397976Y-2361548D01*
X2388452Y-2342500D01*
X2369405Y-2313929D01*
X2359881Y-2304405D01*
D13*
X-2602500Y-2706500D02*
G75*
G03*
X-2602500Y-2706500I-50000J0D01*
G01*
D11*
X-2240119Y-2796976D02*
X-2354405Y-2796976D01*
X-2297262Y-2796976D02*
X-2297262Y-2596976D01*
X-2316310Y-2625548D01*
X-2335357Y-2644595D01*
X-2354405Y-2654119D01*
X-2154405Y-2777929D02*
X-2144881Y-2787452D01*
X-2154405Y-2796976D01*
X-2163929Y-2787452D01*
X-2154405Y-2777929D01*
X-2154405Y-2796976D01*
X-2021071Y-2596976D02*
X-2002024Y-2596976D01*
X-1982976Y-2606500D01*
X-1973452Y-2616024D01*
X-1963929Y-2635071D01*
X-1954405Y-2673167D01*
X-1954405Y-2720786D01*
X-1963929Y-2758881D01*
X-1973452Y-2777929D01*
X-1982976Y-2787452D01*
X-2002024Y-2796976D01*
X-2021071Y-2796976D01*
X-2040119Y-2787452D01*
X-2049643Y-2777929D01*
X-2059167Y-2758881D01*
X-2068690Y-2720786D01*
X-2068690Y-2673167D01*
X-2059167Y-2635071D01*
X-2049643Y-2616024D01*
X-2040119Y-2606500D01*
X-2021071Y-2596976D01*
X-1830595Y-2596976D02*
X-1811548Y-2596976D01*
X-1792500Y-2606500D01*
X-1782976Y-2616024D01*
X-1773452Y-2635071D01*
X-1763929Y-2673167D01*
X-1763929Y-2720786D01*
X-1773452Y-2758881D01*
X-1782976Y-2777929D01*
X-1792500Y-2787452D01*
X-1811548Y-2796976D01*
X-1830595Y-2796976D01*
X-1849643Y-2787452D01*
X-1859167Y-2777929D01*
X-1868690Y-2758881D01*
X-1878214Y-2720786D01*
X-1878214Y-2673167D01*
X-1868690Y-2635071D01*
X-1859167Y-2616024D01*
X-1849643Y-2606500D01*
X-1830595Y-2596976D01*
X-1640119Y-2596976D02*
X-1621071Y-2596976D01*
X-1602024Y-2606500D01*
X-1592500Y-2616024D01*
X-1582976Y-2635071D01*
X-1573452Y-2673167D01*
X-1573452Y-2720786D01*
X-1582976Y-2758881D01*
X-1592500Y-2777929D01*
X-1602024Y-2787452D01*
X-1621071Y-2796976D01*
X-1640119Y-2796976D01*
X-1659167Y-2787452D01*
X-1668690Y-2777929D01*
X-1678214Y-2758881D01*
X-1687738Y-2720786D01*
X-1687738Y-2673167D01*
X-1678214Y-2635071D01*
X-1668690Y-2616024D01*
X-1659167Y-2606500D01*
X-1640119Y-2596976D01*
X-1487738Y-2796976D02*
X-1487738Y-2663643D01*
X-1487738Y-2682690D02*
X-1478214Y-2673167D01*
X-1459167Y-2663643D01*
X-1430595Y-2663643D01*
X-1411548Y-2673167D01*
X-1402024Y-2692214D01*
X-1402024Y-2796976D01*
X-1402024Y-2692214D02*
X-1392500Y-2673167D01*
X-1373452Y-2663643D01*
X-1344881Y-2663643D01*
X-1325833Y-2673167D01*
X-1316310Y-2692214D01*
X-1316310Y-2796976D01*
X-1221072Y-2796976D02*
X-1221072Y-2663643D01*
X-1221072Y-2682690D02*
X-1211548Y-2673167D01*
X-1192500Y-2663643D01*
X-1163929Y-2663643D01*
X-1144881Y-2673167D01*
X-1135357Y-2692214D01*
X-1135357Y-2796976D01*
X-1135357Y-2692214D02*
X-1125833Y-2673167D01*
X-1106786Y-2663643D01*
X-1078214Y-2663643D01*
X-1059167Y-2673167D01*
X-1049643Y-2692214D01*
X-1049643Y-2796976D01*
X-659167Y-2587452D02*
X-830595Y-2844595D01*
X-402024Y-2596976D02*
X-382976Y-2596976D01*
X-363929Y-2606500D01*
X-354405Y-2616024D01*
X-344881Y-2635071D01*
X-335357Y-2673167D01*
X-335357Y-2720786D01*
X-344881Y-2758881D01*
X-354405Y-2777929D01*
X-363929Y-2787452D01*
X-382976Y-2796976D01*
X-402024Y-2796976D01*
X-421071Y-2787452D01*
X-430595Y-2777929D01*
X-440119Y-2758881D01*
X-449643Y-2720786D01*
X-449643Y-2673167D01*
X-440119Y-2635071D01*
X-430595Y-2616024D01*
X-421071Y-2606500D01*
X-402024Y-2596976D01*
X-249643Y-2777929D02*
X-240119Y-2787452D01*
X-249643Y-2796976D01*
X-259167Y-2787452D01*
X-249643Y-2777929D01*
X-249643Y-2796976D01*
X-116310Y-2596976D02*
X-97262Y-2596976D01*
X-78214Y-2606500D01*
X-68691Y-2616024D01*
X-59167Y-2635071D01*
X-49643Y-2673167D01*
X-49643Y-2720786D01*
X-59167Y-2758881D01*
X-68691Y-2777929D01*
X-78214Y-2787452D01*
X-97262Y-2796976D01*
X-116310Y-2796976D01*
X-135357Y-2787452D01*
X-144881Y-2777929D01*
X-154405Y-2758881D01*
X-163929Y-2720786D01*
X-163929Y-2673167D01*
X-154405Y-2635071D01*
X-144881Y-2616024D01*
X-135357Y-2606500D01*
X-116310Y-2596976D01*
X17024Y-2596976D02*
X140833Y-2596976D01*
X74167Y-2673167D01*
X102738Y-2673167D01*
X121786Y-2682690D01*
X131310Y-2692214D01*
X140833Y-2711262D01*
X140833Y-2758881D01*
X131310Y-2777929D01*
X121786Y-2787452D01*
X102738Y-2796976D01*
X45595Y-2796976D01*
X26548Y-2787452D01*
X17024Y-2777929D01*
X236071Y-2796976D02*
X274167Y-2796976D01*
X293214Y-2787452D01*
X302738Y-2777929D01*
X321786Y-2749357D01*
X331310Y-2711262D01*
X331310Y-2635071D01*
X321786Y-2616024D01*
X312262Y-2606500D01*
X293214Y-2596976D01*
X255119Y-2596976D01*
X236071Y-2606500D01*
X226548Y-2616024D01*
X217024Y-2635071D01*
X217024Y-2682690D01*
X226548Y-2701738D01*
X236071Y-2711262D01*
X255119Y-2720786D01*
X293214Y-2720786D01*
X312262Y-2711262D01*
X321786Y-2701738D01*
X331310Y-2682690D01*
X502738Y-2663643D02*
X502738Y-2796976D01*
X455119Y-2587452D02*
X407500Y-2730310D01*
X531310Y-2730310D01*
X597976Y-2596976D02*
X597976Y-2635071D01*
X674167Y-2596976D02*
X674167Y-2635071D01*
X969405Y-2873167D02*
X959881Y-2863643D01*
X940833Y-2835071D01*
X931309Y-2816024D01*
X921786Y-2787452D01*
X912262Y-2739833D01*
X912262Y-2701738D01*
X921786Y-2654119D01*
X931309Y-2625548D01*
X940833Y-2606500D01*
X959881Y-2577929D01*
X969405Y-2568405D01*
X1026548Y-2596976D02*
X1150357Y-2596976D01*
X1083690Y-2673167D01*
X1112262Y-2673167D01*
X1131310Y-2682690D01*
X1140833Y-2692214D01*
X1150357Y-2711262D01*
X1150357Y-2758881D01*
X1140833Y-2777929D01*
X1131310Y-2787452D01*
X1112262Y-2796976D01*
X1055119Y-2796976D01*
X1036071Y-2787452D01*
X1026548Y-2777929D01*
X1226548Y-2616024D02*
X1236071Y-2606500D01*
X1255119Y-2596976D01*
X1302738Y-2596976D01*
X1321786Y-2606500D01*
X1331310Y-2616024D01*
X1340833Y-2635071D01*
X1340833Y-2654119D01*
X1331310Y-2682690D01*
X1217024Y-2796976D01*
X1340833Y-2796976D01*
X1578928Y-2796976D02*
X1578928Y-2596976D01*
X1664643Y-2796976D02*
X1664643Y-2692214D01*
X1655119Y-2673167D01*
X1636071Y-2663643D01*
X1607500Y-2663643D01*
X1588452Y-2673167D01*
X1578928Y-2682690D01*
X1788452Y-2796976D02*
X1769405Y-2787452D01*
X1759881Y-2777929D01*
X1750357Y-2758881D01*
X1750357Y-2701738D01*
X1759881Y-2682690D01*
X1769405Y-2673167D01*
X1788452Y-2663643D01*
X1817024Y-2663643D01*
X1836071Y-2673167D01*
X1845595Y-2682690D01*
X1855119Y-2701738D01*
X1855119Y-2758881D01*
X1845595Y-2777929D01*
X1836071Y-2787452D01*
X1817024Y-2796976D01*
X1788452Y-2796976D01*
X1969405Y-2796976D02*
X1950357Y-2787452D01*
X1940833Y-2768405D01*
X1940833Y-2596976D01*
X2121786Y-2787452D02*
X2102738Y-2796976D01*
X2064643Y-2796976D01*
X2045595Y-2787452D01*
X2036071Y-2768405D01*
X2036071Y-2692214D01*
X2045595Y-2673167D01*
X2064643Y-2663643D01*
X2102738Y-2663643D01*
X2121786Y-2673167D01*
X2131310Y-2692214D01*
X2131310Y-2711262D01*
X2036071Y-2730310D01*
X2207500Y-2787452D02*
X2226548Y-2796976D01*
X2264643Y-2796976D01*
X2283690Y-2787452D01*
X2293214Y-2768405D01*
X2293214Y-2758881D01*
X2283690Y-2739833D01*
X2264643Y-2730310D01*
X2236071Y-2730310D01*
X2217024Y-2720786D01*
X2207500Y-2701738D01*
X2207500Y-2692214D01*
X2217024Y-2673167D01*
X2236071Y-2663643D01*
X2264643Y-2663643D01*
X2283690Y-2673167D01*
X2359881Y-2873167D02*
X2369405Y-2863643D01*
X2388452Y-2835071D01*
X2397976Y-2816024D01*
X2407500Y-2787452D01*
X2417024Y-2739833D01*
X2417024Y-2701738D01*
X2407500Y-2654119D01*
X2397976Y-2625548D01*
X2388452Y-2606500D01*
X2369405Y-2577929D01*
X2359881Y-2568405D01*
X-2702500Y-2870500D02*
X-2702500Y-3070500D01*
X-2802500Y-2970500D02*
X-2602500Y-2970500D01*
X-2363929Y-2860976D02*
X-2240119Y-2860976D01*
X-2306786Y-2937167D01*
X-2278214Y-2937167D01*
X-2259167Y-2946690D01*
X-2249643Y-2956214D01*
X-2240119Y-2975262D01*
X-2240119Y-3022881D01*
X-2249643Y-3041928D01*
X-2259167Y-3051452D01*
X-2278214Y-3060976D01*
X-2335357Y-3060976D01*
X-2354405Y-3051452D01*
X-2363929Y-3041928D01*
X-2154405Y-3041928D02*
X-2144881Y-3051452D01*
X-2154405Y-3060976D01*
X-2163929Y-3051452D01*
X-2154405Y-3041928D01*
X-2154405Y-3060976D01*
X-2068690Y-2880024D02*
X-2059167Y-2870500D01*
X-2040119Y-2860976D01*
X-1992500Y-2860976D01*
X-1973452Y-2870500D01*
X-1963929Y-2880024D01*
X-1954405Y-2899071D01*
X-1954405Y-2918119D01*
X-1963929Y-2946690D01*
X-2078214Y-3060976D01*
X-1954405Y-3060976D01*
X-1830595Y-2860976D02*
X-1811548Y-2860976D01*
X-1792500Y-2870500D01*
X-1782976Y-2880024D01*
X-1773452Y-2899071D01*
X-1763929Y-2937167D01*
X-1763929Y-2984786D01*
X-1773452Y-3022881D01*
X-1782976Y-3041928D01*
X-1792500Y-3051452D01*
X-1811548Y-3060976D01*
X-1830595Y-3060976D01*
X-1849643Y-3051452D01*
X-1859167Y-3041928D01*
X-1868690Y-3022881D01*
X-1878214Y-2984786D01*
X-1878214Y-2937167D01*
X-1868690Y-2899071D01*
X-1859167Y-2880024D01*
X-1849643Y-2870500D01*
X-1830595Y-2860976D01*
X-1640119Y-2860976D02*
X-1621071Y-2860976D01*
X-1602024Y-2870500D01*
X-1592500Y-2880024D01*
X-1582976Y-2899071D01*
X-1573452Y-2937167D01*
X-1573452Y-2984786D01*
X-1582976Y-3022881D01*
X-1592500Y-3041928D01*
X-1602024Y-3051452D01*
X-1621071Y-3060976D01*
X-1640119Y-3060976D01*
X-1659167Y-3051452D01*
X-1668690Y-3041928D01*
X-1678214Y-3022881D01*
X-1687738Y-2984786D01*
X-1687738Y-2937167D01*
X-1678214Y-2899071D01*
X-1668690Y-2880024D01*
X-1659167Y-2870500D01*
X-1640119Y-2860976D01*
X-1487738Y-3060976D02*
X-1487738Y-2927643D01*
X-1487738Y-2946690D02*
X-1478214Y-2937167D01*
X-1459167Y-2927643D01*
X-1430595Y-2927643D01*
X-1411548Y-2937167D01*
X-1402024Y-2956214D01*
X-1402024Y-3060976D01*
X-1402024Y-2956214D02*
X-1392500Y-2937167D01*
X-1373452Y-2927643D01*
X-1344881Y-2927643D01*
X-1325833Y-2937167D01*
X-1316310Y-2956214D01*
X-1316310Y-3060976D01*
X-1221072Y-3060976D02*
X-1221072Y-2927643D01*
X-1221072Y-2946690D02*
X-1211548Y-2937167D01*
X-1192500Y-2927643D01*
X-1163929Y-2927643D01*
X-1144881Y-2937167D01*
X-1135357Y-2956214D01*
X-1135357Y-3060976D01*
X-1135357Y-2956214D02*
X-1125833Y-2937167D01*
X-1106786Y-2927643D01*
X-1078214Y-2927643D01*
X-1059167Y-2937167D01*
X-1049643Y-2956214D01*
X-1049643Y-3060976D01*
X-659167Y-2851452D02*
X-830595Y-3108595D01*
X-402024Y-2860976D02*
X-382976Y-2860976D01*
X-363929Y-2870500D01*
X-354405Y-2880024D01*
X-344881Y-2899071D01*
X-335357Y-2937167D01*
X-335357Y-2984786D01*
X-344881Y-3022881D01*
X-354405Y-3041928D01*
X-363929Y-3051452D01*
X-382976Y-3060976D01*
X-402024Y-3060976D01*
X-421071Y-3051452D01*
X-430595Y-3041928D01*
X-440119Y-3022881D01*
X-449643Y-2984786D01*
X-449643Y-2937167D01*
X-440119Y-2899071D01*
X-430595Y-2880024D01*
X-421071Y-2870500D01*
X-402024Y-2860976D01*
X-249643Y-3041928D02*
X-240119Y-3051452D01*
X-249643Y-3060976D01*
X-259167Y-3051452D01*
X-249643Y-3041928D01*
X-249643Y-3060976D01*
X-49643Y-3060976D02*
X-163929Y-3060976D01*
X-106786Y-3060976D02*
X-106786Y-2860976D01*
X-125833Y-2889548D01*
X-144881Y-2908595D01*
X-163929Y-2918119D01*
X26548Y-2880024D02*
X36071Y-2870500D01*
X55119Y-2860976D01*
X102738Y-2860976D01*
X121786Y-2870500D01*
X131310Y-2880024D01*
X140833Y-2899071D01*
X140833Y-2918119D01*
X131310Y-2946690D01*
X17024Y-3060976D01*
X140833Y-3060976D01*
X312262Y-2860976D02*
X274167Y-2860976D01*
X255119Y-2870500D01*
X245595Y-2880024D01*
X226548Y-2908595D01*
X217024Y-2946690D01*
X217024Y-3022881D01*
X226548Y-3041928D01*
X236071Y-3051452D01*
X255119Y-3060976D01*
X293214Y-3060976D01*
X312262Y-3051452D01*
X321786Y-3041928D01*
X331310Y-3022881D01*
X331310Y-2975262D01*
X321786Y-2956214D01*
X312262Y-2946690D01*
X293214Y-2937167D01*
X255119Y-2937167D01*
X236071Y-2946690D01*
X226548Y-2956214D01*
X217024Y-2975262D01*
X455119Y-2860976D02*
X474167Y-2860976D01*
X493214Y-2870500D01*
X502738Y-2880024D01*
X512262Y-2899071D01*
X521786Y-2937167D01*
X521786Y-2984786D01*
X512262Y-3022881D01*
X502738Y-3041928D01*
X493214Y-3051452D01*
X474167Y-3060976D01*
X455119Y-3060976D01*
X436071Y-3051452D01*
X426548Y-3041928D01*
X417024Y-3022881D01*
X407500Y-2984786D01*
X407500Y-2937167D01*
X417024Y-2899071D01*
X426548Y-2880024D01*
X436071Y-2870500D01*
X455119Y-2860976D01*
X597976Y-2860976D02*
X597976Y-2899071D01*
X674167Y-2860976D02*
X674167Y-2899071D01*
X969405Y-3137167D02*
X959881Y-3127643D01*
X940833Y-3099071D01*
X931309Y-3080024D01*
X921786Y-3051452D01*
X912262Y-3003833D01*
X912262Y-2965738D01*
X921786Y-2918119D01*
X931309Y-2889548D01*
X940833Y-2870500D01*
X959881Y-2841928D01*
X969405Y-2832405D01*
X1131310Y-2927643D02*
X1131310Y-3060976D01*
X1083690Y-2851452D02*
X1036071Y-2994309D01*
X1159881Y-2994309D01*
X1388452Y-3060976D02*
X1388452Y-2860976D01*
X1474167Y-3060976D02*
X1474167Y-2956214D01*
X1464643Y-2937167D01*
X1445595Y-2927643D01*
X1417024Y-2927643D01*
X1397976Y-2937167D01*
X1388452Y-2946690D01*
X1597976Y-3060976D02*
X1578928Y-3051452D01*
X1569405Y-3041928D01*
X1559881Y-3022881D01*
X1559881Y-2965738D01*
X1569405Y-2946690D01*
X1578928Y-2937167D01*
X1597976Y-2927643D01*
X1626548Y-2927643D01*
X1645595Y-2937167D01*
X1655119Y-2946690D01*
X1664643Y-2965738D01*
X1664643Y-3022881D01*
X1655119Y-3041928D01*
X1645595Y-3051452D01*
X1626548Y-3060976D01*
X1597976Y-3060976D01*
X1778928Y-3060976D02*
X1759881Y-3051452D01*
X1750357Y-3032405D01*
X1750357Y-2860976D01*
X1931309Y-3051452D02*
X1912262Y-3060976D01*
X1874167Y-3060976D01*
X1855119Y-3051452D01*
X1845595Y-3032405D01*
X1845595Y-2956214D01*
X1855119Y-2937167D01*
X1874167Y-2927643D01*
X1912262Y-2927643D01*
X1931309Y-2937167D01*
X1940833Y-2956214D01*
X1940833Y-2975262D01*
X1845595Y-2994309D01*
X2017024Y-3051452D02*
X2036071Y-3060976D01*
X2074167Y-3060976D01*
X2093214Y-3051452D01*
X2102738Y-3032405D01*
X2102738Y-3022881D01*
X2093214Y-3003833D01*
X2074167Y-2994309D01*
X2045595Y-2994309D01*
X2026548Y-2984786D01*
X2017024Y-2965738D01*
X2017024Y-2956214D01*
X2026548Y-2937167D01*
X2045595Y-2927643D01*
X2074167Y-2927643D01*
X2093214Y-2937167D01*
X2169405Y-3137167D02*
X2178929Y-3127643D01*
X2197976Y-3099071D01*
X2207500Y-3080024D01*
X2217024Y-3051452D01*
X2226548Y-3003833D01*
X2226548Y-2965738D01*
X2217024Y-2918119D01*
X2207500Y-2889548D01*
X2197976Y-2870500D01*
X2178929Y-2841928D01*
X2169405Y-2832405D01*
M02*
