M48
; DRILL file {KiCad 6.0.11-2627ca5db0~126~ubuntu22.04.1} date Mi 09 Aug 2023 03:57:09 CEST
; FORMAT={-:-/ absolute / metric / decimal}
; #@! TF.CreationDate,2023-08-09T03:57:09+02:00
; #@! TF.GenerationSoftware,Kicad,Pcbnew,6.0.11-2627ca5db0~126~ubuntu22.04.1
; #@! TF.FileFunction,Plated,1,2,PTH
FMAT,2
METRIC
; #@! TA.AperFunction,Plated,PTH,ViaDrill
T1C0.400
; #@! TA.AperFunction,Plated,PTH,ComponentDrill
T2C1.000
; #@! TA.AperFunction,Plated,PTH,ComponentDrill
T3C3.200
%
G90
G05
T1
X-24.5Y1.1
X-24.5Y-1.2
X-23.3Y6.8
X-22.7Y-6.9
X-22.4Y4.2
X-20.1Y-2.0
X-19.3Y-13.3
X-19.0Y-9.0
X-19.0Y-17.0
X-18.55Y-3.25
X-18.3Y-6.8
X-18.2Y0.8
X-17.9Y5.2
X-17.65Y-6.041
X-15.848Y-5.229
X-14.2Y-6.5
X-14.1Y-3.8
X-13.4Y-12.7
X-13.4Y-17.0
X-12.9Y-0.5
X-12.6Y5.0
X-11.6Y5.0
X-11.1Y-12.5
X-9.61Y1.31
X-8.6Y-4.7
X-6.7Y7.4
X-4.52Y1.32
X-3.81Y8.89
X-2.8Y0.1
X-1.98Y1.32
X-1.6Y8.89
X-1.27Y-8.89
X0.49Y1.39
X1.4Y8.89
X2.4Y-11.9
X3.11Y1.31
X4.2Y-12.4
X4.3Y8.8
X5.6Y3.8
X5.62Y1.32
X6.35Y-8.89
X8.89Y8.89
X8.89Y-8.89
X8.9Y1.6
X11.43Y8.89
X12.461Y3.288
X13.97Y8.5
X14.1Y-2.4
X16.51Y10.16
X16.7Y-6.691
X17.2Y-0.6
X17.8Y2.3
X17.8Y-6.691
X18.2Y12.8
X19.1Y-12.6
X19.2Y9.9
X21.2Y5.5
X22.5Y-6.1
X22.9Y1.5
X24.9Y1.5
X24.9Y-1.4
X24.9Y-7.0
T2
X-15.0Y16.465
X-15.0Y13.925
X-12.46Y16.465
X-12.46Y13.925
X-9.92Y16.465
X-9.92Y13.925
X-7.38Y16.465
X-7.38Y13.925
X-4.84Y16.465
X-4.84Y13.925
X-2.3Y16.465
X-2.3Y13.925
X0.24Y16.465
X0.24Y13.925
X2.78Y16.465
X2.78Y13.925
X5.32Y16.465
X5.32Y13.925
X7.86Y16.465
X7.86Y13.925
X10.4Y16.465
X10.4Y13.925
X11.82Y-13.8
X11.82Y-16.34
X12.94Y16.465
X12.94Y13.925
X14.36Y-13.8
X14.36Y-16.34
X15.48Y16.465
X15.48Y13.925
X16.9Y-13.8
X16.9Y-16.34
T3
X-23.0Y15.0
X-23.0Y-15.0
X23.0Y15.0
X23.0Y-15.0
T0
M30
