G04 #@! TF.GenerationSoftware,KiCad,Pcbnew,6.0.11-2627ca5db0~126~ubuntu22.04.1*
G04 #@! TF.CreationDate,2023-08-09T03:56:26+02:00*
G04 #@! TF.ProjectId,OpenCyphalPicoBase,4f70656e-4379-4706-9861-6c5069636f42,0.3*
G04 #@! TF.SameCoordinates,PX55d4a80PY57bcf00*
G04 #@! TF.FileFunction,Paste,Bot*
G04 #@! TF.FilePolarity,Positive*
%FSLAX46Y46*%
G04 Gerber Fmt 4.6, Leading zero omitted, Abs format (unit mm)*
G04 Created by KiCad (PCBNEW 6.0.11-2627ca5db0~126~ubuntu22.04.1) date 2023-08-09 03:56:26*
%MOMM*%
%LPD*%
G01*
G04 APERTURE LIST*
%ADD10C,1.600000*%
%ADD11R,1.524000X2.000000*%
%ADD12R,1.600000X1.600000*%
G04 APERTURE END LIST*
D10*
X-24130000Y8890000D03*
D11*
X-24130000Y10160000D03*
D10*
X-21590000Y8890000D03*
D11*
X-21590000Y10160000D03*
D12*
X-19050000Y8890000D03*
D11*
X-19050000Y10160000D03*
D10*
X-16510000Y8890000D03*
D11*
X-16510000Y10160000D03*
D10*
X-13970000Y8890000D03*
D11*
X-13970000Y10160000D03*
D10*
X-11430000Y8890000D03*
D11*
X-11430000Y10160000D03*
D10*
X-8890000Y8890000D03*
D11*
X-8890000Y10160000D03*
D12*
X-6350000Y8890000D03*
D11*
X-6350000Y10160000D03*
X-3810000Y10160000D03*
D10*
X-3810000Y8890000D03*
D11*
X-1270000Y10160000D03*
D10*
X-1270000Y8890000D03*
X1270000Y8890000D03*
D11*
X1270000Y10160000D03*
X3810000Y10160000D03*
D10*
X3810000Y8890000D03*
D12*
X6350000Y8890000D03*
D11*
X6350000Y10160000D03*
X8890000Y10160000D03*
D10*
X8890000Y8890000D03*
D11*
X11430000Y10160000D03*
D10*
X11430000Y8890000D03*
X13970000Y8890000D03*
D11*
X13970000Y10160000D03*
X16510000Y10160000D03*
D10*
X16510000Y8890000D03*
D11*
X19050000Y10160000D03*
D12*
X19050000Y8890000D03*
D10*
X21590000Y8890000D03*
D11*
X21590000Y10160000D03*
D10*
X24130000Y8890000D03*
D11*
X24130000Y10160000D03*
X24130000Y-10160000D03*
D10*
X24130000Y-8890000D03*
X21590000Y-8890000D03*
D11*
X21590000Y-10160000D03*
X19050000Y-10160000D03*
D12*
X19050000Y-8890000D03*
D11*
X16510000Y-10160000D03*
D10*
X16510000Y-8890000D03*
D11*
X13970000Y-10160000D03*
D10*
X13970000Y-8890000D03*
X11430000Y-8890000D03*
D11*
X11430000Y-10160000D03*
X8890000Y-10160000D03*
D10*
X8890000Y-8890000D03*
D12*
X6350000Y-8890000D03*
D11*
X6350000Y-10160000D03*
D10*
X3810000Y-8890000D03*
D11*
X3810000Y-10160000D03*
D10*
X1270000Y-8890000D03*
D11*
X1270000Y-10160000D03*
D10*
X-1270000Y-8890000D03*
D11*
X-1270000Y-10160000D03*
X-3810000Y-10160000D03*
D10*
X-3810000Y-8890000D03*
D12*
X-6350000Y-8890000D03*
D11*
X-6350000Y-10160000D03*
X-8890000Y-10160000D03*
D10*
X-8890000Y-8890000D03*
X-11430000Y-8890000D03*
D11*
X-11430000Y-10160000D03*
D10*
X-13970000Y-8890000D03*
D11*
X-13970000Y-10160000D03*
D10*
X-16510000Y-8890000D03*
D11*
X-16510000Y-10160000D03*
D12*
X-19050000Y-8890000D03*
D11*
X-19050000Y-10160000D03*
X-21590000Y-10160000D03*
D10*
X-21590000Y-8890000D03*
D11*
X-24130000Y-10160000D03*
D10*
X-24130000Y-8890000D03*
M02*
