G04 #@! TF.GenerationSoftware,KiCad,Pcbnew,6.0.11-2627ca5db0~126~ubuntu22.04.1*
G04 #@! TF.CreationDate,2023-08-09T03:56:25+02:00*
G04 #@! TF.ProjectId,OpenCyphalPicoBase,4f70656e-4379-4706-9861-6c5069636f42,0.3*
G04 #@! TF.SameCoordinates,PX55d4a80PY57bcf00*
G04 #@! TF.FileFunction,Copper,L2,Bot*
G04 #@! TF.FilePolarity,Positive*
%FSLAX46Y46*%
G04 Gerber Fmt 4.6, Leading zero omitted, Abs format (unit mm)*
G04 Created by KiCad (PCBNEW 6.0.11-2627ca5db0~126~ubuntu22.04.1) date 2023-08-09 03:56:25*
%MOMM*%
%LPD*%
G01*
G04 APERTURE LIST*
%ADD10C,0.200000*%
G04 #@! TA.AperFunction,NonConductor*
%ADD11C,0.200000*%
G04 #@! TD*
%ADD12C,0.375000*%
G04 #@! TA.AperFunction,NonConductor*
%ADD13C,0.375000*%
G04 #@! TD*
G04 #@! TA.AperFunction,ComponentPad*
%ADD14C,5.800000*%
G04 #@! TD*
G04 #@! TA.AperFunction,ComponentPad*
%ADD15R,1.700000X1.700000*%
G04 #@! TD*
G04 #@! TA.AperFunction,ComponentPad*
%ADD16O,1.700000X1.700000*%
G04 #@! TD*
G04 #@! TA.AperFunction,SMDPad,CuDef*
%ADD17C,1.600000*%
G04 #@! TD*
G04 #@! TA.AperFunction,SMDPad,CuDef*
%ADD18R,1.524000X2.000000*%
G04 #@! TD*
G04 #@! TA.AperFunction,SMDPad,CuDef*
%ADD19R,1.600000X1.600000*%
G04 #@! TD*
G04 #@! TA.AperFunction,ViaPad*
%ADD20C,0.800000*%
G04 #@! TD*
G04 #@! TA.AperFunction,Conductor*
%ADD21C,0.400000*%
G04 #@! TD*
G04 #@! TA.AperFunction,Conductor*
%ADD22C,0.200000*%
G04 #@! TD*
G04 #@! TA.AperFunction,Conductor*
%ADD23C,0.500000*%
G04 #@! TD*
G04 APERTURE END LIST*
D10*
D11*
X6623809Y-1311904D02*
X6471428Y-1311904D01*
X6395238Y-1350000D01*
X6319047Y-1426190D01*
X6280952Y-1578571D01*
X6280952Y-1845238D01*
X6319047Y-1997619D01*
X6395238Y-2073809D01*
X6471428Y-2111904D01*
X6623809Y-2111904D01*
X6700000Y-2073809D01*
X6776190Y-1997619D01*
X6814285Y-1845238D01*
X6814285Y-1578571D01*
X6776190Y-1426190D01*
X6700000Y-1350000D01*
X6623809Y-1311904D01*
X5938095Y-1578571D02*
X5938095Y-2378571D01*
X5938095Y-1616666D02*
X5861904Y-1578571D01*
X5709523Y-1578571D01*
X5633333Y-1616666D01*
X5595238Y-1654761D01*
X5557142Y-1730952D01*
X5557142Y-1959523D01*
X5595238Y-2035714D01*
X5633333Y-2073809D01*
X5709523Y-2111904D01*
X5861904Y-2111904D01*
X5938095Y-2073809D01*
X4909523Y-2073809D02*
X4985714Y-2111904D01*
X5138095Y-2111904D01*
X5214285Y-2073809D01*
X5252380Y-1997619D01*
X5252380Y-1692857D01*
X5214285Y-1616666D01*
X5138095Y-1578571D01*
X4985714Y-1578571D01*
X4909523Y-1616666D01*
X4871428Y-1692857D01*
X4871428Y-1769047D01*
X5252380Y-1845238D01*
X4528571Y-1578571D02*
X4528571Y-2111904D01*
X4528571Y-1654761D02*
X4490476Y-1616666D01*
X4414285Y-1578571D01*
X4300000Y-1578571D01*
X4223809Y-1616666D01*
X4185714Y-1692857D01*
X4185714Y-2111904D01*
X3347619Y-2035714D02*
X3385714Y-2073809D01*
X3500000Y-2111904D01*
X3576190Y-2111904D01*
X3690476Y-2073809D01*
X3766666Y-1997619D01*
X3804761Y-1921428D01*
X3842857Y-1769047D01*
X3842857Y-1654761D01*
X3804761Y-1502380D01*
X3766666Y-1426190D01*
X3690476Y-1350000D01*
X3576190Y-1311904D01*
X3500000Y-1311904D01*
X3385714Y-1350000D01*
X3347619Y-1388095D01*
X3080952Y-1578571D02*
X2890476Y-2111904D01*
X2700000Y-1578571D02*
X2890476Y-2111904D01*
X2966666Y-2302380D01*
X3004761Y-2340476D01*
X3080952Y-2378571D01*
X2395238Y-1578571D02*
X2395238Y-2378571D01*
X2395238Y-1616666D02*
X2319047Y-1578571D01*
X2166666Y-1578571D01*
X2090476Y-1616666D01*
X2052380Y-1654761D01*
X2014285Y-1730952D01*
X2014285Y-1959523D01*
X2052380Y-2035714D01*
X2090476Y-2073809D01*
X2166666Y-2111904D01*
X2319047Y-2111904D01*
X2395238Y-2073809D01*
X1671428Y-2111904D02*
X1671428Y-1311904D01*
X1328571Y-2111904D02*
X1328571Y-1692857D01*
X1366666Y-1616666D01*
X1442857Y-1578571D01*
X1557142Y-1578571D01*
X1633333Y-1616666D01*
X1671428Y-1654761D01*
X604761Y-2111904D02*
X604761Y-1692857D01*
X642857Y-1616666D01*
X719047Y-1578571D01*
X871428Y-1578571D01*
X947619Y-1616666D01*
X604761Y-2073809D02*
X680952Y-2111904D01*
X871428Y-2111904D01*
X947619Y-2073809D01*
X985714Y-1997619D01*
X985714Y-1921428D01*
X947619Y-1845238D01*
X871428Y-1807142D01*
X680952Y-1807142D01*
X604761Y-1769047D01*
X109523Y-2111904D02*
X185714Y-2073809D01*
X223809Y-1997619D01*
X223809Y-1311904D01*
X-195239Y-2111904D02*
X-195239Y-1311904D01*
X-500000Y-1311904D01*
X-576191Y-1350000D01*
X-614286Y-1388095D01*
X-652381Y-1464285D01*
X-652381Y-1578571D01*
X-614286Y-1654761D01*
X-576191Y-1692857D01*
X-500000Y-1730952D01*
X-195239Y-1730952D01*
X-995239Y-2111904D02*
X-995239Y-1578571D01*
X-995239Y-1311904D02*
X-957143Y-1350000D01*
X-995239Y-1388095D01*
X-1033334Y-1350000D01*
X-995239Y-1311904D01*
X-995239Y-1388095D01*
X-1719048Y-2073809D02*
X-1642858Y-2111904D01*
X-1490477Y-2111904D01*
X-1414286Y-2073809D01*
X-1376191Y-2035714D01*
X-1338096Y-1959523D01*
X-1338096Y-1730952D01*
X-1376191Y-1654761D01*
X-1414286Y-1616666D01*
X-1490477Y-1578571D01*
X-1642858Y-1578571D01*
X-1719048Y-1616666D01*
X-2176191Y-2111904D02*
X-2100000Y-2073809D01*
X-2061905Y-2035714D01*
X-2023810Y-1959523D01*
X-2023810Y-1730952D01*
X-2061905Y-1654761D01*
X-2100000Y-1616666D01*
X-2176191Y-1578571D01*
X-2290477Y-1578571D01*
X-2366667Y-1616666D01*
X-2404762Y-1654761D01*
X-2442858Y-1730952D01*
X-2442858Y-1959523D01*
X-2404762Y-2035714D01*
X-2366667Y-2073809D01*
X-2290477Y-2111904D01*
X-2176191Y-2111904D01*
X-3052381Y-1692857D02*
X-3166667Y-1730952D01*
X-3204762Y-1769047D01*
X-3242858Y-1845238D01*
X-3242858Y-1959523D01*
X-3204762Y-2035714D01*
X-3166667Y-2073809D01*
X-3090477Y-2111904D01*
X-2785715Y-2111904D01*
X-2785715Y-1311904D01*
X-3052381Y-1311904D01*
X-3128572Y-1350000D01*
X-3166667Y-1388095D01*
X-3204762Y-1464285D01*
X-3204762Y-1540476D01*
X-3166667Y-1616666D01*
X-3128572Y-1654761D01*
X-3052381Y-1692857D01*
X-2785715Y-1692857D01*
X-3928572Y-2111904D02*
X-3928572Y-1692857D01*
X-3890477Y-1616666D01*
X-3814286Y-1578571D01*
X-3661905Y-1578571D01*
X-3585715Y-1616666D01*
X-3928572Y-2073809D02*
X-3852381Y-2111904D01*
X-3661905Y-2111904D01*
X-3585715Y-2073809D01*
X-3547620Y-1997619D01*
X-3547620Y-1921428D01*
X-3585715Y-1845238D01*
X-3661905Y-1807142D01*
X-3852381Y-1807142D01*
X-3928572Y-1769047D01*
X-4271429Y-2073809D02*
X-4347620Y-2111904D01*
X-4500000Y-2111904D01*
X-4576191Y-2073809D01*
X-4614286Y-1997619D01*
X-4614286Y-1959523D01*
X-4576191Y-1883333D01*
X-4500000Y-1845238D01*
X-4385715Y-1845238D01*
X-4309524Y-1807142D01*
X-4271429Y-1730952D01*
X-4271429Y-1692857D01*
X-4309524Y-1616666D01*
X-4385715Y-1578571D01*
X-4500000Y-1578571D01*
X-4576191Y-1616666D01*
X-5261905Y-2073809D02*
X-5185715Y-2111904D01*
X-5033334Y-2111904D01*
X-4957143Y-2073809D01*
X-4919048Y-1997619D01*
X-4919048Y-1692857D01*
X-4957143Y-1616666D01*
X-5033334Y-1578571D01*
X-5185715Y-1578571D01*
X-5261905Y-1616666D01*
X-5300000Y-1692857D01*
X-5300000Y-1769047D01*
X-4919048Y-1845238D01*
X-6404762Y-1311904D02*
X-6480953Y-1311904D01*
X-6557143Y-1350000D01*
X-6595239Y-1388095D01*
X-6633334Y-1464285D01*
X-6671429Y-1616666D01*
X-6671429Y-1807142D01*
X-6633334Y-1959523D01*
X-6595239Y-2035714D01*
X-6557143Y-2073809D01*
X-6480953Y-2111904D01*
X-6404762Y-2111904D01*
X-6328572Y-2073809D01*
X-6290477Y-2035714D01*
X-6252381Y-1959523D01*
X-6214286Y-1807142D01*
X-6214286Y-1616666D01*
X-6252381Y-1464285D01*
X-6290477Y-1388095D01*
X-6328572Y-1350000D01*
X-6404762Y-1311904D01*
X-7014286Y-2035714D02*
X-7052381Y-2073809D01*
X-7014286Y-2111904D01*
X-6976191Y-2073809D01*
X-7014286Y-2035714D01*
X-7014286Y-2111904D01*
X-7319048Y-1311904D02*
X-7814286Y-1311904D01*
X-7547620Y-1616666D01*
X-7661905Y-1616666D01*
X-7738096Y-1654761D01*
X-7776191Y-1692857D01*
X-7814286Y-1769047D01*
X-7814286Y-1959523D01*
X-7776191Y-2035714D01*
X-7738096Y-2073809D01*
X-7661905Y-2111904D01*
X-7433334Y-2111904D01*
X-7357143Y-2073809D01*
X-7319048Y-2035714D01*
D12*
D13*
X-9171429Y-17315021D02*
X-9171429Y-15815021D01*
X-9171429Y-16386450D02*
X-9314286Y-16315021D01*
X-9600000Y-16315021D01*
X-9742858Y-16386450D01*
X-9814286Y-16457878D01*
X-9885715Y-16600735D01*
X-9885715Y-17029307D01*
X-9814286Y-17172164D01*
X-9742858Y-17243592D01*
X-9600000Y-17315021D01*
X-9314286Y-17315021D01*
X-9171429Y-17243592D01*
X-10742858Y-17315021D02*
X-10600000Y-17243592D01*
X-10528572Y-17172164D01*
X-10457143Y-17029307D01*
X-10457143Y-16600735D01*
X-10528572Y-16457878D01*
X-10600000Y-16386450D01*
X-10742858Y-16315021D01*
X-10957143Y-16315021D01*
X-11100000Y-16386450D01*
X-11171429Y-16457878D01*
X-11242858Y-16600735D01*
X-11242858Y-17029307D01*
X-11171429Y-17172164D01*
X-11100000Y-17243592D01*
X-10957143Y-17315021D01*
X-10742858Y-17315021D01*
X-11671429Y-16315021D02*
X-12242858Y-16315021D01*
X-11885715Y-15815021D02*
X-11885715Y-17100735D01*
X-11957143Y-17243592D01*
X-12100000Y-17315021D01*
X-12242858Y-17315021D01*
D14*
X-23000000Y15000000D03*
X23000000Y15000000D03*
X-23000000Y-15000000D03*
X23000000Y-15000000D03*
D15*
X16900000Y-13800000D03*
D16*
X16900000Y-16340000D03*
X14360000Y-13800000D03*
X14360000Y-16340000D03*
X11820000Y-13800000D03*
X11820000Y-16340000D03*
D15*
X-15000000Y13925000D03*
D16*
X-15000000Y16465000D03*
X-12460000Y13925000D03*
X-12460000Y16465000D03*
X-9920000Y13925000D03*
X-9920000Y16465000D03*
X-7380000Y13925000D03*
X-7380000Y16465000D03*
X-4840000Y13925000D03*
X-4840000Y16465000D03*
X-2300000Y13925000D03*
X-2300000Y16465000D03*
X240000Y13925000D03*
X240000Y16465000D03*
X2780000Y13925000D03*
X2780000Y16465000D03*
X5320000Y13925000D03*
X5320000Y16465000D03*
X7860000Y13925000D03*
X7860000Y16465000D03*
X10400000Y13925000D03*
X10400000Y16465000D03*
X12940000Y13925000D03*
X12940000Y16465000D03*
X15480000Y13925000D03*
X15480000Y16465000D03*
D17*
X-24130000Y8890000D03*
D18*
X-24130000Y10160000D03*
D17*
X-21590000Y8890000D03*
D18*
X-21590000Y10160000D03*
D19*
X-19050000Y8890000D03*
D18*
X-19050000Y10160000D03*
D17*
X-16510000Y8890000D03*
D18*
X-16510000Y10160000D03*
D17*
X-13970000Y8890000D03*
D18*
X-13970000Y10160000D03*
D17*
X-11430000Y8890000D03*
D18*
X-11430000Y10160000D03*
D17*
X-8890000Y8890000D03*
D18*
X-8890000Y10160000D03*
D19*
X-6350000Y8890000D03*
D18*
X-6350000Y10160000D03*
X-3810000Y10160000D03*
D17*
X-3810000Y8890000D03*
D18*
X-1270000Y10160000D03*
D17*
X-1270000Y8890000D03*
X1270000Y8890000D03*
D18*
X1270000Y10160000D03*
X3810000Y10160000D03*
D17*
X3810000Y8890000D03*
D19*
X6350000Y8890000D03*
D18*
X6350000Y10160000D03*
X8890000Y10160000D03*
D17*
X8890000Y8890000D03*
D18*
X11430000Y10160000D03*
D17*
X11430000Y8890000D03*
X13970000Y8890000D03*
D18*
X13970000Y10160000D03*
X16510000Y10160000D03*
D17*
X16510000Y8890000D03*
D18*
X19050000Y10160000D03*
D19*
X19050000Y8890000D03*
D17*
X21590000Y8890000D03*
D18*
X21590000Y10160000D03*
D17*
X24130000Y8890000D03*
D18*
X24130000Y10160000D03*
X24130000Y-10160000D03*
D17*
X24130000Y-8890000D03*
X21590000Y-8890000D03*
D18*
X21590000Y-10160000D03*
X19050000Y-10160000D03*
D19*
X19050000Y-8890000D03*
D18*
X16510000Y-10160000D03*
D17*
X16510000Y-8890000D03*
D18*
X13970000Y-10160000D03*
D17*
X13970000Y-8890000D03*
X11430000Y-8890000D03*
D18*
X11430000Y-10160000D03*
X8890000Y-10160000D03*
D17*
X8890000Y-8890000D03*
D19*
X6350000Y-8890000D03*
D18*
X6350000Y-10160000D03*
D17*
X3810000Y-8890000D03*
D18*
X3810000Y-10160000D03*
D17*
X1270000Y-8890000D03*
D18*
X1270000Y-10160000D03*
D17*
X-1270000Y-8890000D03*
D18*
X-1270000Y-10160000D03*
X-3810000Y-10160000D03*
D17*
X-3810000Y-8890000D03*
D19*
X-6350000Y-8890000D03*
D18*
X-6350000Y-10160000D03*
X-8890000Y-10160000D03*
D17*
X-8890000Y-8890000D03*
X-11430000Y-8890000D03*
D18*
X-11430000Y-10160000D03*
D17*
X-13970000Y-8890000D03*
D18*
X-13970000Y-10160000D03*
D17*
X-16510000Y-8890000D03*
D18*
X-16510000Y-10160000D03*
D19*
X-19050000Y-8890000D03*
D18*
X-19050000Y-10160000D03*
X-21590000Y-10160000D03*
D17*
X-21590000Y-8890000D03*
D18*
X-24130000Y-10160000D03*
D17*
X-24130000Y-8890000D03*
D20*
X5600000Y3800000D03*
X-13400000Y-12700000D03*
X-9610000Y1310000D03*
X-12900000Y-500000D03*
X-22700000Y-6900000D03*
X-14100000Y-3800000D03*
X-15847779Y-5228612D03*
X6350000Y-8890000D03*
X-8600000Y-4700000D03*
X-14200000Y-6500000D03*
X-18200000Y800000D03*
X22500000Y-6100000D03*
X-19300000Y-13300000D03*
X19100000Y-12600000D03*
X-6700000Y7400000D03*
X21200000Y5500000D03*
X8900000Y1600000D03*
X-2800000Y100000D03*
X19200000Y9900000D03*
X14100000Y-2400000D03*
X-17900000Y5200000D03*
X17800000Y2300000D03*
X-23300000Y6800000D03*
X-19000000Y-9000000D03*
X-4520000Y1320000D03*
X5620000Y1320000D03*
X490000Y1390000D03*
X3110000Y1310000D03*
X-1980000Y1320000D03*
X17800000Y-6690500D03*
X-20100000Y-2000000D03*
X-22400000Y4200000D03*
X-18550000Y-3250000D03*
X-11100000Y-12500000D03*
X18200000Y12800000D03*
X-1270000Y-8890000D03*
X8890000Y-8890000D03*
X4200000Y-12400000D03*
X-3810000Y8890000D03*
X-18300000Y-6800000D03*
X-17649532Y-6041121D03*
X17200000Y-600000D03*
X12461426Y3288029D03*
X16700000Y-6690500D03*
X-1600000Y8890000D03*
X1400000Y8890000D03*
X4300000Y8800000D03*
X8890000Y8890000D03*
X11430000Y8890000D03*
X13970000Y8500000D03*
X16510000Y10160000D03*
X2400000Y-11900000D03*
X-11600000Y5000000D03*
X-12599503Y5000000D03*
X24900000Y-7000000D03*
X22900000Y1500000D03*
X24900000Y-1400000D03*
X24900000Y1500000D03*
X-19000000Y-17000000D03*
X-13400000Y-17000000D03*
X-24500000Y1100000D03*
X-24500000Y-1200000D03*
D21*
X-13970000Y-10160000D02*
X-13970000Y-8890000D01*
D22*
X-13970000Y-12130000D02*
X-13970000Y-10160000D01*
X-13400000Y-12700000D02*
X-13970000Y-12130000D01*
D21*
X-12900000Y-500000D02*
X-12900000Y-7300000D01*
D23*
X4270021Y3770021D02*
X5570021Y3770021D01*
X-3529979Y3770021D02*
X4270021Y3770021D01*
X-9610000Y1310000D02*
X-7920000Y3000000D01*
D21*
X-12900000Y-7300000D02*
X-13970000Y-8370000D01*
D23*
X-7920000Y3000000D02*
X-4300000Y3000000D01*
X5570021Y3770021D02*
X5600000Y3800000D01*
D21*
X-13970000Y-8370000D02*
X-13970000Y-8890000D01*
D23*
X-4300000Y3000000D02*
X-3529979Y3770021D01*
D21*
X-19050000Y11650000D02*
X-19050000Y10160000D01*
X19100000Y10448000D02*
X19100000Y11600000D01*
D22*
X-6350000Y10160000D02*
X-6350000Y11850000D01*
D21*
X-18725000Y11975000D02*
X-19050000Y11650000D01*
X18725000Y11975000D02*
X6475000Y11975000D01*
X19050000Y-10160000D02*
X19050000Y-8890000D01*
D22*
X6350000Y11850000D02*
X6475000Y11975000D01*
D21*
X6475000Y11975000D02*
X-6475000Y11975000D01*
D22*
X-6350000Y11850000D02*
X-6475000Y11975000D01*
X6350000Y10160000D02*
X6350000Y11850000D01*
D21*
X19100000Y11600000D02*
X18725000Y11975000D01*
X19050000Y10160000D02*
X19050000Y10398000D01*
X-6475000Y11975000D02*
X-18725000Y11975000D01*
X19050000Y10398000D02*
X19100000Y10448000D01*
D22*
X-133690Y2820011D02*
X-533700Y2420001D01*
X21590000Y-8890000D02*
X20490000Y-7790000D01*
X15155686Y-7790000D02*
X14755685Y-7389999D01*
X14755685Y-7389999D02*
X13689999Y-7389999D01*
X12100000Y-5800000D02*
X12100000Y-3802944D01*
X13689999Y-7389999D02*
X12100000Y-5800000D01*
X-533700Y2420001D02*
X-3419999Y2420001D01*
X6277058Y2020000D02*
X5220022Y2020000D01*
X4420011Y2820011D02*
X-133690Y2820011D01*
X-3419999Y2420001D02*
X-4520000Y1320000D01*
X12100000Y-3802944D02*
X6277058Y2020000D01*
X5220022Y2020000D02*
X4420011Y2820011D01*
D21*
X21590000Y-10160000D02*
X21590000Y-8890000D01*
D22*
X20490000Y-7790000D02*
X15155686Y-7790000D01*
X10900000Y-4300000D02*
X7400010Y-800010D01*
X7400010Y-800010D02*
X3434324Y-800010D01*
X200050Y690000D02*
X-210000Y1100050D01*
X3628001Y2420001D02*
X4728002Y1320000D01*
D21*
X11430000Y-10160000D02*
X11430000Y-8890000D01*
D22*
X1944314Y690000D02*
X200050Y690000D01*
X3434324Y-800010D02*
X1944314Y690000D01*
X4728002Y1320000D02*
X5640000Y1320000D01*
X10900000Y-8360000D02*
X10900000Y-4300000D01*
X11430000Y-8890000D02*
X10900000Y-8360000D01*
X530051Y2420001D02*
X3628001Y2420001D01*
X-210000Y1100050D02*
X-210000Y1679950D01*
X-210000Y1679950D02*
X530051Y2420001D01*
X490000Y1390000D02*
X1810000Y1390000D01*
X7565686Y-400000D02*
X11300000Y-4134315D01*
X3600000Y-400000D02*
X7565686Y-400000D01*
X11300000Y-4134315D02*
X11300000Y-6220000D01*
X1810000Y1390000D02*
X3600000Y-400000D01*
D21*
X13970000Y-10160000D02*
X13970000Y-8890000D01*
D22*
X11300000Y-6220000D02*
X13970000Y-8890000D01*
D21*
X16510000Y-10160000D02*
X16510000Y-8890000D01*
D22*
X13441999Y-7789999D02*
X14589999Y-7789999D01*
X15690000Y-8890000D02*
X16510000Y-8890000D01*
X7731362Y10D02*
X11700000Y-3968630D01*
X11700000Y-6054302D02*
X13438848Y-7793150D01*
X13438848Y-7793150D02*
X13441999Y-7789999D01*
X14589999Y-7789999D02*
X15690000Y-8890000D01*
X4419990Y10D02*
X7731362Y10D01*
X11700000Y-3968630D02*
X11700000Y-6054302D01*
X3110000Y1310000D02*
X4419990Y10D01*
X-5220000Y1609950D02*
X-5220000Y1030050D01*
X5385708Y2420000D02*
X4585687Y3220021D01*
X-5220000Y1030050D02*
X-4809950Y620000D01*
X-4180000Y620000D02*
X-3480000Y1320000D01*
X12500000Y-3637258D02*
X6442744Y2420000D01*
X15321372Y-7390000D02*
X14921371Y-6989999D01*
X-4385700Y2020000D02*
X-4809950Y2020000D01*
X6442744Y2420000D02*
X5385708Y2420000D01*
X-299379Y3220021D02*
X-699389Y2820011D01*
X-4809950Y620000D02*
X-4180000Y620000D01*
X22630000Y-7390000D02*
X15321372Y-7390000D01*
X-4809950Y2020000D02*
X-5220000Y1609950D01*
X-3585688Y2820011D02*
X-4385700Y2020000D01*
X-699389Y2820011D02*
X-3585688Y2820011D01*
X-3480000Y1320000D02*
X-1980000Y1320000D01*
D21*
X24130000Y-10160000D02*
X24130000Y-8890000D01*
D22*
X24130000Y-8890000D02*
X22630000Y-7390000D01*
X14921371Y-6989999D02*
X13855685Y-6989999D01*
X13855685Y-6989999D02*
X12500000Y-5634314D01*
X12500000Y-5634314D02*
X12500000Y-3637258D01*
X4585687Y3220021D02*
X-299379Y3220021D01*
X17800000Y-5500000D02*
X17800000Y-6690500D01*
X23040000Y7800000D02*
X22265686Y7800000D01*
X17800000Y-3965686D02*
X17800000Y-5500000D01*
D21*
X24130000Y10160000D02*
X24130000Y8890000D01*
D22*
X20100000Y-1665686D02*
X17800000Y-3965686D01*
X17800000Y-5500000D02*
X17800000Y-6290499D01*
X22265686Y7800000D02*
X20100000Y5634314D01*
X24130000Y8890000D02*
X23040000Y7800000D01*
X20100000Y5634314D02*
X20100000Y-1665686D01*
D23*
X-22400000Y300000D02*
X-22400000Y4200000D01*
X-20100000Y-2000000D02*
X-22400000Y300000D01*
D21*
X-15700000Y-12000000D02*
X-19750000Y-12000000D01*
D23*
X-13700000Y12625000D02*
X-15000000Y13925000D01*
X7975000Y12625000D02*
X-13700000Y12625000D01*
X11275000Y12625000D02*
X7975000Y12625000D01*
X7975000Y12625000D02*
X7975000Y13810000D01*
D21*
X14360000Y-13800000D02*
X14360000Y-16340000D01*
X-6250000Y-14450000D02*
X-7200000Y-13500000D01*
X-11200000Y-13500000D02*
X-11200000Y-12600000D01*
X6650000Y-15050000D02*
X13110000Y-15050000D01*
D23*
X-21590000Y-8890000D02*
X-20790001Y-8090001D01*
X18025000Y12625000D02*
X18200000Y12800000D01*
X-20790001Y-5490001D02*
X-18550000Y-3250000D01*
D21*
X-11200000Y-12600000D02*
X-11100000Y-12500000D01*
D23*
X-20790001Y-8090001D02*
X-20790001Y-5490001D01*
D21*
X-21590000Y-10160000D02*
X-21590000Y-8890000D01*
D23*
X11275000Y12625000D02*
X18025000Y12625000D01*
D21*
X-14200000Y-13500000D02*
X-15700000Y-12000000D01*
X13110000Y-15050000D02*
X14360000Y-13800000D01*
X6050000Y-14450000D02*
X-6250000Y-14450000D01*
X6050000Y-14450000D02*
X6650000Y-15050000D01*
X-7200000Y-13500000D02*
X-11200000Y-13500000D01*
X-11200000Y-13500000D02*
X-14200000Y-13500000D01*
D23*
X7975000Y13810000D02*
X7860000Y13925000D01*
D21*
X-19750000Y-12000000D02*
X-21590000Y-10160000D01*
X-1270000Y-10160000D02*
X-1270000Y-8890000D01*
X8890000Y-10160000D02*
X8890000Y-8890000D01*
X3810000Y-10160000D02*
X3810000Y-12010000D01*
X3810000Y-12010000D02*
X4200000Y-12400000D01*
X3810000Y-10160000D02*
X3810000Y-8890000D01*
X-3810000Y10160000D02*
X-3810000Y8890000D01*
D22*
X-24130000Y8890000D02*
X-23270000Y8030000D01*
X-16600000Y-4001639D02*
X-17799180Y-5200820D01*
X-18349532Y-5751172D02*
X-17799180Y-5200820D01*
X-16600000Y1300000D02*
X-16600000Y-3300000D01*
X-18349532Y-6750468D02*
X-18349532Y-5751172D01*
X-18300000Y-6800000D02*
X-18349532Y-6750468D01*
X-23270000Y7970000D02*
X-16600000Y1300000D01*
X-23270000Y8030000D02*
X-23270000Y7970000D01*
X-16600000Y-3300000D02*
X-16600000Y-4001639D01*
D21*
X-24130000Y8890000D02*
X-24130000Y10160000D01*
D22*
X-16200000Y1465686D02*
X-16200000Y-1900000D01*
X-16200000Y-3400000D02*
X-16200000Y-4591589D01*
X-16200000Y-1900000D02*
X-16200000Y-3400000D01*
X-21590000Y6855686D02*
X-16200000Y1465686D01*
X-16200000Y-4591589D02*
X-17649532Y-6041121D01*
X-21590000Y8890000D02*
X-21590000Y6855686D01*
D21*
X-21590000Y10160000D02*
X-21590000Y8890000D01*
D22*
X15300000Y-600000D02*
X8799980Y5900020D01*
X8799980Y5900020D02*
X-7365720Y5900020D01*
X-10370000Y7830000D02*
X-11430000Y8890000D01*
D21*
X-11430000Y10160000D02*
X-11430000Y8890000D01*
D22*
X-7365720Y5900020D02*
X-9295698Y7830000D01*
X17200000Y-600000D02*
X15300000Y-600000D01*
X-9295698Y7830000D02*
X-10370000Y7830000D01*
X11882843Y3382843D02*
X11132843Y4132843D01*
X8965656Y6300030D02*
X-7200030Y6300030D01*
D21*
X-8890000Y10160000D02*
X-8890000Y8890000D01*
D22*
X-7200030Y6300030D02*
X-8890000Y7990000D01*
X12366612Y3382843D02*
X11882843Y3382843D01*
X11132843Y4132843D02*
X8965656Y6300030D01*
X-8890000Y7990000D02*
X-8890000Y8890000D01*
X12461426Y3288029D02*
X12366612Y3382843D01*
X21590000Y8890000D02*
X21590000Y7690000D01*
X16700000Y-4500000D02*
X16700000Y-5600000D01*
X19700000Y5800000D02*
X19700000Y-1500000D01*
X21590000Y7690000D02*
X19700000Y5800000D01*
X19700000Y-1500000D02*
X16700000Y-4500000D01*
D21*
X21590000Y10160000D02*
X21590000Y8890000D01*
D22*
X16700000Y-5600000D02*
X16700000Y-6690500D01*
X16700000Y-5600000D02*
X16700000Y-6290499D01*
D21*
X-1270000Y10160000D02*
X-1270000Y8890000D01*
X1270000Y10160000D02*
X1270000Y8890000D01*
X3810000Y10160000D02*
X3810000Y8890000D01*
X8890000Y10160000D02*
X8890000Y8890000D01*
X11430000Y10160000D02*
X11430000Y8890000D01*
X13970000Y10160000D02*
X13970000Y8890000D01*
X16510000Y8890000D02*
X16510000Y10160000D01*
X1270000Y-10160000D02*
X1270000Y-10770000D01*
X1270000Y-10770000D02*
X2400000Y-11900000D01*
X1270000Y-10160000D02*
X1270000Y-8890000D01*
D22*
X-11800000Y4800000D02*
X-11800000Y-5834314D01*
X-5417157Y-7317157D02*
X-5400000Y-7300000D01*
X-11600000Y5000000D02*
X-11800000Y4800000D01*
X-10317157Y-7317157D02*
X-5417157Y-7317157D01*
X-11800000Y-5834314D02*
X-10317157Y-7317157D01*
D21*
X-3810000Y-10160000D02*
X-3810000Y-8890000D01*
D22*
X-5400000Y-7300000D02*
X-3810000Y-8890000D01*
X-10200000Y-8000000D02*
X-9780000Y-8000000D01*
X-9780000Y-8000000D02*
X-8890000Y-8890000D01*
X-12200000Y4600497D02*
X-12200000Y-6000000D01*
D21*
X-8890000Y-10160000D02*
X-8890000Y-8890000D01*
D22*
X-12200000Y-6000000D02*
X-10200000Y-8000000D01*
X-12599503Y5000000D02*
X-12200000Y4600497D01*
D21*
X-24130000Y-10160000D02*
X-24130000Y-8890000D01*
X-16510000Y-10160000D02*
X-16510000Y-8890000D01*
X-11430000Y-10160000D02*
X-11430000Y-8890000D01*
X-13970000Y10160000D02*
X-13970000Y8890000D01*
X-16510000Y10160000D02*
X-16510000Y8890000D01*
D23*
X22900000Y1500000D02*
X24900000Y1500000D01*
X24900000Y-1400000D02*
X24900000Y-7000000D01*
X24900000Y1500000D02*
X24900000Y-1400000D01*
X-19000000Y-17000000D02*
X-13400000Y-17000000D01*
X-24500000Y1100000D02*
X-24500000Y-1200000D01*
G04 #@! TA.AperFunction,Conductor*
G36*
X-21067539Y-11688502D02*
G01*
X-21046565Y-11705405D01*
X-20271450Y-12480520D01*
X-20265596Y-12486785D01*
X-20227561Y-12530385D01*
X-20192012Y-12555369D01*
X-20175281Y-12567128D01*
X-20169986Y-12571061D01*
X-20119718Y-12610476D01*
X-20112802Y-12613599D01*
X-20110516Y-12614983D01*
X-20095835Y-12623357D01*
X-20093475Y-12624622D01*
X-20087261Y-12628990D01*
X-20080182Y-12631750D01*
X-20080180Y-12631751D01*
X-20027725Y-12652202D01*
X-20021656Y-12654753D01*
X-19963427Y-12681045D01*
X-19955960Y-12682429D01*
X-19953405Y-12683230D01*
X-19937152Y-12687859D01*
X-19934572Y-12688522D01*
X-19927491Y-12691282D01*
X-19919960Y-12692273D01*
X-19919958Y-12692274D01*
X-19890826Y-12696109D01*
X-19864139Y-12699622D01*
X-19857641Y-12700652D01*
X-19794814Y-12712296D01*
X-19787234Y-12711859D01*
X-19787233Y-12711859D01*
X-19732608Y-12708709D01*
X-19725354Y-12708500D01*
X-16045660Y-12708500D01*
X-15977539Y-12728502D01*
X-15956565Y-12745405D01*
X-14721443Y-13980528D01*
X-14715589Y-13986793D01*
X-14677561Y-14030385D01*
X-14625271Y-14067136D01*
X-14620029Y-14071028D01*
X-14569718Y-14110476D01*
X-14562799Y-14113600D01*
X-14560507Y-14114988D01*
X-14545835Y-14123357D01*
X-14543475Y-14124622D01*
X-14537261Y-14128990D01*
X-14530182Y-14131750D01*
X-14530180Y-14131751D01*
X-14477725Y-14152202D01*
X-14471656Y-14154753D01*
X-14413427Y-14181045D01*
X-14405954Y-14182430D01*
X-14403388Y-14183234D01*
X-14387165Y-14187855D01*
X-14384573Y-14188520D01*
X-14377491Y-14191282D01*
X-14369956Y-14192274D01*
X-14314139Y-14199622D01*
X-14307623Y-14200654D01*
X-14269230Y-14207770D01*
X-14244814Y-14212295D01*
X-14237234Y-14211858D01*
X-14237233Y-14211858D01*
X-14182620Y-14208709D01*
X-14175367Y-14208500D01*
X-11208762Y-14208500D01*
X-11208102Y-14208502D01*
X-11122372Y-14208951D01*
X-11122371Y-14208951D01*
X-11117969Y-14208974D01*
X-11116452Y-14208610D01*
X-11114550Y-14208500D01*
X-7545660Y-14208500D01*
X-7477539Y-14228502D01*
X-7456565Y-14245405D01*
X-6771450Y-14930520D01*
X-6765596Y-14936785D01*
X-6727561Y-14980385D01*
X-6697062Y-15001820D01*
X-6675281Y-15017128D01*
X-6669986Y-15021061D01*
X-6619718Y-15060476D01*
X-6612802Y-15063599D01*
X-6610516Y-15064983D01*
X-6595835Y-15073357D01*
X-6593475Y-15074622D01*
X-6587261Y-15078990D01*
X-6580182Y-15081750D01*
X-6580180Y-15081751D01*
X-6527725Y-15102202D01*
X-6521656Y-15104753D01*
X-6463427Y-15131045D01*
X-6455960Y-15132429D01*
X-6453405Y-15133230D01*
X-6437152Y-15137859D01*
X-6434572Y-15138522D01*
X-6427491Y-15141282D01*
X-6419960Y-15142273D01*
X-6419958Y-15142274D01*
X-6390339Y-15146173D01*
X-6364139Y-15149622D01*
X-6357641Y-15150652D01*
X-6294814Y-15162296D01*
X-6287234Y-15161859D01*
X-6287233Y-15161859D01*
X-6232608Y-15158709D01*
X-6225354Y-15158500D01*
X5704339Y-15158500D01*
X5772460Y-15178502D01*
X5793434Y-15195405D01*
X6128565Y-15530536D01*
X6134418Y-15536801D01*
X6172439Y-15580385D01*
X6224729Y-15617136D01*
X6229971Y-15621028D01*
X6280282Y-15660476D01*
X6287201Y-15663600D01*
X6289493Y-15664988D01*
X6304165Y-15673357D01*
X6306525Y-15674622D01*
X6312739Y-15678990D01*
X6319818Y-15681750D01*
X6319820Y-15681751D01*
X6372275Y-15702202D01*
X6378344Y-15704753D01*
X6436573Y-15731045D01*
X6444046Y-15732430D01*
X6446612Y-15733234D01*
X6462835Y-15737855D01*
X6465427Y-15738520D01*
X6472509Y-15741282D01*
X6480044Y-15742274D01*
X6535861Y-15749622D01*
X6542377Y-15750654D01*
X6572608Y-15756257D01*
X6605186Y-15762295D01*
X6612766Y-15761858D01*
X6612767Y-15761858D01*
X6667380Y-15758709D01*
X6674633Y-15758500D01*
X10406238Y-15758500D01*
X10474359Y-15778502D01*
X10520852Y-15832158D01*
X10530956Y-15902432D01*
X10527655Y-15918172D01*
X10484389Y-16074183D01*
X10485912Y-16082607D01*
X10498292Y-16086000D01*
X11547885Y-16086000D01*
X11563124Y-16081525D01*
X11564329Y-16080135D01*
X11566000Y-16072452D01*
X11566000Y-15884500D01*
X11586002Y-15816379D01*
X11639658Y-15769886D01*
X11692000Y-15758500D01*
X11948000Y-15758500D01*
X12016121Y-15778502D01*
X12062614Y-15832158D01*
X12074000Y-15884500D01*
X12074000Y-16468000D01*
X12053998Y-16536121D01*
X12000342Y-16582614D01*
X11948000Y-16594000D01*
X10503225Y-16594000D01*
X10489694Y-16597973D01*
X10488257Y-16607966D01*
X10518565Y-16742446D01*
X10521645Y-16752275D01*
X10601770Y-16949603D01*
X10606413Y-16958794D01*
X10717694Y-17140388D01*
X10723771Y-17148691D01*
X10840116Y-17283003D01*
X10869598Y-17347588D01*
X10859483Y-17417860D01*
X10812982Y-17471509D01*
X10744878Y-17491500D01*
X-7992285Y-17491500D01*
X-8060406Y-17471498D01*
X-8106899Y-17417842D01*
X-8118285Y-17365500D01*
X-8118285Y-14639200D01*
X-13081714Y-14639200D01*
X-13081714Y-15983260D01*
X-13101716Y-16051381D01*
X-13155372Y-16097874D01*
X-13225646Y-16107978D01*
X-13233911Y-16106507D01*
X-13298056Y-16092872D01*
X-13298061Y-16092872D01*
X-13304513Y-16091500D01*
X-13495487Y-16091500D01*
X-13501939Y-16092872D01*
X-13501944Y-16092872D01*
X-13573353Y-16108051D01*
X-13682288Y-16131206D01*
X-13688318Y-16133891D01*
X-13688319Y-16133891D01*
X-13850722Y-16206197D01*
X-13850724Y-16206198D01*
X-13856752Y-16208882D01*
X-13862091Y-16212761D01*
X-13862098Y-16212765D01*
X-13868528Y-16217437D01*
X-13942587Y-16241500D01*
X-18457413Y-16241500D01*
X-18531472Y-16217437D01*
X-18537902Y-16212765D01*
X-18537909Y-16212761D01*
X-18543248Y-16208882D01*
X-18549276Y-16206198D01*
X-18549278Y-16206197D01*
X-18711681Y-16133891D01*
X-18711682Y-16133891D01*
X-18717712Y-16131206D01*
X-18826647Y-16108051D01*
X-18898056Y-16092872D01*
X-18898061Y-16092872D01*
X-18904513Y-16091500D01*
X-19095487Y-16091500D01*
X-19101939Y-16092872D01*
X-19101944Y-16092872D01*
X-19173353Y-16108051D01*
X-19282288Y-16131206D01*
X-19288318Y-16133891D01*
X-19288319Y-16133891D01*
X-19450722Y-16206197D01*
X-19450724Y-16206198D01*
X-19456752Y-16208882D01*
X-19462093Y-16212762D01*
X-19462094Y-16212763D01*
X-19604107Y-16315942D01*
X-19670975Y-16339800D01*
X-19740126Y-16323720D01*
X-19789606Y-16272806D01*
X-19803706Y-16203224D01*
X-19794911Y-16166602D01*
X-19787046Y-16147233D01*
X-19772467Y-16111329D01*
X-19766818Y-16091500D01*
X-19677659Y-15778502D01*
X-19671322Y-15756257D01*
X-19670364Y-15750654D01*
X-19609688Y-15395686D01*
X-19609688Y-15395684D01*
X-19609116Y-15392339D01*
X-19606942Y-15356809D01*
X-19586687Y-15025627D01*
X-19586577Y-15023831D01*
X-19586494Y-15000000D01*
X-19606460Y-14631344D01*
X-19666123Y-14267000D01*
X-19764787Y-13911230D01*
X-19776824Y-13880980D01*
X-19900036Y-13571363D01*
X-19900040Y-13571355D01*
X-19901296Y-13568198D01*
X-19907018Y-13557390D01*
X-19945604Y-13484514D01*
X-20074054Y-13241914D01*
X-20075954Y-13239108D01*
X-20075958Y-13239101D01*
X-20279134Y-12939011D01*
X-20279141Y-12939002D01*
X-20281040Y-12936197D01*
X-20283236Y-12933607D01*
X-20283241Y-12933601D01*
X-20517633Y-12657217D01*
X-20517634Y-12657216D01*
X-20519833Y-12654623D01*
X-20696768Y-12486718D01*
X-20785172Y-12402825D01*
X-20785173Y-12402824D01*
X-20787639Y-12400484D01*
X-21081325Y-12176755D01*
X-21084237Y-12174998D01*
X-21084242Y-12174995D01*
X-21394534Y-11987815D01*
X-21394543Y-11987810D01*
X-21397456Y-11986053D01*
X-21563911Y-11908787D01*
X-21617276Y-11861963D01*
X-21636857Y-11793720D01*
X-21616433Y-11725725D01*
X-21562491Y-11679565D01*
X-21510859Y-11668500D01*
X-21135660Y-11668500D01*
X-21067539Y-11688502D01*
G37*
G04 #@! TD.AperFunction*
G04 #@! TA.AperFunction,Conductor*
G36*
X-16114082Y17471498D02*
G01*
X-16067589Y17417842D01*
X-16057485Y17347568D01*
X-16078115Y17294495D01*
X-16181905Y17142345D01*
X-16187000Y17133377D01*
X-16276662Y16940217D01*
X-16280225Y16930530D01*
X-16335611Y16730817D01*
X-16334088Y16722393D01*
X-16321708Y16719000D01*
X16798344Y16719000D01*
X16811875Y16722973D01*
X16813180Y16732053D01*
X16771214Y16899125D01*
X16767894Y16908876D01*
X16682972Y17104186D01*
X16678105Y17113261D01*
X16559617Y17296417D01*
X16561562Y17297675D01*
X16539368Y17354819D01*
X16553523Y17424390D01*
X16603044Y17475264D01*
X16664914Y17491500D01*
X20372139Y17491500D01*
X20440260Y17471498D01*
X20486753Y17417842D01*
X20496857Y17347568D01*
X20467951Y17283670D01*
X20288261Y17073281D01*
X20286342Y17070469D01*
X20286339Y17070464D01*
X20279876Y17060989D01*
X20080209Y16768288D01*
X19906313Y16442610D01*
X19768607Y16100056D01*
X19767687Y16096782D01*
X19767685Y16096777D01*
X19672733Y15758972D01*
X19668702Y15744633D01*
X19668140Y15741276D01*
X19668140Y15741275D01*
X19615693Y15427861D01*
X19607767Y15380500D01*
X19586515Y15011915D01*
X19605194Y14643191D01*
X19605731Y14639836D01*
X19605732Y14639830D01*
X19641969Y14413594D01*
X19663585Y14278642D01*
X19761006Y13922530D01*
X19896317Y13579023D01*
X19897900Y13576008D01*
X20066351Y13255155D01*
X20066356Y13255147D01*
X20067935Y13252139D01*
X20273853Y12945701D01*
X20511661Y12663294D01*
X20778578Y12408223D01*
X21071482Y12183470D01*
X21386945Y11991665D01*
X21550832Y11914895D01*
X21564266Y11908602D01*
X21617469Y11861592D01*
X21636811Y11793281D01*
X21616151Y11725357D01*
X21562048Y11679385D01*
X21510817Y11668500D01*
X20779866Y11668500D01*
X20717684Y11661745D01*
X20581295Y11610615D01*
X20464739Y11523261D01*
X20420513Y11464251D01*
X20363656Y11421736D01*
X20292837Y11416710D01*
X20230544Y11450770D01*
X20218862Y11464251D01*
X20180285Y11515724D01*
X20167724Y11528285D01*
X20065649Y11604786D01*
X20050054Y11613324D01*
X19929606Y11658478D01*
X19914351Y11662105D01*
X19863486Y11667631D01*
X19856672Y11668000D01*
X19322115Y11668000D01*
X19306876Y11663525D01*
X19305671Y11662135D01*
X19304000Y11654452D01*
X19304000Y7600116D01*
X19308475Y7584877D01*
X19309865Y7583672D01*
X19317548Y7582001D01*
X19894669Y7582001D01*
X19901490Y7582371D01*
X19952352Y7587895D01*
X19967604Y7591521D01*
X20088054Y7636676D01*
X20103649Y7645214D01*
X20205724Y7721715D01*
X20218285Y7734276D01*
X20294786Y7836351D01*
X20303324Y7851946D01*
X20348478Y7972394D01*
X20352104Y7987643D01*
X20352479Y7991096D01*
X20353522Y7993606D01*
X20353932Y7995331D01*
X20354211Y7995265D01*
X20379719Y8056659D01*
X20438080Y8097088D01*
X20509034Y8099546D01*
X20570054Y8063253D01*
X20579344Y8051760D01*
X20580641Y8050214D01*
X20583802Y8045700D01*
X20745382Y7884120D01*
X20779408Y7821808D01*
X20774343Y7750993D01*
X20745384Y7705933D01*
X19303766Y6264315D01*
X19291375Y6253448D01*
X19266013Y6233987D01*
X19241526Y6202075D01*
X19241523Y6202072D01*
X19168476Y6106876D01*
X19121371Y5993154D01*
X19107162Y5958850D01*
X19091500Y5839885D01*
X19091500Y5839880D01*
X19086250Y5800000D01*
X19087328Y5791812D01*
X19090422Y5768310D01*
X19091500Y5751864D01*
X19091500Y-1195761D01*
X19071498Y-1263882D01*
X19054595Y-1284856D01*
X16303766Y-4035685D01*
X16291375Y-4046552D01*
X16266013Y-4066013D01*
X16241526Y-4097925D01*
X16241523Y-4097928D01*
X16241517Y-4097936D01*
X16177910Y-4180830D01*
X16168476Y-4193124D01*
X16107162Y-4341149D01*
X16107162Y-4341150D01*
X16091500Y-4460115D01*
X16091500Y-4460120D01*
X16086250Y-4500000D01*
X16087328Y-4508188D01*
X16090422Y-4531690D01*
X16091500Y-4548136D01*
X16091500Y-5960210D01*
X16071498Y-6028331D01*
X16059136Y-6044520D01*
X15986923Y-6124721D01*
X15960960Y-6153556D01*
X15865473Y-6318944D01*
X15806458Y-6500572D01*
X15805768Y-6507133D01*
X15805768Y-6507135D01*
X15788790Y-6668671D01*
X15761777Y-6734327D01*
X15703555Y-6774957D01*
X15663480Y-6781500D01*
X15625611Y-6781500D01*
X15557490Y-6761498D01*
X15536516Y-6744595D01*
X15385686Y-6593765D01*
X15374819Y-6581374D01*
X15360386Y-6562565D01*
X15355358Y-6556012D01*
X15323445Y-6531524D01*
X15323443Y-6531522D01*
X15316248Y-6526001D01*
X15234800Y-6463503D01*
X15234798Y-6463502D01*
X15228247Y-6458475D01*
X15080222Y-6397161D01*
X15072035Y-6396083D01*
X15072034Y-6396083D01*
X15047384Y-6392838D01*
X14961264Y-6381500D01*
X14961262Y-6381500D01*
X14961256Y-6381499D01*
X14961254Y-6381499D01*
X14961245Y-6381498D01*
X14929560Y-6377327D01*
X14921371Y-6376249D01*
X14889678Y-6380421D01*
X14873235Y-6381499D01*
X14159924Y-6381499D01*
X14091803Y-6361497D01*
X14070829Y-6344594D01*
X13145405Y-5419170D01*
X13111379Y-5356858D01*
X13108500Y-5330075D01*
X13108500Y-3685394D01*
X13109578Y-3668948D01*
X13112672Y-3645446D01*
X13113750Y-3637258D01*
X13108500Y-3597378D01*
X13108500Y-3597373D01*
X13092838Y-3478408D01*
X13092838Y-3478407D01*
X13079500Y-3446206D01*
X13034684Y-3338010D01*
X13034683Y-3338008D01*
X13031524Y-3330382D01*
X12958477Y-3235187D01*
X12958476Y-3235185D01*
X12939017Y-3209825D01*
X12939013Y-3209821D01*
X12933987Y-3203271D01*
X12927437Y-3198245D01*
X12927434Y-3198242D01*
X12908620Y-3183806D01*
X12896229Y-3172939D01*
X11901163Y-2177872D01*
X6907059Y2816234D01*
X6896192Y2828625D01*
X6881757Y2847437D01*
X6876731Y2853987D01*
X6844819Y2878474D01*
X6844816Y2878477D01*
X6756173Y2946496D01*
X6756171Y2946497D01*
X6749620Y2951524D01*
X6601595Y3012838D01*
X6593408Y3013916D01*
X6593407Y3013916D01*
X6582202Y3015391D01*
X6551006Y3019498D01*
X6482629Y3028500D01*
X6482626Y3028500D01*
X6482618Y3028501D01*
X6450933Y3032672D01*
X6442744Y3033750D01*
X6429473Y3032003D01*
X6359324Y3042943D01*
X6306226Y3090072D01*
X6287037Y3158426D01*
X6307849Y3226304D01*
X6319385Y3241227D01*
X6339040Y3263056D01*
X6434527Y3428444D01*
X6493542Y3610072D01*
X6498086Y3653300D01*
X6512814Y3793435D01*
X6513504Y3800000D01*
X6493542Y3989928D01*
X6434527Y4171556D01*
X6339040Y4336944D01*
X6315947Y4362592D01*
X6215675Y4473955D01*
X6215674Y4473956D01*
X6211253Y4478866D01*
X6056752Y4591118D01*
X6050724Y4593802D01*
X6050722Y4593803D01*
X5888319Y4666109D01*
X5888318Y4666109D01*
X5882288Y4668794D01*
X5788887Y4688647D01*
X5701944Y4707128D01*
X5701939Y4707128D01*
X5695487Y4708500D01*
X5504513Y4708500D01*
X5498061Y4707128D01*
X5498056Y4707128D01*
X5411113Y4688647D01*
X5317712Y4668794D01*
X5311682Y4666109D01*
X5311681Y4666109D01*
X5149278Y4593803D01*
X5149276Y4593802D01*
X5143248Y4591118D01*
X5137907Y4587238D01*
X5137906Y4587237D01*
X5090212Y4552585D01*
X5023344Y4528727D01*
X5016151Y4528521D01*
X-3462910Y4528521D01*
X-3481858Y4529954D01*
X-3489199Y4531071D01*
X-3496096Y4532120D01*
X-3496098Y4532120D01*
X-3503328Y4533220D01*
X-3510620Y4532627D01*
X-3510623Y4532627D01*
X-3555997Y4528936D01*
X-3566212Y4528521D01*
X-3574272Y4528521D01*
X-3587562Y4526972D01*
X-3602486Y4525232D01*
X-3606861Y4524799D01*
X-3672318Y4519475D01*
X-3672321Y4519474D01*
X-3679616Y4518881D01*
X-3686580Y4516625D01*
X-3692539Y4515434D01*
X-3698394Y4514050D01*
X-3705660Y4513203D01*
X-3774306Y4488286D01*
X-3778434Y4486869D01*
X-3840915Y4466628D01*
X-3840917Y4466627D01*
X-3847878Y4464372D01*
X-3854133Y4460576D01*
X-3859607Y4458070D01*
X-3865037Y4455351D01*
X-3871916Y4452854D01*
X-3878036Y4448841D01*
X-3878037Y4448841D01*
X-3932955Y4412835D01*
X-3936659Y4410498D01*
X-3999086Y4372616D01*
X-4007463Y4365218D01*
X-4007487Y4365245D01*
X-4010479Y4362592D01*
X-4013712Y4359889D01*
X-4019831Y4355877D01*
X-4056422Y4317251D01*
X-4073107Y4299638D01*
X-4075485Y4297196D01*
X-4577276Y3795405D01*
X-4639588Y3761379D01*
X-4666371Y3758500D01*
X-7852930Y3758500D01*
X-7871880Y3759933D01*
X-7886115Y3762099D01*
X-7886119Y3762099D01*
X-7893349Y3763199D01*
X-7900641Y3762606D01*
X-7900644Y3762606D01*
X-7946018Y3758915D01*
X-7956233Y3758500D01*
X-7964293Y3758500D01*
X-7967927Y3758076D01*
X-7967933Y3758076D01*
X-7980958Y3756557D01*
X-7992520Y3755209D01*
X-7996868Y3754779D01*
X-8069636Y3748860D01*
X-8076597Y3746605D01*
X-8082537Y3745418D01*
X-8088412Y3744029D01*
X-8095681Y3743182D01*
X-8164330Y3718264D01*
X-8168458Y3716847D01*
X-8230936Y3696607D01*
X-8230938Y3696606D01*
X-8237899Y3694351D01*
X-8244154Y3690555D01*
X-8249628Y3688049D01*
X-8255058Y3685330D01*
X-8261937Y3682833D01*
X-8268057Y3678820D01*
X-8268058Y3678820D01*
X-8322976Y3642814D01*
X-8326680Y3640477D01*
X-8389107Y3602595D01*
X-8397484Y3595197D01*
X-8397508Y3595224D01*
X-8400500Y3592571D01*
X-8403733Y3589868D01*
X-8409852Y3585856D01*
X-8414884Y3580544D01*
X-8463128Y3529617D01*
X-8465506Y3527175D01*
X-9766331Y2226350D01*
X-9829228Y2192199D01*
X-9885824Y2180169D01*
X-9885833Y2180166D01*
X-9892288Y2178794D01*
X-9898318Y2176109D01*
X-9898319Y2176109D01*
X-10060722Y2103803D01*
X-10060724Y2103802D01*
X-10066752Y2101118D01*
X-10221253Y1988866D01*
X-10225674Y1983956D01*
X-10225675Y1983955D01*
X-10241743Y1966109D01*
X-10349040Y1846944D01*
X-10394156Y1768801D01*
X-10439693Y1689928D01*
X-10444527Y1681556D01*
X-10503542Y1499928D01*
X-10504232Y1493367D01*
X-10504232Y1493365D01*
X-10512200Y1417550D01*
X-10523504Y1310000D01*
X-10522814Y1303435D01*
X-10504768Y1131740D01*
X-10503542Y1120072D01*
X-10444527Y938444D01*
X-10349040Y773056D01*
X-10344622Y768149D01*
X-10344621Y768148D01*
X-10258604Y672616D01*
X-10221253Y631134D01*
X-10166059Y591033D01*
X-10085857Y532763D01*
X-10066752Y518882D01*
X-10060724Y516198D01*
X-10060722Y516197D01*
X-9911667Y449834D01*
X-9892288Y441206D01*
X-9798887Y421353D01*
X-9711944Y402872D01*
X-9711939Y402872D01*
X-9705487Y401500D01*
X-9514513Y401500D01*
X-9508061Y402872D01*
X-9508056Y402872D01*
X-9421113Y421353D01*
X-9327712Y441206D01*
X-9308333Y449834D01*
X-9159278Y516197D01*
X-9159276Y516198D01*
X-9153248Y518882D01*
X-9134142Y532763D01*
X-9053941Y591033D01*
X-8998747Y631134D01*
X-8961396Y672616D01*
X-8875379Y768148D01*
X-8875378Y768149D01*
X-8870960Y773056D01*
X-8775473Y938444D01*
X-8720613Y1107286D01*
X-8689875Y1157444D01*
X-7642724Y2204595D01*
X-7580412Y2238621D01*
X-7553629Y2241500D01*
X-5757894Y2241500D01*
X-5689773Y2221498D01*
X-5643280Y2167842D01*
X-5633176Y2097568D01*
X-5657930Y2038799D01*
X-5678474Y2012025D01*
X-5678477Y2012022D01*
X-5678483Y2012014D01*
X-5678484Y2012013D01*
X-5741411Y1930005D01*
X-5751524Y1916826D01*
X-5812838Y1768801D01*
X-5813792Y1761556D01*
X-5813915Y1760620D01*
X-5813916Y1760617D01*
X-5823222Y1689928D01*
X-5828500Y1649835D01*
X-5828500Y1649830D01*
X-5833750Y1609950D01*
X-5832672Y1601762D01*
X-5829578Y1578260D01*
X-5828500Y1561814D01*
X-5828500Y1078186D01*
X-5829578Y1061743D01*
X-5833750Y1030050D01*
X-5828500Y990170D01*
X-5828500Y990165D01*
X-5817673Y907928D01*
X-5812838Y871199D01*
X-5751524Y723174D01*
X-5746497Y716623D01*
X-5746496Y716621D01*
X-5678480Y627981D01*
X-5678474Y627975D01*
X-5653987Y596063D01*
X-5647432Y591033D01*
X-5628621Y576598D01*
X-5616230Y565731D01*
X-5274265Y223766D01*
X-5263398Y211375D01*
X-5243937Y186013D01*
X-5237387Y180987D01*
X-5212029Y161529D01*
X-5212022Y161523D01*
X-5172926Y131524D01*
X-5116825Y88476D01*
X-4968800Y27162D01*
X-4849835Y11500D01*
X-4849830Y11500D01*
X-4849821Y11499D01*
X-4818138Y7328D01*
X-4809950Y6250D01*
X-4778257Y10422D01*
X-4761814Y11500D01*
X-4228136Y11500D01*
X-4211693Y10422D01*
X-4180000Y6250D01*
X-4171811Y7328D01*
X-4140126Y11499D01*
X-4140116Y11500D01*
X-4140115Y11500D01*
X-4140099Y11502D01*
X-4040543Y24609D01*
X-4029336Y26084D01*
X-4029334Y26085D01*
X-4021149Y27162D01*
X-3873124Y88476D01*
X-3835368Y117447D01*
X-3777928Y161523D01*
X-3777925Y161526D01*
X-3775349Y163503D01*
X-3746013Y186013D01*
X-3740035Y193803D01*
X-3726548Y211379D01*
X-3715681Y223770D01*
X-3264856Y674595D01*
X-3202544Y708621D01*
X-3175761Y711500D01*
X-2710710Y711500D01*
X-2642589Y691498D01*
X-2617074Y669811D01*
X-2591253Y641134D01*
X-2584249Y636045D01*
X-2444484Y534500D01*
X-2436752Y528882D01*
X-2430724Y526198D01*
X-2430722Y526197D01*
X-2268319Y453891D01*
X-2262288Y451206D01*
X-2168888Y431353D01*
X-2081944Y412872D01*
X-2081939Y412872D01*
X-2075487Y411500D01*
X-1884513Y411500D01*
X-1878061Y412872D01*
X-1878056Y412872D01*
X-1791112Y431353D01*
X-1697712Y451206D01*
X-1691681Y453891D01*
X-1529278Y526197D01*
X-1529276Y526198D01*
X-1523248Y528882D01*
X-1515515Y534500D01*
X-1429820Y596762D01*
X-1368747Y641134D01*
X-1346301Y666063D01*
X-1245379Y778148D01*
X-1245378Y778149D01*
X-1240960Y783056D01*
X-1154551Y932721D01*
X-1148777Y942721D01*
X-1148776Y942722D01*
X-1145473Y948444D01*
X-1086458Y1130072D01*
X-1069810Y1288469D01*
X-1057869Y1317491D01*
X-1065396Y1329203D01*
X-1069810Y1351531D01*
X-1085768Y1503365D01*
X-1085768Y1503367D01*
X-1086458Y1509928D01*
X-1106258Y1570867D01*
X-1130854Y1646565D01*
X-1132881Y1717533D01*
X-1096219Y1778330D01*
X-1032507Y1809656D01*
X-1011021Y1811501D01*
X-948672Y1811501D01*
X-880551Y1791499D01*
X-834058Y1737843D01*
X-822888Y1686495D01*
X-823750Y1679950D01*
X-819785Y1649835D01*
X-819578Y1648260D01*
X-818500Y1631814D01*
X-818500Y1364701D01*
X-831635Y1319968D01*
X-820556Y1297966D01*
X-818500Y1275299D01*
X-818500Y1148186D01*
X-819578Y1131743D01*
X-823750Y1100050D01*
X-818500Y1060170D01*
X-818500Y1060165D01*
X-809674Y993124D01*
X-802838Y941199D01*
X-741524Y793174D01*
X-736497Y786623D01*
X-736496Y786621D01*
X-668480Y697981D01*
X-668474Y697975D01*
X-643987Y666063D01*
X-637432Y661033D01*
X-618621Y646598D01*
X-606230Y635731D01*
X-264265Y293766D01*
X-253398Y281375D01*
X-233937Y256013D01*
X-202025Y231526D01*
X-202022Y231523D01*
X-149365Y191118D01*
X-106825Y158476D01*
X41200Y97162D01*
X160165Y81500D01*
X160170Y81500D01*
X160179Y81499D01*
X191862Y77328D01*
X200050Y76250D01*
X231743Y80422D01*
X248186Y81500D01*
X1640075Y81500D01*
X1708196Y61498D01*
X1729170Y44595D01*
X2006170Y-232405D01*
X2040196Y-294717D01*
X2035131Y-365532D01*
X1992584Y-422368D01*
X1926064Y-447179D01*
X1917075Y-447500D01*
X-8575166Y-447500D01*
X-8575166Y-3052500D01*
X7575167Y-3052500D01*
X7575167Y-2139906D01*
X7595169Y-2071785D01*
X7648825Y-2025292D01*
X7719099Y-2015188D01*
X7783679Y-2044682D01*
X7790262Y-2050811D01*
X10254595Y-4515144D01*
X10288621Y-4577456D01*
X10291500Y-4604239D01*
X10291500Y-8207412D01*
X10279695Y-8260661D01*
X10274195Y-8272456D01*
X10227278Y-8325742D01*
X10159001Y-8345203D01*
X10091041Y-8324662D01*
X10045805Y-8272457D01*
X10029849Y-8238238D01*
X10029846Y-8238233D01*
X10027523Y-8233251D01*
X9954098Y-8128389D01*
X9899357Y-8050211D01*
X9899355Y-8050208D01*
X9896198Y-8045700D01*
X9734300Y-7883802D01*
X9729792Y-7880645D01*
X9729789Y-7880643D01*
X9628959Y-7810041D01*
X9546749Y-7752477D01*
X9541767Y-7750154D01*
X9541762Y-7750151D01*
X9344225Y-7658039D01*
X9344224Y-7658039D01*
X9339243Y-7655716D01*
X9333935Y-7654294D01*
X9333933Y-7654293D01*
X9123402Y-7597881D01*
X9123400Y-7597881D01*
X9118087Y-7596457D01*
X8890000Y-7576502D01*
X8661913Y-7596457D01*
X8656600Y-7597881D01*
X8656598Y-7597881D01*
X8446067Y-7654293D01*
X8446065Y-7654294D01*
X8440757Y-7655716D01*
X8435776Y-7658039D01*
X8435775Y-7658039D01*
X8238238Y-7750151D01*
X8238233Y-7750154D01*
X8233251Y-7752477D01*
X8151041Y-7810041D01*
X8050211Y-7880643D01*
X8050208Y-7880645D01*
X8045700Y-7883802D01*
X7883802Y-8045700D01*
X7880643Y-8050211D01*
X7877108Y-8054424D01*
X7876140Y-8053612D01*
X7825506Y-8094090D01*
X7754887Y-8101404D01*
X7691524Y-8069376D01*
X7655536Y-8008177D01*
X7652480Y-7991099D01*
X7652105Y-7987648D01*
X7648479Y-7972396D01*
X7603324Y-7851946D01*
X7594786Y-7836351D01*
X7518285Y-7734276D01*
X7505724Y-7721715D01*
X7403649Y-7645214D01*
X7388054Y-7636676D01*
X7267606Y-7591522D01*
X7252351Y-7587895D01*
X7201486Y-7582369D01*
X7194672Y-7582000D01*
X6622115Y-7582000D01*
X6606876Y-7586475D01*
X6605671Y-7587865D01*
X6604000Y-7595548D01*
X6604000Y-11649884D01*
X6608475Y-11665123D01*
X6609865Y-11666328D01*
X6617548Y-11667999D01*
X7156669Y-11667999D01*
X7163490Y-11667629D01*
X7214352Y-11662105D01*
X7229604Y-11658479D01*
X7350054Y-11613324D01*
X7365649Y-11604786D01*
X7467724Y-11528285D01*
X7480285Y-11515724D01*
X7518862Y-11464251D01*
X7575721Y-11421736D01*
X7646540Y-11416710D01*
X7708833Y-11450770D01*
X7720509Y-11464245D01*
X7764739Y-11523261D01*
X7881295Y-11610615D01*
X8017684Y-11661745D01*
X8079866Y-11668500D01*
X9700134Y-11668500D01*
X9762316Y-11661745D01*
X9898705Y-11610615D01*
X10015261Y-11523261D01*
X10059174Y-11464668D01*
X10116033Y-11422153D01*
X10186852Y-11417127D01*
X10249145Y-11451187D01*
X10260825Y-11464667D01*
X10304739Y-11523261D01*
X10421295Y-11610615D01*
X10557684Y-11661745D01*
X10619866Y-11668500D01*
X12240134Y-11668500D01*
X12302316Y-11661745D01*
X12438705Y-11610615D01*
X12555261Y-11523261D01*
X12599174Y-11464668D01*
X12656033Y-11422153D01*
X12726852Y-11417127D01*
X12789145Y-11451187D01*
X12800825Y-11464667D01*
X12844739Y-11523261D01*
X12961295Y-11610615D01*
X13097684Y-11661745D01*
X13159866Y-11668500D01*
X14780134Y-11668500D01*
X14842316Y-11661745D01*
X14978705Y-11610615D01*
X15095261Y-11523261D01*
X15139174Y-11464668D01*
X15196033Y-11422153D01*
X15266852Y-11417127D01*
X15329145Y-11451187D01*
X15340825Y-11464667D01*
X15384739Y-11523261D01*
X15501295Y-11610615D01*
X15637684Y-11661745D01*
X15699866Y-11668500D01*
X17320134Y-11668500D01*
X17382316Y-11661745D01*
X17518705Y-11610615D01*
X17635261Y-11523261D01*
X17679487Y-11464251D01*
X17736344Y-11421736D01*
X17807163Y-11416710D01*
X17869456Y-11450770D01*
X17881138Y-11464251D01*
X17919715Y-11515724D01*
X17932276Y-11528285D01*
X18034351Y-11604786D01*
X18049946Y-11613324D01*
X18170394Y-11658478D01*
X18185649Y-11662105D01*
X18236514Y-11667631D01*
X18243328Y-11668000D01*
X18777885Y-11668000D01*
X18793124Y-11663525D01*
X18794329Y-11662135D01*
X18796000Y-11654452D01*
X18796000Y-8738000D01*
X18816002Y-8669879D01*
X18869658Y-8623386D01*
X18922000Y-8612000D01*
X19178000Y-8612000D01*
X19246121Y-8632002D01*
X19292614Y-8685658D01*
X19304000Y-8738000D01*
X19304000Y-11649884D01*
X19308475Y-11665123D01*
X19309865Y-11666328D01*
X19317548Y-11667999D01*
X19856669Y-11667999D01*
X19863490Y-11667629D01*
X19914352Y-11662105D01*
X19929604Y-11658479D01*
X20050054Y-11613324D01*
X20065649Y-11604786D01*
X20167724Y-11528285D01*
X20180285Y-11515724D01*
X20218862Y-11464251D01*
X20275721Y-11421736D01*
X20346540Y-11416710D01*
X20408833Y-11450770D01*
X20420509Y-11464245D01*
X20464739Y-11523261D01*
X20581295Y-11610615D01*
X20717684Y-11661745D01*
X20779866Y-11668500D01*
X21510800Y-11668500D01*
X21578921Y-11688502D01*
X21625414Y-11742158D01*
X21635518Y-11812432D01*
X21606024Y-11877012D01*
X21563451Y-11908972D01*
X21407986Y-11980478D01*
X21405052Y-11982234D01*
X21405050Y-11982235D01*
X21325877Y-12029619D01*
X21091192Y-12170075D01*
X20796726Y-12392778D01*
X20794244Y-12395117D01*
X20794238Y-12395122D01*
X20552042Y-12623357D01*
X20528035Y-12645980D01*
X20525823Y-12648570D01*
X20525821Y-12648572D01*
X20481853Y-12700052D01*
X20288261Y-12926719D01*
X20286342Y-12929531D01*
X20286339Y-12929536D01*
X20255095Y-12975338D01*
X20080209Y-13231712D01*
X19906313Y-13557390D01*
X19768607Y-13899944D01*
X19767687Y-13903218D01*
X19767685Y-13903223D01*
X19680932Y-14211858D01*
X19668702Y-14255367D01*
X19668140Y-14258724D01*
X19668140Y-14258725D01*
X19631835Y-14475678D01*
X19607767Y-14619500D01*
X19586515Y-14988085D01*
X19586687Y-14991480D01*
X19586687Y-14991481D01*
X19604827Y-15349568D01*
X19605194Y-15356809D01*
X19605731Y-15360164D01*
X19605732Y-15360170D01*
X19641005Y-15580385D01*
X19663585Y-15721358D01*
X19761006Y-16077470D01*
X19825619Y-16241500D01*
X19875079Y-16367060D01*
X19896317Y-16420977D01*
X19897900Y-16423992D01*
X20066351Y-16744845D01*
X20066356Y-16744853D01*
X20067935Y-16747861D01*
X20273853Y-17054299D01*
X20467566Y-17284341D01*
X20496144Y-17349331D01*
X20485049Y-17419456D01*
X20437803Y-17472449D01*
X20371186Y-17491500D01*
X17974091Y-17491500D01*
X17905970Y-17471498D01*
X17859477Y-17417842D01*
X17849373Y-17347568D01*
X17878867Y-17282988D01*
X17885152Y-17276249D01*
X17934430Y-17227144D01*
X17934440Y-17227132D01*
X17938096Y-17223489D01*
X18037379Y-17085322D01*
X18065435Y-17046277D01*
X18068453Y-17042077D01*
X18081995Y-17014678D01*
X18165136Y-16846453D01*
X18165137Y-16846451D01*
X18167430Y-16841811D01*
X18232370Y-16628069D01*
X18261529Y-16406590D01*
X18263156Y-16340000D01*
X18244852Y-16117361D01*
X18190431Y-15900702D01*
X18101354Y-15695840D01*
X17980014Y-15508277D01*
X17976532Y-15504450D01*
X17832798Y-15346488D01*
X17801746Y-15282642D01*
X17810141Y-15212143D01*
X17855317Y-15157375D01*
X17881761Y-15143706D01*
X17988297Y-15103767D01*
X17996705Y-15100615D01*
X18113261Y-15013261D01*
X18200615Y-14896705D01*
X18251745Y-14760316D01*
X18258500Y-14698134D01*
X18258500Y-12901866D01*
X18251745Y-12839684D01*
X18200615Y-12703295D01*
X18113261Y-12586739D01*
X17996705Y-12499385D01*
X17860316Y-12448255D01*
X17798134Y-12441500D01*
X16001866Y-12441500D01*
X15939684Y-12448255D01*
X15803295Y-12499385D01*
X15686739Y-12586739D01*
X15599385Y-12703295D01*
X15596011Y-12712296D01*
X15554919Y-12821907D01*
X15512277Y-12878671D01*
X15445716Y-12903371D01*
X15376367Y-12888163D01*
X15343743Y-12862476D01*
X15293151Y-12806875D01*
X15293142Y-12806866D01*
X15289670Y-12803051D01*
X15285619Y-12799852D01*
X15285615Y-12799848D01*
X15118414Y-12667800D01*
X15118410Y-12667798D01*
X15114359Y-12664598D01*
X15100989Y-12657217D01*
X15062136Y-12635769D01*
X14918789Y-12556638D01*
X14913920Y-12554914D01*
X14913916Y-12554912D01*
X14713087Y-12483795D01*
X14713083Y-12483794D01*
X14708212Y-12482069D01*
X14703119Y-12481162D01*
X14703116Y-12481161D01*
X14493373Y-12443800D01*
X14493367Y-12443799D01*
X14488284Y-12442894D01*
X14414452Y-12441992D01*
X14270081Y-12440228D01*
X14270079Y-12440228D01*
X14264911Y-12440165D01*
X14044091Y-12473955D01*
X13831756Y-12543357D01*
X13633607Y-12646507D01*
X13629474Y-12649610D01*
X13629471Y-12649612D01*
X13459100Y-12777530D01*
X13454965Y-12780635D01*
X13429648Y-12807128D01*
X13305593Y-12936944D01*
X13300629Y-12942138D01*
X13297715Y-12946410D01*
X13297714Y-12946411D01*
X13285199Y-12964757D01*
X13207360Y-13078866D01*
X13192898Y-13100066D01*
X13137987Y-13145069D01*
X13067462Y-13153240D01*
X13003715Y-13121986D01*
X12983018Y-13097502D01*
X12902426Y-12972926D01*
X12896136Y-12964757D01*
X12752806Y-12807240D01*
X12745273Y-12800215D01*
X12578139Y-12668222D01*
X12569552Y-12662517D01*
X12383117Y-12559599D01*
X12373705Y-12555369D01*
X12172959Y-12484280D01*
X12162988Y-12481646D01*
X12091837Y-12468972D01*
X12078540Y-12470432D01*
X12074000Y-12484989D01*
X12074000Y-14215500D01*
X12053998Y-14283621D01*
X12000342Y-14330114D01*
X11948000Y-14341500D01*
X11692000Y-14341500D01*
X11623879Y-14321498D01*
X11577386Y-14267842D01*
X11566000Y-14215500D01*
X11566000Y-14072115D01*
X11561525Y-14056876D01*
X11560135Y-14055671D01*
X11552452Y-14054000D01*
X10503225Y-14054000D01*
X10489694Y-14057973D01*
X10488258Y-14067965D01*
X10515264Y-14187798D01*
X10510728Y-14258650D01*
X10468607Y-14315802D01*
X10402274Y-14341108D01*
X10392347Y-14341500D01*
X6995660Y-14341500D01*
X6927539Y-14321498D01*
X6906565Y-14304595D01*
X6571450Y-13969480D01*
X6565596Y-13963215D01*
X6565201Y-13962762D01*
X6527561Y-13919615D01*
X6475280Y-13882871D01*
X6469986Y-13878939D01*
X6425693Y-13844209D01*
X6419718Y-13839524D01*
X6412802Y-13836401D01*
X6410516Y-13835017D01*
X6395835Y-13826643D01*
X6393475Y-13825378D01*
X6387261Y-13821010D01*
X6380182Y-13818250D01*
X6380180Y-13818249D01*
X6327725Y-13797798D01*
X6321656Y-13795247D01*
X6263427Y-13768955D01*
X6255960Y-13767571D01*
X6253405Y-13766770D01*
X6237152Y-13762141D01*
X6234572Y-13761478D01*
X6227491Y-13758718D01*
X6219960Y-13757727D01*
X6219958Y-13757726D01*
X6190339Y-13753827D01*
X6164139Y-13750378D01*
X6157641Y-13749348D01*
X6094814Y-13737704D01*
X6087234Y-13738141D01*
X6087233Y-13738141D01*
X6032608Y-13741291D01*
X6025354Y-13741500D01*
X-5904340Y-13741500D01*
X-5972461Y-13721498D01*
X-5993435Y-13704595D01*
X-6163847Y-13534183D01*
X10484389Y-13534183D01*
X10485912Y-13542607D01*
X10498292Y-13546000D01*
X11547885Y-13546000D01*
X11563124Y-13541525D01*
X11564329Y-13540135D01*
X11566000Y-13532452D01*
X11566000Y-12483102D01*
X11562082Y-12469758D01*
X11547806Y-12467771D01*
X11509324Y-12473660D01*
X11499288Y-12476051D01*
X11296868Y-12542212D01*
X11287359Y-12546209D01*
X11098463Y-12644542D01*
X11089738Y-12650036D01*
X10919433Y-12777905D01*
X10911726Y-12784748D01*
X10764590Y-12938717D01*
X10758104Y-12946727D01*
X10638098Y-13122649D01*
X10633000Y-13131623D01*
X10543338Y-13324783D01*
X10539775Y-13334470D01*
X10484389Y-13534183D01*
X-6163847Y-13534183D01*
X-6678550Y-13019480D01*
X-6684404Y-13013215D01*
X-6684799Y-13012762D01*
X-6722439Y-12969615D01*
X-6774720Y-12932871D01*
X-6780014Y-12928939D01*
X-6824307Y-12894209D01*
X-6830282Y-12889524D01*
X-6837198Y-12886401D01*
X-6839484Y-12885017D01*
X-6854165Y-12876643D01*
X-6856525Y-12875378D01*
X-6862739Y-12871010D01*
X-6869818Y-12868250D01*
X-6869820Y-12868249D01*
X-6922275Y-12847798D01*
X-6928344Y-12845247D01*
X-6986573Y-12818955D01*
X-6994040Y-12817571D01*
X-6996595Y-12816770D01*
X-7012848Y-12812141D01*
X-7015428Y-12811478D01*
X-7022509Y-12808718D01*
X-7030040Y-12807727D01*
X-7030042Y-12807726D01*
X-7059661Y-12803827D01*
X-7085861Y-12800378D01*
X-7092359Y-12799348D01*
X-7155186Y-12787704D01*
X-7162766Y-12788141D01*
X-7162767Y-12788141D01*
X-7217392Y-12791291D01*
X-7224646Y-12791500D01*
X-10077196Y-12791500D01*
X-10145317Y-12771498D01*
X-10191810Y-12717842D01*
X-10202506Y-12652330D01*
X-10187186Y-12506565D01*
X-10186496Y-12500000D01*
X-10189013Y-12476051D01*
X-10205768Y-12316635D01*
X-10205768Y-12316633D01*
X-10206458Y-12310072D01*
X-10265473Y-12128444D01*
X-10272594Y-12116109D01*
X-10314670Y-12043232D01*
X-10360960Y-11963056D01*
X-10488747Y-11821134D01*
X-10486774Y-11819358D01*
X-10517809Y-11768974D01*
X-10516453Y-11697990D01*
X-10476935Y-11639009D01*
X-10440488Y-11617810D01*
X-10421295Y-11610615D01*
X-10304739Y-11523261D01*
X-10260826Y-11464668D01*
X-10203967Y-11422153D01*
X-10133148Y-11417127D01*
X-10070855Y-11451187D01*
X-10059175Y-11464667D01*
X-10015261Y-11523261D01*
X-9898705Y-11610615D01*
X-9762316Y-11661745D01*
X-9700134Y-11668500D01*
X-8079866Y-11668500D01*
X-8017684Y-11661745D01*
X-7881295Y-11610615D01*
X-7764739Y-11523261D01*
X-7720513Y-11464251D01*
X-7663656Y-11421736D01*
X-7592837Y-11416710D01*
X-7530544Y-11450770D01*
X-7518862Y-11464251D01*
X-7480285Y-11515724D01*
X-7467724Y-11528285D01*
X-7365649Y-11604786D01*
X-7350054Y-11613324D01*
X-7229606Y-11658478D01*
X-7214351Y-11662105D01*
X-7163486Y-11667631D01*
X-7156672Y-11668000D01*
X-6622115Y-11668000D01*
X-6606876Y-11663525D01*
X-6605671Y-11662135D01*
X-6604000Y-11654452D01*
X-6604000Y-8738000D01*
X-6583998Y-8669879D01*
X-6530342Y-8623386D01*
X-6478000Y-8612000D01*
X-6222000Y-8612000D01*
X-6153879Y-8632002D01*
X-6107386Y-8685658D01*
X-6096000Y-8738000D01*
X-6096000Y-11649884D01*
X-6091525Y-11665123D01*
X-6090135Y-11666328D01*
X-6082452Y-11667999D01*
X-5543331Y-11667999D01*
X-5536510Y-11667629D01*
X-5485648Y-11662105D01*
X-5470396Y-11658479D01*
X-5349946Y-11613324D01*
X-5334351Y-11604786D01*
X-5232276Y-11528285D01*
X-5219715Y-11515724D01*
X-5181138Y-11464251D01*
X-5124279Y-11421736D01*
X-5053460Y-11416710D01*
X-4991167Y-11450770D01*
X-4979491Y-11464245D01*
X-4935261Y-11523261D01*
X-4818705Y-11610615D01*
X-4682316Y-11661745D01*
X-4620134Y-11668500D01*
X-2999866Y-11668500D01*
X-2937684Y-11661745D01*
X-2801295Y-11610615D01*
X-2684739Y-11523261D01*
X-2640826Y-11464668D01*
X-2583967Y-11422153D01*
X-2513148Y-11417127D01*
X-2450855Y-11451187D01*
X-2439175Y-11464667D01*
X-2395261Y-11523261D01*
X-2278705Y-11610615D01*
X-2142316Y-11661745D01*
X-2080134Y-11668500D01*
X-459866Y-11668500D01*
X-397684Y-11661745D01*
X-261295Y-11610615D01*
X-144739Y-11523261D01*
X-100826Y-11464668D01*
X-43967Y-11422153D01*
X26852Y-11417127D01*
X89145Y-11451187D01*
X100825Y-11464667D01*
X144739Y-11523261D01*
X261295Y-11610615D01*
X397684Y-11661745D01*
X459866Y-11668500D01*
X1114339Y-11668500D01*
X1182460Y-11688502D01*
X1203435Y-11705405D01*
X1465336Y-11967307D01*
X1499361Y-12029619D01*
X1501550Y-12043232D01*
X1506458Y-12089928D01*
X1565473Y-12271556D01*
X1660960Y-12436944D01*
X1665378Y-12441851D01*
X1665379Y-12441852D01*
X1767179Y-12554912D01*
X1788747Y-12578866D01*
X1943248Y-12691118D01*
X1949276Y-12693802D01*
X1949278Y-12693803D01*
X2027214Y-12728502D01*
X2117712Y-12768794D01*
X2206676Y-12787704D01*
X2298056Y-12807128D01*
X2298061Y-12807128D01*
X2304513Y-12808500D01*
X2495487Y-12808500D01*
X2501939Y-12807128D01*
X2501944Y-12807128D01*
X2593324Y-12787704D01*
X2682288Y-12768794D01*
X2772786Y-12728502D01*
X2850722Y-12693803D01*
X2850724Y-12693802D01*
X2856752Y-12691118D01*
X3011253Y-12578866D01*
X3040658Y-12546209D01*
X3085195Y-12496745D01*
X3145641Y-12459505D01*
X3216625Y-12460857D01*
X3275609Y-12500370D01*
X3304141Y-12567884D01*
X3306458Y-12589928D01*
X3308498Y-12596205D01*
X3308498Y-12596207D01*
X3324842Y-12646507D01*
X3365473Y-12771556D01*
X3368776Y-12777278D01*
X3368777Y-12777279D01*
X3388905Y-12812141D01*
X3460960Y-12936944D01*
X3465378Y-12941851D01*
X3465379Y-12941852D01*
X3532534Y-13016435D01*
X3588747Y-13078866D01*
X3743248Y-13191118D01*
X3749276Y-13193802D01*
X3749278Y-13193803D01*
X3851020Y-13239101D01*
X3917712Y-13268794D01*
X4011113Y-13288647D01*
X4098056Y-13307128D01*
X4098061Y-13307128D01*
X4104513Y-13308500D01*
X4295487Y-13308500D01*
X4301939Y-13307128D01*
X4301944Y-13307128D01*
X4388888Y-13288647D01*
X4482288Y-13268794D01*
X4548980Y-13239101D01*
X4650722Y-13193803D01*
X4650724Y-13193802D01*
X4656752Y-13191118D01*
X4811253Y-13078866D01*
X4867466Y-13016435D01*
X4934621Y-12941852D01*
X4934622Y-12941851D01*
X4939040Y-12936944D01*
X5011095Y-12812141D01*
X5031223Y-12777279D01*
X5031224Y-12777278D01*
X5034527Y-12771556D01*
X5093542Y-12589928D01*
X5095740Y-12569020D01*
X5112814Y-12406565D01*
X5113504Y-12400000D01*
X5104052Y-12310072D01*
X5094232Y-12216635D01*
X5094232Y-12216633D01*
X5093542Y-12210072D01*
X5034527Y-12028444D01*
X5010053Y-11986053D01*
X4996775Y-11963056D01*
X4939040Y-11863056D01*
X4847089Y-11760934D01*
X4816371Y-11696927D01*
X4825136Y-11626473D01*
X4865159Y-11575800D01*
X4935261Y-11523261D01*
X4979487Y-11464251D01*
X5036344Y-11421736D01*
X5107163Y-11416710D01*
X5169456Y-11450770D01*
X5181138Y-11464251D01*
X5219715Y-11515724D01*
X5232276Y-11528285D01*
X5334351Y-11604786D01*
X5349946Y-11613324D01*
X5470394Y-11658478D01*
X5485649Y-11662105D01*
X5536514Y-11667631D01*
X5543328Y-11668000D01*
X6077885Y-11668000D01*
X6093124Y-11663525D01*
X6094329Y-11662135D01*
X6096000Y-11654452D01*
X6096000Y-7600116D01*
X6091525Y-7584877D01*
X6090135Y-7583672D01*
X6082452Y-7582001D01*
X5505331Y-7582001D01*
X5498510Y-7582371D01*
X5447648Y-7587895D01*
X5432396Y-7591521D01*
X5311946Y-7636676D01*
X5296351Y-7645214D01*
X5194276Y-7721715D01*
X5181715Y-7734276D01*
X5105214Y-7836351D01*
X5096676Y-7851946D01*
X5051522Y-7972394D01*
X5047896Y-7987643D01*
X5047521Y-7991096D01*
X5046478Y-7993606D01*
X5046068Y-7995331D01*
X5045789Y-7995265D01*
X5020281Y-8056659D01*
X4961920Y-8097088D01*
X4890966Y-8099546D01*
X4829946Y-8063253D01*
X4820656Y-8051760D01*
X4819359Y-8050214D01*
X4816198Y-8045700D01*
X4654300Y-7883802D01*
X4649792Y-7880645D01*
X4649789Y-7880643D01*
X4548959Y-7810041D01*
X4466749Y-7752477D01*
X4461767Y-7750154D01*
X4461762Y-7750151D01*
X4264225Y-7658039D01*
X4264224Y-7658039D01*
X4259243Y-7655716D01*
X4253935Y-7654294D01*
X4253933Y-7654293D01*
X4043402Y-7597881D01*
X4043400Y-7597881D01*
X4038087Y-7596457D01*
X3810000Y-7576502D01*
X3581913Y-7596457D01*
X3576600Y-7597881D01*
X3576598Y-7597881D01*
X3366067Y-7654293D01*
X3366065Y-7654294D01*
X3360757Y-7655716D01*
X3355776Y-7658039D01*
X3355775Y-7658039D01*
X3158238Y-7750151D01*
X3158233Y-7750154D01*
X3153251Y-7752477D01*
X3071041Y-7810041D01*
X2970211Y-7880643D01*
X2970208Y-7880645D01*
X2965700Y-7883802D01*
X2803802Y-8045700D01*
X2800645Y-8050208D01*
X2800643Y-8050211D01*
X2745902Y-8128389D01*
X2672477Y-8233251D01*
X2670154Y-8238233D01*
X2670151Y-8238238D01*
X2654195Y-8272457D01*
X2607278Y-8325742D01*
X2539001Y-8345203D01*
X2471041Y-8324661D01*
X2425805Y-8272457D01*
X2409849Y-8238238D01*
X2409846Y-8238233D01*
X2407523Y-8233251D01*
X2334098Y-8128389D01*
X2279357Y-8050211D01*
X2279355Y-8050208D01*
X2276198Y-8045700D01*
X2114300Y-7883802D01*
X2109792Y-7880645D01*
X2109789Y-7880643D01*
X2008959Y-7810041D01*
X1926749Y-7752477D01*
X1921767Y-7750154D01*
X1921762Y-7750151D01*
X1724225Y-7658039D01*
X1724224Y-7658039D01*
X1719243Y-7655716D01*
X1713935Y-7654294D01*
X1713933Y-7654293D01*
X1503402Y-7597881D01*
X1503400Y-7597881D01*
X1498087Y-7596457D01*
X1270000Y-7576502D01*
X1041913Y-7596457D01*
X1036600Y-7597881D01*
X1036598Y-7597881D01*
X826067Y-7654293D01*
X826065Y-7654294D01*
X820757Y-7655716D01*
X815776Y-7658039D01*
X815775Y-7658039D01*
X618238Y-7750151D01*
X618233Y-7750154D01*
X613251Y-7752477D01*
X531041Y-7810041D01*
X430211Y-7880643D01*
X430208Y-7880645D01*
X425700Y-7883802D01*
X263802Y-8045700D01*
X260645Y-8050208D01*
X260643Y-8050211D01*
X205902Y-8128389D01*
X132477Y-8233251D01*
X130154Y-8238233D01*
X130151Y-8238238D01*
X114195Y-8272457D01*
X67278Y-8325742D01*
X-999Y-8345203D01*
X-68959Y-8324661D01*
X-114195Y-8272457D01*
X-130151Y-8238238D01*
X-130154Y-8238233D01*
X-132477Y-8233251D01*
X-205902Y-8128389D01*
X-260643Y-8050211D01*
X-260645Y-8050208D01*
X-263802Y-8045700D01*
X-425700Y-7883802D01*
X-430208Y-7880645D01*
X-430211Y-7880643D01*
X-531041Y-7810041D01*
X-613251Y-7752477D01*
X-618233Y-7750154D01*
X-618238Y-7750151D01*
X-815775Y-7658039D01*
X-815776Y-7658039D01*
X-820757Y-7655716D01*
X-826065Y-7654294D01*
X-826067Y-7654293D01*
X-1036598Y-7597881D01*
X-1036600Y-7597881D01*
X-1041913Y-7596457D01*
X-1270000Y-7576502D01*
X-1498087Y-7596457D01*
X-1503400Y-7597881D01*
X-1503402Y-7597881D01*
X-1713933Y-7654293D01*
X-1713935Y-7654294D01*
X-1719243Y-7655716D01*
X-1724224Y-7658039D01*
X-1724225Y-7658039D01*
X-1921762Y-7750151D01*
X-1921767Y-7750154D01*
X-1926749Y-7752477D01*
X-2008959Y-7810041D01*
X-2109789Y-7880643D01*
X-2109792Y-7880645D01*
X-2114300Y-7883802D01*
X-2276198Y-8045700D01*
X-2279355Y-8050208D01*
X-2279357Y-8050211D01*
X-2334098Y-8128389D01*
X-2407523Y-8233251D01*
X-2409846Y-8238233D01*
X-2409849Y-8238238D01*
X-2425805Y-8272457D01*
X-2472722Y-8325742D01*
X-2540999Y-8345203D01*
X-2608959Y-8324661D01*
X-2654195Y-8272457D01*
X-2670151Y-8238238D01*
X-2670154Y-8238233D01*
X-2672477Y-8233251D01*
X-2745902Y-8128389D01*
X-2800643Y-8050211D01*
X-2800645Y-8050208D01*
X-2803802Y-8045700D01*
X-2965700Y-7883802D01*
X-2970208Y-7880645D01*
X-2970211Y-7880643D01*
X-3071041Y-7810041D01*
X-3153251Y-7752477D01*
X-3158233Y-7750154D01*
X-3158238Y-7750151D01*
X-3355775Y-7658039D01*
X-3355776Y-7658039D01*
X-3360757Y-7655716D01*
X-3366065Y-7654294D01*
X-3366067Y-7654293D01*
X-3576598Y-7597881D01*
X-3576600Y-7597881D01*
X-3581913Y-7596457D01*
X-3810000Y-7576502D01*
X-4038087Y-7596457D01*
X-4043400Y-7597881D01*
X-4043402Y-7597881D01*
X-4129426Y-7620931D01*
X-4200403Y-7619241D01*
X-4251132Y-7588319D01*
X-4935674Y-6903777D01*
X-4946542Y-6891386D01*
X-4960990Y-6872557D01*
X-4966012Y-6866012D01*
X-5093124Y-6768476D01*
X-5241149Y-6707162D01*
X-5400000Y-6686249D01*
X-5558851Y-6707162D01*
X-5558964Y-6706301D01*
X-5576853Y-6708657D01*
X-10012918Y-6708657D01*
X-10081039Y-6688655D01*
X-10102013Y-6671752D01*
X-11154595Y-5619170D01*
X-11188621Y-5556858D01*
X-11191500Y-5530075D01*
X-11191500Y4109625D01*
X-11171498Y4177746D01*
X-11139561Y4211561D01*
X-11137906Y4212763D01*
X-11081448Y4253783D01*
X-10994091Y4317251D01*
X-10994089Y4317253D01*
X-10988747Y4321134D01*
X-10951418Y4362592D01*
X-10865379Y4458148D01*
X-10865378Y4458149D01*
X-10860960Y4463056D01*
X-10765473Y4628444D01*
X-10706458Y4810072D01*
X-10699227Y4878866D01*
X-10687186Y4993435D01*
X-10686496Y5000000D01*
X-10706458Y5189928D01*
X-10765473Y5371556D01*
X-10860960Y5536944D01*
X-10988747Y5678866D01*
X-11100583Y5760120D01*
X-11137906Y5787237D01*
X-11137907Y5787238D01*
X-11143248Y5791118D01*
X-11149276Y5793802D01*
X-11149278Y5793803D01*
X-11311681Y5866109D01*
X-11311682Y5866109D01*
X-11317712Y5868794D01*
X-11411112Y5888647D01*
X-11498056Y5907128D01*
X-11498061Y5907128D01*
X-11504513Y5908500D01*
X-11695487Y5908500D01*
X-11701939Y5907128D01*
X-11701944Y5907128D01*
X-11788888Y5888647D01*
X-11882288Y5868794D01*
X-12036802Y5800000D01*
X-12048502Y5794791D01*
X-12118869Y5785357D01*
X-12150999Y5794791D01*
X-12311180Y5866108D01*
X-12311188Y5866111D01*
X-12317215Y5868794D01*
X-12410615Y5888647D01*
X-12497559Y5907128D01*
X-12497564Y5907128D01*
X-12504016Y5908500D01*
X-12694990Y5908500D01*
X-12701442Y5907128D01*
X-12701447Y5907128D01*
X-12788391Y5888647D01*
X-12881791Y5868794D01*
X-12887821Y5866109D01*
X-12887822Y5866109D01*
X-13050225Y5793803D01*
X-13050227Y5793802D01*
X-13056255Y5791118D01*
X-13061596Y5787238D01*
X-13061597Y5787237D01*
X-13098920Y5760120D01*
X-13210756Y5678866D01*
X-13338543Y5536944D01*
X-13434030Y5371556D01*
X-13493045Y5189928D01*
X-13513007Y5000000D01*
X-13512317Y4993435D01*
X-13500275Y4878866D01*
X-13493045Y4810072D01*
X-13434030Y4628444D01*
X-13338543Y4463056D01*
X-13334125Y4458149D01*
X-13334124Y4458148D01*
X-13248085Y4362592D01*
X-13210756Y4321134D01*
X-13056255Y4208882D01*
X-13050227Y4206198D01*
X-13050225Y4206197D01*
X-12883251Y4131856D01*
X-12829155Y4085876D01*
X-12808500Y4016749D01*
X-12808500Y534500D01*
X-12828502Y466379D01*
X-12882158Y419886D01*
X-12934500Y408500D01*
X-12995487Y408500D01*
X-13001939Y407128D01*
X-13001944Y407128D01*
X-13088887Y388647D01*
X-13182288Y368794D01*
X-13188318Y366109D01*
X-13188319Y366109D01*
X-13350722Y293803D01*
X-13350724Y293802D01*
X-13356752Y291118D01*
X-13362093Y287238D01*
X-13362094Y287237D01*
X-13400449Y259370D01*
X-13511253Y178866D01*
X-13515674Y173956D01*
X-13515675Y173955D01*
X-13592640Y88476D01*
X-13639040Y36944D01*
X-13734527Y-128444D01*
X-13793542Y-310072D01*
X-13794232Y-316633D01*
X-13794232Y-316635D01*
X-13804052Y-410072D01*
X-13813504Y-500000D01*
X-13793542Y-689928D01*
X-13734527Y-871556D01*
X-13731224Y-877278D01*
X-13731223Y-877279D01*
X-13642342Y-1031225D01*
X-13639040Y-1036944D01*
X-13634621Y-1041852D01*
X-13632564Y-1044683D01*
X-13608705Y-1111551D01*
X-13608500Y-1118744D01*
X-13608500Y-6954338D01*
X-13628502Y-7022459D01*
X-13645404Y-7043433D01*
X-14174678Y-7572708D01*
X-14231163Y-7605320D01*
X-14413933Y-7654293D01*
X-14413935Y-7654294D01*
X-14419243Y-7655716D01*
X-14424224Y-7658039D01*
X-14424225Y-7658039D01*
X-14621762Y-7750151D01*
X-14621767Y-7750154D01*
X-14626749Y-7752477D01*
X-14708959Y-7810041D01*
X-14809789Y-7880643D01*
X-14809792Y-7880645D01*
X-14814300Y-7883802D01*
X-14976198Y-8045700D01*
X-14979355Y-8050208D01*
X-14979357Y-8050211D01*
X-15034098Y-8128389D01*
X-15107523Y-8233251D01*
X-15109846Y-8238233D01*
X-15109849Y-8238238D01*
X-15125805Y-8272457D01*
X-15172722Y-8325742D01*
X-15240999Y-8345203D01*
X-15308959Y-8324661D01*
X-15354195Y-8272457D01*
X-15370151Y-8238238D01*
X-15370154Y-8238233D01*
X-15372477Y-8233251D01*
X-15445902Y-8128389D01*
X-15500643Y-8050211D01*
X-15500645Y-8050208D01*
X-15503802Y-8045700D01*
X-15665700Y-7883802D01*
X-15670208Y-7880645D01*
X-15670211Y-7880643D01*
X-15771041Y-7810041D01*
X-15853251Y-7752477D01*
X-15858233Y-7750154D01*
X-15858238Y-7750151D01*
X-16055775Y-7658039D01*
X-16055776Y-7658039D01*
X-16060757Y-7655716D01*
X-16066065Y-7654294D01*
X-16066067Y-7654293D01*
X-16276598Y-7597881D01*
X-16276600Y-7597881D01*
X-16281913Y-7596457D01*
X-16510000Y-7576502D01*
X-16738087Y-7596457D01*
X-16743400Y-7597881D01*
X-16743402Y-7597881D01*
X-16953933Y-7654293D01*
X-16953935Y-7654294D01*
X-16959243Y-7655716D01*
X-16964224Y-7658039D01*
X-16964225Y-7658039D01*
X-17161762Y-7750151D01*
X-17161767Y-7750154D01*
X-17166749Y-7752477D01*
X-17248959Y-7810041D01*
X-17349789Y-7880643D01*
X-17349792Y-7880645D01*
X-17354300Y-7883802D01*
X-17516198Y-8045700D01*
X-17519357Y-8050211D01*
X-17522892Y-8054424D01*
X-17523860Y-8053612D01*
X-17574494Y-8094090D01*
X-17645113Y-8101404D01*
X-17708476Y-8069376D01*
X-17744464Y-8008177D01*
X-17747520Y-7991099D01*
X-17747895Y-7987648D01*
X-17751521Y-7972396D01*
X-17796676Y-7851946D01*
X-17805214Y-7836351D01*
X-17860925Y-7762016D01*
X-17885773Y-7695509D01*
X-17870720Y-7626127D01*
X-17834160Y-7584515D01*
X-17829115Y-7580850D01*
X-17738309Y-7514875D01*
X-17694091Y-7482749D01*
X-17694089Y-7482747D01*
X-17688747Y-7478866D01*
X-17680730Y-7469962D01*
X-17565379Y-7341852D01*
X-17565378Y-7341851D01*
X-17560960Y-7336944D01*
X-17465473Y-7171556D01*
X-17411852Y-7006529D01*
X-17408500Y-6996213D01*
X-17408500Y-6996212D01*
X-17406458Y-6989928D01*
X-17405817Y-6983825D01*
X-17372172Y-6921507D01*
X-17333901Y-6895070D01*
X-17198813Y-6834926D01*
X-17198806Y-6834922D01*
X-17192780Y-6832239D01*
X-17038279Y-6719987D01*
X-17033857Y-6715076D01*
X-16914911Y-6582973D01*
X-16914910Y-6582972D01*
X-16910492Y-6578065D01*
X-16844060Y-6463001D01*
X-16818309Y-6418400D01*
X-16818308Y-6418399D01*
X-16815005Y-6412677D01*
X-16755990Y-6231049D01*
X-16736028Y-6041121D01*
X-16736216Y-6039335D01*
X-16716716Y-5972925D01*
X-16699813Y-5951951D01*
X-15803766Y-5055904D01*
X-15791375Y-5045037D01*
X-15772563Y-5030602D01*
X-15766013Y-5025576D01*
X-15741526Y-4993664D01*
X-15741522Y-4993660D01*
X-15668476Y-4898465D01*
X-15607162Y-4750440D01*
X-15604096Y-4727152D01*
X-15591500Y-4631474D01*
X-15591500Y-4631469D01*
X-15586250Y-4591589D01*
X-15590422Y-4559896D01*
X-15591500Y-4543453D01*
X-15591500Y1417550D01*
X-15590422Y1433996D01*
X-15587328Y1457498D01*
X-15586250Y1465686D01*
X-15591500Y1505566D01*
X-15591500Y1505572D01*
X-15605241Y1609947D01*
X-15605242Y1609950D01*
X-15606084Y1616349D01*
X-15606085Y1616351D01*
X-15607162Y1624537D01*
X-15668476Y1772562D01*
X-15741523Y1867758D01*
X-15741526Y1867761D01*
X-15766013Y1899673D01*
X-15778423Y1909196D01*
X-15791379Y1919138D01*
X-15803770Y1930005D01*
X-20944595Y7070830D01*
X-20978621Y7133142D01*
X-20981500Y7159925D01*
X-20981500Y7653101D01*
X-20961498Y7721222D01*
X-20927771Y7756314D01*
X-20750211Y7880643D01*
X-20750208Y7880645D01*
X-20745700Y7883802D01*
X-20583802Y8045700D01*
X-20580643Y8050211D01*
X-20577108Y8054424D01*
X-20576140Y8053612D01*
X-20525506Y8094090D01*
X-20454887Y8101404D01*
X-20391524Y8069376D01*
X-20355536Y8008177D01*
X-20352480Y7991099D01*
X-20352105Y7987648D01*
X-20348479Y7972396D01*
X-20303324Y7851946D01*
X-20294786Y7836351D01*
X-20218285Y7734276D01*
X-20205724Y7721715D01*
X-20103649Y7645214D01*
X-20088054Y7636676D01*
X-19967606Y7591522D01*
X-19952351Y7587895D01*
X-19901486Y7582369D01*
X-19894672Y7582000D01*
X-19322115Y7582000D01*
X-19306876Y7586475D01*
X-19305671Y7587865D01*
X-19304000Y7595548D01*
X-19304000Y7600116D01*
X-18796000Y7600116D01*
X-18791525Y7584877D01*
X-18790135Y7583672D01*
X-18782452Y7582001D01*
X-18205331Y7582001D01*
X-18198510Y7582371D01*
X-18147648Y7587895D01*
X-18132396Y7591521D01*
X-18011946Y7636676D01*
X-17996351Y7645214D01*
X-17894276Y7721715D01*
X-17881715Y7734276D01*
X-17805214Y7836351D01*
X-17796676Y7851946D01*
X-17751522Y7972394D01*
X-17747896Y7987643D01*
X-17747521Y7991096D01*
X-17746478Y7993606D01*
X-17746068Y7995331D01*
X-17745789Y7995265D01*
X-17720281Y8056659D01*
X-17661920Y8097088D01*
X-17590966Y8099546D01*
X-17529946Y8063253D01*
X-17520656Y8051760D01*
X-17519359Y8050214D01*
X-17516198Y8045700D01*
X-17354300Y7883802D01*
X-17349792Y7880645D01*
X-17349789Y7880643D01*
X-17308805Y7851946D01*
X-17166749Y7752477D01*
X-17161767Y7750154D01*
X-17161762Y7750151D01*
X-16964225Y7658039D01*
X-16959243Y7655716D01*
X-16953935Y7654294D01*
X-16953933Y7654293D01*
X-16743402Y7597881D01*
X-16743400Y7597881D01*
X-16738087Y7596457D01*
X-16510000Y7576502D01*
X-16281913Y7596457D01*
X-16276600Y7597881D01*
X-16276598Y7597881D01*
X-16066067Y7654293D01*
X-16066065Y7654294D01*
X-16060757Y7655716D01*
X-16055775Y7658039D01*
X-15858238Y7750151D01*
X-15858233Y7750154D01*
X-15853251Y7752477D01*
X-15711195Y7851946D01*
X-15670211Y7880643D01*
X-15670208Y7880645D01*
X-15665700Y7883802D01*
X-15503802Y8045700D01*
X-15499558Y8051760D01*
X-15428318Y8153502D01*
X-15372477Y8233251D01*
X-15370154Y8238233D01*
X-15370151Y8238238D01*
X-15354195Y8272457D01*
X-15307278Y8325742D01*
X-15239001Y8345203D01*
X-15171041Y8324661D01*
X-15125805Y8272457D01*
X-15109849Y8238238D01*
X-15109846Y8238233D01*
X-15107523Y8233251D01*
X-15051682Y8153502D01*
X-14980441Y8051760D01*
X-14976198Y8045700D01*
X-14814300Y7883802D01*
X-14809792Y7880645D01*
X-14809789Y7880643D01*
X-14768805Y7851946D01*
X-14626749Y7752477D01*
X-14621767Y7750154D01*
X-14621762Y7750151D01*
X-14424225Y7658039D01*
X-14419243Y7655716D01*
X-14413935Y7654294D01*
X-14413933Y7654293D01*
X-14203402Y7597881D01*
X-14203400Y7597881D01*
X-14198087Y7596457D01*
X-13970000Y7576502D01*
X-13741913Y7596457D01*
X-13736600Y7597881D01*
X-13736598Y7597881D01*
X-13526067Y7654293D01*
X-13526065Y7654294D01*
X-13520757Y7655716D01*
X-13515775Y7658039D01*
X-13318238Y7750151D01*
X-13318233Y7750154D01*
X-13313251Y7752477D01*
X-13171195Y7851946D01*
X-13130211Y7880643D01*
X-13130208Y7880645D01*
X-13125700Y7883802D01*
X-12963802Y8045700D01*
X-12959558Y8051760D01*
X-12888318Y8153502D01*
X-12832477Y8233251D01*
X-12830154Y8238233D01*
X-12830151Y8238238D01*
X-12814195Y8272457D01*
X-12767278Y8325742D01*
X-12699001Y8345203D01*
X-12631041Y8324661D01*
X-12585805Y8272457D01*
X-12569849Y8238238D01*
X-12569846Y8238233D01*
X-12567523Y8233251D01*
X-12511682Y8153502D01*
X-12440441Y8051760D01*
X-12436198Y8045700D01*
X-12274300Y7883802D01*
X-12269792Y7880645D01*
X-12269789Y7880643D01*
X-12228805Y7851946D01*
X-12086749Y7752477D01*
X-12081767Y7750154D01*
X-12081762Y7750151D01*
X-11884225Y7658039D01*
X-11879243Y7655716D01*
X-11873935Y7654294D01*
X-11873933Y7654293D01*
X-11663402Y7597881D01*
X-11663400Y7597881D01*
X-11658087Y7596457D01*
X-11430000Y7576502D01*
X-11201913Y7596457D01*
X-11196600Y7597881D01*
X-11196598Y7597881D01*
X-11110574Y7620931D01*
X-11039597Y7619241D01*
X-10988868Y7588319D01*
X-10834315Y7433766D01*
X-10823448Y7421375D01*
X-10803987Y7396013D01*
X-10779867Y7377505D01*
X-10772087Y7371535D01*
X-10772072Y7371523D01*
X-10758338Y7360985D01*
X-10752166Y7356249D01*
X-10676875Y7298476D01*
X-10528850Y7237162D01*
X-10409885Y7221500D01*
X-10409880Y7221500D01*
X-10409871Y7221499D01*
X-10378188Y7217328D01*
X-10370000Y7216250D01*
X-10338307Y7220422D01*
X-10321864Y7221500D01*
X-9599937Y7221500D01*
X-9531816Y7201498D01*
X-9510842Y7184595D01*
X-7830041Y5503793D01*
X-7819172Y5491401D01*
X-7799707Y5466033D01*
X-7767795Y5441546D01*
X-7767792Y5441543D01*
X-7704318Y5392838D01*
X-7672595Y5368496D01*
X-7524570Y5307182D01*
X-7405605Y5291520D01*
X-7405601Y5291520D01*
X-7405593Y5291519D01*
X-7373910Y5287348D01*
X-7373909Y5287348D01*
X-7365721Y5286270D01*
X-7334028Y5290442D01*
X-7317585Y5291520D01*
X8495741Y5291520D01*
X8563862Y5271518D01*
X8584836Y5254615D01*
X14835685Y-996234D01*
X14846552Y-1008625D01*
X14866013Y-1033987D01*
X14872563Y-1039013D01*
X14897921Y-1058471D01*
X14897928Y-1058477D01*
X14940965Y-1091500D01*
X14993125Y-1131524D01*
X15141150Y-1192838D01*
X15260115Y-1208500D01*
X15260120Y-1208500D01*
X15260129Y-1208501D01*
X15291812Y-1212672D01*
X15300000Y-1213750D01*
X15331693Y-1209578D01*
X15348136Y-1208500D01*
X16469290Y-1208500D01*
X16537411Y-1228502D01*
X16562926Y-1250189D01*
X16588747Y-1278866D01*
X16743248Y-1391118D01*
X16749276Y-1393802D01*
X16749278Y-1393803D01*
X16904824Y-1463056D01*
X16917712Y-1468794D01*
X17011113Y-1488647D01*
X17098056Y-1507128D01*
X17098061Y-1507128D01*
X17104513Y-1508500D01*
X17295487Y-1508500D01*
X17301939Y-1507128D01*
X17301944Y-1507128D01*
X17388887Y-1488647D01*
X17482288Y-1468794D01*
X17495176Y-1463056D01*
X17650722Y-1393803D01*
X17650724Y-1393802D01*
X17656752Y-1391118D01*
X17811253Y-1278866D01*
X17876353Y-1206565D01*
X17934621Y-1141852D01*
X17934622Y-1141851D01*
X17939040Y-1136944D01*
X18034527Y-971556D01*
X18093542Y-789928D01*
X18103393Y-696206D01*
X18112814Y-606565D01*
X18113504Y-600000D01*
X18097442Y-447179D01*
X18094232Y-416635D01*
X18094232Y-416633D01*
X18093542Y-410072D01*
X18034527Y-228444D01*
X18006847Y-180500D01*
X17997314Y-163990D01*
X17939040Y-63056D01*
X17920025Y-41937D01*
X17815675Y73955D01*
X17815674Y73956D01*
X17811253Y78866D01*
X17680375Y173955D01*
X17662094Y187237D01*
X17662093Y187238D01*
X17656752Y191118D01*
X17650724Y193802D01*
X17650722Y193803D01*
X17488319Y266109D01*
X17488318Y266109D01*
X17482288Y268794D01*
X17388888Y288647D01*
X17301944Y307128D01*
X17301939Y307128D01*
X17295487Y308500D01*
X17104513Y308500D01*
X17098061Y307128D01*
X17098056Y307128D01*
X17011112Y288647D01*
X16917712Y268794D01*
X16911682Y266109D01*
X16911681Y266109D01*
X16749278Y193803D01*
X16749276Y193802D01*
X16743248Y191118D01*
X16737907Y187238D01*
X16737906Y187237D01*
X16661224Y131524D01*
X16588747Y78866D01*
X16584334Y73964D01*
X16584332Y73963D01*
X16562926Y50189D01*
X16502480Y12950D01*
X16469290Y8500D01*
X15604239Y8500D01*
X15536118Y28502D01*
X15515144Y45405D01*
X13099759Y2460790D01*
X13065733Y2523102D01*
X13070798Y2593917D01*
X13095218Y2634195D01*
X13196047Y2746177D01*
X13196048Y2746178D01*
X13200466Y2751085D01*
X13295953Y2916473D01*
X13354968Y3098101D01*
X13374930Y3288029D01*
X13374240Y3294594D01*
X13355658Y3471394D01*
X13355658Y3471396D01*
X13354968Y3477957D01*
X13295953Y3659585D01*
X13279894Y3687401D01*
X13236131Y3763199D01*
X13200466Y3824973D01*
X13072679Y3966895D01*
X12918178Y4079147D01*
X12912150Y4081831D01*
X12912148Y4081832D01*
X12749745Y4154138D01*
X12749744Y4154138D01*
X12743714Y4156823D01*
X12645280Y4177746D01*
X12563370Y4195157D01*
X12563365Y4195157D01*
X12556913Y4196529D01*
X12365939Y4196529D01*
X12359487Y4195157D01*
X12359482Y4195157D01*
X12277572Y4177746D01*
X12179138Y4156823D01*
X12173109Y4154138D01*
X12173107Y4154138D01*
X12139919Y4139361D01*
X12121602Y4131206D01*
X12113132Y4127435D01*
X12042765Y4118001D01*
X11978468Y4148107D01*
X11972788Y4153447D01*
X9429971Y6696264D01*
X9419104Y6708655D01*
X9404669Y6727467D01*
X9399643Y6734017D01*
X9367731Y6758504D01*
X9367728Y6758507D01*
X9272532Y6831554D01*
X9124507Y6892868D01*
X9116320Y6893946D01*
X9116319Y6893946D01*
X9105114Y6895421D01*
X9073918Y6899528D01*
X9005541Y6908530D01*
X9005538Y6908530D01*
X9005530Y6908531D01*
X8973845Y6912702D01*
X8965656Y6913780D01*
X8933963Y6909608D01*
X8917520Y6908530D01*
X-6895791Y6908530D01*
X-6963912Y6928532D01*
X-6984886Y6945435D01*
X-7437668Y7398217D01*
X-7471694Y7460529D01*
X-7466629Y7531344D01*
X-7424082Y7588180D01*
X-7357562Y7612991D01*
X-7304343Y7605294D01*
X-7267606Y7591522D01*
X-7252351Y7587895D01*
X-7201486Y7582369D01*
X-7194672Y7582000D01*
X-6622115Y7582000D01*
X-6606876Y7586475D01*
X-6605671Y7587865D01*
X-6604000Y7595548D01*
X-6604000Y10288000D01*
X-6583998Y10356121D01*
X-6530342Y10402614D01*
X-6478000Y10414000D01*
X-6222000Y10414000D01*
X-6153879Y10393998D01*
X-6107386Y10340342D01*
X-6096000Y10288000D01*
X-6096000Y7600116D01*
X-6091525Y7584877D01*
X-6090135Y7583672D01*
X-6082452Y7582001D01*
X-5505331Y7582001D01*
X-5498510Y7582371D01*
X-5447648Y7587895D01*
X-5432396Y7591521D01*
X-5311946Y7636676D01*
X-5296351Y7645214D01*
X-5194276Y7721715D01*
X-5181715Y7734276D01*
X-5105214Y7836351D01*
X-5096676Y7851946D01*
X-5051522Y7972394D01*
X-5047896Y7987643D01*
X-5047521Y7991096D01*
X-5046478Y7993606D01*
X-5046068Y7995331D01*
X-5045789Y7995265D01*
X-5020281Y8056659D01*
X-4961920Y8097088D01*
X-4890966Y8099546D01*
X-4829946Y8063253D01*
X-4820656Y8051760D01*
X-4819359Y8050214D01*
X-4816198Y8045700D01*
X-4654300Y7883802D01*
X-4649792Y7880645D01*
X-4649789Y7880643D01*
X-4608805Y7851946D01*
X-4466749Y7752477D01*
X-4461767Y7750154D01*
X-4461762Y7750151D01*
X-4264225Y7658039D01*
X-4259243Y7655716D01*
X-4253935Y7654294D01*
X-4253933Y7654293D01*
X-4043402Y7597881D01*
X-4043400Y7597881D01*
X-4038087Y7596457D01*
X-3810000Y7576502D01*
X-3581913Y7596457D01*
X-3576600Y7597881D01*
X-3576598Y7597881D01*
X-3366067Y7654293D01*
X-3366065Y7654294D01*
X-3360757Y7655716D01*
X-3355775Y7658039D01*
X-3158238Y7750151D01*
X-3158233Y7750154D01*
X-3153251Y7752477D01*
X-3011195Y7851946D01*
X-2970211Y7880643D01*
X-2970208Y7880645D01*
X-2965700Y7883802D01*
X-2803802Y8045700D01*
X-2799558Y8051760D01*
X-2728318Y8153502D01*
X-2672477Y8233251D01*
X-2670154Y8238233D01*
X-2670151Y8238238D01*
X-2654195Y8272457D01*
X-2607278Y8325742D01*
X-2539001Y8345203D01*
X-2471041Y8324661D01*
X-2425805Y8272457D01*
X-2409849Y8238238D01*
X-2409846Y8238233D01*
X-2407523Y8233251D01*
X-2351682Y8153502D01*
X-2280441Y8051760D01*
X-2276198Y8045700D01*
X-2114300Y7883802D01*
X-2109792Y7880645D01*
X-2109789Y7880643D01*
X-2068805Y7851946D01*
X-1926749Y7752477D01*
X-1921767Y7750154D01*
X-1921762Y7750151D01*
X-1724225Y7658039D01*
X-1719243Y7655716D01*
X-1713935Y7654294D01*
X-1713933Y7654293D01*
X-1503402Y7597881D01*
X-1503400Y7597881D01*
X-1498087Y7596457D01*
X-1270000Y7576502D01*
X-1041913Y7596457D01*
X-1036600Y7597881D01*
X-1036598Y7597881D01*
X-826067Y7654293D01*
X-826065Y7654294D01*
X-820757Y7655716D01*
X-815775Y7658039D01*
X-618238Y7750151D01*
X-618233Y7750154D01*
X-613251Y7752477D01*
X-471195Y7851946D01*
X-430211Y7880643D01*
X-430208Y7880645D01*
X-425700Y7883802D01*
X-263802Y8045700D01*
X-259558Y8051760D01*
X-188318Y8153502D01*
X-132477Y8233251D01*
X-130154Y8238233D01*
X-130151Y8238238D01*
X-114195Y8272457D01*
X-67278Y8325742D01*
X999Y8345203D01*
X68959Y8324661D01*
X114195Y8272457D01*
X130151Y8238238D01*
X130154Y8238233D01*
X132477Y8233251D01*
X188318Y8153502D01*
X259559Y8051760D01*
X263802Y8045700D01*
X425700Y7883802D01*
X430208Y7880645D01*
X430211Y7880643D01*
X471195Y7851946D01*
X613251Y7752477D01*
X618233Y7750154D01*
X618238Y7750151D01*
X815775Y7658039D01*
X820757Y7655716D01*
X826065Y7654294D01*
X826067Y7654293D01*
X1036598Y7597881D01*
X1036600Y7597881D01*
X1041913Y7596457D01*
X1270000Y7576502D01*
X1498087Y7596457D01*
X1503400Y7597881D01*
X1503402Y7597881D01*
X1713933Y7654293D01*
X1713935Y7654294D01*
X1719243Y7655716D01*
X1724225Y7658039D01*
X1921762Y7750151D01*
X1921767Y7750154D01*
X1926749Y7752477D01*
X2068805Y7851946D01*
X2109789Y7880643D01*
X2109792Y7880645D01*
X2114300Y7883802D01*
X2276198Y8045700D01*
X2280442Y8051760D01*
X2351682Y8153502D01*
X2407523Y8233251D01*
X2409846Y8238233D01*
X2409849Y8238238D01*
X2425805Y8272457D01*
X2472722Y8325742D01*
X2540999Y8345203D01*
X2608959Y8324661D01*
X2654195Y8272457D01*
X2670151Y8238238D01*
X2670154Y8238233D01*
X2672477Y8233251D01*
X2728318Y8153502D01*
X2799559Y8051760D01*
X2803802Y8045700D01*
X2965700Y7883802D01*
X2970208Y7880645D01*
X2970211Y7880643D01*
X3011195Y7851946D01*
X3153251Y7752477D01*
X3158233Y7750154D01*
X3158238Y7750151D01*
X3355775Y7658039D01*
X3360757Y7655716D01*
X3366065Y7654294D01*
X3366067Y7654293D01*
X3576598Y7597881D01*
X3576600Y7597881D01*
X3581913Y7596457D01*
X3810000Y7576502D01*
X4038087Y7596457D01*
X4043400Y7597881D01*
X4043402Y7597881D01*
X4253933Y7654293D01*
X4253935Y7654294D01*
X4259243Y7655716D01*
X4264225Y7658039D01*
X4461762Y7750151D01*
X4461767Y7750154D01*
X4466749Y7752477D01*
X4608805Y7851946D01*
X4649789Y7880643D01*
X4649792Y7880645D01*
X4654300Y7883802D01*
X4816198Y8045700D01*
X4818829Y8049458D01*
X4840814Y8069957D01*
X4848616Y8075626D01*
X4915486Y8099480D01*
X4984636Y8083395D01*
X5034113Y8032478D01*
X5045514Y7995200D01*
X5046068Y7995332D01*
X5051521Y7972396D01*
X5096676Y7851946D01*
X5105214Y7836351D01*
X5181715Y7734276D01*
X5194276Y7721715D01*
X5296351Y7645214D01*
X5311946Y7636676D01*
X5432394Y7591522D01*
X5447649Y7587895D01*
X5498514Y7582369D01*
X5505328Y7582000D01*
X6077885Y7582000D01*
X6093124Y7586475D01*
X6094329Y7587865D01*
X6096000Y7595548D01*
X6096000Y10288000D01*
X6116002Y10356121D01*
X6169658Y10402614D01*
X6222000Y10414000D01*
X6478000Y10414000D01*
X6546121Y10393998D01*
X6592614Y10340342D01*
X6604000Y10288000D01*
X6604000Y7600116D01*
X6608475Y7584877D01*
X6609865Y7583672D01*
X6617548Y7582001D01*
X7194669Y7582001D01*
X7201490Y7582371D01*
X7252352Y7587895D01*
X7267604Y7591521D01*
X7388054Y7636676D01*
X7403649Y7645214D01*
X7505724Y7721715D01*
X7518285Y7734276D01*
X7594786Y7836351D01*
X7603324Y7851946D01*
X7648478Y7972394D01*
X7652104Y7987643D01*
X7652479Y7991096D01*
X7653522Y7993606D01*
X7653932Y7995331D01*
X7654211Y7995265D01*
X7679719Y8056659D01*
X7738080Y8097088D01*
X7809034Y8099546D01*
X7870054Y8063253D01*
X7879344Y8051760D01*
X7880641Y8050214D01*
X7883802Y8045700D01*
X8045700Y7883802D01*
X8050208Y7880645D01*
X8050211Y7880643D01*
X8091195Y7851946D01*
X8233251Y7752477D01*
X8238233Y7750154D01*
X8238238Y7750151D01*
X8435775Y7658039D01*
X8440757Y7655716D01*
X8446065Y7654294D01*
X8446067Y7654293D01*
X8656598Y7597881D01*
X8656600Y7597881D01*
X8661913Y7596457D01*
X8890000Y7576502D01*
X9118087Y7596457D01*
X9123400Y7597881D01*
X9123402Y7597881D01*
X9333933Y7654293D01*
X9333935Y7654294D01*
X9339243Y7655716D01*
X9344225Y7658039D01*
X9541762Y7750151D01*
X9541767Y7750154D01*
X9546749Y7752477D01*
X9688805Y7851946D01*
X9729789Y7880643D01*
X9729792Y7880645D01*
X9734300Y7883802D01*
X9896198Y8045700D01*
X9900442Y8051760D01*
X9971682Y8153502D01*
X10027523Y8233251D01*
X10029846Y8238233D01*
X10029849Y8238238D01*
X10045805Y8272457D01*
X10092722Y8325742D01*
X10160999Y8345203D01*
X10228959Y8324661D01*
X10274195Y8272457D01*
X10290151Y8238238D01*
X10290154Y8238233D01*
X10292477Y8233251D01*
X10348318Y8153502D01*
X10419559Y8051760D01*
X10423802Y8045700D01*
X10585700Y7883802D01*
X10590208Y7880645D01*
X10590211Y7880643D01*
X10631195Y7851946D01*
X10773251Y7752477D01*
X10778233Y7750154D01*
X10778238Y7750151D01*
X10975775Y7658039D01*
X10980757Y7655716D01*
X10986065Y7654294D01*
X10986067Y7654293D01*
X11196598Y7597881D01*
X11196600Y7597881D01*
X11201913Y7596457D01*
X11430000Y7576502D01*
X11658087Y7596457D01*
X11663400Y7597881D01*
X11663402Y7597881D01*
X11873933Y7654293D01*
X11873935Y7654294D01*
X11879243Y7655716D01*
X11884225Y7658039D01*
X12081762Y7750151D01*
X12081767Y7750154D01*
X12086749Y7752477D01*
X12228805Y7851946D01*
X12269789Y7880643D01*
X12269792Y7880645D01*
X12274300Y7883802D01*
X12436198Y8045700D01*
X12440442Y8051760D01*
X12511682Y8153502D01*
X12567523Y8233251D01*
X12569846Y8238233D01*
X12569849Y8238238D01*
X12585805Y8272457D01*
X12632722Y8325742D01*
X12700999Y8345203D01*
X12768959Y8324661D01*
X12814195Y8272457D01*
X12830151Y8238238D01*
X12830154Y8238233D01*
X12832477Y8233251D01*
X12888318Y8153502D01*
X12959559Y8051760D01*
X12963802Y8045700D01*
X13125700Y7883802D01*
X13130208Y7880645D01*
X13130211Y7880643D01*
X13171195Y7851946D01*
X13313251Y7752477D01*
X13318233Y7750154D01*
X13318238Y7750151D01*
X13515775Y7658039D01*
X13520757Y7655716D01*
X13526065Y7654294D01*
X13526067Y7654293D01*
X13736598Y7597881D01*
X13736600Y7597881D01*
X13741913Y7596457D01*
X13970000Y7576502D01*
X14198087Y7596457D01*
X14203400Y7597881D01*
X14203402Y7597881D01*
X14413933Y7654293D01*
X14413935Y7654294D01*
X14419243Y7655716D01*
X14424225Y7658039D01*
X14621762Y7750151D01*
X14621767Y7750154D01*
X14626749Y7752477D01*
X14768805Y7851946D01*
X14809789Y7880643D01*
X14809792Y7880645D01*
X14814300Y7883802D01*
X14976198Y8045700D01*
X14980442Y8051760D01*
X15051682Y8153502D01*
X15107523Y8233251D01*
X15109846Y8238233D01*
X15109849Y8238238D01*
X15125805Y8272457D01*
X15172722Y8325742D01*
X15240999Y8345203D01*
X15308959Y8324661D01*
X15354195Y8272457D01*
X15370151Y8238238D01*
X15370154Y8238233D01*
X15372477Y8233251D01*
X15428318Y8153502D01*
X15499559Y8051760D01*
X15503802Y8045700D01*
X15665700Y7883802D01*
X15670208Y7880645D01*
X15670211Y7880643D01*
X15711195Y7851946D01*
X15853251Y7752477D01*
X15858233Y7750154D01*
X15858238Y7750151D01*
X16055775Y7658039D01*
X16060757Y7655716D01*
X16066065Y7654294D01*
X16066067Y7654293D01*
X16276598Y7597881D01*
X16276600Y7597881D01*
X16281913Y7596457D01*
X16510000Y7576502D01*
X16738087Y7596457D01*
X16743400Y7597881D01*
X16743402Y7597881D01*
X16953933Y7654293D01*
X16953935Y7654294D01*
X16959243Y7655716D01*
X16964225Y7658039D01*
X17161762Y7750151D01*
X17161767Y7750154D01*
X17166749Y7752477D01*
X17308805Y7851946D01*
X17349789Y7880643D01*
X17349792Y7880645D01*
X17354300Y7883802D01*
X17516198Y8045700D01*
X17519357Y8050211D01*
X17522892Y8054424D01*
X17523860Y8053612D01*
X17574494Y8094090D01*
X17645113Y8101404D01*
X17708476Y8069376D01*
X17744464Y8008177D01*
X17747520Y7991099D01*
X17747895Y7987648D01*
X17751521Y7972396D01*
X17796676Y7851946D01*
X17805214Y7836351D01*
X17881715Y7734276D01*
X17894276Y7721715D01*
X17996351Y7645214D01*
X18011946Y7636676D01*
X18132394Y7591522D01*
X18147649Y7587895D01*
X18198514Y7582369D01*
X18205328Y7582000D01*
X18777885Y7582000D01*
X18793124Y7586475D01*
X18794329Y7587865D01*
X18796000Y7595548D01*
X18796000Y11649884D01*
X18791525Y11665123D01*
X18790135Y11666328D01*
X18782452Y11667999D01*
X18442809Y11667999D01*
X18374688Y11688001D01*
X18328195Y11741657D01*
X18318091Y11811931D01*
X18347585Y11876511D01*
X18407311Y11914895D01*
X18416612Y11917246D01*
X18422865Y11918575D01*
X18482288Y11931206D01*
X18509728Y11943423D01*
X18650722Y12006197D01*
X18650724Y12006198D01*
X18656752Y12008882D01*
X18811253Y12121134D01*
X18847768Y12161688D01*
X18934621Y12258148D01*
X18934622Y12258149D01*
X18939040Y12263056D01*
X19021657Y12406152D01*
X19031223Y12422721D01*
X19031224Y12422722D01*
X19034527Y12428444D01*
X19093542Y12610072D01*
X19095047Y12624385D01*
X19112814Y12793435D01*
X19113504Y12800000D01*
X19101179Y12917266D01*
X19094232Y12983365D01*
X19094232Y12983367D01*
X19093542Y12989928D01*
X19034527Y13171556D01*
X18939040Y13336944D01*
X18811253Y13478866D01*
X18656752Y13591118D01*
X18650724Y13593802D01*
X18650722Y13593803D01*
X18488319Y13666109D01*
X18488318Y13666109D01*
X18482288Y13668794D01*
X18388887Y13688647D01*
X18301944Y13707128D01*
X18301939Y13707128D01*
X18295487Y13708500D01*
X18104513Y13708500D01*
X18098061Y13707128D01*
X18098056Y13707128D01*
X18011113Y13688647D01*
X17917712Y13668794D01*
X17911682Y13666109D01*
X17911681Y13666109D01*
X17749278Y13593803D01*
X17749276Y13593802D01*
X17743248Y13591118D01*
X17588747Y13478866D01*
X17584326Y13473956D01*
X17584325Y13473955D01*
X17540417Y13425190D01*
X17479971Y13387950D01*
X17446781Y13383500D01*
X16905340Y13383500D01*
X16837219Y13403502D01*
X16790726Y13457158D01*
X16780622Y13527432D01*
X16784782Y13546129D01*
X16810865Y13631978D01*
X16812370Y13636931D01*
X16841529Y13858410D01*
X16841611Y13861760D01*
X16843074Y13921635D01*
X16843074Y13921639D01*
X16843156Y13925000D01*
X16824852Y14147639D01*
X16770431Y14364298D01*
X16681354Y14569160D01*
X16560014Y14756723D01*
X16409670Y14921949D01*
X16405619Y14925148D01*
X16405615Y14925152D01*
X16238414Y15057200D01*
X16238410Y15057202D01*
X16234359Y15060402D01*
X16192569Y15083471D01*
X16142598Y15133903D01*
X16127826Y15203346D01*
X16152942Y15269752D01*
X16180294Y15296359D01*
X16355328Y15421208D01*
X16363200Y15427861D01*
X16514052Y15578188D01*
X16520730Y15586035D01*
X16645003Y15758980D01*
X16650313Y15767817D01*
X16744670Y15958733D01*
X16748469Y15968328D01*
X16810377Y16172090D01*
X16812555Y16182163D01*
X16813986Y16193038D01*
X16811775Y16207222D01*
X16798617Y16211000D01*
X-16316775Y16211000D01*
X-16330306Y16207027D01*
X-16331743Y16197034D01*
X-16301435Y16062554D01*
X-16298355Y16052725D01*
X-16218230Y15855397D01*
X-16213587Y15846206D01*
X-16102306Y15664612D01*
X-16096223Y15656301D01*
X-15956787Y15495333D01*
X-15949423Y15488121D01*
X-15944478Y15484015D01*
X-15904844Y15425111D01*
X-15903347Y15354130D01*
X-15940463Y15293608D01*
X-15980736Y15269090D01*
X-16088295Y15228768D01*
X-16088296Y15228767D01*
X-16096705Y15225615D01*
X-16213261Y15138261D01*
X-16300615Y15021705D01*
X-16351745Y14885316D01*
X-16358500Y14823134D01*
X-16358500Y13026866D01*
X-16351745Y12964684D01*
X-16300615Y12828295D01*
X-16213261Y12711739D01*
X-16096705Y12624385D01*
X-15960316Y12573255D01*
X-15898134Y12566500D01*
X-14766371Y12566500D01*
X-14698250Y12546498D01*
X-14677276Y12529595D01*
X-14283770Y12136089D01*
X-14271384Y12121677D01*
X-14262851Y12110082D01*
X-14262846Y12110077D01*
X-14258508Y12104182D01*
X-14252930Y12099443D01*
X-14252927Y12099440D01*
X-14218232Y12069965D01*
X-14210716Y12063035D01*
X-14205020Y12057339D01*
X-14202159Y12055076D01*
X-14202154Y12055071D01*
X-14182744Y12039715D01*
X-14179342Y12036926D01*
X-14150900Y12012763D01*
X-14123715Y11989667D01*
X-14117198Y11986339D01*
X-14112150Y11982973D01*
X-14107028Y11979810D01*
X-14101284Y11975265D01*
X-14035105Y11944336D01*
X-14031221Y11942437D01*
X-13966192Y11909231D01*
X-13966191Y11909231D01*
X-13966774Y11908089D01*
X-13915932Y11870102D01*
X-13891060Y11803605D01*
X-13906088Y11734217D01*
X-13956244Y11683968D01*
X-14016731Y11668500D01*
X-14780134Y11668500D01*
X-14842316Y11661745D01*
X-14978705Y11610615D01*
X-15095261Y11523261D01*
X-15100641Y11516082D01*
X-15100642Y11516081D01*
X-15139174Y11464668D01*
X-15196033Y11422153D01*
X-15266852Y11417127D01*
X-15329145Y11451187D01*
X-15340826Y11464668D01*
X-15379358Y11516081D01*
X-15379359Y11516082D01*
X-15384739Y11523261D01*
X-15501295Y11610615D01*
X-15637684Y11661745D01*
X-15699866Y11668500D01*
X-17320134Y11668500D01*
X-17382316Y11661745D01*
X-17518705Y11610615D01*
X-17635261Y11523261D01*
X-17679487Y11464251D01*
X-17736344Y11421736D01*
X-17807163Y11416710D01*
X-17869456Y11450770D01*
X-17881138Y11464251D01*
X-17919715Y11515724D01*
X-17932276Y11528285D01*
X-18034351Y11604786D01*
X-18049946Y11613324D01*
X-18170394Y11658478D01*
X-18185649Y11662105D01*
X-18236514Y11667631D01*
X-18243328Y11668000D01*
X-18777885Y11668000D01*
X-18793124Y11663525D01*
X-18794329Y11662135D01*
X-18796000Y11654452D01*
X-18796000Y7600116D01*
X-19304000Y7600116D01*
X-19304000Y11649884D01*
X-19308475Y11665123D01*
X-19309865Y11666328D01*
X-19317548Y11667999D01*
X-19856669Y11667999D01*
X-19863490Y11667629D01*
X-19914352Y11662105D01*
X-19929604Y11658479D01*
X-20050054Y11613324D01*
X-20065649Y11604786D01*
X-20167724Y11528285D01*
X-20180285Y11515724D01*
X-20218862Y11464251D01*
X-20275721Y11421736D01*
X-20346540Y11416710D01*
X-20408833Y11450770D01*
X-20420509Y11464245D01*
X-20464739Y11523261D01*
X-20581295Y11610615D01*
X-20717684Y11661745D01*
X-20779866Y11668500D01*
X-21510634Y11668500D01*
X-21578755Y11688502D01*
X-21625248Y11742158D01*
X-21635352Y11812432D01*
X-21605858Y11877012D01*
X-21562887Y11909154D01*
X-21418536Y11974939D01*
X-21415599Y11976683D01*
X-21415593Y11976686D01*
X-21104016Y12161688D01*
X-21101082Y12163430D01*
X-20805841Y12385103D01*
X-20536267Y12637365D01*
X-20534055Y12639937D01*
X-20534048Y12639944D01*
X-20297741Y12914678D01*
X-20295515Y12917266D01*
X-20116812Y13177279D01*
X-20088329Y13218721D01*
X-20088324Y13218729D01*
X-20086399Y13221530D01*
X-20084787Y13224524D01*
X-20084782Y13224532D01*
X-19912989Y13543588D01*
X-19911367Y13546600D01*
X-19786102Y13855092D01*
X-19773747Y13885518D01*
X-19773745Y13885523D01*
X-19772467Y13888671D01*
X-19761884Y13925821D01*
X-19672256Y14240465D01*
X-19671322Y14243743D01*
X-19609116Y14607661D01*
X-19606942Y14643191D01*
X-19588332Y14947470D01*
X-19586577Y14976169D01*
X-19586494Y15000000D01*
X-19606460Y15368656D01*
X-19666123Y15733000D01*
X-19764787Y16088770D01*
X-19801952Y16182163D01*
X-19900036Y16428637D01*
X-19900040Y16428645D01*
X-19901296Y16431802D01*
X-19907018Y16442610D01*
X-20019944Y16655890D01*
X-20074054Y16758086D01*
X-20075954Y16760892D01*
X-20075958Y16760899D01*
X-20279134Y17060989D01*
X-20279141Y17060998D01*
X-20281040Y17063803D01*
X-20467785Y17284005D01*
X-20496590Y17348895D01*
X-20485740Y17419057D01*
X-20438679Y17472216D01*
X-20371689Y17491500D01*
X-16182203Y17491500D01*
X-16114082Y17471498D01*
G37*
G04 #@! TD.AperFunction*
G04 #@! TA.AperFunction,Conductor*
G36*
X-25282988Y8248726D02*
G01*
X-25262287Y8225773D01*
X-25140441Y8051760D01*
X-25136198Y8045700D01*
X-24974300Y7883802D01*
X-24969792Y7880645D01*
X-24969789Y7880643D01*
X-24928805Y7851946D01*
X-24786749Y7752477D01*
X-24781767Y7750154D01*
X-24781762Y7750151D01*
X-24584225Y7658039D01*
X-24579243Y7655716D01*
X-24573935Y7654294D01*
X-24573933Y7654293D01*
X-24363402Y7597881D01*
X-24363400Y7597881D01*
X-24358087Y7596457D01*
X-24130000Y7576502D01*
X-23901913Y7596457D01*
X-23896602Y7597880D01*
X-23896591Y7597882D01*
X-23857534Y7608348D01*
X-23786558Y7606659D01*
X-23724960Y7563346D01*
X-23703987Y7536013D01*
X-23697432Y7530983D01*
X-23678621Y7516548D01*
X-23666230Y7505681D01*
X-17245405Y1084856D01*
X-17211379Y1022544D01*
X-17208500Y995761D01*
X-17208500Y-3697400D01*
X-17228502Y-3765521D01*
X-17245400Y-3786490D01*
X-18201252Y-4742343D01*
X-18745773Y-5286864D01*
X-18758157Y-5297724D01*
X-18783519Y-5317185D01*
X-18808006Y-5349097D01*
X-18808009Y-5349100D01*
X-18808015Y-5349108D01*
X-18856141Y-5411827D01*
X-18881056Y-5444296D01*
X-18932768Y-5569140D01*
X-18942370Y-5592322D01*
X-18958032Y-5711287D01*
X-18958032Y-5711292D01*
X-18963282Y-5751172D01*
X-18962204Y-5759360D01*
X-18959110Y-5782862D01*
X-18958032Y-5799308D01*
X-18958032Y-6124721D01*
X-18978034Y-6192842D01*
X-18990390Y-6209024D01*
X-19039040Y-6263056D01*
X-19134527Y-6428444D01*
X-19193542Y-6610072D01*
X-19194232Y-6616633D01*
X-19194232Y-6616635D01*
X-19211560Y-6781500D01*
X-19213504Y-6800000D01*
X-19212814Y-6806565D01*
X-19210523Y-6828358D01*
X-19193542Y-6989928D01*
X-19134527Y-7171556D01*
X-19039040Y-7336944D01*
X-19034622Y-7341851D01*
X-19034621Y-7341852D01*
X-18919270Y-7469962D01*
X-18911253Y-7478866D01*
X-18847938Y-7524867D01*
X-18804585Y-7581088D01*
X-18796000Y-7626802D01*
X-18796000Y-10288000D01*
X-18816002Y-10356121D01*
X-18869658Y-10402614D01*
X-18922000Y-10414000D01*
X-19178000Y-10414000D01*
X-19246121Y-10393998D01*
X-19292614Y-10340342D01*
X-19304000Y-10288000D01*
X-19304000Y-7600116D01*
X-19308475Y-7584877D01*
X-19309865Y-7583672D01*
X-19317548Y-7582001D01*
X-19894676Y-7582001D01*
X-19898678Y-7582218D01*
X-19967782Y-7565934D01*
X-20017112Y-7514875D01*
X-20031501Y-7456403D01*
X-20031501Y-5856372D01*
X-20011499Y-5788251D01*
X-19994596Y-5767277D01*
X-18393669Y-4166350D01*
X-18330772Y-4132199D01*
X-18274176Y-4120169D01*
X-18274167Y-4120166D01*
X-18267712Y-4118794D01*
X-18149163Y-4066013D01*
X-18099278Y-4043803D01*
X-18099276Y-4043802D01*
X-18093248Y-4041118D01*
X-17938747Y-3928866D01*
X-17810960Y-3786944D01*
X-17729266Y-3645446D01*
X-17718777Y-3627279D01*
X-17718776Y-3627278D01*
X-17715473Y-3621556D01*
X-17656458Y-3439928D01*
X-17636496Y-3250000D01*
X-17638053Y-3235185D01*
X-17655768Y-3066635D01*
X-17655768Y-3066633D01*
X-17656458Y-3060072D01*
X-17715473Y-2878444D01*
X-17722594Y-2866109D01*
X-17768130Y-2787240D01*
X-17810960Y-2713056D01*
X-17838248Y-2682749D01*
X-17934325Y-2576045D01*
X-17934326Y-2576044D01*
X-17938747Y-2571134D01*
X-18093248Y-2458882D01*
X-18099276Y-2456198D01*
X-18099278Y-2456197D01*
X-18261681Y-2383891D01*
X-18261682Y-2383891D01*
X-18267712Y-2381206D01*
X-18361112Y-2361353D01*
X-18448056Y-2342872D01*
X-18448061Y-2342872D01*
X-18454513Y-2341500D01*
X-18645487Y-2341500D01*
X-18651939Y-2342872D01*
X-18651944Y-2342872D01*
X-18738888Y-2361353D01*
X-18832288Y-2381206D01*
X-18838318Y-2383891D01*
X-18838319Y-2383891D01*
X-19000722Y-2456197D01*
X-19000724Y-2456198D01*
X-19006752Y-2458882D01*
X-19068839Y-2503991D01*
X-19135704Y-2527848D01*
X-19204856Y-2511768D01*
X-19254336Y-2460855D01*
X-19268436Y-2391272D01*
X-19262731Y-2363118D01*
X-19208498Y-2196206D01*
X-19206458Y-2189928D01*
X-19201200Y-2139906D01*
X-19187186Y-2006565D01*
X-19186496Y-2000000D01*
X-19198819Y-1882749D01*
X-19205768Y-1816635D01*
X-19205768Y-1816633D01*
X-19206458Y-1810072D01*
X-19265473Y-1628444D01*
X-19360960Y-1463056D01*
X-19423315Y-1393803D01*
X-19484325Y-1326045D01*
X-19484326Y-1326044D01*
X-19488747Y-1321134D01*
X-19643248Y-1208882D01*
X-19649276Y-1206198D01*
X-19649278Y-1206197D01*
X-19811681Y-1133891D01*
X-19811682Y-1133891D01*
X-19817712Y-1131206D01*
X-19824167Y-1129834D01*
X-19824176Y-1129831D01*
X-19880772Y-1117801D01*
X-19943669Y-1083650D01*
X-21604595Y577276D01*
X-21638621Y639588D01*
X-21641500Y666371D01*
X-21641500Y3663001D01*
X-21624619Y3726001D01*
X-21603777Y3762099D01*
X-21594447Y3778260D01*
X-21568777Y3822721D01*
X-21568776Y3822722D01*
X-21565473Y3828444D01*
X-21506458Y4010072D01*
X-21486496Y4200000D01*
X-21487837Y4212763D01*
X-21505768Y4383365D01*
X-21505768Y4383367D01*
X-21506458Y4389928D01*
X-21565473Y4571556D01*
X-21660960Y4736944D01*
X-21788747Y4878866D01*
X-21943248Y4991118D01*
X-21949276Y4993802D01*
X-21949278Y4993803D01*
X-22111681Y5066109D01*
X-22111682Y5066109D01*
X-22117712Y5068794D01*
X-22211112Y5088647D01*
X-22298056Y5107128D01*
X-22298061Y5107128D01*
X-22304513Y5108500D01*
X-22495487Y5108500D01*
X-22501939Y5107128D01*
X-22501944Y5107128D01*
X-22588888Y5088647D01*
X-22682288Y5068794D01*
X-22688318Y5066109D01*
X-22688319Y5066109D01*
X-22850722Y4993803D01*
X-22850724Y4993802D01*
X-22856752Y4991118D01*
X-23011253Y4878866D01*
X-23139040Y4736944D01*
X-23234527Y4571556D01*
X-23293542Y4389928D01*
X-23294232Y4383367D01*
X-23294232Y4383365D01*
X-23312163Y4212763D01*
X-23313504Y4200000D01*
X-23293542Y4010072D01*
X-23234527Y3828444D01*
X-23231224Y3822722D01*
X-23231223Y3822721D01*
X-23205553Y3778260D01*
X-23196222Y3762099D01*
X-23175381Y3726001D01*
X-23158500Y3663001D01*
X-23158500Y367070D01*
X-23159933Y348120D01*
X-23163199Y326651D01*
X-23162606Y319359D01*
X-23162606Y319356D01*
X-23158915Y273982D01*
X-23158500Y263767D01*
X-23158500Y255707D01*
X-23158075Y252063D01*
X-23155211Y227493D01*
X-23154778Y223118D01*
X-23149768Y161529D01*
X-23148860Y150363D01*
X-23146604Y143399D01*
X-23145413Y137440D01*
X-23144029Y131585D01*
X-23143182Y124319D01*
X-23118265Y55673D01*
X-23116848Y51545D01*
X-23102523Y7328D01*
X-23094351Y-17899D01*
X-23090555Y-24154D01*
X-23088049Y-29628D01*
X-23085330Y-35058D01*
X-23082833Y-41937D01*
X-23078820Y-48057D01*
X-23078820Y-48058D01*
X-23042814Y-102976D01*
X-23040477Y-106680D01*
X-23002595Y-169107D01*
X-22998879Y-173315D01*
X-22998878Y-173316D01*
X-22995197Y-177484D01*
X-22995224Y-177508D01*
X-22992571Y-180500D01*
X-22989868Y-183733D01*
X-22985856Y-189852D01*
X-22980544Y-194884D01*
X-22929617Y-243128D01*
X-22927175Y-245506D01*
X-21020125Y-2152556D01*
X-20989387Y-2202714D01*
X-20934527Y-2371556D01*
X-20931224Y-2377278D01*
X-20931223Y-2377279D01*
X-20923144Y-2391272D01*
X-20839040Y-2536944D01*
X-20834622Y-2541851D01*
X-20834621Y-2541852D01*
X-20715675Y-2673955D01*
X-20711253Y-2678866D01*
X-20556752Y-2791118D01*
X-20550724Y-2793802D01*
X-20550722Y-2793803D01*
X-20404897Y-2858728D01*
X-20382288Y-2868794D01*
X-20307320Y-2884729D01*
X-20201944Y-2907128D01*
X-20201939Y-2907128D01*
X-20195487Y-2908500D01*
X-20004513Y-2908500D01*
X-19998061Y-2907128D01*
X-19998056Y-2907128D01*
X-19892680Y-2884729D01*
X-19817712Y-2868794D01*
X-19795103Y-2858728D01*
X-19649278Y-2793803D01*
X-19649276Y-2793802D01*
X-19643248Y-2791118D01*
X-19581161Y-2746009D01*
X-19514296Y-2722152D01*
X-19445144Y-2738232D01*
X-19395664Y-2789145D01*
X-19381564Y-2858728D01*
X-19387269Y-2886882D01*
X-19436679Y-3038952D01*
X-19439387Y-3047285D01*
X-19470125Y-3097444D01*
X-21278912Y-4906231D01*
X-21293324Y-4918617D01*
X-21304919Y-4927150D01*
X-21304924Y-4927155D01*
X-21310819Y-4931493D01*
X-21315558Y-4937071D01*
X-21315561Y-4937074D01*
X-21345036Y-4971769D01*
X-21351966Y-4979285D01*
X-21357661Y-4984980D01*
X-21359941Y-4987862D01*
X-21375282Y-5007252D01*
X-21378073Y-5010656D01*
X-21416514Y-5055904D01*
X-21425334Y-5066286D01*
X-21428662Y-5072802D01*
X-21432029Y-5077851D01*
X-21435196Y-5082980D01*
X-21439735Y-5088717D01*
X-21470656Y-5154876D01*
X-21472559Y-5158770D01*
X-21505770Y-5223809D01*
X-21507509Y-5230917D01*
X-21509608Y-5236560D01*
X-21511525Y-5242323D01*
X-21514623Y-5248951D01*
X-21516113Y-5256113D01*
X-21516113Y-5256114D01*
X-21529487Y-5320413D01*
X-21530457Y-5324697D01*
X-21547809Y-5395611D01*
X-21548501Y-5406765D01*
X-21548537Y-5406763D01*
X-21548776Y-5410756D01*
X-21549150Y-5414948D01*
X-21550641Y-5422116D01*
X-21550443Y-5429433D01*
X-21548547Y-5499522D01*
X-21548501Y-5502929D01*
X-21548501Y-7457413D01*
X-21568503Y-7525534D01*
X-21622159Y-7572027D01*
X-21663519Y-7582934D01*
X-21668502Y-7583370D01*
X-21818087Y-7596457D01*
X-21823400Y-7597881D01*
X-21823402Y-7597881D01*
X-22033933Y-7654293D01*
X-22033935Y-7654294D01*
X-22039243Y-7655716D01*
X-22044224Y-7658039D01*
X-22044225Y-7658039D01*
X-22241762Y-7750151D01*
X-22241767Y-7750154D01*
X-22246749Y-7752477D01*
X-22328959Y-7810041D01*
X-22429789Y-7880643D01*
X-22429792Y-7880645D01*
X-22434300Y-7883802D01*
X-22596198Y-8045700D01*
X-22599355Y-8050208D01*
X-22599357Y-8050211D01*
X-22654098Y-8128389D01*
X-22727523Y-8233251D01*
X-22729846Y-8238233D01*
X-22729849Y-8238238D01*
X-22745805Y-8272457D01*
X-22792722Y-8325742D01*
X-22860999Y-8345203D01*
X-22928959Y-8324661D01*
X-22974195Y-8272457D01*
X-22990151Y-8238238D01*
X-22990154Y-8238233D01*
X-22992477Y-8233251D01*
X-23065902Y-8128389D01*
X-23120643Y-8050211D01*
X-23120645Y-8050208D01*
X-23123802Y-8045700D01*
X-23285700Y-7883802D01*
X-23290208Y-7880645D01*
X-23290211Y-7880643D01*
X-23391041Y-7810041D01*
X-23473251Y-7752477D01*
X-23478233Y-7750154D01*
X-23478238Y-7750151D01*
X-23675775Y-7658039D01*
X-23675776Y-7658039D01*
X-23680757Y-7655716D01*
X-23686065Y-7654294D01*
X-23686067Y-7654293D01*
X-23896598Y-7597881D01*
X-23896600Y-7597881D01*
X-23901913Y-7596457D01*
X-24130000Y-7576502D01*
X-24358087Y-7596457D01*
X-24363400Y-7597881D01*
X-24363402Y-7597881D01*
X-24573933Y-7654293D01*
X-24573935Y-7654294D01*
X-24579243Y-7655716D01*
X-24584224Y-7658039D01*
X-24584225Y-7658039D01*
X-24781762Y-7750151D01*
X-24781767Y-7750154D01*
X-24786749Y-7752477D01*
X-24868959Y-7810041D01*
X-24969789Y-7880643D01*
X-24969792Y-7880645D01*
X-24974300Y-7883802D01*
X-25136198Y-8045700D01*
X-25139355Y-8050208D01*
X-25139357Y-8050211D01*
X-25262287Y-8225773D01*
X-25317744Y-8270101D01*
X-25388364Y-8277410D01*
X-25451724Y-8245379D01*
X-25487709Y-8184178D01*
X-25491500Y-8153502D01*
X-25491500Y-1769909D01*
X-25471498Y-1701788D01*
X-25417842Y-1655295D01*
X-25347568Y-1645191D01*
X-25282988Y-1674685D01*
X-25256382Y-1706907D01*
X-25239040Y-1736944D01*
X-25234622Y-1741851D01*
X-25234621Y-1741852D01*
X-25115675Y-1873955D01*
X-25111253Y-1878866D01*
X-25096132Y-1889852D01*
X-24992792Y-1964933D01*
X-24956752Y-1991118D01*
X-24950724Y-1993802D01*
X-24950722Y-1993803D01*
X-24902690Y-2015188D01*
X-24782288Y-2068794D01*
X-24688888Y-2088647D01*
X-24601944Y-2107128D01*
X-24601939Y-2107128D01*
X-24595487Y-2108500D01*
X-24404513Y-2108500D01*
X-24398061Y-2107128D01*
X-24398056Y-2107128D01*
X-24311112Y-2088647D01*
X-24217712Y-2068794D01*
X-24097310Y-2015188D01*
X-24049278Y-1993803D01*
X-24049276Y-1993802D01*
X-24043248Y-1991118D01*
X-24007207Y-1964933D01*
X-23903868Y-1889852D01*
X-23888747Y-1878866D01*
X-23884325Y-1873955D01*
X-23765379Y-1741852D01*
X-23765378Y-1741851D01*
X-23760960Y-1736944D01*
X-23665473Y-1571556D01*
X-23606458Y-1389928D01*
X-23599227Y-1321134D01*
X-23587186Y-1206565D01*
X-23586496Y-1200000D01*
X-23587581Y-1189678D01*
X-23605768Y-1016635D01*
X-23605768Y-1016633D01*
X-23606458Y-1010072D01*
X-23665473Y-828444D01*
X-23724619Y-726000D01*
X-23741500Y-663001D01*
X-23741500Y563001D01*
X-23724619Y626001D01*
X-23723477Y627978D01*
X-23665473Y728444D01*
X-23606458Y910072D01*
X-23604077Y932721D01*
X-23587186Y1093435D01*
X-23586496Y1100000D01*
X-23591560Y1148186D01*
X-23605768Y1283365D01*
X-23605768Y1283367D01*
X-23606458Y1289928D01*
X-23665473Y1471556D01*
X-23760960Y1636944D01*
X-23772562Y1649830D01*
X-23884325Y1773955D01*
X-23884326Y1773956D01*
X-23888747Y1778866D01*
X-24043248Y1891118D01*
X-24049276Y1893802D01*
X-24049278Y1893803D01*
X-24211681Y1966109D01*
X-24211682Y1966109D01*
X-24217712Y1968794D01*
X-24312143Y1988866D01*
X-24398056Y2007128D01*
X-24398061Y2007128D01*
X-24404513Y2008500D01*
X-24595487Y2008500D01*
X-24601939Y2007128D01*
X-24601944Y2007128D01*
X-24687857Y1988866D01*
X-24782288Y1968794D01*
X-24788318Y1966109D01*
X-24788319Y1966109D01*
X-24950722Y1893803D01*
X-24950724Y1893802D01*
X-24956752Y1891118D01*
X-25111253Y1778866D01*
X-25115674Y1773956D01*
X-25115675Y1773955D01*
X-25227437Y1649830D01*
X-25239040Y1636944D01*
X-25256381Y1606908D01*
X-25307764Y1557915D01*
X-25377478Y1544480D01*
X-25443389Y1570867D01*
X-25484570Y1628699D01*
X-25491500Y1669909D01*
X-25491500Y8153502D01*
X-25471498Y8221623D01*
X-25417842Y8268116D01*
X-25347568Y8278220D01*
X-25282988Y8248726D01*
G37*
G04 #@! TD.AperFunction*
G04 #@! TA.AperFunction,Conductor*
G36*
X25451724Y8245379D02*
G01*
X25487709Y8184178D01*
X25491500Y8153502D01*
X25491500Y2425148D01*
X25471498Y2357027D01*
X25417842Y2310534D01*
X25347568Y2300430D01*
X25314252Y2310041D01*
X25188323Y2366108D01*
X25188315Y2366111D01*
X25182288Y2368794D01*
X25088887Y2388647D01*
X25001944Y2407128D01*
X25001939Y2407128D01*
X24995487Y2408500D01*
X24804513Y2408500D01*
X24798061Y2407128D01*
X24798056Y2407128D01*
X24711113Y2388647D01*
X24617712Y2368794D01*
X24611682Y2366109D01*
X24611681Y2366109D01*
X24449278Y2293803D01*
X24449276Y2293802D01*
X24443248Y2291118D01*
X24437909Y2287239D01*
X24437902Y2287235D01*
X24431472Y2282563D01*
X24357413Y2258500D01*
X23442587Y2258500D01*
X23368528Y2282563D01*
X23362098Y2287235D01*
X23362091Y2287239D01*
X23356752Y2291118D01*
X23350724Y2293802D01*
X23350722Y2293803D01*
X23188319Y2366109D01*
X23188318Y2366109D01*
X23182288Y2368794D01*
X23088887Y2388647D01*
X23001944Y2407128D01*
X23001939Y2407128D01*
X22995487Y2408500D01*
X22804513Y2408500D01*
X22798061Y2407128D01*
X22798056Y2407128D01*
X22711113Y2388647D01*
X22617712Y2368794D01*
X22611682Y2366109D01*
X22611681Y2366109D01*
X22449278Y2293803D01*
X22449276Y2293802D01*
X22443248Y2291118D01*
X22437907Y2287238D01*
X22437906Y2287237D01*
X22431473Y2282563D01*
X22288747Y2178866D01*
X22284326Y2173956D01*
X22284325Y2173955D01*
X22167257Y2043937D01*
X22160960Y2036944D01*
X22120063Y1966109D01*
X22077924Y1893121D01*
X22065473Y1871556D01*
X22006458Y1689928D01*
X22005768Y1683367D01*
X22005768Y1683365D01*
X21992993Y1561814D01*
X21986496Y1500000D01*
X21987186Y1493435D01*
X22005415Y1320000D01*
X22006458Y1310072D01*
X22065473Y1128444D01*
X22068776Y1122722D01*
X22068777Y1122721D01*
X22099256Y1069930D01*
X22160960Y963056D01*
X22165378Y958149D01*
X22165379Y958148D01*
X22284325Y826045D01*
X22288747Y821134D01*
X22361676Y768148D01*
X22437904Y712765D01*
X22443248Y708882D01*
X22449276Y706198D01*
X22449278Y706197D01*
X22611681Y633891D01*
X22617712Y631206D01*
X22691603Y615500D01*
X22798056Y592872D01*
X22798061Y592872D01*
X22804513Y591500D01*
X22995487Y591500D01*
X23001939Y592872D01*
X23001944Y592872D01*
X23108397Y615500D01*
X23182288Y631206D01*
X23188319Y633891D01*
X23350722Y706197D01*
X23350724Y706198D01*
X23356752Y708882D01*
X23362091Y712761D01*
X23362098Y712765D01*
X23368528Y717437D01*
X23442587Y741500D01*
X24015500Y741500D01*
X24083621Y721498D01*
X24130114Y667842D01*
X24141500Y615500D01*
X24141500Y-863001D01*
X24124619Y-926001D01*
X24076916Y-1008625D01*
X24065473Y-1028444D01*
X24006458Y-1210072D01*
X24005768Y-1216633D01*
X24005768Y-1216635D01*
X23998820Y-1282745D01*
X23986496Y-1400000D01*
X23987186Y-1406565D01*
X24005129Y-1577279D01*
X24006458Y-1589928D01*
X24065473Y-1771556D01*
X24124594Y-1873955D01*
X24124619Y-1873999D01*
X24141500Y-1936999D01*
X24141500Y-6463001D01*
X24124619Y-6526000D01*
X24065473Y-6628444D01*
X24006458Y-6810072D01*
X24005768Y-6816633D01*
X24005768Y-6816635D01*
X23997912Y-6891386D01*
X23986496Y-7000000D01*
X23987186Y-7006565D01*
X24005129Y-7177279D01*
X24006458Y-7189928D01*
X24065473Y-7371556D01*
X24082322Y-7400739D01*
X24099059Y-7469734D01*
X24075838Y-7536826D01*
X24020031Y-7580713D01*
X23984184Y-7589259D01*
X23963075Y-7591106D01*
X23901913Y-7596457D01*
X23896600Y-7597881D01*
X23896598Y-7597881D01*
X23810574Y-7620931D01*
X23739597Y-7619241D01*
X23688868Y-7588319D01*
X23094315Y-6993766D01*
X23083448Y-6981375D01*
X23069013Y-6962563D01*
X23063987Y-6956013D01*
X23032075Y-6931526D01*
X23032072Y-6931523D01*
X22936876Y-6858476D01*
X22788851Y-6797162D01*
X22780664Y-6796084D01*
X22780663Y-6796084D01*
X22769458Y-6794609D01*
X22738262Y-6790502D01*
X22669885Y-6781500D01*
X22669882Y-6781500D01*
X22669874Y-6781499D01*
X22638189Y-6777328D01*
X22630000Y-6776250D01*
X22598307Y-6780422D01*
X22581864Y-6781500D01*
X18836520Y-6781500D01*
X18768399Y-6761498D01*
X18721906Y-6707842D01*
X18711210Y-6668671D01*
X18694232Y-6507135D01*
X18694232Y-6507133D01*
X18693542Y-6500572D01*
X18634527Y-6318944D01*
X18539040Y-6153556D01*
X18513077Y-6124721D01*
X18440864Y-6044520D01*
X18410146Y-5980513D01*
X18408500Y-5960210D01*
X18408500Y-4269925D01*
X18428502Y-4201804D01*
X18445405Y-4180830D01*
X20496234Y-2130001D01*
X20508625Y-2119134D01*
X20527437Y-2104699D01*
X20533987Y-2099673D01*
X20558474Y-2067761D01*
X20558480Y-2067755D01*
X20626496Y-1979115D01*
X20626497Y-1979113D01*
X20631524Y-1972562D01*
X20665783Y-1889852D01*
X20692838Y-1824536D01*
X20699060Y-1777279D01*
X20708500Y-1705571D01*
X20708500Y-1705564D01*
X20712672Y-1673874D01*
X20713750Y-1665686D01*
X20709578Y-1633993D01*
X20708500Y-1617550D01*
X20708500Y5330075D01*
X20728502Y5398196D01*
X20745405Y5419170D01*
X22480830Y7154595D01*
X22543142Y7188621D01*
X22569925Y7191500D01*
X22991864Y7191500D01*
X23008307Y7190422D01*
X23040000Y7186250D01*
X23048189Y7187328D01*
X23079874Y7191499D01*
X23079884Y7191500D01*
X23079885Y7191500D01*
X23179457Y7204609D01*
X23190664Y7206084D01*
X23190666Y7206085D01*
X23198851Y7207162D01*
X23346876Y7268476D01*
X23381855Y7295316D01*
X23442072Y7341523D01*
X23442075Y7341526D01*
X23467434Y7360985D01*
X23473987Y7366013D01*
X23479017Y7372568D01*
X23493452Y7391379D01*
X23504319Y7403770D01*
X23688868Y7588319D01*
X23751180Y7622345D01*
X23810574Y7620931D01*
X23896598Y7597881D01*
X23896600Y7597881D01*
X23901913Y7596457D01*
X24130000Y7576502D01*
X24358087Y7596457D01*
X24363400Y7597881D01*
X24363402Y7597881D01*
X24573933Y7654293D01*
X24573935Y7654294D01*
X24579243Y7655716D01*
X24584225Y7658039D01*
X24781762Y7750151D01*
X24781767Y7750154D01*
X24786749Y7752477D01*
X24928805Y7851946D01*
X24969789Y7880643D01*
X24969792Y7880645D01*
X24974300Y7883802D01*
X25136198Y8045700D01*
X25140442Y8051760D01*
X25262287Y8225773D01*
X25317744Y8270101D01*
X25388364Y8277410D01*
X25451724Y8245379D01*
G37*
G04 #@! TD.AperFunction*
M02*
