G04 #@! TF.GenerationSoftware,KiCad,Pcbnew,6.0.11-2627ca5db0~126~ubuntu22.04.1*
G04 #@! TF.CreationDate,2023-08-03T02:59:47+02:00*
G04 #@! TF.ProjectId,OpenCyphalPicoBase,4f70656e-4379-4706-9861-6c5069636f42,0.2*
G04 #@! TF.SameCoordinates,Original*
G04 #@! TF.FileFunction,Legend,Top*
G04 #@! TF.FilePolarity,Positive*
%FSLAX46Y46*%
G04 Gerber Fmt 4.6, Leading zero omitted, Abs format (unit mm)*
G04 Created by KiCad (PCBNEW 6.0.11-2627ca5db0~126~ubuntu22.04.1) date 2023-08-03 02:59:47*
%MOMM*%
%LPD*%
G01*
G04 APERTURE LIST*
G04 Aperture macros list*
%AMRoundRect*
0 Rectangle with rounded corners*
0 $1 Rounding radius*
0 $2 $3 $4 $5 $6 $7 $8 $9 X,Y pos of 4 corners*
0 Add a 4 corners polygon primitive as box body*
4,1,4,$2,$3,$4,$5,$6,$7,$8,$9,$2,$3,0*
0 Add four circle primitives for the rounded corners*
1,1,$1+$1,$2,$3*
1,1,$1+$1,$4,$5*
1,1,$1+$1,$6,$7*
1,1,$1+$1,$8,$9*
0 Add four rect primitives between the rounded corners*
20,1,$1+$1,$2,$3,$4,$5,0*
20,1,$1+$1,$4,$5,$6,$7,0*
20,1,$1+$1,$6,$7,$8,$9,0*
20,1,$1+$1,$8,$9,$2,$3,0*%
G04 Aperture macros list end*
%ADD10C,0.175000*%
%ADD11C,0.500000*%
%ADD12C,0.250000*%
%ADD13C,0.150000*%
%ADD14C,0.120000*%
%ADD15C,0.010000*%
%ADD16C,2.200000*%
%ADD17C,5.902000*%
%ADD18RoundRect,0.251000X0.275000X-0.200000X0.275000X0.200000X-0.275000X0.200000X-0.275000X-0.200000X0*%
%ADD19RoundRect,0.201000X0.150000X-0.875000X0.150000X0.875000X-0.150000X0.875000X-0.150000X-0.875000X0*%
%ADD20RoundRect,0.276000X-0.250000X0.225000X-0.250000X-0.225000X0.250000X-0.225000X0.250000X0.225000X0*%
%ADD21RoundRect,0.276000X-0.225000X-0.250000X0.225000X-0.250000X0.225000X0.250000X-0.225000X0.250000X0*%
%ADD22RoundRect,0.251000X-0.275000X0.200000X-0.275000X-0.200000X0.275000X-0.200000X0.275000X0.200000X0*%
%ADD23RoundRect,0.201000X0.625000X-0.150000X0.625000X0.150000X-0.625000X0.150000X-0.625000X-0.150000X0*%
%ADD24RoundRect,0.301000X0.650000X-0.350000X0.650000X0.350000X-0.650000X0.350000X-0.650000X-0.350000X0*%
%ADD25RoundRect,0.201000X-0.150000X-0.625000X0.150000X-0.625000X0.150000X0.625000X-0.150000X0.625000X0*%
%ADD26RoundRect,0.301000X-0.350000X-0.650000X0.350000X-0.650000X0.350000X0.650000X-0.350000X0.650000X0*%
%ADD27RoundRect,0.051000X-0.850000X0.850000X-0.850000X-0.850000X0.850000X-0.850000X0.850000X0.850000X0*%
%ADD28O,1.802000X1.802000*%
%ADD29RoundRect,0.051000X-0.600000X0.450000X-0.600000X-0.450000X0.600000X-0.450000X0.600000X0.450000X0*%
%ADD30RoundRect,0.201000X0.150000X-0.825000X0.150000X0.825000X-0.150000X0.825000X-0.150000X-0.825000X0*%
%ADD31RoundRect,0.201000X-0.700000X0.150000X-0.700000X-0.150000X0.700000X-0.150000X0.700000X0.150000X0*%
%ADD32RoundRect,0.301000X-1.100000X0.250000X-1.100000X-0.250000X1.100000X-0.250000X1.100000X0.250000X0*%
%ADD33C,2.302000*%
%ADD34RoundRect,0.269750X0.218750X0.256250X-0.218750X0.256250X-0.218750X-0.256250X0.218750X-0.256250X0*%
%ADD35RoundRect,0.251000X-0.200000X-0.275000X0.200000X-0.275000X0.200000X0.275000X-0.200000X0.275000X0*%
%ADD36RoundRect,0.201000X-0.150000X0.825000X-0.150000X-0.825000X0.150000X-0.825000X0.150000X0.825000X0*%
%ADD37RoundRect,0.051000X0.550000X-0.650000X0.550000X0.650000X-0.550000X0.650000X-0.550000X-0.650000X0*%
%ADD38RoundRect,0.276000X0.225000X0.250000X-0.225000X0.250000X-0.225000X-0.250000X0.225000X-0.250000X0*%
%ADD39RoundRect,0.051000X0.850000X-0.850000X0.850000X0.850000X-0.850000X0.850000X-0.850000X-0.850000X0*%
%ADD40RoundRect,0.051000X0.750000X0.750000X-0.750000X0.750000X-0.750000X-0.750000X0.750000X-0.750000X0*%
%ADD41RoundRect,0.276000X0.250000X-0.225000X0.250000X0.225000X-0.250000X0.225000X-0.250000X-0.225000X0*%
%ADD42RoundRect,0.301000X1.500000X-0.250000X1.500000X0.250000X-1.500000X0.250000X-1.500000X-0.250000X0*%
%ADD43RoundRect,0.301001X1.449999X-0.499999X1.449999X0.499999X-1.449999X0.499999X-1.449999X-0.499999X0*%
%ADD44RoundRect,0.301000X0.625000X-0.375000X0.625000X0.375000X-0.625000X0.375000X-0.625000X-0.375000X0*%
%ADD45RoundRect,0.301000X-0.550000X1.250000X-0.550000X-1.250000X0.550000X-1.250000X0.550000X1.250000X0*%
G04 APERTURE END LIST*
D10*
X64766666Y-80853166D02*
X64766666Y-81419833D01*
X64800000Y-81486500D01*
X64833333Y-81519833D01*
X64900000Y-81553166D01*
X65033333Y-81553166D01*
X65100000Y-81519833D01*
X65133333Y-81486500D01*
X65166666Y-81419833D01*
X65166666Y-80853166D01*
X65900000Y-81486500D02*
X65866666Y-81519833D01*
X65766666Y-81553166D01*
X65700000Y-81553166D01*
X65600000Y-81519833D01*
X65533333Y-81453166D01*
X65500000Y-81386500D01*
X65466666Y-81253166D01*
X65466666Y-81153166D01*
X65500000Y-81019833D01*
X65533333Y-80953166D01*
X65600000Y-80886500D01*
X65700000Y-80853166D01*
X65766666Y-80853166D01*
X65866666Y-80886500D01*
X65900000Y-80919833D01*
X66166666Y-81353166D02*
X66500000Y-81353166D01*
X66100000Y-81553166D02*
X66333333Y-80853166D01*
X66566666Y-81553166D01*
X66800000Y-81553166D02*
X66800000Y-80853166D01*
X67200000Y-81553166D01*
X67200000Y-80853166D01*
X67533333Y-81553166D02*
X67533333Y-80853166D01*
X67800000Y-80853166D01*
X67866666Y-80886500D01*
X67900000Y-80919833D01*
X67933333Y-80986500D01*
X67933333Y-81086500D01*
X67900000Y-81153166D01*
X67866666Y-81186500D01*
X67800000Y-81219833D01*
X67533333Y-81219833D01*
X68233333Y-81553166D02*
X68233333Y-80853166D01*
X68233333Y-81186500D02*
X68633333Y-81186500D01*
X68633333Y-81553166D02*
X68633333Y-80853166D01*
X69100000Y-81219833D02*
X69100000Y-81553166D01*
X68866666Y-80853166D02*
X69100000Y-81219833D01*
X69333333Y-80853166D01*
X66033333Y-82680166D02*
X66033333Y-81980166D01*
X66266666Y-82480166D01*
X66500000Y-81980166D01*
X66500000Y-82680166D01*
X66833333Y-82680166D02*
X66833333Y-82213500D01*
X66833333Y-81980166D02*
X66800000Y-82013500D01*
X66833333Y-82046833D01*
X66866666Y-82013500D01*
X66833333Y-81980166D01*
X66833333Y-82046833D01*
X67466666Y-82646833D02*
X67400000Y-82680166D01*
X67266666Y-82680166D01*
X67200000Y-82646833D01*
X67166666Y-82613500D01*
X67133333Y-82546833D01*
X67133333Y-82346833D01*
X67166666Y-82280166D01*
X67200000Y-82246833D01*
X67266666Y-82213500D01*
X67400000Y-82213500D01*
X67466666Y-82246833D01*
X67766666Y-82680166D02*
X67766666Y-82213500D01*
X67766666Y-82346833D02*
X67800000Y-82280166D01*
X67833333Y-82246833D01*
X67900000Y-82213500D01*
X67966666Y-82213500D01*
X68300000Y-82680166D02*
X68233333Y-82646833D01*
X68200000Y-82613500D01*
X68166666Y-82546833D01*
X68166666Y-82346833D01*
X68200000Y-82280166D01*
X68233333Y-82246833D01*
X68300000Y-82213500D01*
X68400000Y-82213500D01*
X68466666Y-82246833D01*
X68500000Y-82280166D01*
X68533333Y-82346833D01*
X68533333Y-82546833D01*
X68500000Y-82613500D01*
X68466666Y-82646833D01*
X68400000Y-82680166D01*
X68300000Y-82680166D01*
D11*
X76238095Y-78942857D02*
X77761904Y-78942857D01*
X77000000Y-79704761D02*
X77000000Y-78180952D01*
D12*
X110152380Y-100876190D02*
X109152380Y-100876190D01*
X109247619Y-100447619D02*
X109200000Y-100400000D01*
X109152380Y-100304761D01*
X109152380Y-100066666D01*
X109200000Y-99971428D01*
X109247619Y-99923809D01*
X109342857Y-99876190D01*
X109438095Y-99876190D01*
X109580952Y-99923809D01*
X110152380Y-100495238D01*
X110152380Y-99876190D01*
X110057142Y-98876190D02*
X110104761Y-98923809D01*
X110152380Y-99066666D01*
X110152380Y-99161904D01*
X110104761Y-99304761D01*
X110009523Y-99400000D01*
X109914285Y-99447619D01*
X109723809Y-99495238D01*
X109580952Y-99495238D01*
X109390476Y-99447619D01*
X109295238Y-99400000D01*
X109200000Y-99304761D01*
X109152380Y-99161904D01*
X109152380Y-99066666D01*
X109200000Y-98923809D01*
X109247619Y-98876190D01*
X107166666Y-80752380D02*
X107166666Y-79752380D01*
X107738095Y-80752380D01*
X107738095Y-79752380D01*
X108214285Y-80228571D02*
X108547619Y-80228571D01*
X108690476Y-80752380D02*
X108214285Y-80752380D01*
X108214285Y-79752380D01*
X108690476Y-79752380D01*
X109309523Y-79752380D02*
X109500000Y-79752380D01*
X109595238Y-79800000D01*
X109690476Y-79895238D01*
X109738095Y-80085714D01*
X109738095Y-80419047D01*
X109690476Y-80609523D01*
X109595238Y-80704761D01*
X109500000Y-80752380D01*
X109309523Y-80752380D01*
X109214285Y-80704761D01*
X109119047Y-80609523D01*
X109071428Y-80419047D01*
X109071428Y-80085714D01*
X109119047Y-79895238D01*
X109214285Y-79800000D01*
X109309523Y-79752380D01*
X110166666Y-80752380D02*
X110166666Y-79752380D01*
X110547619Y-79752380D01*
X110642857Y-79800000D01*
X110690476Y-79847619D01*
X110738095Y-79942857D01*
X110738095Y-80085714D01*
X110690476Y-80180952D01*
X110642857Y-80228571D01*
X110547619Y-80276190D01*
X110166666Y-80276190D01*
X111166666Y-80752380D02*
X111166666Y-79752380D01*
X111547619Y-79752380D02*
X112214285Y-80752380D01*
X112214285Y-79752380D02*
X111547619Y-80752380D01*
X112595238Y-80228571D02*
X112928571Y-80228571D01*
X113071428Y-80752380D02*
X112595238Y-80752380D01*
X112595238Y-79752380D01*
X113071428Y-79752380D01*
X113976190Y-80752380D02*
X113500000Y-80752380D01*
X113500000Y-79752380D01*
X85347619Y-102752380D02*
X85014285Y-102276190D01*
X84776190Y-102752380D02*
X84776190Y-101752380D01*
X85157142Y-101752380D01*
X85252380Y-101800000D01*
X85300000Y-101847619D01*
X85347619Y-101942857D01*
X85347619Y-102085714D01*
X85300000Y-102180952D01*
X85252380Y-102228571D01*
X85157142Y-102276190D01*
X84776190Y-102276190D01*
X85776190Y-102228571D02*
X86109523Y-102228571D01*
X86252380Y-102752380D02*
X85776190Y-102752380D01*
X85776190Y-101752380D01*
X86252380Y-101752380D01*
X86633333Y-102704761D02*
X86776190Y-102752380D01*
X87014285Y-102752380D01*
X87109523Y-102704761D01*
X87157142Y-102657142D01*
X87204761Y-102561904D01*
X87204761Y-102466666D01*
X87157142Y-102371428D01*
X87109523Y-102323809D01*
X87014285Y-102276190D01*
X86823809Y-102228571D01*
X86728571Y-102180952D01*
X86680952Y-102133333D01*
X86633333Y-102038095D01*
X86633333Y-101942857D01*
X86680952Y-101847619D01*
X86728571Y-101800000D01*
X86823809Y-101752380D01*
X87061904Y-101752380D01*
X87204761Y-101800000D01*
X87633333Y-102228571D02*
X87966666Y-102228571D01*
X88109523Y-102752380D02*
X87633333Y-102752380D01*
X87633333Y-101752380D01*
X88109523Y-101752380D01*
X88395238Y-101752380D02*
X88966666Y-101752380D01*
X88680952Y-102752380D02*
X88680952Y-101752380D01*
X109304761Y-109085714D02*
X109352380Y-108990476D01*
X109352380Y-108800000D01*
X109304761Y-108704761D01*
X109209523Y-108657142D01*
X109161904Y-108657142D01*
X109066666Y-108704761D01*
X109019047Y-108800000D01*
X109019047Y-108942857D01*
X108971428Y-109038095D01*
X108876190Y-109085714D01*
X108828571Y-109085714D01*
X108733333Y-109038095D01*
X108685714Y-108942857D01*
X108685714Y-108800000D01*
X108733333Y-108704761D01*
X109304761Y-107847619D02*
X109352380Y-107942857D01*
X109352380Y-108133333D01*
X109304761Y-108228571D01*
X109209523Y-108276190D01*
X108828571Y-108276190D01*
X108733333Y-108228571D01*
X108685714Y-108133333D01*
X108685714Y-107942857D01*
X108733333Y-107847619D01*
X108828571Y-107800000D01*
X108923809Y-107800000D01*
X109019047Y-108276190D01*
X109352380Y-107371428D02*
X108685714Y-107371428D01*
X108876190Y-107371428D02*
X108780952Y-107323809D01*
X108733333Y-107276190D01*
X108685714Y-107180952D01*
X108685714Y-107085714D01*
X108685714Y-106847619D02*
X109352380Y-106609523D01*
X108685714Y-106371428D01*
X109352380Y-105847619D02*
X109304761Y-105942857D01*
X109257142Y-105990476D01*
X109161904Y-106038095D01*
X108876190Y-106038095D01*
X108780952Y-105990476D01*
X108733333Y-105942857D01*
X108685714Y-105847619D01*
X108685714Y-105704761D01*
X108733333Y-105609523D01*
X108780952Y-105561904D01*
X108876190Y-105514285D01*
X109161904Y-105514285D01*
X109257142Y-105561904D01*
X109304761Y-105609523D01*
X109352380Y-105704761D01*
X109352380Y-105847619D01*
X67995238Y-103104761D02*
X68090476Y-103152380D01*
X68280952Y-103152380D01*
X68376190Y-103104761D01*
X68423809Y-103009523D01*
X68423809Y-102961904D01*
X68376190Y-102866666D01*
X68280952Y-102819047D01*
X68138095Y-102819047D01*
X68042857Y-102771428D01*
X67995238Y-102676190D01*
X67995238Y-102628571D01*
X68042857Y-102533333D01*
X68138095Y-102485714D01*
X68280952Y-102485714D01*
X68376190Y-102533333D01*
X69233333Y-103104761D02*
X69138095Y-103152380D01*
X68947619Y-103152380D01*
X68852380Y-103104761D01*
X68804761Y-103009523D01*
X68804761Y-102628571D01*
X68852380Y-102533333D01*
X68947619Y-102485714D01*
X69138095Y-102485714D01*
X69233333Y-102533333D01*
X69280952Y-102628571D01*
X69280952Y-102723809D01*
X68804761Y-102819047D01*
X69709523Y-103152380D02*
X69709523Y-102485714D01*
X69709523Y-102676190D02*
X69757142Y-102580952D01*
X69804761Y-102533333D01*
X69900000Y-102485714D01*
X69995238Y-102485714D01*
X70328571Y-103152380D02*
X70328571Y-102485714D01*
X70328571Y-102152380D02*
X70280952Y-102200000D01*
X70328571Y-102247619D01*
X70376190Y-102200000D01*
X70328571Y-102152380D01*
X70328571Y-102247619D01*
X71233333Y-103152380D02*
X71233333Y-102628571D01*
X71185714Y-102533333D01*
X71090476Y-102485714D01*
X70900000Y-102485714D01*
X70804761Y-102533333D01*
X71233333Y-103104761D02*
X71138095Y-103152380D01*
X70900000Y-103152380D01*
X70804761Y-103104761D01*
X70757142Y-103009523D01*
X70757142Y-102914285D01*
X70804761Y-102819047D01*
X70900000Y-102771428D01*
X71138095Y-102771428D01*
X71233333Y-102723809D01*
X71852380Y-103152380D02*
X71757142Y-103104761D01*
X71709523Y-103009523D01*
X71709523Y-102152380D01*
D13*
X78822380Y-88366666D02*
X78346190Y-88700000D01*
X78822380Y-88938095D02*
X77822380Y-88938095D01*
X77822380Y-88557142D01*
X77870000Y-88461904D01*
X77917619Y-88414285D01*
X78012857Y-88366666D01*
X78155714Y-88366666D01*
X78250952Y-88414285D01*
X78298571Y-88461904D01*
X78346190Y-88557142D01*
X78346190Y-88938095D01*
X77917619Y-87985714D02*
X77870000Y-87938095D01*
X77822380Y-87842857D01*
X77822380Y-87604761D01*
X77870000Y-87509523D01*
X77917619Y-87461904D01*
X78012857Y-87414285D01*
X78108095Y-87414285D01*
X78250952Y-87461904D01*
X78822380Y-88033333D01*
X78822380Y-87414285D01*
X82252380Y-97761904D02*
X83061904Y-97761904D01*
X83157142Y-97714285D01*
X83204761Y-97666666D01*
X83252380Y-97571428D01*
X83252380Y-97380952D01*
X83204761Y-97285714D01*
X83157142Y-97238095D01*
X83061904Y-97190476D01*
X82252380Y-97190476D01*
X82680952Y-96571428D02*
X82633333Y-96666666D01*
X82585714Y-96714285D01*
X82490476Y-96761904D01*
X82442857Y-96761904D01*
X82347619Y-96714285D01*
X82300000Y-96666666D01*
X82252380Y-96571428D01*
X82252380Y-96380952D01*
X82300000Y-96285714D01*
X82347619Y-96238095D01*
X82442857Y-96190476D01*
X82490476Y-96190476D01*
X82585714Y-96238095D01*
X82633333Y-96285714D01*
X82680952Y-96380952D01*
X82680952Y-96571428D01*
X82728571Y-96666666D01*
X82776190Y-96714285D01*
X82871428Y-96761904D01*
X83061904Y-96761904D01*
X83157142Y-96714285D01*
X83204761Y-96666666D01*
X83252380Y-96571428D01*
X83252380Y-96380952D01*
X83204761Y-96285714D01*
X83157142Y-96238095D01*
X83061904Y-96190476D01*
X82871428Y-96190476D01*
X82776190Y-96238095D01*
X82728571Y-96285714D01*
X82680952Y-96380952D01*
X81457142Y-92166666D02*
X81504761Y-92214285D01*
X81552380Y-92357142D01*
X81552380Y-92452380D01*
X81504761Y-92595238D01*
X81409523Y-92690476D01*
X81314285Y-92738095D01*
X81123809Y-92785714D01*
X80980952Y-92785714D01*
X80790476Y-92738095D01*
X80695238Y-92690476D01*
X80600000Y-92595238D01*
X80552380Y-92452380D01*
X80552380Y-92357142D01*
X80600000Y-92214285D01*
X80647619Y-92166666D01*
X80552380Y-91833333D02*
X80552380Y-91214285D01*
X80933333Y-91547619D01*
X80933333Y-91404761D01*
X80980952Y-91309523D01*
X81028571Y-91261904D01*
X81123809Y-91214285D01*
X81361904Y-91214285D01*
X81457142Y-91261904D01*
X81504761Y-91309523D01*
X81552380Y-91404761D01*
X81552380Y-91690476D01*
X81504761Y-91785714D01*
X81457142Y-91833333D01*
X78833333Y-90927142D02*
X78785714Y-90974761D01*
X78642857Y-91022380D01*
X78547619Y-91022380D01*
X78404761Y-90974761D01*
X78309523Y-90879523D01*
X78261904Y-90784285D01*
X78214285Y-90593809D01*
X78214285Y-90450952D01*
X78261904Y-90260476D01*
X78309523Y-90165238D01*
X78404761Y-90070000D01*
X78547619Y-90022380D01*
X78642857Y-90022380D01*
X78785714Y-90070000D01*
X78833333Y-90117619D01*
X79690476Y-90355714D02*
X79690476Y-91022380D01*
X79452380Y-89974761D02*
X79214285Y-90689047D01*
X79833333Y-90689047D01*
X98682380Y-88566666D02*
X98206190Y-88900000D01*
X98682380Y-89138095D02*
X97682380Y-89138095D01*
X97682380Y-88757142D01*
X97730000Y-88661904D01*
X97777619Y-88614285D01*
X97872857Y-88566666D01*
X98015714Y-88566666D01*
X98110952Y-88614285D01*
X98158571Y-88661904D01*
X98206190Y-88757142D01*
X98206190Y-89138095D01*
X98682380Y-87614285D02*
X98682380Y-88185714D01*
X98682380Y-87900000D02*
X97682380Y-87900000D01*
X97825238Y-87995238D01*
X97920476Y-88090476D01*
X97968095Y-88185714D01*
X83352380Y-87566666D02*
X82876190Y-87900000D01*
X83352380Y-88138095D02*
X82352380Y-88138095D01*
X82352380Y-87757142D01*
X82400000Y-87661904D01*
X82447619Y-87614285D01*
X82542857Y-87566666D01*
X82685714Y-87566666D01*
X82780952Y-87614285D01*
X82828571Y-87661904D01*
X82876190Y-87757142D01*
X82876190Y-88138095D01*
X82352380Y-87233333D02*
X82352380Y-86614285D01*
X82733333Y-86947619D01*
X82733333Y-86804761D01*
X82780952Y-86709523D01*
X82828571Y-86661904D01*
X82923809Y-86614285D01*
X83161904Y-86614285D01*
X83257142Y-86661904D01*
X83304761Y-86709523D01*
X83352380Y-86804761D01*
X83352380Y-87090476D01*
X83304761Y-87185714D01*
X83257142Y-87233333D01*
X101787142Y-88166666D02*
X101834761Y-88214285D01*
X101882380Y-88357142D01*
X101882380Y-88452380D01*
X101834761Y-88595238D01*
X101739523Y-88690476D01*
X101644285Y-88738095D01*
X101453809Y-88785714D01*
X101310952Y-88785714D01*
X101120476Y-88738095D01*
X101025238Y-88690476D01*
X100930000Y-88595238D01*
X100882380Y-88452380D01*
X100882380Y-88357142D01*
X100930000Y-88214285D01*
X100977619Y-88166666D01*
X100882380Y-87309523D02*
X100882380Y-87500000D01*
X100930000Y-87595238D01*
X100977619Y-87642857D01*
X101120476Y-87738095D01*
X101310952Y-87785714D01*
X101691904Y-87785714D01*
X101787142Y-87738095D01*
X101834761Y-87690476D01*
X101882380Y-87595238D01*
X101882380Y-87404761D01*
X101834761Y-87309523D01*
X101787142Y-87261904D01*
X101691904Y-87214285D01*
X101453809Y-87214285D01*
X101358571Y-87261904D01*
X101310952Y-87309523D01*
X101263333Y-87404761D01*
X101263333Y-87595238D01*
X101310952Y-87690476D01*
X101358571Y-87738095D01*
X101453809Y-87785714D01*
X109157142Y-97690476D02*
X109204761Y-97738095D01*
X109252380Y-97880952D01*
X109252380Y-97976190D01*
X109204761Y-98119047D01*
X109109523Y-98214285D01*
X109014285Y-98261904D01*
X108823809Y-98309523D01*
X108680952Y-98309523D01*
X108490476Y-98261904D01*
X108395238Y-98214285D01*
X108300000Y-98119047D01*
X108252380Y-97976190D01*
X108252380Y-97880952D01*
X108300000Y-97738095D01*
X108347619Y-97690476D01*
X109252380Y-97261904D02*
X108252380Y-97261904D01*
X109252380Y-96690476D01*
X108252380Y-96690476D01*
X108347619Y-96261904D02*
X108300000Y-96214285D01*
X108252380Y-96119047D01*
X108252380Y-95880952D01*
X108300000Y-95785714D01*
X108347619Y-95738095D01*
X108442857Y-95690476D01*
X108538095Y-95690476D01*
X108680952Y-95738095D01*
X109252380Y-96309523D01*
X109252380Y-95690476D01*
X73109523Y-103077142D02*
X73061904Y-103124761D01*
X72919047Y-103172380D01*
X72823809Y-103172380D01*
X72680952Y-103124761D01*
X72585714Y-103029523D01*
X72538095Y-102934285D01*
X72490476Y-102743809D01*
X72490476Y-102600952D01*
X72538095Y-102410476D01*
X72585714Y-102315238D01*
X72680952Y-102220000D01*
X72823809Y-102172380D01*
X72919047Y-102172380D01*
X73061904Y-102220000D01*
X73109523Y-102267619D01*
X73538095Y-103172380D02*
X73538095Y-102172380D01*
X74109523Y-103172380D01*
X74109523Y-102172380D01*
X74490476Y-102172380D02*
X75109523Y-102172380D01*
X74776190Y-102553333D01*
X74919047Y-102553333D01*
X75014285Y-102600952D01*
X75061904Y-102648571D01*
X75109523Y-102743809D01*
X75109523Y-102981904D01*
X75061904Y-103077142D01*
X75014285Y-103124761D01*
X74919047Y-103172380D01*
X74633333Y-103172380D01*
X74538095Y-103124761D01*
X74490476Y-103077142D01*
X109527142Y-112145476D02*
X109574761Y-112193095D01*
X109622380Y-112335952D01*
X109622380Y-112431190D01*
X109574761Y-112574047D01*
X109479523Y-112669285D01*
X109384285Y-112716904D01*
X109193809Y-112764523D01*
X109050952Y-112764523D01*
X108860476Y-112716904D01*
X108765238Y-112669285D01*
X108670000Y-112574047D01*
X108622380Y-112431190D01*
X108622380Y-112335952D01*
X108670000Y-112193095D01*
X108717619Y-112145476D01*
X109622380Y-111716904D02*
X108622380Y-111716904D01*
X109622380Y-111145476D01*
X108622380Y-111145476D01*
X108622380Y-110764523D02*
X108622380Y-110097857D01*
X109622380Y-110526428D01*
X72552380Y-80138095D02*
X71552380Y-80138095D01*
X71552380Y-79900000D01*
X71600000Y-79757142D01*
X71695238Y-79661904D01*
X71790476Y-79614285D01*
X71980952Y-79566666D01*
X72123809Y-79566666D01*
X72314285Y-79614285D01*
X72409523Y-79661904D01*
X72504761Y-79757142D01*
X72552380Y-79900000D01*
X72552380Y-80138095D01*
X71647619Y-79185714D02*
X71600000Y-79138095D01*
X71552380Y-79042857D01*
X71552380Y-78804761D01*
X71600000Y-78709523D01*
X71647619Y-78661904D01*
X71742857Y-78614285D01*
X71838095Y-78614285D01*
X71980952Y-78661904D01*
X72552380Y-79233333D01*
X72552380Y-78614285D01*
X106952380Y-97961904D02*
X107761904Y-97961904D01*
X107857142Y-97914285D01*
X107904761Y-97866666D01*
X107952380Y-97771428D01*
X107952380Y-97580952D01*
X107904761Y-97485714D01*
X107857142Y-97438095D01*
X107761904Y-97390476D01*
X106952380Y-97390476D01*
X106952380Y-97009523D02*
X106952380Y-96390476D01*
X107333333Y-96723809D01*
X107333333Y-96580952D01*
X107380952Y-96485714D01*
X107428571Y-96438095D01*
X107523809Y-96390476D01*
X107761904Y-96390476D01*
X107857142Y-96438095D01*
X107904761Y-96485714D01*
X107952380Y-96580952D01*
X107952380Y-96866666D01*
X107904761Y-96961904D01*
X107857142Y-97009523D01*
X104052380Y-86866666D02*
X103576190Y-87200000D01*
X104052380Y-87438095D02*
X103052380Y-87438095D01*
X103052380Y-87057142D01*
X103100000Y-86961904D01*
X103147619Y-86914285D01*
X103242857Y-86866666D01*
X103385714Y-86866666D01*
X103480952Y-86914285D01*
X103528571Y-86961904D01*
X103576190Y-87057142D01*
X103576190Y-87438095D01*
X104052380Y-86390476D02*
X104052380Y-86200000D01*
X104004761Y-86104761D01*
X103957142Y-86057142D01*
X103814285Y-85961904D01*
X103623809Y-85914285D01*
X103242857Y-85914285D01*
X103147619Y-85961904D01*
X103100000Y-86009523D01*
X103052380Y-86104761D01*
X103052380Y-86295238D01*
X103100000Y-86390476D01*
X103147619Y-86438095D01*
X103242857Y-86485714D01*
X103480952Y-86485714D01*
X103576190Y-86438095D01*
X103623809Y-86390476D01*
X103671428Y-86295238D01*
X103671428Y-86104761D01*
X103623809Y-86009523D01*
X103576190Y-85961904D01*
X103480952Y-85914285D01*
X105452380Y-86842857D02*
X104976190Y-87176190D01*
X105452380Y-87414285D02*
X104452380Y-87414285D01*
X104452380Y-87033333D01*
X104500000Y-86938095D01*
X104547619Y-86890476D01*
X104642857Y-86842857D01*
X104785714Y-86842857D01*
X104880952Y-86890476D01*
X104928571Y-86938095D01*
X104976190Y-87033333D01*
X104976190Y-87414285D01*
X105452380Y-85890476D02*
X105452380Y-86461904D01*
X105452380Y-86176190D02*
X104452380Y-86176190D01*
X104595238Y-86271428D01*
X104690476Y-86366666D01*
X104738095Y-86461904D01*
X104452380Y-85271428D02*
X104452380Y-85176190D01*
X104500000Y-85080952D01*
X104547619Y-85033333D01*
X104642857Y-84985714D01*
X104833333Y-84938095D01*
X105071428Y-84938095D01*
X105261904Y-84985714D01*
X105357142Y-85033333D01*
X105404761Y-85080952D01*
X105452380Y-85176190D01*
X105452380Y-85271428D01*
X105404761Y-85366666D01*
X105357142Y-85414285D01*
X105261904Y-85461904D01*
X105071428Y-85509523D01*
X104833333Y-85509523D01*
X104642857Y-85461904D01*
X104547619Y-85414285D01*
X104500000Y-85366666D01*
X104452380Y-85271428D01*
X108582380Y-103042857D02*
X108106190Y-103376190D01*
X108582380Y-103614285D02*
X107582380Y-103614285D01*
X107582380Y-103233333D01*
X107630000Y-103138095D01*
X107677619Y-103090476D01*
X107772857Y-103042857D01*
X107915714Y-103042857D01*
X108010952Y-103090476D01*
X108058571Y-103138095D01*
X108106190Y-103233333D01*
X108106190Y-103614285D01*
X108582380Y-102090476D02*
X108582380Y-102661904D01*
X108582380Y-102376190D02*
X107582380Y-102376190D01*
X107725238Y-102471428D01*
X107820476Y-102566666D01*
X107868095Y-102661904D01*
X108582380Y-101138095D02*
X108582380Y-101709523D01*
X108582380Y-101423809D02*
X107582380Y-101423809D01*
X107725238Y-101519047D01*
X107820476Y-101614285D01*
X107868095Y-101709523D01*
X103522380Y-103042857D02*
X103046190Y-103376190D01*
X103522380Y-103614285D02*
X102522380Y-103614285D01*
X102522380Y-103233333D01*
X102570000Y-103138095D01*
X102617619Y-103090476D01*
X102712857Y-103042857D01*
X102855714Y-103042857D01*
X102950952Y-103090476D01*
X102998571Y-103138095D01*
X103046190Y-103233333D01*
X103046190Y-103614285D01*
X103522380Y-102090476D02*
X103522380Y-102661904D01*
X103522380Y-102376190D02*
X102522380Y-102376190D01*
X102665238Y-102471428D01*
X102760476Y-102566666D01*
X102808095Y-102661904D01*
X102617619Y-101709523D02*
X102570000Y-101661904D01*
X102522380Y-101566666D01*
X102522380Y-101328571D01*
X102570000Y-101233333D01*
X102617619Y-101185714D01*
X102712857Y-101138095D01*
X102808095Y-101138095D01*
X102950952Y-101185714D01*
X103522380Y-101757142D01*
X103522380Y-101138095D01*
X70757142Y-93590476D02*
X70804761Y-93638095D01*
X70852380Y-93780952D01*
X70852380Y-93876190D01*
X70804761Y-94019047D01*
X70709523Y-94114285D01*
X70614285Y-94161904D01*
X70423809Y-94209523D01*
X70280952Y-94209523D01*
X70090476Y-94161904D01*
X69995238Y-94114285D01*
X69900000Y-94019047D01*
X69852380Y-93876190D01*
X69852380Y-93780952D01*
X69900000Y-93638095D01*
X69947619Y-93590476D01*
X70852380Y-93161904D02*
X69852380Y-93161904D01*
X70852380Y-92590476D01*
X69852380Y-92590476D01*
X70185714Y-91685714D02*
X70852380Y-91685714D01*
X69804761Y-91923809D02*
X70519047Y-92161904D01*
X70519047Y-91542857D01*
X73609523Y-78957142D02*
X73561904Y-79004761D01*
X73419047Y-79052380D01*
X73323809Y-79052380D01*
X73180952Y-79004761D01*
X73085714Y-78909523D01*
X73038095Y-78814285D01*
X72990476Y-78623809D01*
X72990476Y-78480952D01*
X73038095Y-78290476D01*
X73085714Y-78195238D01*
X73180952Y-78100000D01*
X73323809Y-78052380D01*
X73419047Y-78052380D01*
X73561904Y-78100000D01*
X73609523Y-78147619D01*
X74038095Y-79052380D02*
X74038095Y-78052380D01*
X74609523Y-79052380D01*
X74609523Y-78052380D01*
X75514285Y-78052380D02*
X75323809Y-78052380D01*
X75228571Y-78100000D01*
X75180952Y-78147619D01*
X75085714Y-78290476D01*
X75038095Y-78480952D01*
X75038095Y-78861904D01*
X75085714Y-78957142D01*
X75133333Y-79004761D01*
X75228571Y-79052380D01*
X75419047Y-79052380D01*
X75514285Y-79004761D01*
X75561904Y-78957142D01*
X75609523Y-78861904D01*
X75609523Y-78623809D01*
X75561904Y-78528571D01*
X75514285Y-78480952D01*
X75419047Y-78433333D01*
X75228571Y-78433333D01*
X75133333Y-78480952D01*
X75085714Y-78528571D01*
X75038095Y-78623809D01*
X97661904Y-106952380D02*
X97661904Y-105952380D01*
X97900000Y-105952380D01*
X98042857Y-106000000D01*
X98138095Y-106095238D01*
X98185714Y-106190476D01*
X98233333Y-106380952D01*
X98233333Y-106523809D01*
X98185714Y-106714285D01*
X98138095Y-106809523D01*
X98042857Y-106904761D01*
X97900000Y-106952380D01*
X97661904Y-106952380D01*
X99138095Y-105952380D02*
X98661904Y-105952380D01*
X98614285Y-106428571D01*
X98661904Y-106380952D01*
X98757142Y-106333333D01*
X98995238Y-106333333D01*
X99090476Y-106380952D01*
X99138095Y-106428571D01*
X99185714Y-106523809D01*
X99185714Y-106761904D01*
X99138095Y-106857142D01*
X99090476Y-106904761D01*
X98995238Y-106952380D01*
X98757142Y-106952380D01*
X98661904Y-106904761D01*
X98614285Y-106857142D01*
X94657142Y-106922380D02*
X94323809Y-106446190D01*
X94085714Y-106922380D02*
X94085714Y-105922380D01*
X94466666Y-105922380D01*
X94561904Y-105970000D01*
X94609523Y-106017619D01*
X94657142Y-106112857D01*
X94657142Y-106255714D01*
X94609523Y-106350952D01*
X94561904Y-106398571D01*
X94466666Y-106446190D01*
X94085714Y-106446190D01*
X95609523Y-106922380D02*
X95038095Y-106922380D01*
X95323809Y-106922380D02*
X95323809Y-105922380D01*
X95228571Y-106065238D01*
X95133333Y-106160476D01*
X95038095Y-106208095D01*
X96466666Y-105922380D02*
X96276190Y-105922380D01*
X96180952Y-105970000D01*
X96133333Y-106017619D01*
X96038095Y-106160476D01*
X95990476Y-106350952D01*
X95990476Y-106731904D01*
X96038095Y-106827142D01*
X96085714Y-106874761D01*
X96180952Y-106922380D01*
X96371428Y-106922380D01*
X96466666Y-106874761D01*
X96514285Y-106827142D01*
X96561904Y-106731904D01*
X96561904Y-106493809D01*
X96514285Y-106398571D01*
X96466666Y-106350952D01*
X96371428Y-106303333D01*
X96180952Y-106303333D01*
X96085714Y-106350952D01*
X96038095Y-106398571D01*
X95990476Y-106493809D01*
X76652380Y-101961904D02*
X77461904Y-101961904D01*
X77557142Y-101914285D01*
X77604761Y-101866666D01*
X77652380Y-101771428D01*
X77652380Y-101580952D01*
X77604761Y-101485714D01*
X77557142Y-101438095D01*
X77461904Y-101390476D01*
X76652380Y-101390476D01*
X77652380Y-100866666D02*
X77652380Y-100676190D01*
X77604761Y-100580952D01*
X77557142Y-100533333D01*
X77414285Y-100438095D01*
X77223809Y-100390476D01*
X76842857Y-100390476D01*
X76747619Y-100438095D01*
X76700000Y-100485714D01*
X76652380Y-100580952D01*
X76652380Y-100771428D01*
X76700000Y-100866666D01*
X76747619Y-100914285D01*
X76842857Y-100961904D01*
X77080952Y-100961904D01*
X77176190Y-100914285D01*
X77223809Y-100866666D01*
X77271428Y-100771428D01*
X77271428Y-100580952D01*
X77223809Y-100485714D01*
X77176190Y-100438095D01*
X77080952Y-100390476D01*
X96476190Y-91976190D02*
X96952380Y-91976190D01*
X95952380Y-92309523D02*
X96476190Y-91976190D01*
X95952380Y-91642857D01*
X96952380Y-90785714D02*
X96952380Y-91357142D01*
X96952380Y-91071428D02*
X95952380Y-91071428D01*
X96095238Y-91166666D01*
X96190476Y-91261904D01*
X96238095Y-91357142D01*
X70623630Y-83990476D02*
X70671249Y-84038095D01*
X70718868Y-84180952D01*
X70718868Y-84276190D01*
X70671249Y-84419047D01*
X70576011Y-84514285D01*
X70480773Y-84561904D01*
X70290297Y-84609523D01*
X70147440Y-84609523D01*
X69956964Y-84561904D01*
X69861726Y-84514285D01*
X69766488Y-84419047D01*
X69718868Y-84276190D01*
X69718868Y-84180952D01*
X69766488Y-84038095D01*
X69814107Y-83990476D01*
X70718868Y-83561904D02*
X69718868Y-83561904D01*
X70718868Y-82990476D01*
X69718868Y-82990476D01*
X69718868Y-82038095D02*
X69718868Y-82514285D01*
X70195059Y-82561904D01*
X70147440Y-82514285D01*
X70099821Y-82419047D01*
X70099821Y-82180952D01*
X70147440Y-82085714D01*
X70195059Y-82038095D01*
X70290297Y-81990476D01*
X70528392Y-81990476D01*
X70623630Y-82038095D01*
X70671249Y-82085714D01*
X70718868Y-82180952D01*
X70718868Y-82419047D01*
X70671249Y-82514285D01*
X70623630Y-82561904D01*
X80557142Y-105366666D02*
X80604761Y-105414285D01*
X80652380Y-105557142D01*
X80652380Y-105652380D01*
X80604761Y-105795238D01*
X80509523Y-105890476D01*
X80414285Y-105938095D01*
X80223809Y-105985714D01*
X80080952Y-105985714D01*
X79890476Y-105938095D01*
X79795238Y-105890476D01*
X79700000Y-105795238D01*
X79652380Y-105652380D01*
X79652380Y-105557142D01*
X79700000Y-105414285D01*
X79747619Y-105366666D01*
X80652380Y-104890476D02*
X80652380Y-104700000D01*
X80604761Y-104604761D01*
X80557142Y-104557142D01*
X80414285Y-104461904D01*
X80223809Y-104414285D01*
X79842857Y-104414285D01*
X79747619Y-104461904D01*
X79700000Y-104509523D01*
X79652380Y-104604761D01*
X79652380Y-104795238D01*
X79700000Y-104890476D01*
X79747619Y-104938095D01*
X79842857Y-104985714D01*
X80080952Y-104985714D01*
X80176190Y-104938095D01*
X80223809Y-104890476D01*
X80271428Y-104795238D01*
X80271428Y-104604761D01*
X80223809Y-104509523D01*
X80176190Y-104461904D01*
X80080952Y-104414285D01*
X79052380Y-106242857D02*
X78576190Y-106576190D01*
X79052380Y-106814285D02*
X78052380Y-106814285D01*
X78052380Y-106433333D01*
X78100000Y-106338095D01*
X78147619Y-106290476D01*
X78242857Y-106242857D01*
X78385714Y-106242857D01*
X78480952Y-106290476D01*
X78528571Y-106338095D01*
X78576190Y-106433333D01*
X78576190Y-106814285D01*
X79052380Y-105290476D02*
X79052380Y-105861904D01*
X79052380Y-105576190D02*
X78052380Y-105576190D01*
X78195238Y-105671428D01*
X78290476Y-105766666D01*
X78338095Y-105861904D01*
X78052380Y-104957142D02*
X78052380Y-104338095D01*
X78433333Y-104671428D01*
X78433333Y-104528571D01*
X78480952Y-104433333D01*
X78528571Y-104385714D01*
X78623809Y-104338095D01*
X78861904Y-104338095D01*
X78957142Y-104385714D01*
X79004761Y-104433333D01*
X79052380Y-104528571D01*
X79052380Y-104814285D01*
X79004761Y-104909523D01*
X78957142Y-104957142D01*
X82152380Y-106242857D02*
X81676190Y-106576190D01*
X82152380Y-106814285D02*
X81152380Y-106814285D01*
X81152380Y-106433333D01*
X81200000Y-106338095D01*
X81247619Y-106290476D01*
X81342857Y-106242857D01*
X81485714Y-106242857D01*
X81580952Y-106290476D01*
X81628571Y-106338095D01*
X81676190Y-106433333D01*
X81676190Y-106814285D01*
X82152380Y-105290476D02*
X82152380Y-105861904D01*
X82152380Y-105576190D02*
X81152380Y-105576190D01*
X81295238Y-105671428D01*
X81390476Y-105766666D01*
X81438095Y-105861904D01*
X81485714Y-104433333D02*
X82152380Y-104433333D01*
X81104761Y-104671428D02*
X81819047Y-104909523D01*
X81819047Y-104290476D01*
X85357142Y-108452380D02*
X85023809Y-107976190D01*
X84785714Y-108452380D02*
X84785714Y-107452380D01*
X85166666Y-107452380D01*
X85261904Y-107500000D01*
X85309523Y-107547619D01*
X85357142Y-107642857D01*
X85357142Y-107785714D01*
X85309523Y-107880952D01*
X85261904Y-107928571D01*
X85166666Y-107976190D01*
X84785714Y-107976190D01*
X86309523Y-108452380D02*
X85738095Y-108452380D01*
X86023809Y-108452380D02*
X86023809Y-107452380D01*
X85928571Y-107595238D01*
X85833333Y-107690476D01*
X85738095Y-107738095D01*
X87214285Y-107452380D02*
X86738095Y-107452380D01*
X86690476Y-107928571D01*
X86738095Y-107880952D01*
X86833333Y-107833333D01*
X87071428Y-107833333D01*
X87166666Y-107880952D01*
X87214285Y-107928571D01*
X87261904Y-108023809D01*
X87261904Y-108261904D01*
X87214285Y-108357142D01*
X87166666Y-108404761D01*
X87071428Y-108452380D01*
X86833333Y-108452380D01*
X86738095Y-108404761D01*
X86690476Y-108357142D01*
X85233333Y-86087142D02*
X85185714Y-86134761D01*
X85042857Y-86182380D01*
X84947619Y-86182380D01*
X84804761Y-86134761D01*
X84709523Y-86039523D01*
X84661904Y-85944285D01*
X84614285Y-85753809D01*
X84614285Y-85610952D01*
X84661904Y-85420476D01*
X84709523Y-85325238D01*
X84804761Y-85230000D01*
X84947619Y-85182380D01*
X85042857Y-85182380D01*
X85185714Y-85230000D01*
X85233333Y-85277619D01*
X86185714Y-86182380D02*
X85614285Y-86182380D01*
X85900000Y-86182380D02*
X85900000Y-85182380D01*
X85804761Y-85325238D01*
X85709523Y-85420476D01*
X85614285Y-85468095D01*
X88233333Y-86087142D02*
X88185714Y-86134761D01*
X88042857Y-86182380D01*
X87947619Y-86182380D01*
X87804761Y-86134761D01*
X87709523Y-86039523D01*
X87661904Y-85944285D01*
X87614285Y-85753809D01*
X87614285Y-85610952D01*
X87661904Y-85420476D01*
X87709523Y-85325238D01*
X87804761Y-85230000D01*
X87947619Y-85182380D01*
X88042857Y-85182380D01*
X88185714Y-85230000D01*
X88233333Y-85277619D01*
X88614285Y-85277619D02*
X88661904Y-85230000D01*
X88757142Y-85182380D01*
X88995238Y-85182380D01*
X89090476Y-85230000D01*
X89138095Y-85277619D01*
X89185714Y-85372857D01*
X89185714Y-85468095D01*
X89138095Y-85610952D01*
X88566666Y-86182380D01*
X89185714Y-86182380D01*
X91233333Y-86087142D02*
X91185714Y-86134761D01*
X91042857Y-86182380D01*
X90947619Y-86182380D01*
X90804761Y-86134761D01*
X90709523Y-86039523D01*
X90661904Y-85944285D01*
X90614285Y-85753809D01*
X90614285Y-85610952D01*
X90661904Y-85420476D01*
X90709523Y-85325238D01*
X90804761Y-85230000D01*
X90947619Y-85182380D01*
X91042857Y-85182380D01*
X91185714Y-85230000D01*
X91233333Y-85277619D01*
X92138095Y-85182380D02*
X91661904Y-85182380D01*
X91614285Y-85658571D01*
X91661904Y-85610952D01*
X91757142Y-85563333D01*
X91995238Y-85563333D01*
X92090476Y-85610952D01*
X92138095Y-85658571D01*
X92185714Y-85753809D01*
X92185714Y-85991904D01*
X92138095Y-86087142D01*
X92090476Y-86134761D01*
X91995238Y-86182380D01*
X91757142Y-86182380D01*
X91661904Y-86134761D01*
X91614285Y-86087142D01*
X93757142Y-86087142D02*
X93709523Y-86134761D01*
X93566666Y-86182380D01*
X93471428Y-86182380D01*
X93328571Y-86134761D01*
X93233333Y-86039523D01*
X93185714Y-85944285D01*
X93138095Y-85753809D01*
X93138095Y-85610952D01*
X93185714Y-85420476D01*
X93233333Y-85325238D01*
X93328571Y-85230000D01*
X93471428Y-85182380D01*
X93566666Y-85182380D01*
X93709523Y-85230000D01*
X93757142Y-85277619D01*
X94709523Y-86182380D02*
X94138095Y-86182380D01*
X94423809Y-86182380D02*
X94423809Y-85182380D01*
X94328571Y-85325238D01*
X94233333Y-85420476D01*
X94138095Y-85468095D01*
X95328571Y-85182380D02*
X95423809Y-85182380D01*
X95519047Y-85230000D01*
X95566666Y-85277619D01*
X95614285Y-85372857D01*
X95661904Y-85563333D01*
X95661904Y-85801428D01*
X95614285Y-85991904D01*
X95566666Y-86087142D01*
X95519047Y-86134761D01*
X95423809Y-86182380D01*
X95328571Y-86182380D01*
X95233333Y-86134761D01*
X95185714Y-86087142D01*
X95138095Y-85991904D01*
X95090476Y-85801428D01*
X95090476Y-85563333D01*
X95138095Y-85372857D01*
X95185714Y-85277619D01*
X95233333Y-85230000D01*
X95328571Y-85182380D01*
X79457142Y-79990476D02*
X79504761Y-80038095D01*
X79552380Y-80180952D01*
X79552380Y-80276190D01*
X79504761Y-80419047D01*
X79409523Y-80514285D01*
X79314285Y-80561904D01*
X79123809Y-80609523D01*
X78980952Y-80609523D01*
X78790476Y-80561904D01*
X78695238Y-80514285D01*
X78600000Y-80419047D01*
X78552380Y-80276190D01*
X78552380Y-80180952D01*
X78600000Y-80038095D01*
X78647619Y-79990476D01*
X79552380Y-79561904D02*
X78552380Y-79561904D01*
X79552380Y-78990476D01*
X78552380Y-78990476D01*
X78980952Y-78371428D02*
X78933333Y-78466666D01*
X78885714Y-78514285D01*
X78790476Y-78561904D01*
X78742857Y-78561904D01*
X78647619Y-78514285D01*
X78600000Y-78466666D01*
X78552380Y-78371428D01*
X78552380Y-78180952D01*
X78600000Y-78085714D01*
X78647619Y-78038095D01*
X78742857Y-77990476D01*
X78790476Y-77990476D01*
X78885714Y-78038095D01*
X78933333Y-78085714D01*
X78980952Y-78180952D01*
X78980952Y-78371428D01*
X79028571Y-78466666D01*
X79076190Y-78514285D01*
X79171428Y-78561904D01*
X79361904Y-78561904D01*
X79457142Y-78514285D01*
X79504761Y-78466666D01*
X79552380Y-78371428D01*
X79552380Y-78180952D01*
X79504761Y-78085714D01*
X79457142Y-78038095D01*
X79361904Y-77990476D01*
X79171428Y-77990476D01*
X79076190Y-78038095D01*
X79028571Y-78085714D01*
X78980952Y-78180952D01*
X109212142Y-77961666D02*
X109259761Y-78009285D01*
X109307380Y-78152142D01*
X109307380Y-78247380D01*
X109259761Y-78390238D01*
X109164523Y-78485476D01*
X109069285Y-78533095D01*
X108878809Y-78580714D01*
X108735952Y-78580714D01*
X108545476Y-78533095D01*
X108450238Y-78485476D01*
X108355000Y-78390238D01*
X108307380Y-78247380D01*
X108307380Y-78152142D01*
X108355000Y-78009285D01*
X108402619Y-77961666D01*
X109307380Y-77533095D02*
X108307380Y-77533095D01*
X109307380Y-76961666D01*
X108307380Y-76961666D01*
X109307380Y-75961666D02*
X109307380Y-76533095D01*
X109307380Y-76247380D02*
X108307380Y-76247380D01*
X108450238Y-76342619D01*
X108545476Y-76437857D01*
X108593095Y-76533095D01*
X109307380Y-75009285D02*
X109307380Y-75580714D01*
X109307380Y-75295000D02*
X108307380Y-75295000D01*
X108450238Y-75390238D01*
X108545476Y-75485476D01*
X108593095Y-75580714D01*
X83622380Y-81566666D02*
X83146190Y-81900000D01*
X83622380Y-82138095D02*
X82622380Y-82138095D01*
X82622380Y-81757142D01*
X82670000Y-81661904D01*
X82717619Y-81614285D01*
X82812857Y-81566666D01*
X82955714Y-81566666D01*
X83050952Y-81614285D01*
X83098571Y-81661904D01*
X83146190Y-81757142D01*
X83146190Y-82138095D01*
X82955714Y-80709523D02*
X83622380Y-80709523D01*
X82574761Y-80947619D02*
X83289047Y-81185714D01*
X83289047Y-80566666D01*
X90852380Y-83666666D02*
X90376190Y-84000000D01*
X90852380Y-84238095D02*
X89852380Y-84238095D01*
X89852380Y-83857142D01*
X89900000Y-83761904D01*
X89947619Y-83714285D01*
X90042857Y-83666666D01*
X90185714Y-83666666D01*
X90280952Y-83714285D01*
X90328571Y-83761904D01*
X90376190Y-83857142D01*
X90376190Y-84238095D01*
X89852380Y-82809523D02*
X89852380Y-83000000D01*
X89900000Y-83095238D01*
X89947619Y-83142857D01*
X90090476Y-83238095D01*
X90280952Y-83285714D01*
X90661904Y-83285714D01*
X90757142Y-83238095D01*
X90804761Y-83190476D01*
X90852380Y-83095238D01*
X90852380Y-82904761D01*
X90804761Y-82809523D01*
X90757142Y-82761904D01*
X90661904Y-82714285D01*
X90423809Y-82714285D01*
X90328571Y-82761904D01*
X90280952Y-82809523D01*
X90233333Y-82904761D01*
X90233333Y-83095238D01*
X90280952Y-83190476D01*
X90328571Y-83238095D01*
X90423809Y-83285714D01*
X95133333Y-83552380D02*
X94800000Y-83076190D01*
X94561904Y-83552380D02*
X94561904Y-82552380D01*
X94942857Y-82552380D01*
X95038095Y-82600000D01*
X95085714Y-82647619D01*
X95133333Y-82742857D01*
X95133333Y-82885714D01*
X95085714Y-82980952D01*
X95038095Y-83028571D01*
X94942857Y-83076190D01*
X94561904Y-83076190D01*
X95466666Y-82552380D02*
X96133333Y-82552380D01*
X95704761Y-83552380D01*
X89752380Y-84042857D02*
X89276190Y-84376190D01*
X89752380Y-84614285D02*
X88752380Y-84614285D01*
X88752380Y-84233333D01*
X88800000Y-84138095D01*
X88847619Y-84090476D01*
X88942857Y-84042857D01*
X89085714Y-84042857D01*
X89180952Y-84090476D01*
X89228571Y-84138095D01*
X89276190Y-84233333D01*
X89276190Y-84614285D01*
X89752380Y-83090476D02*
X89752380Y-83661904D01*
X89752380Y-83376190D02*
X88752380Y-83376190D01*
X88895238Y-83471428D01*
X88990476Y-83566666D01*
X89038095Y-83661904D01*
X88752380Y-82757142D02*
X88752380Y-82090476D01*
X89752380Y-82519047D01*
X91957142Y-83552380D02*
X91623809Y-83076190D01*
X91385714Y-83552380D02*
X91385714Y-82552380D01*
X91766666Y-82552380D01*
X91861904Y-82600000D01*
X91909523Y-82647619D01*
X91957142Y-82742857D01*
X91957142Y-82885714D01*
X91909523Y-82980952D01*
X91861904Y-83028571D01*
X91766666Y-83076190D01*
X91385714Y-83076190D01*
X92909523Y-83552380D02*
X92338095Y-83552380D01*
X92623809Y-83552380D02*
X92623809Y-82552380D01*
X92528571Y-82695238D01*
X92433333Y-82790476D01*
X92338095Y-82838095D01*
X93480952Y-82980952D02*
X93385714Y-82933333D01*
X93338095Y-82885714D01*
X93290476Y-82790476D01*
X93290476Y-82742857D01*
X93338095Y-82647619D01*
X93385714Y-82600000D01*
X93480952Y-82552380D01*
X93671428Y-82552380D01*
X93766666Y-82600000D01*
X93814285Y-82647619D01*
X93861904Y-82742857D01*
X93861904Y-82790476D01*
X93814285Y-82885714D01*
X93766666Y-82933333D01*
X93671428Y-82980952D01*
X93480952Y-82980952D01*
X93385714Y-83028571D01*
X93338095Y-83076190D01*
X93290476Y-83171428D01*
X93290476Y-83361904D01*
X93338095Y-83457142D01*
X93385714Y-83504761D01*
X93480952Y-83552380D01*
X93671428Y-83552380D01*
X93766666Y-83504761D01*
X93814285Y-83457142D01*
X93861904Y-83361904D01*
X93861904Y-83171428D01*
X93814285Y-83076190D01*
X93766666Y-83028571D01*
X93671428Y-82980952D01*
X96852380Y-81742857D02*
X96376190Y-82076190D01*
X96852380Y-82314285D02*
X95852380Y-82314285D01*
X95852380Y-81933333D01*
X95900000Y-81838095D01*
X95947619Y-81790476D01*
X96042857Y-81742857D01*
X96185714Y-81742857D01*
X96280952Y-81790476D01*
X96328571Y-81838095D01*
X96376190Y-81933333D01*
X96376190Y-82314285D01*
X96852380Y-80790476D02*
X96852380Y-81361904D01*
X96852380Y-81076190D02*
X95852380Y-81076190D01*
X95995238Y-81171428D01*
X96090476Y-81266666D01*
X96138095Y-81361904D01*
X96852380Y-80314285D02*
X96852380Y-80123809D01*
X96804761Y-80028571D01*
X96757142Y-79980952D01*
X96614285Y-79885714D01*
X96423809Y-79838095D01*
X96042857Y-79838095D01*
X95947619Y-79885714D01*
X95900000Y-79933333D01*
X95852380Y-80028571D01*
X95852380Y-80219047D01*
X95900000Y-80314285D01*
X95947619Y-80361904D01*
X96042857Y-80409523D01*
X96280952Y-80409523D01*
X96376190Y-80361904D01*
X96423809Y-80314285D01*
X96471428Y-80219047D01*
X96471428Y-80028571D01*
X96423809Y-79933333D01*
X96376190Y-79885714D01*
X96280952Y-79838095D01*
X99352380Y-85042857D02*
X98876190Y-85376190D01*
X99352380Y-85614285D02*
X98352380Y-85614285D01*
X98352380Y-85233333D01*
X98400000Y-85138095D01*
X98447619Y-85090476D01*
X98542857Y-85042857D01*
X98685714Y-85042857D01*
X98780952Y-85090476D01*
X98828571Y-85138095D01*
X98876190Y-85233333D01*
X98876190Y-85614285D01*
X98447619Y-84661904D02*
X98400000Y-84614285D01*
X98352380Y-84519047D01*
X98352380Y-84280952D01*
X98400000Y-84185714D01*
X98447619Y-84138095D01*
X98542857Y-84090476D01*
X98638095Y-84090476D01*
X98780952Y-84138095D01*
X99352380Y-84709523D01*
X99352380Y-84090476D01*
X98352380Y-83471428D02*
X98352380Y-83376190D01*
X98400000Y-83280952D01*
X98447619Y-83233333D01*
X98542857Y-83185714D01*
X98733333Y-83138095D01*
X98971428Y-83138095D01*
X99161904Y-83185714D01*
X99257142Y-83233333D01*
X99304761Y-83280952D01*
X99352380Y-83376190D01*
X99352380Y-83471428D01*
X99304761Y-83566666D01*
X99257142Y-83614285D01*
X99161904Y-83661904D01*
X98971428Y-83709523D01*
X98733333Y-83709523D01*
X98542857Y-83661904D01*
X98447619Y-83614285D01*
X98400000Y-83566666D01*
X98352380Y-83471428D01*
X100952380Y-85042857D02*
X100476190Y-85376190D01*
X100952380Y-85614285D02*
X99952380Y-85614285D01*
X99952380Y-85233333D01*
X100000000Y-85138095D01*
X100047619Y-85090476D01*
X100142857Y-85042857D01*
X100285714Y-85042857D01*
X100380952Y-85090476D01*
X100428571Y-85138095D01*
X100476190Y-85233333D01*
X100476190Y-85614285D01*
X100047619Y-84661904D02*
X100000000Y-84614285D01*
X99952380Y-84519047D01*
X99952380Y-84280952D01*
X100000000Y-84185714D01*
X100047619Y-84138095D01*
X100142857Y-84090476D01*
X100238095Y-84090476D01*
X100380952Y-84138095D01*
X100952380Y-84709523D01*
X100952380Y-84090476D01*
X100952380Y-83138095D02*
X100952380Y-83709523D01*
X100952380Y-83423809D02*
X99952380Y-83423809D01*
X100095238Y-83519047D01*
X100190476Y-83614285D01*
X100238095Y-83709523D01*
X82352380Y-84042857D02*
X81876190Y-84376190D01*
X82352380Y-84614285D02*
X81352380Y-84614285D01*
X81352380Y-84233333D01*
X81400000Y-84138095D01*
X81447619Y-84090476D01*
X81542857Y-84042857D01*
X81685714Y-84042857D01*
X81780952Y-84090476D01*
X81828571Y-84138095D01*
X81876190Y-84233333D01*
X81876190Y-84614285D01*
X81447619Y-83661904D02*
X81400000Y-83614285D01*
X81352380Y-83519047D01*
X81352380Y-83280952D01*
X81400000Y-83185714D01*
X81447619Y-83138095D01*
X81542857Y-83090476D01*
X81638095Y-83090476D01*
X81780952Y-83138095D01*
X82352380Y-83709523D01*
X82352380Y-83090476D01*
X81447619Y-82709523D02*
X81400000Y-82661904D01*
X81352380Y-82566666D01*
X81352380Y-82328571D01*
X81400000Y-82233333D01*
X81447619Y-82185714D01*
X81542857Y-82138095D01*
X81638095Y-82138095D01*
X81780952Y-82185714D01*
X82352380Y-82757142D01*
X82352380Y-82138095D01*
X78252380Y-84142857D02*
X77776190Y-84476190D01*
X78252380Y-84714285D02*
X77252380Y-84714285D01*
X77252380Y-84333333D01*
X77300000Y-84238095D01*
X77347619Y-84190476D01*
X77442857Y-84142857D01*
X77585714Y-84142857D01*
X77680952Y-84190476D01*
X77728571Y-84238095D01*
X77776190Y-84333333D01*
X77776190Y-84714285D01*
X77347619Y-83761904D02*
X77300000Y-83714285D01*
X77252380Y-83619047D01*
X77252380Y-83380952D01*
X77300000Y-83285714D01*
X77347619Y-83238095D01*
X77442857Y-83190476D01*
X77538095Y-83190476D01*
X77680952Y-83238095D01*
X78252380Y-83809523D01*
X78252380Y-83190476D01*
X77252380Y-82857142D02*
X77252380Y-82238095D01*
X77633333Y-82571428D01*
X77633333Y-82428571D01*
X77680952Y-82333333D01*
X77728571Y-82285714D01*
X77823809Y-82238095D01*
X78061904Y-82238095D01*
X78157142Y-82285714D01*
X78204761Y-82333333D01*
X78252380Y-82428571D01*
X78252380Y-82714285D01*
X78204761Y-82809523D01*
X78157142Y-82857142D01*
X103652380Y-84942857D02*
X103176190Y-85276190D01*
X103652380Y-85514285D02*
X102652380Y-85514285D01*
X102652380Y-85133333D01*
X102700000Y-85038095D01*
X102747619Y-84990476D01*
X102842857Y-84942857D01*
X102985714Y-84942857D01*
X103080952Y-84990476D01*
X103128571Y-85038095D01*
X103176190Y-85133333D01*
X103176190Y-85514285D01*
X102747619Y-84561904D02*
X102700000Y-84514285D01*
X102652380Y-84419047D01*
X102652380Y-84180952D01*
X102700000Y-84085714D01*
X102747619Y-84038095D01*
X102842857Y-83990476D01*
X102938095Y-83990476D01*
X103080952Y-84038095D01*
X103652380Y-84609523D01*
X103652380Y-83990476D01*
X102985714Y-83133333D02*
X103652380Y-83133333D01*
X102604761Y-83371428D02*
X103319047Y-83609523D01*
X103319047Y-82990476D01*
X106882380Y-82042857D02*
X106406190Y-82376190D01*
X106882380Y-82614285D02*
X105882380Y-82614285D01*
X105882380Y-82233333D01*
X105930000Y-82138095D01*
X105977619Y-82090476D01*
X106072857Y-82042857D01*
X106215714Y-82042857D01*
X106310952Y-82090476D01*
X106358571Y-82138095D01*
X106406190Y-82233333D01*
X106406190Y-82614285D01*
X105977619Y-81661904D02*
X105930000Y-81614285D01*
X105882380Y-81519047D01*
X105882380Y-81280952D01*
X105930000Y-81185714D01*
X105977619Y-81138095D01*
X106072857Y-81090476D01*
X106168095Y-81090476D01*
X106310952Y-81138095D01*
X106882380Y-81709523D01*
X106882380Y-81090476D01*
X105882380Y-80185714D02*
X105882380Y-80661904D01*
X106358571Y-80709523D01*
X106310952Y-80661904D01*
X106263333Y-80566666D01*
X106263333Y-80328571D01*
X106310952Y-80233333D01*
X106358571Y-80185714D01*
X106453809Y-80138095D01*
X106691904Y-80138095D01*
X106787142Y-80185714D01*
X106834761Y-80233333D01*
X106882380Y-80328571D01*
X106882380Y-80566666D01*
X106834761Y-80661904D01*
X106787142Y-80709523D01*
X90566666Y-103904761D02*
X90709523Y-103952380D01*
X90947619Y-103952380D01*
X91042857Y-103904761D01*
X91090476Y-103857142D01*
X91138095Y-103761904D01*
X91138095Y-103666666D01*
X91090476Y-103571428D01*
X91042857Y-103523809D01*
X90947619Y-103476190D01*
X90757142Y-103428571D01*
X90661904Y-103380952D01*
X90614285Y-103333333D01*
X90566666Y-103238095D01*
X90566666Y-103142857D01*
X90614285Y-103047619D01*
X90661904Y-103000000D01*
X90757142Y-102952380D01*
X90995238Y-102952380D01*
X91138095Y-103000000D01*
X91471428Y-102952380D02*
X91709523Y-103952380D01*
X91900000Y-103238095D01*
X92090476Y-103952380D01*
X92328571Y-102952380D01*
X93233333Y-103952380D02*
X92661904Y-103952380D01*
X92947619Y-103952380D02*
X92947619Y-102952380D01*
X92852380Y-103095238D01*
X92757142Y-103190476D01*
X92661904Y-103238095D01*
X84633333Y-83552380D02*
X84300000Y-83076190D01*
X84061904Y-83552380D02*
X84061904Y-82552380D01*
X84442857Y-82552380D01*
X84538095Y-82600000D01*
X84585714Y-82647619D01*
X84633333Y-82742857D01*
X84633333Y-82885714D01*
X84585714Y-82980952D01*
X84538095Y-83028571D01*
X84442857Y-83076190D01*
X84061904Y-83076190D01*
X85204761Y-82980952D02*
X85109523Y-82933333D01*
X85061904Y-82885714D01*
X85014285Y-82790476D01*
X85014285Y-82742857D01*
X85061904Y-82647619D01*
X85109523Y-82600000D01*
X85204761Y-82552380D01*
X85395238Y-82552380D01*
X85490476Y-82600000D01*
X85538095Y-82647619D01*
X85585714Y-82742857D01*
X85585714Y-82790476D01*
X85538095Y-82885714D01*
X85490476Y-82933333D01*
X85395238Y-82980952D01*
X85204761Y-82980952D01*
X85109523Y-83028571D01*
X85061904Y-83076190D01*
X85014285Y-83171428D01*
X85014285Y-83361904D01*
X85061904Y-83457142D01*
X85109523Y-83504761D01*
X85204761Y-83552380D01*
X85395238Y-83552380D01*
X85490476Y-83504761D01*
X85538095Y-83457142D01*
X85585714Y-83361904D01*
X85585714Y-83171428D01*
X85538095Y-83076190D01*
X85490476Y-83028571D01*
X85395238Y-82980952D01*
X100657142Y-90566666D02*
X100704761Y-90614285D01*
X100752380Y-90757142D01*
X100752380Y-90852380D01*
X100704761Y-90995238D01*
X100609523Y-91090476D01*
X100514285Y-91138095D01*
X100323809Y-91185714D01*
X100180952Y-91185714D01*
X99990476Y-91138095D01*
X99895238Y-91090476D01*
X99800000Y-90995238D01*
X99752380Y-90852380D01*
X99752380Y-90757142D01*
X99800000Y-90614285D01*
X99847619Y-90566666D01*
X99752380Y-90233333D02*
X99752380Y-89566666D01*
X100752380Y-89995238D01*
X87433333Y-83652380D02*
X87100000Y-83176190D01*
X86861904Y-83652380D02*
X86861904Y-82652380D01*
X87242857Y-82652380D01*
X87338095Y-82700000D01*
X87385714Y-82747619D01*
X87433333Y-82842857D01*
X87433333Y-82985714D01*
X87385714Y-83080952D01*
X87338095Y-83128571D01*
X87242857Y-83176190D01*
X86861904Y-83176190D01*
X88338095Y-82652380D02*
X87861904Y-82652380D01*
X87814285Y-83128571D01*
X87861904Y-83080952D01*
X87957142Y-83033333D01*
X88195238Y-83033333D01*
X88290476Y-83080952D01*
X88338095Y-83128571D01*
X88385714Y-83223809D01*
X88385714Y-83461904D01*
X88338095Y-83557142D01*
X88290476Y-83604761D01*
X88195238Y-83652380D01*
X87957142Y-83652380D01*
X87861904Y-83604761D01*
X87814285Y-83557142D01*
X98233333Y-97257142D02*
X98185714Y-97304761D01*
X98042857Y-97352380D01*
X97947619Y-97352380D01*
X97804761Y-97304761D01*
X97709523Y-97209523D01*
X97661904Y-97114285D01*
X97614285Y-96923809D01*
X97614285Y-96780952D01*
X97661904Y-96590476D01*
X97709523Y-96495238D01*
X97804761Y-96400000D01*
X97947619Y-96352380D01*
X98042857Y-96352380D01*
X98185714Y-96400000D01*
X98233333Y-96447619D01*
X98804761Y-96780952D02*
X98709523Y-96733333D01*
X98661904Y-96685714D01*
X98614285Y-96590476D01*
X98614285Y-96542857D01*
X98661904Y-96447619D01*
X98709523Y-96400000D01*
X98804761Y-96352380D01*
X98995238Y-96352380D01*
X99090476Y-96400000D01*
X99138095Y-96447619D01*
X99185714Y-96542857D01*
X99185714Y-96590476D01*
X99138095Y-96685714D01*
X99090476Y-96733333D01*
X98995238Y-96780952D01*
X98804761Y-96780952D01*
X98709523Y-96828571D01*
X98661904Y-96876190D01*
X98614285Y-96971428D01*
X98614285Y-97161904D01*
X98661904Y-97257142D01*
X98709523Y-97304761D01*
X98804761Y-97352380D01*
X98995238Y-97352380D01*
X99090476Y-97304761D01*
X99138095Y-97257142D01*
X99185714Y-97161904D01*
X99185714Y-96971428D01*
X99138095Y-96876190D01*
X99090476Y-96828571D01*
X98995238Y-96780952D01*
X91461904Y-106952380D02*
X91461904Y-105952380D01*
X91700000Y-105952380D01*
X91842857Y-106000000D01*
X91938095Y-106095238D01*
X91985714Y-106190476D01*
X92033333Y-106380952D01*
X92033333Y-106523809D01*
X91985714Y-106714285D01*
X91938095Y-106809523D01*
X91842857Y-106904761D01*
X91700000Y-106952380D01*
X91461904Y-106952380D01*
X92890476Y-106285714D02*
X92890476Y-106952380D01*
X92652380Y-105904761D02*
X92414285Y-106619047D01*
X93033333Y-106619047D01*
X108333333Y-92357142D02*
X108285714Y-92404761D01*
X108142857Y-92452380D01*
X108047619Y-92452380D01*
X107904761Y-92404761D01*
X107809523Y-92309523D01*
X107761904Y-92214285D01*
X107714285Y-92023809D01*
X107714285Y-91880952D01*
X107761904Y-91690476D01*
X107809523Y-91595238D01*
X107904761Y-91500000D01*
X108047619Y-91452380D01*
X108142857Y-91452380D01*
X108285714Y-91500000D01*
X108333333Y-91547619D01*
X108761904Y-92452380D02*
X108761904Y-91452380D01*
X109333333Y-92452380D01*
X109333333Y-91452380D01*
X110333333Y-92452380D02*
X109761904Y-92452380D01*
X110047619Y-92452380D02*
X110047619Y-91452380D01*
X109952380Y-91595238D01*
X109857142Y-91690476D01*
X109761904Y-91738095D01*
X110714285Y-91547619D02*
X110761904Y-91500000D01*
X110857142Y-91452380D01*
X111095238Y-91452380D01*
X111190476Y-91500000D01*
X111238095Y-91547619D01*
X111285714Y-91642857D01*
X111285714Y-91738095D01*
X111238095Y-91880952D01*
X110666666Y-92452380D01*
X111285714Y-92452380D01*
X76628571Y-81433333D02*
X76628571Y-81766666D01*
X77152380Y-81766666D02*
X76152380Y-81766666D01*
X76152380Y-81290476D01*
X77152380Y-80385714D02*
X77152380Y-80957142D01*
X77152380Y-80671428D02*
X76152380Y-80671428D01*
X76295238Y-80766666D01*
X76390476Y-80861904D01*
X76438095Y-80957142D01*
X70657142Y-100957142D02*
X70609523Y-101004761D01*
X70466666Y-101052380D01*
X70371428Y-101052380D01*
X70228571Y-101004761D01*
X70133333Y-100909523D01*
X70085714Y-100814285D01*
X70038095Y-100623809D01*
X70038095Y-100480952D01*
X70085714Y-100290476D01*
X70133333Y-100195238D01*
X70228571Y-100100000D01*
X70371428Y-100052380D01*
X70466666Y-100052380D01*
X70609523Y-100100000D01*
X70657142Y-100147619D01*
X71609523Y-101052380D02*
X71038095Y-101052380D01*
X71323809Y-101052380D02*
X71323809Y-100052380D01*
X71228571Y-100195238D01*
X71133333Y-100290476D01*
X71038095Y-100338095D01*
X71990476Y-100147619D02*
X72038095Y-100100000D01*
X72133333Y-100052380D01*
X72371428Y-100052380D01*
X72466666Y-100100000D01*
X72514285Y-100147619D01*
X72561904Y-100242857D01*
X72561904Y-100338095D01*
X72514285Y-100480952D01*
X71942857Y-101052380D01*
X72561904Y-101052380D01*
X71957142Y-93742857D02*
X72004761Y-93790476D01*
X72052380Y-93933333D01*
X72052380Y-94028571D01*
X72004761Y-94171428D01*
X71909523Y-94266666D01*
X71814285Y-94314285D01*
X71623809Y-94361904D01*
X71480952Y-94361904D01*
X71290476Y-94314285D01*
X71195238Y-94266666D01*
X71100000Y-94171428D01*
X71052380Y-94028571D01*
X71052380Y-93933333D01*
X71100000Y-93790476D01*
X71147619Y-93742857D01*
X72052380Y-92790476D02*
X72052380Y-93361904D01*
X72052380Y-93076190D02*
X71052380Y-93076190D01*
X71195238Y-93171428D01*
X71290476Y-93266666D01*
X71338095Y-93361904D01*
X72052380Y-91838095D02*
X72052380Y-92409523D01*
X72052380Y-92123809D02*
X71052380Y-92123809D01*
X71195238Y-92219047D01*
X71290476Y-92314285D01*
X71338095Y-92409523D01*
D14*
X80322500Y-88437258D02*
X80322500Y-87962742D01*
X79277500Y-88437258D02*
X79277500Y-87962742D01*
X83315000Y-92200000D02*
X83315000Y-88340000D01*
X83315000Y-92200000D02*
X83315000Y-96060000D01*
X83315000Y-96060000D02*
X83560000Y-96060000D01*
X83315000Y-88340000D02*
X83560000Y-88340000D01*
X95085000Y-92200000D02*
X95085000Y-88340000D01*
X83560000Y-96060000D02*
X83560000Y-97875000D01*
X95085000Y-96060000D02*
X94840000Y-96060000D01*
X95085000Y-92200000D02*
X95085000Y-96060000D01*
X95085000Y-88340000D02*
X94840000Y-88340000D01*
X81790000Y-91159420D02*
X81790000Y-91440580D01*
X82810000Y-91159420D02*
X82810000Y-91440580D01*
X78859420Y-92510000D02*
X79140580Y-92510000D01*
X78859420Y-91490000D02*
X79140580Y-91490000D01*
X97322500Y-88162742D02*
X97322500Y-88637258D01*
X96277500Y-88162742D02*
X96277500Y-88637258D01*
X82022500Y-88437258D02*
X82022500Y-87962742D01*
X80977500Y-88437258D02*
X80977500Y-87962742D01*
X100510000Y-87859420D02*
X100510000Y-88140580D01*
X99490000Y-87859420D02*
X99490000Y-88140580D01*
X110915000Y-99310000D02*
X110915000Y-98260000D01*
X115385000Y-98140000D02*
X115385000Y-94260000D01*
X113415000Y-93090000D02*
X110915000Y-93090000D01*
X110915000Y-93090000D02*
X110915000Y-94140000D01*
X110915000Y-98260000D02*
X109925000Y-98260000D01*
X113415000Y-99310000D02*
X110915000Y-99310000D01*
X70690000Y-107415000D02*
X70690000Y-104915000D01*
X70690000Y-104915000D02*
X71740000Y-104915000D01*
X71860000Y-109385000D02*
X75740000Y-109385000D01*
X76910000Y-104915000D02*
X75860000Y-104915000D01*
X71740000Y-104915000D02*
X71740000Y-103925000D01*
X76910000Y-107415000D02*
X76910000Y-104915000D01*
X107220000Y-112440000D02*
X107220000Y-118440000D01*
X100490000Y-109780000D02*
X100490000Y-112440000D01*
X106860000Y-112440000D02*
X106860000Y-118440000D01*
X106980000Y-112440000D02*
X106980000Y-118440000D01*
X106520000Y-106910000D02*
X106520000Y-107297071D01*
X103980000Y-118440000D02*
X103980000Y-112440000D01*
X102200000Y-118440000D02*
X101440000Y-118440000D01*
X100490000Y-112440000D02*
X108230000Y-112440000D01*
X103980000Y-109382929D02*
X103980000Y-109780000D01*
X106900000Y-104530000D02*
X108170000Y-104530000D01*
X104740000Y-109382929D02*
X104740000Y-109780000D01*
X107280000Y-106910000D02*
X107280000Y-107297071D01*
X106620000Y-112440000D02*
X106620000Y-118440000D01*
X101440000Y-118440000D02*
X101440000Y-112440000D01*
X107280000Y-118440000D02*
X106520000Y-118440000D01*
X101440000Y-106842929D02*
X101440000Y-107297071D01*
X107280000Y-109382929D02*
X107280000Y-109780000D01*
X108230000Y-112440000D02*
X108230000Y-109780000D01*
X104740000Y-112440000D02*
X104740000Y-118440000D01*
X107100000Y-112440000D02*
X107100000Y-118440000D01*
X106740000Y-112440000D02*
X106740000Y-118440000D01*
X105630000Y-109780000D02*
X105630000Y-112440000D01*
X108230000Y-109780000D02*
X100490000Y-109780000D01*
X104740000Y-106842929D02*
X104740000Y-107297071D01*
X102200000Y-112440000D02*
X102200000Y-118440000D01*
X106520000Y-109382929D02*
X106520000Y-109780000D01*
X107280000Y-112440000D02*
X107280000Y-118440000D01*
X106520000Y-118440000D02*
X106520000Y-112440000D01*
X102200000Y-106842929D02*
X102200000Y-107297071D01*
X103980000Y-106842929D02*
X103980000Y-107297071D01*
X101440000Y-109382929D02*
X101440000Y-109780000D01*
X102200000Y-109382929D02*
X102200000Y-109780000D01*
X108170000Y-104530000D02*
X108170000Y-105800000D01*
X103090000Y-109780000D02*
X103090000Y-112440000D01*
X104740000Y-118440000D02*
X103980000Y-118440000D01*
X73100000Y-80450000D02*
X73100000Y-84350000D01*
X73100000Y-80450000D02*
X71100000Y-80450000D01*
X71100000Y-80450000D02*
X71100000Y-84350000D01*
X106760000Y-94400000D02*
X106760000Y-96350000D01*
X101640000Y-94400000D02*
X101640000Y-92450000D01*
X106760000Y-94400000D02*
X106760000Y-92450000D01*
X101640000Y-94400000D02*
X101640000Y-97850000D01*
X102977500Y-88862742D02*
X102977500Y-89337258D01*
X104022500Y-88862742D02*
X104022500Y-89337258D01*
X104477500Y-88862742D02*
X104477500Y-89337258D01*
X105522500Y-88862742D02*
X105522500Y-89337258D01*
X107222500Y-102162742D02*
X107222500Y-102637258D01*
X106177500Y-102162742D02*
X106177500Y-102637258D01*
X103977500Y-102637258D02*
X103977500Y-102162742D01*
X105022500Y-102637258D02*
X105022500Y-102162742D01*
X65140000Y-93935000D02*
X65140000Y-99865000D01*
X69410000Y-92665000D02*
X69410000Y-94465000D01*
X67960000Y-92665000D02*
X69410000Y-92665000D01*
X67960000Y-101135000D02*
X69410000Y-101135000D01*
X69410000Y-94465000D02*
X70400000Y-94465000D01*
X69410000Y-101135000D02*
X69410000Y-99335000D01*
D13*
X72740000Y-71150000D02*
X71470000Y-69880000D01*
X72740000Y-71150000D02*
X74010000Y-69880000D01*
X77460000Y-71150000D02*
X78730000Y-69880000D01*
X79505000Y-77700000D02*
X79505000Y-68500000D01*
X77460000Y-68610000D02*
X77460000Y-71150000D01*
X70695000Y-77700000D02*
X70695000Y-68500000D01*
X72740000Y-71150000D02*
X72740000Y-68610000D01*
X79505000Y-77700000D02*
X70695000Y-77700000D01*
X77460000Y-71150000D02*
X76190000Y-69880000D01*
X79505000Y-68500000D02*
X70695000Y-68500000D01*
D14*
X99885000Y-107165000D02*
X97600000Y-107165000D01*
X99885000Y-108635000D02*
X99885000Y-107165000D01*
X97600000Y-108635000D02*
X99885000Y-108635000D01*
X95062742Y-108422500D02*
X95537258Y-108422500D01*
X95062742Y-107377500D02*
X95537258Y-107377500D01*
G36*
X98739942Y-97839439D02*
G01*
X99066702Y-97898380D01*
X99388947Y-97987282D01*
X99704670Y-98106286D01*
X99847586Y-98171379D01*
X100073954Y-98288582D01*
X100280863Y-98414097D01*
X100476173Y-98553478D01*
X100667746Y-98712276D01*
X100837429Y-98870485D01*
X101069452Y-99118539D01*
X101275070Y-99382826D01*
X101453952Y-99661463D01*
X101605764Y-99952566D01*
X101730177Y-100254251D01*
X101826858Y-100564635D01*
X101895476Y-100881832D01*
X101935698Y-101203961D01*
X101947194Y-101529135D01*
X101929631Y-101855473D01*
X101882678Y-102181089D01*
X101806002Y-102504100D01*
X101699274Y-102822623D01*
X101581322Y-103095437D01*
X101468031Y-103315532D01*
X101347883Y-103515605D01*
X101215443Y-103703249D01*
X101065281Y-103886054D01*
X100891963Y-104071612D01*
X100859118Y-104104664D01*
X100731503Y-104228929D01*
X100616037Y-104333975D01*
X100505459Y-104425711D01*
X100392509Y-104510044D01*
X100269924Y-104592880D01*
X100219370Y-104625154D01*
X99933767Y-104787170D01*
X99633375Y-104923552D01*
X99321711Y-105033399D01*
X99002295Y-105115813D01*
X98678643Y-105169895D01*
X98354272Y-105194745D01*
X98032702Y-105189465D01*
X98015875Y-105188332D01*
X97675897Y-105149091D01*
X97344968Y-105080244D01*
X97024661Y-104982937D01*
X96716552Y-104858319D01*
X96422219Y-104707538D01*
X96143235Y-104531741D01*
X95881178Y-104332077D01*
X95637623Y-104109693D01*
X95414145Y-103865738D01*
X95212321Y-103601360D01*
X95033727Y-103317705D01*
X94879937Y-103015923D01*
X94810810Y-102853514D01*
X94781190Y-102774672D01*
X94751218Y-102687105D01*
X94722380Y-102596131D01*
X94696161Y-102507066D01*
X94674048Y-102425228D01*
X94657525Y-102355935D01*
X94648079Y-102304502D01*
X94647195Y-102276249D01*
X94648674Y-102273225D01*
X94668811Y-102268602D01*
X94714716Y-102265401D01*
X94780429Y-102263822D01*
X94859991Y-102264065D01*
X94898721Y-102264823D01*
X94991913Y-102267500D01*
X95059950Y-102270883D01*
X95109425Y-102275968D01*
X95146931Y-102283749D01*
X95179060Y-102295223D01*
X95212406Y-102311384D01*
X95214574Y-102312517D01*
X95275666Y-102349745D01*
X95330503Y-102395892D01*
X95382405Y-102455259D01*
X95434691Y-102532146D01*
X95490679Y-102630853D01*
X95548716Y-102745460D01*
X95699670Y-103024677D01*
X95867237Y-103277223D01*
X96051952Y-103503808D01*
X96254350Y-103705138D01*
X96312224Y-103755364D01*
X96563173Y-103947585D01*
X96824053Y-104109653D01*
X97094973Y-104241609D01*
X97376038Y-104343492D01*
X97667358Y-104415342D01*
X97969038Y-104457197D01*
X98246062Y-104469255D01*
X98450793Y-104464913D01*
X98635444Y-104450532D01*
X98810514Y-104424605D01*
X98986505Y-104385624D01*
X99149720Y-104339558D01*
X99414422Y-104242385D01*
X99670989Y-104116371D01*
X99916561Y-103963987D01*
X100148279Y-103787700D01*
X100363284Y-103589979D01*
X100558717Y-103373292D01*
X100731718Y-103140109D01*
X100879428Y-102892898D01*
X100921637Y-102809687D01*
X101039726Y-102533972D01*
X101127684Y-102254284D01*
X101186111Y-101967724D01*
X101215609Y-101671391D01*
X101217482Y-101380937D01*
X101191325Y-101075798D01*
X101135470Y-100779454D01*
X101051026Y-100493636D01*
X100939100Y-100220074D01*
X100800803Y-99960499D01*
X100637242Y-99716643D01*
X100449527Y-99490236D01*
X100238766Y-99283009D01*
X100006068Y-99096693D01*
X99752542Y-98933020D01*
X99595437Y-98848670D01*
X99313976Y-98725105D01*
X99025854Y-98631354D01*
X98733219Y-98567269D01*
X98438217Y-98532698D01*
X98142995Y-98527493D01*
X97849699Y-98551505D01*
X97560478Y-98604583D01*
X97277477Y-98686579D01*
X97002844Y-98797342D01*
X96738724Y-98936724D01*
X96547437Y-99060931D01*
X96330781Y-99226828D01*
X96137635Y-99403089D01*
X95964414Y-99594004D01*
X95807534Y-99803862D01*
X95663409Y-100036950D01*
X95548653Y-100255727D01*
X95488132Y-100375196D01*
X95434929Y-100469265D01*
X95385582Y-100542400D01*
X95336629Y-100599065D01*
X95284608Y-100643725D01*
X95226058Y-100680844D01*
X95213937Y-100687398D01*
X95180651Y-100703878D01*
X95148973Y-100715613D01*
X95112338Y-100723595D01*
X95064184Y-100728820D01*
X94997947Y-100732279D01*
X94907064Y-100734968D01*
X94898300Y-100735185D01*
X94798863Y-100736849D01*
X94727650Y-100736073D01*
X94681215Y-100732666D01*
X94656109Y-100726438D01*
X94649984Y-100721492D01*
X94648092Y-100695446D01*
X94656396Y-100643899D01*
X94673784Y-100571018D01*
X94699149Y-100480974D01*
X94731381Y-100377933D01*
X94769370Y-100266065D01*
X94776534Y-100245875D01*
X94893637Y-99961254D01*
X95039868Y-99679625D01*
X95212627Y-99405173D01*
X95409313Y-99142084D01*
X95593650Y-98930218D01*
X95665287Y-98858939D01*
X95757038Y-98776047D01*
X95862245Y-98687003D01*
X95974254Y-98597265D01*
X96086408Y-98512295D01*
X96192051Y-98437552D01*
X96204149Y-98429413D01*
X96494783Y-98253790D01*
X96796956Y-98106991D01*
X97108662Y-97989157D01*
X97427893Y-97900431D01*
X97752644Y-97840953D01*
X98080907Y-97810867D01*
X98410675Y-97810315D01*
X98739942Y-97839439D01*
G37*
D15*
X98739942Y-97839439D02*
X99066702Y-97898380D01*
X99388947Y-97987282D01*
X99704670Y-98106286D01*
X99847586Y-98171379D01*
X100073954Y-98288582D01*
X100280863Y-98414097D01*
X100476173Y-98553478D01*
X100667746Y-98712276D01*
X100837429Y-98870485D01*
X101069452Y-99118539D01*
X101275070Y-99382826D01*
X101453952Y-99661463D01*
X101605764Y-99952566D01*
X101730177Y-100254251D01*
X101826858Y-100564635D01*
X101895476Y-100881832D01*
X101935698Y-101203961D01*
X101947194Y-101529135D01*
X101929631Y-101855473D01*
X101882678Y-102181089D01*
X101806002Y-102504100D01*
X101699274Y-102822623D01*
X101581322Y-103095437D01*
X101468031Y-103315532D01*
X101347883Y-103515605D01*
X101215443Y-103703249D01*
X101065281Y-103886054D01*
X100891963Y-104071612D01*
X100859118Y-104104664D01*
X100731503Y-104228929D01*
X100616037Y-104333975D01*
X100505459Y-104425711D01*
X100392509Y-104510044D01*
X100269924Y-104592880D01*
X100219370Y-104625154D01*
X99933767Y-104787170D01*
X99633375Y-104923552D01*
X99321711Y-105033399D01*
X99002295Y-105115813D01*
X98678643Y-105169895D01*
X98354272Y-105194745D01*
X98032702Y-105189465D01*
X98015875Y-105188332D01*
X97675897Y-105149091D01*
X97344968Y-105080244D01*
X97024661Y-104982937D01*
X96716552Y-104858319D01*
X96422219Y-104707538D01*
X96143235Y-104531741D01*
X95881178Y-104332077D01*
X95637623Y-104109693D01*
X95414145Y-103865738D01*
X95212321Y-103601360D01*
X95033727Y-103317705D01*
X94879937Y-103015923D01*
X94810810Y-102853514D01*
X94781190Y-102774672D01*
X94751218Y-102687105D01*
X94722380Y-102596131D01*
X94696161Y-102507066D01*
X94674048Y-102425228D01*
X94657525Y-102355935D01*
X94648079Y-102304502D01*
X94647195Y-102276249D01*
X94648674Y-102273225D01*
X94668811Y-102268602D01*
X94714716Y-102265401D01*
X94780429Y-102263822D01*
X94859991Y-102264065D01*
X94898721Y-102264823D01*
X94991913Y-102267500D01*
X95059950Y-102270883D01*
X95109425Y-102275968D01*
X95146931Y-102283749D01*
X95179060Y-102295223D01*
X95212406Y-102311384D01*
X95214574Y-102312517D01*
X95275666Y-102349745D01*
X95330503Y-102395892D01*
X95382405Y-102455259D01*
X95434691Y-102532146D01*
X95490679Y-102630853D01*
X95548716Y-102745460D01*
X95699670Y-103024677D01*
X95867237Y-103277223D01*
X96051952Y-103503808D01*
X96254350Y-103705138D01*
X96312224Y-103755364D01*
X96563173Y-103947585D01*
X96824053Y-104109653D01*
X97094973Y-104241609D01*
X97376038Y-104343492D01*
X97667358Y-104415342D01*
X97969038Y-104457197D01*
X98246062Y-104469255D01*
X98450793Y-104464913D01*
X98635444Y-104450532D01*
X98810514Y-104424605D01*
X98986505Y-104385624D01*
X99149720Y-104339558D01*
X99414422Y-104242385D01*
X99670989Y-104116371D01*
X99916561Y-103963987D01*
X100148279Y-103787700D01*
X100363284Y-103589979D01*
X100558717Y-103373292D01*
X100731718Y-103140109D01*
X100879428Y-102892898D01*
X100921637Y-102809687D01*
X101039726Y-102533972D01*
X101127684Y-102254284D01*
X101186111Y-101967724D01*
X101215609Y-101671391D01*
X101217482Y-101380937D01*
X101191325Y-101075798D01*
X101135470Y-100779454D01*
X101051026Y-100493636D01*
X100939100Y-100220074D01*
X100800803Y-99960499D01*
X100637242Y-99716643D01*
X100449527Y-99490236D01*
X100238766Y-99283009D01*
X100006068Y-99096693D01*
X99752542Y-98933020D01*
X99595437Y-98848670D01*
X99313976Y-98725105D01*
X99025854Y-98631354D01*
X98733219Y-98567269D01*
X98438217Y-98532698D01*
X98142995Y-98527493D01*
X97849699Y-98551505D01*
X97560478Y-98604583D01*
X97277477Y-98686579D01*
X97002844Y-98797342D01*
X96738724Y-98936724D01*
X96547437Y-99060931D01*
X96330781Y-99226828D01*
X96137635Y-99403089D01*
X95964414Y-99594004D01*
X95807534Y-99803862D01*
X95663409Y-100036950D01*
X95548653Y-100255727D01*
X95488132Y-100375196D01*
X95434929Y-100469265D01*
X95385582Y-100542400D01*
X95336629Y-100599065D01*
X95284608Y-100643725D01*
X95226058Y-100680844D01*
X95213937Y-100687398D01*
X95180651Y-100703878D01*
X95148973Y-100715613D01*
X95112338Y-100723595D01*
X95064184Y-100728820D01*
X94997947Y-100732279D01*
X94907064Y-100734968D01*
X94898300Y-100735185D01*
X94798863Y-100736849D01*
X94727650Y-100736073D01*
X94681215Y-100732666D01*
X94656109Y-100726438D01*
X94649984Y-100721492D01*
X94648092Y-100695446D01*
X94656396Y-100643899D01*
X94673784Y-100571018D01*
X94699149Y-100480974D01*
X94731381Y-100377933D01*
X94769370Y-100266065D01*
X94776534Y-100245875D01*
X94893637Y-99961254D01*
X95039868Y-99679625D01*
X95212627Y-99405173D01*
X95409313Y-99142084D01*
X95593650Y-98930218D01*
X95665287Y-98858939D01*
X95757038Y-98776047D01*
X95862245Y-98687003D01*
X95974254Y-98597265D01*
X96086408Y-98512295D01*
X96192051Y-98437552D01*
X96204149Y-98429413D01*
X96494783Y-98253790D01*
X96796956Y-98106991D01*
X97108662Y-97989157D01*
X97427893Y-97900431D01*
X97752644Y-97840953D01*
X98080907Y-97810867D01*
X98410675Y-97810315D01*
X98739942Y-97839439D01*
G36*
X99757216Y-99416163D02*
G01*
X99809518Y-99447621D01*
X99875228Y-99497293D01*
X99932916Y-99546108D01*
X99995801Y-99603048D01*
X100059490Y-99663677D01*
X100119592Y-99723557D01*
X100171714Y-99778250D01*
X100211465Y-99823319D01*
X100234453Y-99854328D01*
X100238375Y-99864184D01*
X100230616Y-99880714D01*
X100208184Y-99922471D01*
X100172345Y-99987222D01*
X100124365Y-100072733D01*
X100065510Y-100176772D01*
X99997046Y-100297106D01*
X99920240Y-100431503D01*
X99836358Y-100577730D01*
X99746666Y-100733553D01*
X99672424Y-100862163D01*
X99560220Y-101056291D01*
X99438240Y-101267341D01*
X99309779Y-101489614D01*
X99178129Y-101717410D01*
X99046586Y-101945029D01*
X98918442Y-102166771D01*
X98796993Y-102376937D01*
X98685531Y-102569826D01*
X98606558Y-102706500D01*
X98478655Y-102927808D01*
X98365614Y-103123217D01*
X98266438Y-103294333D01*
X98180128Y-103442760D01*
X98105687Y-103570105D01*
X98042117Y-103677973D01*
X97988421Y-103767970D01*
X97943602Y-103841702D01*
X97906661Y-103900774D01*
X97876601Y-103946792D01*
X97852424Y-103981362D01*
X97833133Y-104006089D01*
X97817730Y-104022580D01*
X97805218Y-104032439D01*
X97794598Y-104037273D01*
X97784874Y-104038688D01*
X97778951Y-104038557D01*
X97750321Y-104033858D01*
X97703271Y-104023301D01*
X97666625Y-104014043D01*
X97555962Y-103982720D01*
X97443356Y-103947204D01*
X97339273Y-103910986D01*
X97254180Y-103877555D01*
X97243780Y-103873032D01*
X97193447Y-103848582D01*
X97167882Y-103829189D01*
X97161636Y-103810165D01*
X97162829Y-103803386D01*
X97171890Y-103785029D01*
X97195625Y-103741415D01*
X97232778Y-103674753D01*
X97282093Y-103587248D01*
X97342314Y-103481110D01*
X97412186Y-103358546D01*
X97490452Y-103221764D01*
X97575856Y-103072971D01*
X97667143Y-102914375D01*
X97763056Y-102748184D01*
X97765659Y-102743680D01*
X97883012Y-102540585D01*
X98012687Y-102316098D01*
X98151152Y-102076339D01*
X98294876Y-101827424D01*
X98440328Y-101575472D01*
X98583974Y-101326600D01*
X98722284Y-101086925D01*
X98851726Y-100862566D01*
X98960199Y-100674500D01*
X99084235Y-100459387D01*
X99193369Y-100270107D01*
X99288599Y-100105007D01*
X99370921Y-99962438D01*
X99441330Y-99840747D01*
X99500824Y-99738283D01*
X99550398Y-99653396D01*
X99591048Y-99584433D01*
X99623771Y-99529743D01*
X99649563Y-99487676D01*
X99669421Y-99456580D01*
X99684339Y-99434803D01*
X99695316Y-99420695D01*
X99703346Y-99412604D01*
X99709426Y-99408879D01*
X99714553Y-99407868D01*
X99719722Y-99407921D01*
X99724518Y-99407625D01*
X99757216Y-99416163D01*
G37*
X99757216Y-99416163D02*
X99809518Y-99447621D01*
X99875228Y-99497293D01*
X99932916Y-99546108D01*
X99995801Y-99603048D01*
X100059490Y-99663677D01*
X100119592Y-99723557D01*
X100171714Y-99778250D01*
X100211465Y-99823319D01*
X100234453Y-99854328D01*
X100238375Y-99864184D01*
X100230616Y-99880714D01*
X100208184Y-99922471D01*
X100172345Y-99987222D01*
X100124365Y-100072733D01*
X100065510Y-100176772D01*
X99997046Y-100297106D01*
X99920240Y-100431503D01*
X99836358Y-100577730D01*
X99746666Y-100733553D01*
X99672424Y-100862163D01*
X99560220Y-101056291D01*
X99438240Y-101267341D01*
X99309779Y-101489614D01*
X99178129Y-101717410D01*
X99046586Y-101945029D01*
X98918442Y-102166771D01*
X98796993Y-102376937D01*
X98685531Y-102569826D01*
X98606558Y-102706500D01*
X98478655Y-102927808D01*
X98365614Y-103123217D01*
X98266438Y-103294333D01*
X98180128Y-103442760D01*
X98105687Y-103570105D01*
X98042117Y-103677973D01*
X97988421Y-103767970D01*
X97943602Y-103841702D01*
X97906661Y-103900774D01*
X97876601Y-103946792D01*
X97852424Y-103981362D01*
X97833133Y-104006089D01*
X97817730Y-104022580D01*
X97805218Y-104032439D01*
X97794598Y-104037273D01*
X97784874Y-104038688D01*
X97778951Y-104038557D01*
X97750321Y-104033858D01*
X97703271Y-104023301D01*
X97666625Y-104014043D01*
X97555962Y-103982720D01*
X97443356Y-103947204D01*
X97339273Y-103910986D01*
X97254180Y-103877555D01*
X97243780Y-103873032D01*
X97193447Y-103848582D01*
X97167882Y-103829189D01*
X97161636Y-103810165D01*
X97162829Y-103803386D01*
X97171890Y-103785029D01*
X97195625Y-103741415D01*
X97232778Y-103674753D01*
X97282093Y-103587248D01*
X97342314Y-103481110D01*
X97412186Y-103358546D01*
X97490452Y-103221764D01*
X97575856Y-103072971D01*
X97667143Y-102914375D01*
X97763056Y-102748184D01*
X97765659Y-102743680D01*
X97883012Y-102540585D01*
X98012687Y-102316098D01*
X98151152Y-102076339D01*
X98294876Y-101827424D01*
X98440328Y-101575472D01*
X98583974Y-101326600D01*
X98722284Y-101086925D01*
X98851726Y-100862566D01*
X98960199Y-100674500D01*
X99084235Y-100459387D01*
X99193369Y-100270107D01*
X99288599Y-100105007D01*
X99370921Y-99962438D01*
X99441330Y-99840747D01*
X99500824Y-99738283D01*
X99550398Y-99653396D01*
X99591048Y-99584433D01*
X99623771Y-99529743D01*
X99649563Y-99487676D01*
X99669421Y-99456580D01*
X99684339Y-99434803D01*
X99695316Y-99420695D01*
X99703346Y-99412604D01*
X99709426Y-99408879D01*
X99714553Y-99407868D01*
X99719722Y-99407921D01*
X99724518Y-99407625D01*
X99757216Y-99416163D01*
G36*
X98381000Y-98919111D02*
G01*
X98474880Y-98927121D01*
X98584034Y-98940521D01*
X98692875Y-98957225D01*
X98762000Y-98970068D01*
X98853985Y-98991059D01*
X98950419Y-99016858D01*
X99046413Y-99045731D01*
X99137079Y-99075943D01*
X99217528Y-99105760D01*
X99282872Y-99133447D01*
X99328224Y-99157271D01*
X99348694Y-99175497D01*
X99349375Y-99178468D01*
X99341742Y-99199226D01*
X99320438Y-99242854D01*
X99287849Y-99304836D01*
X99246365Y-99380654D01*
X99198373Y-99465791D01*
X99186656Y-99486233D01*
X99129488Y-99585178D01*
X99085013Y-99659509D01*
X99050165Y-99712178D01*
X99021879Y-99746133D01*
X98997089Y-99764326D01*
X98972730Y-99769707D01*
X98945737Y-99765227D01*
X98913044Y-99753835D01*
X98909877Y-99752632D01*
X98770272Y-99709489D01*
X98609800Y-99676463D01*
X98437970Y-99654427D01*
X98264289Y-99644256D01*
X98098266Y-99646822D01*
X97949409Y-99663000D01*
X97944190Y-99663900D01*
X97706844Y-99720806D01*
X97482683Y-99805221D01*
X97273709Y-99915492D01*
X97081926Y-100049967D01*
X96909336Y-100206992D01*
X96757942Y-100384914D01*
X96629747Y-100582079D01*
X96526754Y-100796835D01*
X96505861Y-100851210D01*
X96444586Y-101059000D01*
X96407348Y-101278056D01*
X96394171Y-101502035D01*
X96405080Y-101724591D01*
X96440099Y-101939382D01*
X96499252Y-102140064D01*
X96500920Y-102144526D01*
X96565614Y-102298255D01*
X96640390Y-102438378D01*
X96729876Y-102571803D01*
X96838697Y-102705436D01*
X96969632Y-102844332D01*
X97146740Y-103022032D01*
X96991710Y-103288922D01*
X96931090Y-103392736D01*
X96883860Y-103472031D01*
X96847859Y-103529967D01*
X96820925Y-103569703D01*
X96800896Y-103594399D01*
X96785609Y-103607217D01*
X96772903Y-103611316D01*
X96771099Y-103611375D01*
X96753129Y-103601651D01*
X96716058Y-103574998D01*
X96664855Y-103535191D01*
X96604486Y-103486007D01*
X96587600Y-103471896D01*
X96449450Y-103345034D01*
X96312289Y-103199234D01*
X96185088Y-103044764D01*
X96076818Y-102891892D01*
X96065906Y-102874751D01*
X96026543Y-102807489D01*
X95980481Y-102721560D01*
X95933226Y-102627606D01*
X95890284Y-102536270D01*
X95886938Y-102528810D01*
X95829754Y-102402510D01*
X95781546Y-102301409D01*
X95739402Y-102221263D01*
X95700412Y-102157829D01*
X95661666Y-102106865D01*
X95620252Y-102064128D01*
X95573259Y-102025376D01*
X95517777Y-101986364D01*
X95512265Y-101982694D01*
X95468308Y-101954550D01*
X95426720Y-101931280D01*
X95384017Y-101912423D01*
X95336715Y-101897518D01*
X95281331Y-101886105D01*
X95214379Y-101877722D01*
X95132376Y-101871908D01*
X95031839Y-101868203D01*
X94909282Y-101866146D01*
X94761221Y-101865276D01*
X94623495Y-101865125D01*
X94470978Y-101865078D01*
X94347118Y-101864830D01*
X94248821Y-101864215D01*
X94172996Y-101863068D01*
X94116549Y-101861224D01*
X94076386Y-101858519D01*
X94049416Y-101854787D01*
X94032545Y-101849865D01*
X94022680Y-101843586D01*
X94016728Y-101835787D01*
X94015014Y-101832701D01*
X94009929Y-101807517D01*
X94006152Y-101757400D01*
X94003634Y-101688239D01*
X94002326Y-101605924D01*
X94002179Y-101516344D01*
X94003144Y-101425388D01*
X94005172Y-101338945D01*
X94008213Y-101262905D01*
X94012220Y-101203157D01*
X94017142Y-101165591D01*
X94020650Y-101156005D01*
X94038947Y-101152890D01*
X94085501Y-101149625D01*
X94156818Y-101146327D01*
X94249406Y-101143114D01*
X94359772Y-101140103D01*
X94484423Y-101137411D01*
X94619867Y-101135156D01*
X94655650Y-101134666D01*
X94813339Y-101132525D01*
X94942627Y-101130501D01*
X95046859Y-101128394D01*
X95129383Y-101126003D01*
X95193545Y-101123127D01*
X95242692Y-101119566D01*
X95280171Y-101115118D01*
X95309327Y-101109584D01*
X95333508Y-101102762D01*
X95356061Y-101094452D01*
X95361276Y-101092346D01*
X95474329Y-101039194D01*
X95568710Y-100977502D01*
X95648985Y-100902401D01*
X95719723Y-100809022D01*
X95785490Y-100692494D01*
X95833500Y-100588828D01*
X95913357Y-100412595D01*
X95990848Y-100260001D01*
X96070517Y-100123696D01*
X96156905Y-99996329D01*
X96254556Y-99870550D01*
X96337550Y-99773254D01*
X96527990Y-99580701D01*
X96739568Y-99409840D01*
X96969070Y-99262015D01*
X97213279Y-99138570D01*
X97468979Y-99040849D01*
X97732954Y-98970196D01*
X98001989Y-98927956D01*
X98272868Y-98915472D01*
X98381000Y-98919111D01*
G37*
X98381000Y-98919111D02*
X98474880Y-98927121D01*
X98584034Y-98940521D01*
X98692875Y-98957225D01*
X98762000Y-98970068D01*
X98853985Y-98991059D01*
X98950419Y-99016858D01*
X99046413Y-99045731D01*
X99137079Y-99075943D01*
X99217528Y-99105760D01*
X99282872Y-99133447D01*
X99328224Y-99157271D01*
X99348694Y-99175497D01*
X99349375Y-99178468D01*
X99341742Y-99199226D01*
X99320438Y-99242854D01*
X99287849Y-99304836D01*
X99246365Y-99380654D01*
X99198373Y-99465791D01*
X99186656Y-99486233D01*
X99129488Y-99585178D01*
X99085013Y-99659509D01*
X99050165Y-99712178D01*
X99021879Y-99746133D01*
X98997089Y-99764326D01*
X98972730Y-99769707D01*
X98945737Y-99765227D01*
X98913044Y-99753835D01*
X98909877Y-99752632D01*
X98770272Y-99709489D01*
X98609800Y-99676463D01*
X98437970Y-99654427D01*
X98264289Y-99644256D01*
X98098266Y-99646822D01*
X97949409Y-99663000D01*
X97944190Y-99663900D01*
X97706844Y-99720806D01*
X97482683Y-99805221D01*
X97273709Y-99915492D01*
X97081926Y-100049967D01*
X96909336Y-100206992D01*
X96757942Y-100384914D01*
X96629747Y-100582079D01*
X96526754Y-100796835D01*
X96505861Y-100851210D01*
X96444586Y-101059000D01*
X96407348Y-101278056D01*
X96394171Y-101502035D01*
X96405080Y-101724591D01*
X96440099Y-101939382D01*
X96499252Y-102140064D01*
X96500920Y-102144526D01*
X96565614Y-102298255D01*
X96640390Y-102438378D01*
X96729876Y-102571803D01*
X96838697Y-102705436D01*
X96969632Y-102844332D01*
X97146740Y-103022032D01*
X96991710Y-103288922D01*
X96931090Y-103392736D01*
X96883860Y-103472031D01*
X96847859Y-103529967D01*
X96820925Y-103569703D01*
X96800896Y-103594399D01*
X96785609Y-103607217D01*
X96772903Y-103611316D01*
X96771099Y-103611375D01*
X96753129Y-103601651D01*
X96716058Y-103574998D01*
X96664855Y-103535191D01*
X96604486Y-103486007D01*
X96587600Y-103471896D01*
X96449450Y-103345034D01*
X96312289Y-103199234D01*
X96185088Y-103044764D01*
X96076818Y-102891892D01*
X96065906Y-102874751D01*
X96026543Y-102807489D01*
X95980481Y-102721560D01*
X95933226Y-102627606D01*
X95890284Y-102536270D01*
X95886938Y-102528810D01*
X95829754Y-102402510D01*
X95781546Y-102301409D01*
X95739402Y-102221263D01*
X95700412Y-102157829D01*
X95661666Y-102106865D01*
X95620252Y-102064128D01*
X95573259Y-102025376D01*
X95517777Y-101986364D01*
X95512265Y-101982694D01*
X95468308Y-101954550D01*
X95426720Y-101931280D01*
X95384017Y-101912423D01*
X95336715Y-101897518D01*
X95281331Y-101886105D01*
X95214379Y-101877722D01*
X95132376Y-101871908D01*
X95031839Y-101868203D01*
X94909282Y-101866146D01*
X94761221Y-101865276D01*
X94623495Y-101865125D01*
X94470978Y-101865078D01*
X94347118Y-101864830D01*
X94248821Y-101864215D01*
X94172996Y-101863068D01*
X94116549Y-101861224D01*
X94076386Y-101858519D01*
X94049416Y-101854787D01*
X94032545Y-101849865D01*
X94022680Y-101843586D01*
X94016728Y-101835787D01*
X94015014Y-101832701D01*
X94009929Y-101807517D01*
X94006152Y-101757400D01*
X94003634Y-101688239D01*
X94002326Y-101605924D01*
X94002179Y-101516344D01*
X94003144Y-101425388D01*
X94005172Y-101338945D01*
X94008213Y-101262905D01*
X94012220Y-101203157D01*
X94017142Y-101165591D01*
X94020650Y-101156005D01*
X94038947Y-101152890D01*
X94085501Y-101149625D01*
X94156818Y-101146327D01*
X94249406Y-101143114D01*
X94359772Y-101140103D01*
X94484423Y-101137411D01*
X94619867Y-101135156D01*
X94655650Y-101134666D01*
X94813339Y-101132525D01*
X94942627Y-101130501D01*
X95046859Y-101128394D01*
X95129383Y-101126003D01*
X95193545Y-101123127D01*
X95242692Y-101119566D01*
X95280171Y-101115118D01*
X95309327Y-101109584D01*
X95333508Y-101102762D01*
X95356061Y-101094452D01*
X95361276Y-101092346D01*
X95474329Y-101039194D01*
X95568710Y-100977502D01*
X95648985Y-100902401D01*
X95719723Y-100809022D01*
X95785490Y-100692494D01*
X95833500Y-100588828D01*
X95913357Y-100412595D01*
X95990848Y-100260001D01*
X96070517Y-100123696D01*
X96156905Y-99996329D01*
X96254556Y-99870550D01*
X96337550Y-99773254D01*
X96527990Y-99580701D01*
X96739568Y-99409840D01*
X96969070Y-99262015D01*
X97213279Y-99138570D01*
X97468979Y-99040849D01*
X97732954Y-98970196D01*
X98001989Y-98927956D01*
X98272868Y-98915472D01*
X98381000Y-98919111D01*
D14*
X76940000Y-96500000D02*
X76940000Y-94550000D01*
X82060000Y-96500000D02*
X82060000Y-93050000D01*
X76940000Y-96500000D02*
X76940000Y-98450000D01*
X82060000Y-96500000D02*
X82060000Y-98450000D01*
X96400000Y-92700000D02*
X99000000Y-92700000D01*
X96400000Y-95900000D02*
X96400000Y-92700000D01*
X99000000Y-92700000D02*
X99000000Y-95900000D01*
X99000000Y-95900000D02*
X96400000Y-95900000D01*
X65140000Y-84235000D02*
X65140000Y-90165000D01*
X69410000Y-82965000D02*
X69410000Y-84765000D01*
X69410000Y-84765000D02*
X70400000Y-84765000D01*
X67960000Y-91435000D02*
X69410000Y-91435000D01*
X67960000Y-82965000D02*
X69410000Y-82965000D01*
X69410000Y-91435000D02*
X69410000Y-89635000D01*
X79590000Y-102459420D02*
X79590000Y-102740580D01*
X80610000Y-102459420D02*
X80610000Y-102740580D01*
X79122500Y-102837258D02*
X79122500Y-102362742D01*
X78077500Y-102837258D02*
X78077500Y-102362742D01*
X81077500Y-102362742D02*
X81077500Y-102837258D01*
X82122500Y-102362742D02*
X82122500Y-102837258D01*
X88862742Y-108422500D02*
X89337258Y-108422500D01*
X88862742Y-107377500D02*
X89337258Y-107377500D01*
X85540580Y-84810000D02*
X85259420Y-84810000D01*
X85540580Y-83790000D02*
X85259420Y-83790000D01*
X88540580Y-83790000D02*
X88259420Y-83790000D01*
X88540580Y-84810000D02*
X88259420Y-84810000D01*
X91540580Y-84810000D02*
X91259420Y-84810000D01*
X91540580Y-83790000D02*
X91259420Y-83790000D01*
X94540580Y-83790000D02*
X94259420Y-83790000D01*
X94540580Y-84810000D02*
X94259420Y-84810000D01*
X82395000Y-79405000D02*
X100235000Y-79405000D01*
X81125000Y-79405000D02*
X79795000Y-79405000D01*
X82395000Y-79405000D02*
X82395000Y-76805000D01*
X100235000Y-79405000D02*
X100235000Y-74205000D01*
X79795000Y-76805000D02*
X79795000Y-74205000D01*
X79795000Y-79405000D02*
X79795000Y-78075000D01*
X82395000Y-76805000D02*
X79795000Y-76805000D01*
X79795000Y-74205000D02*
X100235000Y-74205000D01*
X106525000Y-74195000D02*
X107855000Y-74195000D01*
X107855000Y-79395000D02*
X100115000Y-79395000D01*
X105255000Y-76795000D02*
X107855000Y-76795000D01*
X107855000Y-76795000D02*
X107855000Y-79395000D01*
X105255000Y-74195000D02*
X100115000Y-74195000D01*
X105255000Y-74195000D02*
X105255000Y-76795000D01*
X107855000Y-74195000D02*
X107855000Y-75525000D01*
X100115000Y-74195000D02*
X100115000Y-79395000D01*
X85122500Y-81637258D02*
X85122500Y-81162742D01*
X84077500Y-81637258D02*
X84077500Y-81162742D01*
X91122500Y-81637258D02*
X91122500Y-81162742D01*
X90077500Y-81637258D02*
X90077500Y-81162742D01*
X93077500Y-81637258D02*
X93077500Y-81162742D01*
X94122500Y-81637258D02*
X94122500Y-81162742D01*
X88577500Y-81162742D02*
X88577500Y-81637258D01*
X89622500Y-81162742D02*
X89622500Y-81637258D01*
X91577500Y-81162742D02*
X91577500Y-81637258D01*
X92622500Y-81162742D02*
X92622500Y-81637258D01*
X95622500Y-81162742D02*
X95622500Y-81637258D01*
X94577500Y-81162742D02*
X94577500Y-81637258D01*
X99422500Y-81162742D02*
X99422500Y-81637258D01*
X98377500Y-81162742D02*
X98377500Y-81637258D01*
X99877500Y-81162742D02*
X99877500Y-81637258D01*
X100922500Y-81162742D02*
X100922500Y-81637258D01*
X80077500Y-83162742D02*
X80077500Y-83637258D01*
X81122500Y-83162742D02*
X81122500Y-83637258D01*
X78577500Y-83162742D02*
X78577500Y-83637258D01*
X79622500Y-83162742D02*
X79622500Y-83637258D01*
X103722500Y-81162742D02*
X103722500Y-81637258D01*
X102677500Y-81162742D02*
X102677500Y-81637258D01*
X104477500Y-81162742D02*
X104477500Y-81637258D01*
X105522500Y-81162742D02*
X105522500Y-81637258D01*
X84240000Y-106850000D02*
X84240000Y-103150000D01*
X90360000Y-106850000D02*
X84240000Y-106850000D01*
X90360000Y-103150000D02*
X90360000Y-106850000D01*
X84240000Y-103150000D02*
X90360000Y-103150000D01*
X86622500Y-81162742D02*
X86622500Y-81637258D01*
X85577500Y-81162742D02*
X85577500Y-81637258D01*
X99790000Y-92940580D02*
X99790000Y-92659420D01*
X100810000Y-92940580D02*
X100810000Y-92659420D01*
G36*
X86122209Y-99517312D02*
G01*
X86117718Y-99567362D01*
X86114754Y-99613959D01*
X86114050Y-99637962D01*
X86114050Y-99680550D01*
X86042944Y-99680550D01*
X85970835Y-99688069D01*
X85914762Y-99709765D01*
X85877733Y-99744339D01*
X85872123Y-99754187D01*
X85864032Y-99784778D01*
X85857504Y-99840035D01*
X85852602Y-99919265D01*
X85850008Y-99994875D01*
X85844739Y-100201250D01*
X85593350Y-100201250D01*
X85593350Y-99451950D01*
X85793248Y-99451950D01*
X85809250Y-99509100D01*
X85823031Y-99548815D01*
X85836196Y-99564265D01*
X85850317Y-99556492D01*
X85859303Y-99542245D01*
X85876815Y-99521962D01*
X85907948Y-99495717D01*
X85931777Y-99478745D01*
X85976074Y-99453411D01*
X86017043Y-99441740D01*
X86060886Y-99439250D01*
X86130368Y-99439250D01*
X86122209Y-99517312D01*
G37*
D15*
X86122209Y-99517312D02*
X86117718Y-99567362D01*
X86114754Y-99613959D01*
X86114050Y-99637962D01*
X86114050Y-99680550D01*
X86042944Y-99680550D01*
X85970835Y-99688069D01*
X85914762Y-99709765D01*
X85877733Y-99744339D01*
X85872123Y-99754187D01*
X85864032Y-99784778D01*
X85857504Y-99840035D01*
X85852602Y-99919265D01*
X85850008Y-99994875D01*
X85844739Y-100201250D01*
X85593350Y-100201250D01*
X85593350Y-99451950D01*
X85793248Y-99451950D01*
X85809250Y-99509100D01*
X85823031Y-99548815D01*
X85836196Y-99564265D01*
X85850317Y-99556492D01*
X85859303Y-99542245D01*
X85876815Y-99521962D01*
X85907948Y-99495717D01*
X85931777Y-99478745D01*
X85976074Y-99453411D01*
X86017043Y-99441740D01*
X86060886Y-99439250D01*
X86130368Y-99439250D01*
X86122209Y-99517312D01*
G36*
X88187736Y-99624703D02*
G01*
X88197338Y-99604350D01*
X88243374Y-99540751D01*
X88308950Y-99491894D01*
X88392257Y-99458763D01*
X88491483Y-99442340D01*
X88496308Y-99442009D01*
X88600087Y-99444725D01*
X88688685Y-99467590D01*
X88762886Y-99510992D01*
X88823469Y-99575323D01*
X88850788Y-99618884D01*
X88869898Y-99657702D01*
X88881872Y-99694550D01*
X88888786Y-99738426D01*
X88892716Y-99798329D01*
X88892841Y-99801200D01*
X88889837Y-99905348D01*
X88870329Y-99992570D01*
X88833253Y-100066107D01*
X88788374Y-100119073D01*
X88724211Y-100165092D01*
X88645047Y-100196706D01*
X88557535Y-100212789D01*
X88468328Y-100212211D01*
X88384079Y-100193844D01*
X88372565Y-100189597D01*
X88305168Y-100157862D01*
X88255811Y-100119952D01*
X88217140Y-100069275D01*
X88197238Y-100032513D01*
X88161936Y-99933618D01*
X88148587Y-99828812D01*
X88148942Y-99824477D01*
X88419100Y-99824477D01*
X88419532Y-99885009D01*
X88421539Y-99925901D01*
X88426187Y-99952909D01*
X88434543Y-99971789D01*
X88447672Y-99988295D01*
X88449888Y-99990676D01*
X88489332Y-100017214D01*
X88533591Y-100023300D01*
X88574901Y-100008649D01*
X88589897Y-99995824D01*
X88610724Y-99964476D01*
X88623209Y-99921669D01*
X88628154Y-99862899D01*
X88626662Y-99789409D01*
X88622619Y-99736653D01*
X88615565Y-99701697D01*
X88603393Y-99676957D01*
X88591304Y-99662303D01*
X88551364Y-99635286D01*
X88507257Y-99632646D01*
X88462105Y-99654424D01*
X88454733Y-99660400D01*
X88438842Y-99675126D01*
X88428555Y-99690186D01*
X88422653Y-99711184D01*
X88419920Y-99743725D01*
X88419139Y-99793412D01*
X88419100Y-99824477D01*
X88148942Y-99824477D01*
X88157187Y-99723904D01*
X88187736Y-99624703D01*
G37*
X88187736Y-99624703D02*
X88197338Y-99604350D01*
X88243374Y-99540751D01*
X88308950Y-99491894D01*
X88392257Y-99458763D01*
X88491483Y-99442340D01*
X88496308Y-99442009D01*
X88600087Y-99444725D01*
X88688685Y-99467590D01*
X88762886Y-99510992D01*
X88823469Y-99575323D01*
X88850788Y-99618884D01*
X88869898Y-99657702D01*
X88881872Y-99694550D01*
X88888786Y-99738426D01*
X88892716Y-99798329D01*
X88892841Y-99801200D01*
X88889837Y-99905348D01*
X88870329Y-99992570D01*
X88833253Y-100066107D01*
X88788374Y-100119073D01*
X88724211Y-100165092D01*
X88645047Y-100196706D01*
X88557535Y-100212789D01*
X88468328Y-100212211D01*
X88384079Y-100193844D01*
X88372565Y-100189597D01*
X88305168Y-100157862D01*
X88255811Y-100119952D01*
X88217140Y-100069275D01*
X88197238Y-100032513D01*
X88161936Y-99933618D01*
X88148587Y-99828812D01*
X88148942Y-99824477D01*
X88419100Y-99824477D01*
X88419532Y-99885009D01*
X88421539Y-99925901D01*
X88426187Y-99952909D01*
X88434543Y-99971789D01*
X88447672Y-99988295D01*
X88449888Y-99990676D01*
X88489332Y-100017214D01*
X88533591Y-100023300D01*
X88574901Y-100008649D01*
X88589897Y-99995824D01*
X88610724Y-99964476D01*
X88623209Y-99921669D01*
X88628154Y-99862899D01*
X88626662Y-99789409D01*
X88622619Y-99736653D01*
X88615565Y-99701697D01*
X88603393Y-99676957D01*
X88591304Y-99662303D01*
X88551364Y-99635286D01*
X88507257Y-99632646D01*
X88462105Y-99654424D01*
X88454733Y-99660400D01*
X88438842Y-99675126D01*
X88428555Y-99690186D01*
X88422653Y-99711184D01*
X88419920Y-99743725D01*
X88419139Y-99793412D01*
X88419100Y-99824477D01*
X88148942Y-99824477D01*
X88157187Y-99723904D01*
X88187736Y-99624703D01*
G36*
X87396750Y-99451950D02*
G01*
X87587250Y-99451950D01*
X87587250Y-99642450D01*
X87396750Y-99642450D01*
X87396750Y-99805581D01*
X87397883Y-99886043D01*
X87403061Y-99943959D01*
X87414952Y-99982145D01*
X87436225Y-100003417D01*
X87469548Y-100010591D01*
X87517589Y-100006484D01*
X87576487Y-99995287D01*
X87586183Y-100000176D01*
X87592556Y-100022127D01*
X87596468Y-100064742D01*
X87597303Y-100082401D01*
X87601007Y-100173102D01*
X87541066Y-100193526D01*
X87470605Y-100209593D01*
X87393483Y-100214314D01*
X87318931Y-100207942D01*
X87256181Y-100190731D01*
X87244601Y-100185375D01*
X87209322Y-100164559D01*
X87182513Y-100140424D01*
X87162925Y-100109239D01*
X87149311Y-100067274D01*
X87140422Y-100010796D01*
X87135010Y-99936075D01*
X87132051Y-99848892D01*
X87127067Y-99642450D01*
X87084108Y-99642450D01*
X87057175Y-99640993D01*
X87044802Y-99631887D01*
X87041336Y-99608023D01*
X87041177Y-99588475D01*
X87043128Y-99555483D01*
X87052610Y-99533068D01*
X87075127Y-99512300D01*
X87097953Y-99496400D01*
X87135595Y-99466228D01*
X87163660Y-99429672D01*
X87188731Y-99378925D01*
X87222760Y-99299550D01*
X87396750Y-99299550D01*
X87396750Y-99451950D01*
G37*
X87396750Y-99451950D02*
X87587250Y-99451950D01*
X87587250Y-99642450D01*
X87396750Y-99642450D01*
X87396750Y-99805581D01*
X87397883Y-99886043D01*
X87403061Y-99943959D01*
X87414952Y-99982145D01*
X87436225Y-100003417D01*
X87469548Y-100010591D01*
X87517589Y-100006484D01*
X87576487Y-99995287D01*
X87586183Y-100000176D01*
X87592556Y-100022127D01*
X87596468Y-100064742D01*
X87597303Y-100082401D01*
X87601007Y-100173102D01*
X87541066Y-100193526D01*
X87470605Y-100209593D01*
X87393483Y-100214314D01*
X87318931Y-100207942D01*
X87256181Y-100190731D01*
X87244601Y-100185375D01*
X87209322Y-100164559D01*
X87182513Y-100140424D01*
X87162925Y-100109239D01*
X87149311Y-100067274D01*
X87140422Y-100010796D01*
X87135010Y-99936075D01*
X87132051Y-99848892D01*
X87127067Y-99642450D01*
X87084108Y-99642450D01*
X87057175Y-99640993D01*
X87044802Y-99631887D01*
X87041336Y-99608023D01*
X87041177Y-99588475D01*
X87043128Y-99555483D01*
X87052610Y-99533068D01*
X87075127Y-99512300D01*
X87097953Y-99496400D01*
X87135595Y-99466228D01*
X87163660Y-99429672D01*
X87188731Y-99378925D01*
X87222760Y-99299550D01*
X87396750Y-99299550D01*
X87396750Y-99451950D01*
G36*
X91753051Y-99873550D02*
G01*
X91763610Y-99886223D01*
X91765550Y-99914791D01*
X91756005Y-99959942D01*
X91731094Y-99996892D01*
X91696401Y-100022326D01*
X91657510Y-100032926D01*
X91620003Y-100025377D01*
X91601772Y-100012072D01*
X91582522Y-99988651D01*
X91575050Y-99971815D01*
X91586762Y-99936507D01*
X91617950Y-99905393D01*
X91662691Y-99882399D01*
X91715063Y-99871451D01*
X91727042Y-99871050D01*
X91753051Y-99873550D01*
G37*
X91753051Y-99873550D02*
X91763610Y-99886223D01*
X91765550Y-99914791D01*
X91756005Y-99959942D01*
X91731094Y-99996892D01*
X91696401Y-100022326D01*
X91657510Y-100032926D01*
X91620003Y-100025377D01*
X91601772Y-100012072D01*
X91582522Y-99988651D01*
X91575050Y-99971815D01*
X91586762Y-99936507D01*
X91617950Y-99905393D01*
X91662691Y-99882399D01*
X91715063Y-99871451D01*
X91727042Y-99871050D01*
X91753051Y-99873550D01*
G36*
X82100769Y-100231947D02*
G01*
X82138511Y-100193025D01*
X82172244Y-100173562D01*
X82204914Y-100158561D01*
X82213295Y-100144719D01*
X82198275Y-100129841D01*
X82191491Y-100125982D01*
X82170006Y-100105599D01*
X82151851Y-100074735D01*
X82144181Y-100026468D01*
X82160647Y-99981272D01*
X82199985Y-99942561D01*
X82200997Y-99941876D01*
X82237137Y-99917586D01*
X82189363Y-99872093D01*
X82142846Y-99812093D01*
X82119956Y-99743005D01*
X82120359Y-99692818D01*
X82367550Y-99692818D01*
X82374863Y-99750357D01*
X82396166Y-99788716D01*
X82430505Y-99806460D01*
X82443750Y-99807550D01*
X82482704Y-99796365D01*
X82500179Y-99779324D01*
X82516107Y-99739375D01*
X82519225Y-99690515D01*
X82510663Y-99641950D01*
X82491551Y-99602887D01*
X82476773Y-99588669D01*
X82442967Y-99578288D01*
X82411340Y-99589494D01*
X82385828Y-99618535D01*
X82370366Y-99661659D01*
X82367550Y-99692818D01*
X82120359Y-99692818D01*
X82120587Y-99664465D01*
X82123916Y-99645668D01*
X82148709Y-99571507D01*
X82190086Y-99515591D01*
X82250390Y-99475134D01*
X82276610Y-99464032D01*
X82302737Y-99454782D01*
X82327393Y-99448131D01*
X82354909Y-99443837D01*
X82389617Y-99441660D01*
X82435846Y-99441359D01*
X82497930Y-99442695D01*
X82580197Y-99445425D01*
X82599325Y-99446113D01*
X82850150Y-99455188D01*
X82850150Y-99515036D01*
X82848945Y-99551698D01*
X82841464Y-99571690D01*
X82821901Y-99583741D01*
X82799159Y-99591712D01*
X82767163Y-99604400D01*
X82754799Y-99617268D01*
X82756625Y-99635020D01*
X82764716Y-99693729D01*
X82757198Y-99759333D01*
X82735514Y-99819906D01*
X82733828Y-99823059D01*
X82689575Y-99877637D01*
X82624319Y-99918324D01*
X82538442Y-99944936D01*
X82459353Y-99955655D01*
X82407310Y-99960396D01*
X82375801Y-99965727D01*
X82359974Y-99973104D01*
X82354977Y-99983981D01*
X82354850Y-99986990D01*
X82357405Y-99999924D01*
X82367600Y-100009335D01*
X82389231Y-100016094D01*
X82426092Y-100021074D01*
X82481977Y-100025146D01*
X82532650Y-100027835D01*
X82599592Y-100033398D01*
X82659324Y-100042526D01*
X82703275Y-100053867D01*
X82707113Y-100055325D01*
X82771908Y-100092736D01*
X82815843Y-100143413D01*
X82838170Y-100205114D01*
X82838145Y-100275597D01*
X82815020Y-100352619D01*
X82809793Y-100364012D01*
X82768977Y-100420598D01*
X82707051Y-100466452D01*
X82626345Y-100500629D01*
X82529187Y-100522188D01*
X82417906Y-100530184D01*
X82399574Y-100530150D01*
X82343183Y-100528476D01*
X82292229Y-100525141D01*
X82255177Y-100520762D01*
X82246900Y-100519055D01*
X82167823Y-100490553D01*
X82111299Y-100451119D01*
X82076604Y-100399991D01*
X82063014Y-100336407D01*
X82062750Y-100324930D01*
X82064855Y-100315784D01*
X82282989Y-100315784D01*
X82298489Y-100340577D01*
X82336382Y-100360352D01*
X82398020Y-100376172D01*
X82406492Y-100377750D01*
X82421887Y-100376325D01*
X82454545Y-100371307D01*
X82489042Y-100365283D01*
X82539111Y-100351594D01*
X82581920Y-100331742D01*
X82611404Y-100309225D01*
X82621550Y-100288843D01*
X82609307Y-100266296D01*
X82573765Y-100248562D01*
X82516700Y-100236417D01*
X82496123Y-100234027D01*
X82414949Y-100231317D01*
X82351538Y-100240499D01*
X82307805Y-100261102D01*
X82288533Y-100284910D01*
X82282989Y-100315784D01*
X82064855Y-100315784D01*
X82073341Y-100278920D01*
X82100769Y-100231947D01*
G37*
X82100769Y-100231947D02*
X82138511Y-100193025D01*
X82172244Y-100173562D01*
X82204914Y-100158561D01*
X82213295Y-100144719D01*
X82198275Y-100129841D01*
X82191491Y-100125982D01*
X82170006Y-100105599D01*
X82151851Y-100074735D01*
X82144181Y-100026468D01*
X82160647Y-99981272D01*
X82199985Y-99942561D01*
X82200997Y-99941876D01*
X82237137Y-99917586D01*
X82189363Y-99872093D01*
X82142846Y-99812093D01*
X82119956Y-99743005D01*
X82120359Y-99692818D01*
X82367550Y-99692818D01*
X82374863Y-99750357D01*
X82396166Y-99788716D01*
X82430505Y-99806460D01*
X82443750Y-99807550D01*
X82482704Y-99796365D01*
X82500179Y-99779324D01*
X82516107Y-99739375D01*
X82519225Y-99690515D01*
X82510663Y-99641950D01*
X82491551Y-99602887D01*
X82476773Y-99588669D01*
X82442967Y-99578288D01*
X82411340Y-99589494D01*
X82385828Y-99618535D01*
X82370366Y-99661659D01*
X82367550Y-99692818D01*
X82120359Y-99692818D01*
X82120587Y-99664465D01*
X82123916Y-99645668D01*
X82148709Y-99571507D01*
X82190086Y-99515591D01*
X82250390Y-99475134D01*
X82276610Y-99464032D01*
X82302737Y-99454782D01*
X82327393Y-99448131D01*
X82354909Y-99443837D01*
X82389617Y-99441660D01*
X82435846Y-99441359D01*
X82497930Y-99442695D01*
X82580197Y-99445425D01*
X82599325Y-99446113D01*
X82850150Y-99455188D01*
X82850150Y-99515036D01*
X82848945Y-99551698D01*
X82841464Y-99571690D01*
X82821901Y-99583741D01*
X82799159Y-99591712D01*
X82767163Y-99604400D01*
X82754799Y-99617268D01*
X82756625Y-99635020D01*
X82764716Y-99693729D01*
X82757198Y-99759333D01*
X82735514Y-99819906D01*
X82733828Y-99823059D01*
X82689575Y-99877637D01*
X82624319Y-99918324D01*
X82538442Y-99944936D01*
X82459353Y-99955655D01*
X82407310Y-99960396D01*
X82375801Y-99965727D01*
X82359974Y-99973104D01*
X82354977Y-99983981D01*
X82354850Y-99986990D01*
X82357405Y-99999924D01*
X82367600Y-100009335D01*
X82389231Y-100016094D01*
X82426092Y-100021074D01*
X82481977Y-100025146D01*
X82532650Y-100027835D01*
X82599592Y-100033398D01*
X82659324Y-100042526D01*
X82703275Y-100053867D01*
X82707113Y-100055325D01*
X82771908Y-100092736D01*
X82815843Y-100143413D01*
X82838170Y-100205114D01*
X82838145Y-100275597D01*
X82815020Y-100352619D01*
X82809793Y-100364012D01*
X82768977Y-100420598D01*
X82707051Y-100466452D01*
X82626345Y-100500629D01*
X82529187Y-100522188D01*
X82417906Y-100530184D01*
X82399574Y-100530150D01*
X82343183Y-100528476D01*
X82292229Y-100525141D01*
X82255177Y-100520762D01*
X82246900Y-100519055D01*
X82167823Y-100490553D01*
X82111299Y-100451119D01*
X82076604Y-100399991D01*
X82063014Y-100336407D01*
X82062750Y-100324930D01*
X82064855Y-100315784D01*
X82282989Y-100315784D01*
X82298489Y-100340577D01*
X82336382Y-100360352D01*
X82398020Y-100376172D01*
X82406492Y-100377750D01*
X82421887Y-100376325D01*
X82454545Y-100371307D01*
X82489042Y-100365283D01*
X82539111Y-100351594D01*
X82581920Y-100331742D01*
X82611404Y-100309225D01*
X82621550Y-100288843D01*
X82609307Y-100266296D01*
X82573765Y-100248562D01*
X82516700Y-100236417D01*
X82496123Y-100234027D01*
X82414949Y-100231317D01*
X82351538Y-100240499D01*
X82307805Y-100261102D01*
X82288533Y-100284910D01*
X82282989Y-100315784D01*
X82064855Y-100315784D01*
X82073341Y-100278920D01*
X82100769Y-100231947D01*
G36*
X84353638Y-99445741D02*
G01*
X84421987Y-99465182D01*
X84475678Y-99496172D01*
X84491140Y-99510946D01*
X84511299Y-99536088D01*
X84527022Y-99563021D01*
X84538928Y-99595296D01*
X84547637Y-99636464D01*
X84553766Y-99690075D01*
X84557934Y-99759683D01*
X84560760Y-99848837D01*
X84562165Y-99918675D01*
X84567099Y-100201250D01*
X84299856Y-100201250D01*
X84295728Y-99948554D01*
X84294098Y-99861244D01*
X84292210Y-99795707D01*
X84289696Y-99748316D01*
X84286190Y-99715444D01*
X84281323Y-99693464D01*
X84274728Y-99678749D01*
X84267406Y-99669154D01*
X84232559Y-99647658D01*
X84189357Y-99643097D01*
X84148529Y-99655640D01*
X84133674Y-99667025D01*
X84115555Y-99690733D01*
X84101964Y-99723012D01*
X84092364Y-99767283D01*
X84086216Y-99826968D01*
X84082983Y-99905488D01*
X84082120Y-99994875D01*
X84082050Y-100201250D01*
X83815350Y-100201250D01*
X83815350Y-99450922D01*
X83919102Y-99454611D01*
X83970257Y-99456781D01*
X84001768Y-99460197D01*
X84019375Y-99466927D01*
X84028822Y-99479039D01*
X84035141Y-99496400D01*
X84044862Y-99524337D01*
X84051330Y-99539058D01*
X84051431Y-99539184D01*
X84062363Y-99534310D01*
X84086264Y-99516797D01*
X84107405Y-99499384D01*
X84144946Y-99472062D01*
X84182367Y-99452282D01*
X84198500Y-99447074D01*
X84277014Y-99439240D01*
X84353638Y-99445741D01*
G37*
X84353638Y-99445741D02*
X84421987Y-99465182D01*
X84475678Y-99496172D01*
X84491140Y-99510946D01*
X84511299Y-99536088D01*
X84527022Y-99563021D01*
X84538928Y-99595296D01*
X84547637Y-99636464D01*
X84553766Y-99690075D01*
X84557934Y-99759683D01*
X84560760Y-99848837D01*
X84562165Y-99918675D01*
X84567099Y-100201250D01*
X84299856Y-100201250D01*
X84295728Y-99948554D01*
X84294098Y-99861244D01*
X84292210Y-99795707D01*
X84289696Y-99748316D01*
X84286190Y-99715444D01*
X84281323Y-99693464D01*
X84274728Y-99678749D01*
X84267406Y-99669154D01*
X84232559Y-99647658D01*
X84189357Y-99643097D01*
X84148529Y-99655640D01*
X84133674Y-99667025D01*
X84115555Y-99690733D01*
X84101964Y-99723012D01*
X84092364Y-99767283D01*
X84086216Y-99826968D01*
X84082983Y-99905488D01*
X84082120Y-99994875D01*
X84082050Y-100201250D01*
X83815350Y-100201250D01*
X83815350Y-99450922D01*
X83919102Y-99454611D01*
X83970257Y-99456781D01*
X84001768Y-99460197D01*
X84019375Y-99466927D01*
X84028822Y-99479039D01*
X84035141Y-99496400D01*
X84044862Y-99524337D01*
X84051330Y-99539058D01*
X84051431Y-99539184D01*
X84062363Y-99534310D01*
X84086264Y-99516797D01*
X84107405Y-99499384D01*
X84144946Y-99472062D01*
X84182367Y-99452282D01*
X84198500Y-99447074D01*
X84277014Y-99439240D01*
X84353638Y-99445741D01*
G36*
X86243663Y-99839391D02*
G01*
X86292269Y-99792419D01*
X86334523Y-99770152D01*
X86393005Y-99750966D01*
X86458553Y-99737248D01*
X86522006Y-99731385D01*
X86526800Y-99731327D01*
X86590418Y-99727628D01*
X86630310Y-99716868D01*
X86647331Y-99698389D01*
X86642333Y-99671533D01*
X86629803Y-99652018D01*
X86597871Y-99628534D01*
X86549485Y-99621541D01*
X86483443Y-99630973D01*
X86443602Y-99641775D01*
X86399383Y-99654468D01*
X86365682Y-99662753D01*
X86348815Y-99665108D01*
X86348082Y-99664815D01*
X86340965Y-99651695D01*
X86326881Y-99621935D01*
X86310328Y-99585225D01*
X86292908Y-99544101D01*
X86285640Y-99519549D01*
X86287664Y-99505250D01*
X86298039Y-99494946D01*
X86336988Y-99476043D01*
X86394683Y-99460122D01*
X86464537Y-99448303D01*
X86539964Y-99441706D01*
X86613033Y-99441390D01*
X86701243Y-99450100D01*
X86769420Y-99468787D01*
X86821624Y-99499382D01*
X86861914Y-99543816D01*
X86875890Y-99566409D01*
X86886172Y-99585622D01*
X86894029Y-99604214D01*
X86899845Y-99625891D01*
X86904007Y-99654361D01*
X86906898Y-99693330D01*
X86908905Y-99746506D01*
X86910412Y-99817595D01*
X86911805Y-99910304D01*
X86911833Y-99912325D01*
X86915866Y-100201250D01*
X86821299Y-100201250D01*
X86772846Y-100200811D01*
X86743494Y-100198036D01*
X86726947Y-100190738D01*
X86716904Y-100176729D01*
X86710837Y-100162877D01*
X86694175Y-100129569D01*
X86677717Y-100119407D01*
X86655374Y-100130930D01*
X86638802Y-100145576D01*
X86602771Y-100173595D01*
X86564203Y-100195681D01*
X86562132Y-100196583D01*
X86518111Y-100207756D01*
X86460552Y-100212632D01*
X86400055Y-100211238D01*
X86347223Y-100203599D01*
X86323600Y-100196022D01*
X86266757Y-100159137D01*
X86228279Y-100106499D01*
X86207440Y-100036768D01*
X86202950Y-99973701D01*
X86205184Y-99957067D01*
X86469844Y-99957067D01*
X86479210Y-100001398D01*
X86504670Y-100027584D01*
X86543157Y-100034155D01*
X86591607Y-100019643D01*
X86595903Y-100017485D01*
X86628279Y-99988270D01*
X86651339Y-99943602D01*
X86660149Y-99893046D01*
X86660150Y-99892939D01*
X86657402Y-99878206D01*
X86644945Y-99871928D01*
X86616454Y-99872181D01*
X86597371Y-99873850D01*
X86534667Y-99886398D01*
X86492205Y-99909446D01*
X86471603Y-99941937D01*
X86469844Y-99957067D01*
X86205184Y-99957067D01*
X86212868Y-99899883D01*
X86243663Y-99839391D01*
G37*
X86243663Y-99839391D02*
X86292269Y-99792419D01*
X86334523Y-99770152D01*
X86393005Y-99750966D01*
X86458553Y-99737248D01*
X86522006Y-99731385D01*
X86526800Y-99731327D01*
X86590418Y-99727628D01*
X86630310Y-99716868D01*
X86647331Y-99698389D01*
X86642333Y-99671533D01*
X86629803Y-99652018D01*
X86597871Y-99628534D01*
X86549485Y-99621541D01*
X86483443Y-99630973D01*
X86443602Y-99641775D01*
X86399383Y-99654468D01*
X86365682Y-99662753D01*
X86348815Y-99665108D01*
X86348082Y-99664815D01*
X86340965Y-99651695D01*
X86326881Y-99621935D01*
X86310328Y-99585225D01*
X86292908Y-99544101D01*
X86285640Y-99519549D01*
X86287664Y-99505250D01*
X86298039Y-99494946D01*
X86336988Y-99476043D01*
X86394683Y-99460122D01*
X86464537Y-99448303D01*
X86539964Y-99441706D01*
X86613033Y-99441390D01*
X86701243Y-99450100D01*
X86769420Y-99468787D01*
X86821624Y-99499382D01*
X86861914Y-99543816D01*
X86875890Y-99566409D01*
X86886172Y-99585622D01*
X86894029Y-99604214D01*
X86899845Y-99625891D01*
X86904007Y-99654361D01*
X86906898Y-99693330D01*
X86908905Y-99746506D01*
X86910412Y-99817595D01*
X86911805Y-99910304D01*
X86911833Y-99912325D01*
X86915866Y-100201250D01*
X86821299Y-100201250D01*
X86772846Y-100200811D01*
X86743494Y-100198036D01*
X86726947Y-100190738D01*
X86716904Y-100176729D01*
X86710837Y-100162877D01*
X86694175Y-100129569D01*
X86677717Y-100119407D01*
X86655374Y-100130930D01*
X86638802Y-100145576D01*
X86602771Y-100173595D01*
X86564203Y-100195681D01*
X86562132Y-100196583D01*
X86518111Y-100207756D01*
X86460552Y-100212632D01*
X86400055Y-100211238D01*
X86347223Y-100203599D01*
X86323600Y-100196022D01*
X86266757Y-100159137D01*
X86228279Y-100106499D01*
X86207440Y-100036768D01*
X86202950Y-99973701D01*
X86205184Y-99957067D01*
X86469844Y-99957067D01*
X86479210Y-100001398D01*
X86504670Y-100027584D01*
X86543157Y-100034155D01*
X86591607Y-100019643D01*
X86595903Y-100017485D01*
X86628279Y-99988270D01*
X86651339Y-99943602D01*
X86660149Y-99893046D01*
X86660150Y-99892939D01*
X86657402Y-99878206D01*
X86644945Y-99871928D01*
X86616454Y-99872181D01*
X86597371Y-99873850D01*
X86534667Y-99886398D01*
X86492205Y-99909446D01*
X86471603Y-99941937D01*
X86469844Y-99957067D01*
X86205184Y-99957067D01*
X86212868Y-99899883D01*
X86243663Y-99839391D01*
G36*
X83001823Y-99586039D02*
G01*
X83058573Y-99521892D01*
X83132277Y-99475572D01*
X83221870Y-99448228D01*
X83326286Y-99441011D01*
X83343918Y-99441779D01*
X83438942Y-99454809D01*
X83515669Y-99482812D01*
X83575530Y-99527331D01*
X83619954Y-99589909D01*
X83650371Y-99672090D01*
X83668211Y-99775416D01*
X83669965Y-99793684D01*
X83678929Y-99896450D01*
X83442339Y-99896450D01*
X83359342Y-99896592D01*
X83298369Y-99897246D01*
X83256046Y-99898749D01*
X83228997Y-99901438D01*
X83213848Y-99905652D01*
X83207224Y-99911728D01*
X83205750Y-99920005D01*
X83205750Y-99920137D01*
X83216867Y-99955247D01*
X83245745Y-99989957D01*
X83285667Y-100017074D01*
X83302677Y-100024003D01*
X83352098Y-100032104D01*
X83415779Y-100030990D01*
X83484613Y-100021408D01*
X83549492Y-100004100D01*
X83550527Y-100003737D01*
X83585156Y-99992400D01*
X83609758Y-99985929D01*
X83614303Y-99985350D01*
X83619508Y-99996964D01*
X83622402Y-100027590D01*
X83622434Y-100070898D01*
X83622231Y-100076371D01*
X83618500Y-100167392D01*
X83555000Y-100189686D01*
X83495257Y-100203673D01*
X83419990Y-100211252D01*
X83338253Y-100212425D01*
X83259101Y-100207192D01*
X83191587Y-100195553D01*
X83171468Y-100189657D01*
X83089256Y-100150623D01*
X83025786Y-100095492D01*
X82980375Y-100023316D01*
X82952342Y-99933149D01*
X82943933Y-99873935D01*
X82943438Y-99763210D01*
X82952095Y-99720765D01*
X83210116Y-99720765D01*
X83219912Y-99726741D01*
X83244365Y-99729966D01*
X83287709Y-99731219D01*
X83320050Y-99731350D01*
X83375214Y-99730831D01*
X83409225Y-99728755D01*
X83426319Y-99724345D01*
X83430731Y-99716821D01*
X83429358Y-99711261D01*
X83422505Y-99687065D01*
X83421650Y-99679511D01*
X83410332Y-99654690D01*
X83381749Y-99632917D01*
X83343955Y-99619262D01*
X83322444Y-99617050D01*
X83284028Y-99623854D01*
X83248613Y-99640964D01*
X83224380Y-99663428D01*
X83218450Y-99680006D01*
X83214280Y-99700784D01*
X83210741Y-99711261D01*
X83210116Y-99720765D01*
X82952095Y-99720765D01*
X82963089Y-99666862D01*
X83001823Y-99586039D01*
G37*
X83001823Y-99586039D02*
X83058573Y-99521892D01*
X83132277Y-99475572D01*
X83221870Y-99448228D01*
X83326286Y-99441011D01*
X83343918Y-99441779D01*
X83438942Y-99454809D01*
X83515669Y-99482812D01*
X83575530Y-99527331D01*
X83619954Y-99589909D01*
X83650371Y-99672090D01*
X83668211Y-99775416D01*
X83669965Y-99793684D01*
X83678929Y-99896450D01*
X83442339Y-99896450D01*
X83359342Y-99896592D01*
X83298369Y-99897246D01*
X83256046Y-99898749D01*
X83228997Y-99901438D01*
X83213848Y-99905652D01*
X83207224Y-99911728D01*
X83205750Y-99920005D01*
X83205750Y-99920137D01*
X83216867Y-99955247D01*
X83245745Y-99989957D01*
X83285667Y-100017074D01*
X83302677Y-100024003D01*
X83352098Y-100032104D01*
X83415779Y-100030990D01*
X83484613Y-100021408D01*
X83549492Y-100004100D01*
X83550527Y-100003737D01*
X83585156Y-99992400D01*
X83609758Y-99985929D01*
X83614303Y-99985350D01*
X83619508Y-99996964D01*
X83622402Y-100027590D01*
X83622434Y-100070898D01*
X83622231Y-100076371D01*
X83618500Y-100167392D01*
X83555000Y-100189686D01*
X83495257Y-100203673D01*
X83419990Y-100211252D01*
X83338253Y-100212425D01*
X83259101Y-100207192D01*
X83191587Y-100195553D01*
X83171468Y-100189657D01*
X83089256Y-100150623D01*
X83025786Y-100095492D01*
X82980375Y-100023316D01*
X82952342Y-99933149D01*
X82943933Y-99873935D01*
X82943438Y-99763210D01*
X82952095Y-99720765D01*
X83210116Y-99720765D01*
X83219912Y-99726741D01*
X83244365Y-99729966D01*
X83287709Y-99731219D01*
X83320050Y-99731350D01*
X83375214Y-99730831D01*
X83409225Y-99728755D01*
X83426319Y-99724345D01*
X83430731Y-99716821D01*
X83429358Y-99711261D01*
X83422505Y-99687065D01*
X83421650Y-99679511D01*
X83410332Y-99654690D01*
X83381749Y-99632917D01*
X83343955Y-99619262D01*
X83322444Y-99617050D01*
X83284028Y-99623854D01*
X83248613Y-99640964D01*
X83224380Y-99663428D01*
X83218450Y-99680006D01*
X83214280Y-99700784D01*
X83210741Y-99711261D01*
X83210116Y-99720765D01*
X82952095Y-99720765D01*
X82963089Y-99666862D01*
X83001823Y-99586039D01*
G36*
X89615019Y-99449265D02*
G01*
X89682849Y-99479706D01*
X89736857Y-99531163D01*
X89763174Y-99572600D01*
X89771952Y-99590924D01*
X89778704Y-99610959D01*
X89783769Y-99636364D01*
X89787489Y-99670798D01*
X89790203Y-99717923D01*
X89792253Y-99781398D01*
X89793979Y-99864883D01*
X89794779Y-99912325D01*
X89799462Y-100201250D01*
X89532256Y-100201250D01*
X89528128Y-99948554D01*
X89526498Y-99861244D01*
X89524610Y-99795707D01*
X89522096Y-99748316D01*
X89518590Y-99715444D01*
X89513723Y-99693464D01*
X89507128Y-99678749D01*
X89499806Y-99669154D01*
X89466877Y-99648688D01*
X89425528Y-99642795D01*
X89387017Y-99652065D01*
X89372423Y-99662490D01*
X89354931Y-99682016D01*
X89341808Y-99703406D01*
X89332333Y-99730635D01*
X89325781Y-99767679D01*
X89321431Y-99818510D01*
X89318560Y-99887104D01*
X89316600Y-99969475D01*
X89312027Y-100201250D01*
X89047750Y-100201250D01*
X89047750Y-99450922D01*
X89151502Y-99454611D01*
X89202657Y-99456781D01*
X89234168Y-99460197D01*
X89251775Y-99466927D01*
X89261222Y-99479039D01*
X89267541Y-99496400D01*
X89277262Y-99524337D01*
X89283730Y-99539058D01*
X89283831Y-99539184D01*
X89294763Y-99534310D01*
X89318664Y-99516797D01*
X89339805Y-99499384D01*
X89382401Y-99468232D01*
X89426354Y-99449629D01*
X89480206Y-99440909D01*
X89532345Y-99439250D01*
X89615019Y-99449265D01*
G37*
X89615019Y-99449265D02*
X89682849Y-99479706D01*
X89736857Y-99531163D01*
X89763174Y-99572600D01*
X89771952Y-99590924D01*
X89778704Y-99610959D01*
X89783769Y-99636364D01*
X89787489Y-99670798D01*
X89790203Y-99717923D01*
X89792253Y-99781398D01*
X89793979Y-99864883D01*
X89794779Y-99912325D01*
X89799462Y-100201250D01*
X89532256Y-100201250D01*
X89528128Y-99948554D01*
X89526498Y-99861244D01*
X89524610Y-99795707D01*
X89522096Y-99748316D01*
X89518590Y-99715444D01*
X89513723Y-99693464D01*
X89507128Y-99678749D01*
X89499806Y-99669154D01*
X89466877Y-99648688D01*
X89425528Y-99642795D01*
X89387017Y-99652065D01*
X89372423Y-99662490D01*
X89354931Y-99682016D01*
X89341808Y-99703406D01*
X89332333Y-99730635D01*
X89325781Y-99767679D01*
X89321431Y-99818510D01*
X89318560Y-99887104D01*
X89316600Y-99969475D01*
X89312027Y-100201250D01*
X89047750Y-100201250D01*
X89047750Y-99450922D01*
X89151502Y-99454611D01*
X89202657Y-99456781D01*
X89234168Y-99460197D01*
X89251775Y-99466927D01*
X89261222Y-99479039D01*
X89267541Y-99496400D01*
X89277262Y-99524337D01*
X89283730Y-99539058D01*
X89283831Y-99539184D01*
X89294763Y-99534310D01*
X89318664Y-99516797D01*
X89339805Y-99499384D01*
X89382401Y-99468232D01*
X89426354Y-99449629D01*
X89480206Y-99440909D01*
X89532345Y-99439250D01*
X89615019Y-99449265D01*
G36*
X84751942Y-99628943D02*
G01*
X84785380Y-99566268D01*
X84831483Y-99517901D01*
X84895708Y-99479996D01*
X84972505Y-99453803D01*
X85056323Y-99440573D01*
X85141612Y-99441559D01*
X85222823Y-99458012D01*
X85239615Y-99463841D01*
X85310964Y-99499242D01*
X85364745Y-99546439D01*
X85402714Y-99608270D01*
X85426627Y-99687577D01*
X85438104Y-99784745D01*
X85444473Y-99896450D01*
X85207761Y-99896450D01*
X85133378Y-99896836D01*
X85068577Y-99897913D01*
X85017298Y-99899553D01*
X84983477Y-99901629D01*
X84971053Y-99904014D01*
X84971050Y-99904055D01*
X84976012Y-99919510D01*
X84988236Y-99947801D01*
X84991078Y-99953868D01*
X85024836Y-99996506D01*
X85077377Y-100022745D01*
X85147819Y-100032265D01*
X85199594Y-100029684D01*
X85250663Y-100022187D01*
X85298093Y-100011762D01*
X85325025Y-100003139D01*
X85356450Y-99991321D01*
X85377810Y-99985482D01*
X85379557Y-99985350D01*
X85384761Y-99996971D01*
X85387677Y-100027640D01*
X85387761Y-100071064D01*
X85387531Y-100077425D01*
X85383800Y-100169500D01*
X85320300Y-100191169D01*
X85258478Y-100205210D01*
X85181778Y-100212395D01*
X85099712Y-100212737D01*
X85021795Y-100206250D01*
X84957542Y-100192948D01*
X84950375Y-100190611D01*
X84884388Y-100163807D01*
X84836070Y-100133489D01*
X84797740Y-100094565D01*
X84789660Y-100084036D01*
X84746663Y-100005731D01*
X84721343Y-99915105D01*
X84713750Y-99818121D01*
X84722824Y-99731350D01*
X84980996Y-99731350D01*
X85090323Y-99731350D01*
X85143385Y-99730823D01*
X85175939Y-99728537D01*
X85192869Y-99723434D01*
X85199056Y-99714457D01*
X85199650Y-99707662D01*
X85192093Y-99681486D01*
X85173862Y-99651196D01*
X85173328Y-99650512D01*
X85137898Y-99623322D01*
X85095029Y-99615330D01*
X85051667Y-99624803D01*
X85014761Y-99650007D01*
X84991259Y-99689210D01*
X84989264Y-99696425D01*
X84980996Y-99731350D01*
X84722824Y-99731350D01*
X84723933Y-99720746D01*
X84751942Y-99628943D01*
G37*
X84751942Y-99628943D02*
X84785380Y-99566268D01*
X84831483Y-99517901D01*
X84895708Y-99479996D01*
X84972505Y-99453803D01*
X85056323Y-99440573D01*
X85141612Y-99441559D01*
X85222823Y-99458012D01*
X85239615Y-99463841D01*
X85310964Y-99499242D01*
X85364745Y-99546439D01*
X85402714Y-99608270D01*
X85426627Y-99687577D01*
X85438104Y-99784745D01*
X85444473Y-99896450D01*
X85207761Y-99896450D01*
X85133378Y-99896836D01*
X85068577Y-99897913D01*
X85017298Y-99899553D01*
X84983477Y-99901629D01*
X84971053Y-99904014D01*
X84971050Y-99904055D01*
X84976012Y-99919510D01*
X84988236Y-99947801D01*
X84991078Y-99953868D01*
X85024836Y-99996506D01*
X85077377Y-100022745D01*
X85147819Y-100032265D01*
X85199594Y-100029684D01*
X85250663Y-100022187D01*
X85298093Y-100011762D01*
X85325025Y-100003139D01*
X85356450Y-99991321D01*
X85377810Y-99985482D01*
X85379557Y-99985350D01*
X85384761Y-99996971D01*
X85387677Y-100027640D01*
X85387761Y-100071064D01*
X85387531Y-100077425D01*
X85383800Y-100169500D01*
X85320300Y-100191169D01*
X85258478Y-100205210D01*
X85181778Y-100212395D01*
X85099712Y-100212737D01*
X85021795Y-100206250D01*
X84957542Y-100192948D01*
X84950375Y-100190611D01*
X84884388Y-100163807D01*
X84836070Y-100133489D01*
X84797740Y-100094565D01*
X84789660Y-100084036D01*
X84746663Y-100005731D01*
X84721343Y-99915105D01*
X84713750Y-99818121D01*
X84722824Y-99731350D01*
X84980996Y-99731350D01*
X85090323Y-99731350D01*
X85143385Y-99730823D01*
X85175939Y-99728537D01*
X85192869Y-99723434D01*
X85199056Y-99714457D01*
X85199650Y-99707662D01*
X85192093Y-99681486D01*
X85173862Y-99651196D01*
X85173328Y-99650512D01*
X85137898Y-99623322D01*
X85095029Y-99615330D01*
X85051667Y-99624803D01*
X85014761Y-99650007D01*
X84991259Y-99689210D01*
X84989264Y-99696425D01*
X84980996Y-99731350D01*
X84722824Y-99731350D01*
X84723933Y-99720746D01*
X84751942Y-99628943D01*
G36*
X93522541Y-99633797D02*
G01*
X93556285Y-99666295D01*
X93572358Y-99702775D01*
X93574565Y-99716289D01*
X93570159Y-99724688D01*
X93554561Y-99729186D01*
X93523194Y-99731001D01*
X93471478Y-99731349D01*
X93464802Y-99731350D01*
X93410366Y-99730814D01*
X93377050Y-99728672D01*
X93360582Y-99724120D01*
X93356695Y-99716355D01*
X93358041Y-99711261D01*
X93364884Y-99687389D01*
X93365750Y-99680006D01*
X93374181Y-99664158D01*
X93393544Y-99642944D01*
X93434530Y-99619899D01*
X93479743Y-99617591D01*
X93522541Y-99633797D01*
G37*
X93522541Y-99633797D02*
X93556285Y-99666295D01*
X93572358Y-99702775D01*
X93574565Y-99716289D01*
X93570159Y-99724688D01*
X93554561Y-99729186D01*
X93523194Y-99731001D01*
X93471478Y-99731349D01*
X93464802Y-99731350D01*
X93410366Y-99730814D01*
X93377050Y-99728672D01*
X93360582Y-99724120D01*
X93356695Y-99716355D01*
X93358041Y-99711261D01*
X93364884Y-99687389D01*
X93365750Y-99680006D01*
X93374181Y-99664158D01*
X93393544Y-99642944D01*
X93434530Y-99619899D01*
X93479743Y-99617591D01*
X93522541Y-99633797D01*
G36*
X87993650Y-100201250D02*
G01*
X87726950Y-100201250D01*
X87726950Y-99451950D01*
X87993650Y-99451950D01*
X87993650Y-100201250D01*
G37*
X87993650Y-100201250D02*
X87726950Y-100201250D01*
X87726950Y-99451950D01*
X87993650Y-99451950D01*
X87993650Y-100201250D01*
G36*
X87906937Y-99147597D02*
G01*
X87952599Y-99162658D01*
X87980510Y-99189356D01*
X87994066Y-99228916D01*
X87993340Y-99273299D01*
X87978409Y-99314467D01*
X87950897Y-99343428D01*
X87905055Y-99361959D01*
X87851354Y-99369445D01*
X87820074Y-99367037D01*
X87775041Y-99347079D01*
X87743914Y-99311972D01*
X87728841Y-99268252D01*
X87731965Y-99222453D01*
X87755433Y-99181110D01*
X87758122Y-99178322D01*
X87797721Y-99154630D01*
X87850356Y-99144144D01*
X87906937Y-99147597D01*
G37*
X87906937Y-99147597D02*
X87952599Y-99162658D01*
X87980510Y-99189356D01*
X87994066Y-99228916D01*
X87993340Y-99273299D01*
X87978409Y-99314467D01*
X87950897Y-99343428D01*
X87905055Y-99361959D01*
X87851354Y-99369445D01*
X87820074Y-99367037D01*
X87775041Y-99347079D01*
X87743914Y-99311972D01*
X87728841Y-99268252D01*
X87731965Y-99222453D01*
X87755433Y-99181110D01*
X87758122Y-99178322D01*
X87797721Y-99154630D01*
X87850356Y-99144144D01*
X87906937Y-99147597D01*
G36*
X94076950Y-98918550D02*
G01*
X94076950Y-100683850D01*
X81923050Y-100683850D01*
X81923050Y-100633050D01*
X81973850Y-100633050D01*
X89847850Y-100633050D01*
X89847850Y-100201250D01*
X89974850Y-100201250D01*
X90241550Y-100201250D01*
X90241620Y-99988525D01*
X90242431Y-99913689D01*
X90244624Y-99844286D01*
X90247920Y-99785807D01*
X90252037Y-99743745D01*
X90254950Y-99728054D01*
X90278454Y-99681085D01*
X90315510Y-99652053D01*
X90361578Y-99644413D01*
X90364460Y-99644702D01*
X90387377Y-99650210D01*
X90405153Y-99662770D01*
X90418505Y-99685304D01*
X90428150Y-99720734D01*
X90434806Y-99771982D01*
X90439190Y-99841971D01*
X90442020Y-99933623D01*
X90442623Y-99963125D01*
X90447129Y-100201250D01*
X90698750Y-100201250D01*
X90699005Y-100032975D01*
X90701084Y-99916568D01*
X90707290Y-99823458D01*
X90718161Y-99751795D01*
X90734238Y-99699728D01*
X90756058Y-99665410D01*
X90784162Y-99646989D01*
X90812836Y-99642450D01*
X90842919Y-99646786D01*
X90866732Y-99661373D01*
X90884922Y-99688575D01*
X90898137Y-99730758D01*
X90907024Y-99790288D01*
X90912232Y-99869530D01*
X90914409Y-99970849D01*
X90914576Y-100013925D01*
X90914650Y-100201250D01*
X91168650Y-100201250D01*
X91168650Y-99979000D01*
X91315246Y-99979000D01*
X91325033Y-100061846D01*
X91353056Y-100127696D01*
X91398809Y-100175869D01*
X91461783Y-100205684D01*
X91488950Y-100211859D01*
X91551671Y-100216326D01*
X91616951Y-100210525D01*
X91675250Y-100195917D01*
X91712302Y-100177592D01*
X91742220Y-100154021D01*
X91764461Y-100132700D01*
X91765057Y-100131992D01*
X91782593Y-100115575D01*
X91796783Y-100117956D01*
X91812469Y-100141316D01*
X91820142Y-100156800D01*
X91841339Y-100201250D01*
X92034699Y-100201250D01*
X92210050Y-100201250D01*
X92476750Y-100201250D01*
X92476969Y-100096475D01*
X92477488Y-100044752D01*
X92480093Y-100011921D01*
X92486755Y-99991473D01*
X92499444Y-99976900D01*
X92517144Y-99963779D01*
X92557099Y-99935859D01*
X92638536Y-100068554D01*
X92719973Y-100201250D01*
X92865061Y-100201250D01*
X92922357Y-100200583D01*
X92968979Y-100198772D01*
X92999898Y-100196098D01*
X93010150Y-100193096D01*
X93003576Y-100180382D01*
X92985263Y-100149775D01*
X92957318Y-100104674D01*
X92921850Y-100048478D01*
X92880967Y-99984585D01*
X92876307Y-99977352D01*
X92789471Y-99842669D01*
X93087305Y-99842669D01*
X93095715Y-99928486D01*
X93105274Y-99968266D01*
X93142311Y-100053776D01*
X93197275Y-100121299D01*
X93270132Y-100170808D01*
X93360847Y-100202276D01*
X93411950Y-100211120D01*
X93483471Y-100215421D01*
X93562345Y-100212743D01*
X93638600Y-100203927D01*
X93702266Y-100189814D01*
X93715000Y-100185573D01*
X93765800Y-100167029D01*
X93769531Y-100076189D01*
X93770531Y-100025302D01*
X93766029Y-99996330D01*
X93752533Y-99985869D01*
X93726551Y-99990516D01*
X93694325Y-100002866D01*
X93635361Y-100020094D01*
X93567346Y-100029668D01*
X93501607Y-100030584D01*
X93456407Y-100023923D01*
X93411649Y-100003518D01*
X93375813Y-99972011D01*
X93355435Y-99935966D01*
X93353050Y-99920137D01*
X93354506Y-99911703D01*
X93361164Y-99905545D01*
X93376456Y-99901307D01*
X93403814Y-99898635D01*
X93446671Y-99897172D01*
X93508458Y-99896562D01*
X93581650Y-99896450D01*
X93810250Y-99896450D01*
X93810250Y-99795107D01*
X93801772Y-99692418D01*
X93776008Y-99607809D01*
X93732460Y-99540297D01*
X93670630Y-99488904D01*
X93648663Y-99476595D01*
X93616183Y-99461776D01*
X93584258Y-99452522D01*
X93545383Y-99447593D01*
X93492056Y-99445752D01*
X93461000Y-99445600D01*
X93373305Y-99449415D01*
X93304124Y-99462199D01*
X93247542Y-99485961D01*
X93197643Y-99522707D01*
X93178082Y-99541644D01*
X93138942Y-99597575D01*
X93110026Y-99670719D01*
X93092445Y-99754582D01*
X93087305Y-99842669D01*
X92789471Y-99842669D01*
X92742465Y-99769763D01*
X92869359Y-99614031D01*
X92996253Y-99458300D01*
X92853976Y-99454607D01*
X92804019Y-99452786D01*
X92766495Y-99451936D01*
X92737613Y-99454505D01*
X92713585Y-99462940D01*
X92690623Y-99479688D01*
X92664936Y-99507197D01*
X92632736Y-99547914D01*
X92590234Y-99604286D01*
X92559708Y-99644674D01*
X92466301Y-99767548D01*
X92468350Y-99466874D01*
X92470400Y-99166200D01*
X92340225Y-99162580D01*
X92210050Y-99158961D01*
X92210050Y-100201250D01*
X92034699Y-100201250D01*
X92029389Y-99918675D01*
X92027170Y-99820080D01*
X92024504Y-99743586D01*
X92021133Y-99685893D01*
X92016797Y-99643703D01*
X92011238Y-99613716D01*
X92004198Y-99592634D01*
X92003754Y-99591650D01*
X91966309Y-99529723D01*
X91916947Y-99484849D01*
X91852847Y-99455619D01*
X91771190Y-99440622D01*
X91695949Y-99437874D01*
X91599234Y-99444127D01*
X91507496Y-99460046D01*
X91430415Y-99483934D01*
X91428453Y-99484746D01*
X91385856Y-99502544D01*
X91417969Y-99575672D01*
X91436350Y-99615665D01*
X91451895Y-99646214D01*
X91460098Y-99659197D01*
X91476232Y-99660750D01*
X91509711Y-99655340D01*
X91553814Y-99644121D01*
X91561698Y-99641776D01*
X91632584Y-99625029D01*
X91686069Y-99624010D01*
X91725035Y-99639157D01*
X91752249Y-99670704D01*
X91763482Y-99696525D01*
X91764103Y-99711625D01*
X91764013Y-99711719D01*
X91749040Y-99715916D01*
X91714588Y-99721366D01*
X91666493Y-99727228D01*
X91632577Y-99730682D01*
X91527629Y-99746388D01*
X91445183Y-99772089D01*
X91383999Y-99808754D01*
X91342838Y-99857355D01*
X91320457Y-99918862D01*
X91315246Y-99979000D01*
X91168650Y-99979000D01*
X91168650Y-99924112D01*
X91168034Y-99815904D01*
X91165757Y-99729723D01*
X91161175Y-99662218D01*
X91153646Y-99610035D01*
X91142526Y-99569823D01*
X91127171Y-99538229D01*
X91106938Y-99511902D01*
X91085572Y-99491290D01*
X91030399Y-99458404D01*
X90962164Y-99441064D01*
X90887939Y-99439331D01*
X90814799Y-99453269D01*
X90749814Y-99482938D01*
X90741875Y-99488277D01*
X90703992Y-99513859D01*
X90680068Y-99525267D01*
X90663877Y-99523747D01*
X90649192Y-99510546D01*
X90646509Y-99507364D01*
X90605940Y-99475502D01*
X90549902Y-99454092D01*
X90484477Y-99443025D01*
X90415745Y-99442196D01*
X90349787Y-99451498D01*
X90292682Y-99470824D01*
X90250510Y-99500066D01*
X90239182Y-99514521D01*
X90222143Y-99536198D01*
X90209008Y-99535904D01*
X90196357Y-99512359D01*
X90190750Y-99496400D01*
X90176080Y-99451950D01*
X89974850Y-99451950D01*
X89974850Y-100201250D01*
X89847850Y-100201250D01*
X89847850Y-98982050D01*
X81973850Y-98982050D01*
X81973850Y-100633050D01*
X81923050Y-100633050D01*
X81923050Y-98918550D01*
X94076950Y-98918550D01*
G37*
X94076950Y-98918550D02*
X94076950Y-100683850D01*
X81923050Y-100683850D01*
X81923050Y-100633050D01*
X81973850Y-100633050D01*
X89847850Y-100633050D01*
X89847850Y-100201250D01*
X89974850Y-100201250D01*
X90241550Y-100201250D01*
X90241620Y-99988525D01*
X90242431Y-99913689D01*
X90244624Y-99844286D01*
X90247920Y-99785807D01*
X90252037Y-99743745D01*
X90254950Y-99728054D01*
X90278454Y-99681085D01*
X90315510Y-99652053D01*
X90361578Y-99644413D01*
X90364460Y-99644702D01*
X90387377Y-99650210D01*
X90405153Y-99662770D01*
X90418505Y-99685304D01*
X90428150Y-99720734D01*
X90434806Y-99771982D01*
X90439190Y-99841971D01*
X90442020Y-99933623D01*
X90442623Y-99963125D01*
X90447129Y-100201250D01*
X90698750Y-100201250D01*
X90699005Y-100032975D01*
X90701084Y-99916568D01*
X90707290Y-99823458D01*
X90718161Y-99751795D01*
X90734238Y-99699728D01*
X90756058Y-99665410D01*
X90784162Y-99646989D01*
X90812836Y-99642450D01*
X90842919Y-99646786D01*
X90866732Y-99661373D01*
X90884922Y-99688575D01*
X90898137Y-99730758D01*
X90907024Y-99790288D01*
X90912232Y-99869530D01*
X90914409Y-99970849D01*
X90914576Y-100013925D01*
X90914650Y-100201250D01*
X91168650Y-100201250D01*
X91168650Y-99979000D01*
X91315246Y-99979000D01*
X91325033Y-100061846D01*
X91353056Y-100127696D01*
X91398809Y-100175869D01*
X91461783Y-100205684D01*
X91488950Y-100211859D01*
X91551671Y-100216326D01*
X91616951Y-100210525D01*
X91675250Y-100195917D01*
X91712302Y-100177592D01*
X91742220Y-100154021D01*
X91764461Y-100132700D01*
X91765057Y-100131992D01*
X91782593Y-100115575D01*
X91796783Y-100117956D01*
X91812469Y-100141316D01*
X91820142Y-100156800D01*
X91841339Y-100201250D01*
X92034699Y-100201250D01*
X92210050Y-100201250D01*
X92476750Y-100201250D01*
X92476969Y-100096475D01*
X92477488Y-100044752D01*
X92480093Y-100011921D01*
X92486755Y-99991473D01*
X92499444Y-99976900D01*
X92517144Y-99963779D01*
X92557099Y-99935859D01*
X92638536Y-100068554D01*
X92719973Y-100201250D01*
X92865061Y-100201250D01*
X92922357Y-100200583D01*
X92968979Y-100198772D01*
X92999898Y-100196098D01*
X93010150Y-100193096D01*
X93003576Y-100180382D01*
X92985263Y-100149775D01*
X92957318Y-100104674D01*
X92921850Y-100048478D01*
X92880967Y-99984585D01*
X92876307Y-99977352D01*
X92789471Y-99842669D01*
X93087305Y-99842669D01*
X93095715Y-99928486D01*
X93105274Y-99968266D01*
X93142311Y-100053776D01*
X93197275Y-100121299D01*
X93270132Y-100170808D01*
X93360847Y-100202276D01*
X93411950Y-100211120D01*
X93483471Y-100215421D01*
X93562345Y-100212743D01*
X93638600Y-100203927D01*
X93702266Y-100189814D01*
X93715000Y-100185573D01*
X93765800Y-100167029D01*
X93769531Y-100076189D01*
X93770531Y-100025302D01*
X93766029Y-99996330D01*
X93752533Y-99985869D01*
X93726551Y-99990516D01*
X93694325Y-100002866D01*
X93635361Y-100020094D01*
X93567346Y-100029668D01*
X93501607Y-100030584D01*
X93456407Y-100023923D01*
X93411649Y-100003518D01*
X93375813Y-99972011D01*
X93355435Y-99935966D01*
X93353050Y-99920137D01*
X93354506Y-99911703D01*
X93361164Y-99905545D01*
X93376456Y-99901307D01*
X93403814Y-99898635D01*
X93446671Y-99897172D01*
X93508458Y-99896562D01*
X93581650Y-99896450D01*
X93810250Y-99896450D01*
X93810250Y-99795107D01*
X93801772Y-99692418D01*
X93776008Y-99607809D01*
X93732460Y-99540297D01*
X93670630Y-99488904D01*
X93648663Y-99476595D01*
X93616183Y-99461776D01*
X93584258Y-99452522D01*
X93545383Y-99447593D01*
X93492056Y-99445752D01*
X93461000Y-99445600D01*
X93373305Y-99449415D01*
X93304124Y-99462199D01*
X93247542Y-99485961D01*
X93197643Y-99522707D01*
X93178082Y-99541644D01*
X93138942Y-99597575D01*
X93110026Y-99670719D01*
X93092445Y-99754582D01*
X93087305Y-99842669D01*
X92789471Y-99842669D01*
X92742465Y-99769763D01*
X92869359Y-99614031D01*
X92996253Y-99458300D01*
X92853976Y-99454607D01*
X92804019Y-99452786D01*
X92766495Y-99451936D01*
X92737613Y-99454505D01*
X92713585Y-99462940D01*
X92690623Y-99479688D01*
X92664936Y-99507197D01*
X92632736Y-99547914D01*
X92590234Y-99604286D01*
X92559708Y-99644674D01*
X92466301Y-99767548D01*
X92468350Y-99466874D01*
X92470400Y-99166200D01*
X92340225Y-99162580D01*
X92210050Y-99158961D01*
X92210050Y-100201250D01*
X92034699Y-100201250D01*
X92029389Y-99918675D01*
X92027170Y-99820080D01*
X92024504Y-99743586D01*
X92021133Y-99685893D01*
X92016797Y-99643703D01*
X92011238Y-99613716D01*
X92004198Y-99592634D01*
X92003754Y-99591650D01*
X91966309Y-99529723D01*
X91916947Y-99484849D01*
X91852847Y-99455619D01*
X91771190Y-99440622D01*
X91695949Y-99437874D01*
X91599234Y-99444127D01*
X91507496Y-99460046D01*
X91430415Y-99483934D01*
X91428453Y-99484746D01*
X91385856Y-99502544D01*
X91417969Y-99575672D01*
X91436350Y-99615665D01*
X91451895Y-99646214D01*
X91460098Y-99659197D01*
X91476232Y-99660750D01*
X91509711Y-99655340D01*
X91553814Y-99644121D01*
X91561698Y-99641776D01*
X91632584Y-99625029D01*
X91686069Y-99624010D01*
X91725035Y-99639157D01*
X91752249Y-99670704D01*
X91763482Y-99696525D01*
X91764103Y-99711625D01*
X91764013Y-99711719D01*
X91749040Y-99715916D01*
X91714588Y-99721366D01*
X91666493Y-99727228D01*
X91632577Y-99730682D01*
X91527629Y-99746388D01*
X91445183Y-99772089D01*
X91383999Y-99808754D01*
X91342838Y-99857355D01*
X91320457Y-99918862D01*
X91315246Y-99979000D01*
X91168650Y-99979000D01*
X91168650Y-99924112D01*
X91168034Y-99815904D01*
X91165757Y-99729723D01*
X91161175Y-99662218D01*
X91153646Y-99610035D01*
X91142526Y-99569823D01*
X91127171Y-99538229D01*
X91106938Y-99511902D01*
X91085572Y-99491290D01*
X91030399Y-99458404D01*
X90962164Y-99441064D01*
X90887939Y-99439331D01*
X90814799Y-99453269D01*
X90749814Y-99482938D01*
X90741875Y-99488277D01*
X90703992Y-99513859D01*
X90680068Y-99525267D01*
X90663877Y-99523747D01*
X90649192Y-99510546D01*
X90646509Y-99507364D01*
X90605940Y-99475502D01*
X90549902Y-99454092D01*
X90484477Y-99443025D01*
X90415745Y-99442196D01*
X90349787Y-99451498D01*
X90292682Y-99470824D01*
X90250510Y-99500066D01*
X90239182Y-99514521D01*
X90222143Y-99536198D01*
X90209008Y-99535904D01*
X90196357Y-99512359D01*
X90190750Y-99496400D01*
X90176080Y-99451950D01*
X89974850Y-99451950D01*
X89974850Y-100201250D01*
X89847850Y-100201250D01*
X89847850Y-98982050D01*
X81973850Y-98982050D01*
X81973850Y-100633050D01*
X81923050Y-100633050D01*
X81923050Y-98918550D01*
X94076950Y-98918550D01*
D14*
X87077500Y-81637258D02*
X87077500Y-81162742D01*
X88122500Y-81637258D02*
X88122500Y-81162742D01*
X99790000Y-95659420D02*
X99790000Y-95940580D01*
X100810000Y-95659420D02*
X100810000Y-95940580D01*
X93685000Y-107165000D02*
X91400000Y-107165000D01*
X93685000Y-108635000D02*
X93685000Y-107165000D01*
X91400000Y-108635000D02*
X93685000Y-108635000D01*
X115410000Y-89440000D02*
X115410000Y-82760000D01*
X107590000Y-91160000D02*
X107590000Y-90140000D01*
X107590000Y-81040000D02*
X107590000Y-82060000D01*
X111840000Y-91160000D02*
X107590000Y-91160000D01*
X109190000Y-88860000D02*
X106300000Y-88860000D01*
X111840000Y-81040000D02*
X107590000Y-81040000D01*
X107590000Y-82060000D02*
X109190000Y-82060000D01*
X109190000Y-82060000D02*
X109190000Y-83340000D01*
X107590000Y-90140000D02*
X109190000Y-90140000D01*
X109190000Y-90140000D02*
X109190000Y-88860000D01*
X75910000Y-83302064D02*
X75910000Y-82097936D01*
X74090000Y-83302064D02*
X74090000Y-82097936D01*
X71040000Y-99760000D02*
X72740000Y-99760000D01*
X75485000Y-93375000D02*
X75485000Y-94000000D01*
X72104437Y-94240000D02*
X72740000Y-94240000D01*
X72104437Y-94240000D02*
X71040000Y-95304437D01*
X71040000Y-95304437D02*
X71040000Y-99760000D01*
X75797500Y-93687500D02*
X75172500Y-93687500D01*
X75495563Y-94240000D02*
X74860000Y-94240000D01*
X76560000Y-95304437D02*
X76560000Y-99760000D01*
X75495563Y-94240000D02*
X76560000Y-95304437D01*
X76560000Y-99760000D02*
X74860000Y-99760000D01*
X76560000Y-87304437D02*
X76560000Y-91760000D01*
X75495563Y-86240000D02*
X76560000Y-87304437D01*
X76560000Y-91760000D02*
X74860000Y-91760000D01*
X75797500Y-85687500D02*
X75172500Y-85687500D01*
X71040000Y-91760000D02*
X72740000Y-91760000D01*
X72104437Y-86240000D02*
X72740000Y-86240000D01*
X75485000Y-85375000D02*
X75485000Y-86000000D01*
X71040000Y-87304437D02*
X71040000Y-91760000D01*
X75495563Y-86240000D02*
X74860000Y-86240000D01*
X72104437Y-86240000D02*
X71040000Y-87304437D01*
D16*
X77005000Y-76500000D03*
X73195000Y-76500000D03*
%LPC*%
D17*
X67000000Y-77000000D03*
X113000000Y-77000000D03*
X67000000Y-107000000D03*
X113000000Y-107000000D03*
D18*
X79800000Y-89025000D03*
X79800000Y-87375000D03*
D19*
X84120000Y-96850000D03*
X85390000Y-96850000D03*
X86660000Y-96850000D03*
X87930000Y-96850000D03*
X89200000Y-96850000D03*
X90470000Y-96850000D03*
X91740000Y-96850000D03*
X93010000Y-96850000D03*
X94280000Y-96850000D03*
X94280000Y-87550000D03*
X93010000Y-87550000D03*
X91740000Y-87550000D03*
X90470000Y-87550000D03*
X89200000Y-87550000D03*
X87930000Y-87550000D03*
X86660000Y-87550000D03*
X85390000Y-87550000D03*
X84120000Y-87550000D03*
D20*
X82300000Y-90525000D03*
X82300000Y-92075000D03*
D21*
X78225000Y-92000000D03*
X79775000Y-92000000D03*
D22*
X96800000Y-87575000D03*
X96800000Y-89225000D03*
D18*
X81500000Y-89025000D03*
X81500000Y-87375000D03*
D20*
X100000000Y-87225000D03*
X100000000Y-88775000D03*
D23*
X110700000Y-97700000D03*
X110700000Y-96700000D03*
X110700000Y-95700000D03*
X110700000Y-94700000D03*
D24*
X114575000Y-99000000D03*
X114575000Y-93400000D03*
D25*
X72300000Y-104700000D03*
X73300000Y-104700000D03*
X74300000Y-104700000D03*
X75300000Y-104700000D03*
D26*
X71000000Y-108575000D03*
X76600000Y-108575000D03*
D27*
X106900000Y-105800000D03*
D28*
X106900000Y-108340000D03*
X104360000Y-105800000D03*
X104360000Y-108340000D03*
X101820000Y-105800000D03*
X101820000Y-108340000D03*
D29*
X72100000Y-81050000D03*
X72100000Y-84350000D03*
D30*
X102295000Y-96875000D03*
X103565000Y-96875000D03*
X104835000Y-96875000D03*
X106105000Y-96875000D03*
X106105000Y-91925000D03*
X104835000Y-91925000D03*
X103565000Y-91925000D03*
X102295000Y-91925000D03*
D22*
X103500000Y-88275000D03*
X103500000Y-89925000D03*
X105000000Y-88275000D03*
X105000000Y-89925000D03*
X106700000Y-101575000D03*
X106700000Y-103225000D03*
D18*
X104500000Y-103225000D03*
X104500000Y-101575000D03*
D31*
X69550000Y-95025000D03*
X69550000Y-96275000D03*
X69550000Y-97525000D03*
X69550000Y-98775000D03*
D32*
X66350000Y-93175000D03*
X66350000Y-100625000D03*
D33*
X77005000Y-76500000D03*
X73195000Y-76500000D03*
D34*
X99187500Y-107900000D03*
X97612500Y-107900000D03*
D35*
X94475000Y-107900000D03*
X96125000Y-107900000D03*
D36*
X81405000Y-94025000D03*
X80135000Y-94025000D03*
X78865000Y-94025000D03*
X77595000Y-94025000D03*
X77595000Y-98975000D03*
X78865000Y-98975000D03*
X80135000Y-98975000D03*
X81405000Y-98975000D03*
D37*
X96800000Y-93150000D03*
X96800000Y-95450000D03*
X98600000Y-95450000D03*
X98600000Y-93150000D03*
D31*
X69550000Y-85325000D03*
X69550000Y-86575000D03*
X69550000Y-87825000D03*
X69550000Y-89075000D03*
D32*
X66350000Y-90925000D03*
X66350000Y-83475000D03*
D20*
X80100000Y-101825000D03*
X80100000Y-103375000D03*
D18*
X78600000Y-103425000D03*
X78600000Y-101775000D03*
D22*
X81600000Y-101775000D03*
X81600000Y-103425000D03*
D35*
X88275000Y-107900000D03*
X89925000Y-107900000D03*
D38*
X86175000Y-84300000D03*
X84625000Y-84300000D03*
X89175000Y-84300000D03*
X87625000Y-84300000D03*
X92175000Y-84300000D03*
X90625000Y-84300000D03*
X95175000Y-84300000D03*
X93625000Y-84300000D03*
D39*
X81125000Y-78075000D03*
D28*
X81125000Y-75535000D03*
X83665000Y-78075000D03*
X83665000Y-75535000D03*
X86205000Y-78075000D03*
X86205000Y-75535000D03*
X88745000Y-78075000D03*
X88745000Y-75535000D03*
X91285000Y-78075000D03*
X91285000Y-75535000D03*
X93825000Y-78075000D03*
X93825000Y-75535000D03*
X96365000Y-78075000D03*
X96365000Y-75535000D03*
X98905000Y-78075000D03*
X98905000Y-75535000D03*
D27*
X106525000Y-75525000D03*
D28*
X106525000Y-78065000D03*
X103985000Y-75525000D03*
X103985000Y-78065000D03*
X101445000Y-75525000D03*
X101445000Y-78065000D03*
D18*
X84600000Y-82225000D03*
X84600000Y-80575000D03*
X90600000Y-82225000D03*
X90600000Y-80575000D03*
X93600000Y-82225000D03*
X93600000Y-80575000D03*
D22*
X89100000Y-80575000D03*
X89100000Y-82225000D03*
X92100000Y-80575000D03*
X92100000Y-82225000D03*
X95100000Y-80575000D03*
X95100000Y-82225000D03*
X98900000Y-80575000D03*
X98900000Y-82225000D03*
X100400000Y-80575000D03*
X100400000Y-82225000D03*
X80600000Y-82575000D03*
X80600000Y-84225000D03*
X79100000Y-82575000D03*
X79100000Y-84225000D03*
X103200000Y-80575000D03*
X103200000Y-82225000D03*
X105000000Y-80575000D03*
X105000000Y-82225000D03*
D40*
X91200000Y-105000000D03*
X83400000Y-105000000D03*
D22*
X86100000Y-80575000D03*
X86100000Y-82225000D03*
D41*
X100300000Y-93575000D03*
X100300000Y-92025000D03*
D18*
X87600000Y-82225000D03*
X87600000Y-80575000D03*
D20*
X100300000Y-95025000D03*
X100300000Y-96575000D03*
D34*
X92987500Y-107900000D03*
X91412500Y-107900000D03*
D42*
X108050000Y-88100000D03*
X108050000Y-86100000D03*
X108050000Y-84100000D03*
D43*
X113800000Y-81750000D03*
X113800000Y-90450000D03*
D44*
X75000000Y-84100000D03*
X75000000Y-81300000D03*
D45*
X73800000Y-94800000D03*
X73800000Y-99200000D03*
X73800000Y-86800000D03*
X73800000Y-91200000D03*
M02*
