G04 #@! TF.GenerationSoftware,KiCad,Pcbnew,6.0.11-2627ca5db0~126~ubuntu22.04.1*
G04 #@! TF.CreationDate,2023-08-09T03:56:25+02:00*
G04 #@! TF.ProjectId,OpenCyphalPicoBase,4f70656e-4379-4706-9861-6c5069636f42,0.3*
G04 #@! TF.SameCoordinates,PX55d4a80PY57bcf00*
G04 #@! TF.FileFunction,Copper,L1,Top*
G04 #@! TF.FilePolarity,Positive*
%FSLAX46Y46*%
G04 Gerber Fmt 4.6, Leading zero omitted, Abs format (unit mm)*
G04 Created by KiCad (PCBNEW 6.0.11-2627ca5db0~126~ubuntu22.04.1) date 2023-08-09 03:56:25*
%MOMM*%
%LPD*%
G01*
G04 APERTURE LIST*
G04 Aperture macros list*
%AMRoundRect*
0 Rectangle with rounded corners*
0 $1 Rounding radius*
0 $2 $3 $4 $5 $6 $7 $8 $9 X,Y pos of 4 corners*
0 Add a 4 corners polygon primitive as box body*
4,1,4,$2,$3,$4,$5,$6,$7,$8,$9,$2,$3,0*
0 Add four circle primitives for the rounded corners*
1,1,$1+$1,$2,$3*
1,1,$1+$1,$4,$5*
1,1,$1+$1,$6,$7*
1,1,$1+$1,$8,$9*
0 Add four rect primitives between the rounded corners*
20,1,$1+$1,$2,$3,$4,$5,0*
20,1,$1+$1,$4,$5,$6,$7,0*
20,1,$1+$1,$6,$7,$8,$9,0*
20,1,$1+$1,$8,$9,$2,$3,0*%
G04 Aperture macros list end*
%ADD10C,0.375000*%
G04 #@! TA.AperFunction,NonConductor*
%ADD11C,0.375000*%
G04 #@! TD*
G04 #@! TA.AperFunction,ComponentPad*
%ADD12C,5.800000*%
G04 #@! TD*
G04 #@! TA.AperFunction,SMDPad,CuDef*
%ADD13RoundRect,0.200000X0.275000X-0.200000X0.275000X0.200000X-0.275000X0.200000X-0.275000X-0.200000X0*%
G04 #@! TD*
G04 #@! TA.AperFunction,SMDPad,CuDef*
%ADD14RoundRect,0.150000X0.150000X-0.875000X0.150000X0.875000X-0.150000X0.875000X-0.150000X-0.875000X0*%
G04 #@! TD*
G04 #@! TA.AperFunction,SMDPad,CuDef*
%ADD15RoundRect,0.225000X-0.250000X0.225000X-0.250000X-0.225000X0.250000X-0.225000X0.250000X0.225000X0*%
G04 #@! TD*
G04 #@! TA.AperFunction,SMDPad,CuDef*
%ADD16RoundRect,0.225000X-0.225000X-0.250000X0.225000X-0.250000X0.225000X0.250000X-0.225000X0.250000X0*%
G04 #@! TD*
G04 #@! TA.AperFunction,SMDPad,CuDef*
%ADD17RoundRect,0.200000X-0.275000X0.200000X-0.275000X-0.200000X0.275000X-0.200000X0.275000X0.200000X0*%
G04 #@! TD*
G04 #@! TA.AperFunction,SMDPad,CuDef*
%ADD18RoundRect,0.150000X0.625000X-0.150000X0.625000X0.150000X-0.625000X0.150000X-0.625000X-0.150000X0*%
G04 #@! TD*
G04 #@! TA.AperFunction,SMDPad,CuDef*
%ADD19RoundRect,0.250000X0.650000X-0.350000X0.650000X0.350000X-0.650000X0.350000X-0.650000X-0.350000X0*%
G04 #@! TD*
G04 #@! TA.AperFunction,SMDPad,CuDef*
%ADD20RoundRect,0.150000X-0.150000X-0.625000X0.150000X-0.625000X0.150000X0.625000X-0.150000X0.625000X0*%
G04 #@! TD*
G04 #@! TA.AperFunction,SMDPad,CuDef*
%ADD21RoundRect,0.250000X-0.350000X-0.650000X0.350000X-0.650000X0.350000X0.650000X-0.350000X0.650000X0*%
G04 #@! TD*
G04 #@! TA.AperFunction,ComponentPad*
%ADD22R,1.700000X1.700000*%
G04 #@! TD*
G04 #@! TA.AperFunction,ComponentPad*
%ADD23O,1.700000X1.700000*%
G04 #@! TD*
G04 #@! TA.AperFunction,SMDPad,CuDef*
%ADD24R,1.200000X0.900000*%
G04 #@! TD*
G04 #@! TA.AperFunction,SMDPad,CuDef*
%ADD25RoundRect,0.150000X0.150000X-0.825000X0.150000X0.825000X-0.150000X0.825000X-0.150000X-0.825000X0*%
G04 #@! TD*
G04 #@! TA.AperFunction,SMDPad,CuDef*
%ADD26RoundRect,0.150000X-0.700000X0.150000X-0.700000X-0.150000X0.700000X-0.150000X0.700000X0.150000X0*%
G04 #@! TD*
G04 #@! TA.AperFunction,SMDPad,CuDef*
%ADD27RoundRect,0.250000X-1.100000X0.250000X-1.100000X-0.250000X1.100000X-0.250000X1.100000X0.250000X0*%
G04 #@! TD*
G04 #@! TA.AperFunction,SMDPad,CuDef*
%ADD28RoundRect,0.218750X0.218750X0.256250X-0.218750X0.256250X-0.218750X-0.256250X0.218750X-0.256250X0*%
G04 #@! TD*
G04 #@! TA.AperFunction,SMDPad,CuDef*
%ADD29RoundRect,0.200000X-0.200000X-0.275000X0.200000X-0.275000X0.200000X0.275000X-0.200000X0.275000X0*%
G04 #@! TD*
G04 #@! TA.AperFunction,SMDPad,CuDef*
%ADD30RoundRect,0.150000X-0.150000X0.825000X-0.150000X-0.825000X0.150000X-0.825000X0.150000X0.825000X0*%
G04 #@! TD*
G04 #@! TA.AperFunction,SMDPad,CuDef*
%ADD31R,1.100000X1.300000*%
G04 #@! TD*
G04 #@! TA.AperFunction,SMDPad,CuDef*
%ADD32RoundRect,0.225000X0.225000X0.250000X-0.225000X0.250000X-0.225000X-0.250000X0.225000X-0.250000X0*%
G04 #@! TD*
G04 #@! TA.AperFunction,SMDPad,CuDef*
%ADD33R,1.500000X1.500000*%
G04 #@! TD*
G04 #@! TA.AperFunction,SMDPad,CuDef*
%ADD34RoundRect,0.225000X0.250000X-0.225000X0.250000X0.225000X-0.250000X0.225000X-0.250000X-0.225000X0*%
G04 #@! TD*
G04 #@! TA.AperFunction,SMDPad,CuDef*
%ADD35RoundRect,0.250000X1.500000X-0.250000X1.500000X0.250000X-1.500000X0.250000X-1.500000X-0.250000X0*%
G04 #@! TD*
G04 #@! TA.AperFunction,SMDPad,CuDef*
%ADD36RoundRect,0.250001X1.449999X-0.499999X1.449999X0.499999X-1.449999X0.499999X-1.449999X-0.499999X0*%
G04 #@! TD*
G04 #@! TA.AperFunction,SMDPad,CuDef*
%ADD37RoundRect,0.150000X-0.587500X-0.150000X0.587500X-0.150000X0.587500X0.150000X-0.587500X0.150000X0*%
G04 #@! TD*
G04 #@! TA.AperFunction,SMDPad,CuDef*
%ADD38RoundRect,0.250000X0.625000X-0.375000X0.625000X0.375000X-0.625000X0.375000X-0.625000X-0.375000X0*%
G04 #@! TD*
G04 #@! TA.AperFunction,SMDPad,CuDef*
%ADD39RoundRect,0.250000X-0.550000X1.250000X-0.550000X-1.250000X0.550000X-1.250000X0.550000X1.250000X0*%
G04 #@! TD*
G04 #@! TA.AperFunction,ViaPad*
%ADD40C,0.800000*%
G04 #@! TD*
G04 #@! TA.AperFunction,Conductor*
%ADD41C,0.200000*%
G04 #@! TD*
G04 #@! TA.AperFunction,Conductor*
%ADD42C,0.500000*%
G04 #@! TD*
G04 #@! TA.AperFunction,Conductor*
%ADD43C,0.400000*%
G04 #@! TD*
G04 APERTURE END LIST*
D10*
D11*
X-12242858Y-16278571D02*
X-11671429Y-16278571D01*
X-12028572Y-15778571D02*
X-12028572Y-17064285D01*
X-11957143Y-17207142D01*
X-11814286Y-17278571D01*
X-11671429Y-17278571D01*
X-10957143Y-17278571D02*
X-11100000Y-17207142D01*
X-11171429Y-17135714D01*
X-11242858Y-16992857D01*
X-11242858Y-16564285D01*
X-11171429Y-16421428D01*
X-11100000Y-16350000D01*
X-10957143Y-16278571D01*
X-10742858Y-16278571D01*
X-10600000Y-16350000D01*
X-10528572Y-16421428D01*
X-10457143Y-16564285D01*
X-10457143Y-16992857D01*
X-10528572Y-17135714D01*
X-10600000Y-17207142D01*
X-10742858Y-17278571D01*
X-10957143Y-17278571D01*
X-9814286Y-16278571D02*
X-9814286Y-17778571D01*
X-9814286Y-16350000D02*
X-9671429Y-16278571D01*
X-9385715Y-16278571D01*
X-9242858Y-16350000D01*
X-9171429Y-16421428D01*
X-9100000Y-16564285D01*
X-9100000Y-16992857D01*
X-9171429Y-17135714D01*
X-9242858Y-17207142D01*
X-9385715Y-17278571D01*
X-9671429Y-17278571D01*
X-9814286Y-17207142D01*
D12*
X-23000000Y15000000D03*
X23000000Y15000000D03*
X-23000000Y-15000000D03*
X23000000Y-15000000D03*
D13*
X-10200000Y2975000D03*
X-10200000Y4625000D03*
D14*
X-5880000Y-4850000D03*
X-4610000Y-4850000D03*
X-3340000Y-4850000D03*
X-2070000Y-4850000D03*
X-800000Y-4850000D03*
X470000Y-4850000D03*
X1740000Y-4850000D03*
X3010000Y-4850000D03*
X4280000Y-4850000D03*
X4280000Y4450000D03*
X3010000Y4450000D03*
X1740000Y4450000D03*
X470000Y4450000D03*
X-800000Y4450000D03*
X-2070000Y4450000D03*
X-3340000Y4450000D03*
X-4610000Y4450000D03*
X-5880000Y4450000D03*
D15*
X-7700000Y1475000D03*
X-7700000Y-75000D03*
D16*
X-11775000Y0D03*
X-10225000Y0D03*
D17*
X6800000Y4425000D03*
X6800000Y2775000D03*
D13*
X-8500000Y2975000D03*
X-8500000Y4625000D03*
D15*
X10000000Y4775000D03*
X10000000Y3225000D03*
D18*
X20700000Y-5700000D03*
X20700000Y-4700000D03*
X20700000Y-3700000D03*
X20700000Y-2700000D03*
D19*
X24575000Y-7000000D03*
X24575000Y-1400000D03*
D20*
X-17700000Y-12700000D03*
X-16700000Y-12700000D03*
X-15700000Y-12700000D03*
X-14700000Y-12700000D03*
D21*
X-19000000Y-16575000D03*
X-13400000Y-16575000D03*
D22*
X16900000Y-13800000D03*
D23*
X16900000Y-16340000D03*
X14360000Y-13800000D03*
X14360000Y-16340000D03*
X11820000Y-13800000D03*
X11820000Y-16340000D03*
D24*
X-17900000Y10950000D03*
X-17900000Y7650000D03*
D25*
X12295000Y-4875000D03*
X13565000Y-4875000D03*
X14835000Y-4875000D03*
X16105000Y-4875000D03*
X16105000Y75000D03*
X14835000Y75000D03*
X13565000Y75000D03*
X12295000Y75000D03*
D17*
X13500000Y3725000D03*
X13500000Y2075000D03*
X15000000Y3725000D03*
X15000000Y2075000D03*
X16700000Y-9575000D03*
X16700000Y-11225000D03*
D13*
X14500000Y-11225000D03*
X14500000Y-9575000D03*
D26*
X-20450000Y-3025000D03*
X-20450000Y-4275000D03*
X-20450000Y-5525000D03*
X-20450000Y-6775000D03*
D27*
X-23650000Y-1175000D03*
X-23650000Y-8625000D03*
D28*
X9187500Y-15900000D03*
X7612500Y-15900000D03*
D29*
X4475000Y-15900000D03*
X6125000Y-15900000D03*
D30*
X-8595000Y-2025000D03*
X-9865000Y-2025000D03*
X-11135000Y-2025000D03*
X-12405000Y-2025000D03*
X-12405000Y-6975000D03*
X-11135000Y-6975000D03*
X-9865000Y-6975000D03*
X-8595000Y-6975000D03*
D31*
X6800000Y-1150000D03*
X6800000Y-3450000D03*
X8600000Y-3450000D03*
X8600000Y-1150000D03*
D26*
X-20450000Y6675000D03*
X-20450000Y5425000D03*
X-20450000Y4175000D03*
X-20450000Y2925000D03*
D27*
X-23650000Y1075000D03*
X-23650000Y8525000D03*
D15*
X-9900000Y-9825000D03*
X-9900000Y-11375000D03*
D13*
X-11400000Y-11425000D03*
X-11400000Y-9775000D03*
D17*
X-8400000Y-9775000D03*
X-8400000Y-11425000D03*
D29*
X-1725000Y-15900000D03*
X-75000Y-15900000D03*
D32*
X-3825000Y7700000D03*
X-5375000Y7700000D03*
X-825000Y7700000D03*
X-2375000Y7700000D03*
X2175000Y7700000D03*
X625000Y7700000D03*
X5175000Y7700000D03*
X3625000Y7700000D03*
D22*
X-15000000Y13925000D03*
D23*
X-15000000Y16465000D03*
X-12460000Y13925000D03*
X-12460000Y16465000D03*
X-9920000Y13925000D03*
X-9920000Y16465000D03*
X-7380000Y13925000D03*
X-7380000Y16465000D03*
X-4840000Y13925000D03*
X-4840000Y16465000D03*
X-2300000Y13925000D03*
X-2300000Y16465000D03*
X240000Y13925000D03*
X240000Y16465000D03*
X2780000Y13925000D03*
X2780000Y16465000D03*
X5320000Y13925000D03*
X5320000Y16465000D03*
X7860000Y13925000D03*
X7860000Y16465000D03*
X10400000Y13925000D03*
X10400000Y16465000D03*
X12940000Y13925000D03*
X12940000Y16465000D03*
X15480000Y13925000D03*
X15480000Y16465000D03*
D13*
X-5400000Y9775000D03*
X-5400000Y11425000D03*
X600000Y9775000D03*
X600000Y11425000D03*
X3600000Y9775000D03*
X3600000Y11425000D03*
D17*
X-900000Y11425000D03*
X-900000Y9775000D03*
X2100000Y11425000D03*
X2100000Y9775000D03*
X5100000Y11425000D03*
X5100000Y9775000D03*
X8900000Y11425000D03*
X8900000Y9775000D03*
X10400000Y11425000D03*
X10400000Y9775000D03*
X-9400000Y9425000D03*
X-9400000Y7775000D03*
X-10900000Y9425000D03*
X-10900000Y7775000D03*
X13200000Y11425000D03*
X13200000Y9775000D03*
X15000000Y11425000D03*
X15000000Y9775000D03*
D33*
X1200000Y-13000000D03*
X-6600000Y-13000000D03*
D17*
X-3900000Y11425000D03*
X-3900000Y9775000D03*
D34*
X10300000Y-1575000D03*
X10300000Y-25000D03*
D13*
X-2400000Y9775000D03*
X-2400000Y11425000D03*
D15*
X10300000Y-3025000D03*
X10300000Y-4575000D03*
D28*
X2987500Y-15900000D03*
X1412500Y-15900000D03*
D35*
X18050000Y3900000D03*
X18050000Y5900000D03*
X18050000Y7900000D03*
D36*
X23800000Y10250000D03*
X23800000Y1550000D03*
D37*
X-16237500Y-4250000D03*
X-16237500Y-6150000D03*
X-14362500Y-5200000D03*
D38*
X-15000000Y7900000D03*
X-15000000Y10700000D03*
D39*
X-16200000Y5200000D03*
X-16200000Y800000D03*
D40*
X5600000Y3800000D03*
X-13400000Y-12700000D03*
X-9610000Y1310000D03*
X-12900000Y-500000D03*
X-22700000Y-6900000D03*
X-14100000Y-3800000D03*
X-15847779Y-5228612D03*
X6350000Y-8890000D03*
X-8600000Y-4700000D03*
X-14200000Y-6500000D03*
X-18200000Y800000D03*
X22500000Y-6100000D03*
X-19300000Y-13300000D03*
X19100000Y-12600000D03*
X-6700000Y7400000D03*
X21200000Y5500000D03*
X8900000Y1600000D03*
X-2800000Y100000D03*
X19200000Y9900000D03*
X14100000Y-2400000D03*
X-17900000Y5200000D03*
X17800000Y2300000D03*
X-23300000Y6800000D03*
X-19000000Y-9000000D03*
X-4520000Y1320000D03*
X5620000Y1320000D03*
X490000Y1390000D03*
X3110000Y1310000D03*
X-1980000Y1320000D03*
X17800000Y-6690500D03*
X-20100000Y-2000000D03*
X-22400000Y4200000D03*
X-18550000Y-3250000D03*
X-11100000Y-12500000D03*
X18200000Y12800000D03*
X-1270000Y-8890000D03*
X8890000Y-8890000D03*
X4200000Y-12400000D03*
X-3810000Y8890000D03*
X-18300000Y-6800000D03*
X-17649532Y-6041121D03*
X17200000Y-600000D03*
X12461426Y3288029D03*
X16700000Y-6690500D03*
X-1600000Y8890000D03*
X1400000Y8890000D03*
X4300000Y8800000D03*
X8890000Y8890000D03*
X11430000Y8890000D03*
X13970000Y8500000D03*
X16510000Y10160000D03*
X2400000Y-11900000D03*
X-11600000Y5000000D03*
X-12599503Y5000000D03*
X24900000Y-7000000D03*
X22900000Y1500000D03*
X24900000Y-1400000D03*
X24900000Y1500000D03*
X-19000000Y-17000000D03*
X-13400000Y-17000000D03*
X-24500000Y1100000D03*
X-24500000Y-1200000D03*
D41*
X-13400000Y-12700000D02*
X-13400000Y-13100000D01*
X-7700000Y1475000D02*
X-7700000Y2175000D01*
X600000Y9775000D02*
X600000Y10400000D01*
X3600000Y10400000D02*
X3700000Y10500000D01*
X-14075000Y-13775000D02*
X-16325000Y-13775000D01*
D42*
X5600000Y3800000D02*
X5600000Y4100000D01*
D43*
X10000000Y4775000D02*
X11075000Y4775000D01*
D41*
X-16700000Y-13400000D02*
X-16700000Y-12700000D01*
X-5400000Y9775000D02*
X-4675000Y10500000D01*
X12295000Y2305000D02*
X11700000Y2900000D01*
X-2400000Y10500000D02*
X700000Y10500000D01*
X-11750000Y0D02*
X-10440000Y1310000D01*
X6300000Y9200000D02*
X6300000Y5200000D01*
X-6910000Y4010000D02*
X-7760000Y3160000D01*
X5557107Y10500000D02*
X6300000Y9757107D01*
D43*
X14375000Y3725000D02*
X13500000Y3725000D01*
D41*
X6800000Y4425000D02*
X6800000Y4700000D01*
X-11531500Y-218500D02*
X-11750000Y0D01*
D43*
X20700000Y-4700000D02*
X21700000Y-4700000D01*
D41*
X-10200000Y1920000D02*
X-9600000Y1320000D01*
X3700000Y10500000D02*
X5557107Y10500000D01*
D43*
X12300000Y12025000D02*
X10400000Y13925000D01*
D41*
X-4675000Y10500000D02*
X-2400000Y10500000D01*
D43*
X10000000Y4775000D02*
X6275000Y4775000D01*
D41*
X-7870000Y3050000D02*
X-7760000Y3160000D01*
D43*
X21550000Y-1250000D02*
X19575000Y-1250000D01*
D41*
X6800000Y4700000D02*
X6300000Y5200000D01*
D43*
X22300000Y-2000000D02*
X21550000Y-1250000D01*
D41*
X-8500000Y3050000D02*
X-7870000Y3050000D01*
X-6470000Y4450000D02*
X-6910000Y4010000D01*
D43*
X12300000Y8600000D02*
X12300000Y12025000D01*
D41*
X11700000Y2900000D02*
X11700000Y4500000D01*
X3600000Y9775000D02*
X3600000Y10400000D01*
D43*
X11075000Y4775000D02*
X11425000Y4775000D01*
X19575000Y-1250000D02*
X15875000Y2450000D01*
X13325000Y4775000D02*
X11075000Y4775000D01*
D41*
X11700000Y4500000D02*
X11425000Y4775000D01*
X-11135000Y-2225000D02*
X-11135000Y-1228000D01*
X-10440000Y1310000D02*
X-9610000Y1310000D01*
X-7760000Y3160000D02*
X-9600000Y1320000D01*
X-10200000Y3050000D02*
X-10200000Y1920000D01*
D43*
X15000000Y3725000D02*
X14375000Y3725000D01*
D41*
X-6580000Y4340000D02*
X-6910000Y4010000D01*
X-11135000Y-1228000D02*
X-11531500Y-831500D01*
D43*
X-12900000Y-500000D02*
X-12275000Y-500000D01*
D41*
X-5880000Y4450000D02*
X-6470000Y4450000D01*
D43*
X22300000Y-4100000D02*
X22300000Y-2000000D01*
X15875000Y2450000D02*
X15875000Y2850000D01*
D41*
X12295000Y1195000D02*
X12295000Y75000D01*
D43*
X15875000Y2850000D02*
X15000000Y3725000D01*
X11075000Y4775000D02*
X12300000Y6000000D01*
D41*
X-2400000Y9775000D02*
X-2400000Y10500000D01*
X-7700000Y2175000D02*
X-8500000Y2975000D01*
X-13400000Y-13100000D02*
X-14075000Y-13775000D01*
X700000Y10500000D02*
X3700000Y10500000D01*
X-16325000Y-13775000D02*
X-16700000Y-13400000D01*
D42*
X5600000Y4100000D02*
X6275000Y4775000D01*
D41*
X-10200000Y3050000D02*
X-8500000Y3050000D01*
X6300000Y9757107D02*
X6300000Y9200000D01*
D43*
X14375000Y3725000D02*
X13325000Y4775000D01*
X12300000Y6000000D02*
X12300000Y8600000D01*
D41*
X600000Y10400000D02*
X700000Y10500000D01*
X12295000Y1195000D02*
X12295000Y2305000D01*
X-11531500Y-831500D02*
X-11531500Y-218500D01*
D43*
X-12275000Y-500000D02*
X-11775000Y0D01*
X21700000Y-4700000D02*
X22300000Y-4100000D01*
D41*
X9960000Y-5540000D02*
X9960000Y-7060000D01*
X-9050000Y-11375000D02*
X-9900000Y-11375000D01*
X700000Y6600000D02*
X-2400000Y6600000D01*
X3625000Y7525000D02*
X2700000Y6600000D01*
X9344301Y-4344301D02*
X10100000Y-5100000D01*
X-9050000Y-11375000D02*
X-9000000Y-11425000D01*
X-2375000Y7700000D02*
X-2375000Y6625000D01*
X10825000Y-25000D02*
X10300000Y-25000D01*
X9187500Y-15900000D02*
X9187500Y-16512500D01*
X6500000Y-17100000D02*
X2500000Y-17100000D01*
X-9000000Y-11425000D02*
X-8475000Y-11425000D01*
X9960000Y-7060000D02*
X9230001Y-7789999D01*
X11300000Y-4000000D02*
X11300000Y-500000D01*
X5584300Y-4850000D02*
X5799999Y-4634301D01*
X-14362500Y-5200000D02*
X-15819167Y-5200000D01*
X-3150000Y-13950000D02*
X-4100000Y-13000000D01*
X2987500Y-16612500D02*
X2500000Y-17100000D01*
X-4275000Y6600000D02*
X-5375000Y7700000D01*
X-8475000Y-11425000D02*
X-6900000Y-13000000D01*
X9054301Y-4634301D02*
X9960000Y-5540000D01*
X-3200000Y-14000000D02*
X-3150000Y-13950000D01*
X3625000Y7700000D02*
X3625000Y7525000D01*
X10725000Y-4575000D02*
X11300000Y-4000000D01*
X-15819167Y-5200000D02*
X-15847779Y-5228612D01*
X9230001Y-7789999D02*
X7450001Y-7789999D01*
X7450001Y-7789999D02*
X6350000Y-8890000D01*
X9187500Y-16512500D02*
X8600000Y-17100000D01*
X10300000Y-4575000D02*
X10725000Y-4575000D01*
X625000Y6675000D02*
X700000Y6600000D01*
X2987500Y-15900000D02*
X2987500Y-16612500D01*
X-2375000Y6625000D02*
X-2400000Y6600000D01*
X4280000Y-4850000D02*
X5584300Y-4850000D01*
X-4100000Y-13000000D02*
X-6599180Y-13000000D01*
X625000Y7700000D02*
X625000Y6675000D01*
X-2800000Y-17100000D02*
X-3200000Y-16700000D01*
X-9865000Y-2025000D02*
X-9865000Y-360000D01*
X-3200000Y-16700000D02*
X-3200000Y-14000000D01*
X9054301Y-4634301D02*
X9344301Y-4344301D01*
X5799999Y-4634301D02*
X9054301Y-4634301D01*
X8600000Y-17100000D02*
X6500000Y-17100000D01*
X-9865000Y-360000D02*
X-10225000Y0D01*
X-2400000Y6600000D02*
X-4275000Y6600000D01*
X11300000Y-500000D02*
X10825000Y-25000D01*
X2500000Y-17100000D02*
X-2800000Y-17100000D01*
X2700000Y6600000D02*
X700000Y6600000D01*
X-3340000Y5640000D02*
X-3895000Y6195000D01*
X-9400000Y4907107D02*
X-9400000Y4900000D01*
X-8112107Y6195000D02*
X-9400000Y4907107D01*
X-9675000Y4625000D02*
X-10200000Y4625000D01*
X-3895000Y6195000D02*
X-5595000Y6195000D01*
X-3340000Y4450000D02*
X-3340000Y2500000D01*
X-5595000Y6195000D02*
X-8112107Y6195000D01*
X-3340000Y2500000D02*
X-4520000Y1320000D01*
X-9400000Y4900000D02*
X-9675000Y4625000D01*
X-3340000Y4450000D02*
X-3340000Y5640000D01*
X1740000Y4450000D02*
X1740000Y3360000D01*
X5620000Y1320000D02*
X5620000Y1595000D01*
X5620000Y1595000D02*
X6800000Y2775000D01*
X3920000Y2520000D02*
X5120000Y1320000D01*
X1740000Y3360000D02*
X2580000Y2520000D01*
X2580000Y2520000D02*
X3920000Y2520000D01*
X5120000Y1320000D02*
X5620000Y1320000D01*
X-800000Y4450000D02*
X-800000Y2680000D01*
X-410000Y2290000D02*
X490000Y1390000D01*
X-800000Y2680000D02*
X-410000Y2290000D01*
X470000Y4450000D02*
X470000Y3950000D01*
X860000Y3560000D02*
X3100000Y1320000D01*
X470000Y3950000D02*
X860000Y3560000D01*
X-2070000Y4450000D02*
X-2070000Y1410000D01*
X-2070000Y1410000D02*
X-1980000Y1320000D01*
X-8595000Y-2225000D02*
X-8505000Y-2225000D01*
X-8505000Y-2225000D02*
X-5880000Y-4850000D01*
X-12405000Y-2966396D02*
X-12071396Y-3300000D01*
X-6600000Y-5100000D02*
X-6600000Y-5800000D01*
X-4610000Y-5710000D02*
X-4610000Y-4850000D01*
X-12071396Y-3300000D02*
X-8400000Y-3300000D01*
X-8400000Y-3300000D02*
X-6600000Y-5100000D01*
X-5200000Y-6300000D02*
X-4610000Y-5710000D01*
X-6100000Y-6300000D02*
X-5200000Y-6300000D01*
X-6600000Y-5800000D02*
X-6100000Y-6300000D01*
X-12405000Y-2225000D02*
X-12405000Y-2966396D01*
X17800000Y-8475000D02*
X17800000Y-7400000D01*
X16700000Y-9575000D02*
X17800000Y-8475000D01*
X17800000Y-7400000D02*
X17800000Y-6690500D01*
D42*
X-20100000Y-2000000D02*
X-20100000Y-2675000D01*
X-20100000Y-2675000D02*
X-20450000Y-3025000D01*
X-20450000Y6675000D02*
X-21125000Y6675000D01*
X-21900000Y5900000D02*
X-22400000Y5400000D01*
X-18875000Y6675000D02*
X-17900000Y7650000D01*
X-20450000Y6675000D02*
X-19375000Y6675000D01*
X-21125000Y6675000D02*
X-21900000Y5900000D01*
X-22400000Y5400000D02*
X-22400000Y4200000D01*
X-19375000Y6675000D02*
X-18875000Y6675000D01*
D41*
X-19725000Y5425000D02*
X-20450000Y5425000D01*
X-21600000Y-3900000D02*
X-21600000Y-1865686D01*
X-12800000Y-5000000D02*
X-12100000Y-5000000D01*
X-18700000Y2000000D02*
X-18700000Y4400000D01*
X-12800000Y-5000000D02*
X-13200000Y-4600000D01*
X-11500000Y-5600000D02*
X-10100000Y-5600000D01*
X-16237500Y-4250000D02*
X-14950000Y-4250000D01*
X-17767157Y-4667157D02*
X-16654657Y-4667157D01*
X-19375000Y-4275000D02*
X-18982843Y-4667157D01*
X-9865000Y-5835000D02*
X-9865000Y-6975000D01*
X-18982843Y-4667157D02*
X-17767157Y-4667157D01*
X-18700000Y4400000D02*
X-19725000Y5425000D01*
X-21225000Y-4275000D02*
X-21600000Y-3900000D01*
X-19700000Y1000000D02*
X-18700000Y2000000D01*
X-12100000Y-5000000D02*
X-11500000Y-5600000D01*
X-13200000Y-4600000D02*
X-14600000Y-4600000D01*
X-16654657Y-4667157D02*
X-16237500Y-4250000D01*
X-14950000Y-4250000D02*
X-14600000Y-4600000D01*
X-21600000Y-1865686D02*
X-19700000Y34315D01*
X-10100000Y-5600000D02*
X-9865000Y-5835000D01*
X-19700000Y34315D02*
X-19700000Y1000000D01*
X-20450000Y-4275000D02*
X-21225000Y-4275000D01*
X-20450000Y-4275000D02*
X-19375000Y-4275000D01*
X-16237500Y-6150000D02*
X-15450000Y-6150000D01*
X-13100000Y-5800000D02*
X-15100000Y-5800000D01*
X-12300000Y-5400000D02*
X-11135000Y-6565000D01*
X-17287500Y-5100000D02*
X-16237500Y-6150000D01*
X-20100000Y1165686D02*
X-20100000Y200000D01*
X-19100000Y3500000D02*
X-19100000Y2165686D01*
X-19634314Y-5100000D02*
X-18200000Y-5100000D01*
X-20100000Y200000D02*
X-22000000Y-1700001D01*
X-20450000Y4175000D02*
X-19775000Y4175000D01*
X-22000000Y-1700001D02*
X-22000000Y-5000000D01*
X-19775000Y4175000D02*
X-19100000Y3500000D01*
X-20059314Y-5525000D02*
X-19634314Y-5100000D01*
X-15450000Y-6150000D02*
X-15100000Y-5800000D01*
X-12700000Y-5400000D02*
X-13100000Y-5800000D01*
X-21475000Y-5525000D02*
X-20450000Y-5525000D01*
X-18200000Y-5100000D02*
X-17287500Y-5100000D01*
X-22000000Y-5000000D02*
X-21475000Y-5525000D01*
X-12700000Y-5400000D02*
X-12300000Y-5400000D01*
X-20450000Y-5525000D02*
X-20059314Y-5525000D01*
X-11135000Y-6565000D02*
X-11135000Y-7175000D01*
X-19100000Y2165686D02*
X-20100000Y1165686D01*
X16900000Y-13800000D02*
X16900000Y-11425000D01*
X16900000Y-11425000D02*
X16700000Y-11225000D01*
D42*
X17600000Y12200000D02*
X18200000Y12800000D01*
X15700000Y6900000D02*
X15700000Y8400000D01*
X-18550000Y-3250000D02*
X-16650000Y-3250000D01*
X-13675000Y12600000D02*
X-15000000Y13925000D01*
X16700000Y5900000D02*
X15700000Y6900000D01*
X-14500000Y7400000D02*
X-14500000Y7200000D01*
X-13675000Y9525000D02*
X-13675000Y12600000D01*
X-14950000Y5850000D02*
X-15550000Y5850000D01*
X-16650000Y-3250000D02*
X-16200000Y-2800000D01*
X-15000000Y7900000D02*
X-14500000Y7400000D01*
X-15550000Y5850000D02*
X-16200000Y5200000D01*
D41*
X-11400000Y-11425000D02*
X-11400000Y-12200000D01*
D42*
X-14500000Y6700000D02*
X-14500000Y8700000D01*
X-14950000Y5850000D02*
X-14950000Y6250000D01*
X-14500000Y8700000D02*
X-13675000Y9525000D01*
X18050000Y5900000D02*
X16700000Y5900000D01*
X-14950000Y6250000D02*
X-14500000Y6700000D01*
X15700000Y8400000D02*
X16300000Y9000000D01*
X17300000Y9000000D02*
X17600000Y9300000D01*
X17600000Y9300000D02*
X17600000Y12200000D01*
X-14950000Y4650000D02*
X-14950000Y5850000D01*
X-14500000Y7200000D02*
X-14500000Y6700000D01*
D41*
X-11400000Y-12200000D02*
X-11100000Y-12500000D01*
D42*
X-14950000Y2550000D02*
X-14950000Y-1550000D01*
X-14950000Y-1550000D02*
X-16200000Y-2800000D01*
X-14950000Y2550000D02*
X-14950000Y4650000D01*
X16300000Y9000000D02*
X17300000Y9000000D01*
D41*
X-7595002Y-9775000D02*
X-11400000Y-9775000D01*
X-1270000Y-8890000D02*
X-6710002Y-8890000D01*
X-6710002Y-8890000D02*
X-7595002Y-9775000D01*
X8890000Y-8890000D02*
X8890000Y-11485000D01*
X8890000Y-11485000D02*
X4475000Y-15900000D01*
X1750000Y-14850000D02*
X4200000Y-12400000D01*
X-675000Y-14850000D02*
X1750000Y-14850000D01*
X-1725000Y-15900000D02*
X-675000Y-14850000D01*
X1412500Y-15900000D02*
X-75000Y-15900000D01*
X7612500Y-15900000D02*
X6125000Y-15900000D01*
X6700000Y-2100000D02*
X6800000Y-2000000D01*
X9300000Y-2100000D02*
X6700000Y-2100000D01*
X1740000Y-3660000D02*
X1740000Y-4850000D01*
X9775000Y-2100000D02*
X10300000Y-1575000D01*
X6700000Y-2100000D02*
X3300000Y-2100000D01*
X6800000Y-2000000D02*
X6800000Y-1150000D01*
X9300000Y-2100000D02*
X9775000Y-2100000D01*
X3300000Y-2100000D02*
X1740000Y-3660000D01*
X9399990Y-2500010D02*
X8500010Y-2500010D01*
X9399990Y-2500010D02*
X9775010Y-2500010D01*
X3010000Y-3590000D02*
X3010000Y-4850000D01*
X8600000Y-2600000D02*
X8600000Y-3450000D01*
X4099990Y-2500010D02*
X3010000Y-3590000D01*
X8500010Y-2500010D02*
X8600000Y-2600000D01*
X9775010Y-2500010D02*
X10300000Y-3025000D01*
X8500010Y-2500010D02*
X4099990Y-2500010D01*
X-4610000Y4450000D02*
X-4610000Y5400000D01*
X-4610000Y5400000D02*
X-5005000Y5795000D01*
X-7255000Y5795000D02*
X-8500000Y4550000D01*
X-5005000Y5795000D02*
X-7255000Y5795000D01*
X-3810000Y8890000D02*
X-3810000Y9685000D01*
X-3825000Y8875000D02*
X-3810000Y8890000D01*
X-3825000Y7700000D02*
X-3825000Y8875000D01*
X-3810000Y9685000D02*
X-3900000Y9775000D01*
X-17700000Y-9200000D02*
X-17700000Y-7500000D01*
X-15700000Y-11500000D02*
X-15700000Y-11200000D01*
X-15700000Y-12700000D02*
X-15700000Y-11500000D01*
X-17700000Y-7400000D02*
X-18300000Y-6800000D01*
X-15700000Y-11200000D02*
X-17700000Y-9200000D01*
X-17700000Y-7500000D02*
X-17700000Y-7400000D01*
X-17300000Y-9034314D02*
X-17300000Y-7800000D01*
X-14700000Y-12700000D02*
X-14700000Y-11634314D01*
X-17700000Y-6100000D02*
X-17649532Y-6049532D01*
X-17649532Y-6049532D02*
X-17649532Y-6041121D01*
X-14700000Y-11634314D02*
X-15767157Y-10567157D01*
X-15767157Y-10567157D02*
X-17300000Y-9034314D01*
X-17300000Y-7800000D02*
X-17300000Y-6500000D01*
X-17300000Y-6500000D02*
X-17700000Y-6100000D01*
X16105000Y75000D02*
X16525000Y75000D01*
X16525000Y75000D02*
X17200000Y-600000D01*
X16105000Y970000D02*
X15000000Y2075000D01*
X21800000Y-3011396D02*
X21111396Y-3700000D01*
X21111396Y-3700000D02*
X20700000Y-3700000D01*
X16105000Y75000D02*
X16105000Y-605000D01*
X17400000Y-1900000D02*
X21311396Y-1900000D01*
X16105000Y75000D02*
X16105000Y970000D01*
X21800000Y-2388604D02*
X21800000Y-3011396D01*
X16105000Y-605000D02*
X17400000Y-1900000D01*
X21311396Y-1900000D02*
X21800000Y-2388604D01*
X13500000Y2100000D02*
X12500000Y3100000D01*
X15200000Y-1200000D02*
X14835000Y-835000D01*
X14835000Y75000D02*
X14835000Y740000D01*
X17500000Y-2700000D02*
X16000000Y-1200000D01*
X13500000Y2075000D02*
X13500000Y2100000D01*
X12500000Y3249455D02*
X12461426Y3288029D01*
X20700000Y-2700000D02*
X17500000Y-2700000D01*
X14835000Y-835000D02*
X14835000Y75000D01*
X14835000Y740000D02*
X13500000Y2075000D01*
X12500000Y3100000D02*
X12500000Y3249455D01*
X16000000Y-1200000D02*
X15200000Y-1200000D01*
X14500000Y-9575000D02*
X16700000Y-7375000D01*
X16700000Y-7375000D02*
X16700000Y-7200000D01*
X16700000Y-7200000D02*
X16700000Y-6690500D01*
X15523600Y-12248600D02*
X15523600Y-14963600D01*
X15523600Y-14963600D02*
X16900000Y-16340000D01*
X14500000Y-11225000D02*
X15523600Y-12248600D01*
X-825000Y8115000D02*
X-1600000Y8890000D01*
X-825000Y7700000D02*
X-825000Y8115000D01*
X-900000Y9590000D02*
X-1600000Y8890000D01*
X-900000Y9775000D02*
X-900000Y9590000D01*
X2175000Y7700000D02*
X2175000Y8115000D01*
X2100000Y9590000D02*
X1400000Y8890000D01*
X2175000Y8115000D02*
X1400000Y8890000D01*
X2100000Y9775000D02*
X2100000Y9590000D01*
X5100000Y9775000D02*
X5100000Y9970000D01*
X5100000Y9970000D02*
X4995000Y10075000D01*
X5175000Y7700000D02*
X5175000Y7925000D01*
X5100000Y10075000D02*
X4995000Y10075000D01*
X5100000Y9600000D02*
X4300000Y8800000D01*
X5100000Y9775000D02*
X5100000Y9600000D01*
X5175000Y7925000D02*
X4300000Y8800000D01*
D43*
X8890000Y8890000D02*
X8890000Y9765000D01*
X8890000Y9765000D02*
X8900000Y9775000D01*
X11430000Y8890000D02*
X11285000Y8890000D01*
X11285000Y8890000D02*
X10400000Y9775000D01*
D41*
X13970000Y9005000D02*
X13200000Y9775000D01*
X13970000Y8500000D02*
X13970000Y9005000D01*
X15385000Y10160000D02*
X15000000Y9775000D01*
X16510000Y10160000D02*
X15385000Y10160000D01*
X1200000Y-13000000D02*
X1300000Y-13000000D01*
X1300000Y-13000000D02*
X2400000Y-11900000D01*
X-11600000Y5000000D02*
X-11600000Y5424264D01*
X-11600000Y5424264D02*
X-9400000Y7624264D01*
X-9400000Y7624264D02*
X-9400000Y7775000D01*
X-10900000Y6689950D02*
X-12589950Y5000000D01*
X-12589950Y5000000D02*
X-12599503Y5000000D01*
X-10900000Y7775000D02*
X-10900000Y6689950D01*
X-5400000Y11945000D02*
X-7380000Y13925000D01*
X-3900000Y11425000D02*
X-5400000Y11425000D01*
X-5400000Y11425000D02*
X-5400000Y11945000D01*
X-2400000Y11485000D02*
X-4840000Y13925000D01*
X-900000Y11425000D02*
X-2400000Y11425000D01*
X-2400000Y11425000D02*
X-2400000Y11485000D01*
X2100000Y11425000D02*
X600000Y11425000D01*
X-1900000Y13925000D02*
X-2300000Y13925000D01*
X600000Y11425000D02*
X-1900000Y13925000D01*
X3282107Y11425000D02*
X2107107Y12600000D01*
X1565000Y12600000D02*
X240000Y13925000D01*
X3600000Y11425000D02*
X3282107Y11425000D01*
X2107107Y12600000D02*
X1565000Y12600000D01*
X5100000Y11425000D02*
X3600000Y11425000D01*
X4100000Y12605000D02*
X2780000Y13925000D01*
X5300000Y12500000D02*
X4100000Y12500000D01*
X4100000Y12500000D02*
X4100000Y12605000D01*
X6375000Y11425000D02*
X5300000Y12500000D01*
X8900000Y11425000D02*
X6375000Y11425000D01*
X7045000Y12200000D02*
X5320000Y13925000D01*
X10400000Y11425000D02*
X9625000Y12200000D01*
X9625000Y12200000D02*
X7045000Y12200000D01*
X-10900000Y12365000D02*
X-12460000Y13925000D01*
X-10900000Y9425000D02*
X-10900000Y12365000D01*
X-9400000Y10359314D02*
X-9400000Y9425000D01*
X-9400000Y10359314D02*
X-9920000Y10879314D01*
X-9920000Y10879314D02*
X-9920000Y13925000D01*
X13200000Y11425000D02*
X12940000Y11685000D01*
X12940000Y11685000D02*
X12940000Y13925000D01*
X14225000Y10825000D02*
X14225000Y9315686D01*
X15480000Y11905000D02*
X15480000Y13925000D01*
X14225000Y9315686D02*
X14900000Y8640686D01*
X17522183Y3900000D02*
X18050000Y3900000D01*
X15000000Y11425000D02*
X15480000Y11905000D01*
X15000000Y11600000D02*
X14225000Y10825000D01*
X14900000Y6522183D02*
X17522183Y3900000D01*
X14900000Y8640686D02*
X14900000Y6522183D01*
D42*
X-16450000Y10950000D02*
X-15550000Y10950000D01*
X-16450000Y10950000D02*
X-15250000Y10950000D01*
X-16450000Y10950000D02*
X-17900000Y10950000D01*
X-15550000Y10950000D02*
X-15300000Y10700000D01*
X-15250000Y10950000D02*
X-15000000Y10700000D01*
X24900000Y1500000D02*
X24900000Y9150000D01*
X24900000Y9150000D02*
X23800000Y10250000D01*
X-24500000Y7675000D02*
X-23650000Y8525000D01*
X-24500000Y1100000D02*
X-24500000Y7675000D01*
X-24500000Y-1200000D02*
X-24500000Y-7775000D01*
X-24500000Y-7775000D02*
X-23650000Y-8625000D01*
G04 #@! TA.AperFunction,Conductor*
G36*
X-11977674Y12582125D02*
G01*
X-11545405Y12149856D01*
X-11511379Y12087544D01*
X-11508500Y12060761D01*
X-11508500Y10322365D01*
X-11528502Y10254244D01*
X-11569228Y10214590D01*
X-11615381Y10186639D01*
X-11736639Y10065381D01*
X-11825472Y9918699D01*
X-11827743Y9911452D01*
X-11827744Y9911450D01*
X-11844845Y9856880D01*
X-11876753Y9755062D01*
X-11883500Y9681635D01*
X-11883499Y9168366D01*
X-11883236Y9165508D01*
X-11883236Y9165499D01*
X-11882351Y9155866D01*
X-11876753Y9094938D01*
X-11874754Y9088560D01*
X-11874754Y9088559D01*
X-11829719Y8944854D01*
X-11825472Y8931301D01*
X-11736639Y8784619D01*
X-11641115Y8689095D01*
X-11607089Y8626783D01*
X-11612154Y8555968D01*
X-11641115Y8510905D01*
X-11736639Y8415381D01*
X-11825472Y8268699D01*
X-11827743Y8261452D01*
X-11827744Y8261450D01*
X-11829784Y8254939D01*
X-11876753Y8105062D01*
X-11883500Y8031635D01*
X-11883499Y7518366D01*
X-11883236Y7515508D01*
X-11883236Y7515499D01*
X-11880296Y7483500D01*
X-11876753Y7444938D01*
X-11874754Y7438560D01*
X-11874754Y7438559D01*
X-11828288Y7290288D01*
X-11825472Y7281301D01*
X-11736639Y7134619D01*
X-11615381Y7013361D01*
X-11617955Y7010787D01*
X-11585892Y6966917D01*
X-11581641Y6896048D01*
X-11615351Y6835148D01*
X-12505094Y5945405D01*
X-12567406Y5911379D01*
X-12594189Y5908500D01*
X-12694990Y5908500D01*
X-12701442Y5907128D01*
X-12701447Y5907128D01*
X-12775919Y5891298D01*
X-12881791Y5868794D01*
X-12887821Y5866109D01*
X-12887822Y5866109D01*
X-13050225Y5793803D01*
X-13050227Y5793802D01*
X-13056255Y5791118D01*
X-13061596Y5787238D01*
X-13061597Y5787237D01*
X-13072041Y5779649D01*
X-13210756Y5678866D01*
X-13215177Y5673956D01*
X-13215178Y5673955D01*
X-13332228Y5543957D01*
X-13338543Y5536944D01*
X-13396817Y5436010D01*
X-13418556Y5398357D01*
X-13434030Y5371556D01*
X-13493045Y5189928D01*
X-13513007Y5000000D01*
X-13512317Y4993435D01*
X-13496770Y4845517D01*
X-13493045Y4810072D01*
X-13434030Y4628444D01*
X-13430727Y4622722D01*
X-13430726Y4622721D01*
X-13426646Y4615654D01*
X-13338543Y4463056D01*
X-13334125Y4458149D01*
X-13334124Y4458148D01*
X-13215178Y4326045D01*
X-13210756Y4321134D01*
X-13199153Y4312704D01*
X-13064184Y4214643D01*
X-13056255Y4208882D01*
X-13050227Y4206198D01*
X-13050225Y4206197D01*
X-12931768Y4153457D01*
X-12881791Y4131206D01*
X-12788390Y4111353D01*
X-12701447Y4092872D01*
X-12701442Y4092872D01*
X-12694990Y4091500D01*
X-12504016Y4091500D01*
X-12497564Y4092872D01*
X-12497559Y4092872D01*
X-12410616Y4111353D01*
X-12317215Y4131206D01*
X-12311188Y4133889D01*
X-12311180Y4133892D01*
X-12150999Y4205209D01*
X-12080632Y4214643D01*
X-12048503Y4205209D01*
X-11882288Y4131206D01*
X-11788887Y4111353D01*
X-11701944Y4092872D01*
X-11701939Y4092872D01*
X-11695487Y4091500D01*
X-11504513Y4091500D01*
X-11498061Y4092872D01*
X-11498056Y4092872D01*
X-11411113Y4111353D01*
X-11317712Y4131206D01*
X-11311685Y4133889D01*
X-11311677Y4133892D01*
X-11267735Y4153457D01*
X-11197368Y4162892D01*
X-11133070Y4132786D01*
X-11108710Y4103623D01*
X-11036639Y3984619D01*
X-10941115Y3889095D01*
X-10907089Y3826783D01*
X-10912154Y3755968D01*
X-10941115Y3710905D01*
X-11036639Y3615381D01*
X-11125472Y3468699D01*
X-11176753Y3305062D01*
X-11183500Y3231635D01*
X-11183499Y2718366D01*
X-11176753Y2644938D01*
X-11174754Y2638560D01*
X-11174754Y2638559D01*
X-11137995Y2521263D01*
X-11125472Y2481301D01*
X-11036639Y2334619D01*
X-10915381Y2213361D01*
X-10869228Y2185410D01*
X-10821323Y2133015D01*
X-10808500Y2077635D01*
X-10808500Y1968136D01*
X-10809578Y1951693D01*
X-10813750Y1920000D01*
X-10812672Y1911811D01*
X-10808500Y1880120D01*
X-10808499Y1880105D01*
X-10807726Y1874230D01*
X-10807999Y1872479D01*
X-10807422Y1863675D01*
X-10807422Y1863668D01*
X-10809374Y1863668D01*
X-10818670Y1804082D01*
X-10855943Y1757833D01*
X-10873987Y1743987D01*
X-10879017Y1737432D01*
X-10893452Y1718621D01*
X-10904319Y1706230D01*
X-11590144Y1020405D01*
X-11652456Y986379D01*
X-11679239Y983500D01*
X-12048732Y983500D01*
X-12051978Y983163D01*
X-12051982Y983163D01*
X-12086083Y979625D01*
X-12151019Y972887D01*
X-12170157Y966502D01*
X-12306324Y921073D01*
X-12306326Y921072D01*
X-12313268Y918756D01*
X-12319492Y914904D01*
X-12319493Y914904D01*
X-12360752Y889372D01*
X-12458713Y828752D01*
X-12579552Y707702D01*
X-12583392Y701472D01*
X-12583393Y701471D01*
X-12626749Y631134D01*
X-12669302Y562101D01*
X-12691216Y496032D01*
X-12691614Y494832D01*
X-12732045Y436473D01*
X-12797609Y409236D01*
X-12811207Y408500D01*
X-12995487Y408500D01*
X-13001939Y407128D01*
X-13001944Y407128D01*
X-13083741Y389741D01*
X-13182288Y368794D01*
X-13188318Y366109D01*
X-13188319Y366109D01*
X-13350722Y293803D01*
X-13350724Y293802D01*
X-13356752Y291118D01*
X-13362093Y287238D01*
X-13362094Y287237D01*
X-13389193Y267548D01*
X-13511253Y178866D01*
X-13515674Y173956D01*
X-13515675Y173955D01*
X-13612873Y66005D01*
X-13639040Y36944D01*
X-13665952Y-9669D01*
X-13715407Y-95328D01*
X-13734527Y-128444D01*
X-13793542Y-310072D01*
X-13794232Y-316633D01*
X-13794232Y-316635D01*
X-13808972Y-456880D01*
X-13813504Y-500000D01*
X-13812814Y-506565D01*
X-13794441Y-681371D01*
X-13793542Y-689928D01*
X-13734527Y-871556D01*
X-13731224Y-877278D01*
X-13731223Y-877279D01*
X-13707824Y-917807D01*
X-13639040Y-1036944D01*
X-13634622Y-1041851D01*
X-13634621Y-1041852D01*
X-13549000Y-1136944D01*
X-13511253Y-1178866D01*
X-13418605Y-1246179D01*
X-13373615Y-1278866D01*
X-13356752Y-1291118D01*
X-13350719Y-1293804D01*
X-13350714Y-1293807D01*
X-13288251Y-1321618D01*
X-13234155Y-1367598D01*
X-13213500Y-1436724D01*
X-13213500Y-2916502D01*
X-13210562Y-2953831D01*
X-13164145Y-3113601D01*
X-13160108Y-3120427D01*
X-13083491Y-3249980D01*
X-13083489Y-3249983D01*
X-13079453Y-3256807D01*
X-12961807Y-3374453D01*
X-12954983Y-3378489D01*
X-12954980Y-3378491D01*
X-12893449Y-3414880D01*
X-12818601Y-3459145D01*
X-12810985Y-3461358D01*
X-12810984Y-3461358D01*
X-12785113Y-3468874D01*
X-12731169Y-3500776D01*
X-12535711Y-3696234D01*
X-12524844Y-3708625D01*
X-12505383Y-3733987D01*
X-12498833Y-3739013D01*
X-12473475Y-3758471D01*
X-12473468Y-3758477D01*
X-12434733Y-3788199D01*
X-12378271Y-3831524D01*
X-12230246Y-3892838D01*
X-12111281Y-3908500D01*
X-12111276Y-3908500D01*
X-12111267Y-3908501D01*
X-12079584Y-3912672D01*
X-12071396Y-3913750D01*
X-12039703Y-3909578D01*
X-12023260Y-3908500D01*
X-8704239Y-3908500D01*
X-8636118Y-3928502D01*
X-8615144Y-3945405D01*
X-7245405Y-5315144D01*
X-7211379Y-5377456D01*
X-7208500Y-5404239D01*
X-7208500Y-5751864D01*
X-7209578Y-5768307D01*
X-7213750Y-5800000D01*
X-7208500Y-5839880D01*
X-7208500Y-5839885D01*
X-7196176Y-5933498D01*
X-7192838Y-5958851D01*
X-7131524Y-6106876D01*
X-7126497Y-6113427D01*
X-7126496Y-6113429D01*
X-7058480Y-6202069D01*
X-7058474Y-6202075D01*
X-7033987Y-6233987D01*
X-7027432Y-6239017D01*
X-7008621Y-6253452D01*
X-6996230Y-6264319D01*
X-6564315Y-6696234D01*
X-6553448Y-6708625D01*
X-6533987Y-6733987D01*
X-6527437Y-6739013D01*
X-6502079Y-6758471D01*
X-6502063Y-6758485D01*
X-6452695Y-6796366D01*
X-6406876Y-6831524D01*
X-6258851Y-6892838D01*
X-6250664Y-6893916D01*
X-6250663Y-6893916D01*
X-6239458Y-6895391D01*
X-6208262Y-6899498D01*
X-6139885Y-6908500D01*
X-6139882Y-6908500D01*
X-6139874Y-6908501D01*
X-6108189Y-6912672D01*
X-6100000Y-6913750D01*
X-6068307Y-6909578D01*
X-6051864Y-6908500D01*
X-5248136Y-6908500D01*
X-5231693Y-6909578D01*
X-5200000Y-6913750D01*
X-5191811Y-6912672D01*
X-5160126Y-6908501D01*
X-5160116Y-6908500D01*
X-5160115Y-6908500D01*
X-5160099Y-6908498D01*
X-5060543Y-6895391D01*
X-5049336Y-6893916D01*
X-5049334Y-6893915D01*
X-5041149Y-6892838D01*
X-4893124Y-6831524D01*
X-4797938Y-6758485D01*
X-4797931Y-6758480D01*
X-4797925Y-6758474D01*
X-4772566Y-6739015D01*
X-4766013Y-6733987D01*
X-4760983Y-6727432D01*
X-4746548Y-6708621D01*
X-4735681Y-6696230D01*
X-4458337Y-6418886D01*
X-4396025Y-6384860D01*
X-4379128Y-6382369D01*
X-4362579Y-6381067D01*
X-4362574Y-6381066D01*
X-4356169Y-6380562D01*
X-4250625Y-6349899D01*
X-4204012Y-6336357D01*
X-4204010Y-6336356D01*
X-4196399Y-6334145D01*
X-4053193Y-6249453D01*
X-4050511Y-6246771D01*
X-3986139Y-6221498D01*
X-3916516Y-6235400D01*
X-3900688Y-6245572D01*
X-3896807Y-6249453D01*
X-3753601Y-6334145D01*
X-3745990Y-6336356D01*
X-3745988Y-6336357D01*
X-3699375Y-6349899D01*
X-3593831Y-6380562D01*
X-3587426Y-6381066D01*
X-3587421Y-6381067D01*
X-3558958Y-6383307D01*
X-3558950Y-6383307D01*
X-3556502Y-6383500D01*
X-3123498Y-6383500D01*
X-3121050Y-6383307D01*
X-3121042Y-6383307D01*
X-3092579Y-6381067D01*
X-3092574Y-6381066D01*
X-3086169Y-6380562D01*
X-2980625Y-6349899D01*
X-2934012Y-6336357D01*
X-2934010Y-6336356D01*
X-2926399Y-6334145D01*
X-2783193Y-6249453D01*
X-2780511Y-6246771D01*
X-2716139Y-6221498D01*
X-2646516Y-6235400D01*
X-2630688Y-6245572D01*
X-2626807Y-6249453D01*
X-2483601Y-6334145D01*
X-2475990Y-6336356D01*
X-2475988Y-6336357D01*
X-2429375Y-6349899D01*
X-2323831Y-6380562D01*
X-2317426Y-6381066D01*
X-2317421Y-6381067D01*
X-2288958Y-6383307D01*
X-2288950Y-6383307D01*
X-2286502Y-6383500D01*
X-1853498Y-6383500D01*
X-1851050Y-6383307D01*
X-1851042Y-6383307D01*
X-1822579Y-6381067D01*
X-1822574Y-6381066D01*
X-1816169Y-6380562D01*
X-1710625Y-6349899D01*
X-1664012Y-6336357D01*
X-1664010Y-6336356D01*
X-1656399Y-6334145D01*
X-1513193Y-6249453D01*
X-1510511Y-6246771D01*
X-1446139Y-6221498D01*
X-1376516Y-6235400D01*
X-1360688Y-6245572D01*
X-1356807Y-6249453D01*
X-1213601Y-6334145D01*
X-1205990Y-6336356D01*
X-1205988Y-6336357D01*
X-1159375Y-6349899D01*
X-1053831Y-6380562D01*
X-1047426Y-6381066D01*
X-1047421Y-6381067D01*
X-1018958Y-6383307D01*
X-1018950Y-6383307D01*
X-1016502Y-6383500D01*
X-583498Y-6383500D01*
X-581050Y-6383307D01*
X-581042Y-6383307D01*
X-552579Y-6381067D01*
X-552574Y-6381066D01*
X-546169Y-6380562D01*
X-440625Y-6349899D01*
X-394012Y-6336357D01*
X-394010Y-6336356D01*
X-386399Y-6334145D01*
X-243193Y-6249453D01*
X-240511Y-6246771D01*
X-176139Y-6221498D01*
X-106516Y-6235400D01*
X-90688Y-6245572D01*
X-86807Y-6249453D01*
X56399Y-6334145D01*
X64010Y-6336356D01*
X64012Y-6336357D01*
X110625Y-6349899D01*
X216169Y-6380562D01*
X222574Y-6381066D01*
X222579Y-6381067D01*
X251042Y-6383307D01*
X251050Y-6383307D01*
X253498Y-6383500D01*
X686502Y-6383500D01*
X688950Y-6383307D01*
X688958Y-6383307D01*
X717421Y-6381067D01*
X717426Y-6381066D01*
X723831Y-6380562D01*
X829375Y-6349899D01*
X875988Y-6336357D01*
X875990Y-6336356D01*
X883601Y-6334145D01*
X1026807Y-6249453D01*
X1029489Y-6246771D01*
X1093861Y-6221498D01*
X1163484Y-6235400D01*
X1179312Y-6245572D01*
X1183193Y-6249453D01*
X1326399Y-6334145D01*
X1334010Y-6336356D01*
X1334012Y-6336357D01*
X1380625Y-6349899D01*
X1486169Y-6380562D01*
X1492574Y-6381066D01*
X1492579Y-6381067D01*
X1521042Y-6383307D01*
X1521050Y-6383307D01*
X1523498Y-6383500D01*
X1956502Y-6383500D01*
X1958950Y-6383307D01*
X1958958Y-6383307D01*
X1987421Y-6381067D01*
X1987426Y-6381066D01*
X1993831Y-6380562D01*
X2099375Y-6349899D01*
X2145988Y-6336357D01*
X2145990Y-6336356D01*
X2153601Y-6334145D01*
X2296807Y-6249453D01*
X2299489Y-6246771D01*
X2363861Y-6221498D01*
X2433484Y-6235400D01*
X2449312Y-6245572D01*
X2453193Y-6249453D01*
X2596399Y-6334145D01*
X2604010Y-6336356D01*
X2604012Y-6336357D01*
X2650625Y-6349899D01*
X2756169Y-6380562D01*
X2762574Y-6381066D01*
X2762579Y-6381067D01*
X2791042Y-6383307D01*
X2791050Y-6383307D01*
X2793498Y-6383500D01*
X3226502Y-6383500D01*
X3228950Y-6383307D01*
X3228958Y-6383307D01*
X3257421Y-6381067D01*
X3257426Y-6381066D01*
X3263831Y-6380562D01*
X3369375Y-6349899D01*
X3415988Y-6336357D01*
X3415990Y-6336356D01*
X3423601Y-6334145D01*
X3566807Y-6249453D01*
X3569747Y-6246513D01*
X3634271Y-6221179D01*
X3703894Y-6235080D01*
X3722640Y-6247129D01*
X3730323Y-6253089D01*
X3859779Y-6329648D01*
X3874210Y-6335893D01*
X4008605Y-6374939D01*
X4022706Y-6374899D01*
X4026000Y-6367630D01*
X4026000Y-6361878D01*
X4534000Y-6361878D01*
X4537973Y-6375409D01*
X4545871Y-6376544D01*
X4685790Y-6335893D01*
X4700221Y-6329648D01*
X4829678Y-6253089D01*
X4842104Y-6243449D01*
X4948449Y-6137104D01*
X4958089Y-6124678D01*
X5034648Y-5995221D01*
X5040893Y-5980790D01*
X5083269Y-5834935D01*
X5085570Y-5822333D01*
X5087807Y-5793916D01*
X5088000Y-5788986D01*
X5088000Y-5122115D01*
X5083525Y-5106876D01*
X5082135Y-5105671D01*
X5074452Y-5104000D01*
X4552115Y-5104000D01*
X4536876Y-5108475D01*
X4535671Y-5109865D01*
X4534000Y-5117548D01*
X4534000Y-6361878D01*
X4026000Y-6361878D01*
X4026000Y-4722000D01*
X4046002Y-4653879D01*
X4099658Y-4607386D01*
X4152000Y-4596000D01*
X5069884Y-4596000D01*
X5085123Y-4591525D01*
X5086328Y-4590135D01*
X5087999Y-4582452D01*
X5087999Y-4144669D01*
X5742001Y-4144669D01*
X5742371Y-4151490D01*
X5747895Y-4202352D01*
X5751521Y-4217604D01*
X5796676Y-4338054D01*
X5805214Y-4353649D01*
X5881715Y-4455724D01*
X5894276Y-4468285D01*
X5996351Y-4544786D01*
X6011946Y-4553324D01*
X6132394Y-4598478D01*
X6147649Y-4602105D01*
X6198514Y-4607631D01*
X6205328Y-4608000D01*
X6527885Y-4608000D01*
X6543124Y-4603525D01*
X6544329Y-4602135D01*
X6546000Y-4594452D01*
X6546000Y-3722115D01*
X6541525Y-3706876D01*
X6540135Y-3705671D01*
X6532452Y-3704000D01*
X5760116Y-3704000D01*
X5744877Y-3708475D01*
X5743672Y-3709865D01*
X5742001Y-3717548D01*
X5742001Y-4144669D01*
X5087999Y-4144669D01*
X5087999Y-3911017D01*
X5087805Y-3906080D01*
X5085570Y-3877664D01*
X5083270Y-3865069D01*
X5040893Y-3719210D01*
X5034648Y-3704779D01*
X4958089Y-3575322D01*
X4948449Y-3562896D01*
X4842104Y-3456551D01*
X4829678Y-3446911D01*
X4700221Y-3370352D01*
X4685788Y-3364106D01*
X4656190Y-3355507D01*
X4596354Y-3317294D01*
X4566677Y-3252797D01*
X4576581Y-3182495D01*
X4622920Y-3128707D01*
X4691343Y-3108510D01*
X5627307Y-3108510D01*
X5695428Y-3128512D01*
X5741921Y-3182168D01*
X5745784Y-3192526D01*
X5747865Y-3194329D01*
X5755548Y-3196000D01*
X6928000Y-3196000D01*
X6996121Y-3216002D01*
X7042614Y-3269658D01*
X7054000Y-3322000D01*
X7054000Y-4589884D01*
X7058475Y-4605123D01*
X7059865Y-4606328D01*
X7067548Y-4607999D01*
X7394669Y-4607999D01*
X7401490Y-4607629D01*
X7452352Y-4602105D01*
X7467604Y-4598479D01*
X7588054Y-4553324D01*
X7603649Y-4544786D01*
X7624018Y-4529520D01*
X7690525Y-4504672D01*
X7759907Y-4519725D01*
X7775148Y-4529520D01*
X7803295Y-4550615D01*
X7939684Y-4601745D01*
X8001866Y-4608500D01*
X9191000Y-4608500D01*
X9259121Y-4628502D01*
X9305614Y-4682158D01*
X9317000Y-4734500D01*
X9317000Y-4845438D01*
X9317337Y-4851953D01*
X9326894Y-4944057D01*
X9329788Y-4957456D01*
X9379381Y-5106107D01*
X9385555Y-5119286D01*
X9467788Y-5252173D01*
X9476824Y-5263574D01*
X9587429Y-5373986D01*
X9598840Y-5382998D01*
X9731880Y-5465004D01*
X9745061Y-5471151D01*
X9893814Y-5520491D01*
X9907190Y-5523358D01*
X9998097Y-5532672D01*
X10004513Y-5533000D01*
X10027885Y-5533000D01*
X10043124Y-5528525D01*
X10044329Y-5527135D01*
X10046000Y-5519452D01*
X10046000Y-4447000D01*
X10066002Y-4378879D01*
X10119658Y-4332386D01*
X10172000Y-4321000D01*
X10428000Y-4321000D01*
X10496121Y-4341002D01*
X10542614Y-4394658D01*
X10554000Y-4447000D01*
X10554000Y-5514885D01*
X10558475Y-5530124D01*
X10559865Y-5531329D01*
X10567548Y-5533000D01*
X10595438Y-5533000D01*
X10601953Y-5532663D01*
X10694057Y-5523106D01*
X10707456Y-5520212D01*
X10856107Y-5470619D01*
X10869286Y-5464445D01*
X11002173Y-5382212D01*
X11013574Y-5373176D01*
X11123986Y-5262571D01*
X11132998Y-5251160D01*
X11215004Y-5118120D01*
X11221151Y-5104939D01*
X11241408Y-5043868D01*
X11281840Y-4985508D01*
X11347404Y-4958272D01*
X11417286Y-4970806D01*
X11469297Y-5019131D01*
X11487001Y-5083536D01*
X11487001Y-5763984D01*
X11487195Y-5768920D01*
X11489430Y-5797336D01*
X11491730Y-5809931D01*
X11534107Y-5955790D01*
X11540352Y-5970221D01*
X11616911Y-6099678D01*
X11626551Y-6112104D01*
X11732896Y-6218449D01*
X11745322Y-6228089D01*
X11874779Y-6304648D01*
X11889210Y-6310893D01*
X12023605Y-6349939D01*
X12037706Y-6349899D01*
X12041000Y-6342630D01*
X12041000Y-6336878D01*
X12549000Y-6336878D01*
X12552973Y-6350409D01*
X12560871Y-6351544D01*
X12700790Y-6310893D01*
X12715221Y-6304648D01*
X12844678Y-6228088D01*
X12852770Y-6221811D01*
X12918854Y-6195861D01*
X12988477Y-6209759D01*
X13007230Y-6221811D01*
X13015322Y-6228088D01*
X13144779Y-6304648D01*
X13159210Y-6310893D01*
X13293605Y-6349939D01*
X13307706Y-6349899D01*
X13311000Y-6342630D01*
X13311000Y-6336878D01*
X13819000Y-6336878D01*
X13822973Y-6350409D01*
X13830871Y-6351544D01*
X13970790Y-6310893D01*
X13985221Y-6304648D01*
X14114678Y-6228088D01*
X14122770Y-6221811D01*
X14188854Y-6195861D01*
X14258477Y-6209759D01*
X14277230Y-6221811D01*
X14285322Y-6228088D01*
X14414779Y-6304648D01*
X14429210Y-6310893D01*
X14563605Y-6349939D01*
X14577706Y-6349899D01*
X14581000Y-6342630D01*
X14581000Y-5147115D01*
X14576525Y-5131876D01*
X14575135Y-5130671D01*
X14567452Y-5129000D01*
X13837115Y-5129000D01*
X13821876Y-5133475D01*
X13820671Y-5134865D01*
X13819000Y-5142548D01*
X13819000Y-6336878D01*
X13311000Y-6336878D01*
X13311000Y-5147115D01*
X13306525Y-5131876D01*
X13305135Y-5130671D01*
X13297452Y-5129000D01*
X12567115Y-5129000D01*
X12551876Y-5133475D01*
X12550671Y-5134865D01*
X12549000Y-5142548D01*
X12549000Y-6336878D01*
X12041000Y-6336878D01*
X12041000Y-4602885D01*
X12549000Y-4602885D01*
X12553475Y-4618124D01*
X12554865Y-4619329D01*
X12562548Y-4621000D01*
X13292885Y-4621000D01*
X13308124Y-4616525D01*
X13309329Y-4615135D01*
X13311000Y-4607452D01*
X13311000Y-4602885D01*
X13819000Y-4602885D01*
X13823475Y-4618124D01*
X13824865Y-4619329D01*
X13832548Y-4621000D01*
X14562885Y-4621000D01*
X14578124Y-4616525D01*
X14579329Y-4615135D01*
X14581000Y-4607452D01*
X14581000Y-4602885D01*
X15089000Y-4602885D01*
X15093475Y-4618124D01*
X15094865Y-4619329D01*
X15102548Y-4621000D01*
X15832885Y-4621000D01*
X15848124Y-4616525D01*
X15849329Y-4615135D01*
X15851000Y-4607452D01*
X15851000Y-4602885D01*
X16359000Y-4602885D01*
X16363475Y-4618124D01*
X16364865Y-4619329D01*
X16372548Y-4621000D01*
X16894884Y-4621000D01*
X16910123Y-4616525D01*
X16911328Y-4615135D01*
X16912999Y-4607452D01*
X16912999Y-3986017D01*
X16912805Y-3981080D01*
X16910570Y-3952664D01*
X16908270Y-3940069D01*
X16865893Y-3794210D01*
X16859648Y-3779779D01*
X16783089Y-3650322D01*
X16773449Y-3637896D01*
X16667104Y-3531551D01*
X16654678Y-3521911D01*
X16525221Y-3445352D01*
X16510790Y-3439107D01*
X16376395Y-3400061D01*
X16362294Y-3400101D01*
X16359000Y-3407370D01*
X16359000Y-4602885D01*
X15851000Y-4602885D01*
X15851000Y-3413122D01*
X15847027Y-3399591D01*
X15839129Y-3398456D01*
X15699210Y-3439107D01*
X15684779Y-3445352D01*
X15555322Y-3521912D01*
X15547230Y-3528189D01*
X15481146Y-3554139D01*
X15411523Y-3540241D01*
X15392770Y-3528189D01*
X15384678Y-3521912D01*
X15255221Y-3445352D01*
X15240790Y-3439107D01*
X15106395Y-3400061D01*
X15092294Y-3400101D01*
X15089000Y-3407370D01*
X15089000Y-4602885D01*
X14581000Y-4602885D01*
X14581000Y-3413122D01*
X14577027Y-3399591D01*
X14569129Y-3398456D01*
X14429210Y-3439107D01*
X14414779Y-3445352D01*
X14285322Y-3521912D01*
X14277230Y-3528189D01*
X14211146Y-3554139D01*
X14141523Y-3540241D01*
X14122770Y-3528189D01*
X14114678Y-3521912D01*
X13985221Y-3445352D01*
X13970790Y-3439107D01*
X13836395Y-3400061D01*
X13822294Y-3400101D01*
X13819000Y-3407370D01*
X13819000Y-4602885D01*
X13311000Y-4602885D01*
X13311000Y-3413122D01*
X13307027Y-3399591D01*
X13299129Y-3398456D01*
X13159210Y-3439107D01*
X13144779Y-3445352D01*
X13015322Y-3521912D01*
X13007230Y-3528189D01*
X12941146Y-3554139D01*
X12871523Y-3540241D01*
X12852770Y-3528189D01*
X12844678Y-3521912D01*
X12715221Y-3445352D01*
X12700790Y-3439107D01*
X12566395Y-3400061D01*
X12552294Y-3400101D01*
X12549000Y-3407370D01*
X12549000Y-4602885D01*
X12041000Y-4602885D01*
X12041000Y-3413122D01*
X12037027Y-3399591D01*
X12029129Y-3398456D01*
X11889210Y-3439107D01*
X11874779Y-3445352D01*
X11745322Y-3521911D01*
X11732896Y-3531551D01*
X11626551Y-3637896D01*
X11616911Y-3650322D01*
X11540352Y-3779779D01*
X11534107Y-3794210D01*
X11491731Y-3940065D01*
X11489430Y-3952667D01*
X11487193Y-3981084D01*
X11487000Y-3986014D01*
X11487000Y-4066534D01*
X11466998Y-4134655D01*
X11413342Y-4181148D01*
X11343068Y-4191252D01*
X11278488Y-4161758D01*
X11241476Y-4106410D01*
X11220619Y-4043893D01*
X11214445Y-4030714D01*
X11132212Y-3897827D01*
X11118629Y-3880689D01*
X11120559Y-3879159D01*
X11092097Y-3827120D01*
X11097113Y-3756301D01*
X11120799Y-3719383D01*
X11119843Y-3718628D01*
X11124381Y-3712882D01*
X11129552Y-3707702D01*
X11158758Y-3660322D01*
X11215462Y-3568331D01*
X11215463Y-3568329D01*
X11219302Y-3562101D01*
X11273149Y-3399757D01*
X11283500Y-3298732D01*
X11283500Y-2751268D01*
X11272887Y-2648981D01*
X11227642Y-2513366D01*
X11221073Y-2493676D01*
X11221072Y-2493674D01*
X11218756Y-2486732D01*
X11207171Y-2468010D01*
X11155116Y-2383891D01*
X11144291Y-2366398D01*
X11125453Y-2297946D01*
X11144175Y-2233979D01*
X11215462Y-2118331D01*
X11215463Y-2118329D01*
X11219302Y-2112101D01*
X11273149Y-1949757D01*
X11283500Y-1848732D01*
X11283500Y-1301268D01*
X11281137Y-1278488D01*
X11273914Y-1208882D01*
X11272887Y-1198981D01*
X11250221Y-1131042D01*
X11221073Y-1043676D01*
X11221072Y-1043674D01*
X11218756Y-1036732D01*
X11174024Y-964445D01*
X11132606Y-897515D01*
X11128752Y-891287D01*
X11123570Y-886114D01*
X11119023Y-880377D01*
X11120830Y-878945D01*
X11092098Y-826425D01*
X11097108Y-755605D01*
X11120499Y-719147D01*
X11119448Y-718317D01*
X11132998Y-701160D01*
X11215004Y-568120D01*
X11221151Y-554939D01*
X11240907Y-495377D01*
X11281338Y-437018D01*
X11346902Y-409781D01*
X11416784Y-422315D01*
X11468796Y-470640D01*
X11486500Y-535045D01*
X11486500Y-816502D01*
X11489438Y-853831D01*
X11508025Y-917807D01*
X11525303Y-977279D01*
X11535855Y-1013601D01*
X11539892Y-1020427D01*
X11616509Y-1149980D01*
X11616511Y-1149983D01*
X11620547Y-1156807D01*
X11738193Y-1274453D01*
X11745016Y-1278488D01*
X11745020Y-1278491D01*
X11789057Y-1304534D01*
X11881399Y-1359145D01*
X11889010Y-1361356D01*
X11889012Y-1361357D01*
X11941231Y-1376528D01*
X12041169Y-1405562D01*
X12047574Y-1406066D01*
X12047579Y-1406067D01*
X12076042Y-1408307D01*
X12076050Y-1408307D01*
X12078498Y-1408500D01*
X12511502Y-1408500D01*
X12513950Y-1408307D01*
X12513958Y-1408307D01*
X12542421Y-1406067D01*
X12542426Y-1406066D01*
X12548831Y-1405562D01*
X12648769Y-1376528D01*
X12700988Y-1361357D01*
X12700990Y-1361356D01*
X12708601Y-1359145D01*
X12851807Y-1274453D01*
X12854747Y-1271513D01*
X12919271Y-1246179D01*
X12988894Y-1260080D01*
X13007640Y-1272129D01*
X13015323Y-1278089D01*
X13144779Y-1354648D01*
X13159210Y-1360893D01*
X13293605Y-1399939D01*
X13307706Y-1399899D01*
X13311000Y-1392630D01*
X13311000Y203000D01*
X13331002Y271121D01*
X13384658Y317614D01*
X13437000Y329000D01*
X13693000Y329000D01*
X13761121Y308998D01*
X13807614Y255342D01*
X13819000Y203000D01*
X13819000Y-1386878D01*
X13822973Y-1400409D01*
X13830871Y-1401544D01*
X13970790Y-1360893D01*
X13985221Y-1354648D01*
X14114676Y-1278090D01*
X14122364Y-1272126D01*
X14188449Y-1246179D01*
X14258072Y-1260080D01*
X14274158Y-1270418D01*
X14278193Y-1274453D01*
X14285021Y-1278491D01*
X14285024Y-1278493D01*
X14329057Y-1304534D01*
X14421399Y-1359145D01*
X14429010Y-1361356D01*
X14429012Y-1361357D01*
X14443273Y-1365500D01*
X14499142Y-1381731D01*
X14553083Y-1413632D01*
X14735681Y-1596229D01*
X14746549Y-1608621D01*
X14753658Y-1617885D01*
X14766013Y-1633987D01*
X14772563Y-1639013D01*
X14772566Y-1639016D01*
X14803483Y-1662739D01*
X14878853Y-1720573D01*
X14893124Y-1731524D01*
X15041149Y-1792838D01*
X15049336Y-1793916D01*
X15049337Y-1793916D01*
X15060542Y-1795391D01*
X15091738Y-1799498D01*
X15160115Y-1808500D01*
X15160118Y-1808500D01*
X15160126Y-1808501D01*
X15191811Y-1812672D01*
X15200000Y-1813750D01*
X15231693Y-1809578D01*
X15248136Y-1808500D01*
X15695761Y-1808500D01*
X15763882Y-1828502D01*
X15784856Y-1845405D01*
X17035685Y-3096234D01*
X17046552Y-3108625D01*
X17066013Y-3133987D01*
X17097925Y-3158474D01*
X17097928Y-3158477D01*
X17153716Y-3201284D01*
X17193125Y-3231524D01*
X17200751Y-3234683D01*
X17200753Y-3234684D01*
X17310354Y-3280082D01*
X17341150Y-3292838D01*
X17460115Y-3308500D01*
X17460120Y-3308500D01*
X17460129Y-3308501D01*
X17491812Y-3312672D01*
X17500000Y-3313750D01*
X17531693Y-3309578D01*
X17548136Y-3308500D01*
X19294152Y-3308500D01*
X19362273Y-3328502D01*
X19408766Y-3382158D01*
X19416703Y-3445954D01*
X19419438Y-3446169D01*
X19416941Y-3477900D01*
X19416500Y-3483498D01*
X19416500Y-3916502D01*
X19416693Y-3918950D01*
X19416693Y-3918958D01*
X19418775Y-3945405D01*
X19419438Y-3953831D01*
X19465855Y-4113601D01*
X19469890Y-4120424D01*
X19469891Y-4120426D01*
X19479020Y-4135863D01*
X19496478Y-4204679D01*
X19479020Y-4264137D01*
X19475579Y-4269956D01*
X19465855Y-4286399D01*
X19463644Y-4294010D01*
X19463643Y-4294012D01*
X19452495Y-4332386D01*
X19419438Y-4446169D01*
X19418934Y-4452574D01*
X19418933Y-4452579D01*
X19416693Y-4481042D01*
X19416500Y-4483498D01*
X19416500Y-4916502D01*
X19416693Y-4918950D01*
X19416693Y-4918958D01*
X19418669Y-4944057D01*
X19419438Y-4953831D01*
X19444439Y-5039885D01*
X19463066Y-5104000D01*
X19465855Y-5113601D01*
X19479310Y-5136351D01*
X19496770Y-5205165D01*
X19479311Y-5264630D01*
X19470352Y-5279779D01*
X19464107Y-5294210D01*
X19425061Y-5428605D01*
X19425101Y-5442706D01*
X19432370Y-5446000D01*
X19757430Y-5446000D01*
X19806275Y-5456115D01*
X19811399Y-5459145D01*
X19819007Y-5461355D01*
X19819011Y-5461357D01*
X19899422Y-5484718D01*
X19971169Y-5505562D01*
X19977574Y-5506066D01*
X19977579Y-5506067D01*
X20006042Y-5508307D01*
X20006050Y-5508307D01*
X20008498Y-5508500D01*
X21391502Y-5508500D01*
X21393950Y-5508307D01*
X21393958Y-5508307D01*
X21422421Y-5506067D01*
X21422426Y-5506066D01*
X21428831Y-5505562D01*
X21500578Y-5484718D01*
X21580989Y-5461357D01*
X21580993Y-5461355D01*
X21588601Y-5459145D01*
X21593725Y-5456115D01*
X21642570Y-5446000D01*
X21961878Y-5446000D01*
X21975409Y-5442027D01*
X21978971Y-5417251D01*
X22008464Y-5352670D01*
X22032316Y-5331346D01*
X22036303Y-5328606D01*
X22054097Y-5318702D01*
X22056357Y-5317365D01*
X22063305Y-5314315D01*
X22114002Y-5275413D01*
X22119332Y-5271541D01*
X22165720Y-5239661D01*
X22165725Y-5239656D01*
X22171981Y-5235357D01*
X22177208Y-5229491D01*
X22211168Y-5191375D01*
X22213427Y-5188839D01*
X22218408Y-5183562D01*
X22780536Y-4621435D01*
X22786801Y-4615582D01*
X22824664Y-4582552D01*
X22824665Y-4582551D01*
X22830385Y-4577561D01*
X22867136Y-4525271D01*
X22871028Y-4520029D01*
X22910476Y-4469718D01*
X22913600Y-4462799D01*
X22914988Y-4460507D01*
X22923357Y-4445835D01*
X22924622Y-4443475D01*
X22928990Y-4437261D01*
X22941721Y-4404609D01*
X22952202Y-4377725D01*
X22954759Y-4371642D01*
X22962457Y-4354595D01*
X22981045Y-4313427D01*
X22982430Y-4305954D01*
X22983234Y-4303388D01*
X22987855Y-4287165D01*
X22988520Y-4284573D01*
X22991282Y-4277491D01*
X22999622Y-4214139D01*
X23000654Y-4207623D01*
X23010911Y-4152281D01*
X23012295Y-4144814D01*
X23008709Y-4082620D01*
X23008500Y-4075367D01*
X23008500Y-2153490D01*
X23028502Y-2085369D01*
X23082158Y-2038876D01*
X23152432Y-2028772D01*
X23217012Y-2058266D01*
X23241643Y-2087186D01*
X23326522Y-2224348D01*
X23451697Y-2349305D01*
X23457927Y-2353145D01*
X23457928Y-2353146D01*
X23507806Y-2383891D01*
X23602262Y-2442115D01*
X23644718Y-2456197D01*
X23763611Y-2495632D01*
X23763613Y-2495632D01*
X23770139Y-2497797D01*
X23776975Y-2498497D01*
X23776978Y-2498498D01*
X23820031Y-2502909D01*
X23874600Y-2508500D01*
X25275400Y-2508500D01*
X25278644Y-2508163D01*
X25278652Y-2508163D01*
X25352497Y-2500501D01*
X25422318Y-2513366D01*
X25474100Y-2561937D01*
X25491500Y-2625828D01*
X25491500Y-5774072D01*
X25471498Y-5842193D01*
X25417842Y-5888686D01*
X25352658Y-5899416D01*
X25275400Y-5891500D01*
X23874600Y-5891500D01*
X23871354Y-5891837D01*
X23871350Y-5891837D01*
X23775692Y-5901762D01*
X23775688Y-5901763D01*
X23768834Y-5902474D01*
X23762298Y-5904655D01*
X23762296Y-5904655D01*
X23658657Y-5939232D01*
X23601054Y-5958450D01*
X23450652Y-6051522D01*
X23445479Y-6056704D01*
X23388853Y-6113429D01*
X23325695Y-6176697D01*
X23321855Y-6182927D01*
X23321854Y-6182928D01*
X23246825Y-6304648D01*
X23232885Y-6327262D01*
X23216539Y-6376544D01*
X23181509Y-6482158D01*
X23177203Y-6495139D01*
X23176503Y-6501975D01*
X23176502Y-6501978D01*
X23175974Y-6507135D01*
X23166500Y-6599600D01*
X23166500Y-7400400D01*
X23166837Y-7403646D01*
X23166837Y-7403650D01*
X23174132Y-7473955D01*
X23177474Y-7506166D01*
X23179655Y-7512702D01*
X23179655Y-7512704D01*
X23205816Y-7591118D01*
X23233450Y-7673946D01*
X23326522Y-7824348D01*
X23451697Y-7949305D01*
X23457927Y-7953145D01*
X23457928Y-7953146D01*
X23566116Y-8019834D01*
X23602262Y-8042115D01*
X23643491Y-8055790D01*
X23763611Y-8095632D01*
X23763613Y-8095632D01*
X23770139Y-8097797D01*
X23776975Y-8098497D01*
X23776978Y-8098498D01*
X23818607Y-8102763D01*
X23874600Y-8108500D01*
X25275400Y-8108500D01*
X25278644Y-8108163D01*
X25278652Y-8108163D01*
X25352497Y-8100501D01*
X25422318Y-8113366D01*
X25474100Y-8161937D01*
X25491500Y-8225828D01*
X25491500Y-12372104D01*
X25471498Y-12440225D01*
X25417842Y-12486718D01*
X25347568Y-12496822D01*
X25278767Y-12463501D01*
X25214828Y-12402825D01*
X25214827Y-12402824D01*
X25212361Y-12400484D01*
X24960635Y-12208720D01*
X24921382Y-12178817D01*
X24921380Y-12178815D01*
X24918675Y-12176755D01*
X24915763Y-12174998D01*
X24915758Y-12174995D01*
X24605466Y-11987815D01*
X24605457Y-11987810D01*
X24602544Y-11986053D01*
X24599454Y-11984619D01*
X24599449Y-11984616D01*
X24389305Y-11887071D01*
X24267666Y-11830608D01*
X24264441Y-11829516D01*
X24264435Y-11829514D01*
X23921195Y-11713334D01*
X23921190Y-11713332D01*
X23917959Y-11712239D01*
X23908185Y-11710072D01*
X23788213Y-11683475D01*
X23557514Y-11632330D01*
X23427190Y-11617942D01*
X23193928Y-11592189D01*
X23193923Y-11592189D01*
X23190547Y-11591816D01*
X23187148Y-11591810D01*
X23187147Y-11591810D01*
X23012542Y-11591506D01*
X22821351Y-11591172D01*
X22714472Y-11602594D01*
X22457628Y-11630042D01*
X22457620Y-11630043D01*
X22454245Y-11630404D01*
X22093523Y-11709055D01*
X21743405Y-11826202D01*
X21740312Y-11827624D01*
X21740311Y-11827625D01*
X21611075Y-11887067D01*
X21407986Y-11980478D01*
X21405052Y-11982234D01*
X21405050Y-11982235D01*
X21317339Y-12034729D01*
X21091192Y-12170075D01*
X20796726Y-12392778D01*
X20794244Y-12395117D01*
X20794238Y-12395122D01*
X20530520Y-12643638D01*
X20528035Y-12645980D01*
X20525823Y-12648570D01*
X20525821Y-12648572D01*
X20479083Y-12703295D01*
X20288261Y-12926719D01*
X20286342Y-12929531D01*
X20286339Y-12929536D01*
X20216971Y-13031226D01*
X20080209Y-13231712D01*
X19906313Y-13557390D01*
X19768607Y-13899944D01*
X19767687Y-13903218D01*
X19767685Y-13903223D01*
X19672600Y-14241500D01*
X19668702Y-14255367D01*
X19668140Y-14258724D01*
X19668140Y-14258725D01*
X19609589Y-14608615D01*
X19607767Y-14619500D01*
X19586515Y-14988085D01*
X19586687Y-14991480D01*
X19586687Y-14991481D01*
X19594549Y-15146669D01*
X19605194Y-15356809D01*
X19605731Y-15360164D01*
X19605732Y-15360170D01*
X19639080Y-15568365D01*
X19663585Y-15721358D01*
X19761006Y-16077470D01*
X19850657Y-16305062D01*
X19875079Y-16367060D01*
X19896317Y-16420977D01*
X19897900Y-16423992D01*
X20066351Y-16744845D01*
X20066356Y-16744853D01*
X20067935Y-16747861D01*
X20273853Y-17054299D01*
X20467566Y-17284341D01*
X20496144Y-17349331D01*
X20485049Y-17419456D01*
X20437803Y-17472449D01*
X20371186Y-17491500D01*
X17974091Y-17491500D01*
X17905970Y-17471498D01*
X17859477Y-17417842D01*
X17849373Y-17347568D01*
X17878867Y-17282988D01*
X17885152Y-17276249D01*
X17934430Y-17227144D01*
X17934440Y-17227132D01*
X17938096Y-17223489D01*
X18068453Y-17042077D01*
X18081995Y-17014678D01*
X18165136Y-16846453D01*
X18165137Y-16846451D01*
X18167430Y-16841811D01*
X18223917Y-16655890D01*
X18230865Y-16633023D01*
X18230865Y-16633021D01*
X18232370Y-16628069D01*
X18261529Y-16406590D01*
X18263156Y-16340000D01*
X18244852Y-16117361D01*
X18190431Y-15900702D01*
X18101354Y-15695840D01*
X18034318Y-15592218D01*
X17982822Y-15512617D01*
X17982820Y-15512614D01*
X17980014Y-15508277D01*
X17976532Y-15504450D01*
X17832798Y-15346488D01*
X17801746Y-15282642D01*
X17810141Y-15212143D01*
X17855317Y-15157375D01*
X17881761Y-15143706D01*
X17988297Y-15103767D01*
X17996705Y-15100615D01*
X18113261Y-15013261D01*
X18200615Y-14896705D01*
X18251745Y-14760316D01*
X18258500Y-14698134D01*
X18258500Y-12901866D01*
X18251745Y-12839684D01*
X18200615Y-12703295D01*
X18113261Y-12586739D01*
X17996705Y-12499385D01*
X17860316Y-12448255D01*
X17798134Y-12441500D01*
X17634500Y-12441500D01*
X17566379Y-12421498D01*
X17519886Y-12367842D01*
X17508500Y-12315500D01*
X17508500Y-11943297D01*
X17528502Y-11875176D01*
X17532581Y-11869439D01*
X17536639Y-11865381D01*
X17541020Y-11858148D01*
X17602016Y-11757430D01*
X17625472Y-11718699D01*
X17628495Y-11709055D01*
X17652306Y-11633071D01*
X17676753Y-11555062D01*
X17683500Y-11481635D01*
X17683499Y-10968366D01*
X17683234Y-10965474D01*
X17677364Y-10901592D01*
X17676753Y-10894938D01*
X17640496Y-10779243D01*
X17627744Y-10738550D01*
X17627743Y-10738548D01*
X17625472Y-10731301D01*
X17536639Y-10584619D01*
X17441115Y-10489095D01*
X17407089Y-10426783D01*
X17412154Y-10355968D01*
X17441115Y-10310905D01*
X17536639Y-10215381D01*
X17625472Y-10068699D01*
X17676753Y-9905062D01*
X17683500Y-9831635D01*
X17683499Y-9504239D01*
X17703501Y-9436119D01*
X17720404Y-9415144D01*
X18196226Y-8939322D01*
X18208617Y-8928454D01*
X18227441Y-8914010D01*
X18233987Y-8908987D01*
X18279161Y-8850115D01*
X18331524Y-8781876D01*
X18353649Y-8728463D01*
X18368009Y-8693794D01*
X18392838Y-8633851D01*
X18395391Y-8614457D01*
X18407489Y-8522568D01*
X18408500Y-8514886D01*
X18408500Y-8514880D01*
X18412672Y-8483189D01*
X18413750Y-8475000D01*
X18409578Y-8443307D01*
X18408500Y-8426864D01*
X18408500Y-7420790D01*
X18428502Y-7352669D01*
X18440864Y-7336480D01*
X18534621Y-7232352D01*
X18534622Y-7232351D01*
X18539040Y-7227444D01*
X18634527Y-7062056D01*
X18693542Y-6880428D01*
X18699211Y-6826496D01*
X18712814Y-6697065D01*
X18713504Y-6690500D01*
X18708932Y-6647000D01*
X18694232Y-6507135D01*
X18694232Y-6507133D01*
X18693542Y-6500572D01*
X18634527Y-6318944D01*
X18611523Y-6279099D01*
X18593246Y-6247444D01*
X18539040Y-6153556D01*
X18502748Y-6113249D01*
X18415675Y-6016545D01*
X18415674Y-6016544D01*
X18411253Y-6011634D01*
X18348266Y-5965871D01*
X19423456Y-5965871D01*
X19464107Y-6105790D01*
X19470352Y-6120221D01*
X19546911Y-6249678D01*
X19556551Y-6262104D01*
X19662896Y-6368449D01*
X19675322Y-6378089D01*
X19804779Y-6454648D01*
X19819210Y-6460893D01*
X19965065Y-6503269D01*
X19977667Y-6505570D01*
X20006084Y-6507807D01*
X20011014Y-6508000D01*
X20427885Y-6508000D01*
X20443124Y-6503525D01*
X20444329Y-6502135D01*
X20446000Y-6494452D01*
X20446000Y-6489884D01*
X20954000Y-6489884D01*
X20958475Y-6505123D01*
X20959865Y-6506328D01*
X20967548Y-6507999D01*
X21388984Y-6507999D01*
X21393920Y-6507805D01*
X21422336Y-6505570D01*
X21434931Y-6503270D01*
X21580790Y-6460893D01*
X21595221Y-6454648D01*
X21724678Y-6378089D01*
X21737104Y-6368449D01*
X21843449Y-6262104D01*
X21853089Y-6249678D01*
X21929648Y-6120221D01*
X21935893Y-6105790D01*
X21974939Y-5971395D01*
X21974899Y-5957294D01*
X21967630Y-5954000D01*
X20972115Y-5954000D01*
X20956876Y-5958475D01*
X20955671Y-5959865D01*
X20954000Y-5967548D01*
X20954000Y-6489884D01*
X20446000Y-6489884D01*
X20446000Y-5972115D01*
X20441525Y-5956876D01*
X20440135Y-5955671D01*
X20432452Y-5954000D01*
X19438122Y-5954000D01*
X19424591Y-5957973D01*
X19423456Y-5965871D01*
X18348266Y-5965871D01*
X18303883Y-5933625D01*
X18262094Y-5903263D01*
X18262093Y-5903262D01*
X18256752Y-5899382D01*
X18250724Y-5896698D01*
X18250722Y-5896697D01*
X18088319Y-5824391D01*
X18088318Y-5824391D01*
X18082288Y-5821706D01*
X17967637Y-5797336D01*
X17901944Y-5783372D01*
X17901939Y-5783372D01*
X17895487Y-5782000D01*
X17704513Y-5782000D01*
X17698061Y-5783372D01*
X17698056Y-5783372D01*
X17632363Y-5797336D01*
X17517712Y-5821706D01*
X17511682Y-5824391D01*
X17511681Y-5824391D01*
X17349278Y-5896697D01*
X17349276Y-5896698D01*
X17343248Y-5899382D01*
X17324060Y-5913323D01*
X17257192Y-5937181D01*
X17188041Y-5921100D01*
X17175940Y-5913323D01*
X17156752Y-5899382D01*
X17150724Y-5896698D01*
X17150722Y-5896697D01*
X16987751Y-5824138D01*
X16933655Y-5778158D01*
X16913000Y-5709031D01*
X16913000Y-5147115D01*
X16908525Y-5131876D01*
X16907135Y-5130671D01*
X16899452Y-5129000D01*
X15107115Y-5129000D01*
X15091876Y-5133475D01*
X15090671Y-5134865D01*
X15089000Y-5142548D01*
X15089000Y-6336878D01*
X15092973Y-6350409D01*
X15100871Y-6351544D01*
X15240790Y-6310893D01*
X15255221Y-6304648D01*
X15384678Y-6228088D01*
X15392770Y-6221811D01*
X15458854Y-6195861D01*
X15528477Y-6209759D01*
X15547230Y-6221811D01*
X15555322Y-6228088D01*
X15684779Y-6304648D01*
X15699212Y-6310894D01*
X15728663Y-6319450D01*
X15788498Y-6357663D01*
X15818176Y-6422159D01*
X15813343Y-6479381D01*
X15806458Y-6500572D01*
X15805768Y-6507133D01*
X15805768Y-6507135D01*
X15791068Y-6647000D01*
X15786496Y-6690500D01*
X15787186Y-6697065D01*
X15800790Y-6826496D01*
X15806458Y-6880428D01*
X15865473Y-7062056D01*
X15878431Y-7084500D01*
X15922153Y-7160229D01*
X15938890Y-7229224D01*
X15915669Y-7296316D01*
X15902128Y-7312323D01*
X14584856Y-8629595D01*
X14522544Y-8663621D01*
X14495761Y-8666500D01*
X14188237Y-8666501D01*
X14168366Y-8666501D01*
X14165508Y-8666764D01*
X14165499Y-8666764D01*
X14129996Y-8670026D01*
X14094938Y-8673247D01*
X14088560Y-8675246D01*
X14088559Y-8675246D01*
X13938550Y-8722256D01*
X13938548Y-8722257D01*
X13931301Y-8724528D01*
X13784619Y-8813361D01*
X13663361Y-8934619D01*
X13574528Y-9081301D01*
X13523247Y-9244938D01*
X13516500Y-9318365D01*
X13516501Y-9831634D01*
X13516764Y-9834492D01*
X13516764Y-9834501D01*
X13518237Y-9850531D01*
X13523247Y-9905062D01*
X13574528Y-10068699D01*
X13663361Y-10215381D01*
X13758885Y-10310905D01*
X13792911Y-10373217D01*
X13787846Y-10444032D01*
X13758885Y-10489095D01*
X13663361Y-10584619D01*
X13574528Y-10731301D01*
X13572257Y-10738548D01*
X13572256Y-10738550D01*
X13559504Y-10779243D01*
X13523247Y-10894938D01*
X13516500Y-10968365D01*
X13516501Y-11481634D01*
X13516764Y-11484492D01*
X13516764Y-11484501D01*
X13520026Y-11520004D01*
X13523247Y-11555062D01*
X13525246Y-11561440D01*
X13525246Y-11561441D01*
X13571506Y-11709055D01*
X13574528Y-11718699D01*
X13663361Y-11865381D01*
X13784619Y-11986639D01*
X13931301Y-12075472D01*
X13938548Y-12077743D01*
X13938550Y-12077744D01*
X14004836Y-12098517D01*
X14094938Y-12126753D01*
X14168365Y-12133500D01*
X14188334Y-12133500D01*
X14495760Y-12133499D01*
X14563880Y-12153501D01*
X14584855Y-12170404D01*
X14653897Y-12239446D01*
X14687923Y-12301758D01*
X14682858Y-12372573D01*
X14640311Y-12429409D01*
X14573791Y-12454220D01*
X14542706Y-12452588D01*
X14493373Y-12443800D01*
X14493367Y-12443799D01*
X14488284Y-12442894D01*
X14414452Y-12441992D01*
X14270081Y-12440228D01*
X14270079Y-12440228D01*
X14264911Y-12440165D01*
X14044091Y-12473955D01*
X13831756Y-12543357D01*
X13633607Y-12646507D01*
X13629474Y-12649610D01*
X13629471Y-12649612D01*
X13459100Y-12777530D01*
X13454965Y-12780635D01*
X13451393Y-12784373D01*
X13305593Y-12936944D01*
X13300629Y-12942138D01*
X13297715Y-12946410D01*
X13297714Y-12946411D01*
X13292537Y-12954000D01*
X13207360Y-13078866D01*
X13192898Y-13100066D01*
X13137987Y-13145069D01*
X13067462Y-13153240D01*
X13003715Y-13121986D01*
X12983018Y-13097502D01*
X12902426Y-12972926D01*
X12896136Y-12964757D01*
X12752806Y-12807240D01*
X12745273Y-12800215D01*
X12578139Y-12668222D01*
X12569552Y-12662517D01*
X12383117Y-12559599D01*
X12373705Y-12555369D01*
X12172959Y-12484280D01*
X12162988Y-12481646D01*
X12091837Y-12468972D01*
X12078540Y-12470432D01*
X12074000Y-12484989D01*
X12074000Y-16468000D01*
X12053998Y-16536121D01*
X12000342Y-16582614D01*
X11948000Y-16594000D01*
X10503225Y-16594000D01*
X10489694Y-16597973D01*
X10488257Y-16607966D01*
X10518565Y-16742446D01*
X10521645Y-16752275D01*
X10601770Y-16949603D01*
X10606413Y-16958794D01*
X10717694Y-17140388D01*
X10723771Y-17148691D01*
X10840116Y-17283003D01*
X10869598Y-17347588D01*
X10859483Y-17417860D01*
X10812982Y-17471509D01*
X10744878Y-17491500D01*
X-7992285Y-17491500D01*
X-8060406Y-17471498D01*
X-8106899Y-17417842D01*
X-8118285Y-17365500D01*
X-8118285Y-15568365D01*
X-2633500Y-15568365D01*
X-2633499Y-16231634D01*
X-2626753Y-16305062D01*
X-2624754Y-16311440D01*
X-2624754Y-16311441D01*
X-2589482Y-16423992D01*
X-2575472Y-16468699D01*
X-2486639Y-16615381D01*
X-2365381Y-16736639D01*
X-2218699Y-16825472D01*
X-2211452Y-16827743D01*
X-2211450Y-16827744D01*
X-2151749Y-16846453D01*
X-2055062Y-16876753D01*
X-1981635Y-16883500D01*
X-1978737Y-16883500D01*
X-1724335Y-16883499D01*
X-1468366Y-16883499D01*
X-1465508Y-16883236D01*
X-1465499Y-16883236D01*
X-1429996Y-16879974D01*
X-1394938Y-16876753D01*
X-1388553Y-16874752D01*
X-1238550Y-16827744D01*
X-1238548Y-16827743D01*
X-1231301Y-16825472D01*
X-1084619Y-16736639D01*
X-989095Y-16641115D01*
X-926783Y-16607089D01*
X-855968Y-16612154D01*
X-810905Y-16641115D01*
X-715381Y-16736639D01*
X-568699Y-16825472D01*
X-561452Y-16827743D01*
X-561450Y-16827744D01*
X-501749Y-16846453D01*
X-405062Y-16876753D01*
X-331635Y-16883500D01*
X-328737Y-16883500D01*
X-74335Y-16883499D01*
X181634Y-16883499D01*
X184492Y-16883236D01*
X184501Y-16883236D01*
X220004Y-16879974D01*
X255062Y-16876753D01*
X261447Y-16874752D01*
X411450Y-16827744D01*
X411452Y-16827743D01*
X418699Y-16825472D01*
X565381Y-16736639D01*
X570757Y-16731263D01*
X576728Y-16726581D01*
X578445Y-16728771D01*
X629311Y-16700995D01*
X700126Y-16706060D01*
X734187Y-16725235D01*
X734767Y-16725693D01*
X739947Y-16730864D01*
X884308Y-16819849D01*
X891256Y-16822154D01*
X891257Y-16822154D01*
X1038738Y-16871072D01*
X1038740Y-16871072D01*
X1045269Y-16873238D01*
X1145428Y-16883500D01*
X1679572Y-16883500D01*
X1682818Y-16883163D01*
X1682822Y-16883163D01*
X1716603Y-16879658D01*
X1780982Y-16872978D01*
X1941849Y-16819308D01*
X2086055Y-16730071D01*
X2111241Y-16704841D01*
X2173523Y-16670762D01*
X2244343Y-16675765D01*
X2289432Y-16704686D01*
X2310080Y-16725298D01*
X2321491Y-16734310D01*
X2453291Y-16815553D01*
X2466468Y-16821697D01*
X2613843Y-16870579D01*
X2627210Y-16873445D01*
X2716700Y-16882614D01*
X2730624Y-16878525D01*
X2731829Y-16877135D01*
X2733500Y-16869452D01*
X2733500Y-16864885D01*
X3241500Y-16864885D01*
X3245975Y-16880124D01*
X3247365Y-16881329D01*
X3254321Y-16882842D01*
X3257782Y-16882663D01*
X3349021Y-16873196D01*
X3362417Y-16870303D01*
X3509687Y-16821170D01*
X3522866Y-16814996D01*
X3654515Y-16733529D01*
X3665274Y-16725002D01*
X3731084Y-16698365D01*
X3800848Y-16711536D01*
X3822641Y-16727386D01*
X3823272Y-16726581D01*
X3829243Y-16731263D01*
X3834619Y-16736639D01*
X3981301Y-16825472D01*
X3988548Y-16827743D01*
X3988550Y-16827744D01*
X4048251Y-16846453D01*
X4144938Y-16876753D01*
X4218365Y-16883500D01*
X4221263Y-16883500D01*
X4475665Y-16883499D01*
X4731634Y-16883499D01*
X4734492Y-16883236D01*
X4734501Y-16883236D01*
X4770004Y-16879974D01*
X4805062Y-16876753D01*
X4811447Y-16874752D01*
X4961450Y-16827744D01*
X4961452Y-16827743D01*
X4968699Y-16825472D01*
X5115381Y-16736639D01*
X5210905Y-16641115D01*
X5273217Y-16607089D01*
X5344032Y-16612154D01*
X5389095Y-16641115D01*
X5484619Y-16736639D01*
X5631301Y-16825472D01*
X5638548Y-16827743D01*
X5638550Y-16827744D01*
X5698251Y-16846453D01*
X5794938Y-16876753D01*
X5868365Y-16883500D01*
X5871263Y-16883500D01*
X6125665Y-16883499D01*
X6381634Y-16883499D01*
X6384492Y-16883236D01*
X6384501Y-16883236D01*
X6420004Y-16879974D01*
X6455062Y-16876753D01*
X6461447Y-16874752D01*
X6611450Y-16827744D01*
X6611452Y-16827743D01*
X6618699Y-16825472D01*
X6765381Y-16736639D01*
X6770757Y-16731263D01*
X6776728Y-16726581D01*
X6778445Y-16728771D01*
X6829311Y-16700995D01*
X6900126Y-16706060D01*
X6934187Y-16725235D01*
X6934767Y-16725693D01*
X6939947Y-16730864D01*
X7084308Y-16819849D01*
X7091256Y-16822154D01*
X7091257Y-16822154D01*
X7238738Y-16871072D01*
X7238740Y-16871072D01*
X7245269Y-16873238D01*
X7345428Y-16883500D01*
X7879572Y-16883500D01*
X7882818Y-16883163D01*
X7882822Y-16883163D01*
X7916603Y-16879658D01*
X7980982Y-16872978D01*
X8141849Y-16819308D01*
X8286055Y-16730071D01*
X8311241Y-16704841D01*
X8373523Y-16670762D01*
X8444343Y-16675765D01*
X8489432Y-16704686D01*
X8510080Y-16725298D01*
X8521491Y-16734310D01*
X8653291Y-16815553D01*
X8666468Y-16821697D01*
X8813843Y-16870579D01*
X8827210Y-16873445D01*
X8916700Y-16882614D01*
X8930624Y-16878525D01*
X8931829Y-16877135D01*
X8933500Y-16869452D01*
X8933500Y-16864885D01*
X9441500Y-16864885D01*
X9445975Y-16880124D01*
X9447365Y-16881329D01*
X9454321Y-16882842D01*
X9457782Y-16882663D01*
X9549021Y-16873196D01*
X9562417Y-16870303D01*
X9709687Y-16821170D01*
X9722866Y-16814996D01*
X9854514Y-16733530D01*
X9865915Y-16724494D01*
X9975298Y-16614920D01*
X9984310Y-16603509D01*
X10065553Y-16471709D01*
X10071697Y-16458532D01*
X10120579Y-16311157D01*
X10123445Y-16297790D01*
X10132672Y-16207730D01*
X10133000Y-16201315D01*
X10133000Y-16172115D01*
X10128525Y-16156876D01*
X10127135Y-16155671D01*
X10119452Y-16154000D01*
X9459615Y-16154000D01*
X9444376Y-16158475D01*
X9443171Y-16159865D01*
X9441500Y-16167548D01*
X9441500Y-16864885D01*
X8933500Y-16864885D01*
X8933500Y-16074183D01*
X10484389Y-16074183D01*
X10485912Y-16082607D01*
X10498292Y-16086000D01*
X11547885Y-16086000D01*
X11563124Y-16081525D01*
X11564329Y-16080135D01*
X11566000Y-16072452D01*
X11566000Y-14072115D01*
X11561525Y-14056876D01*
X11560135Y-14055671D01*
X11552452Y-14054000D01*
X10503225Y-14054000D01*
X10489694Y-14057973D01*
X10488257Y-14067966D01*
X10518565Y-14202446D01*
X10521645Y-14212275D01*
X10601770Y-14409603D01*
X10606413Y-14418794D01*
X10717694Y-14600388D01*
X10723777Y-14608699D01*
X10863213Y-14769667D01*
X10870580Y-14776883D01*
X11034434Y-14912916D01*
X11042881Y-14918831D01*
X11112479Y-14959501D01*
X11161203Y-15011140D01*
X11174274Y-15080923D01*
X11147543Y-15146694D01*
X11107087Y-15180053D01*
X11098462Y-15184542D01*
X11089738Y-15190036D01*
X10919433Y-15317905D01*
X10911726Y-15324748D01*
X10764590Y-15478717D01*
X10758104Y-15486727D01*
X10638098Y-15662649D01*
X10633000Y-15671623D01*
X10543338Y-15864783D01*
X10539775Y-15874470D01*
X10484389Y-16074183D01*
X8933500Y-16074183D01*
X8933500Y-15627885D01*
X9441500Y-15627885D01*
X9445975Y-15643124D01*
X9447365Y-15644329D01*
X9455048Y-15646000D01*
X10114885Y-15646000D01*
X10130124Y-15641525D01*
X10131329Y-15640135D01*
X10133000Y-15632452D01*
X10133000Y-15598734D01*
X10132663Y-15592218D01*
X10123196Y-15500979D01*
X10120303Y-15487583D01*
X10071170Y-15340313D01*
X10064996Y-15327134D01*
X9983530Y-15195486D01*
X9974494Y-15184085D01*
X9864920Y-15074702D01*
X9853509Y-15065690D01*
X9721709Y-14984447D01*
X9708532Y-14978303D01*
X9561157Y-14929421D01*
X9547790Y-14926555D01*
X9458300Y-14917386D01*
X9444376Y-14921475D01*
X9443171Y-14922865D01*
X9441500Y-14930548D01*
X9441500Y-15627885D01*
X8933500Y-15627885D01*
X8933500Y-14935115D01*
X8929025Y-14919876D01*
X8927635Y-14918671D01*
X8920679Y-14917158D01*
X8917218Y-14917337D01*
X8825979Y-14926804D01*
X8812583Y-14929697D01*
X8665313Y-14978830D01*
X8652134Y-14985004D01*
X8520486Y-15066470D01*
X8509085Y-15075506D01*
X8489467Y-15095158D01*
X8427184Y-15129237D01*
X8356364Y-15124234D01*
X8311277Y-15095314D01*
X8290234Y-15074308D01*
X8285053Y-15069136D01*
X8273438Y-15061976D01*
X8214460Y-15025622D01*
X8140692Y-14980151D01*
X8133743Y-14977846D01*
X7986262Y-14928928D01*
X7986260Y-14928928D01*
X7979731Y-14926762D01*
X7879572Y-14916500D01*
X7345428Y-14916500D01*
X7342182Y-14916837D01*
X7342178Y-14916837D01*
X7312890Y-14919876D01*
X7244018Y-14927022D01*
X7083151Y-14980692D01*
X6938945Y-15069929D01*
X6934161Y-15074721D01*
X6868559Y-15101276D01*
X6798795Y-15088106D01*
X6777408Y-15072552D01*
X6776728Y-15073419D01*
X6770757Y-15068737D01*
X6765381Y-15063361D01*
X6618699Y-14974528D01*
X6611452Y-14972257D01*
X6611450Y-14972256D01*
X6544895Y-14951399D01*
X6485873Y-14911941D01*
X6457553Y-14846838D01*
X6468926Y-14776758D01*
X6493479Y-14742070D01*
X7701366Y-13534183D01*
X10484389Y-13534183D01*
X10485912Y-13542607D01*
X10498292Y-13546000D01*
X11547885Y-13546000D01*
X11563124Y-13541525D01*
X11564329Y-13540135D01*
X11566000Y-13532452D01*
X11566000Y-12483102D01*
X11562082Y-12469758D01*
X11547806Y-12467771D01*
X11509324Y-12473660D01*
X11499288Y-12476051D01*
X11296868Y-12542212D01*
X11287359Y-12546209D01*
X11098463Y-12644542D01*
X11089738Y-12650036D01*
X10919433Y-12777905D01*
X10911726Y-12784748D01*
X10764590Y-12938717D01*
X10758104Y-12946727D01*
X10638098Y-13122649D01*
X10633000Y-13131623D01*
X10543338Y-13324783D01*
X10539775Y-13334470D01*
X10484389Y-13534183D01*
X7701366Y-13534183D01*
X9286234Y-11949315D01*
X9298625Y-11938448D01*
X9317437Y-11924013D01*
X9323987Y-11918987D01*
X9348474Y-11887075D01*
X9348478Y-11887071D01*
X9421524Y-11791876D01*
X9482838Y-11643851D01*
X9484179Y-11633669D01*
X9494527Y-11555062D01*
X9498500Y-11524885D01*
X9498500Y-11524880D01*
X9502672Y-11493189D01*
X9503750Y-11485000D01*
X9499578Y-11453307D01*
X9498500Y-11436864D01*
X9498500Y-9620290D01*
X9518502Y-9552169D01*
X9530864Y-9535980D01*
X9624621Y-9431852D01*
X9624622Y-9431851D01*
X9629040Y-9426944D01*
X9724527Y-9261556D01*
X9783542Y-9079928D01*
X9789710Y-9021248D01*
X9802814Y-8896565D01*
X9803504Y-8890000D01*
X9801679Y-8872635D01*
X9784232Y-8706635D01*
X9784232Y-8706633D01*
X9783542Y-8700072D01*
X9724527Y-8518444D01*
X9710282Y-8493770D01*
X9632341Y-8358774D01*
X9629040Y-8353056D01*
X9598236Y-8318844D01*
X9505675Y-8216045D01*
X9505674Y-8216044D01*
X9501253Y-8211134D01*
X9402157Y-8139136D01*
X9352094Y-8102763D01*
X9352093Y-8102762D01*
X9346752Y-8098882D01*
X9340724Y-8096198D01*
X9340722Y-8096197D01*
X9178319Y-8023891D01*
X9178318Y-8023891D01*
X9172288Y-8021206D01*
X9078887Y-8001353D01*
X8991944Y-7982872D01*
X8991939Y-7982872D01*
X8985487Y-7981500D01*
X8794513Y-7981500D01*
X8788061Y-7982872D01*
X8788056Y-7982872D01*
X8701113Y-8001353D01*
X8607712Y-8021206D01*
X8601682Y-8023891D01*
X8601681Y-8023891D01*
X8439278Y-8096197D01*
X8439276Y-8096198D01*
X8433248Y-8098882D01*
X8427907Y-8102762D01*
X8427906Y-8102763D01*
X8377843Y-8139136D01*
X8278747Y-8211134D01*
X8274326Y-8216044D01*
X8274325Y-8216045D01*
X8181765Y-8318844D01*
X8150960Y-8353056D01*
X8147659Y-8358774D01*
X8069719Y-8493770D01*
X8055473Y-8518444D01*
X7996458Y-8700072D01*
X7995768Y-8706633D01*
X7995768Y-8706635D01*
X7978321Y-8872635D01*
X7976496Y-8890000D01*
X7977186Y-8896565D01*
X7990291Y-9021248D01*
X7996458Y-9079928D01*
X8055473Y-9261556D01*
X8150960Y-9426944D01*
X8155378Y-9431851D01*
X8155379Y-9431852D01*
X8249136Y-9535980D01*
X8279854Y-9599987D01*
X8281500Y-9620290D01*
X8281500Y-11180761D01*
X8261498Y-11248882D01*
X8244595Y-11269856D01*
X4634856Y-14879595D01*
X4572544Y-14913621D01*
X4545761Y-14916500D01*
X4238237Y-14916501D01*
X4218366Y-14916501D01*
X4215508Y-14916764D01*
X4215499Y-14916764D01*
X4181630Y-14919876D01*
X4144938Y-14923247D01*
X4138560Y-14925246D01*
X4138559Y-14925246D01*
X3988550Y-14972256D01*
X3988548Y-14972257D01*
X3981301Y-14974528D01*
X3834619Y-15063361D01*
X3829243Y-15068737D01*
X3823272Y-15073419D01*
X3821644Y-15071343D01*
X3770330Y-15099364D01*
X3699515Y-15094299D01*
X3665453Y-15075123D01*
X3653511Y-15065691D01*
X3521709Y-14984447D01*
X3508532Y-14978303D01*
X3361157Y-14929421D01*
X3347790Y-14926555D01*
X3258300Y-14917386D01*
X3244376Y-14921475D01*
X3243171Y-14922865D01*
X3241500Y-14930548D01*
X3241500Y-16864885D01*
X2733500Y-16864885D01*
X2733500Y-14935115D01*
X2728516Y-14918142D01*
X2692008Y-14861333D01*
X2692008Y-14790336D01*
X2723809Y-14736740D01*
X4115144Y-13345405D01*
X4177456Y-13311379D01*
X4204239Y-13308500D01*
X4295487Y-13308500D01*
X4301939Y-13307128D01*
X4301944Y-13307128D01*
X4395521Y-13287237D01*
X4482288Y-13268794D01*
X4505465Y-13258475D01*
X4650722Y-13193803D01*
X4650724Y-13193802D01*
X4656752Y-13191118D01*
X4673616Y-13178866D01*
X4720133Y-13145069D01*
X4811253Y-13078866D01*
X4918402Y-12959865D01*
X4934621Y-12941852D01*
X4934622Y-12941851D01*
X4939040Y-12936944D01*
X5029285Y-12780635D01*
X5031223Y-12777279D01*
X5031224Y-12777278D01*
X5034527Y-12771556D01*
X5093542Y-12589928D01*
X5102926Y-12500649D01*
X5112814Y-12406565D01*
X5113504Y-12400000D01*
X5106427Y-12332663D01*
X5094232Y-12216635D01*
X5094232Y-12216633D01*
X5093542Y-12210072D01*
X5034527Y-12028444D01*
X5021618Y-12006084D01*
X4982568Y-11938448D01*
X4939040Y-11863056D01*
X4881711Y-11799385D01*
X4815675Y-11726045D01*
X4815674Y-11726044D01*
X4811253Y-11721134D01*
X4686742Y-11630671D01*
X4662094Y-11612763D01*
X4662093Y-11612762D01*
X4656752Y-11608882D01*
X4650724Y-11606198D01*
X4650722Y-11606197D01*
X4488319Y-11533891D01*
X4488318Y-11533891D01*
X4482288Y-11531206D01*
X4388887Y-11511353D01*
X4301944Y-11492872D01*
X4301939Y-11492872D01*
X4295487Y-11491500D01*
X4104513Y-11491500D01*
X4098061Y-11492872D01*
X4098056Y-11492872D01*
X4011113Y-11511353D01*
X3917712Y-11531206D01*
X3911682Y-11533891D01*
X3911681Y-11533891D01*
X3749278Y-11606197D01*
X3749276Y-11606198D01*
X3743248Y-11608882D01*
X3737907Y-11612762D01*
X3737906Y-11612763D01*
X3713258Y-11630671D01*
X3588747Y-11721134D01*
X3584326Y-11726044D01*
X3584325Y-11726045D01*
X3514805Y-11803255D01*
X3454359Y-11840495D01*
X3383375Y-11839143D01*
X3324391Y-11799630D01*
X3295859Y-11732117D01*
X3294232Y-11716634D01*
X3294231Y-11716631D01*
X3293542Y-11710072D01*
X3234527Y-11528444D01*
X3214173Y-11493189D01*
X3181653Y-11436864D01*
X3139040Y-11363056D01*
X3125440Y-11347951D01*
X3015675Y-11226045D01*
X3015674Y-11226044D01*
X3011253Y-11221134D01*
X2856752Y-11108882D01*
X2850724Y-11106198D01*
X2850722Y-11106197D01*
X2688319Y-11033891D01*
X2688318Y-11033891D01*
X2682288Y-11031206D01*
X2588888Y-11011353D01*
X2501944Y-10992872D01*
X2501939Y-10992872D01*
X2495487Y-10991500D01*
X2304513Y-10991500D01*
X2298061Y-10992872D01*
X2298056Y-10992872D01*
X2211112Y-11011353D01*
X2117712Y-11031206D01*
X2111682Y-11033891D01*
X2111681Y-11033891D01*
X1949278Y-11106197D01*
X1949276Y-11106198D01*
X1943248Y-11108882D01*
X1788747Y-11221134D01*
X1784326Y-11226044D01*
X1784325Y-11226045D01*
X1674561Y-11347951D01*
X1660960Y-11363056D01*
X1618347Y-11436864D01*
X1585828Y-11493189D01*
X1565473Y-11528444D01*
X1554888Y-11561021D01*
X1524535Y-11654437D01*
X1484461Y-11713042D01*
X1419064Y-11740679D01*
X1404702Y-11741500D01*
X401866Y-11741500D01*
X339684Y-11748255D01*
X203295Y-11799385D01*
X86739Y-11886739D01*
X-615Y-12003295D01*
X-51745Y-12139684D01*
X-58500Y-12201866D01*
X-58500Y-13798134D01*
X-51745Y-13860316D01*
X-615Y-13996705D01*
X4770Y-14003890D01*
X4771Y-14003892D01*
X31784Y-14039935D01*
X56632Y-14106442D01*
X41579Y-14175824D01*
X-8595Y-14226054D01*
X-69042Y-14241500D01*
X-626864Y-14241500D01*
X-643310Y-14240422D01*
X-666812Y-14237328D01*
X-675000Y-14236250D01*
X-683188Y-14237328D01*
X-714871Y-14241499D01*
X-714880Y-14241500D01*
X-714885Y-14241500D01*
X-833850Y-14257162D01*
X-841477Y-14260321D01*
X-841480Y-14260322D01*
X-920562Y-14293079D01*
X-981876Y-14318476D01*
X-988427Y-14323503D01*
X-988429Y-14323504D01*
X-1066614Y-14383498D01*
X-1077072Y-14391523D01*
X-1077075Y-14391526D01*
X-1108987Y-14416013D01*
X-1114017Y-14422568D01*
X-1128452Y-14441379D01*
X-1139319Y-14453770D01*
X-1565144Y-14879595D01*
X-1627456Y-14913621D01*
X-1654239Y-14916500D01*
X-1961763Y-14916501D01*
X-1981634Y-14916501D01*
X-1984492Y-14916764D01*
X-1984501Y-14916764D01*
X-2018370Y-14919876D01*
X-2055062Y-14923247D01*
X-2061440Y-14925246D01*
X-2061441Y-14925246D01*
X-2211450Y-14972256D01*
X-2211452Y-14972257D01*
X-2218699Y-14974528D01*
X-2365381Y-15063361D01*
X-2486639Y-15184619D01*
X-2575472Y-15331301D01*
X-2577743Y-15338548D01*
X-2577744Y-15338550D01*
X-2580467Y-15347240D01*
X-2626753Y-15494938D01*
X-2633500Y-15568365D01*
X-8118285Y-15568365D01*
X-8118285Y-14602750D01*
X-13081714Y-14602750D01*
X-13081714Y-15040500D01*
X-13101716Y-15108621D01*
X-13155372Y-15155114D01*
X-13207714Y-15166500D01*
X-13800400Y-15166500D01*
X-13803646Y-15166837D01*
X-13803650Y-15166837D01*
X-13899308Y-15176762D01*
X-13899312Y-15176763D01*
X-13906166Y-15177474D01*
X-13912702Y-15179655D01*
X-13912704Y-15179655D01*
X-14044806Y-15223728D01*
X-14073946Y-15233450D01*
X-14224348Y-15326522D01*
X-14349305Y-15451697D01*
X-14353145Y-15457927D01*
X-14353146Y-15457928D01*
X-14437902Y-15595428D01*
X-14442115Y-15602262D01*
X-14497797Y-15770139D01*
X-14508500Y-15874600D01*
X-14508500Y-17275400D01*
X-14508163Y-17278644D01*
X-14508163Y-17278652D01*
X-14500501Y-17352497D01*
X-14513366Y-17422318D01*
X-14561937Y-17474100D01*
X-14625828Y-17491500D01*
X-17774072Y-17491500D01*
X-17842193Y-17471498D01*
X-17888686Y-17417842D01*
X-17899416Y-17352657D01*
X-17891500Y-17275400D01*
X-17891500Y-15874600D01*
X-17892049Y-15869305D01*
X-17901762Y-15775692D01*
X-17901763Y-15775688D01*
X-17902474Y-15768834D01*
X-17922471Y-15708894D01*
X-17956132Y-15608002D01*
X-17958450Y-15601054D01*
X-18051522Y-15450652D01*
X-18176697Y-15325695D01*
X-18184906Y-15320635D01*
X-18321032Y-15236725D01*
X-18321034Y-15236724D01*
X-18327262Y-15232885D01*
X-18456448Y-15190036D01*
X-18488611Y-15179368D01*
X-18488613Y-15179368D01*
X-18495139Y-15177203D01*
X-18501975Y-15176503D01*
X-18501978Y-15176502D01*
X-18550683Y-15171512D01*
X-18599600Y-15166500D01*
X-19400400Y-15166500D01*
X-19403646Y-15166837D01*
X-19403650Y-15166837D01*
X-19448705Y-15171512D01*
X-19518527Y-15158647D01*
X-19570309Y-15110076D01*
X-19587474Y-15038491D01*
X-19586687Y-15025622D01*
X-19586577Y-15023831D01*
X-19586494Y-15000000D01*
X-19606460Y-14631344D01*
X-19666123Y-14267000D01*
X-19764787Y-13911230D01*
X-19767970Y-13903230D01*
X-19900036Y-13571363D01*
X-19900040Y-13571355D01*
X-19901296Y-13568198D01*
X-19906444Y-13558474D01*
X-19993571Y-13393920D01*
X-19996184Y-13388984D01*
X-18507999Y-13388984D01*
X-18507805Y-13393920D01*
X-18505570Y-13422336D01*
X-18503270Y-13434931D01*
X-18460893Y-13580790D01*
X-18454648Y-13595221D01*
X-18378089Y-13724678D01*
X-18368449Y-13737104D01*
X-18262104Y-13843449D01*
X-18249678Y-13853089D01*
X-18120221Y-13929648D01*
X-18105790Y-13935893D01*
X-17971395Y-13974939D01*
X-17957294Y-13974899D01*
X-17954000Y-13967630D01*
X-17954000Y-12972115D01*
X-17958475Y-12956876D01*
X-17959865Y-12955671D01*
X-17967548Y-12954000D01*
X-18489884Y-12954000D01*
X-18505123Y-12958475D01*
X-18506328Y-12959865D01*
X-18507999Y-12967548D01*
X-18507999Y-13388984D01*
X-19996184Y-13388984D01*
X-20074054Y-13241914D01*
X-20075954Y-13239108D01*
X-20075958Y-13239101D01*
X-20279134Y-12939011D01*
X-20279141Y-12939002D01*
X-20281040Y-12936197D01*
X-20283236Y-12933607D01*
X-20283241Y-12933601D01*
X-20517633Y-12657217D01*
X-20517634Y-12657216D01*
X-20519833Y-12654623D01*
X-20696768Y-12486718D01*
X-20758765Y-12427885D01*
X-18508000Y-12427885D01*
X-18503525Y-12443124D01*
X-18502135Y-12444329D01*
X-18494452Y-12446000D01*
X-17972115Y-12446000D01*
X-17956876Y-12441525D01*
X-17955671Y-12440135D01*
X-17954000Y-12432452D01*
X-17954000Y-11438122D01*
X-17957973Y-11424591D01*
X-17965871Y-11423456D01*
X-18105790Y-11464107D01*
X-18120221Y-11470352D01*
X-18249678Y-11546911D01*
X-18262104Y-11556551D01*
X-18368449Y-11662896D01*
X-18378089Y-11675322D01*
X-18454648Y-11804779D01*
X-18460893Y-11819210D01*
X-18503269Y-11965065D01*
X-18505570Y-11977667D01*
X-18507807Y-12006084D01*
X-18508000Y-12011014D01*
X-18508000Y-12427885D01*
X-20758765Y-12427885D01*
X-20785172Y-12402825D01*
X-20785173Y-12402824D01*
X-20787639Y-12400484D01*
X-21039365Y-12208720D01*
X-21078618Y-12178817D01*
X-21078620Y-12178815D01*
X-21081325Y-12176755D01*
X-21084237Y-12174998D01*
X-21084242Y-12174995D01*
X-21394534Y-11987815D01*
X-21394543Y-11987810D01*
X-21397456Y-11986053D01*
X-21400546Y-11984619D01*
X-21400551Y-11984616D01*
X-21610695Y-11887071D01*
X-21732334Y-11830608D01*
X-21735559Y-11829516D01*
X-21735565Y-11829514D01*
X-22078805Y-11713334D01*
X-22078810Y-11713332D01*
X-22082041Y-11712239D01*
X-22091815Y-11710072D01*
X-22211787Y-11683475D01*
X-22442486Y-11632330D01*
X-22572810Y-11617942D01*
X-22806072Y-11592189D01*
X-22806077Y-11592189D01*
X-22809453Y-11591816D01*
X-22812852Y-11591810D01*
X-22812853Y-11591810D01*
X-22987458Y-11591506D01*
X-23178649Y-11591172D01*
X-23285528Y-11602594D01*
X-23542372Y-11630042D01*
X-23542380Y-11630043D01*
X-23545755Y-11630404D01*
X-23906477Y-11709055D01*
X-24256595Y-11826202D01*
X-24259688Y-11827624D01*
X-24259689Y-11827625D01*
X-24388925Y-11887067D01*
X-24592014Y-11980478D01*
X-24594948Y-11982234D01*
X-24594950Y-11982235D01*
X-24682661Y-12034729D01*
X-24908808Y-12170075D01*
X-25203274Y-12392778D01*
X-25205756Y-12395117D01*
X-25205762Y-12395122D01*
X-25233751Y-12421498D01*
X-25268474Y-12454220D01*
X-25279087Y-12464221D01*
X-25342381Y-12496383D01*
X-25413015Y-12489220D01*
X-25468564Y-12445006D01*
X-25491500Y-12372522D01*
X-25491500Y-9510392D01*
X-25471498Y-9442271D01*
X-25417842Y-9395778D01*
X-25347568Y-9385674D01*
X-25282988Y-9415168D01*
X-25276483Y-9421219D01*
X-25228488Y-9469130D01*
X-25228483Y-9469134D01*
X-25223303Y-9474305D01*
X-25217073Y-9478145D01*
X-25217072Y-9478146D01*
X-25079910Y-9562694D01*
X-25072738Y-9567115D01*
X-24992995Y-9593564D01*
X-24911389Y-9620632D01*
X-24911387Y-9620632D01*
X-24904861Y-9622797D01*
X-24898025Y-9623497D01*
X-24898022Y-9623498D01*
X-24859604Y-9627434D01*
X-24800400Y-9633500D01*
X-22499600Y-9633500D01*
X-22496354Y-9633163D01*
X-22496350Y-9633163D01*
X-22400692Y-9623238D01*
X-22400688Y-9623237D01*
X-22393834Y-9622526D01*
X-22387298Y-9620345D01*
X-22387296Y-9620345D01*
X-22238991Y-9570866D01*
X-22226054Y-9566550D01*
X-22075652Y-9473478D01*
X-21950695Y-9348303D01*
X-21930459Y-9315474D01*
X-21861725Y-9203968D01*
X-21861724Y-9203966D01*
X-21857885Y-9197738D01*
X-21817110Y-9074804D01*
X-21804368Y-9036389D01*
X-21804368Y-9036387D01*
X-21802203Y-9029861D01*
X-21801320Y-9021248D01*
X-21793111Y-8941120D01*
X-21791500Y-8925400D01*
X-21791500Y-8324600D01*
X-21792973Y-8310400D01*
X-21801762Y-8225692D01*
X-21801763Y-8225688D01*
X-21802474Y-8218834D01*
X-21806486Y-8206807D01*
X-21854264Y-8063601D01*
X-21858450Y-8051054D01*
X-21951522Y-7900652D01*
X-22076697Y-7775695D01*
X-22121060Y-7748349D01*
X-22221032Y-7686725D01*
X-22221034Y-7686724D01*
X-22227262Y-7682885D01*
X-22307005Y-7656436D01*
X-22388611Y-7629368D01*
X-22388613Y-7629368D01*
X-22395139Y-7627203D01*
X-22401975Y-7626503D01*
X-22401978Y-7626502D01*
X-22445031Y-7622091D01*
X-22499600Y-7616500D01*
X-23533629Y-7616500D01*
X-23601750Y-7596498D01*
X-23622724Y-7579595D01*
X-23704595Y-7497724D01*
X-23738621Y-7435412D01*
X-23741500Y-7408629D01*
X-23741500Y-7040871D01*
X-21801544Y-7040871D01*
X-21760893Y-7180790D01*
X-21754648Y-7195221D01*
X-21678089Y-7324678D01*
X-21668449Y-7337104D01*
X-21562104Y-7443449D01*
X-21549678Y-7453089D01*
X-21420221Y-7529648D01*
X-21405790Y-7535893D01*
X-21259935Y-7578269D01*
X-21247333Y-7580570D01*
X-21218916Y-7582807D01*
X-21213986Y-7583000D01*
X-20722115Y-7583000D01*
X-20706876Y-7578525D01*
X-20705671Y-7577135D01*
X-20704000Y-7569452D01*
X-20704000Y-7047115D01*
X-20708475Y-7031876D01*
X-20709865Y-7030671D01*
X-20717548Y-7029000D01*
X-21786878Y-7029000D01*
X-21800409Y-7032973D01*
X-21801544Y-7040871D01*
X-23741500Y-7040871D01*
X-23741500Y-2309500D01*
X-23721498Y-2241379D01*
X-23667842Y-2194886D01*
X-23615500Y-2183500D01*
X-22734500Y-2183500D01*
X-22666379Y-2203502D01*
X-22619886Y-2257158D01*
X-22608500Y-2309500D01*
X-22608500Y-4951864D01*
X-22609578Y-4968307D01*
X-22613750Y-5000000D01*
X-22608500Y-5039880D01*
X-22608500Y-5039885D01*
X-22596291Y-5132621D01*
X-22592838Y-5158851D01*
X-22531524Y-5306876D01*
X-22526497Y-5313427D01*
X-22526496Y-5313429D01*
X-22458480Y-5402069D01*
X-22458474Y-5402075D01*
X-22433987Y-5433987D01*
X-22427432Y-5439017D01*
X-22408621Y-5453452D01*
X-22396230Y-5464319D01*
X-21939315Y-5921234D01*
X-21928448Y-5933625D01*
X-21908987Y-5958987D01*
X-21902437Y-5964013D01*
X-21877075Y-5983474D01*
X-21877072Y-5983477D01*
X-21793417Y-6047668D01*
X-21781876Y-6056524D01*
X-21774248Y-6059683D01*
X-21774244Y-6059686D01*
X-21752476Y-6068702D01*
X-21697195Y-6113249D01*
X-21674773Y-6180613D01*
X-21692239Y-6249250D01*
X-21754648Y-6354779D01*
X-21760893Y-6369210D01*
X-21799939Y-6503605D01*
X-21799899Y-6517706D01*
X-21792630Y-6521000D01*
X-20322000Y-6521000D01*
X-20253879Y-6541002D01*
X-20207386Y-6594658D01*
X-20196000Y-6647000D01*
X-20196000Y-7564884D01*
X-20191525Y-7580123D01*
X-20190135Y-7581328D01*
X-20182452Y-7582999D01*
X-19686016Y-7582999D01*
X-19681080Y-7582805D01*
X-19652664Y-7580570D01*
X-19640069Y-7578270D01*
X-19494210Y-7535893D01*
X-19479779Y-7529648D01*
X-19350322Y-7453089D01*
X-19337896Y-7443449D01*
X-19225945Y-7331498D01*
X-19224068Y-7333375D01*
X-19176958Y-7299345D01*
X-19106066Y-7295488D01*
X-19044343Y-7330569D01*
X-19039148Y-7336756D01*
X-19039040Y-7336944D01*
X-18911253Y-7478866D01*
X-18885297Y-7497724D01*
X-18767925Y-7583000D01*
X-18756752Y-7591118D01*
X-18750724Y-7593802D01*
X-18750722Y-7593803D01*
X-18670841Y-7629368D01*
X-18582288Y-7668794D01*
X-18445828Y-7697800D01*
X-18408303Y-7705776D01*
X-18345829Y-7739505D01*
X-18311508Y-7801654D01*
X-18308500Y-7829023D01*
X-18308500Y-9151864D01*
X-18309578Y-9168307D01*
X-18313750Y-9200000D01*
X-18308500Y-9239880D01*
X-18308500Y-9239885D01*
X-18295391Y-9339457D01*
X-18292838Y-9358851D01*
X-18231524Y-9506876D01*
X-18226497Y-9513427D01*
X-18226496Y-9513429D01*
X-18158480Y-9602069D01*
X-18158474Y-9602075D01*
X-18133987Y-9633987D01*
X-18127432Y-9639017D01*
X-18108621Y-9653452D01*
X-18096230Y-9664319D01*
X-16559144Y-11201405D01*
X-16525118Y-11263717D01*
X-16530183Y-11334532D01*
X-16572730Y-11391368D01*
X-16639250Y-11416179D01*
X-16648239Y-11416500D01*
X-16916502Y-11416500D01*
X-16918950Y-11416693D01*
X-16918958Y-11416693D01*
X-16947421Y-11418933D01*
X-16947426Y-11418934D01*
X-16953831Y-11419438D01*
X-17013812Y-11436864D01*
X-17105988Y-11463643D01*
X-17105990Y-11463644D01*
X-17113601Y-11465855D01*
X-17136351Y-11479310D01*
X-17205165Y-11496770D01*
X-17264630Y-11479311D01*
X-17279779Y-11470352D01*
X-17294210Y-11464107D01*
X-17428605Y-11425061D01*
X-17442706Y-11425101D01*
X-17446000Y-11432370D01*
X-17446000Y-11757430D01*
X-17456115Y-11806275D01*
X-17459145Y-11811399D01*
X-17461355Y-11819007D01*
X-17461357Y-11819011D01*
X-17479825Y-11882580D01*
X-17505562Y-11971169D01*
X-17506066Y-11977574D01*
X-17506067Y-11977579D01*
X-17508307Y-12006042D01*
X-17508500Y-12008498D01*
X-17508500Y-13391502D01*
X-17508307Y-13393950D01*
X-17508307Y-13393958D01*
X-17506073Y-13422336D01*
X-17505562Y-13428831D01*
X-17503767Y-13435008D01*
X-17461357Y-13580989D01*
X-17461355Y-13580993D01*
X-17459145Y-13588601D01*
X-17456115Y-13593725D01*
X-17446000Y-13642570D01*
X-17446000Y-13961878D01*
X-17442027Y-13975409D01*
X-17434129Y-13976544D01*
X-17294210Y-13935893D01*
X-17279779Y-13929648D01*
X-17264630Y-13920689D01*
X-17195814Y-13903230D01*
X-17136352Y-13920690D01*
X-17113601Y-13934145D01*
X-17105992Y-13936356D01*
X-17105991Y-13936356D01*
X-17021763Y-13960826D01*
X-16967821Y-13992728D01*
X-16789315Y-14171234D01*
X-16778448Y-14183625D01*
X-16758987Y-14208987D01*
X-16752437Y-14214013D01*
X-16727075Y-14233474D01*
X-16727072Y-14233477D01*
X-16683384Y-14267000D01*
X-16631876Y-14306524D01*
X-16483851Y-14367838D01*
X-16475664Y-14368916D01*
X-16475663Y-14368916D01*
X-16464458Y-14370391D01*
X-16433262Y-14374498D01*
X-16364885Y-14383500D01*
X-16364882Y-14383500D01*
X-16364874Y-14383501D01*
X-16333189Y-14387672D01*
X-16325000Y-14388750D01*
X-16293307Y-14384578D01*
X-16276864Y-14383500D01*
X-14123136Y-14383500D01*
X-14106693Y-14384578D01*
X-14075000Y-14388750D01*
X-14066811Y-14387672D01*
X-14035126Y-14383501D01*
X-14035116Y-14383500D01*
X-14035115Y-14383500D01*
X-14035099Y-14383498D01*
X-13935543Y-14370391D01*
X-13924336Y-14368916D01*
X-13924334Y-14368915D01*
X-13916149Y-14367838D01*
X-13768124Y-14306524D01*
X-13716615Y-14267000D01*
X-13672928Y-14233477D01*
X-13672925Y-14233474D01*
X-13647566Y-14214015D01*
X-13641013Y-14208987D01*
X-13630116Y-14194786D01*
X-13621548Y-14183621D01*
X-13610681Y-14171230D01*
X-13234120Y-13794669D01*
X-7857999Y-13794669D01*
X-7857629Y-13801490D01*
X-7852105Y-13852352D01*
X-7848479Y-13867604D01*
X-7803324Y-13988054D01*
X-7794786Y-14003649D01*
X-7718285Y-14105724D01*
X-7705724Y-14118285D01*
X-7603649Y-14194786D01*
X-7588054Y-14203324D01*
X-7467606Y-14248478D01*
X-7452351Y-14252105D01*
X-7401486Y-14257631D01*
X-7394672Y-14258000D01*
X-6872115Y-14258000D01*
X-6856876Y-14253525D01*
X-6855671Y-14252135D01*
X-6854000Y-14244452D01*
X-6854000Y-14239884D01*
X-6346000Y-14239884D01*
X-6341525Y-14255123D01*
X-6340135Y-14256328D01*
X-6332452Y-14257999D01*
X-5805331Y-14257999D01*
X-5798510Y-14257629D01*
X-5747648Y-14252105D01*
X-5732396Y-14248479D01*
X-5611946Y-14203324D01*
X-5596351Y-14194786D01*
X-5494276Y-14118285D01*
X-5481715Y-14105724D01*
X-5405214Y-14003649D01*
X-5396676Y-13988054D01*
X-5351522Y-13867606D01*
X-5347895Y-13852351D01*
X-5342369Y-13801486D01*
X-5342000Y-13794672D01*
X-5342000Y-13272115D01*
X-5346475Y-13256876D01*
X-5347865Y-13255671D01*
X-5355548Y-13254000D01*
X-6327885Y-13254000D01*
X-6343124Y-13258475D01*
X-6344329Y-13259865D01*
X-6346000Y-13267548D01*
X-6346000Y-14239884D01*
X-6854000Y-14239884D01*
X-6854000Y-13272115D01*
X-6858475Y-13256876D01*
X-6859865Y-13255671D01*
X-6867548Y-13254000D01*
X-7839884Y-13254000D01*
X-7855123Y-13258475D01*
X-7856328Y-13259865D01*
X-7857999Y-13267548D01*
X-7857999Y-13794669D01*
X-13234120Y-13794669D01*
X-13003766Y-13564315D01*
X-12991375Y-13553448D01*
X-12972563Y-13539013D01*
X-12966013Y-13533987D01*
X-12941526Y-13502075D01*
X-12941520Y-13502069D01*
X-12941514Y-13502061D01*
X-12931472Y-13488975D01*
X-12905575Y-13463747D01*
X-12788747Y-13378866D01*
X-12779678Y-13368794D01*
X-12665379Y-13241852D01*
X-12665378Y-13241851D01*
X-12660960Y-13236944D01*
X-12565473Y-13071556D01*
X-12506458Y-12889928D01*
X-12505128Y-12877279D01*
X-12487186Y-12706565D01*
X-12486496Y-12700000D01*
X-12498755Y-12583365D01*
X-12505768Y-12516635D01*
X-12505768Y-12516633D01*
X-12506458Y-12510072D01*
X-12565473Y-12328444D01*
X-12570664Y-12319452D01*
X-12602686Y-12263990D01*
X-12660960Y-12163056D01*
X-12674930Y-12147540D01*
X-12784325Y-12026045D01*
X-12784326Y-12026044D01*
X-12788747Y-12021134D01*
X-12922422Y-11924013D01*
X-12937906Y-11912763D01*
X-12937907Y-11912762D01*
X-12943248Y-11908882D01*
X-12949276Y-11906198D01*
X-12949278Y-11906197D01*
X-13111681Y-11833891D01*
X-13111682Y-11833891D01*
X-13117712Y-11831206D01*
X-13211112Y-11811353D01*
X-13298056Y-11792872D01*
X-13298061Y-11792872D01*
X-13304513Y-11791500D01*
X-13495487Y-11791500D01*
X-13501939Y-11792872D01*
X-13501944Y-11792872D01*
X-13588888Y-11811353D01*
X-13682288Y-11831206D01*
X-13688315Y-11833889D01*
X-13688323Y-11833892D01*
X-13776489Y-11873146D01*
X-13846856Y-11882580D01*
X-13911153Y-11852473D01*
X-13940781Y-11811654D01*
X-13940855Y-11811399D01*
X-13944888Y-11804579D01*
X-13944890Y-11804575D01*
X-14021509Y-11675020D01*
X-14021511Y-11675017D01*
X-14025547Y-11668193D01*
X-14060071Y-11633669D01*
X-14094097Y-11571357D01*
X-14095898Y-11561021D01*
X-14105051Y-11491501D01*
X-14105051Y-11491500D01*
X-14105969Y-11484526D01*
X-14107162Y-11475463D01*
X-14123150Y-11436864D01*
X-14165316Y-11335066D01*
X-14165317Y-11335064D01*
X-14168476Y-11327438D01*
X-14241523Y-11232243D01*
X-14241524Y-11232241D01*
X-14260983Y-11206881D01*
X-14260987Y-11206877D01*
X-14266013Y-11200327D01*
X-14272563Y-11195301D01*
X-14272566Y-11195298D01*
X-14291380Y-11180862D01*
X-14303771Y-11169995D01*
X-14305401Y-11168365D01*
X-12383500Y-11168365D01*
X-12383499Y-11681634D01*
X-12383236Y-11684492D01*
X-12383236Y-11684501D01*
X-12380227Y-11717251D01*
X-12376753Y-11755062D01*
X-12374754Y-11761440D01*
X-12374754Y-11761441D01*
X-12328548Y-11908882D01*
X-12325472Y-11918699D01*
X-12236639Y-12065381D01*
X-12115381Y-12186639D01*
X-12058609Y-12221021D01*
X-12010704Y-12273416D01*
X-11998958Y-12312358D01*
X-11998025Y-12319448D01*
X-11997639Y-12349051D01*
X-12011728Y-12483102D01*
X-12013504Y-12500000D01*
X-12012814Y-12506565D01*
X-11995823Y-12668222D01*
X-11993542Y-12689928D01*
X-11934527Y-12871556D01*
X-11931224Y-12877278D01*
X-11931223Y-12877279D01*
X-11915055Y-12905283D01*
X-11839040Y-13036944D01*
X-11834622Y-13041851D01*
X-11834621Y-13041852D01*
X-11753791Y-13131623D01*
X-11711253Y-13178866D01*
X-11556752Y-13291118D01*
X-11550724Y-13293802D01*
X-11550722Y-13293803D01*
X-11434821Y-13345405D01*
X-11382288Y-13368794D01*
X-11288887Y-13388647D01*
X-11201944Y-13407128D01*
X-11201939Y-13407128D01*
X-11195487Y-13408500D01*
X-11004513Y-13408500D01*
X-10998061Y-13407128D01*
X-10998056Y-13407128D01*
X-10911113Y-13388647D01*
X-10817712Y-13368794D01*
X-10765179Y-13345405D01*
X-10649278Y-13293803D01*
X-10649276Y-13293802D01*
X-10643248Y-13291118D01*
X-10488747Y-13178866D01*
X-10446209Y-13131623D01*
X-10365379Y-13041852D01*
X-10365378Y-13041851D01*
X-10360960Y-13036944D01*
X-10284945Y-12905283D01*
X-10268777Y-12877279D01*
X-10268776Y-12877278D01*
X-10265473Y-12871556D01*
X-10206458Y-12689928D01*
X-10204176Y-12668222D01*
X-10187186Y-12506565D01*
X-10186496Y-12500000D01*
X-10187892Y-12486718D01*
X-10193650Y-12431926D01*
X-10180877Y-12362088D01*
X-10163565Y-12336245D01*
X-10155671Y-12327135D01*
X-10154000Y-12319452D01*
X-10154000Y-12314885D01*
X-9646000Y-12314885D01*
X-9641525Y-12330124D01*
X-9640135Y-12331329D01*
X-9632452Y-12333000D01*
X-9604562Y-12333000D01*
X-9598047Y-12332663D01*
X-9505943Y-12323106D01*
X-9492544Y-12320212D01*
X-9343893Y-12270619D01*
X-9330714Y-12264445D01*
X-9225780Y-12199510D01*
X-9157328Y-12180672D01*
X-9094205Y-12198878D01*
X-8974988Y-12271079D01*
X-8961243Y-12277285D01*
X-8811356Y-12324256D01*
X-8798306Y-12326869D01*
X-8734479Y-12332734D01*
X-8728691Y-12333000D01*
X-8672115Y-12333000D01*
X-8656876Y-12328525D01*
X-8655671Y-12327135D01*
X-8654000Y-12319452D01*
X-8654000Y-12314884D01*
X-8146000Y-12314884D01*
X-8141525Y-12330123D01*
X-8140135Y-12331328D01*
X-8132452Y-12332999D01*
X-8071295Y-12332999D01*
X-8065544Y-12332736D01*
X-7995527Y-12326303D01*
X-7925862Y-12339989D01*
X-7874656Y-12389167D01*
X-7858000Y-12451775D01*
X-7858000Y-12727885D01*
X-7853525Y-12743124D01*
X-7852135Y-12744329D01*
X-7844452Y-12746000D01*
X-6872115Y-12746000D01*
X-6856876Y-12741525D01*
X-6855671Y-12740135D01*
X-6854000Y-12732452D01*
X-6854000Y-12727885D01*
X-6346000Y-12727885D01*
X-6341525Y-12743124D01*
X-6340135Y-12744329D01*
X-6332452Y-12746000D01*
X-5360116Y-12746000D01*
X-5344877Y-12741525D01*
X-5343672Y-12740135D01*
X-5342001Y-12732452D01*
X-5342001Y-12205331D01*
X-5342371Y-12198510D01*
X-5347895Y-12147648D01*
X-5351521Y-12132396D01*
X-5396676Y-12011946D01*
X-5405214Y-11996351D01*
X-5481715Y-11894276D01*
X-5494276Y-11881715D01*
X-5596351Y-11805214D01*
X-5611946Y-11796676D01*
X-5732394Y-11751522D01*
X-5747649Y-11747895D01*
X-5798514Y-11742369D01*
X-5805328Y-11742000D01*
X-6327885Y-11742000D01*
X-6343124Y-11746475D01*
X-6344329Y-11747865D01*
X-6346000Y-11755548D01*
X-6346000Y-12727885D01*
X-6854000Y-12727885D01*
X-6854000Y-11760116D01*
X-6858475Y-11744877D01*
X-6859865Y-11743672D01*
X-6867548Y-11742001D01*
X-7309498Y-11742001D01*
X-7377619Y-11721999D01*
X-7392453Y-11704880D01*
X-7393514Y-11706104D01*
X-7422865Y-11680671D01*
X-7430548Y-11679000D01*
X-8127885Y-11679000D01*
X-8143124Y-11683475D01*
X-8144329Y-11684865D01*
X-8146000Y-11692548D01*
X-8146000Y-12314884D01*
X-8654000Y-12314884D01*
X-8654000Y-11697115D01*
X-8658475Y-11681876D01*
X-8659865Y-11680671D01*
X-8667548Y-11679000D01*
X-9326095Y-11679000D01*
X-9394216Y-11658998D01*
X-9408607Y-11648225D01*
X-9428865Y-11630671D01*
X-9436548Y-11629000D01*
X-9627885Y-11629000D01*
X-9643124Y-11633475D01*
X-9644329Y-11634865D01*
X-9646000Y-11642548D01*
X-9646000Y-12314885D01*
X-10154000Y-12314885D01*
X-10154000Y-11247000D01*
X-10133998Y-11178879D01*
X-10080342Y-11132386D01*
X-10028000Y-11121000D01*
X-8973905Y-11121000D01*
X-8905784Y-11141002D01*
X-8891393Y-11151775D01*
X-8871135Y-11169329D01*
X-8863452Y-11171000D01*
X-7435116Y-11171000D01*
X-7419877Y-11166525D01*
X-7418672Y-11165135D01*
X-7417709Y-11160706D01*
X-7423132Y-11101685D01*
X-7425743Y-11088649D01*
X-7472715Y-10938757D01*
X-7478921Y-10925012D01*
X-7559824Y-10791426D01*
X-7569131Y-10779557D01*
X-7659239Y-10689449D01*
X-7693265Y-10627137D01*
X-7688200Y-10556322D01*
X-7659239Y-10511259D01*
X-7563361Y-10415381D01*
X-7562230Y-10416512D01*
X-7511677Y-10380408D01*
X-7486748Y-10374499D01*
X-7455545Y-10370391D01*
X-7455544Y-10370391D01*
X-7444339Y-10368916D01*
X-7444338Y-10368916D01*
X-7436151Y-10367838D01*
X-7288126Y-10306524D01*
X-7192930Y-10233477D01*
X-7192927Y-10233474D01*
X-7161015Y-10208987D01*
X-7155985Y-10202432D01*
X-7141550Y-10183621D01*
X-7130683Y-10171230D01*
X-6494858Y-9535405D01*
X-6432546Y-9501379D01*
X-6405763Y-9498500D01*
X-2000710Y-9498500D01*
X-1932589Y-9518502D01*
X-1907074Y-9540189D01*
X-1886810Y-9562694D01*
X-1881253Y-9568866D01*
X-1859671Y-9584546D01*
X-1757917Y-9658475D01*
X-1726752Y-9681118D01*
X-1720724Y-9683802D01*
X-1720722Y-9683803D01*
X-1558319Y-9756109D01*
X-1552288Y-9758794D01*
X-1458887Y-9778647D01*
X-1371944Y-9797128D01*
X-1371939Y-9797128D01*
X-1365487Y-9798500D01*
X-1174513Y-9798500D01*
X-1168061Y-9797128D01*
X-1168056Y-9797128D01*
X-1081112Y-9778647D01*
X-987712Y-9758794D01*
X-981681Y-9756109D01*
X-819278Y-9683803D01*
X-819276Y-9683802D01*
X-813248Y-9681118D01*
X-658747Y-9568866D01*
X-629136Y-9535980D01*
X-535379Y-9431852D01*
X-535378Y-9431851D01*
X-530960Y-9426944D01*
X-435473Y-9261556D01*
X-376458Y-9079928D01*
X-370290Y-9021248D01*
X-357186Y-8896565D01*
X-356496Y-8890000D01*
X-358321Y-8872635D01*
X-375768Y-8706635D01*
X-375768Y-8706633D01*
X-376458Y-8700072D01*
X-435473Y-8518444D01*
X-449718Y-8493770D01*
X-527659Y-8358774D01*
X-530960Y-8353056D01*
X-561764Y-8318844D01*
X-654325Y-8216045D01*
X-654326Y-8216044D01*
X-658747Y-8211134D01*
X-757843Y-8139136D01*
X-807906Y-8102763D01*
X-807907Y-8102762D01*
X-813248Y-8098882D01*
X-819276Y-8096198D01*
X-819278Y-8096197D01*
X-981681Y-8023891D01*
X-981682Y-8023891D01*
X-987712Y-8021206D01*
X-1081113Y-8001353D01*
X-1168056Y-7982872D01*
X-1168061Y-7982872D01*
X-1174513Y-7981500D01*
X-1365487Y-7981500D01*
X-1371939Y-7982872D01*
X-1371944Y-7982872D01*
X-1458887Y-8001353D01*
X-1552288Y-8021206D01*
X-1558318Y-8023891D01*
X-1558319Y-8023891D01*
X-1720722Y-8096197D01*
X-1720724Y-8096198D01*
X-1726752Y-8098882D01*
X-1732093Y-8102762D01*
X-1732094Y-8102763D01*
X-1825685Y-8170761D01*
X-1881253Y-8211134D01*
X-1885666Y-8216036D01*
X-1885668Y-8216037D01*
X-1907074Y-8239811D01*
X-1967520Y-8277050D01*
X-2000710Y-8281500D01*
X-6661866Y-8281500D01*
X-6678309Y-8280422D01*
X-6710002Y-8276250D01*
X-6718191Y-8277328D01*
X-6749876Y-8281499D01*
X-6749885Y-8281500D01*
X-6749887Y-8281500D01*
X-6749893Y-8281501D01*
X-6749895Y-8281501D01*
X-6849459Y-8294609D01*
X-6860666Y-8296084D01*
X-6860668Y-8296085D01*
X-6868853Y-8297162D01*
X-7016878Y-8358476D01*
X-7112074Y-8431523D01*
X-7112077Y-8431526D01*
X-7143989Y-8456013D01*
X-7149019Y-8462568D01*
X-7163454Y-8481379D01*
X-7174321Y-8493770D01*
X-7620547Y-8939996D01*
X-7682859Y-8974022D01*
X-7753674Y-8968957D01*
X-7774912Y-8958678D01*
X-7789809Y-8949657D01*
X-7831301Y-8924528D01*
X-7838548Y-8922257D01*
X-7838550Y-8922256D01*
X-7920531Y-8896565D01*
X-7994938Y-8873247D01*
X-8068365Y-8866500D01*
X-8071263Y-8866500D01*
X-8400860Y-8866501D01*
X-8731634Y-8866501D01*
X-8734492Y-8866764D01*
X-8734501Y-8866764D01*
X-8770004Y-8870026D01*
X-8805062Y-8873247D01*
X-8811440Y-8875246D01*
X-8811441Y-8875246D01*
X-8961450Y-8922256D01*
X-8961452Y-8922257D01*
X-8968699Y-8924528D01*
X-8975195Y-8928462D01*
X-8975197Y-8928463D01*
X-9094127Y-9000489D01*
X-9162757Y-9018668D01*
X-9225514Y-8999973D01*
X-9331669Y-8934538D01*
X-9331671Y-8934537D01*
X-9337899Y-8930698D01*
X-9500243Y-8876851D01*
X-9507080Y-8876151D01*
X-9507082Y-8876150D01*
X-9548401Y-8871917D01*
X-9601268Y-8866500D01*
X-10198732Y-8866500D01*
X-10201978Y-8866837D01*
X-10201982Y-8866837D01*
X-10236083Y-8870375D01*
X-10301019Y-8877113D01*
X-10307560Y-8879295D01*
X-10307559Y-8879295D01*
X-10456324Y-8928927D01*
X-10456326Y-8928928D01*
X-10463268Y-8931244D01*
X-10574224Y-8999906D01*
X-10642674Y-9018742D01*
X-10705796Y-9000536D01*
X-10831301Y-8924528D01*
X-10838548Y-8922257D01*
X-10838550Y-8922256D01*
X-10920531Y-8896565D01*
X-10994938Y-8873247D01*
X-11068365Y-8866500D01*
X-11071263Y-8866500D01*
X-11400860Y-8866501D01*
X-11731634Y-8866501D01*
X-11734492Y-8866764D01*
X-11734501Y-8866764D01*
X-11770004Y-8870026D01*
X-11805062Y-8873247D01*
X-11811440Y-8875246D01*
X-11811441Y-8875246D01*
X-11961450Y-8922256D01*
X-11961452Y-8922257D01*
X-11968699Y-8924528D01*
X-12115381Y-9013361D01*
X-12236639Y-9134619D01*
X-12325472Y-9281301D01*
X-12327743Y-9288548D01*
X-12327744Y-9288550D01*
X-12343697Y-9339457D01*
X-12376753Y-9444938D01*
X-12383500Y-9518365D01*
X-12383499Y-10031634D01*
X-12376753Y-10105062D01*
X-12325472Y-10268699D01*
X-12236639Y-10415381D01*
X-12141115Y-10510905D01*
X-12107089Y-10573217D01*
X-12112154Y-10644032D01*
X-12141115Y-10689095D01*
X-12236639Y-10784619D01*
X-12325472Y-10931301D01*
X-12327743Y-10938548D01*
X-12327744Y-10938550D01*
X-12344203Y-10991071D01*
X-12376753Y-11094938D01*
X-12383500Y-11168365D01*
X-14305401Y-11168365D01*
X-15365085Y-10108680D01*
X-16654595Y-8819170D01*
X-16688621Y-8756858D01*
X-16691500Y-8730075D01*
X-16691500Y-7084500D01*
X-16671498Y-7016379D01*
X-16617842Y-6969886D01*
X-16565500Y-6958500D01*
X-15583498Y-6958500D01*
X-15581050Y-6958307D01*
X-15581042Y-6958307D01*
X-15552579Y-6956067D01*
X-15552574Y-6956066D01*
X-15546169Y-6955562D01*
X-15446231Y-6926528D01*
X-15394012Y-6911357D01*
X-15394010Y-6911356D01*
X-15386399Y-6909145D01*
X-15326744Y-6873865D01*
X-15250020Y-6828491D01*
X-15250017Y-6828489D01*
X-15243193Y-6824453D01*
X-15125547Y-6706807D01*
X-15095977Y-6656808D01*
X-15064231Y-6620988D01*
X-15047939Y-6608486D01*
X-15047923Y-6608473D01*
X-15016013Y-6583987D01*
X-15010983Y-6577432D01*
X-14996548Y-6558621D01*
X-14985681Y-6546230D01*
X-14884856Y-6445405D01*
X-14822544Y-6411379D01*
X-14795761Y-6408500D01*
X-13339500Y-6408500D01*
X-13271379Y-6428502D01*
X-13224886Y-6482158D01*
X-13213500Y-6534500D01*
X-13213500Y-7866502D01*
X-13213307Y-7868950D01*
X-13213307Y-7868958D01*
X-13211073Y-7897333D01*
X-13210562Y-7903831D01*
X-13196235Y-7953146D01*
X-13166414Y-8055790D01*
X-13164145Y-8063601D01*
X-13160108Y-8070427D01*
X-13083491Y-8199980D01*
X-13083489Y-8199983D01*
X-13079453Y-8206807D01*
X-12961807Y-8324453D01*
X-12954984Y-8328488D01*
X-12954980Y-8328491D01*
X-12903774Y-8358774D01*
X-12818601Y-8409145D01*
X-12810990Y-8411356D01*
X-12810988Y-8411357D01*
X-12758769Y-8426528D01*
X-12658831Y-8455562D01*
X-12652426Y-8456066D01*
X-12652421Y-8456067D01*
X-12623958Y-8458307D01*
X-12623950Y-8458307D01*
X-12621502Y-8458500D01*
X-12188498Y-8458500D01*
X-12186050Y-8458307D01*
X-12186042Y-8458307D01*
X-12157579Y-8456067D01*
X-12157574Y-8456066D01*
X-12151169Y-8455562D01*
X-12051231Y-8426528D01*
X-11999012Y-8411357D01*
X-11999010Y-8411356D01*
X-11991399Y-8409145D01*
X-11848193Y-8324453D01*
X-11845511Y-8321771D01*
X-11781139Y-8296498D01*
X-11711516Y-8310400D01*
X-11695688Y-8320572D01*
X-11691807Y-8324453D01*
X-11548601Y-8409145D01*
X-11540990Y-8411356D01*
X-11540988Y-8411357D01*
X-11488769Y-8426528D01*
X-11388831Y-8455562D01*
X-11382426Y-8456066D01*
X-11382421Y-8456067D01*
X-11353958Y-8458307D01*
X-11353950Y-8458307D01*
X-11351502Y-8458500D01*
X-10918498Y-8458500D01*
X-10916050Y-8458307D01*
X-10916042Y-8458307D01*
X-10887579Y-8456067D01*
X-10887574Y-8456066D01*
X-10881169Y-8455562D01*
X-10781231Y-8426528D01*
X-10729012Y-8411357D01*
X-10729010Y-8411356D01*
X-10721399Y-8409145D01*
X-10578193Y-8324453D01*
X-10575511Y-8321771D01*
X-10511139Y-8296498D01*
X-10441516Y-8310400D01*
X-10425688Y-8320572D01*
X-10421807Y-8324453D01*
X-10278601Y-8409145D01*
X-10270990Y-8411356D01*
X-10270988Y-8411357D01*
X-10218769Y-8426528D01*
X-10118831Y-8455562D01*
X-10112426Y-8456066D01*
X-10112421Y-8456067D01*
X-10083958Y-8458307D01*
X-10083950Y-8458307D01*
X-10081502Y-8458500D01*
X-9648498Y-8458500D01*
X-9646050Y-8458307D01*
X-9646042Y-8458307D01*
X-9617579Y-8456067D01*
X-9617574Y-8456066D01*
X-9611169Y-8455562D01*
X-9511231Y-8426528D01*
X-9459012Y-8411357D01*
X-9459010Y-8411356D01*
X-9451399Y-8409145D01*
X-9308193Y-8324453D01*
X-9305253Y-8321513D01*
X-9240729Y-8296179D01*
X-9171106Y-8310080D01*
X-9152360Y-8322129D01*
X-9144677Y-8328089D01*
X-9015221Y-8404648D01*
X-9000790Y-8410893D01*
X-8866395Y-8449939D01*
X-8852294Y-8449899D01*
X-8849000Y-8442630D01*
X-8849000Y-8436878D01*
X-8341000Y-8436878D01*
X-8337027Y-8450409D01*
X-8329129Y-8451544D01*
X-8189210Y-8410893D01*
X-8174779Y-8404648D01*
X-8045322Y-8328089D01*
X-8032896Y-8318449D01*
X-7926551Y-8212104D01*
X-7916911Y-8199678D01*
X-7840352Y-8070221D01*
X-7834107Y-8055790D01*
X-7791731Y-7909935D01*
X-7789430Y-7897333D01*
X-7787193Y-7868916D01*
X-7787000Y-7863986D01*
X-7787000Y-7247115D01*
X-7791475Y-7231876D01*
X-7792865Y-7230671D01*
X-7800548Y-7229000D01*
X-8322885Y-7229000D01*
X-8338124Y-7233475D01*
X-8339329Y-7234865D01*
X-8341000Y-7242548D01*
X-8341000Y-8436878D01*
X-8849000Y-8436878D01*
X-8849000Y-6702885D01*
X-8341000Y-6702885D01*
X-8336525Y-6718124D01*
X-8335135Y-6719329D01*
X-8327452Y-6721000D01*
X-7805116Y-6721000D01*
X-7789877Y-6716525D01*
X-7788672Y-6715135D01*
X-7787001Y-6707452D01*
X-7787001Y-6086017D01*
X-7787195Y-6081080D01*
X-7789430Y-6052664D01*
X-7791730Y-6040069D01*
X-7834107Y-5894210D01*
X-7840352Y-5879779D01*
X-7916911Y-5750322D01*
X-7926551Y-5737896D01*
X-8032896Y-5631551D01*
X-8045322Y-5621911D01*
X-8174779Y-5545352D01*
X-8189210Y-5539107D01*
X-8323605Y-5500061D01*
X-8337706Y-5500101D01*
X-8341000Y-5507370D01*
X-8341000Y-6702885D01*
X-8849000Y-6702885D01*
X-8849000Y-5513122D01*
X-8852973Y-5499591D01*
X-8860871Y-5498456D01*
X-9000790Y-5539107D01*
X-9015221Y-5545352D01*
X-9140142Y-5619229D01*
X-9208959Y-5636688D01*
X-9276290Y-5614171D01*
X-9320699Y-5558970D01*
X-9321448Y-5557162D01*
X-9330316Y-5535754D01*
X-9333476Y-5528124D01*
X-9343634Y-5514885D01*
X-9401851Y-5439017D01*
X-9406523Y-5432928D01*
X-9406526Y-5432925D01*
X-9431013Y-5401013D01*
X-9437568Y-5395983D01*
X-9456379Y-5381548D01*
X-9468770Y-5370681D01*
X-9635685Y-5203766D01*
X-9646552Y-5191375D01*
X-9660987Y-5172563D01*
X-9666013Y-5166013D01*
X-9697925Y-5141526D01*
X-9697928Y-5141523D01*
X-9725426Y-5120423D01*
X-9786571Y-5073504D01*
X-9786573Y-5073503D01*
X-9793124Y-5068476D01*
X-9941149Y-5007162D01*
X-9949336Y-5006084D01*
X-9949337Y-5006084D01*
X-9960542Y-5004609D01*
X-9995552Y-5000000D01*
X-10060115Y-4991500D01*
X-10060118Y-4991500D01*
X-10060126Y-4991499D01*
X-10091811Y-4987328D01*
X-10100000Y-4986250D01*
X-10131693Y-4990422D01*
X-10148136Y-4991500D01*
X-11195761Y-4991500D01*
X-11263882Y-4971498D01*
X-11284856Y-4954595D01*
X-11635685Y-4603766D01*
X-11646552Y-4591375D01*
X-11660987Y-4572563D01*
X-11666013Y-4566013D01*
X-11697925Y-4541526D01*
X-11697928Y-4541523D01*
X-11719070Y-4525300D01*
X-11786571Y-4473504D01*
X-11786573Y-4473503D01*
X-11793124Y-4468476D01*
X-11941149Y-4407162D01*
X-11949336Y-4406084D01*
X-11949337Y-4406084D01*
X-11960542Y-4404609D01*
X-11991738Y-4400502D01*
X-12060115Y-4391500D01*
X-12060118Y-4391500D01*
X-12060126Y-4391499D01*
X-12091811Y-4387328D01*
X-12100000Y-4386250D01*
X-12131693Y-4390422D01*
X-12148136Y-4391500D01*
X-12495761Y-4391500D01*
X-12563882Y-4371498D01*
X-12584856Y-4354595D01*
X-12735685Y-4203766D01*
X-12746552Y-4191375D01*
X-12760987Y-4172563D01*
X-12766013Y-4166013D01*
X-12797925Y-4141526D01*
X-12797928Y-4141523D01*
X-12879415Y-4078995D01*
X-12886571Y-4073504D01*
X-12886573Y-4073503D01*
X-12893124Y-4068476D01*
X-13041149Y-4007162D01*
X-13049336Y-4006084D01*
X-13049337Y-4006084D01*
X-13060542Y-4004609D01*
X-13091738Y-4000502D01*
X-13160115Y-3991500D01*
X-13160118Y-3991500D01*
X-13160126Y-3991499D01*
X-13191811Y-3987328D01*
X-13200000Y-3986250D01*
X-13231693Y-3990422D01*
X-13248136Y-3991500D01*
X-14295761Y-3991500D01*
X-14363882Y-3971498D01*
X-14384856Y-3954595D01*
X-14485685Y-3853766D01*
X-14496552Y-3841375D01*
X-14510987Y-3822563D01*
X-14516013Y-3816013D01*
X-14547925Y-3791526D01*
X-14547928Y-3791523D01*
X-14616360Y-3739013D01*
X-14636571Y-3723504D01*
X-14636573Y-3723503D01*
X-14643124Y-3718476D01*
X-14791149Y-3657162D01*
X-14799336Y-3656084D01*
X-14799337Y-3656084D01*
X-14810542Y-3654609D01*
X-14843106Y-3650322D01*
X-14910115Y-3641500D01*
X-14910118Y-3641500D01*
X-14910126Y-3641499D01*
X-14941811Y-3637328D01*
X-14950000Y-3636250D01*
X-14981693Y-3640422D01*
X-14998136Y-3641500D01*
X-15125050Y-3641500D01*
X-15193171Y-3621498D01*
X-15214145Y-3604595D01*
X-15243193Y-3575547D01*
X-15250017Y-3571511D01*
X-15250020Y-3571509D01*
X-15379573Y-3494892D01*
X-15379572Y-3494892D01*
X-15386399Y-3490855D01*
X-15394010Y-3488644D01*
X-15394012Y-3488643D01*
X-15516378Y-3453093D01*
X-15576213Y-3414880D01*
X-15605891Y-3350384D01*
X-15595988Y-3280082D01*
X-15570320Y-3243001D01*
X-14461089Y-2133770D01*
X-14446677Y-2121384D01*
X-14435082Y-2112851D01*
X-14435077Y-2112846D01*
X-14429182Y-2108508D01*
X-14424443Y-2102930D01*
X-14424440Y-2102927D01*
X-14394965Y-2068232D01*
X-14388035Y-2060716D01*
X-14382340Y-2055021D01*
X-14364719Y-2032749D01*
X-14361928Y-2029345D01*
X-14319409Y-1979297D01*
X-14319408Y-1979295D01*
X-14314667Y-1973715D01*
X-14311339Y-1967199D01*
X-14307972Y-1962150D01*
X-14304805Y-1957021D01*
X-14300266Y-1951284D01*
X-14269345Y-1885125D01*
X-14267439Y-1881225D01*
X-14250847Y-1848732D01*
X-14234231Y-1816192D01*
X-14232492Y-1809084D01*
X-14230393Y-1803441D01*
X-14228476Y-1797678D01*
X-14225378Y-1791050D01*
X-14210513Y-1719583D01*
X-14209543Y-1715299D01*
X-14197483Y-1666013D01*
X-14192192Y-1644390D01*
X-14191714Y-1636695D01*
X-14191500Y-1633236D01*
X-14191464Y-1633238D01*
X-14191225Y-1629245D01*
X-14190851Y-1625053D01*
X-14189360Y-1617885D01*
X-14191454Y-1540479D01*
X-14191500Y-1537072D01*
X-14191500Y5822165D01*
X-14191258Y5829967D01*
X-14187453Y5891298D01*
X-14185183Y5891157D01*
X-14171418Y5949531D01*
X-14150992Y5976327D01*
X-14011089Y6116230D01*
X-13996677Y6128616D01*
X-13985082Y6137149D01*
X-13985077Y6137154D01*
X-13979182Y6141492D01*
X-13974443Y6147070D01*
X-13974440Y6147073D01*
X-13944965Y6181768D01*
X-13938035Y6189284D01*
X-13932340Y6194979D01*
X-13914719Y6217251D01*
X-13911928Y6220655D01*
X-13869409Y6270703D01*
X-13869408Y6270705D01*
X-13864667Y6276285D01*
X-13861339Y6282801D01*
X-13857972Y6287850D01*
X-13854805Y6292979D01*
X-13850266Y6298716D01*
X-13819345Y6364875D01*
X-13817439Y6368775D01*
X-13816037Y6371520D01*
X-13784231Y6433808D01*
X-13782492Y6440916D01*
X-13780393Y6446559D01*
X-13778476Y6452322D01*
X-13775378Y6458950D01*
X-13760513Y6530417D01*
X-13759543Y6534701D01*
X-13752848Y6562063D01*
X-13742192Y6605610D01*
X-13741500Y6616764D01*
X-13741464Y6616762D01*
X-13741225Y6620755D01*
X-13740851Y6624947D01*
X-13739360Y6632115D01*
X-13741454Y6709521D01*
X-13741500Y6712928D01*
X-13741500Y7071457D01*
X-13722760Y7137573D01*
X-13686725Y7196032D01*
X-13686724Y7196034D01*
X-13682885Y7202262D01*
X-13639024Y7334500D01*
X-13629368Y7363611D01*
X-13629368Y7363613D01*
X-13627203Y7370139D01*
X-13624343Y7398047D01*
X-13621059Y7430108D01*
X-13616500Y7474600D01*
X-13616500Y8325400D01*
X-13618710Y8346705D01*
X-13627474Y8431166D01*
X-13624969Y8431426D01*
X-13620626Y8490718D01*
X-13591741Y8535578D01*
X-13186089Y8941230D01*
X-13171677Y8953616D01*
X-13160082Y8962149D01*
X-13160077Y8962154D01*
X-13154182Y8966492D01*
X-13149443Y8972070D01*
X-13149440Y8972073D01*
X-13119965Y9006768D01*
X-13113035Y9014284D01*
X-13107340Y9019979D01*
X-13089719Y9042251D01*
X-13086928Y9045655D01*
X-13044409Y9095703D01*
X-13044408Y9095705D01*
X-13039667Y9101285D01*
X-13036339Y9107801D01*
X-13032972Y9112850D01*
X-13029805Y9117979D01*
X-13025266Y9123716D01*
X-12994345Y9189875D01*
X-12992439Y9193775D01*
X-12988168Y9202139D01*
X-12959231Y9258808D01*
X-12957492Y9265916D01*
X-12955393Y9271559D01*
X-12953476Y9277322D01*
X-12950378Y9283950D01*
X-12948634Y9292332D01*
X-12935514Y9355412D01*
X-12934543Y9359701D01*
X-12931172Y9373478D01*
X-12917192Y9430610D01*
X-12916500Y9441764D01*
X-12916464Y9441762D01*
X-12916225Y9445755D01*
X-12915851Y9449947D01*
X-12914360Y9457115D01*
X-12916454Y9534521D01*
X-12916500Y9537928D01*
X-12916500Y12477255D01*
X-12896498Y12545376D01*
X-12842842Y12591869D01*
X-12772568Y12601973D01*
X-12765392Y12600728D01*
X-12621403Y12571433D01*
X-12616228Y12571243D01*
X-12616226Y12571243D01*
X-12403327Y12563436D01*
X-12403323Y12563436D01*
X-12398163Y12563247D01*
X-12393043Y12563903D01*
X-12393041Y12563903D01*
X-12319305Y12573349D01*
X-12176584Y12591632D01*
X-12171630Y12593118D01*
X-12171622Y12593120D01*
X-12102977Y12613715D01*
X-12031982Y12614133D01*
X-11977674Y12582125D01*
G37*
G04 #@! TD.AperFunction*
G04 #@! TA.AperFunction,Conductor*
G36*
X-15447894Y-5047838D02*
G01*
X-15388277Y-5086391D01*
X-15358968Y-5151056D01*
X-15369272Y-5221301D01*
X-15407031Y-5268595D01*
X-15471249Y-5317871D01*
X-15537466Y-5343471D01*
X-15557839Y-5343519D01*
X-15581021Y-5341694D01*
X-15581045Y-5341693D01*
X-15583498Y-5341500D01*
X-16133261Y-5341500D01*
X-16201382Y-5321498D01*
X-16222356Y-5304595D01*
X-16235148Y-5291803D01*
X-16269174Y-5229491D01*
X-16264109Y-5158676D01*
X-16231077Y-5113990D01*
X-16233059Y-5112008D01*
X-16227223Y-5106172D01*
X-16220670Y-5101144D01*
X-16216128Y-5095225D01*
X-16154139Y-5061379D01*
X-16127359Y-5058500D01*
X-15583498Y-5058500D01*
X-15581050Y-5058307D01*
X-15581042Y-5058307D01*
X-15552579Y-5056067D01*
X-15552574Y-5056066D01*
X-15546169Y-5055562D01*
X-15539993Y-5053768D01*
X-15539989Y-5053767D01*
X-15518891Y-5047637D01*
X-15447894Y-5047838D01*
G37*
G04 #@! TD.AperFunction*
G04 #@! TA.AperFunction,Conductor*
G36*
X9111358Y4046498D02*
G01*
X9157851Y3992842D01*
X9167955Y3922568D01*
X9150497Y3874384D01*
X9084996Y3768120D01*
X9078849Y3754939D01*
X9029509Y3606186D01*
X9026642Y3592810D01*
X9017328Y3501903D01*
X9017071Y3496874D01*
X9021475Y3481876D01*
X9022865Y3480671D01*
X9030548Y3479000D01*
X10128000Y3479000D01*
X10196121Y3458998D01*
X10242614Y3405342D01*
X10254000Y3353000D01*
X10254000Y2285115D01*
X10258475Y2269876D01*
X10259865Y2268671D01*
X10267548Y2267000D01*
X10295438Y2267000D01*
X10301953Y2267337D01*
X10394057Y2276894D01*
X10407456Y2279788D01*
X10556107Y2329381D01*
X10569286Y2335555D01*
X10702173Y2417788D01*
X10713574Y2426824D01*
X10823986Y2537429D01*
X10832998Y2548840D01*
X10915275Y2682319D01*
X10968047Y2729812D01*
X11038118Y2741236D01*
X11103242Y2712962D01*
X11138944Y2664422D01*
X11168476Y2593124D01*
X11173503Y2586573D01*
X11173504Y2586571D01*
X11241520Y2497931D01*
X11241526Y2497925D01*
X11266013Y2466013D01*
X11272568Y2460983D01*
X11291379Y2446548D01*
X11303770Y2435681D01*
X11649595Y2089856D01*
X11683621Y2027544D01*
X11686500Y2000761D01*
X11686500Y1424950D01*
X11666498Y1356829D01*
X11649595Y1335855D01*
X11620547Y1306807D01*
X11616511Y1299983D01*
X11616509Y1299980D01*
X11598684Y1269839D01*
X11535855Y1163601D01*
X11489438Y1003831D01*
X11488934Y997426D01*
X11488933Y997421D01*
X11486693Y968958D01*
X11486500Y966502D01*
X11486500Y484965D01*
X11466498Y416844D01*
X11412842Y370351D01*
X11342568Y360247D01*
X11277988Y389741D01*
X11240976Y445089D01*
X11220619Y506107D01*
X11214445Y519286D01*
X11132212Y652173D01*
X11123176Y663574D01*
X11012571Y773986D01*
X11001160Y782998D01*
X10868120Y865004D01*
X10854939Y871151D01*
X10706186Y920491D01*
X10692810Y923358D01*
X10601903Y932672D01*
X10595486Y933000D01*
X10572115Y933000D01*
X10556876Y928525D01*
X10555671Y927135D01*
X10554000Y919452D01*
X10554000Y-153000D01*
X10533998Y-221121D01*
X10480342Y-267614D01*
X10428000Y-279000D01*
X10172000Y-279000D01*
X10103879Y-258998D01*
X10057386Y-205342D01*
X10046000Y-153000D01*
X10046000Y914885D01*
X10041525Y930124D01*
X10040135Y931329D01*
X10032452Y933000D01*
X10004562Y933000D01*
X9998047Y932663D01*
X9905943Y923106D01*
X9892544Y920212D01*
X9743893Y870619D01*
X9730714Y864445D01*
X9597827Y782212D01*
X9586426Y773176D01*
X9476014Y662571D01*
X9467002Y651160D01*
X9384996Y518120D01*
X9378849Y504939D01*
X9329509Y356186D01*
X9326642Y342810D01*
X9317328Y251903D01*
X9317000Y245486D01*
X9317000Y134000D01*
X9296998Y65879D01*
X9243342Y19386D01*
X9191000Y8000D01*
X8872115Y8000D01*
X8856876Y3525D01*
X8855671Y2135D01*
X8854000Y-5548D01*
X8854000Y-1278000D01*
X8833998Y-1346121D01*
X8780342Y-1392614D01*
X8728000Y-1404000D01*
X8472000Y-1404000D01*
X8403879Y-1383998D01*
X8357386Y-1330342D01*
X8346000Y-1278000D01*
X8346000Y-10116D01*
X8341525Y5123D01*
X8340135Y6328D01*
X8332452Y7999D01*
X8005331Y7999D01*
X7998510Y7629D01*
X7947648Y2105D01*
X7932396Y-1521D01*
X7811946Y-46676D01*
X7796351Y-55214D01*
X7775982Y-70480D01*
X7709475Y-95328D01*
X7640093Y-80275D01*
X7624852Y-70480D01*
X7623047Y-69127D01*
X7596705Y-49385D01*
X7460316Y1745D01*
X7398134Y8500D01*
X6201866Y8500D01*
X6139684Y1745D01*
X6003295Y-49385D01*
X5886739Y-136739D01*
X5799385Y-253295D01*
X5748255Y-389684D01*
X5741500Y-451866D01*
X5741500Y-1365500D01*
X5721498Y-1433621D01*
X5667842Y-1480114D01*
X5615500Y-1491500D01*
X3348136Y-1491500D01*
X3331693Y-1490422D01*
X3300000Y-1486250D01*
X3291811Y-1487328D01*
X3260126Y-1491499D01*
X3260117Y-1491500D01*
X3260115Y-1491500D01*
X3260109Y-1491501D01*
X3260107Y-1491501D01*
X3160543Y-1504609D01*
X3149336Y-1506084D01*
X3149334Y-1506085D01*
X3141149Y-1507162D01*
X2993124Y-1568476D01*
X2986573Y-1573503D01*
X2986571Y-1573504D01*
X2940806Y-1608621D01*
X2897928Y-1641523D01*
X2897925Y-1641526D01*
X2866013Y-1666013D01*
X2860983Y-1672568D01*
X2846548Y-1691379D01*
X2835681Y-1703770D01*
X1343766Y-3195685D01*
X1331375Y-3206552D01*
X1306013Y-3226013D01*
X1281526Y-3257925D01*
X1281523Y-3257928D01*
X1281517Y-3257936D01*
X1235970Y-3317294D01*
X1208476Y-3353124D01*
X1205317Y-3360752D01*
X1205314Y-3360756D01*
X1195883Y-3383526D01*
X1151336Y-3438807D01*
X1083972Y-3461229D01*
X1015337Y-3443763D01*
X883601Y-3365855D01*
X875990Y-3363644D01*
X875988Y-3363643D01*
X817224Y-3346571D01*
X723831Y-3319438D01*
X717426Y-3318934D01*
X717421Y-3318933D01*
X688958Y-3316693D01*
X688950Y-3316693D01*
X686502Y-3316500D01*
X253498Y-3316500D01*
X251050Y-3316693D01*
X251042Y-3316693D01*
X222579Y-3318933D01*
X222574Y-3318934D01*
X216169Y-3319438D01*
X122776Y-3346571D01*
X64012Y-3363643D01*
X64010Y-3363644D01*
X56399Y-3365855D01*
X-86807Y-3450547D01*
X-89489Y-3453229D01*
X-153861Y-3478502D01*
X-223484Y-3464600D01*
X-239312Y-3454428D01*
X-243193Y-3450547D01*
X-386399Y-3365855D01*
X-394010Y-3363644D01*
X-394012Y-3363643D01*
X-452776Y-3346571D01*
X-546169Y-3319438D01*
X-552574Y-3318934D01*
X-552579Y-3318933D01*
X-581042Y-3316693D01*
X-581050Y-3316693D01*
X-583498Y-3316500D01*
X-1016502Y-3316500D01*
X-1018950Y-3316693D01*
X-1018958Y-3316693D01*
X-1047421Y-3318933D01*
X-1047426Y-3318934D01*
X-1053831Y-3319438D01*
X-1147224Y-3346571D01*
X-1205988Y-3363643D01*
X-1205990Y-3363644D01*
X-1213601Y-3365855D01*
X-1356807Y-3450547D01*
X-1359489Y-3453229D01*
X-1423861Y-3478502D01*
X-1493484Y-3464600D01*
X-1509312Y-3454428D01*
X-1513193Y-3450547D01*
X-1656399Y-3365855D01*
X-1664010Y-3363644D01*
X-1664012Y-3363643D01*
X-1722776Y-3346571D01*
X-1816169Y-3319438D01*
X-1822574Y-3318934D01*
X-1822579Y-3318933D01*
X-1851042Y-3316693D01*
X-1851050Y-3316693D01*
X-1853498Y-3316500D01*
X-2286502Y-3316500D01*
X-2288950Y-3316693D01*
X-2288958Y-3316693D01*
X-2317421Y-3318933D01*
X-2317426Y-3318934D01*
X-2323831Y-3319438D01*
X-2417224Y-3346571D01*
X-2475988Y-3363643D01*
X-2475990Y-3363644D01*
X-2483601Y-3365855D01*
X-2626807Y-3450547D01*
X-2629489Y-3453229D01*
X-2693861Y-3478502D01*
X-2763484Y-3464600D01*
X-2779312Y-3454428D01*
X-2783193Y-3450547D01*
X-2926399Y-3365855D01*
X-2934010Y-3363644D01*
X-2934012Y-3363643D01*
X-2992776Y-3346571D01*
X-3086169Y-3319438D01*
X-3092574Y-3318934D01*
X-3092579Y-3318933D01*
X-3121042Y-3316693D01*
X-3121050Y-3316693D01*
X-3123498Y-3316500D01*
X-3556502Y-3316500D01*
X-3558950Y-3316693D01*
X-3558958Y-3316693D01*
X-3587421Y-3318933D01*
X-3587426Y-3318934D01*
X-3593831Y-3319438D01*
X-3687224Y-3346571D01*
X-3745988Y-3363643D01*
X-3745990Y-3363644D01*
X-3753601Y-3365855D01*
X-3896807Y-3450547D01*
X-3899489Y-3453229D01*
X-3963861Y-3478502D01*
X-4033484Y-3464600D01*
X-4049312Y-3454428D01*
X-4053193Y-3450547D01*
X-4196399Y-3365855D01*
X-4204010Y-3363644D01*
X-4204012Y-3363643D01*
X-4262776Y-3346571D01*
X-4356169Y-3319438D01*
X-4362574Y-3318934D01*
X-4362579Y-3318933D01*
X-4391042Y-3316693D01*
X-4391050Y-3316693D01*
X-4393498Y-3316500D01*
X-4826502Y-3316500D01*
X-4828950Y-3316693D01*
X-4828958Y-3316693D01*
X-4857421Y-3318933D01*
X-4857426Y-3318934D01*
X-4863831Y-3319438D01*
X-4957224Y-3346571D01*
X-5015988Y-3363643D01*
X-5015990Y-3363644D01*
X-5023601Y-3365855D01*
X-5166807Y-3450547D01*
X-5169489Y-3453229D01*
X-5233861Y-3478502D01*
X-5303484Y-3464600D01*
X-5319312Y-3454428D01*
X-5323193Y-3450547D01*
X-5466399Y-3365855D01*
X-5474010Y-3363644D01*
X-5474012Y-3363643D01*
X-5532776Y-3346571D01*
X-5626169Y-3319438D01*
X-5632574Y-3318934D01*
X-5632579Y-3318933D01*
X-5661042Y-3316693D01*
X-5661050Y-3316693D01*
X-5663498Y-3316500D01*
X-6096502Y-3316500D01*
X-6098950Y-3316693D01*
X-6098958Y-3316693D01*
X-6127421Y-3318933D01*
X-6127426Y-3318934D01*
X-6133831Y-3319438D01*
X-6227224Y-3346571D01*
X-6285988Y-3363643D01*
X-6285990Y-3363644D01*
X-6293601Y-3365855D01*
X-6341435Y-3394144D01*
X-6410246Y-3411603D01*
X-6477578Y-3389087D01*
X-6494666Y-3374785D01*
X-7749595Y-2119856D01*
X-7783621Y-2057544D01*
X-7786500Y-2030761D01*
X-7786500Y-1133498D01*
X-7789438Y-1096169D01*
X-7813053Y-1014885D01*
X-7446000Y-1014885D01*
X-7441525Y-1030124D01*
X-7440135Y-1031329D01*
X-7432452Y-1033000D01*
X-7404562Y-1033000D01*
X-7398047Y-1032663D01*
X-7305943Y-1023106D01*
X-7292544Y-1020212D01*
X-7143893Y-970619D01*
X-7130714Y-964445D01*
X-6997827Y-882212D01*
X-6986426Y-873176D01*
X-6876014Y-762571D01*
X-6867002Y-751160D01*
X-6784996Y-618120D01*
X-6778849Y-604939D01*
X-6729509Y-456186D01*
X-6726642Y-442810D01*
X-6717328Y-351903D01*
X-6717071Y-346874D01*
X-6721475Y-331876D01*
X-6722865Y-330671D01*
X-6730548Y-329000D01*
X-7427885Y-329000D01*
X-7443124Y-333475D01*
X-7444329Y-334865D01*
X-7446000Y-342548D01*
X-7446000Y-1014885D01*
X-7813053Y-1014885D01*
X-7825913Y-970619D01*
X-7833643Y-944012D01*
X-7833644Y-944010D01*
X-7835855Y-936399D01*
X-7920547Y-793193D01*
X-7926156Y-787584D01*
X-7927560Y-785774D01*
X-7953507Y-719689D01*
X-7954000Y-708548D01*
X-7954000Y-347115D01*
X-7958475Y-331876D01*
X-7959865Y-330671D01*
X-7967548Y-329000D01*
X-8664885Y-329000D01*
X-8680124Y-333475D01*
X-8681329Y-334865D01*
X-8683000Y-342548D01*
X-8683000Y-345438D01*
X-8682663Y-351952D01*
X-8677418Y-402495D01*
X-8690282Y-472316D01*
X-8738852Y-524099D01*
X-8802745Y-541500D01*
X-8811502Y-541500D01*
X-8813950Y-541693D01*
X-8813958Y-541693D01*
X-8842421Y-543933D01*
X-8842426Y-543934D01*
X-8848831Y-544438D01*
X-8921448Y-565535D01*
X-9000988Y-588643D01*
X-9000990Y-588644D01*
X-9008601Y-590855D01*
X-9132134Y-663913D01*
X-9200948Y-681371D01*
X-9268279Y-658854D01*
X-9312749Y-603510D01*
X-9320237Y-532909D01*
X-9315864Y-515790D01*
X-9279509Y-406186D01*
X-9276642Y-392810D01*
X-9267328Y-301903D01*
X-9267000Y-295487D01*
X-9267000Y-272115D01*
X-9271475Y-256876D01*
X-9272865Y-255671D01*
X-9280548Y-254000D01*
X-10353000Y-254000D01*
X-10421121Y-233998D01*
X-10467614Y-180342D01*
X-10479000Y-128000D01*
X-10479000Y128000D01*
X-10458998Y196121D01*
X-10405342Y242614D01*
X-10353000Y254000D01*
X-9285115Y254000D01*
X-9269876Y258475D01*
X-9268671Y259865D01*
X-9267000Y267548D01*
X-9267000Y295438D01*
X-9267337Y301955D01*
X-9274379Y369822D01*
X-9261514Y439644D01*
X-9212943Y491426D01*
X-9200300Y497933D01*
X-9159281Y516195D01*
X-9159274Y516199D01*
X-9153248Y518882D01*
X-9146353Y523891D01*
X-9068166Y580698D01*
X-8998747Y631134D01*
X-8981065Y650772D01*
X-8875379Y768148D01*
X-8875378Y768149D01*
X-8870960Y773056D01*
X-8805712Y886069D01*
X-8754330Y935062D01*
X-8684616Y948498D01*
X-8618705Y922112D01*
X-8589449Y889372D01*
X-8572219Y861529D01*
X-8528752Y791287D01*
X-8523570Y786114D01*
X-8519023Y780377D01*
X-8520830Y778945D01*
X-8492098Y726425D01*
X-8497108Y655605D01*
X-8520499Y619147D01*
X-8519448Y618317D01*
X-8532998Y601160D01*
X-8615004Y468120D01*
X-8621151Y454939D01*
X-8670491Y306186D01*
X-8673358Y292810D01*
X-8682672Y201903D01*
X-8682929Y196874D01*
X-8678525Y181876D01*
X-8677135Y180671D01*
X-8669452Y179000D01*
X-6735115Y179000D01*
X-6719876Y183475D01*
X-6718671Y184865D01*
X-6717000Y192548D01*
X-6717000Y195438D01*
X-6717337Y201953D01*
X-6726894Y294057D01*
X-6729788Y307456D01*
X-6779381Y456107D01*
X-6785555Y469286D01*
X-6867788Y602173D01*
X-6881371Y619311D01*
X-6879441Y620841D01*
X-6907903Y672880D01*
X-6902887Y743699D01*
X-6879201Y780617D01*
X-6880157Y781372D01*
X-6875619Y787118D01*
X-6870448Y792298D01*
X-6866607Y798529D01*
X-6784538Y931669D01*
X-6784537Y931671D01*
X-6780698Y937899D01*
X-6726851Y1100243D01*
X-6725462Y1113794D01*
X-6719307Y1173875D01*
X-6716500Y1201268D01*
X-6716500Y1748732D01*
X-6717830Y1761556D01*
X-6724890Y1829595D01*
X-6727113Y1851019D01*
X-6752859Y1928188D01*
X-6778927Y2006324D01*
X-6778928Y2006326D01*
X-6781244Y2013268D01*
X-6790681Y2028519D01*
X-6867394Y2152485D01*
X-6871248Y2158713D01*
X-6992298Y2279552D01*
X-7002667Y2285944D01*
X-7081646Y2334627D01*
X-7131939Y2393668D01*
X-7149341Y2435681D01*
X-7168476Y2481876D01*
X-7241522Y2577071D01*
X-7241526Y2577075D01*
X-7241529Y2577079D01*
X-7260988Y2602439D01*
X-7260990Y2602441D01*
X-7266013Y2608987D01*
X-7270488Y2612421D01*
X-7303931Y2673672D01*
X-7298864Y2744487D01*
X-7269905Y2789546D01*
X-6794478Y3264973D01*
X-6732166Y3298999D01*
X-6661351Y3293934D01*
X-6604515Y3251387D01*
X-6596933Y3240022D01*
X-6554453Y3168193D01*
X-6436807Y3050547D01*
X-6429983Y3046511D01*
X-6429980Y3046509D01*
X-6351362Y3000015D01*
X-6293601Y2965855D01*
X-6285990Y2963644D01*
X-6285988Y2963643D01*
X-6260134Y2956132D01*
X-6133831Y2919438D01*
X-6127426Y2918934D01*
X-6127421Y2918933D01*
X-6098958Y2916693D01*
X-6098950Y2916693D01*
X-6096502Y2916500D01*
X-5663498Y2916500D01*
X-5661050Y2916693D01*
X-5661042Y2916693D01*
X-5632579Y2918933D01*
X-5632574Y2918934D01*
X-5626169Y2919438D01*
X-5499866Y2956132D01*
X-5474012Y2963643D01*
X-5474010Y2963644D01*
X-5466399Y2965855D01*
X-5323193Y3050547D01*
X-5320511Y3053229D01*
X-5256139Y3078502D01*
X-5186516Y3064600D01*
X-5170688Y3054428D01*
X-5166807Y3050547D01*
X-5023601Y2965855D01*
X-5015990Y2963644D01*
X-5015988Y2963643D01*
X-4990134Y2956132D01*
X-4863831Y2919438D01*
X-4857426Y2918934D01*
X-4857421Y2918933D01*
X-4828958Y2916693D01*
X-4828950Y2916693D01*
X-4826502Y2916500D01*
X-4393498Y2916500D01*
X-4391050Y2916693D01*
X-4391042Y2916693D01*
X-4362579Y2918933D01*
X-4362574Y2918934D01*
X-4356169Y2919438D01*
X-4229866Y2956132D01*
X-4204012Y2963643D01*
X-4204010Y2963644D01*
X-4196399Y2965855D01*
X-4138637Y3000016D01*
X-4069823Y3017474D01*
X-4002491Y2994957D01*
X-3958022Y2939613D01*
X-3948500Y2891561D01*
X-3948500Y2804239D01*
X-3968502Y2736118D01*
X-3985405Y2715144D01*
X-4435144Y2265405D01*
X-4497456Y2231379D01*
X-4524239Y2228500D01*
X-4615487Y2228500D01*
X-4621939Y2227128D01*
X-4621944Y2227128D01*
X-4705223Y2209426D01*
X-4802288Y2188794D01*
X-4808318Y2186109D01*
X-4808319Y2186109D01*
X-4970722Y2113803D01*
X-4970724Y2113802D01*
X-4976752Y2111118D01*
X-4982093Y2107238D01*
X-4982094Y2107237D01*
X-5028531Y2073498D01*
X-5131253Y1998866D01*
X-5135674Y1993956D01*
X-5135675Y1993955D01*
X-5252979Y1863675D01*
X-5259040Y1856944D01*
X-5354527Y1691556D01*
X-5413542Y1509928D01*
X-5414232Y1503367D01*
X-5414232Y1503365D01*
X-5423324Y1416858D01*
X-5433504Y1320000D01*
X-5432814Y1313435D01*
X-5417783Y1170427D01*
X-5413542Y1130072D01*
X-5354527Y948444D01*
X-5351224Y942722D01*
X-5351223Y942721D01*
X-5337387Y918756D01*
X-5259040Y783056D01*
X-5254622Y778149D01*
X-5254621Y778148D01*
X-5139931Y650772D01*
X-5131253Y641134D01*
X-5073098Y598882D01*
X-4992240Y540135D01*
X-4976752Y528882D01*
X-4970724Y526198D01*
X-4970722Y526197D01*
X-4808319Y453891D01*
X-4802288Y451206D01*
X-4708888Y431353D01*
X-4621944Y412872D01*
X-4621939Y412872D01*
X-4615487Y411500D01*
X-4424513Y411500D01*
X-4418061Y412872D01*
X-4418056Y412872D01*
X-4331112Y431353D01*
X-4237712Y451206D01*
X-4231681Y453891D01*
X-4069278Y526197D01*
X-4069276Y526198D01*
X-4063248Y528882D01*
X-4047759Y540135D01*
X-3966902Y598882D01*
X-3908747Y641134D01*
X-3900069Y650772D01*
X-3785379Y778148D01*
X-3785378Y778149D01*
X-3780960Y783056D01*
X-3702613Y918756D01*
X-3688777Y942721D01*
X-3688776Y942722D01*
X-3685473Y948444D01*
X-3626458Y1130072D01*
X-3622216Y1170427D01*
X-3607186Y1313435D01*
X-3606496Y1320000D01*
X-3606684Y1321786D01*
X-3587184Y1388196D01*
X-3570281Y1409170D01*
X-2943766Y2035685D01*
X-2931375Y2046552D01*
X-2912563Y2060987D01*
X-2906013Y2066013D01*
X-2900987Y2072563D01*
X-2895146Y2078404D01*
X-2893085Y2076343D01*
X-2847116Y2109904D01*
X-2776245Y2114121D01*
X-2714344Y2079352D01*
X-2681068Y2016637D01*
X-2678500Y1991330D01*
X-2678500Y1950335D01*
X-2698502Y1882214D01*
X-2710864Y1866024D01*
X-2719040Y1856944D01*
X-2722341Y1851226D01*
X-2722343Y1851223D01*
X-2788040Y1737432D01*
X-2814527Y1691556D01*
X-2873542Y1509928D01*
X-2874232Y1503367D01*
X-2874232Y1503365D01*
X-2883324Y1416858D01*
X-2893504Y1320000D01*
X-2892814Y1313435D01*
X-2877783Y1170427D01*
X-2873542Y1130072D01*
X-2814527Y948444D01*
X-2811224Y942722D01*
X-2811223Y942721D01*
X-2797387Y918756D01*
X-2719040Y783056D01*
X-2714622Y778149D01*
X-2714621Y778148D01*
X-2599931Y650772D01*
X-2591253Y641134D01*
X-2533098Y598882D01*
X-2452240Y540135D01*
X-2436752Y528882D01*
X-2430724Y526198D01*
X-2430722Y526197D01*
X-2268319Y453891D01*
X-2262288Y451206D01*
X-2168888Y431353D01*
X-2081944Y412872D01*
X-2081939Y412872D01*
X-2075487Y411500D01*
X-1884513Y411500D01*
X-1878061Y412872D01*
X-1878056Y412872D01*
X-1791112Y431353D01*
X-1697712Y451206D01*
X-1691681Y453891D01*
X-1529278Y526197D01*
X-1529276Y526198D01*
X-1523248Y528882D01*
X-1507759Y540135D01*
X-1426902Y598882D01*
X-1368747Y641134D01*
X-1360069Y650772D01*
X-1245379Y778148D01*
X-1245378Y778149D01*
X-1240960Y783056D01*
X-1162613Y918756D01*
X-1148777Y942721D01*
X-1148776Y942722D01*
X-1145473Y948444D01*
X-1086458Y1130072D01*
X-1082216Y1170427D01*
X-1067186Y1313435D01*
X-1066496Y1320000D01*
X-1076676Y1416858D01*
X-1085768Y1503365D01*
X-1085768Y1503367D01*
X-1086458Y1509928D01*
X-1145473Y1691556D01*
X-1240960Y1856944D01*
X-1247020Y1863675D01*
X-1364325Y1993955D01*
X-1364326Y1993956D01*
X-1368747Y1998866D01*
X-1381577Y2008188D01*
X-1409561Y2028519D01*
X-1452915Y2084741D01*
X-1461500Y2130455D01*
X-1461500Y2171330D01*
X-1441498Y2239451D01*
X-1387842Y2285944D01*
X-1317568Y2296048D01*
X-1252988Y2266554D01*
X-1245086Y2258169D01*
X-1244852Y2258403D01*
X-1239016Y2252567D01*
X-1233987Y2246013D01*
X-1227432Y2240983D01*
X-1208621Y2226548D01*
X-1196230Y2215681D01*
X-459719Y1479170D01*
X-425693Y1416858D01*
X-423159Y1393284D01*
X-423504Y1390000D01*
X-422814Y1383435D01*
X-421969Y1375400D01*
X-403542Y1200072D01*
X-344527Y1018444D01*
X-341224Y1012722D01*
X-341223Y1012721D01*
X-318635Y973598D01*
X-249040Y853056D01*
X-244622Y848149D01*
X-244621Y848148D01*
X-163270Y757799D01*
X-121253Y711134D01*
X-24907Y641134D01*
X-5798Y627251D01*
X33248Y598882D01*
X39276Y596198D01*
X39278Y596197D01*
X195033Y526851D01*
X207712Y521206D01*
X278747Y506107D01*
X388056Y482872D01*
X388061Y482872D01*
X394513Y481500D01*
X585487Y481500D01*
X591939Y482872D01*
X591944Y482872D01*
X701253Y506107D01*
X772288Y521206D01*
X784967Y526851D01*
X940722Y596197D01*
X940724Y596198D01*
X946752Y598882D01*
X985799Y627251D01*
X1004907Y641134D01*
X1101253Y711134D01*
X1143270Y757799D01*
X1224621Y848148D01*
X1224622Y848149D01*
X1229040Y853056D01*
X1298635Y973598D01*
X1321223Y1012721D01*
X1321224Y1012722D01*
X1324527Y1018444D01*
X1383542Y1200072D01*
X1401970Y1375400D01*
X1402814Y1383435D01*
X1403504Y1390000D01*
X1398468Y1437919D01*
X1384232Y1573365D01*
X1384232Y1573367D01*
X1383542Y1579928D01*
X1324527Y1761556D01*
X1306304Y1793120D01*
X1276834Y1844163D01*
X1229040Y1926944D01*
X1138460Y2027544D01*
X1105675Y2063955D01*
X1105674Y2063956D01*
X1101253Y2068866D01*
X960224Y2171330D01*
X952094Y2177237D01*
X952093Y2177238D01*
X946752Y2181118D01*
X940724Y2183802D01*
X940722Y2183803D01*
X778319Y2256109D01*
X778318Y2256109D01*
X772288Y2258794D01*
X669944Y2280548D01*
X591944Y2297128D01*
X591939Y2297128D01*
X585487Y2298500D01*
X494239Y2298500D01*
X426118Y2318502D01*
X405144Y2335405D01*
X6340Y2734209D01*
X-27686Y2796521D01*
X-22621Y2867336D01*
X19926Y2924172D01*
X86446Y2948983D01*
X130587Y2944301D01*
X209989Y2921233D01*
X209993Y2921232D01*
X216169Y2919438D01*
X222574Y2918934D01*
X222579Y2918933D01*
X251042Y2916693D01*
X251050Y2916693D01*
X253498Y2916500D01*
X590761Y2916500D01*
X658882Y2896498D01*
X679856Y2879595D01*
X2160281Y1399170D01*
X2194307Y1336858D01*
X2196841Y1313284D01*
X2196496Y1310000D01*
X2197186Y1303435D01*
X2214995Y1133996D01*
X2216458Y1120072D01*
X2275473Y938444D01*
X2278776Y932722D01*
X2278777Y932721D01*
X2281200Y928525D01*
X2370960Y773056D01*
X2375378Y768149D01*
X2375379Y768148D01*
X2481065Y650772D01*
X2498747Y631134D01*
X2568166Y580698D01*
X2646354Y523891D01*
X2653248Y518882D01*
X2659276Y516198D01*
X2659278Y516197D01*
X2821681Y443891D01*
X2827712Y441206D01*
X2921113Y421353D01*
X3008056Y402872D01*
X3008061Y402872D01*
X3014513Y401500D01*
X3205487Y401500D01*
X3211939Y402872D01*
X3211944Y402872D01*
X3298887Y421353D01*
X3392288Y441206D01*
X3398319Y443891D01*
X3560722Y516197D01*
X3560724Y516198D01*
X3566752Y518882D01*
X3573647Y523891D01*
X3651834Y580698D01*
X3721253Y631134D01*
X3738935Y650772D01*
X3844621Y768148D01*
X3844622Y768149D01*
X3849040Y773056D01*
X3938800Y928525D01*
X3941223Y932721D01*
X3941224Y932722D01*
X3944527Y938444D01*
X4003542Y1120072D01*
X4005006Y1133996D01*
X4019283Y1269839D01*
X4046296Y1335495D01*
X4104518Y1376125D01*
X4175463Y1378828D01*
X4233688Y1345763D01*
X4655685Y923766D01*
X4666552Y911375D01*
X4686013Y886013D01*
X4692563Y880987D01*
X4717921Y861529D01*
X4717928Y861523D01*
X4760978Y828490D01*
X4813125Y788476D01*
X4862201Y768148D01*
X4887186Y757799D01*
X4932602Y725702D01*
X5008747Y641134D01*
X5066902Y598882D01*
X5147760Y540135D01*
X5163248Y528882D01*
X5169276Y526198D01*
X5169278Y526197D01*
X5331681Y453891D01*
X5337712Y451206D01*
X5431112Y431353D01*
X5518056Y412872D01*
X5518061Y412872D01*
X5524513Y411500D01*
X5715487Y411500D01*
X5721939Y412872D01*
X5721944Y412872D01*
X5808888Y431353D01*
X5902288Y451206D01*
X5908319Y453891D01*
X6070722Y526197D01*
X6070724Y526198D01*
X6076752Y528882D01*
X6092241Y540135D01*
X6173098Y598882D01*
X6231253Y641134D01*
X6239931Y650772D01*
X6354621Y778148D01*
X6354622Y778149D01*
X6359040Y783056D01*
X6437387Y918756D01*
X6451223Y942721D01*
X6451224Y942722D01*
X6454527Y948444D01*
X6513542Y1130072D01*
X6517784Y1170427D01*
X6532814Y1313435D01*
X6533504Y1320000D01*
X6523324Y1416858D01*
X6514232Y1503365D01*
X6514232Y1503367D01*
X6513542Y1509928D01*
X6508448Y1525606D01*
X6506421Y1596574D01*
X6539186Y1653637D01*
X6715144Y1829595D01*
X6777456Y1863621D01*
X6804239Y1866500D01*
X7111763Y1866501D01*
X7131634Y1866501D01*
X7134492Y1866764D01*
X7134501Y1866764D01*
X7170004Y1870026D01*
X7205062Y1873247D01*
X7233676Y1882214D01*
X7361450Y1922256D01*
X7361452Y1922257D01*
X7368699Y1924528D01*
X7515381Y2013361D01*
X7636639Y2134619D01*
X7725472Y2281301D01*
X7730094Y2296048D01*
X7754248Y2373124D01*
X7776753Y2444938D01*
X7783500Y2518365D01*
X7783499Y2954562D01*
X9017000Y2954562D01*
X9017337Y2948047D01*
X9026894Y2855943D01*
X9029788Y2842544D01*
X9079381Y2693893D01*
X9085555Y2680714D01*
X9167788Y2547827D01*
X9176824Y2536426D01*
X9287429Y2426014D01*
X9298840Y2417002D01*
X9431880Y2334996D01*
X9445061Y2328849D01*
X9593814Y2279509D01*
X9607190Y2276642D01*
X9698097Y2267328D01*
X9704513Y2267000D01*
X9727885Y2267000D01*
X9743124Y2271475D01*
X9744329Y2272865D01*
X9746000Y2280548D01*
X9746000Y2952885D01*
X9741525Y2968124D01*
X9740135Y2969329D01*
X9732452Y2971000D01*
X9035115Y2971000D01*
X9019876Y2966525D01*
X9018671Y2965135D01*
X9017000Y2957452D01*
X9017000Y2954562D01*
X7783499Y2954562D01*
X7783499Y3031634D01*
X7782133Y3046509D01*
X7779122Y3079273D01*
X7776753Y3105062D01*
X7769333Y3128740D01*
X7727744Y3261450D01*
X7727743Y3261452D01*
X7725472Y3268699D01*
X7636639Y3415381D01*
X7541115Y3510905D01*
X7507089Y3573217D01*
X7512154Y3644032D01*
X7541115Y3689095D01*
X7636639Y3784619D01*
X7725472Y3931301D01*
X7740163Y3978180D01*
X7779621Y4037202D01*
X7844725Y4065522D01*
X7860397Y4066500D01*
X9043237Y4066500D01*
X9111358Y4046498D01*
G37*
G04 #@! TD.AperFunction*
G04 #@! TA.AperFunction,Conductor*
G36*
X-17560369Y6671498D02*
G01*
X-17513876Y6617842D01*
X-17503146Y6552658D01*
X-17508500Y6500400D01*
X-17508500Y3899600D01*
X-17508163Y3896354D01*
X-17508163Y3896350D01*
X-17500523Y3822721D01*
X-17497526Y3793834D01*
X-17441550Y3626054D01*
X-17348478Y3475652D01*
X-17223303Y3350695D01*
X-17217073Y3346855D01*
X-17217072Y3346854D01*
X-17090281Y3268699D01*
X-17072738Y3257885D01*
X-17018870Y3240018D01*
X-16911389Y3204368D01*
X-16911387Y3204368D01*
X-16904861Y3202203D01*
X-16898025Y3201503D01*
X-16898022Y3201502D01*
X-16854969Y3197091D01*
X-16800400Y3191500D01*
X-15834500Y3191500D01*
X-15766379Y3171498D01*
X-15719886Y3117842D01*
X-15708500Y3065500D01*
X-15708500Y2934000D01*
X-15728502Y2865879D01*
X-15782158Y2819386D01*
X-15834500Y2808000D01*
X-15927885Y2808000D01*
X-15943124Y2803525D01*
X-15944329Y2802135D01*
X-15946000Y2794452D01*
X-15946000Y-1189884D01*
X-15941525Y-1205123D01*
X-15928851Y-1216106D01*
X-15888831Y-1237957D01*
X-15854805Y-1300268D01*
X-15859868Y-1371084D01*
X-15888830Y-1416149D01*
X-16927276Y-2454595D01*
X-16989588Y-2488621D01*
X-17016371Y-2491500D01*
X-18007413Y-2491500D01*
X-18081472Y-2467437D01*
X-18087902Y-2462765D01*
X-18087909Y-2462761D01*
X-18093248Y-2458882D01*
X-18099276Y-2456198D01*
X-18099278Y-2456197D01*
X-18261681Y-2383891D01*
X-18261682Y-2383891D01*
X-18267712Y-2381206D01*
X-18361112Y-2361353D01*
X-18448056Y-2342872D01*
X-18448061Y-2342872D01*
X-18454513Y-2341500D01*
X-18645487Y-2341500D01*
X-18651939Y-2342872D01*
X-18651944Y-2342872D01*
X-18738888Y-2361353D01*
X-18832288Y-2381206D01*
X-18838318Y-2383891D01*
X-18838319Y-2383891D01*
X-19000722Y-2456197D01*
X-19000724Y-2456198D01*
X-19006752Y-2458882D01*
X-19012093Y-2462762D01*
X-19012094Y-2462763D01*
X-19053326Y-2492720D01*
X-19120194Y-2516579D01*
X-19189345Y-2500498D01*
X-19224306Y-2470291D01*
X-19225547Y-2468193D01*
X-19231151Y-2462589D01*
X-19235297Y-2457244D01*
X-19261244Y-2391159D01*
X-19255571Y-2341082D01*
X-19215092Y-2216500D01*
X-19206458Y-2189928D01*
X-19200555Y-2133770D01*
X-19187186Y-2006565D01*
X-19186496Y-2000000D01*
X-19191777Y-1949757D01*
X-19205768Y-1816635D01*
X-19205768Y-1816633D01*
X-19206458Y-1810072D01*
X-19265473Y-1628444D01*
X-19293056Y-1580668D01*
X-19333671Y-1510322D01*
X-19360960Y-1463056D01*
X-19405461Y-1413632D01*
X-19484325Y-1326045D01*
X-19484326Y-1326044D01*
X-19488747Y-1321134D01*
X-19603230Y-1237957D01*
X-19637906Y-1212763D01*
X-19637907Y-1212762D01*
X-19643248Y-1208882D01*
X-19649276Y-1206198D01*
X-19649278Y-1206197D01*
X-19779802Y-1148084D01*
X-19833898Y-1102104D01*
X-19854547Y-1034176D01*
X-19835195Y-965868D01*
X-19817648Y-943882D01*
X-19370861Y-497095D01*
X-17507999Y-497095D01*
X-17507662Y-503614D01*
X-17497743Y-599206D01*
X-17494851Y-612600D01*
X-17443412Y-766784D01*
X-17437239Y-779962D01*
X-17351937Y-917807D01*
X-17342901Y-929208D01*
X-17228171Y-1043739D01*
X-17216760Y-1052751D01*
X-17078757Y-1137816D01*
X-17065576Y-1143963D01*
X-16911290Y-1195138D01*
X-16897914Y-1198005D01*
X-16803562Y-1207672D01*
X-16797146Y-1208000D01*
X-16472115Y-1208000D01*
X-16456876Y-1203525D01*
X-16455671Y-1202135D01*
X-16454000Y-1194452D01*
X-16454000Y527885D01*
X-16458475Y543124D01*
X-16459865Y544329D01*
X-16467548Y546000D01*
X-17489884Y546000D01*
X-17505123Y541525D01*
X-17506328Y540135D01*
X-17507999Y532452D01*
X-17507999Y-497095D01*
X-19370861Y-497095D01*
X-19303766Y-430000D01*
X-19291375Y-419133D01*
X-19272563Y-404698D01*
X-19266013Y-399672D01*
X-19241526Y-367760D01*
X-19241523Y-367757D01*
X-19168477Y-272561D01*
X-19168476Y-272560D01*
X-19157519Y-246109D01*
X-19110322Y-132164D01*
X-19107162Y-124535D01*
X-19091500Y-5570D01*
X-19091500Y-5563D01*
X-19086250Y34315D01*
X-19090422Y66008D01*
X-19091500Y82451D01*
X-19091500Y695761D01*
X-19071498Y763882D01*
X-19054595Y784856D01*
X-18767336Y1072115D01*
X-17508000Y1072115D01*
X-17503525Y1056876D01*
X-17502135Y1055671D01*
X-17494452Y1054000D01*
X-16472115Y1054000D01*
X-16456876Y1058475D01*
X-16455671Y1059865D01*
X-16454000Y1067548D01*
X-16454000Y2789884D01*
X-16458475Y2805123D01*
X-16459865Y2806328D01*
X-16467548Y2807999D01*
X-16797095Y2807999D01*
X-16803614Y2807662D01*
X-16899206Y2797743D01*
X-16912600Y2794851D01*
X-17066784Y2743412D01*
X-17079962Y2737239D01*
X-17217807Y2651937D01*
X-17229208Y2642901D01*
X-17343739Y2528171D01*
X-17352751Y2516760D01*
X-17437816Y2378757D01*
X-17443963Y2365576D01*
X-17495138Y2211290D01*
X-17498005Y2197914D01*
X-17507672Y2103562D01*
X-17508000Y2097145D01*
X-17508000Y1072115D01*
X-18767336Y1072115D01*
X-18303766Y1535685D01*
X-18291375Y1546552D01*
X-18272563Y1560987D01*
X-18266013Y1566013D01*
X-18241526Y1597925D01*
X-18241522Y1597929D01*
X-18168476Y1693124D01*
X-18107162Y1841149D01*
X-18104203Y1863621D01*
X-18087327Y1991812D01*
X-18086249Y2000000D01*
X-18090422Y2031699D01*
X-18091500Y2048144D01*
X-18091500Y4351864D01*
X-18090422Y4368310D01*
X-18087328Y4391812D01*
X-18086250Y4400000D01*
X-18091500Y4439880D01*
X-18091500Y4439885D01*
X-18093904Y4458148D01*
X-18105109Y4543259D01*
X-18105110Y4543261D01*
X-18107162Y4558850D01*
X-18107162Y4558851D01*
X-18168476Y4706876D01*
X-18241522Y4802071D01*
X-18241526Y4802075D01*
X-18252698Y4816635D01*
X-18260984Y4827434D01*
X-18260987Y4827437D01*
X-18266013Y4833987D01*
X-18276781Y4842250D01*
X-18291379Y4853452D01*
X-18303770Y4864319D01*
X-19062133Y5622682D01*
X-19091957Y5679552D01*
X-19094438Y5678831D01*
X-19095576Y5682749D01*
X-19116668Y5755348D01*
X-19116465Y5826343D01*
X-19077911Y5885960D01*
X-19013246Y5915268D01*
X-18995671Y5916500D01*
X-18942070Y5916500D01*
X-18923120Y5915067D01*
X-18908885Y5912901D01*
X-18908881Y5912901D01*
X-18901651Y5911801D01*
X-18894359Y5912394D01*
X-18894356Y5912394D01*
X-18848982Y5916085D01*
X-18838767Y5916500D01*
X-18830707Y5916500D01*
X-18817417Y5918049D01*
X-18802493Y5919789D01*
X-18798118Y5920222D01*
X-18732661Y5925546D01*
X-18732658Y5925547D01*
X-18725363Y5926140D01*
X-18718399Y5928396D01*
X-18712440Y5929587D01*
X-18706585Y5930971D01*
X-18699319Y5931818D01*
X-18630673Y5956735D01*
X-18626545Y5958152D01*
X-18564064Y5978393D01*
X-18564062Y5978394D01*
X-18557101Y5980649D01*
X-18550846Y5984445D01*
X-18545372Y5986951D01*
X-18539942Y5989670D01*
X-18533063Y5992167D01*
X-18526942Y5996180D01*
X-18472024Y6032186D01*
X-18468320Y6034523D01*
X-18405893Y6072405D01*
X-18397516Y6079803D01*
X-18397492Y6079776D01*
X-18394500Y6082429D01*
X-18391267Y6085132D01*
X-18385148Y6089144D01*
X-18331872Y6145383D01*
X-18329494Y6147825D01*
X-17822724Y6654595D01*
X-17760412Y6688621D01*
X-17733629Y6691500D01*
X-17628490Y6691500D01*
X-17560369Y6671498D01*
G37*
G04 #@! TD.AperFunction*
G04 #@! TA.AperFunction,Conductor*
G36*
X-16114082Y17471498D02*
G01*
X-16067589Y17417842D01*
X-16057485Y17347568D01*
X-16078115Y17294495D01*
X-16181905Y17142345D01*
X-16187000Y17133377D01*
X-16276662Y16940217D01*
X-16280225Y16930530D01*
X-16335611Y16730817D01*
X-16334088Y16722393D01*
X-16321708Y16719000D01*
X16798344Y16719000D01*
X16811875Y16722973D01*
X16813180Y16732053D01*
X16771214Y16899125D01*
X16767894Y16908876D01*
X16682972Y17104186D01*
X16678105Y17113261D01*
X16559617Y17296417D01*
X16561562Y17297675D01*
X16539368Y17354819D01*
X16553523Y17424390D01*
X16603044Y17475264D01*
X16664914Y17491500D01*
X20372139Y17491500D01*
X20440260Y17471498D01*
X20486753Y17417842D01*
X20496857Y17347568D01*
X20467951Y17283670D01*
X20288261Y17073281D01*
X20286342Y17070469D01*
X20286339Y17070464D01*
X20279876Y17060989D01*
X20080209Y16768288D01*
X19906313Y16442610D01*
X19768607Y16100056D01*
X19767687Y16096782D01*
X19767685Y16096777D01*
X19672733Y15758972D01*
X19668702Y15744633D01*
X19668140Y15741276D01*
X19668140Y15741275D01*
X19615693Y15427861D01*
X19607767Y15380500D01*
X19586515Y15011915D01*
X19605194Y14643191D01*
X19605731Y14639836D01*
X19605732Y14639830D01*
X19641969Y14413594D01*
X19663585Y14278642D01*
X19761006Y13922530D01*
X19896317Y13579023D01*
X19897900Y13576008D01*
X20066351Y13255155D01*
X20066356Y13255147D01*
X20067935Y13252139D01*
X20273853Y12945701D01*
X20511661Y12663294D01*
X20778578Y12408223D01*
X21071482Y12183470D01*
X21386945Y11991665D01*
X21721278Y11835052D01*
X22070570Y11715463D01*
X22093037Y11710400D01*
X22155094Y11675911D01*
X22188653Y11613347D01*
X22183060Y11542571D01*
X22140090Y11486054D01*
X22105212Y11467959D01*
X22026055Y11441550D01*
X21875652Y11348478D01*
X21750695Y11223303D01*
X21746855Y11217073D01*
X21746854Y11217072D01*
X21715049Y11165474D01*
X21657885Y11072738D01*
X21602203Y10904861D01*
X21601503Y10898025D01*
X21601502Y10898022D01*
X21597091Y10854969D01*
X21591500Y10800400D01*
X21591500Y9699600D01*
X21591837Y9696354D01*
X21591837Y9696350D01*
X21598024Y9636725D01*
X21602474Y9593835D01*
X21604655Y9587299D01*
X21604655Y9587297D01*
X21628609Y9515499D01*
X21658450Y9426055D01*
X21751522Y9275652D01*
X21876697Y9150695D01*
X21882927Y9146855D01*
X21882928Y9146854D01*
X21991502Y9079928D01*
X22027262Y9057885D01*
X22099852Y9033808D01*
X22188611Y9004368D01*
X22188613Y9004368D01*
X22195139Y9002203D01*
X22201975Y9001503D01*
X22201978Y9001502D01*
X22245031Y8997091D01*
X22299600Y8991500D01*
X23933629Y8991500D01*
X24001750Y8971498D01*
X24022724Y8954595D01*
X24104595Y8872724D01*
X24138621Y8810412D01*
X24141500Y8783629D01*
X24141500Y2934500D01*
X24121498Y2866379D01*
X24067842Y2819886D01*
X24015500Y2808500D01*
X22299600Y2808500D01*
X22296354Y2808163D01*
X22296350Y2808163D01*
X22200693Y2798238D01*
X22200689Y2798237D01*
X22193835Y2797526D01*
X22187299Y2795345D01*
X22187297Y2795345D01*
X22082984Y2760543D01*
X22026055Y2741550D01*
X21875652Y2648478D01*
X21750695Y2523303D01*
X21746855Y2517073D01*
X21746854Y2517072D01*
X21685622Y2417735D01*
X21657885Y2372738D01*
X21632806Y2297128D01*
X21609589Y2227128D01*
X21602203Y2204861D01*
X21601503Y2198025D01*
X21601502Y2198022D01*
X21599373Y2177237D01*
X21591500Y2100400D01*
X21591500Y999600D01*
X21591837Y996354D01*
X21591837Y996350D01*
X21600290Y914885D01*
X21602474Y893835D01*
X21604655Y887299D01*
X21604655Y887297D01*
X21636687Y791287D01*
X21658450Y726055D01*
X21751522Y575652D01*
X21876697Y450695D01*
X21882927Y446855D01*
X21882928Y446854D01*
X22007897Y369822D01*
X22027262Y357885D01*
X22049069Y350652D01*
X22188611Y304368D01*
X22188613Y304368D01*
X22195139Y302203D01*
X22201975Y301503D01*
X22201978Y301502D01*
X22245031Y297091D01*
X22299600Y291500D01*
X25300400Y291500D01*
X25303644Y291837D01*
X25303652Y291837D01*
X25352497Y296905D01*
X25422318Y284040D01*
X25474100Y235469D01*
X25491500Y171578D01*
X25491500Y-174072D01*
X25471498Y-242193D01*
X25417842Y-288686D01*
X25352658Y-299416D01*
X25275400Y-291500D01*
X23874600Y-291500D01*
X23871354Y-291837D01*
X23871350Y-291837D01*
X23775692Y-301762D01*
X23775688Y-301763D01*
X23768834Y-302474D01*
X23762298Y-304655D01*
X23762296Y-304655D01*
X23658657Y-339232D01*
X23601054Y-358450D01*
X23450652Y-451522D01*
X23325695Y-576697D01*
X23321855Y-582927D01*
X23321854Y-582928D01*
X23237599Y-719615D01*
X23232885Y-727262D01*
X23223484Y-755605D01*
X23181491Y-882212D01*
X23177203Y-895139D01*
X23176503Y-901975D01*
X23176502Y-901978D01*
X23172209Y-943882D01*
X23166500Y-999600D01*
X23166500Y-1605959D01*
X23146498Y-1674080D01*
X23092842Y-1720573D01*
X23022568Y-1730677D01*
X22957988Y-1701183D01*
X22932692Y-1669205D01*
X22932488Y-1669345D01*
X22930400Y-1666307D01*
X22930399Y-1666306D01*
X22928186Y-1663085D01*
X22926954Y-1660729D01*
X22918701Y-1645903D01*
X22917368Y-1643649D01*
X22914315Y-1636695D01*
X22875413Y-1585998D01*
X22871541Y-1580668D01*
X22839661Y-1534280D01*
X22839656Y-1534275D01*
X22835357Y-1528019D01*
X22815495Y-1510322D01*
X22788830Y-1486565D01*
X22783554Y-1481584D01*
X22071450Y-769480D01*
X22065596Y-763215D01*
X22040292Y-734209D01*
X22027561Y-719615D01*
X21975280Y-682871D01*
X21969986Y-678939D01*
X21925693Y-644209D01*
X21919718Y-639524D01*
X21912802Y-636401D01*
X21910516Y-635017D01*
X21895835Y-626643D01*
X21893475Y-625378D01*
X21887261Y-621010D01*
X21880182Y-618250D01*
X21880180Y-618249D01*
X21827725Y-597798D01*
X21821656Y-595247D01*
X21763427Y-568955D01*
X21755960Y-567571D01*
X21753405Y-566770D01*
X21737152Y-562141D01*
X21734572Y-561478D01*
X21727491Y-558718D01*
X21719960Y-557727D01*
X21719958Y-557726D01*
X21690339Y-553827D01*
X21664139Y-550378D01*
X21657641Y-549348D01*
X21594814Y-537704D01*
X21587234Y-538141D01*
X21587233Y-538141D01*
X21532608Y-541291D01*
X21525354Y-541500D01*
X19920660Y-541500D01*
X19852539Y-521498D01*
X19831565Y-504595D01*
X16650565Y2676405D01*
X16616539Y2738717D01*
X16621604Y2809532D01*
X16664151Y2866368D01*
X16730671Y2891179D01*
X16739660Y2891500D01*
X19600400Y2891500D01*
X19603646Y2891837D01*
X19603650Y2891837D01*
X19699308Y2901762D01*
X19699312Y2901763D01*
X19706166Y2902474D01*
X19712702Y2904655D01*
X19712704Y2904655D01*
X19866998Y2956132D01*
X19873946Y2958450D01*
X20024348Y3051522D01*
X20149305Y3176697D01*
X20181383Y3228737D01*
X20238275Y3321032D01*
X20238276Y3321034D01*
X20242115Y3327262D01*
X20291182Y3475196D01*
X20295632Y3488611D01*
X20295632Y3488613D01*
X20297797Y3495139D01*
X20299413Y3510905D01*
X20308172Y3596402D01*
X20308500Y3599600D01*
X20308500Y4200400D01*
X20307885Y4206328D01*
X20298238Y4299308D01*
X20298237Y4299312D01*
X20297526Y4306166D01*
X20292533Y4321134D01*
X20243868Y4466998D01*
X20241550Y4473946D01*
X20148478Y4624348D01*
X20139577Y4633234D01*
X20028483Y4744134D01*
X20023303Y4749305D01*
X19952829Y4792746D01*
X19905337Y4845517D01*
X19893913Y4915589D01*
X19922187Y4980712D01*
X19952642Y5007149D01*
X20024348Y5051522D01*
X20149305Y5176697D01*
X20161331Y5196206D01*
X20238275Y5321032D01*
X20238276Y5321034D01*
X20242115Y5327262D01*
X20275263Y5427202D01*
X20295632Y5488611D01*
X20295632Y5488613D01*
X20297797Y5495139D01*
X20299545Y5512193D01*
X20304151Y5557158D01*
X20308500Y5599600D01*
X20308500Y6200400D01*
X20307633Y6208754D01*
X20298238Y6299308D01*
X20298237Y6299312D01*
X20297526Y6306166D01*
X20277957Y6364823D01*
X20243868Y6466998D01*
X20241550Y6473946D01*
X20148478Y6624348D01*
X20023303Y6749305D01*
X19952352Y6793040D01*
X19904860Y6845811D01*
X19893436Y6915883D01*
X19921710Y6981006D01*
X19952166Y7007443D01*
X20017807Y7048063D01*
X20029208Y7057099D01*
X20143739Y7171829D01*
X20152751Y7183240D01*
X20237816Y7321243D01*
X20243963Y7334424D01*
X20295138Y7488710D01*
X20298005Y7502086D01*
X20307672Y7596438D01*
X20308000Y7602854D01*
X20308000Y7627885D01*
X20303525Y7643124D01*
X20302135Y7644329D01*
X20294452Y7646000D01*
X17922000Y7646000D01*
X17853879Y7666002D01*
X17807386Y7719658D01*
X17796000Y7772000D01*
X17796000Y8028000D01*
X17816002Y8096121D01*
X17869658Y8142614D01*
X17922000Y8154000D01*
X20289884Y8154000D01*
X20305123Y8158475D01*
X20306328Y8159865D01*
X20307999Y8167548D01*
X20307999Y8197095D01*
X20307662Y8203614D01*
X20297743Y8299206D01*
X20294851Y8312600D01*
X20243412Y8466784D01*
X20237239Y8479962D01*
X20151937Y8617807D01*
X20142901Y8629208D01*
X20028171Y8743739D01*
X20016760Y8752751D01*
X19878757Y8837816D01*
X19865576Y8843963D01*
X19711290Y8895138D01*
X19697914Y8898005D01*
X19603562Y8907672D01*
X19597145Y8908000D01*
X18448129Y8908000D01*
X18380008Y8928002D01*
X18333515Y8981658D01*
X18323411Y9051932D01*
X18324769Y9059659D01*
X18330780Y9088554D01*
X18339487Y9130417D01*
X18340457Y9134701D01*
X18349400Y9171249D01*
X18357808Y9205610D01*
X18358350Y9214337D01*
X18358500Y9216764D01*
X18358536Y9216762D01*
X18358775Y9220755D01*
X18359149Y9224947D01*
X18360640Y9232115D01*
X18358546Y9309521D01*
X18358500Y9312928D01*
X18358500Y11802861D01*
X18378502Y11870982D01*
X18432158Y11917475D01*
X18458304Y11926108D01*
X18475830Y11929833D01*
X18475833Y11929834D01*
X18482288Y11931206D01*
X18488319Y11933891D01*
X18650722Y12006197D01*
X18650724Y12006198D01*
X18656752Y12008882D01*
X18811253Y12121134D01*
X18815675Y12126045D01*
X18934621Y12258148D01*
X18934622Y12258149D01*
X18939040Y12263056D01*
X19021657Y12406152D01*
X19031223Y12422721D01*
X19031224Y12422722D01*
X19034527Y12428444D01*
X19093542Y12610072D01*
X19095047Y12624385D01*
X19112814Y12793435D01*
X19113504Y12800000D01*
X19112814Y12806565D01*
X19094232Y12983365D01*
X19094232Y12983367D01*
X19093542Y12989928D01*
X19034527Y13171556D01*
X18939040Y13336944D01*
X18865565Y13418547D01*
X18815675Y13473955D01*
X18815674Y13473956D01*
X18811253Y13478866D01*
X18656752Y13591118D01*
X18650724Y13593802D01*
X18650722Y13593803D01*
X18488319Y13666109D01*
X18488318Y13666109D01*
X18482288Y13668794D01*
X18388887Y13688647D01*
X18301944Y13707128D01*
X18301939Y13707128D01*
X18295487Y13708500D01*
X18104513Y13708500D01*
X18098061Y13707128D01*
X18098056Y13707128D01*
X18011113Y13688647D01*
X17917712Y13668794D01*
X17911682Y13666109D01*
X17911681Y13666109D01*
X17749278Y13593803D01*
X17749276Y13593802D01*
X17743248Y13591118D01*
X17588747Y13478866D01*
X17584326Y13473956D01*
X17584325Y13473955D01*
X17534436Y13418547D01*
X17460960Y13336944D01*
X17365473Y13171556D01*
X17315254Y13016997D01*
X17310613Y13002715D01*
X17279875Y12952556D01*
X17111089Y12783770D01*
X17096677Y12771384D01*
X17085082Y12762851D01*
X17085077Y12762846D01*
X17079182Y12758508D01*
X17074443Y12752930D01*
X17074440Y12752927D01*
X17044965Y12718232D01*
X17038035Y12710716D01*
X17032340Y12705021D01*
X17030060Y12702139D01*
X17014719Y12682749D01*
X17011928Y12679345D01*
X16970958Y12631120D01*
X16964667Y12623715D01*
X16961339Y12617199D01*
X16957972Y12612150D01*
X16954805Y12607021D01*
X16950266Y12601284D01*
X16919345Y12535125D01*
X16917442Y12531231D01*
X16884231Y12466192D01*
X16882492Y12459084D01*
X16880393Y12453441D01*
X16878476Y12447678D01*
X16875378Y12441050D01*
X16873888Y12433888D01*
X16873888Y12433887D01*
X16860514Y12369588D01*
X16859544Y12365304D01*
X16842192Y12294390D01*
X16841500Y12283236D01*
X16841464Y12283238D01*
X16841225Y12279245D01*
X16840851Y12275053D01*
X16839360Y12267885D01*
X16839558Y12260568D01*
X16841454Y12190479D01*
X16841500Y12187072D01*
X16841500Y11173931D01*
X16821498Y11105810D01*
X16767842Y11059317D01*
X16697568Y11049213D01*
X16689303Y11050685D01*
X16611953Y11067127D01*
X16611940Y11067128D01*
X16605487Y11068500D01*
X16414513Y11068500D01*
X16408061Y11067128D01*
X16408056Y11067128D01*
X16330700Y11050685D01*
X16227712Y11028794D01*
X16156101Y10996911D01*
X16085735Y10987477D01*
X16021438Y11017583D01*
X15983624Y11077672D01*
X15979382Y11123547D01*
X15980771Y11138662D01*
X15983500Y11168365D01*
X15983499Y11518830D01*
X16002701Y11584226D01*
X16002367Y11584419D01*
X16003162Y11585796D01*
X16003501Y11586950D01*
X16005329Y11589550D01*
X16006497Y11591573D01*
X16011524Y11598124D01*
X16024102Y11628490D01*
X16069678Y11738520D01*
X16069679Y11738523D01*
X16072838Y11746150D01*
X16093751Y11905000D01*
X16089578Y11936699D01*
X16088500Y11953144D01*
X16088500Y12631681D01*
X16108502Y12699802D01*
X16159068Y12744832D01*
X16165754Y12748107D01*
X16173353Y12751830D01*
X16173357Y12751832D01*
X16177994Y12754104D01*
X16182198Y12757102D01*
X16182202Y12757105D01*
X16271932Y12821109D01*
X16359860Y12883827D01*
X16419335Y12943094D01*
X16503400Y13026866D01*
X16518096Y13041511D01*
X16648453Y13222923D01*
X16662893Y13252139D01*
X16745136Y13418547D01*
X16745137Y13418549D01*
X16747430Y13423189D01*
X16812370Y13636931D01*
X16841529Y13858410D01*
X16841611Y13861760D01*
X16843074Y13921635D01*
X16843074Y13921639D01*
X16843156Y13925000D01*
X16824852Y14147639D01*
X16770431Y14364298D01*
X16681354Y14569160D01*
X16560014Y14756723D01*
X16409670Y14921949D01*
X16405619Y14925148D01*
X16405615Y14925152D01*
X16238414Y15057200D01*
X16238410Y15057202D01*
X16234359Y15060402D01*
X16192569Y15083471D01*
X16142598Y15133903D01*
X16127826Y15203346D01*
X16152942Y15269752D01*
X16180294Y15296359D01*
X16355328Y15421208D01*
X16363200Y15427861D01*
X16514052Y15578188D01*
X16520730Y15586035D01*
X16645003Y15758980D01*
X16650313Y15767817D01*
X16744670Y15958733D01*
X16748469Y15968328D01*
X16810377Y16172090D01*
X16812555Y16182163D01*
X16813986Y16193038D01*
X16811775Y16207222D01*
X16798617Y16211000D01*
X-16316775Y16211000D01*
X-16330306Y16207027D01*
X-16331743Y16197034D01*
X-16301435Y16062554D01*
X-16298355Y16052725D01*
X-16218230Y15855397D01*
X-16213587Y15846206D01*
X-16102306Y15664612D01*
X-16096223Y15656301D01*
X-15956787Y15495333D01*
X-15949423Y15488121D01*
X-15944478Y15484015D01*
X-15904844Y15425111D01*
X-15903347Y15354130D01*
X-15940463Y15293608D01*
X-15980736Y15269090D01*
X-16088295Y15228768D01*
X-16088296Y15228767D01*
X-16096705Y15225615D01*
X-16213261Y15138261D01*
X-16300615Y15021705D01*
X-16351745Y14885316D01*
X-16358500Y14823134D01*
X-16358500Y13026866D01*
X-16351745Y12964684D01*
X-16300615Y12828295D01*
X-16213261Y12711739D01*
X-16096705Y12624385D01*
X-15960316Y12573255D01*
X-15898134Y12566500D01*
X-14766371Y12566500D01*
X-14698250Y12546498D01*
X-14677276Y12529595D01*
X-14470405Y12322724D01*
X-14436379Y12260412D01*
X-14433500Y12233629D01*
X-14433500Y11959500D01*
X-14453502Y11891379D01*
X-14507158Y11844886D01*
X-14559500Y11833500D01*
X-15675400Y11833500D01*
X-15678646Y11833163D01*
X-15678650Y11833163D01*
X-15774308Y11823238D01*
X-15774312Y11823237D01*
X-15781166Y11822526D01*
X-15787702Y11820345D01*
X-15787704Y11820345D01*
X-15840109Y11802861D01*
X-15948946Y11766550D01*
X-16012283Y11727355D01*
X-16078585Y11708500D01*
X-16832671Y11708500D01*
X-16900792Y11728502D01*
X-16924332Y11750407D01*
X-16925008Y11749731D01*
X-16931358Y11756081D01*
X-16936739Y11763261D01*
X-17053295Y11850615D01*
X-17189684Y11901745D01*
X-17251866Y11908500D01*
X-18548134Y11908500D01*
X-18610316Y11901745D01*
X-18746705Y11850615D01*
X-18863261Y11763261D01*
X-18950615Y11646705D01*
X-19001745Y11510316D01*
X-19008500Y11448134D01*
X-19008500Y10451866D01*
X-19001745Y10389684D01*
X-18950615Y10253295D01*
X-18863261Y10136739D01*
X-18746705Y10049385D01*
X-18610316Y9998255D01*
X-18548134Y9991500D01*
X-17251866Y9991500D01*
X-17189684Y9998255D01*
X-17053295Y10049385D01*
X-16936739Y10136739D01*
X-16931358Y10143919D01*
X-16925008Y10150269D01*
X-16923373Y10148634D01*
X-16876641Y10183579D01*
X-16832671Y10191500D01*
X-16470879Y10191500D01*
X-16402758Y10171498D01*
X-16356265Y10117842D01*
X-16351356Y10105377D01*
X-16325786Y10028737D01*
X-16316550Y10001054D01*
X-16223478Y9850652D01*
X-16098303Y9725695D01*
X-16092073Y9721855D01*
X-16092072Y9721854D01*
X-16022123Y9678737D01*
X-15947738Y9632885D01*
X-15867995Y9606436D01*
X-15786389Y9579368D01*
X-15786387Y9579368D01*
X-15779861Y9577203D01*
X-15773025Y9576503D01*
X-15773022Y9576502D01*
X-15729969Y9572091D01*
X-15675400Y9566500D01*
X-15010371Y9566500D01*
X-14942250Y9546498D01*
X-14895757Y9492842D01*
X-14885653Y9422568D01*
X-14915147Y9357988D01*
X-14921276Y9351405D01*
X-14988911Y9283770D01*
X-15003323Y9271384D01*
X-15014918Y9262851D01*
X-15014923Y9262846D01*
X-15020818Y9258508D01*
X-15025557Y9252930D01*
X-15025560Y9252927D01*
X-15055035Y9218232D01*
X-15061965Y9210716D01*
X-15067660Y9205021D01*
X-15069940Y9202139D01*
X-15085281Y9182749D01*
X-15088072Y9179345D01*
X-15129704Y9130341D01*
X-15135333Y9123715D01*
X-15138662Y9117196D01*
X-15142022Y9112158D01*
X-15145192Y9107026D01*
X-15149734Y9101284D01*
X-15152835Y9094648D01*
X-15153671Y9093295D01*
X-15206482Y9045845D01*
X-15260876Y9033500D01*
X-15675400Y9033500D01*
X-15678646Y9033163D01*
X-15678650Y9033163D01*
X-15774308Y9023238D01*
X-15774312Y9023237D01*
X-15781166Y9022526D01*
X-15787702Y9020345D01*
X-15787704Y9020345D01*
X-15864277Y8994798D01*
X-15948946Y8966550D01*
X-16099348Y8873478D01*
X-16104521Y8868296D01*
X-16126281Y8846498D01*
X-16224305Y8748303D01*
X-16228145Y8742073D01*
X-16228146Y8742072D01*
X-16303010Y8620620D01*
X-16317115Y8597738D01*
X-16372797Y8429861D01*
X-16373497Y8423025D01*
X-16373498Y8423022D01*
X-16377909Y8379969D01*
X-16383500Y8325400D01*
X-16383500Y7474600D01*
X-16383163Y7471354D01*
X-16383163Y7471350D01*
X-16379236Y7433500D01*
X-16372526Y7368834D01*
X-16370346Y7362301D01*
X-16370086Y7361095D01*
X-16375259Y7290288D01*
X-16417892Y7233517D01*
X-16484450Y7208807D01*
X-16493247Y7208500D01*
X-16665500Y7208500D01*
X-16733621Y7228502D01*
X-16780114Y7282158D01*
X-16791500Y7334500D01*
X-16791500Y8148134D01*
X-16798255Y8210316D01*
X-16849385Y8346705D01*
X-16936739Y8463261D01*
X-17053295Y8550615D01*
X-17189684Y8601745D01*
X-17251866Y8608500D01*
X-18548134Y8608500D01*
X-18610316Y8601745D01*
X-18746705Y8550615D01*
X-18863261Y8463261D01*
X-18950615Y8346705D01*
X-19001745Y8210316D01*
X-19008500Y8148134D01*
X-19008500Y7666371D01*
X-19028502Y7598250D01*
X-19045405Y7577276D01*
X-19152276Y7470405D01*
X-19214588Y7436379D01*
X-19241371Y7433500D01*
X-19466246Y7433500D01*
X-19501398Y7438503D01*
X-19639989Y7478767D01*
X-19639993Y7478768D01*
X-19646169Y7480562D01*
X-19652574Y7481066D01*
X-19652579Y7481067D01*
X-19681042Y7483307D01*
X-19681050Y7483307D01*
X-19683498Y7483500D01*
X-21216502Y7483500D01*
X-21218950Y7483307D01*
X-21218958Y7483307D01*
X-21247421Y7481067D01*
X-21247426Y7481066D01*
X-21253831Y7480562D01*
X-21333604Y7457386D01*
X-21405988Y7436357D01*
X-21405990Y7436356D01*
X-21413601Y7434145D01*
X-21420428Y7430108D01*
X-21420427Y7430108D01*
X-21549980Y7353491D01*
X-21549983Y7353489D01*
X-21556807Y7349453D01*
X-21674453Y7231807D01*
X-21678489Y7224983D01*
X-21678491Y7224980D01*
X-21714954Y7163324D01*
X-21734312Y7138369D01*
X-22888911Y5983770D01*
X-22903323Y5971384D01*
X-22914918Y5962851D01*
X-22914923Y5962846D01*
X-22920818Y5958508D01*
X-22925557Y5952930D01*
X-22925560Y5952927D01*
X-22955035Y5918232D01*
X-22961965Y5910716D01*
X-22967660Y5905021D01*
X-22969940Y5902139D01*
X-22985281Y5882749D01*
X-22988072Y5879345D01*
X-23030591Y5829297D01*
X-23035333Y5823715D01*
X-23038661Y5817199D01*
X-23042028Y5812150D01*
X-23045195Y5807021D01*
X-23049734Y5801284D01*
X-23080655Y5735125D01*
X-23082558Y5731231D01*
X-23115769Y5666192D01*
X-23117508Y5659084D01*
X-23119607Y5653441D01*
X-23121524Y5647678D01*
X-23124622Y5641050D01*
X-23126112Y5633888D01*
X-23126112Y5633887D01*
X-23139486Y5569588D01*
X-23140456Y5565304D01*
X-23157808Y5494390D01*
X-23158500Y5483236D01*
X-23158536Y5483238D01*
X-23158775Y5479245D01*
X-23159149Y5475053D01*
X-23160640Y5467885D01*
X-23160442Y5460568D01*
X-23158546Y5390479D01*
X-23158500Y5387072D01*
X-23158500Y4736999D01*
X-23175381Y4674000D01*
X-23202306Y4627364D01*
X-23230954Y4577744D01*
X-23234527Y4571556D01*
X-23293542Y4389928D01*
X-23294232Y4383367D01*
X-23294232Y4383365D01*
X-23303526Y4294938D01*
X-23313504Y4200000D01*
X-23312814Y4193435D01*
X-23296393Y4037202D01*
X-23293542Y4010072D01*
X-23234527Y3828444D01*
X-23139040Y3663056D01*
X-23011253Y3521134D01*
X-22939083Y3468699D01*
X-22866349Y3415855D01*
X-22856752Y3408882D01*
X-22850724Y3406198D01*
X-22850722Y3406197D01*
X-22689033Y3334209D01*
X-22682288Y3331206D01*
X-22589325Y3311446D01*
X-22501944Y3292872D01*
X-22501939Y3292872D01*
X-22495487Y3291500D01*
X-22304513Y3291500D01*
X-22298061Y3292872D01*
X-22298056Y3292872D01*
X-22210675Y3311446D01*
X-22117712Y3331206D01*
X-22082565Y3346854D01*
X-21955720Y3403329D01*
X-21885353Y3412763D01*
X-21821056Y3382656D01*
X-21783242Y3322567D01*
X-21783474Y3253069D01*
X-21799939Y3196396D01*
X-21799899Y3182294D01*
X-21792630Y3179000D01*
X-20322000Y3179000D01*
X-20253879Y3158998D01*
X-20207386Y3105342D01*
X-20196000Y3053000D01*
X-20196000Y2135116D01*
X-20190380Y2115977D01*
X-20156214Y2062815D01*
X-20156213Y1991818D01*
X-20188015Y1938220D01*
X-20496234Y1630001D01*
X-20508625Y1619134D01*
X-20533987Y1599673D01*
X-20558474Y1567761D01*
X-20558477Y1567758D01*
X-20558483Y1567750D01*
X-20626453Y1479170D01*
X-20631524Y1472562D01*
X-20692838Y1324537D01*
X-20692838Y1324536D01*
X-20708500Y1205571D01*
X-20708500Y1205566D01*
X-20713750Y1165686D01*
X-20709925Y1136635D01*
X-20709578Y1133996D01*
X-20708500Y1117550D01*
X-20708500Y504239D01*
X-20728502Y436118D01*
X-20745405Y415144D01*
X-21708918Y-548369D01*
X-21771230Y-582395D01*
X-21842045Y-577330D01*
X-21898881Y-534783D01*
X-21905157Y-525577D01*
X-21906071Y-524099D01*
X-21951522Y-450652D01*
X-22076697Y-325695D01*
X-22114808Y-302203D01*
X-22221032Y-236725D01*
X-22221034Y-236724D01*
X-22227262Y-232885D01*
X-22310302Y-205342D01*
X-22388611Y-179368D01*
X-22388613Y-179368D01*
X-22395139Y-177203D01*
X-22401975Y-176503D01*
X-22401978Y-176502D01*
X-22413829Y-175288D01*
X-22479556Y-148446D01*
X-22520337Y-90331D01*
X-22523225Y-19393D01*
X-22487303Y41845D01*
X-22423975Y73941D01*
X-22413987Y75383D01*
X-22400693Y76762D01*
X-22400690Y76763D01*
X-22393834Y77474D01*
X-22387298Y79655D01*
X-22387296Y79655D01*
X-22242390Y128000D01*
X-22226054Y133450D01*
X-22075652Y226522D01*
X-21950695Y351697D01*
X-21945425Y360247D01*
X-21861725Y496032D01*
X-21861724Y496034D01*
X-21857885Y502262D01*
X-21810196Y646041D01*
X-21804368Y663611D01*
X-21804368Y663613D01*
X-21802203Y670139D01*
X-21798400Y707251D01*
X-21794339Y746889D01*
X-21791500Y774600D01*
X-21791500Y1375400D01*
X-21791837Y1378650D01*
X-21801762Y1474308D01*
X-21801763Y1474312D01*
X-21802474Y1481166D01*
X-21808372Y1498846D01*
X-21856132Y1641998D01*
X-21858450Y1648946D01*
X-21951522Y1799348D01*
X-22003487Y1851223D01*
X-22071517Y1919134D01*
X-22076697Y1924305D01*
X-22134410Y1959880D01*
X-22221032Y2013275D01*
X-22221034Y2013276D01*
X-22227262Y2017115D01*
X-22335305Y2052951D01*
X-22388611Y2070632D01*
X-22388613Y2070632D01*
X-22395139Y2072797D01*
X-22401975Y2073497D01*
X-22401978Y2073498D01*
X-22449863Y2078404D01*
X-22499600Y2083500D01*
X-23615500Y2083500D01*
X-23683621Y2103502D01*
X-23730114Y2157158D01*
X-23741500Y2209500D01*
X-23741500Y2659129D01*
X-21801544Y2659129D01*
X-21760893Y2519210D01*
X-21754648Y2504779D01*
X-21678089Y2375322D01*
X-21668449Y2362896D01*
X-21562104Y2256551D01*
X-21549678Y2246911D01*
X-21420221Y2170352D01*
X-21405790Y2164107D01*
X-21259935Y2121731D01*
X-21247333Y2119430D01*
X-21218916Y2117193D01*
X-21213986Y2117000D01*
X-20722115Y2117000D01*
X-20706876Y2121475D01*
X-20705671Y2122865D01*
X-20704000Y2130548D01*
X-20704000Y2652885D01*
X-20708475Y2668124D01*
X-20709865Y2669329D01*
X-20717548Y2671000D01*
X-21786878Y2671000D01*
X-21800409Y2667027D01*
X-21801544Y2659129D01*
X-23741500Y2659129D01*
X-23741500Y7308629D01*
X-23721498Y7376750D01*
X-23704595Y7397724D01*
X-23622724Y7479595D01*
X-23560412Y7513621D01*
X-23533629Y7516500D01*
X-22499600Y7516500D01*
X-22496354Y7516837D01*
X-22496350Y7516837D01*
X-22400692Y7526762D01*
X-22400688Y7526763D01*
X-22393834Y7527474D01*
X-22387298Y7529655D01*
X-22387296Y7529655D01*
X-22233002Y7581132D01*
X-22226054Y7583450D01*
X-22075652Y7676522D01*
X-21950695Y7801697D01*
X-21938714Y7821134D01*
X-21861725Y7946032D01*
X-21861724Y7946034D01*
X-21857885Y7952262D01*
X-21813586Y8085819D01*
X-21804368Y8113611D01*
X-21804368Y8113613D01*
X-21802203Y8120139D01*
X-21798986Y8151531D01*
X-21794318Y8197095D01*
X-21791500Y8224600D01*
X-21791500Y8825400D01*
X-21793426Y8843963D01*
X-21801762Y8924308D01*
X-21801763Y8924312D01*
X-21802474Y8931166D01*
X-21804937Y8938550D01*
X-21856132Y9091998D01*
X-21858450Y9098946D01*
X-21951522Y9249348D01*
X-21960998Y9258808D01*
X-22071517Y9369134D01*
X-22076697Y9374305D01*
X-22082928Y9378146D01*
X-22221032Y9463275D01*
X-22221034Y9463276D01*
X-22227262Y9467115D01*
X-22373136Y9515499D01*
X-22388611Y9520632D01*
X-22388613Y9520632D01*
X-22395139Y9522797D01*
X-22401975Y9523497D01*
X-22401978Y9523498D01*
X-22445031Y9527909D01*
X-22499600Y9533500D01*
X-24800400Y9533500D01*
X-24803646Y9533163D01*
X-24803650Y9533163D01*
X-24899308Y9523238D01*
X-24899312Y9523237D01*
X-24906166Y9522526D01*
X-24912702Y9520345D01*
X-24912704Y9520345D01*
X-24995140Y9492842D01*
X-25073946Y9466550D01*
X-25224348Y9373478D01*
X-25229521Y9368296D01*
X-25229526Y9368292D01*
X-25276327Y9321409D01*
X-25338609Y9287329D01*
X-25409429Y9292332D01*
X-25466302Y9334829D01*
X-25491171Y9401327D01*
X-25491500Y9410426D01*
X-25491500Y12371625D01*
X-25471498Y12439746D01*
X-25417842Y12486239D01*
X-25347568Y12496343D01*
X-25278449Y12462719D01*
X-25221422Y12408223D01*
X-24928518Y12183470D01*
X-24613055Y11991665D01*
X-24278722Y11835052D01*
X-23929430Y11715463D01*
X-23569266Y11634297D01*
X-23565880Y11633911D01*
X-23565873Y11633910D01*
X-23205826Y11592887D01*
X-23205818Y11592887D01*
X-23202443Y11592502D01*
X-23199039Y11592484D01*
X-23199036Y11592484D01*
X-22998366Y11591434D01*
X-22833251Y11590569D01*
X-22829865Y11590919D01*
X-22829863Y11590919D01*
X-22469402Y11628169D01*
X-22469394Y11628170D01*
X-22466010Y11628520D01*
X-22462677Y11629235D01*
X-22462674Y11629235D01*
X-22244950Y11675911D01*
X-22105016Y11705910D01*
X-21754491Y11821835D01*
X-21418536Y11974939D01*
X-21415599Y11976683D01*
X-21415593Y11976686D01*
X-21104016Y12161688D01*
X-21101082Y12163430D01*
X-20805841Y12385103D01*
X-20536267Y12637365D01*
X-20534055Y12639937D01*
X-20534048Y12639944D01*
X-20297741Y12914678D01*
X-20295515Y12917266D01*
X-20116812Y13177279D01*
X-20088329Y13218721D01*
X-20088324Y13218729D01*
X-20086399Y13221530D01*
X-20084787Y13224524D01*
X-20084782Y13224532D01*
X-19912989Y13543588D01*
X-19911367Y13546600D01*
X-19786102Y13855092D01*
X-19773747Y13885518D01*
X-19773745Y13885523D01*
X-19772467Y13888671D01*
X-19761884Y13925821D01*
X-19672256Y14240465D01*
X-19671322Y14243743D01*
X-19609116Y14607661D01*
X-19606942Y14643191D01*
X-19588332Y14947470D01*
X-19586577Y14976169D01*
X-19586494Y15000000D01*
X-19606460Y15368656D01*
X-19666123Y15733000D01*
X-19764787Y16088770D01*
X-19801952Y16182163D01*
X-19900036Y16428637D01*
X-19900040Y16428645D01*
X-19901296Y16431802D01*
X-19907018Y16442610D01*
X-20019944Y16655890D01*
X-20074054Y16758086D01*
X-20075954Y16760892D01*
X-20075958Y16760899D01*
X-20279134Y17060989D01*
X-20279141Y17060998D01*
X-20281040Y17063803D01*
X-20467785Y17284005D01*
X-20496590Y17348895D01*
X-20485740Y17419057D01*
X-20438679Y17472216D01*
X-20371689Y17491500D01*
X-16182203Y17491500D01*
X-16114082Y17471498D01*
G37*
G04 #@! TD.AperFunction*
G04 #@! TA.AperFunction,Conductor*
G36*
X-2178879Y7933998D02*
G01*
X-2132386Y7880342D01*
X-2121000Y7828000D01*
X-2121000Y6735115D01*
X-2116525Y6719876D01*
X-2115135Y6718671D01*
X-2107452Y6717000D01*
X-2104562Y6717000D01*
X-2098047Y6717337D01*
X-2005943Y6726894D01*
X-1992544Y6729788D01*
X-1843893Y6779381D01*
X-1830714Y6785555D01*
X-1697827Y6867788D01*
X-1680689Y6881371D01*
X-1679159Y6879441D01*
X-1627120Y6907903D01*
X-1556301Y6902887D01*
X-1519383Y6879201D01*
X-1518628Y6880157D01*
X-1512882Y6875619D01*
X-1507702Y6870448D01*
X-1501472Y6866608D01*
X-1501471Y6866607D01*
X-1369980Y6785555D01*
X-1362101Y6780698D01*
X-1199757Y6726851D01*
X-1192920Y6726151D01*
X-1192918Y6726150D01*
X-1151599Y6721917D01*
X-1098732Y6716500D01*
X-551268Y6716500D01*
X-548022Y6716837D01*
X-548018Y6716837D01*
X-513917Y6720375D01*
X-448981Y6727113D01*
X-343810Y6762201D01*
X-293676Y6778927D01*
X-293674Y6778928D01*
X-286732Y6781244D01*
X-271950Y6790391D01*
X-199624Y6835148D01*
X-165922Y6856003D01*
X-97471Y6874841D01*
X-33504Y6856119D01*
X81880Y6784996D01*
X95061Y6778849D01*
X243814Y6729509D01*
X257190Y6726642D01*
X348097Y6717328D01*
X353126Y6717071D01*
X368124Y6721475D01*
X369329Y6722865D01*
X371000Y6730548D01*
X371000Y7828000D01*
X391002Y7896121D01*
X444658Y7942614D01*
X497000Y7954000D01*
X753000Y7954000D01*
X821121Y7933998D01*
X867614Y7880342D01*
X879000Y7828000D01*
X879000Y6735115D01*
X883475Y6719876D01*
X884865Y6718671D01*
X892548Y6717000D01*
X895438Y6717000D01*
X901953Y6717337D01*
X994057Y6726894D01*
X1007456Y6729788D01*
X1156107Y6779381D01*
X1169286Y6785555D01*
X1302173Y6867788D01*
X1319311Y6881371D01*
X1320841Y6879441D01*
X1372880Y6907903D01*
X1443699Y6902887D01*
X1480617Y6879201D01*
X1481372Y6880157D01*
X1487118Y6875619D01*
X1492298Y6870448D01*
X1498528Y6866608D01*
X1498529Y6866607D01*
X1630020Y6785555D01*
X1637899Y6780698D01*
X1800243Y6726851D01*
X1807080Y6726151D01*
X1807082Y6726150D01*
X1848401Y6721917D01*
X1901268Y6716500D01*
X2448732Y6716500D01*
X2451978Y6716837D01*
X2451982Y6716837D01*
X2486083Y6720375D01*
X2551019Y6727113D01*
X2656190Y6762201D01*
X2706324Y6778927D01*
X2706326Y6778928D01*
X2713268Y6781244D01*
X2728050Y6790391D01*
X2800376Y6835148D01*
X2834078Y6856003D01*
X2902529Y6874841D01*
X2966496Y6856119D01*
X3081880Y6784996D01*
X3095061Y6778849D01*
X3243814Y6729509D01*
X3257190Y6726642D01*
X3348097Y6717328D01*
X3353126Y6717071D01*
X3368124Y6721475D01*
X3369329Y6722865D01*
X3371000Y6730548D01*
X3371000Y7828000D01*
X3391002Y7896121D01*
X3444658Y7942614D01*
X3497000Y7954000D01*
X3753000Y7954000D01*
X3821121Y7933998D01*
X3867614Y7880342D01*
X3879000Y7828000D01*
X3879000Y6735115D01*
X3883475Y6719876D01*
X3884865Y6718671D01*
X3892548Y6717000D01*
X3895438Y6717000D01*
X3901953Y6717337D01*
X3994057Y6726894D01*
X4007456Y6729788D01*
X4156107Y6779381D01*
X4169286Y6785555D01*
X4302173Y6867788D01*
X4319311Y6881371D01*
X4320841Y6879441D01*
X4372880Y6907903D01*
X4443699Y6902887D01*
X4480617Y6879201D01*
X4481372Y6880157D01*
X4487118Y6875619D01*
X4492298Y6870448D01*
X4498528Y6866608D01*
X4498529Y6866607D01*
X4630020Y6785555D01*
X4637899Y6780698D01*
X4800243Y6726851D01*
X4807080Y6726151D01*
X4807082Y6726150D01*
X4848401Y6721917D01*
X4901268Y6716500D01*
X5448732Y6716500D01*
X5451978Y6716837D01*
X5451982Y6716837D01*
X5551019Y6727113D01*
X5551305Y6724359D01*
X5609708Y6720095D01*
X5666480Y6677464D01*
X5691192Y6610907D01*
X5691500Y6602105D01*
X5691500Y5316371D01*
X5671498Y5248250D01*
X5654595Y5227276D01*
X5303595Y4876276D01*
X5241283Y4842250D01*
X5170468Y4847315D01*
X5113632Y4889862D01*
X5088821Y4956382D01*
X5088500Y4965371D01*
X5088500Y5391502D01*
X5088307Y5393958D01*
X5086067Y5422421D01*
X5086066Y5422426D01*
X5085562Y5428831D01*
X5050591Y5549204D01*
X5041357Y5580988D01*
X5041356Y5580990D01*
X5039145Y5588601D01*
X5000799Y5653441D01*
X4958491Y5724980D01*
X4958489Y5724983D01*
X4954453Y5731807D01*
X4836807Y5849453D01*
X4829983Y5853489D01*
X4829980Y5853491D01*
X4700427Y5930108D01*
X4700428Y5930108D01*
X4693601Y5934145D01*
X4685990Y5936356D01*
X4685988Y5936357D01*
X4621173Y5955187D01*
X4533831Y5980562D01*
X4527426Y5981066D01*
X4527421Y5981067D01*
X4498958Y5983307D01*
X4498950Y5983307D01*
X4496502Y5983500D01*
X4063498Y5983500D01*
X4061050Y5983307D01*
X4061042Y5983307D01*
X4032579Y5981067D01*
X4032574Y5981066D01*
X4026169Y5980562D01*
X3938827Y5955187D01*
X3874012Y5936357D01*
X3874010Y5936356D01*
X3866399Y5934145D01*
X3723193Y5849453D01*
X3720511Y5846771D01*
X3656139Y5821498D01*
X3586516Y5835400D01*
X3570688Y5845572D01*
X3566807Y5849453D01*
X3423601Y5934145D01*
X3415990Y5936356D01*
X3415988Y5936357D01*
X3351173Y5955187D01*
X3263831Y5980562D01*
X3257426Y5981066D01*
X3257421Y5981067D01*
X3228958Y5983307D01*
X3228950Y5983307D01*
X3226502Y5983500D01*
X2793498Y5983500D01*
X2791050Y5983307D01*
X2791042Y5983307D01*
X2762579Y5981067D01*
X2762574Y5981066D01*
X2756169Y5980562D01*
X2668827Y5955187D01*
X2604012Y5936357D01*
X2604010Y5936356D01*
X2596399Y5934145D01*
X2453193Y5849453D01*
X2450511Y5846771D01*
X2386139Y5821498D01*
X2316516Y5835400D01*
X2300688Y5845572D01*
X2296807Y5849453D01*
X2153601Y5934145D01*
X2145990Y5936356D01*
X2145988Y5936357D01*
X2081173Y5955187D01*
X1993831Y5980562D01*
X1987426Y5981066D01*
X1987421Y5981067D01*
X1958958Y5983307D01*
X1958950Y5983307D01*
X1956502Y5983500D01*
X1523498Y5983500D01*
X1521050Y5983307D01*
X1521042Y5983307D01*
X1492579Y5981067D01*
X1492574Y5981066D01*
X1486169Y5980562D01*
X1398827Y5955187D01*
X1334012Y5936357D01*
X1334010Y5936356D01*
X1326399Y5934145D01*
X1183193Y5849453D01*
X1180511Y5846771D01*
X1116139Y5821498D01*
X1046516Y5835400D01*
X1030688Y5845572D01*
X1026807Y5849453D01*
X883601Y5934145D01*
X875990Y5936356D01*
X875988Y5936357D01*
X811173Y5955187D01*
X723831Y5980562D01*
X717426Y5981066D01*
X717421Y5981067D01*
X688958Y5983307D01*
X688950Y5983307D01*
X686502Y5983500D01*
X253498Y5983500D01*
X251050Y5983307D01*
X251042Y5983307D01*
X222579Y5981067D01*
X222574Y5981066D01*
X216169Y5980562D01*
X128827Y5955187D01*
X64012Y5936357D01*
X64010Y5936356D01*
X56399Y5934145D01*
X-86807Y5849453D01*
X-89489Y5846771D01*
X-153861Y5821498D01*
X-223484Y5835400D01*
X-239312Y5845572D01*
X-243193Y5849453D01*
X-386399Y5934145D01*
X-394010Y5936356D01*
X-394012Y5936357D01*
X-458827Y5955187D01*
X-546169Y5980562D01*
X-552574Y5981066D01*
X-552579Y5981067D01*
X-581042Y5983307D01*
X-581050Y5983307D01*
X-583498Y5983500D01*
X-1016502Y5983500D01*
X-1018950Y5983307D01*
X-1018958Y5983307D01*
X-1047421Y5981067D01*
X-1047426Y5981066D01*
X-1053831Y5980562D01*
X-1141173Y5955187D01*
X-1205988Y5936357D01*
X-1205990Y5936356D01*
X-1213601Y5934145D01*
X-1356807Y5849453D01*
X-1359489Y5846771D01*
X-1423861Y5821498D01*
X-1493484Y5835400D01*
X-1509312Y5845572D01*
X-1513193Y5849453D01*
X-1656399Y5934145D01*
X-1664010Y5936356D01*
X-1664012Y5936357D01*
X-1728827Y5955187D01*
X-1816169Y5980562D01*
X-1822574Y5981066D01*
X-1822579Y5981067D01*
X-1851042Y5983307D01*
X-1851050Y5983307D01*
X-1853498Y5983500D01*
X-2286502Y5983500D01*
X-2288950Y5983307D01*
X-2288958Y5983307D01*
X-2317421Y5981067D01*
X-2317426Y5981066D01*
X-2323831Y5980562D01*
X-2411173Y5955187D01*
X-2475988Y5936357D01*
X-2475990Y5936356D01*
X-2483601Y5934145D01*
X-2615337Y5856237D01*
X-2684151Y5838778D01*
X-2751483Y5861295D01*
X-2795883Y5916474D01*
X-2805314Y5939244D01*
X-2805317Y5939249D01*
X-2808476Y5946876D01*
X-2881522Y6042071D01*
X-2881526Y6042075D01*
X-2893641Y6057864D01*
X-2900984Y6067434D01*
X-2900987Y6067437D01*
X-2906013Y6073987D01*
X-2913592Y6079803D01*
X-2931379Y6093452D01*
X-2943770Y6104319D01*
X-3393033Y6553582D01*
X-3427059Y6615894D01*
X-3421994Y6686709D01*
X-3379447Y6743545D01*
X-3343818Y6762199D01*
X-3286732Y6781244D01*
X-3271950Y6790391D01*
X-3199624Y6835148D01*
X-3165922Y6856003D01*
X-3097471Y6874841D01*
X-3033504Y6856119D01*
X-2918120Y6784996D01*
X-2904939Y6778849D01*
X-2756186Y6729509D01*
X-2742810Y6726642D01*
X-2651903Y6717328D01*
X-2646874Y6717071D01*
X-2631876Y6721475D01*
X-2630671Y6722865D01*
X-2629000Y6730548D01*
X-2629000Y7828000D01*
X-2608998Y7896121D01*
X-2555342Y7942614D01*
X-2503000Y7954000D01*
X-2247000Y7954000D01*
X-2178879Y7933998D01*
G37*
G04 #@! TD.AperFunction*
G04 #@! TA.AperFunction,Conductor*
G36*
X-8567974Y13249856D02*
G01*
X-8540125Y13218006D01*
X-8480013Y13119912D01*
X-8333750Y12951062D01*
X-8161874Y12808368D01*
X-7969000Y12695662D01*
X-7964175Y12693820D01*
X-7964174Y12693819D01*
X-7930651Y12681018D01*
X-7760308Y12615970D01*
X-7755240Y12614939D01*
X-7755237Y12614938D01*
X-7685382Y12600726D01*
X-7541403Y12571433D01*
X-7536228Y12571243D01*
X-7536226Y12571243D01*
X-7323327Y12563436D01*
X-7323323Y12563436D01*
X-7318163Y12563247D01*
X-7313043Y12563903D01*
X-7313041Y12563903D01*
X-7239305Y12573349D01*
X-7096584Y12591632D01*
X-7091630Y12593118D01*
X-7091622Y12593120D01*
X-7022977Y12613715D01*
X-6951982Y12614133D01*
X-6897674Y12582125D01*
X-6357663Y12042114D01*
X-6323637Y11979802D01*
X-6326524Y11915343D01*
X-6376753Y11755062D01*
X-6383500Y11681635D01*
X-6383499Y11168366D01*
X-6383236Y11165508D01*
X-6383236Y11165499D01*
X-6382434Y11156770D01*
X-6376753Y11094938D01*
X-6374754Y11088560D01*
X-6374754Y11088559D01*
X-6331682Y10951118D01*
X-6325472Y10931301D01*
X-6236639Y10784619D01*
X-6141115Y10689095D01*
X-6107089Y10626783D01*
X-6112154Y10555968D01*
X-6141115Y10510905D01*
X-6236639Y10415381D01*
X-6325472Y10268699D01*
X-6327743Y10261452D01*
X-6327744Y10261450D01*
X-6342688Y10213762D01*
X-6376753Y10105062D01*
X-6383500Y10031635D01*
X-6383499Y9518366D01*
X-6376753Y9444938D01*
X-6374754Y9438560D01*
X-6374754Y9438559D01*
X-6334848Y9311221D01*
X-6325472Y9281301D01*
X-6236639Y9134619D01*
X-6115381Y9013361D01*
X-5968699Y8924528D01*
X-5961451Y8922257D01*
X-5961452Y8922257D01*
X-5838405Y8883696D01*
X-5779383Y8844238D01*
X-5751063Y8779134D01*
X-5762437Y8709055D01*
X-5809893Y8656249D01*
X-5836210Y8643938D01*
X-5906105Y8620620D01*
X-5919286Y8614445D01*
X-6052173Y8532212D01*
X-6063574Y8523176D01*
X-6173986Y8412571D01*
X-6182998Y8401160D01*
X-6265004Y8268120D01*
X-6271151Y8254939D01*
X-6320491Y8106186D01*
X-6323358Y8092810D01*
X-6332672Y8001903D01*
X-6333000Y7995486D01*
X-6333000Y7972115D01*
X-6328525Y7956876D01*
X-6327135Y7955671D01*
X-6319452Y7954000D01*
X-5247000Y7954000D01*
X-5178879Y7933998D01*
X-5132386Y7880342D01*
X-5121000Y7828000D01*
X-5121000Y7572000D01*
X-5141002Y7503879D01*
X-5194658Y7457386D01*
X-5247000Y7446000D01*
X-6314885Y7446000D01*
X-6330124Y7441525D01*
X-6331329Y7440135D01*
X-6333000Y7432452D01*
X-6333000Y7404562D01*
X-6332663Y7398047D01*
X-6323106Y7305943D01*
X-6320212Y7292544D01*
X-6270619Y7143893D01*
X-6264445Y7130714D01*
X-6180960Y6995803D01*
X-6162122Y6927351D01*
X-6183283Y6859581D01*
X-6237724Y6814010D01*
X-6288104Y6803500D01*
X-8063971Y6803500D01*
X-8080414Y6804578D01*
X-8112107Y6808750D01*
X-8120296Y6807672D01*
X-8151981Y6803501D01*
X-8151990Y6803500D01*
X-8151992Y6803500D01*
X-8151998Y6803499D01*
X-8152000Y6803499D01*
X-8251564Y6790391D01*
X-8262771Y6788916D01*
X-8262773Y6788915D01*
X-8270958Y6787838D01*
X-8418983Y6726524D01*
X-8464627Y6691500D01*
X-8514170Y6653485D01*
X-8514186Y6653471D01*
X-8539541Y6634016D01*
X-8539544Y6634013D01*
X-8546094Y6628987D01*
X-8551124Y6622432D01*
X-8565559Y6603621D01*
X-8576426Y6591230D01*
X-9623699Y5543957D01*
X-9686011Y5509931D01*
X-9750471Y5512818D01*
X-9794938Y5526753D01*
X-9868365Y5533500D01*
X-9877584Y5533500D01*
X-10326027Y5533499D01*
X-10394147Y5553501D01*
X-10440640Y5607156D01*
X-10450744Y5677430D01*
X-10421251Y5742011D01*
X-10415121Y5748594D01*
X-9334119Y6829596D01*
X-9271807Y6863622D01*
X-9245024Y6866501D01*
X-9068366Y6866501D01*
X-9065508Y6866764D01*
X-9065499Y6866764D01*
X-9029996Y6870026D01*
X-8994938Y6873247D01*
X-8900357Y6902887D01*
X-8838550Y6922256D01*
X-8838548Y6922257D01*
X-8831301Y6924528D01*
X-8684619Y7013361D01*
X-8563361Y7134619D01*
X-8474528Y7281301D01*
X-8471711Y7290288D01*
X-8449522Y7361095D01*
X-8423247Y7444938D01*
X-8416500Y7518365D01*
X-8416501Y8031634D01*
X-8416766Y8034526D01*
X-8421479Y8085819D01*
X-8423247Y8105062D01*
X-8430115Y8126978D01*
X-8472256Y8261450D01*
X-8472257Y8261452D01*
X-8474528Y8268699D01*
X-8563361Y8415381D01*
X-8658885Y8510905D01*
X-8692911Y8573217D01*
X-8687846Y8644032D01*
X-8658885Y8689095D01*
X-8563361Y8784619D01*
X-8474528Y8931301D01*
X-8470280Y8944854D01*
X-8439216Y9043982D01*
X-8423247Y9094938D01*
X-8416500Y9168365D01*
X-8416501Y9681634D01*
X-8416766Y9684526D01*
X-8420196Y9721854D01*
X-8423247Y9755062D01*
X-8455155Y9856880D01*
X-8472256Y9911450D01*
X-8472257Y9911452D01*
X-8474528Y9918699D01*
X-8563361Y10065381D01*
X-8684619Y10186639D01*
X-8729408Y10213764D01*
X-8777313Y10266159D01*
X-8789058Y10337984D01*
X-8787328Y10351125D01*
X-8786250Y10359314D01*
X-8791500Y10399194D01*
X-8791500Y10399199D01*
X-8807162Y10518164D01*
X-8812709Y10531556D01*
X-8868476Y10666190D01*
X-8892869Y10697980D01*
X-8941517Y10761378D01*
X-8941523Y10761386D01*
X-8941526Y10761389D01*
X-8966013Y10793301D01*
X-8979432Y10803598D01*
X-8991379Y10812766D01*
X-9003770Y10823633D01*
X-9274595Y11094458D01*
X-9308621Y11156770D01*
X-9311500Y11183553D01*
X-9311500Y12631681D01*
X-9291498Y12699802D01*
X-9240932Y12744832D01*
X-9234246Y12748107D01*
X-9226647Y12751830D01*
X-9226643Y12751832D01*
X-9222006Y12754104D01*
X-9217802Y12757102D01*
X-9217798Y12757105D01*
X-9128068Y12821109D01*
X-9040140Y12883827D01*
X-8980665Y12943094D01*
X-8896600Y13026866D01*
X-8881904Y13041511D01*
X-8751547Y13222923D01*
X-8750224Y13221972D01*
X-8703355Y13265143D01*
X-8633420Y13277375D01*
X-8567974Y13249856D01*
G37*
G04 #@! TD.AperFunction*
M02*
