G04 #@! TF.GenerationSoftware,KiCad,Pcbnew,6.0.11-2627ca5db0~126~ubuntu22.04.1*
G04 #@! TF.CreationDate,2023-08-03T02:59:47+02:00*
G04 #@! TF.ProjectId,OpenCyphalPicoBase,4f70656e-4379-4706-9861-6c5069636f42,0.2*
G04 #@! TF.SameCoordinates,Original*
G04 #@! TF.FileFunction,Legend,Bot*
G04 #@! TF.FilePolarity,Positive*
%FSLAX46Y46*%
G04 Gerber Fmt 4.6, Leading zero omitted, Abs format (unit mm)*
G04 Created by KiCad (PCBNEW 6.0.11-2627ca5db0~126~ubuntu22.04.1) date 2023-08-03 02:59:47*
%MOMM*%
%LPD*%
G01*
G04 APERTURE LIST*
G04 Aperture macros list*
%AMRoundRect*
0 Rectangle with rounded corners*
0 $1 Rounding radius*
0 $2 $3 $4 $5 $6 $7 $8 $9 X,Y pos of 4 corners*
0 Add a 4 corners polygon primitive as box body*
4,1,4,$2,$3,$4,$5,$6,$7,$8,$9,$2,$3,0*
0 Add four circle primitives for the rounded corners*
1,1,$1+$1,$2,$3*
1,1,$1+$1,$4,$5*
1,1,$1+$1,$6,$7*
1,1,$1+$1,$8,$9*
0 Add four rect primitives between the rounded corners*
20,1,$1+$1,$2,$3,$4,$5,0*
20,1,$1+$1,$4,$5,$6,$7,0*
20,1,$1+$1,$6,$7,$8,$9,0*
20,1,$1+$1,$8,$9,$2,$3,0*%
G04 Aperture macros list end*
%ADD10C,0.250000*%
%ADD11C,0.150000*%
%ADD12C,0.120000*%
%ADD13C,0.010000*%
%ADD14C,5.902000*%
%ADD15RoundRect,0.051000X-0.850000X0.850000X-0.850000X-0.850000X0.850000X-0.850000X0.850000X0.850000X0*%
%ADD16O,1.802000X1.802000*%
%ADD17C,2.302000*%
%ADD18RoundRect,0.051000X0.850000X-0.850000X0.850000X0.850000X-0.850000X0.850000X-0.850000X-0.850000X0*%
%ADD19C,1.702000*%
%ADD20RoundRect,0.051000X0.762000X-1.000000X0.762000X1.000000X-0.762000X1.000000X-0.762000X-1.000000X0*%
%ADD21RoundRect,0.051000X0.800000X-0.800000X0.800000X0.800000X-0.800000X0.800000X-0.800000X-0.800000X0*%
G04 APERTURE END LIST*
D10*
X76080952Y-88647380D02*
X76080952Y-89456904D01*
X76033333Y-89552142D01*
X75985714Y-89599761D01*
X75890476Y-89647380D01*
X75700000Y-89647380D01*
X75604761Y-89599761D01*
X75557142Y-89552142D01*
X75509523Y-89456904D01*
X75509523Y-88647380D01*
X75080952Y-89599761D02*
X74938095Y-89647380D01*
X74700000Y-89647380D01*
X74604761Y-89599761D01*
X74557142Y-89552142D01*
X74509523Y-89456904D01*
X74509523Y-89361666D01*
X74557142Y-89266428D01*
X74604761Y-89218809D01*
X74700000Y-89171190D01*
X74890476Y-89123571D01*
X74985714Y-89075952D01*
X75033333Y-89028333D01*
X75080952Y-88933095D01*
X75080952Y-88837857D01*
X75033333Y-88742619D01*
X74985714Y-88695000D01*
X74890476Y-88647380D01*
X74652380Y-88647380D01*
X74509523Y-88695000D01*
X73747619Y-89123571D02*
X73604761Y-89171190D01*
X73557142Y-89218809D01*
X73509523Y-89314047D01*
X73509523Y-89456904D01*
X73557142Y-89552142D01*
X73604761Y-89599761D01*
X73700000Y-89647380D01*
X74080952Y-89647380D01*
X74080952Y-88647380D01*
X73747619Y-88647380D01*
X73652380Y-88695000D01*
X73604761Y-88742619D01*
X73557142Y-88837857D01*
X73557142Y-88933095D01*
X73604761Y-89028333D01*
X73652380Y-89075952D01*
X73747619Y-89123571D01*
X74080952Y-89123571D01*
X72319047Y-89266428D02*
X71557142Y-89266428D01*
X71080952Y-88980714D02*
X70319047Y-89266428D01*
X71080952Y-89552142D01*
X78152380Y-90590714D02*
X77771428Y-90590714D01*
X78009523Y-90257380D02*
X78009523Y-91114523D01*
X77961904Y-91209761D01*
X77866666Y-91257380D01*
X77771428Y-91257380D01*
X77438095Y-91257380D02*
X77438095Y-90257380D01*
X77009523Y-91257380D02*
X77009523Y-90733571D01*
X77057142Y-90638333D01*
X77152380Y-90590714D01*
X77295238Y-90590714D01*
X77390476Y-90638333D01*
X77438095Y-90685952D01*
X76533333Y-91257380D02*
X76533333Y-90590714D01*
X76533333Y-90257380D02*
X76580952Y-90305000D01*
X76533333Y-90352619D01*
X76485714Y-90305000D01*
X76533333Y-90257380D01*
X76533333Y-90352619D01*
X76104761Y-91209761D02*
X76009523Y-91257380D01*
X75819047Y-91257380D01*
X75723809Y-91209761D01*
X75676190Y-91114523D01*
X75676190Y-91066904D01*
X75723809Y-90971666D01*
X75819047Y-90924047D01*
X75961904Y-90924047D01*
X76057142Y-90876428D01*
X76104761Y-90781190D01*
X76104761Y-90733571D01*
X76057142Y-90638333D01*
X75961904Y-90590714D01*
X75819047Y-90590714D01*
X75723809Y-90638333D01*
X74057142Y-91257380D02*
X74057142Y-90257380D01*
X74057142Y-91209761D02*
X74152380Y-91257380D01*
X74342857Y-91257380D01*
X74438095Y-91209761D01*
X74485714Y-91162142D01*
X74533333Y-91066904D01*
X74533333Y-90781190D01*
X74485714Y-90685952D01*
X74438095Y-90638333D01*
X74342857Y-90590714D01*
X74152380Y-90590714D01*
X74057142Y-90638333D01*
X73580952Y-91257380D02*
X73580952Y-90590714D01*
X73580952Y-90257380D02*
X73628571Y-90305000D01*
X73580952Y-90352619D01*
X73533333Y-90305000D01*
X73580952Y-90257380D01*
X73580952Y-90352619D01*
X73104761Y-91257380D02*
X73104761Y-90590714D01*
X73104761Y-90781190D02*
X73057142Y-90685952D01*
X73009523Y-90638333D01*
X72914285Y-90590714D01*
X72819047Y-90590714D01*
X72104761Y-91209761D02*
X72200000Y-91257380D01*
X72390476Y-91257380D01*
X72485714Y-91209761D01*
X72533333Y-91114523D01*
X72533333Y-90733571D01*
X72485714Y-90638333D01*
X72390476Y-90590714D01*
X72200000Y-90590714D01*
X72104761Y-90638333D01*
X72057142Y-90733571D01*
X72057142Y-90828809D01*
X72533333Y-90924047D01*
X71200000Y-91209761D02*
X71295238Y-91257380D01*
X71485714Y-91257380D01*
X71580952Y-91209761D01*
X71628571Y-91162142D01*
X71676190Y-91066904D01*
X71676190Y-90781190D01*
X71628571Y-90685952D01*
X71580952Y-90638333D01*
X71485714Y-90590714D01*
X71295238Y-90590714D01*
X71200000Y-90638333D01*
X70914285Y-90590714D02*
X70533333Y-90590714D01*
X70771428Y-90257380D02*
X70771428Y-91114523D01*
X70723809Y-91209761D01*
X70628571Y-91257380D01*
X70533333Y-91257380D01*
X70200000Y-91257380D02*
X70200000Y-90590714D01*
X70200000Y-90257380D02*
X70247619Y-90305000D01*
X70200000Y-90352619D01*
X70152380Y-90305000D01*
X70200000Y-90257380D01*
X70200000Y-90352619D01*
X69580952Y-91257380D02*
X69676190Y-91209761D01*
X69723809Y-91162142D01*
X69771428Y-91066904D01*
X69771428Y-90781190D01*
X69723809Y-90685952D01*
X69676190Y-90638333D01*
X69580952Y-90590714D01*
X69438095Y-90590714D01*
X69342857Y-90638333D01*
X69295238Y-90685952D01*
X69247619Y-90781190D01*
X69247619Y-91066904D01*
X69295238Y-91162142D01*
X69342857Y-91209761D01*
X69438095Y-91257380D01*
X69580952Y-91257380D01*
X68819047Y-90590714D02*
X68819047Y-91257380D01*
X68819047Y-90685952D02*
X68771428Y-90638333D01*
X68676190Y-90590714D01*
X68533333Y-90590714D01*
X68438095Y-90638333D01*
X68390476Y-90733571D01*
X68390476Y-91257380D01*
D11*
X77642857Y-77971428D02*
X77442857Y-78571428D01*
X77242857Y-77971428D01*
X77185714Y-78628571D02*
X76728571Y-78628571D01*
X76585714Y-78571428D02*
X76585714Y-77971428D01*
X76300000Y-78571428D02*
X76300000Y-77971428D01*
X75957142Y-78571428D01*
X75957142Y-77971428D01*
X75071428Y-78771428D02*
X75071428Y-77914285D01*
X73871428Y-78000000D02*
X73928571Y-77971428D01*
X74014285Y-77971428D01*
X74100000Y-78000000D01*
X74157142Y-78057142D01*
X74185714Y-78114285D01*
X74214285Y-78228571D01*
X74214285Y-78314285D01*
X74185714Y-78428571D01*
X74157142Y-78485714D01*
X74100000Y-78542857D01*
X74014285Y-78571428D01*
X73957142Y-78571428D01*
X73871428Y-78542857D01*
X73842857Y-78514285D01*
X73842857Y-78314285D01*
X73957142Y-78314285D01*
X73585714Y-78571428D02*
X73585714Y-77971428D01*
X73242857Y-78571428D01*
X73242857Y-77971428D01*
X72957142Y-78571428D02*
X72957142Y-77971428D01*
X72814285Y-77971428D01*
X72728571Y-78000000D01*
X72671428Y-78057142D01*
X72642857Y-78114285D01*
X72614285Y-78228571D01*
X72614285Y-78314285D01*
X72642857Y-78428571D01*
X72671428Y-78485714D01*
X72728571Y-78542857D01*
X72814285Y-78571428D01*
X72957142Y-78571428D01*
X85100000Y-76873928D02*
X85100000Y-77159642D01*
X85271428Y-76816785D02*
X84671428Y-77016785D01*
X85271428Y-77216785D01*
X85271428Y-77416785D02*
X84671428Y-77416785D01*
X85271428Y-77759642D01*
X84671428Y-77759642D01*
X85100000Y-78016785D02*
X85100000Y-78302500D01*
X85271428Y-77959642D02*
X84671428Y-78159642D01*
X85271428Y-78359642D01*
X85271428Y-78845357D02*
X85271428Y-78559642D01*
X84671428Y-78559642D01*
X84671428Y-79159642D02*
X84671428Y-79273928D01*
X84700000Y-79331071D01*
X84757142Y-79388214D01*
X84871428Y-79416785D01*
X85071428Y-79416785D01*
X85185714Y-79388214D01*
X85242857Y-79331071D01*
X85271428Y-79273928D01*
X85271428Y-79159642D01*
X85242857Y-79102500D01*
X85185714Y-79045357D01*
X85071428Y-79016785D01*
X84871428Y-79016785D01*
X84757142Y-79045357D01*
X84700000Y-79102500D01*
X84671428Y-79159642D01*
X84700000Y-79988214D02*
X84671428Y-79931071D01*
X84671428Y-79845357D01*
X84700000Y-79759642D01*
X84757142Y-79702500D01*
X84814285Y-79673928D01*
X84928571Y-79645357D01*
X85014285Y-79645357D01*
X85128571Y-79673928D01*
X85185714Y-79702500D01*
X85242857Y-79759642D01*
X85271428Y-79845357D01*
X85271428Y-79902500D01*
X85242857Y-79988214D01*
X85214285Y-80016785D01*
X85014285Y-80016785D01*
X85014285Y-79902500D01*
X84671428Y-80388214D02*
X84671428Y-80445357D01*
X84700000Y-80502500D01*
X84728571Y-80531071D01*
X84785714Y-80559642D01*
X84900000Y-80588214D01*
X85042857Y-80588214D01*
X85157142Y-80559642D01*
X85214285Y-80531071D01*
X85242857Y-80502500D01*
X85271428Y-80445357D01*
X85271428Y-80388214D01*
X85242857Y-80331071D01*
X85214285Y-80302500D01*
X85157142Y-80273928D01*
X85042857Y-80245357D01*
X84900000Y-80245357D01*
X84785714Y-80273928D01*
X84728571Y-80302500D01*
X84700000Y-80331071D01*
X84671428Y-80388214D01*
X87771428Y-77673928D02*
X87171428Y-77673928D01*
X87771428Y-77959642D02*
X87171428Y-77959642D01*
X87771428Y-78302500D01*
X87171428Y-78302500D01*
X87771428Y-78588214D02*
X87171428Y-78588214D01*
X87171428Y-78816785D01*
X87200000Y-78873928D01*
X87228571Y-78902500D01*
X87285714Y-78931071D01*
X87371428Y-78931071D01*
X87428571Y-78902500D01*
X87457142Y-78873928D01*
X87485714Y-78816785D01*
X87485714Y-78588214D01*
X87171428Y-79188214D02*
X87657142Y-79188214D01*
X87714285Y-79216785D01*
X87742857Y-79245357D01*
X87771428Y-79302500D01*
X87771428Y-79416785D01*
X87742857Y-79473928D01*
X87714285Y-79502500D01*
X87657142Y-79531071D01*
X87171428Y-79531071D01*
X87171428Y-79731071D02*
X87171428Y-80073928D01*
X87771428Y-79902500D02*
X87171428Y-79902500D01*
X87171428Y-80388214D02*
X87171428Y-80445357D01*
X87200000Y-80502500D01*
X87228571Y-80531071D01*
X87285714Y-80559642D01*
X87400000Y-80588214D01*
X87542857Y-80588214D01*
X87657142Y-80559642D01*
X87714285Y-80531071D01*
X87742857Y-80502500D01*
X87771428Y-80445357D01*
X87771428Y-80388214D01*
X87742857Y-80331071D01*
X87714285Y-80302500D01*
X87657142Y-80273928D01*
X87542857Y-80245357D01*
X87400000Y-80245357D01*
X87285714Y-80273928D01*
X87228571Y-80302500D01*
X87200000Y-80331071D01*
X87171428Y-80388214D01*
X99871428Y-77088214D02*
X99871428Y-77202500D01*
X99900000Y-77259642D01*
X99957142Y-77316785D01*
X100071428Y-77345357D01*
X100271428Y-77345357D01*
X100385714Y-77316785D01*
X100442857Y-77259642D01*
X100471428Y-77202500D01*
X100471428Y-77088214D01*
X100442857Y-77031071D01*
X100385714Y-76973928D01*
X100271428Y-76945357D01*
X100071428Y-76945357D01*
X99957142Y-76973928D01*
X99900000Y-77031071D01*
X99871428Y-77088214D01*
X99871428Y-77602500D02*
X100357142Y-77602500D01*
X100414285Y-77631071D01*
X100442857Y-77659642D01*
X100471428Y-77716785D01*
X100471428Y-77831071D01*
X100442857Y-77888214D01*
X100414285Y-77916785D01*
X100357142Y-77945357D01*
X99871428Y-77945357D01*
X99871428Y-78145357D02*
X99871428Y-78488214D01*
X100471428Y-78316785D02*
X99871428Y-78316785D01*
X100471428Y-78688214D02*
X99871428Y-78688214D01*
X99871428Y-78916785D01*
X99900000Y-78973928D01*
X99928571Y-79002500D01*
X99985714Y-79031071D01*
X100071428Y-79031071D01*
X100128571Y-79002500D01*
X100157142Y-78973928D01*
X100185714Y-78916785D01*
X100185714Y-78688214D01*
X99871428Y-79288214D02*
X100357142Y-79288214D01*
X100414285Y-79316785D01*
X100442857Y-79345357D01*
X100471428Y-79402500D01*
X100471428Y-79516785D01*
X100442857Y-79573928D01*
X100414285Y-79602500D01*
X100357142Y-79631071D01*
X99871428Y-79631071D01*
X99871428Y-79831071D02*
X99871428Y-80173928D01*
X100471428Y-80002500D02*
X99871428Y-80002500D01*
X100471428Y-80688214D02*
X100471428Y-80345357D01*
X100471428Y-80516785D02*
X99871428Y-80516785D01*
X99957142Y-80459642D01*
X100014285Y-80402500D01*
X100042857Y-80345357D01*
X100488214Y-106142857D02*
X100402500Y-106171428D01*
X100259642Y-106171428D01*
X100202500Y-106142857D01*
X100173928Y-106114285D01*
X100145357Y-106057142D01*
X100145357Y-106000000D01*
X100173928Y-105942857D01*
X100202500Y-105914285D01*
X100259642Y-105885714D01*
X100373928Y-105857142D01*
X100431071Y-105828571D01*
X100459642Y-105800000D01*
X100488214Y-105742857D01*
X100488214Y-105685714D01*
X100459642Y-105628571D01*
X100431071Y-105600000D01*
X100373928Y-105571428D01*
X100231071Y-105571428D01*
X100145357Y-105600000D01*
X99888214Y-105857142D02*
X99688214Y-105857142D01*
X99602500Y-106171428D02*
X99888214Y-106171428D01*
X99888214Y-105571428D01*
X99602500Y-105571428D01*
X99002500Y-106171428D02*
X99202500Y-105885714D01*
X99345357Y-106171428D02*
X99345357Y-105571428D01*
X99116785Y-105571428D01*
X99059642Y-105600000D01*
X99031071Y-105628571D01*
X99002500Y-105685714D01*
X99002500Y-105771428D01*
X99031071Y-105828571D01*
X99059642Y-105857142D01*
X99116785Y-105885714D01*
X99345357Y-105885714D01*
X98831071Y-105571428D02*
X98631071Y-106171428D01*
X98431071Y-105571428D01*
X98116785Y-105571428D02*
X98002500Y-105571428D01*
X97945357Y-105600000D01*
X97888214Y-105657142D01*
X97859642Y-105771428D01*
X97859642Y-105971428D01*
X97888214Y-106085714D01*
X97945357Y-106142857D01*
X98002500Y-106171428D01*
X98116785Y-106171428D01*
X98173928Y-106142857D01*
X98231071Y-106085714D01*
X98259642Y-105971428D01*
X98259642Y-105771428D01*
X98231071Y-105657142D01*
X98173928Y-105600000D01*
X98116785Y-105571428D01*
X97288214Y-106171428D02*
X97631071Y-106171428D01*
X97459642Y-106171428D02*
X97459642Y-105571428D01*
X97516785Y-105657142D01*
X97573928Y-105714285D01*
X97631071Y-105742857D01*
X107016785Y-79871428D02*
X107216785Y-79585714D01*
X107359642Y-79871428D02*
X107359642Y-79271428D01*
X107131071Y-79271428D01*
X107073928Y-79300000D01*
X107045357Y-79328571D01*
X107016785Y-79385714D01*
X107016785Y-79471428D01*
X107045357Y-79528571D01*
X107073928Y-79557142D01*
X107131071Y-79585714D01*
X107359642Y-79585714D01*
X106759642Y-79557142D02*
X106559642Y-79557142D01*
X106473928Y-79871428D02*
X106759642Y-79871428D01*
X106759642Y-79271428D01*
X106473928Y-79271428D01*
X106245357Y-79842857D02*
X106159642Y-79871428D01*
X106016785Y-79871428D01*
X105959642Y-79842857D01*
X105931071Y-79814285D01*
X105902500Y-79757142D01*
X105902500Y-79700000D01*
X105931071Y-79642857D01*
X105959642Y-79614285D01*
X106016785Y-79585714D01*
X106131071Y-79557142D01*
X106188214Y-79528571D01*
X106216785Y-79500000D01*
X106245357Y-79442857D01*
X106245357Y-79385714D01*
X106216785Y-79328571D01*
X106188214Y-79300000D01*
X106131071Y-79271428D01*
X105988214Y-79271428D01*
X105902500Y-79300000D01*
X105645357Y-79557142D02*
X105445357Y-79557142D01*
X105359642Y-79871428D02*
X105645357Y-79871428D01*
X105645357Y-79271428D01*
X105359642Y-79271428D01*
X104759642Y-79871428D02*
X104959642Y-79585714D01*
X105102500Y-79871428D02*
X105102500Y-79271428D01*
X104873928Y-79271428D01*
X104816785Y-79300000D01*
X104788214Y-79328571D01*
X104759642Y-79385714D01*
X104759642Y-79471428D01*
X104788214Y-79528571D01*
X104816785Y-79557142D01*
X104873928Y-79585714D01*
X105102500Y-79585714D01*
X104588214Y-79271428D02*
X104388214Y-79871428D01*
X104188214Y-79271428D01*
X103988214Y-79557142D02*
X103788214Y-79557142D01*
X103702500Y-79871428D02*
X103988214Y-79871428D01*
X103988214Y-79271428D01*
X103702500Y-79271428D01*
X103445357Y-79871428D02*
X103445357Y-79271428D01*
X103302500Y-79271428D01*
X103216785Y-79300000D01*
X103159642Y-79357142D01*
X103131071Y-79414285D01*
X103102500Y-79528571D01*
X103102500Y-79614285D01*
X103131071Y-79728571D01*
X103159642Y-79785714D01*
X103216785Y-79842857D01*
X103302500Y-79871428D01*
X103445357Y-79871428D01*
X102731071Y-79271428D02*
X102673928Y-79271428D01*
X102616785Y-79300000D01*
X102588214Y-79328571D01*
X102559642Y-79385714D01*
X102531071Y-79500000D01*
X102531071Y-79642857D01*
X102559642Y-79757142D01*
X102588214Y-79814285D01*
X102616785Y-79842857D01*
X102673928Y-79871428D01*
X102731071Y-79871428D01*
X102788214Y-79842857D01*
X102816785Y-79814285D01*
X102845357Y-79757142D01*
X102873928Y-79642857D01*
X102873928Y-79500000D01*
X102845357Y-79385714D01*
X102816785Y-79328571D01*
X102788214Y-79300000D01*
X102731071Y-79271428D01*
X107459642Y-77171428D02*
X107459642Y-76571428D01*
X107116785Y-77171428D01*
X107116785Y-76571428D01*
X106831071Y-76857142D02*
X106631071Y-76857142D01*
X106545357Y-77171428D02*
X106831071Y-77171428D01*
X106831071Y-76571428D01*
X106545357Y-76571428D01*
X106173928Y-76571428D02*
X106059642Y-76571428D01*
X106002500Y-76600000D01*
X105945357Y-76657142D01*
X105916785Y-76771428D01*
X105916785Y-76971428D01*
X105945357Y-77085714D01*
X106002500Y-77142857D01*
X106059642Y-77171428D01*
X106173928Y-77171428D01*
X106231071Y-77142857D01*
X106288214Y-77085714D01*
X106316785Y-76971428D01*
X106316785Y-76771428D01*
X106288214Y-76657142D01*
X106231071Y-76600000D01*
X106173928Y-76571428D01*
X105659642Y-77171428D02*
X105659642Y-76571428D01*
X105431071Y-76571428D01*
X105373928Y-76600000D01*
X105345357Y-76628571D01*
X105316785Y-76685714D01*
X105316785Y-76771428D01*
X105345357Y-76828571D01*
X105373928Y-76857142D01*
X105431071Y-76885714D01*
X105659642Y-76885714D01*
X105059642Y-77171428D02*
X105059642Y-76571428D01*
X104831071Y-76571428D02*
X104431071Y-77171428D01*
X104431071Y-76571428D02*
X104831071Y-77171428D01*
X104202500Y-76857142D02*
X104002500Y-76857142D01*
X103916785Y-77171428D02*
X104202500Y-77171428D01*
X104202500Y-76571428D01*
X103916785Y-76571428D01*
X103373928Y-77171428D02*
X103659642Y-77171428D01*
X103659642Y-76571428D01*
X82500000Y-76873928D02*
X82500000Y-77159642D01*
X82671428Y-76816785D02*
X82071428Y-77016785D01*
X82671428Y-77216785D01*
X82671428Y-77416785D02*
X82071428Y-77416785D01*
X82671428Y-77759642D01*
X82071428Y-77759642D01*
X82500000Y-78016785D02*
X82500000Y-78302500D01*
X82671428Y-77959642D02*
X82071428Y-78159642D01*
X82671428Y-78359642D01*
X82671428Y-78845357D02*
X82671428Y-78559642D01*
X82071428Y-78559642D01*
X82071428Y-79159642D02*
X82071428Y-79273928D01*
X82100000Y-79331071D01*
X82157142Y-79388214D01*
X82271428Y-79416785D01*
X82471428Y-79416785D01*
X82585714Y-79388214D01*
X82642857Y-79331071D01*
X82671428Y-79273928D01*
X82671428Y-79159642D01*
X82642857Y-79102500D01*
X82585714Y-79045357D01*
X82471428Y-79016785D01*
X82271428Y-79016785D01*
X82157142Y-79045357D01*
X82100000Y-79102500D01*
X82071428Y-79159642D01*
X82100000Y-79988214D02*
X82071428Y-79931071D01*
X82071428Y-79845357D01*
X82100000Y-79759642D01*
X82157142Y-79702500D01*
X82214285Y-79673928D01*
X82328571Y-79645357D01*
X82414285Y-79645357D01*
X82528571Y-79673928D01*
X82585714Y-79702500D01*
X82642857Y-79759642D01*
X82671428Y-79845357D01*
X82671428Y-79902500D01*
X82642857Y-79988214D01*
X82614285Y-80016785D01*
X82414285Y-80016785D01*
X82414285Y-79902500D01*
X82671428Y-80588214D02*
X82671428Y-80245357D01*
X82671428Y-80416785D02*
X82071428Y-80416785D01*
X82157142Y-80359642D01*
X82214285Y-80302500D01*
X82242857Y-80245357D01*
X100488214Y-108642857D02*
X100402500Y-108671428D01*
X100259642Y-108671428D01*
X100202500Y-108642857D01*
X100173928Y-108614285D01*
X100145357Y-108557142D01*
X100145357Y-108500000D01*
X100173928Y-108442857D01*
X100202500Y-108414285D01*
X100259642Y-108385714D01*
X100373928Y-108357142D01*
X100431071Y-108328571D01*
X100459642Y-108300000D01*
X100488214Y-108242857D01*
X100488214Y-108185714D01*
X100459642Y-108128571D01*
X100431071Y-108100000D01*
X100373928Y-108071428D01*
X100231071Y-108071428D01*
X100145357Y-108100000D01*
X99888214Y-108357142D02*
X99688214Y-108357142D01*
X99602500Y-108671428D02*
X99888214Y-108671428D01*
X99888214Y-108071428D01*
X99602500Y-108071428D01*
X99002500Y-108671428D02*
X99202500Y-108385714D01*
X99345357Y-108671428D02*
X99345357Y-108071428D01*
X99116785Y-108071428D01*
X99059642Y-108100000D01*
X99031071Y-108128571D01*
X99002500Y-108185714D01*
X99002500Y-108271428D01*
X99031071Y-108328571D01*
X99059642Y-108357142D01*
X99116785Y-108385714D01*
X99345357Y-108385714D01*
X98831071Y-108071428D02*
X98631071Y-108671428D01*
X98431071Y-108071428D01*
X98116785Y-108071428D02*
X98002500Y-108071428D01*
X97945357Y-108100000D01*
X97888214Y-108157142D01*
X97859642Y-108271428D01*
X97859642Y-108471428D01*
X97888214Y-108585714D01*
X97945357Y-108642857D01*
X98002500Y-108671428D01*
X98116785Y-108671428D01*
X98173928Y-108642857D01*
X98231071Y-108585714D01*
X98259642Y-108471428D01*
X98259642Y-108271428D01*
X98231071Y-108157142D01*
X98173928Y-108100000D01*
X98116785Y-108071428D01*
X97488214Y-108071428D02*
X97431071Y-108071428D01*
X97373928Y-108100000D01*
X97345357Y-108128571D01*
X97316785Y-108185714D01*
X97288214Y-108300000D01*
X97288214Y-108442857D01*
X97316785Y-108557142D01*
X97345357Y-108614285D01*
X97373928Y-108642857D01*
X97431071Y-108671428D01*
X97488214Y-108671428D01*
X97545357Y-108642857D01*
X97573928Y-108614285D01*
X97602500Y-108557142D01*
X97631071Y-108442857D01*
X97631071Y-108300000D01*
X97602500Y-108185714D01*
X97573928Y-108128571D01*
X97545357Y-108100000D01*
X97488214Y-108071428D01*
X92871428Y-77673928D02*
X92271428Y-77673928D01*
X92871428Y-77959642D02*
X92271428Y-77959642D01*
X92871428Y-78302500D01*
X92271428Y-78302500D01*
X92871428Y-78588214D02*
X92271428Y-78588214D01*
X92271428Y-78816785D01*
X92300000Y-78873928D01*
X92328571Y-78902500D01*
X92385714Y-78931071D01*
X92471428Y-78931071D01*
X92528571Y-78902500D01*
X92557142Y-78873928D01*
X92585714Y-78816785D01*
X92585714Y-78588214D01*
X92271428Y-79188214D02*
X92757142Y-79188214D01*
X92814285Y-79216785D01*
X92842857Y-79245357D01*
X92871428Y-79302500D01*
X92871428Y-79416785D01*
X92842857Y-79473928D01*
X92814285Y-79502500D01*
X92757142Y-79531071D01*
X92271428Y-79531071D01*
X92271428Y-79731071D02*
X92271428Y-80073928D01*
X92871428Y-79902500D02*
X92271428Y-79902500D01*
X92328571Y-80245357D02*
X92300000Y-80273928D01*
X92271428Y-80331071D01*
X92271428Y-80473928D01*
X92300000Y-80531071D01*
X92328571Y-80559642D01*
X92385714Y-80588214D01*
X92442857Y-80588214D01*
X92528571Y-80559642D01*
X92871428Y-80216785D01*
X92871428Y-80588214D01*
X96145357Y-104888428D02*
X95916785Y-104888428D01*
X96059642Y-105288428D02*
X96059642Y-104774142D01*
X96031071Y-104717000D01*
X95973928Y-104688428D01*
X95916785Y-104688428D01*
X95716785Y-105288428D02*
X95716785Y-104888428D01*
X95716785Y-104688428D02*
X95745357Y-104717000D01*
X95716785Y-104745571D01*
X95688214Y-104717000D01*
X95716785Y-104688428D01*
X95716785Y-104745571D01*
X95431071Y-104888428D02*
X95431071Y-105288428D01*
X95431071Y-104945571D02*
X95402500Y-104917000D01*
X95345357Y-104888428D01*
X95259642Y-104888428D01*
X95202500Y-104917000D01*
X95173928Y-104974142D01*
X95173928Y-105288428D01*
X94631071Y-105288428D02*
X94631071Y-104688428D01*
X94631071Y-105259857D02*
X94688214Y-105288428D01*
X94802500Y-105288428D01*
X94859642Y-105259857D01*
X94888214Y-105231285D01*
X94916785Y-105174142D01*
X94916785Y-105002714D01*
X94888214Y-104945571D01*
X94859642Y-104917000D01*
X94802500Y-104888428D01*
X94688214Y-104888428D01*
X94631071Y-104917000D01*
X93631071Y-105288428D02*
X93631071Y-104688428D01*
X93631071Y-105259857D02*
X93688214Y-105288428D01*
X93802500Y-105288428D01*
X93859642Y-105259857D01*
X93888214Y-105231285D01*
X93916785Y-105174142D01*
X93916785Y-105002714D01*
X93888214Y-104945571D01*
X93859642Y-104917000D01*
X93802500Y-104888428D01*
X93688214Y-104888428D01*
X93631071Y-104917000D01*
X93088214Y-105288428D02*
X93088214Y-104974142D01*
X93116785Y-104917000D01*
X93173928Y-104888428D01*
X93288214Y-104888428D01*
X93345357Y-104917000D01*
X93088214Y-105259857D02*
X93145357Y-105288428D01*
X93288214Y-105288428D01*
X93345357Y-105259857D01*
X93373928Y-105202714D01*
X93373928Y-105145571D01*
X93345357Y-105088428D01*
X93288214Y-105059857D01*
X93145357Y-105059857D01*
X93088214Y-105031285D01*
X92888214Y-104888428D02*
X92659642Y-104888428D01*
X92802500Y-104688428D02*
X92802500Y-105202714D01*
X92773928Y-105259857D01*
X92716785Y-105288428D01*
X92659642Y-105288428D01*
X92202500Y-105288428D02*
X92202500Y-104974142D01*
X92231071Y-104917000D01*
X92288214Y-104888428D01*
X92402500Y-104888428D01*
X92459642Y-104917000D01*
X92202500Y-105259857D02*
X92259642Y-105288428D01*
X92402500Y-105288428D01*
X92459642Y-105259857D01*
X92488214Y-105202714D01*
X92488214Y-105145571D01*
X92459642Y-105088428D01*
X92402500Y-105059857D01*
X92259642Y-105059857D01*
X92202500Y-105031285D01*
X91202500Y-105288428D02*
X91202500Y-104974142D01*
X91231071Y-104917000D01*
X91288214Y-104888428D01*
X91402500Y-104888428D01*
X91459642Y-104917000D01*
X91202500Y-105259857D02*
X91259642Y-105288428D01*
X91402500Y-105288428D01*
X91459642Y-105259857D01*
X91488214Y-105202714D01*
X91488214Y-105145571D01*
X91459642Y-105088428D01*
X91402500Y-105059857D01*
X91259642Y-105059857D01*
X91202500Y-105031285D01*
X90916785Y-104888428D02*
X90916785Y-105288428D01*
X90916785Y-104945571D02*
X90888214Y-104917000D01*
X90831071Y-104888428D01*
X90745357Y-104888428D01*
X90688214Y-104917000D01*
X90659642Y-104974142D01*
X90659642Y-105288428D01*
X90116785Y-105288428D02*
X90116785Y-104688428D01*
X90116785Y-105259857D02*
X90173928Y-105288428D01*
X90288214Y-105288428D01*
X90345357Y-105259857D01*
X90373928Y-105231285D01*
X90402500Y-105174142D01*
X90402500Y-105002714D01*
X90373928Y-104945571D01*
X90345357Y-104917000D01*
X90288214Y-104888428D01*
X90173928Y-104888428D01*
X90116785Y-104917000D01*
X89116785Y-105288428D02*
X89116785Y-104688428D01*
X89116785Y-105259857D02*
X89173928Y-105288428D01*
X89288214Y-105288428D01*
X89345357Y-105259857D01*
X89373928Y-105231285D01*
X89402500Y-105174142D01*
X89402500Y-105002714D01*
X89373928Y-104945571D01*
X89345357Y-104917000D01*
X89288214Y-104888428D01*
X89173928Y-104888428D01*
X89116785Y-104917000D01*
X88745357Y-105288428D02*
X88802500Y-105259857D01*
X88831071Y-105231285D01*
X88859642Y-105174142D01*
X88859642Y-105002714D01*
X88831071Y-104945571D01*
X88802500Y-104917000D01*
X88745357Y-104888428D01*
X88659642Y-104888428D01*
X88602500Y-104917000D01*
X88573928Y-104945571D01*
X88545357Y-105002714D01*
X88545357Y-105174142D01*
X88573928Y-105231285D01*
X88602500Y-105259857D01*
X88659642Y-105288428D01*
X88745357Y-105288428D01*
X88031071Y-105259857D02*
X88088214Y-105288428D01*
X88202500Y-105288428D01*
X88259642Y-105259857D01*
X88288214Y-105231285D01*
X88316785Y-105174142D01*
X88316785Y-105002714D01*
X88288214Y-104945571D01*
X88259642Y-104917000D01*
X88202500Y-104888428D01*
X88088214Y-104888428D01*
X88031071Y-104917000D01*
X87516785Y-104888428D02*
X87516785Y-105288428D01*
X87773928Y-104888428D02*
X87773928Y-105202714D01*
X87745357Y-105259857D01*
X87688214Y-105288428D01*
X87602500Y-105288428D01*
X87545357Y-105259857D01*
X87516785Y-105231285D01*
X87231071Y-105288428D02*
X87231071Y-104888428D01*
X87231071Y-104945571D02*
X87202500Y-104917000D01*
X87145357Y-104888428D01*
X87059642Y-104888428D01*
X87002500Y-104917000D01*
X86973928Y-104974142D01*
X86973928Y-105288428D01*
X86973928Y-104974142D02*
X86945357Y-104917000D01*
X86888214Y-104888428D01*
X86802500Y-104888428D01*
X86745357Y-104917000D01*
X86716785Y-104974142D01*
X86716785Y-105288428D01*
X86202500Y-105259857D02*
X86259642Y-105288428D01*
X86373928Y-105288428D01*
X86431071Y-105259857D01*
X86459642Y-105202714D01*
X86459642Y-104974142D01*
X86431071Y-104917000D01*
X86373928Y-104888428D01*
X86259642Y-104888428D01*
X86202500Y-104917000D01*
X86173928Y-104974142D01*
X86173928Y-105031285D01*
X86459642Y-105088428D01*
X85916785Y-104888428D02*
X85916785Y-105288428D01*
X85916785Y-104945571D02*
X85888214Y-104917000D01*
X85831071Y-104888428D01*
X85745357Y-104888428D01*
X85688214Y-104917000D01*
X85659642Y-104974142D01*
X85659642Y-105288428D01*
X85459642Y-104888428D02*
X85231071Y-104888428D01*
X85373928Y-104688428D02*
X85373928Y-105202714D01*
X85345357Y-105259857D01*
X85288214Y-105288428D01*
X85231071Y-105288428D01*
X84773928Y-105288428D02*
X84773928Y-104974142D01*
X84802500Y-104917000D01*
X84859642Y-104888428D01*
X84973928Y-104888428D01*
X85031071Y-104917000D01*
X84773928Y-105259857D02*
X84831071Y-105288428D01*
X84973928Y-105288428D01*
X85031071Y-105259857D01*
X85059642Y-105202714D01*
X85059642Y-105145571D01*
X85031071Y-105088428D01*
X84973928Y-105059857D01*
X84831071Y-105059857D01*
X84773928Y-105031285D01*
X84573928Y-104888428D02*
X84345357Y-104888428D01*
X84488214Y-104688428D02*
X84488214Y-105202714D01*
X84459642Y-105259857D01*
X84402500Y-105288428D01*
X84345357Y-105288428D01*
X84145357Y-105288428D02*
X84145357Y-104888428D01*
X84145357Y-104688428D02*
X84173928Y-104717000D01*
X84145357Y-104745571D01*
X84116785Y-104717000D01*
X84145357Y-104688428D01*
X84145357Y-104745571D01*
X83773928Y-105288428D02*
X83831071Y-105259857D01*
X83859642Y-105231285D01*
X83888214Y-105174142D01*
X83888214Y-105002714D01*
X83859642Y-104945571D01*
X83831071Y-104917000D01*
X83773928Y-104888428D01*
X83688214Y-104888428D01*
X83631071Y-104917000D01*
X83602500Y-104945571D01*
X83573928Y-105002714D01*
X83573928Y-105174142D01*
X83602500Y-105231285D01*
X83631071Y-105259857D01*
X83688214Y-105288428D01*
X83773928Y-105288428D01*
X83316785Y-104888428D02*
X83316785Y-105288428D01*
X83316785Y-104945571D02*
X83288214Y-104917000D01*
X83231071Y-104888428D01*
X83145357Y-104888428D01*
X83088214Y-104917000D01*
X83059642Y-104974142D01*
X83059642Y-105288428D01*
X82059642Y-105288428D02*
X82059642Y-104974142D01*
X82088214Y-104917000D01*
X82145357Y-104888428D01*
X82259642Y-104888428D01*
X82316785Y-104917000D01*
X82059642Y-105259857D02*
X82116785Y-105288428D01*
X82259642Y-105288428D01*
X82316785Y-105259857D01*
X82345357Y-105202714D01*
X82345357Y-105145571D01*
X82316785Y-105088428D01*
X82259642Y-105059857D01*
X82116785Y-105059857D01*
X82059642Y-105031285D01*
X81859642Y-104888428D02*
X81631071Y-104888428D01*
X81773928Y-104688428D02*
X81773928Y-105202714D01*
X81745357Y-105259857D01*
X81688214Y-105288428D01*
X81631071Y-105288428D01*
X96059642Y-106254428D02*
X96059642Y-105654428D01*
X95802500Y-106254428D02*
X95802500Y-105940142D01*
X95831071Y-105883000D01*
X95888214Y-105854428D01*
X95973928Y-105854428D01*
X96031071Y-105883000D01*
X96059642Y-105911571D01*
X95602500Y-105854428D02*
X95373928Y-105854428D01*
X95516785Y-105654428D02*
X95516785Y-106168714D01*
X95488214Y-106225857D01*
X95431071Y-106254428D01*
X95373928Y-106254428D01*
X95259642Y-105854428D02*
X95031071Y-105854428D01*
X95173928Y-105654428D02*
X95173928Y-106168714D01*
X95145357Y-106225857D01*
X95088214Y-106254428D01*
X95031071Y-106254428D01*
X94831071Y-105854428D02*
X94831071Y-106454428D01*
X94831071Y-105883000D02*
X94773928Y-105854428D01*
X94659642Y-105854428D01*
X94602500Y-105883000D01*
X94573928Y-105911571D01*
X94545357Y-105968714D01*
X94545357Y-106140142D01*
X94573928Y-106197285D01*
X94602500Y-106225857D01*
X94659642Y-106254428D01*
X94773928Y-106254428D01*
X94831071Y-106225857D01*
X94316785Y-106225857D02*
X94259642Y-106254428D01*
X94145357Y-106254428D01*
X94088214Y-106225857D01*
X94059642Y-106168714D01*
X94059642Y-106140142D01*
X94088214Y-106083000D01*
X94145357Y-106054428D01*
X94231071Y-106054428D01*
X94288214Y-106025857D01*
X94316785Y-105968714D01*
X94316785Y-105940142D01*
X94288214Y-105883000D01*
X94231071Y-105854428D01*
X94145357Y-105854428D01*
X94088214Y-105883000D01*
X93802500Y-106197285D02*
X93773928Y-106225857D01*
X93802500Y-106254428D01*
X93831071Y-106225857D01*
X93802500Y-106197285D01*
X93802500Y-106254428D01*
X93802500Y-105883000D02*
X93773928Y-105911571D01*
X93802500Y-105940142D01*
X93831071Y-105911571D01*
X93802500Y-105883000D01*
X93802500Y-105940142D01*
X93088214Y-105625857D02*
X93602500Y-106397285D01*
X92459642Y-105625857D02*
X92973928Y-106397285D01*
X92002500Y-105854428D02*
X92002500Y-106340142D01*
X92031071Y-106397285D01*
X92059642Y-106425857D01*
X92116785Y-106454428D01*
X92202500Y-106454428D01*
X92259642Y-106425857D01*
X92002500Y-106225857D02*
X92059642Y-106254428D01*
X92173928Y-106254428D01*
X92231071Y-106225857D01*
X92259642Y-106197285D01*
X92288214Y-106140142D01*
X92288214Y-105968714D01*
X92259642Y-105911571D01*
X92231071Y-105883000D01*
X92173928Y-105854428D01*
X92059642Y-105854428D01*
X92002500Y-105883000D01*
X91716785Y-106254428D02*
X91716785Y-105854428D01*
X91716785Y-105654428D02*
X91745357Y-105683000D01*
X91716785Y-105711571D01*
X91688214Y-105683000D01*
X91716785Y-105654428D01*
X91716785Y-105711571D01*
X91516785Y-105854428D02*
X91288214Y-105854428D01*
X91431071Y-105654428D02*
X91431071Y-106168714D01*
X91402500Y-106225857D01*
X91345357Y-106254428D01*
X91288214Y-106254428D01*
X91088214Y-106254428D02*
X91088214Y-105654428D01*
X90831071Y-106254428D02*
X90831071Y-105940142D01*
X90859642Y-105883000D01*
X90916785Y-105854428D01*
X91002500Y-105854428D01*
X91059642Y-105883000D01*
X91088214Y-105911571D01*
X90288214Y-105854428D02*
X90288214Y-106254428D01*
X90545357Y-105854428D02*
X90545357Y-106168714D01*
X90516785Y-106225857D01*
X90459642Y-106254428D01*
X90373928Y-106254428D01*
X90316785Y-106225857D01*
X90288214Y-106197285D01*
X90002500Y-106254428D02*
X90002500Y-105654428D01*
X90002500Y-105883000D02*
X89945357Y-105854428D01*
X89831071Y-105854428D01*
X89773928Y-105883000D01*
X89745357Y-105911571D01*
X89716785Y-105968714D01*
X89716785Y-106140142D01*
X89745357Y-106197285D01*
X89773928Y-106225857D01*
X89831071Y-106254428D01*
X89945357Y-106254428D01*
X90002500Y-106225857D01*
X89459642Y-106197285D02*
X89431071Y-106225857D01*
X89459642Y-106254428D01*
X89488214Y-106225857D01*
X89459642Y-106197285D01*
X89459642Y-106254428D01*
X88916785Y-106225857D02*
X88973928Y-106254428D01*
X89088214Y-106254428D01*
X89145357Y-106225857D01*
X89173928Y-106197285D01*
X89202500Y-106140142D01*
X89202500Y-105968714D01*
X89173928Y-105911571D01*
X89145357Y-105883000D01*
X89088214Y-105854428D01*
X88973928Y-105854428D01*
X88916785Y-105883000D01*
X88573928Y-106254428D02*
X88631071Y-106225857D01*
X88659642Y-106197285D01*
X88688214Y-106140142D01*
X88688214Y-105968714D01*
X88659642Y-105911571D01*
X88631071Y-105883000D01*
X88573928Y-105854428D01*
X88488214Y-105854428D01*
X88431071Y-105883000D01*
X88402500Y-105911571D01*
X88373928Y-105968714D01*
X88373928Y-106140142D01*
X88402500Y-106197285D01*
X88431071Y-106225857D01*
X88488214Y-106254428D01*
X88573928Y-106254428D01*
X88116785Y-106254428D02*
X88116785Y-105854428D01*
X88116785Y-105911571D02*
X88088214Y-105883000D01*
X88031071Y-105854428D01*
X87945357Y-105854428D01*
X87888214Y-105883000D01*
X87859642Y-105940142D01*
X87859642Y-106254428D01*
X87859642Y-105940142D02*
X87831071Y-105883000D01*
X87773928Y-105854428D01*
X87688214Y-105854428D01*
X87631071Y-105883000D01*
X87602500Y-105940142D01*
X87602500Y-106254428D01*
X86888214Y-105625857D02*
X87402500Y-106397285D01*
X86431071Y-105854428D02*
X86431071Y-106340142D01*
X86459642Y-106397285D01*
X86488214Y-106425857D01*
X86545357Y-106454428D01*
X86631071Y-106454428D01*
X86688214Y-106425857D01*
X86431071Y-106225857D02*
X86488214Y-106254428D01*
X86602500Y-106254428D01*
X86659642Y-106225857D01*
X86688214Y-106197285D01*
X86716785Y-106140142D01*
X86716785Y-105968714D01*
X86688214Y-105911571D01*
X86659642Y-105883000D01*
X86602500Y-105854428D01*
X86488214Y-105854428D01*
X86431071Y-105883000D01*
X85916785Y-106225857D02*
X85973928Y-106254428D01*
X86088214Y-106254428D01*
X86145357Y-106225857D01*
X86173928Y-106168714D01*
X86173928Y-105940142D01*
X86145357Y-105883000D01*
X86088214Y-105854428D01*
X85973928Y-105854428D01*
X85916785Y-105883000D01*
X85888214Y-105940142D01*
X85888214Y-105997285D01*
X86173928Y-106054428D01*
X85631071Y-105854428D02*
X85631071Y-106254428D01*
X85631071Y-105911571D02*
X85602500Y-105883000D01*
X85545357Y-105854428D01*
X85459642Y-105854428D01*
X85402500Y-105883000D01*
X85373928Y-105940142D01*
X85373928Y-106254428D01*
X84859642Y-106225857D02*
X84916785Y-106254428D01*
X85031071Y-106254428D01*
X85088214Y-106225857D01*
X85116785Y-106168714D01*
X85116785Y-105940142D01*
X85088214Y-105883000D01*
X85031071Y-105854428D01*
X84916785Y-105854428D01*
X84859642Y-105883000D01*
X84831071Y-105940142D01*
X84831071Y-105997285D01*
X85116785Y-106054428D01*
X84573928Y-106254428D02*
X84573928Y-105854428D01*
X84573928Y-105968714D02*
X84545357Y-105911571D01*
X84516785Y-105883000D01*
X84459642Y-105854428D01*
X84402500Y-105854428D01*
X83945357Y-106254428D02*
X83945357Y-105940142D01*
X83973928Y-105883000D01*
X84031071Y-105854428D01*
X84145357Y-105854428D01*
X84202500Y-105883000D01*
X83945357Y-106225857D02*
X84002500Y-106254428D01*
X84145357Y-106254428D01*
X84202500Y-106225857D01*
X84231071Y-106168714D01*
X84231071Y-106111571D01*
X84202500Y-106054428D01*
X84145357Y-106025857D01*
X84002500Y-106025857D01*
X83945357Y-105997285D01*
X83745357Y-105854428D02*
X83516785Y-105854428D01*
X83659642Y-105654428D02*
X83659642Y-106168714D01*
X83631071Y-106225857D01*
X83573928Y-106254428D01*
X83516785Y-106254428D01*
X83316785Y-106254428D02*
X83316785Y-105854428D01*
X83316785Y-105654428D02*
X83345357Y-105683000D01*
X83316785Y-105711571D01*
X83288214Y-105683000D01*
X83316785Y-105654428D01*
X83316785Y-105711571D01*
X82945357Y-106254428D02*
X83002500Y-106225857D01*
X83031071Y-106197285D01*
X83059642Y-106140142D01*
X83059642Y-105968714D01*
X83031071Y-105911571D01*
X83002500Y-105883000D01*
X82945357Y-105854428D01*
X82859642Y-105854428D01*
X82802500Y-105883000D01*
X82773928Y-105911571D01*
X82745357Y-105968714D01*
X82745357Y-106140142D01*
X82773928Y-106197285D01*
X82802500Y-106225857D01*
X82859642Y-106254428D01*
X82945357Y-106254428D01*
X82488214Y-105854428D02*
X82488214Y-106254428D01*
X82488214Y-105911571D02*
X82459642Y-105883000D01*
X82402500Y-105854428D01*
X82316785Y-105854428D01*
X82259642Y-105883000D01*
X82231071Y-105940142D01*
X82231071Y-106254428D01*
X81945357Y-106254428D02*
X81945357Y-105854428D01*
X81945357Y-105911571D02*
X81916785Y-105883000D01*
X81859642Y-105854428D01*
X81773928Y-105854428D01*
X81716785Y-105883000D01*
X81688214Y-105940142D01*
X81688214Y-106254428D01*
X81688214Y-105940142D02*
X81659642Y-105883000D01*
X81602500Y-105854428D01*
X81516785Y-105854428D01*
X81459642Y-105883000D01*
X81431071Y-105940142D01*
X81431071Y-106254428D01*
X80888214Y-106254428D02*
X80888214Y-105940142D01*
X80916785Y-105883000D01*
X80973928Y-105854428D01*
X81088214Y-105854428D01*
X81145357Y-105883000D01*
X80888214Y-106225857D02*
X80945357Y-106254428D01*
X81088214Y-106254428D01*
X81145357Y-106225857D01*
X81173928Y-106168714D01*
X81173928Y-106111571D01*
X81145357Y-106054428D01*
X81088214Y-106025857D01*
X80945357Y-106025857D01*
X80888214Y-105997285D01*
X80602500Y-106254428D02*
X80602500Y-105654428D01*
X80545357Y-106025857D02*
X80373928Y-106254428D01*
X80373928Y-105854428D02*
X80602500Y-106083000D01*
X79888214Y-106225857D02*
X79945357Y-106254428D01*
X80059642Y-106254428D01*
X80116785Y-106225857D01*
X80145357Y-106168714D01*
X80145357Y-105940142D01*
X80116785Y-105883000D01*
X80059642Y-105854428D01*
X79945357Y-105854428D01*
X79888214Y-105883000D01*
X79859642Y-105940142D01*
X79859642Y-105997285D01*
X80145357Y-106054428D01*
X79173928Y-105625857D02*
X79688214Y-106397285D01*
X78859642Y-105654428D02*
X78745357Y-105654428D01*
X78688214Y-105683000D01*
X78631071Y-105740142D01*
X78602500Y-105854428D01*
X78602500Y-106054428D01*
X78631071Y-106168714D01*
X78688214Y-106225857D01*
X78745357Y-106254428D01*
X78859642Y-106254428D01*
X78916785Y-106225857D01*
X78973928Y-106168714D01*
X79002500Y-106054428D01*
X79002500Y-105854428D01*
X78973928Y-105740142D01*
X78916785Y-105683000D01*
X78859642Y-105654428D01*
X78345357Y-105854428D02*
X78345357Y-106454428D01*
X78345357Y-105883000D02*
X78288214Y-105854428D01*
X78173928Y-105854428D01*
X78116785Y-105883000D01*
X78088214Y-105911571D01*
X78059642Y-105968714D01*
X78059642Y-106140142D01*
X78088214Y-106197285D01*
X78116785Y-106225857D01*
X78173928Y-106254428D01*
X78288214Y-106254428D01*
X78345357Y-106225857D01*
X77573928Y-106225857D02*
X77631071Y-106254428D01*
X77745357Y-106254428D01*
X77802500Y-106225857D01*
X77831071Y-106168714D01*
X77831071Y-105940142D01*
X77802500Y-105883000D01*
X77745357Y-105854428D01*
X77631071Y-105854428D01*
X77573928Y-105883000D01*
X77545357Y-105940142D01*
X77545357Y-105997285D01*
X77831071Y-106054428D01*
X77288214Y-105854428D02*
X77288214Y-106254428D01*
X77288214Y-105911571D02*
X77259642Y-105883000D01*
X77202500Y-105854428D01*
X77116785Y-105854428D01*
X77059642Y-105883000D01*
X77031071Y-105940142D01*
X77031071Y-106254428D01*
X76402500Y-106197285D02*
X76431071Y-106225857D01*
X76516785Y-106254428D01*
X76573928Y-106254428D01*
X76659642Y-106225857D01*
X76716785Y-106168714D01*
X76745357Y-106111571D01*
X76773928Y-105997285D01*
X76773928Y-105911571D01*
X76745357Y-105797285D01*
X76716785Y-105740142D01*
X76659642Y-105683000D01*
X76573928Y-105654428D01*
X76516785Y-105654428D01*
X76431071Y-105683000D01*
X76402500Y-105711571D01*
X76202500Y-105854428D02*
X76059642Y-106254428D01*
X75916785Y-105854428D02*
X76059642Y-106254428D01*
X76116785Y-106397285D01*
X76145357Y-106425857D01*
X76202500Y-106454428D01*
X75688214Y-105854428D02*
X75688214Y-106454428D01*
X75688214Y-105883000D02*
X75631071Y-105854428D01*
X75516785Y-105854428D01*
X75459642Y-105883000D01*
X75431071Y-105911571D01*
X75402500Y-105968714D01*
X75402500Y-106140142D01*
X75431071Y-106197285D01*
X75459642Y-106225857D01*
X75516785Y-106254428D01*
X75631071Y-106254428D01*
X75688214Y-106225857D01*
X75145357Y-106254428D02*
X75145357Y-105654428D01*
X74888214Y-106254428D02*
X74888214Y-105940142D01*
X74916785Y-105883000D01*
X74973928Y-105854428D01*
X75059642Y-105854428D01*
X75116785Y-105883000D01*
X75145357Y-105911571D01*
X74345357Y-106254428D02*
X74345357Y-105940142D01*
X74373928Y-105883000D01*
X74431071Y-105854428D01*
X74545357Y-105854428D01*
X74602500Y-105883000D01*
X74345357Y-106225857D02*
X74402500Y-106254428D01*
X74545357Y-106254428D01*
X74602500Y-106225857D01*
X74631071Y-106168714D01*
X74631071Y-106111571D01*
X74602500Y-106054428D01*
X74545357Y-106025857D01*
X74402500Y-106025857D01*
X74345357Y-105997285D01*
X73973928Y-106254428D02*
X74031071Y-106225857D01*
X74059642Y-106168714D01*
X74059642Y-105654428D01*
X73745357Y-106254428D02*
X73745357Y-105654428D01*
X73516785Y-105654428D01*
X73459642Y-105683000D01*
X73431071Y-105711571D01*
X73402500Y-105768714D01*
X73402500Y-105854428D01*
X73431071Y-105911571D01*
X73459642Y-105940142D01*
X73516785Y-105968714D01*
X73745357Y-105968714D01*
X73145357Y-106254428D02*
X73145357Y-105854428D01*
X73145357Y-105654428D02*
X73173928Y-105683000D01*
X73145357Y-105711571D01*
X73116785Y-105683000D01*
X73145357Y-105654428D01*
X73145357Y-105711571D01*
X72602500Y-106225857D02*
X72659642Y-106254428D01*
X72773928Y-106254428D01*
X72831071Y-106225857D01*
X72859642Y-106197285D01*
X72888214Y-106140142D01*
X72888214Y-105968714D01*
X72859642Y-105911571D01*
X72831071Y-105883000D01*
X72773928Y-105854428D01*
X72659642Y-105854428D01*
X72602500Y-105883000D01*
X72259642Y-106254428D02*
X72316785Y-106225857D01*
X72345357Y-106197285D01*
X72373928Y-106140142D01*
X72373928Y-105968714D01*
X72345357Y-105911571D01*
X72316785Y-105883000D01*
X72259642Y-105854428D01*
X72173928Y-105854428D01*
X72116785Y-105883000D01*
X72088214Y-105911571D01*
X72059642Y-105968714D01*
X72059642Y-106140142D01*
X72088214Y-106197285D01*
X72116785Y-106225857D01*
X72173928Y-106254428D01*
X72259642Y-106254428D01*
X71602500Y-105940142D02*
X71516785Y-105968714D01*
X71488214Y-105997285D01*
X71459642Y-106054428D01*
X71459642Y-106140142D01*
X71488214Y-106197285D01*
X71516785Y-106225857D01*
X71573928Y-106254428D01*
X71802500Y-106254428D01*
X71802500Y-105654428D01*
X71602500Y-105654428D01*
X71545357Y-105683000D01*
X71516785Y-105711571D01*
X71488214Y-105768714D01*
X71488214Y-105825857D01*
X71516785Y-105883000D01*
X71545357Y-105911571D01*
X71602500Y-105940142D01*
X71802500Y-105940142D01*
X70945357Y-106254428D02*
X70945357Y-105940142D01*
X70973928Y-105883000D01*
X71031071Y-105854428D01*
X71145357Y-105854428D01*
X71202500Y-105883000D01*
X70945357Y-106225857D02*
X71002500Y-106254428D01*
X71145357Y-106254428D01*
X71202500Y-106225857D01*
X71231071Y-106168714D01*
X71231071Y-106111571D01*
X71202500Y-106054428D01*
X71145357Y-106025857D01*
X71002500Y-106025857D01*
X70945357Y-105997285D01*
X70688214Y-106225857D02*
X70631071Y-106254428D01*
X70516785Y-106254428D01*
X70459642Y-106225857D01*
X70431071Y-106168714D01*
X70431071Y-106140142D01*
X70459642Y-106083000D01*
X70516785Y-106054428D01*
X70602500Y-106054428D01*
X70659642Y-106025857D01*
X70688214Y-105968714D01*
X70688214Y-105940142D01*
X70659642Y-105883000D01*
X70602500Y-105854428D01*
X70516785Y-105854428D01*
X70459642Y-105883000D01*
X69945357Y-106225857D02*
X70002500Y-106254428D01*
X70116785Y-106254428D01*
X70173928Y-106225857D01*
X70202500Y-106168714D01*
X70202500Y-105940142D01*
X70173928Y-105883000D01*
X70116785Y-105854428D01*
X70002500Y-105854428D01*
X69945357Y-105883000D01*
X69916785Y-105940142D01*
X69916785Y-105997285D01*
X70202500Y-106054428D01*
X97271428Y-76988214D02*
X97271428Y-77102500D01*
X97300000Y-77159642D01*
X97357142Y-77216785D01*
X97471428Y-77245357D01*
X97671428Y-77245357D01*
X97785714Y-77216785D01*
X97842857Y-77159642D01*
X97871428Y-77102500D01*
X97871428Y-76988214D01*
X97842857Y-76931071D01*
X97785714Y-76873928D01*
X97671428Y-76845357D01*
X97471428Y-76845357D01*
X97357142Y-76873928D01*
X97300000Y-76931071D01*
X97271428Y-76988214D01*
X97271428Y-77502500D02*
X97757142Y-77502500D01*
X97814285Y-77531071D01*
X97842857Y-77559642D01*
X97871428Y-77616785D01*
X97871428Y-77731071D01*
X97842857Y-77788214D01*
X97814285Y-77816785D01*
X97757142Y-77845357D01*
X97271428Y-77845357D01*
X97271428Y-78045357D02*
X97271428Y-78388214D01*
X97871428Y-78216785D02*
X97271428Y-78216785D01*
X97871428Y-78588214D02*
X97271428Y-78588214D01*
X97271428Y-78816785D01*
X97300000Y-78873928D01*
X97328571Y-78902500D01*
X97385714Y-78931071D01*
X97471428Y-78931071D01*
X97528571Y-78902500D01*
X97557142Y-78873928D01*
X97585714Y-78816785D01*
X97585714Y-78588214D01*
X97271428Y-79188214D02*
X97757142Y-79188214D01*
X97814285Y-79216785D01*
X97842857Y-79245357D01*
X97871428Y-79302500D01*
X97871428Y-79416785D01*
X97842857Y-79473928D01*
X97814285Y-79502500D01*
X97757142Y-79531071D01*
X97271428Y-79531071D01*
X97271428Y-79731071D02*
X97271428Y-80073928D01*
X97871428Y-79902500D02*
X97271428Y-79902500D01*
X97271428Y-80388214D02*
X97271428Y-80445357D01*
X97300000Y-80502500D01*
X97328571Y-80531071D01*
X97385714Y-80559642D01*
X97500000Y-80588214D01*
X97642857Y-80588214D01*
X97757142Y-80559642D01*
X97814285Y-80531071D01*
X97842857Y-80502500D01*
X97871428Y-80445357D01*
X97871428Y-80388214D01*
X97842857Y-80331071D01*
X97814285Y-80302500D01*
X97757142Y-80273928D01*
X97642857Y-80245357D01*
X97500000Y-80245357D01*
X97385714Y-80273928D01*
X97328571Y-80302500D01*
X97300000Y-80331071D01*
X97271428Y-80388214D01*
X95371428Y-77673928D02*
X94771428Y-77673928D01*
X95371428Y-77959642D02*
X94771428Y-77959642D01*
X95371428Y-78302500D01*
X94771428Y-78302500D01*
X95371428Y-78588214D02*
X94771428Y-78588214D01*
X94771428Y-78816785D01*
X94800000Y-78873928D01*
X94828571Y-78902500D01*
X94885714Y-78931071D01*
X94971428Y-78931071D01*
X95028571Y-78902500D01*
X95057142Y-78873928D01*
X95085714Y-78816785D01*
X95085714Y-78588214D01*
X94771428Y-79188214D02*
X95257142Y-79188214D01*
X95314285Y-79216785D01*
X95342857Y-79245357D01*
X95371428Y-79302500D01*
X95371428Y-79416785D01*
X95342857Y-79473928D01*
X95314285Y-79502500D01*
X95257142Y-79531071D01*
X94771428Y-79531071D01*
X94771428Y-79731071D02*
X94771428Y-80073928D01*
X95371428Y-79902500D02*
X94771428Y-79902500D01*
X94771428Y-80216785D02*
X94771428Y-80588214D01*
X95000000Y-80388214D01*
X95000000Y-80473928D01*
X95028571Y-80531071D01*
X95057142Y-80559642D01*
X95114285Y-80588214D01*
X95257142Y-80588214D01*
X95314285Y-80559642D01*
X95342857Y-80531071D01*
X95371428Y-80473928D01*
X95371428Y-80302500D01*
X95342857Y-80245357D01*
X95314285Y-80216785D01*
X90271428Y-77673928D02*
X89671428Y-77673928D01*
X90271428Y-77959642D02*
X89671428Y-77959642D01*
X90271428Y-78302500D01*
X89671428Y-78302500D01*
X90271428Y-78588214D02*
X89671428Y-78588214D01*
X89671428Y-78816785D01*
X89700000Y-78873928D01*
X89728571Y-78902500D01*
X89785714Y-78931071D01*
X89871428Y-78931071D01*
X89928571Y-78902500D01*
X89957142Y-78873928D01*
X89985714Y-78816785D01*
X89985714Y-78588214D01*
X89671428Y-79188214D02*
X90157142Y-79188214D01*
X90214285Y-79216785D01*
X90242857Y-79245357D01*
X90271428Y-79302500D01*
X90271428Y-79416785D01*
X90242857Y-79473928D01*
X90214285Y-79502500D01*
X90157142Y-79531071D01*
X89671428Y-79531071D01*
X89671428Y-79731071D02*
X89671428Y-80073928D01*
X90271428Y-79902500D02*
X89671428Y-79902500D01*
X90271428Y-80588214D02*
X90271428Y-80245357D01*
X90271428Y-80416785D02*
X89671428Y-80416785D01*
X89757142Y-80359642D01*
X89814285Y-80302500D01*
X89842857Y-80245357D01*
X90690476Y-86557142D02*
X90738095Y-86604761D01*
X90880952Y-86652380D01*
X90976190Y-86652380D01*
X91119047Y-86604761D01*
X91214285Y-86509523D01*
X91261904Y-86414285D01*
X91309523Y-86223809D01*
X91309523Y-86080952D01*
X91261904Y-85890476D01*
X91214285Y-85795238D01*
X91119047Y-85700000D01*
X90976190Y-85652380D01*
X90880952Y-85652380D01*
X90738095Y-85700000D01*
X90690476Y-85747619D01*
X90261904Y-86652380D02*
X90261904Y-85652380D01*
X89690476Y-86652380D01*
X89690476Y-85652380D01*
X88690476Y-86652380D02*
X89261904Y-86652380D01*
X88976190Y-86652380D02*
X88976190Y-85652380D01*
X89071428Y-85795238D01*
X89166666Y-85890476D01*
X89261904Y-85938095D01*
D12*
X67500000Y-89000000D02*
X67500000Y-95000000D01*
X115500000Y-81500000D02*
X115500000Y-102500000D01*
X67500000Y-95000000D02*
X64500000Y-95000000D01*
X64500000Y-81500000D02*
X64500000Y-102500000D01*
X115500000Y-102500000D02*
X115000000Y-102500000D01*
X64500000Y-81500000D02*
X65000000Y-81500000D01*
X64500000Y-102500000D02*
X65000000Y-102500000D01*
X64500000Y-89000000D02*
X67500000Y-89000000D01*
X115000000Y-81500000D02*
X115500000Y-81500000D01*
%LPC*%
G36*
X83523050Y-109183850D02*
G01*
X83523050Y-109133050D01*
X87752150Y-109133050D01*
X95626150Y-109133050D01*
X95626150Y-107482050D01*
X87752150Y-107482050D01*
X87752150Y-109133050D01*
X83523050Y-109133050D01*
X83523050Y-108396450D01*
X83789750Y-108396450D01*
X84018350Y-108396450D01*
X84091542Y-108396562D01*
X84153329Y-108397172D01*
X84196186Y-108398635D01*
X84223544Y-108401307D01*
X84238836Y-108405545D01*
X84245494Y-108411703D01*
X84246950Y-108420137D01*
X84244565Y-108435966D01*
X84224187Y-108472011D01*
X84188351Y-108503518D01*
X84143593Y-108523923D01*
X84098393Y-108530584D01*
X84032654Y-108529668D01*
X83964639Y-108520094D01*
X83905675Y-108502866D01*
X83873449Y-108490516D01*
X83847467Y-108485869D01*
X83833971Y-108496330D01*
X83829469Y-108525302D01*
X83830469Y-108576189D01*
X83834200Y-108667029D01*
X83885000Y-108685573D01*
X83897734Y-108689814D01*
X83961400Y-108703927D01*
X84037655Y-108712743D01*
X84116529Y-108715421D01*
X84188050Y-108711120D01*
X84239153Y-108702276D01*
X84265617Y-108693096D01*
X84589850Y-108693096D01*
X84600102Y-108696098D01*
X84631021Y-108698772D01*
X84677643Y-108700583D01*
X84734939Y-108701250D01*
X84880027Y-108701250D01*
X84961464Y-108568554D01*
X85042901Y-108435859D01*
X85082856Y-108463779D01*
X85100556Y-108476900D01*
X85113245Y-108491473D01*
X85119907Y-108511921D01*
X85122512Y-108544752D01*
X85123031Y-108596475D01*
X85123250Y-108701250D01*
X85389950Y-108701250D01*
X85565301Y-108701250D01*
X85758661Y-108701250D01*
X85779858Y-108656800D01*
X85787531Y-108641316D01*
X85803217Y-108617956D01*
X85817407Y-108615575D01*
X85834943Y-108631992D01*
X85835539Y-108632700D01*
X85857780Y-108654021D01*
X85887698Y-108677592D01*
X85924750Y-108695917D01*
X85983049Y-108710525D01*
X86048329Y-108716326D01*
X86111050Y-108711859D01*
X86138217Y-108705684D01*
X86147582Y-108701250D01*
X86431350Y-108701250D01*
X86685350Y-108701250D01*
X86685424Y-108513925D01*
X86685591Y-108470849D01*
X86687768Y-108369530D01*
X86692976Y-108290288D01*
X86701863Y-108230758D01*
X86715078Y-108188575D01*
X86733268Y-108161373D01*
X86757081Y-108146786D01*
X86787164Y-108142450D01*
X86815838Y-108146989D01*
X86843942Y-108165410D01*
X86865762Y-108199728D01*
X86881839Y-108251795D01*
X86892710Y-108323458D01*
X86898916Y-108416568D01*
X86900995Y-108532975D01*
X86901250Y-108701250D01*
X87152871Y-108701250D01*
X87157377Y-108463125D01*
X87157980Y-108433623D01*
X87160810Y-108341971D01*
X87165194Y-108271982D01*
X87171850Y-108220734D01*
X87181495Y-108185304D01*
X87194847Y-108162770D01*
X87212623Y-108150210D01*
X87235540Y-108144702D01*
X87238422Y-108144413D01*
X87284490Y-108152053D01*
X87321546Y-108181085D01*
X87345050Y-108228054D01*
X87347963Y-108243745D01*
X87352080Y-108285807D01*
X87355376Y-108344286D01*
X87357569Y-108413689D01*
X87358380Y-108488525D01*
X87358450Y-108701250D01*
X87625150Y-108701250D01*
X87625150Y-107951950D01*
X87423920Y-107951950D01*
X87409250Y-107996400D01*
X87403643Y-108012359D01*
X87390992Y-108035904D01*
X87377857Y-108036198D01*
X87360818Y-108014521D01*
X87349490Y-108000066D01*
X87307318Y-107970824D01*
X87250213Y-107951498D01*
X87184255Y-107942196D01*
X87115523Y-107943025D01*
X87050098Y-107954092D01*
X86994060Y-107975502D01*
X86953491Y-108007364D01*
X86950808Y-108010546D01*
X86936123Y-108023747D01*
X86919932Y-108025267D01*
X86896008Y-108013859D01*
X86858125Y-107988277D01*
X86850186Y-107982938D01*
X86785201Y-107953269D01*
X86712061Y-107939331D01*
X86637836Y-107941064D01*
X86569601Y-107958404D01*
X86514428Y-107991290D01*
X86493062Y-108011902D01*
X86472829Y-108038229D01*
X86457474Y-108069823D01*
X86446354Y-108110035D01*
X86438825Y-108162218D01*
X86434243Y-108229723D01*
X86431966Y-108315904D01*
X86431350Y-108424112D01*
X86431350Y-108701250D01*
X86147582Y-108701250D01*
X86201191Y-108675869D01*
X86246944Y-108627696D01*
X86274967Y-108561846D01*
X86284754Y-108479000D01*
X86279543Y-108418862D01*
X86257162Y-108357355D01*
X86216001Y-108308754D01*
X86154817Y-108272089D01*
X86072371Y-108246388D01*
X85967423Y-108230682D01*
X85933507Y-108227228D01*
X85885412Y-108221366D01*
X85850960Y-108215916D01*
X85835987Y-108211719D01*
X85835897Y-108211625D01*
X85836518Y-108196525D01*
X85847751Y-108170704D01*
X85874965Y-108139157D01*
X85913931Y-108124010D01*
X85967416Y-108125029D01*
X86038302Y-108141776D01*
X86046186Y-108144121D01*
X86090289Y-108155340D01*
X86123768Y-108160750D01*
X86139902Y-108159197D01*
X86148105Y-108146214D01*
X86163650Y-108115665D01*
X86182031Y-108075672D01*
X86214144Y-108002544D01*
X86171547Y-107984746D01*
X86169585Y-107983934D01*
X86092504Y-107960046D01*
X86000766Y-107944127D01*
X85904051Y-107937874D01*
X85828810Y-107940622D01*
X85747153Y-107955619D01*
X85683053Y-107984849D01*
X85633691Y-108029723D01*
X85596246Y-108091650D01*
X85595802Y-108092634D01*
X85588762Y-108113716D01*
X85583203Y-108143703D01*
X85578867Y-108185893D01*
X85575496Y-108243586D01*
X85572830Y-108320080D01*
X85570611Y-108418675D01*
X85565301Y-108701250D01*
X85389950Y-108701250D01*
X85389950Y-107658961D01*
X85259775Y-107662580D01*
X85129600Y-107666200D01*
X85131650Y-107966874D01*
X85133699Y-108267548D01*
X85040292Y-108144674D01*
X85009766Y-108104286D01*
X84967264Y-108047914D01*
X84935064Y-108007197D01*
X84909377Y-107979688D01*
X84886415Y-107962940D01*
X84862387Y-107954505D01*
X84833505Y-107951936D01*
X84795981Y-107952786D01*
X84746024Y-107954607D01*
X84603747Y-107958300D01*
X84730641Y-108114031D01*
X84857535Y-108269763D01*
X84810529Y-108342669D01*
X84723693Y-108477352D01*
X84719033Y-108484585D01*
X84678150Y-108548478D01*
X84642682Y-108604674D01*
X84614737Y-108649775D01*
X84596424Y-108680382D01*
X84589850Y-108693096D01*
X84265617Y-108693096D01*
X84329868Y-108670808D01*
X84402725Y-108621299D01*
X84457689Y-108553776D01*
X84494726Y-108468266D01*
X84504285Y-108428486D01*
X84512695Y-108342669D01*
X84507555Y-108254582D01*
X84489974Y-108170719D01*
X84461058Y-108097575D01*
X84421918Y-108041644D01*
X84402357Y-108022707D01*
X84352458Y-107985961D01*
X84295876Y-107962199D01*
X84226695Y-107949415D01*
X84139000Y-107945600D01*
X84107944Y-107945752D01*
X84054617Y-107947593D01*
X84015742Y-107952522D01*
X83983817Y-107961776D01*
X83951337Y-107976595D01*
X83929370Y-107988904D01*
X83867540Y-108040297D01*
X83823992Y-108107809D01*
X83798228Y-108192418D01*
X83789750Y-108295107D01*
X83789750Y-108396450D01*
X83523050Y-108396450D01*
X83523050Y-107418550D01*
X95676950Y-107418550D01*
X95676950Y-109183850D01*
X83523050Y-109183850D01*
G37*
D13*
X83523050Y-109183850D02*
X83523050Y-109133050D01*
X87752150Y-109133050D01*
X95626150Y-109133050D01*
X95626150Y-107482050D01*
X87752150Y-107482050D01*
X87752150Y-109133050D01*
X83523050Y-109133050D01*
X83523050Y-108396450D01*
X83789750Y-108396450D01*
X84018350Y-108396450D01*
X84091542Y-108396562D01*
X84153329Y-108397172D01*
X84196186Y-108398635D01*
X84223544Y-108401307D01*
X84238836Y-108405545D01*
X84245494Y-108411703D01*
X84246950Y-108420137D01*
X84244565Y-108435966D01*
X84224187Y-108472011D01*
X84188351Y-108503518D01*
X84143593Y-108523923D01*
X84098393Y-108530584D01*
X84032654Y-108529668D01*
X83964639Y-108520094D01*
X83905675Y-108502866D01*
X83873449Y-108490516D01*
X83847467Y-108485869D01*
X83833971Y-108496330D01*
X83829469Y-108525302D01*
X83830469Y-108576189D01*
X83834200Y-108667029D01*
X83885000Y-108685573D01*
X83897734Y-108689814D01*
X83961400Y-108703927D01*
X84037655Y-108712743D01*
X84116529Y-108715421D01*
X84188050Y-108711120D01*
X84239153Y-108702276D01*
X84265617Y-108693096D01*
X84589850Y-108693096D01*
X84600102Y-108696098D01*
X84631021Y-108698772D01*
X84677643Y-108700583D01*
X84734939Y-108701250D01*
X84880027Y-108701250D01*
X84961464Y-108568554D01*
X85042901Y-108435859D01*
X85082856Y-108463779D01*
X85100556Y-108476900D01*
X85113245Y-108491473D01*
X85119907Y-108511921D01*
X85122512Y-108544752D01*
X85123031Y-108596475D01*
X85123250Y-108701250D01*
X85389950Y-108701250D01*
X85565301Y-108701250D01*
X85758661Y-108701250D01*
X85779858Y-108656800D01*
X85787531Y-108641316D01*
X85803217Y-108617956D01*
X85817407Y-108615575D01*
X85834943Y-108631992D01*
X85835539Y-108632700D01*
X85857780Y-108654021D01*
X85887698Y-108677592D01*
X85924750Y-108695917D01*
X85983049Y-108710525D01*
X86048329Y-108716326D01*
X86111050Y-108711859D01*
X86138217Y-108705684D01*
X86147582Y-108701250D01*
X86431350Y-108701250D01*
X86685350Y-108701250D01*
X86685424Y-108513925D01*
X86685591Y-108470849D01*
X86687768Y-108369530D01*
X86692976Y-108290288D01*
X86701863Y-108230758D01*
X86715078Y-108188575D01*
X86733268Y-108161373D01*
X86757081Y-108146786D01*
X86787164Y-108142450D01*
X86815838Y-108146989D01*
X86843942Y-108165410D01*
X86865762Y-108199728D01*
X86881839Y-108251795D01*
X86892710Y-108323458D01*
X86898916Y-108416568D01*
X86900995Y-108532975D01*
X86901250Y-108701250D01*
X87152871Y-108701250D01*
X87157377Y-108463125D01*
X87157980Y-108433623D01*
X87160810Y-108341971D01*
X87165194Y-108271982D01*
X87171850Y-108220734D01*
X87181495Y-108185304D01*
X87194847Y-108162770D01*
X87212623Y-108150210D01*
X87235540Y-108144702D01*
X87238422Y-108144413D01*
X87284490Y-108152053D01*
X87321546Y-108181085D01*
X87345050Y-108228054D01*
X87347963Y-108243745D01*
X87352080Y-108285807D01*
X87355376Y-108344286D01*
X87357569Y-108413689D01*
X87358380Y-108488525D01*
X87358450Y-108701250D01*
X87625150Y-108701250D01*
X87625150Y-107951950D01*
X87423920Y-107951950D01*
X87409250Y-107996400D01*
X87403643Y-108012359D01*
X87390992Y-108035904D01*
X87377857Y-108036198D01*
X87360818Y-108014521D01*
X87349490Y-108000066D01*
X87307318Y-107970824D01*
X87250213Y-107951498D01*
X87184255Y-107942196D01*
X87115523Y-107943025D01*
X87050098Y-107954092D01*
X86994060Y-107975502D01*
X86953491Y-108007364D01*
X86950808Y-108010546D01*
X86936123Y-108023747D01*
X86919932Y-108025267D01*
X86896008Y-108013859D01*
X86858125Y-107988277D01*
X86850186Y-107982938D01*
X86785201Y-107953269D01*
X86712061Y-107939331D01*
X86637836Y-107941064D01*
X86569601Y-107958404D01*
X86514428Y-107991290D01*
X86493062Y-108011902D01*
X86472829Y-108038229D01*
X86457474Y-108069823D01*
X86446354Y-108110035D01*
X86438825Y-108162218D01*
X86434243Y-108229723D01*
X86431966Y-108315904D01*
X86431350Y-108424112D01*
X86431350Y-108701250D01*
X86147582Y-108701250D01*
X86201191Y-108675869D01*
X86246944Y-108627696D01*
X86274967Y-108561846D01*
X86284754Y-108479000D01*
X86279543Y-108418862D01*
X86257162Y-108357355D01*
X86216001Y-108308754D01*
X86154817Y-108272089D01*
X86072371Y-108246388D01*
X85967423Y-108230682D01*
X85933507Y-108227228D01*
X85885412Y-108221366D01*
X85850960Y-108215916D01*
X85835987Y-108211719D01*
X85835897Y-108211625D01*
X85836518Y-108196525D01*
X85847751Y-108170704D01*
X85874965Y-108139157D01*
X85913931Y-108124010D01*
X85967416Y-108125029D01*
X86038302Y-108141776D01*
X86046186Y-108144121D01*
X86090289Y-108155340D01*
X86123768Y-108160750D01*
X86139902Y-108159197D01*
X86148105Y-108146214D01*
X86163650Y-108115665D01*
X86182031Y-108075672D01*
X86214144Y-108002544D01*
X86171547Y-107984746D01*
X86169585Y-107983934D01*
X86092504Y-107960046D01*
X86000766Y-107944127D01*
X85904051Y-107937874D01*
X85828810Y-107940622D01*
X85747153Y-107955619D01*
X85683053Y-107984849D01*
X85633691Y-108029723D01*
X85596246Y-108091650D01*
X85595802Y-108092634D01*
X85588762Y-108113716D01*
X85583203Y-108143703D01*
X85578867Y-108185893D01*
X85575496Y-108243586D01*
X85572830Y-108320080D01*
X85570611Y-108418675D01*
X85565301Y-108701250D01*
X85389950Y-108701250D01*
X85389950Y-107658961D01*
X85259775Y-107662580D01*
X85129600Y-107666200D01*
X85131650Y-107966874D01*
X85133699Y-108267548D01*
X85040292Y-108144674D01*
X85009766Y-108104286D01*
X84967264Y-108047914D01*
X84935064Y-108007197D01*
X84909377Y-107979688D01*
X84886415Y-107962940D01*
X84862387Y-107954505D01*
X84833505Y-107951936D01*
X84795981Y-107952786D01*
X84746024Y-107954607D01*
X84603747Y-107958300D01*
X84730641Y-108114031D01*
X84857535Y-108269763D01*
X84810529Y-108342669D01*
X84723693Y-108477352D01*
X84719033Y-108484585D01*
X84678150Y-108548478D01*
X84642682Y-108604674D01*
X84614737Y-108649775D01*
X84596424Y-108680382D01*
X84589850Y-108693096D01*
X84265617Y-108693096D01*
X84329868Y-108670808D01*
X84402725Y-108621299D01*
X84457689Y-108553776D01*
X84494726Y-108468266D01*
X84504285Y-108428486D01*
X84512695Y-108342669D01*
X84507555Y-108254582D01*
X84489974Y-108170719D01*
X84461058Y-108097575D01*
X84421918Y-108041644D01*
X84402357Y-108022707D01*
X84352458Y-107985961D01*
X84295876Y-107962199D01*
X84226695Y-107949415D01*
X84139000Y-107945600D01*
X84107944Y-107945752D01*
X84054617Y-107947593D01*
X84015742Y-107952522D01*
X83983817Y-107961776D01*
X83951337Y-107976595D01*
X83929370Y-107988904D01*
X83867540Y-108040297D01*
X83823992Y-108107809D01*
X83798228Y-108192418D01*
X83789750Y-108295107D01*
X83789750Y-108396450D01*
X83523050Y-108396450D01*
X83523050Y-107418550D01*
X95676950Y-107418550D01*
X95676950Y-109183850D01*
X83523050Y-109183850D01*
G36*
X94656067Y-108373935D02*
G01*
X94647658Y-108433149D01*
X94619625Y-108523316D01*
X94574214Y-108595492D01*
X94510744Y-108650623D01*
X94428532Y-108689657D01*
X94408413Y-108695553D01*
X94340899Y-108707192D01*
X94261747Y-108712425D01*
X94180010Y-108711252D01*
X94104743Y-108703673D01*
X94045000Y-108689686D01*
X93981500Y-108667392D01*
X93977769Y-108576371D01*
X93977566Y-108570898D01*
X93977598Y-108527590D01*
X93980492Y-108496964D01*
X93985697Y-108485350D01*
X93990242Y-108485929D01*
X94014844Y-108492400D01*
X94049473Y-108503737D01*
X94050508Y-108504100D01*
X94115387Y-108521408D01*
X94184221Y-108530990D01*
X94247902Y-108532104D01*
X94297323Y-108524003D01*
X94314333Y-108517074D01*
X94354255Y-108489957D01*
X94383133Y-108455247D01*
X94394250Y-108420137D01*
X94394250Y-108420005D01*
X94392776Y-108411728D01*
X94386152Y-108405652D01*
X94371003Y-108401438D01*
X94343954Y-108398749D01*
X94301631Y-108397246D01*
X94240658Y-108396592D01*
X94157661Y-108396450D01*
X93921071Y-108396450D01*
X93930035Y-108293684D01*
X93931789Y-108275416D01*
X93941906Y-108216821D01*
X94169269Y-108216821D01*
X94173681Y-108224345D01*
X94190775Y-108228755D01*
X94224786Y-108230831D01*
X94279950Y-108231350D01*
X94312291Y-108231219D01*
X94355635Y-108229966D01*
X94380088Y-108226741D01*
X94389884Y-108220765D01*
X94389259Y-108211261D01*
X94385720Y-108200784D01*
X94381550Y-108180006D01*
X94375620Y-108163428D01*
X94351387Y-108140964D01*
X94315972Y-108123854D01*
X94277556Y-108117050D01*
X94256045Y-108119262D01*
X94218251Y-108132917D01*
X94189668Y-108154690D01*
X94178350Y-108179511D01*
X94177495Y-108187065D01*
X94170642Y-108211261D01*
X94169269Y-108216821D01*
X93941906Y-108216821D01*
X93949629Y-108172090D01*
X93980046Y-108089909D01*
X94024470Y-108027331D01*
X94084331Y-107982812D01*
X94161058Y-107954809D01*
X94256082Y-107941779D01*
X94273714Y-107941011D01*
X94378130Y-107948228D01*
X94467723Y-107975572D01*
X94541427Y-108021892D01*
X94598177Y-108086039D01*
X94636911Y-108166862D01*
X94647905Y-108220765D01*
X94656562Y-108263210D01*
X94656067Y-108373935D01*
G37*
X94656067Y-108373935D02*
X94647658Y-108433149D01*
X94619625Y-108523316D01*
X94574214Y-108595492D01*
X94510744Y-108650623D01*
X94428532Y-108689657D01*
X94408413Y-108695553D01*
X94340899Y-108707192D01*
X94261747Y-108712425D01*
X94180010Y-108711252D01*
X94104743Y-108703673D01*
X94045000Y-108689686D01*
X93981500Y-108667392D01*
X93977769Y-108576371D01*
X93977566Y-108570898D01*
X93977598Y-108527590D01*
X93980492Y-108496964D01*
X93985697Y-108485350D01*
X93990242Y-108485929D01*
X94014844Y-108492400D01*
X94049473Y-108503737D01*
X94050508Y-108504100D01*
X94115387Y-108521408D01*
X94184221Y-108530990D01*
X94247902Y-108532104D01*
X94297323Y-108524003D01*
X94314333Y-108517074D01*
X94354255Y-108489957D01*
X94383133Y-108455247D01*
X94394250Y-108420137D01*
X94394250Y-108420005D01*
X94392776Y-108411728D01*
X94386152Y-108405652D01*
X94371003Y-108401438D01*
X94343954Y-108398749D01*
X94301631Y-108397246D01*
X94240658Y-108396592D01*
X94157661Y-108396450D01*
X93921071Y-108396450D01*
X93930035Y-108293684D01*
X93931789Y-108275416D01*
X93941906Y-108216821D01*
X94169269Y-108216821D01*
X94173681Y-108224345D01*
X94190775Y-108228755D01*
X94224786Y-108230831D01*
X94279950Y-108231350D01*
X94312291Y-108231219D01*
X94355635Y-108229966D01*
X94380088Y-108226741D01*
X94389884Y-108220765D01*
X94389259Y-108211261D01*
X94385720Y-108200784D01*
X94381550Y-108180006D01*
X94375620Y-108163428D01*
X94351387Y-108140964D01*
X94315972Y-108123854D01*
X94277556Y-108117050D01*
X94256045Y-108119262D01*
X94218251Y-108132917D01*
X94189668Y-108154690D01*
X94178350Y-108179511D01*
X94177495Y-108187065D01*
X94170642Y-108211261D01*
X94169269Y-108216821D01*
X93941906Y-108216821D01*
X93949629Y-108172090D01*
X93980046Y-108089909D01*
X94024470Y-108027331D01*
X94084331Y-107982812D01*
X94161058Y-107954809D01*
X94256082Y-107941779D01*
X94273714Y-107941011D01*
X94378130Y-107948228D01*
X94467723Y-107975572D01*
X94541427Y-108021892D01*
X94598177Y-108086039D01*
X94636911Y-108166862D01*
X94647905Y-108220765D01*
X94656562Y-108263210D01*
X94656067Y-108373935D01*
G36*
X89802279Y-107654630D02*
G01*
X89841878Y-107678322D01*
X89844567Y-107681110D01*
X89868035Y-107722453D01*
X89871159Y-107768252D01*
X89856086Y-107811972D01*
X89824959Y-107847079D01*
X89779926Y-107867037D01*
X89748646Y-107869445D01*
X89694945Y-107861959D01*
X89649103Y-107843428D01*
X89621591Y-107814467D01*
X89606660Y-107773299D01*
X89605934Y-107728916D01*
X89619490Y-107689356D01*
X89647401Y-107662658D01*
X89693063Y-107647597D01*
X89749644Y-107644144D01*
X89802279Y-107654630D01*
G37*
X89802279Y-107654630D02*
X89841878Y-107678322D01*
X89844567Y-107681110D01*
X89868035Y-107722453D01*
X89871159Y-107768252D01*
X89856086Y-107811972D01*
X89824959Y-107847079D01*
X89779926Y-107867037D01*
X89748646Y-107869445D01*
X89694945Y-107861959D01*
X89649103Y-107843428D01*
X89621591Y-107814467D01*
X89606660Y-107773299D01*
X89605934Y-107728916D01*
X89619490Y-107689356D01*
X89647401Y-107662658D01*
X89693063Y-107647597D01*
X89749644Y-107644144D01*
X89802279Y-107654630D01*
G36*
X93401500Y-107947074D02*
G01*
X93417633Y-107952282D01*
X93455054Y-107972062D01*
X93492595Y-107999384D01*
X93513736Y-108016797D01*
X93537637Y-108034310D01*
X93548569Y-108039184D01*
X93548670Y-108039058D01*
X93555138Y-108024337D01*
X93564859Y-107996400D01*
X93571178Y-107979039D01*
X93580625Y-107966927D01*
X93598232Y-107960197D01*
X93629743Y-107956781D01*
X93680898Y-107954611D01*
X93784650Y-107950922D01*
X93784650Y-108701250D01*
X93517950Y-108701250D01*
X93517880Y-108494875D01*
X93517017Y-108405488D01*
X93513784Y-108326968D01*
X93507636Y-108267283D01*
X93498036Y-108223012D01*
X93484445Y-108190733D01*
X93466326Y-108167025D01*
X93451471Y-108155640D01*
X93410643Y-108143097D01*
X93367441Y-108147658D01*
X93332594Y-108169154D01*
X93325272Y-108178749D01*
X93318677Y-108193464D01*
X93313810Y-108215444D01*
X93310304Y-108248316D01*
X93307790Y-108295707D01*
X93305902Y-108361244D01*
X93304272Y-108448554D01*
X93300144Y-108701250D01*
X93032901Y-108701250D01*
X93037835Y-108418675D01*
X93039240Y-108348837D01*
X93042066Y-108259683D01*
X93046234Y-108190075D01*
X93052363Y-108136464D01*
X93061072Y-108095296D01*
X93072978Y-108063021D01*
X93088701Y-108036088D01*
X93108860Y-108010946D01*
X93124322Y-107996172D01*
X93178013Y-107965182D01*
X93246362Y-107945741D01*
X93322986Y-107939240D01*
X93401500Y-107947074D01*
G37*
X93401500Y-107947074D02*
X93417633Y-107952282D01*
X93455054Y-107972062D01*
X93492595Y-107999384D01*
X93513736Y-108016797D01*
X93537637Y-108034310D01*
X93548569Y-108039184D01*
X93548670Y-108039058D01*
X93555138Y-108024337D01*
X93564859Y-107996400D01*
X93571178Y-107979039D01*
X93580625Y-107966927D01*
X93598232Y-107960197D01*
X93629743Y-107956781D01*
X93680898Y-107954611D01*
X93784650Y-107950922D01*
X93784650Y-108701250D01*
X93517950Y-108701250D01*
X93517880Y-108494875D01*
X93517017Y-108405488D01*
X93513784Y-108326968D01*
X93507636Y-108267283D01*
X93498036Y-108223012D01*
X93484445Y-108190733D01*
X93466326Y-108167025D01*
X93451471Y-108155640D01*
X93410643Y-108143097D01*
X93367441Y-108147658D01*
X93332594Y-108169154D01*
X93325272Y-108178749D01*
X93318677Y-108193464D01*
X93313810Y-108215444D01*
X93310304Y-108248316D01*
X93307790Y-108295707D01*
X93305902Y-108361244D01*
X93304272Y-108448554D01*
X93300144Y-108701250D01*
X93032901Y-108701250D01*
X93037835Y-108418675D01*
X93039240Y-108348837D01*
X93042066Y-108259683D01*
X93046234Y-108190075D01*
X93052363Y-108136464D01*
X93061072Y-108095296D01*
X93072978Y-108063021D01*
X93088701Y-108036088D01*
X93108860Y-108010946D01*
X93124322Y-107996172D01*
X93178013Y-107965182D01*
X93246362Y-107945741D01*
X93322986Y-107939240D01*
X93401500Y-107947074D01*
G36*
X89438064Y-108433618D02*
G01*
X89402762Y-108532513D01*
X89382860Y-108569275D01*
X89344189Y-108619952D01*
X89294832Y-108657862D01*
X89227435Y-108689597D01*
X89215921Y-108693844D01*
X89131672Y-108712211D01*
X89042465Y-108712789D01*
X88954953Y-108696706D01*
X88875789Y-108665092D01*
X88811626Y-108619073D01*
X88766747Y-108566107D01*
X88729671Y-108492570D01*
X88710163Y-108405348D01*
X88708939Y-108362899D01*
X88971846Y-108362899D01*
X88976791Y-108421669D01*
X88989276Y-108464476D01*
X89010103Y-108495824D01*
X89025099Y-108508649D01*
X89066409Y-108523300D01*
X89110668Y-108517214D01*
X89150112Y-108490676D01*
X89152328Y-108488295D01*
X89165457Y-108471789D01*
X89173813Y-108452909D01*
X89178461Y-108425901D01*
X89180468Y-108385009D01*
X89180900Y-108324477D01*
X89180861Y-108293412D01*
X89180080Y-108243725D01*
X89177347Y-108211184D01*
X89171445Y-108190186D01*
X89161158Y-108175126D01*
X89145267Y-108160400D01*
X89137895Y-108154424D01*
X89092743Y-108132646D01*
X89048636Y-108135286D01*
X89008696Y-108162303D01*
X88996607Y-108176957D01*
X88984435Y-108201697D01*
X88977381Y-108236653D01*
X88973338Y-108289409D01*
X88971846Y-108362899D01*
X88708939Y-108362899D01*
X88707159Y-108301200D01*
X88707284Y-108298329D01*
X88711214Y-108238426D01*
X88718128Y-108194550D01*
X88730102Y-108157702D01*
X88749212Y-108118884D01*
X88776531Y-108075323D01*
X88837114Y-108010992D01*
X88911315Y-107967590D01*
X88999913Y-107944725D01*
X89103692Y-107942009D01*
X89108517Y-107942340D01*
X89207743Y-107958763D01*
X89291050Y-107991894D01*
X89356626Y-108040751D01*
X89402662Y-108104350D01*
X89412264Y-108124703D01*
X89442813Y-108223904D01*
X89451058Y-108324477D01*
X89451413Y-108328812D01*
X89438064Y-108433618D01*
G37*
X89438064Y-108433618D02*
X89402762Y-108532513D01*
X89382860Y-108569275D01*
X89344189Y-108619952D01*
X89294832Y-108657862D01*
X89227435Y-108689597D01*
X89215921Y-108693844D01*
X89131672Y-108712211D01*
X89042465Y-108712789D01*
X88954953Y-108696706D01*
X88875789Y-108665092D01*
X88811626Y-108619073D01*
X88766747Y-108566107D01*
X88729671Y-108492570D01*
X88710163Y-108405348D01*
X88708939Y-108362899D01*
X88971846Y-108362899D01*
X88976791Y-108421669D01*
X88989276Y-108464476D01*
X89010103Y-108495824D01*
X89025099Y-108508649D01*
X89066409Y-108523300D01*
X89110668Y-108517214D01*
X89150112Y-108490676D01*
X89152328Y-108488295D01*
X89165457Y-108471789D01*
X89173813Y-108452909D01*
X89178461Y-108425901D01*
X89180468Y-108385009D01*
X89180900Y-108324477D01*
X89180861Y-108293412D01*
X89180080Y-108243725D01*
X89177347Y-108211184D01*
X89171445Y-108190186D01*
X89161158Y-108175126D01*
X89145267Y-108160400D01*
X89137895Y-108154424D01*
X89092743Y-108132646D01*
X89048636Y-108135286D01*
X89008696Y-108162303D01*
X88996607Y-108176957D01*
X88984435Y-108201697D01*
X88977381Y-108236653D01*
X88973338Y-108289409D01*
X88971846Y-108362899D01*
X88708939Y-108362899D01*
X88707159Y-108301200D01*
X88707284Y-108298329D01*
X88711214Y-108238426D01*
X88718128Y-108194550D01*
X88730102Y-108157702D01*
X88749212Y-108118884D01*
X88776531Y-108075323D01*
X88837114Y-108010992D01*
X88911315Y-107967590D01*
X88999913Y-107944725D01*
X89103692Y-107942009D01*
X89108517Y-107942340D01*
X89207743Y-107958763D01*
X89291050Y-107991894D01*
X89356626Y-108040751D01*
X89402662Y-108104350D01*
X89412264Y-108124703D01*
X89442813Y-108223904D01*
X89451058Y-108324477D01*
X89451413Y-108328812D01*
X89438064Y-108433618D01*
G36*
X90411269Y-107878925D02*
G01*
X90436340Y-107929672D01*
X90464405Y-107966228D01*
X90502047Y-107996400D01*
X90524873Y-108012300D01*
X90547390Y-108033068D01*
X90556872Y-108055483D01*
X90558823Y-108088475D01*
X90558664Y-108108023D01*
X90555198Y-108131887D01*
X90542825Y-108140993D01*
X90515892Y-108142450D01*
X90472933Y-108142450D01*
X90467949Y-108348892D01*
X90464990Y-108436075D01*
X90459578Y-108510796D01*
X90450689Y-108567274D01*
X90437075Y-108609239D01*
X90417487Y-108640424D01*
X90390678Y-108664559D01*
X90355399Y-108685375D01*
X90343819Y-108690731D01*
X90281069Y-108707942D01*
X90206517Y-108714314D01*
X90129395Y-108709593D01*
X90058934Y-108693526D01*
X89998993Y-108673102D01*
X90002697Y-108582401D01*
X90003532Y-108564742D01*
X90007444Y-108522127D01*
X90013817Y-108500176D01*
X90023513Y-108495287D01*
X90082411Y-108506484D01*
X90130452Y-108510591D01*
X90163775Y-108503417D01*
X90185048Y-108482145D01*
X90196939Y-108443959D01*
X90202117Y-108386043D01*
X90203250Y-108305581D01*
X90203250Y-108142450D01*
X90012750Y-108142450D01*
X90012750Y-107951950D01*
X90203250Y-107951950D01*
X90203250Y-107799550D01*
X90377240Y-107799550D01*
X90411269Y-107878925D01*
G37*
X90411269Y-107878925D02*
X90436340Y-107929672D01*
X90464405Y-107966228D01*
X90502047Y-107996400D01*
X90524873Y-108012300D01*
X90547390Y-108033068D01*
X90556872Y-108055483D01*
X90558823Y-108088475D01*
X90558664Y-108108023D01*
X90555198Y-108131887D01*
X90542825Y-108140993D01*
X90515892Y-108142450D01*
X90472933Y-108142450D01*
X90467949Y-108348892D01*
X90464990Y-108436075D01*
X90459578Y-108510796D01*
X90450689Y-108567274D01*
X90437075Y-108609239D01*
X90417487Y-108640424D01*
X90390678Y-108664559D01*
X90355399Y-108685375D01*
X90343819Y-108690731D01*
X90281069Y-108707942D01*
X90206517Y-108714314D01*
X90129395Y-108709593D01*
X90058934Y-108693526D01*
X89998993Y-108673102D01*
X90002697Y-108582401D01*
X90003532Y-108564742D01*
X90007444Y-108522127D01*
X90013817Y-108500176D01*
X90023513Y-108495287D01*
X90082411Y-108506484D01*
X90130452Y-108510591D01*
X90163775Y-108503417D01*
X90185048Y-108482145D01*
X90196939Y-108443959D01*
X90202117Y-108386043D01*
X90203250Y-108305581D01*
X90203250Y-108142450D01*
X90012750Y-108142450D01*
X90012750Y-107951950D01*
X90203250Y-107951950D01*
X90203250Y-107799550D01*
X90377240Y-107799550D01*
X90411269Y-107878925D01*
G36*
X84165470Y-108119899D02*
G01*
X84206456Y-108142944D01*
X84225819Y-108164158D01*
X84234250Y-108180006D01*
X84235116Y-108187389D01*
X84241959Y-108211261D01*
X84243305Y-108216355D01*
X84239418Y-108224120D01*
X84222950Y-108228672D01*
X84189634Y-108230814D01*
X84135198Y-108231350D01*
X84128522Y-108231349D01*
X84076806Y-108231001D01*
X84045439Y-108229186D01*
X84029841Y-108224688D01*
X84025435Y-108216289D01*
X84027642Y-108202775D01*
X84043715Y-108166295D01*
X84077459Y-108133797D01*
X84120257Y-108117591D01*
X84165470Y-108119899D01*
G37*
X84165470Y-108119899D02*
X84206456Y-108142944D01*
X84225819Y-108164158D01*
X84234250Y-108180006D01*
X84235116Y-108187389D01*
X84241959Y-108211261D01*
X84243305Y-108216355D01*
X84239418Y-108224120D01*
X84222950Y-108228672D01*
X84189634Y-108230814D01*
X84135198Y-108231350D01*
X84128522Y-108231349D01*
X84076806Y-108231001D01*
X84045439Y-108229186D01*
X84029841Y-108224688D01*
X84025435Y-108216289D01*
X84027642Y-108202775D01*
X84043715Y-108166295D01*
X84077459Y-108133797D01*
X84120257Y-108117591D01*
X84165470Y-108119899D01*
G36*
X91392560Y-108536768D02*
G01*
X91371721Y-108606499D01*
X91333243Y-108659137D01*
X91276400Y-108696022D01*
X91252777Y-108703599D01*
X91199945Y-108711238D01*
X91139448Y-108712632D01*
X91081889Y-108707756D01*
X91037868Y-108696583D01*
X91035797Y-108695681D01*
X90997229Y-108673595D01*
X90961198Y-108645576D01*
X90944626Y-108630930D01*
X90922283Y-108619407D01*
X90905825Y-108629569D01*
X90889163Y-108662877D01*
X90883096Y-108676729D01*
X90873053Y-108690738D01*
X90856506Y-108698036D01*
X90827154Y-108700811D01*
X90778701Y-108701250D01*
X90684134Y-108701250D01*
X90688167Y-108412325D01*
X90688195Y-108410304D01*
X90688456Y-108392939D01*
X90939850Y-108392939D01*
X90939851Y-108393046D01*
X90948661Y-108443602D01*
X90971721Y-108488270D01*
X91004097Y-108517485D01*
X91008393Y-108519643D01*
X91056843Y-108534155D01*
X91095330Y-108527584D01*
X91120790Y-108501398D01*
X91130156Y-108457067D01*
X91128397Y-108441937D01*
X91107795Y-108409446D01*
X91065333Y-108386398D01*
X91002629Y-108373850D01*
X90983546Y-108372181D01*
X90955055Y-108371928D01*
X90942598Y-108378206D01*
X90939850Y-108392939D01*
X90688456Y-108392939D01*
X90689588Y-108317595D01*
X90691095Y-108246506D01*
X90693102Y-108193330D01*
X90695993Y-108154361D01*
X90700155Y-108125891D01*
X90705971Y-108104214D01*
X90713828Y-108085622D01*
X90724110Y-108066409D01*
X90738086Y-108043816D01*
X90778376Y-107999382D01*
X90830580Y-107968787D01*
X90898757Y-107950100D01*
X90986967Y-107941390D01*
X91060036Y-107941706D01*
X91135463Y-107948303D01*
X91205317Y-107960122D01*
X91263012Y-107976043D01*
X91301961Y-107994946D01*
X91312336Y-108005250D01*
X91314360Y-108019549D01*
X91307092Y-108044101D01*
X91289672Y-108085225D01*
X91273119Y-108121935D01*
X91259035Y-108151695D01*
X91251918Y-108164815D01*
X91251185Y-108165108D01*
X91234318Y-108162753D01*
X91200617Y-108154468D01*
X91156398Y-108141775D01*
X91116557Y-108130973D01*
X91050515Y-108121541D01*
X91002129Y-108128534D01*
X90970197Y-108152018D01*
X90957667Y-108171533D01*
X90952669Y-108198389D01*
X90969690Y-108216868D01*
X91009582Y-108227628D01*
X91073200Y-108231327D01*
X91077994Y-108231385D01*
X91141447Y-108237248D01*
X91206995Y-108250966D01*
X91265477Y-108270152D01*
X91307731Y-108292419D01*
X91356337Y-108339391D01*
X91387132Y-108399883D01*
X91394816Y-108457067D01*
X91397050Y-108473701D01*
X91392560Y-108536768D01*
G37*
X91392560Y-108536768D02*
X91371721Y-108606499D01*
X91333243Y-108659137D01*
X91276400Y-108696022D01*
X91252777Y-108703599D01*
X91199945Y-108711238D01*
X91139448Y-108712632D01*
X91081889Y-108707756D01*
X91037868Y-108696583D01*
X91035797Y-108695681D01*
X90997229Y-108673595D01*
X90961198Y-108645576D01*
X90944626Y-108630930D01*
X90922283Y-108619407D01*
X90905825Y-108629569D01*
X90889163Y-108662877D01*
X90883096Y-108676729D01*
X90873053Y-108690738D01*
X90856506Y-108698036D01*
X90827154Y-108700811D01*
X90778701Y-108701250D01*
X90684134Y-108701250D01*
X90688167Y-108412325D01*
X90688195Y-108410304D01*
X90688456Y-108392939D01*
X90939850Y-108392939D01*
X90939851Y-108393046D01*
X90948661Y-108443602D01*
X90971721Y-108488270D01*
X91004097Y-108517485D01*
X91008393Y-108519643D01*
X91056843Y-108534155D01*
X91095330Y-108527584D01*
X91120790Y-108501398D01*
X91130156Y-108457067D01*
X91128397Y-108441937D01*
X91107795Y-108409446D01*
X91065333Y-108386398D01*
X91002629Y-108373850D01*
X90983546Y-108372181D01*
X90955055Y-108371928D01*
X90942598Y-108378206D01*
X90939850Y-108392939D01*
X90688456Y-108392939D01*
X90689588Y-108317595D01*
X90691095Y-108246506D01*
X90693102Y-108193330D01*
X90695993Y-108154361D01*
X90700155Y-108125891D01*
X90705971Y-108104214D01*
X90713828Y-108085622D01*
X90724110Y-108066409D01*
X90738086Y-108043816D01*
X90778376Y-107999382D01*
X90830580Y-107968787D01*
X90898757Y-107950100D01*
X90986967Y-107941390D01*
X91060036Y-107941706D01*
X91135463Y-107948303D01*
X91205317Y-107960122D01*
X91263012Y-107976043D01*
X91301961Y-107994946D01*
X91312336Y-108005250D01*
X91314360Y-108019549D01*
X91307092Y-108044101D01*
X91289672Y-108085225D01*
X91273119Y-108121935D01*
X91259035Y-108151695D01*
X91251918Y-108164815D01*
X91251185Y-108165108D01*
X91234318Y-108162753D01*
X91200617Y-108154468D01*
X91156398Y-108141775D01*
X91116557Y-108130973D01*
X91050515Y-108121541D01*
X91002129Y-108128534D01*
X90970197Y-108152018D01*
X90957667Y-108171533D01*
X90952669Y-108198389D01*
X90969690Y-108216868D01*
X91009582Y-108227628D01*
X91073200Y-108231327D01*
X91077994Y-108231385D01*
X91141447Y-108237248D01*
X91206995Y-108250966D01*
X91265477Y-108270152D01*
X91307731Y-108292419D01*
X91356337Y-108339391D01*
X91387132Y-108399883D01*
X91394816Y-108457067D01*
X91397050Y-108473701D01*
X91392560Y-108536768D01*
G36*
X88119794Y-107940909D02*
G01*
X88173646Y-107949629D01*
X88217599Y-107968232D01*
X88260195Y-107999384D01*
X88281336Y-108016797D01*
X88305237Y-108034310D01*
X88316169Y-108039184D01*
X88316270Y-108039058D01*
X88322738Y-108024337D01*
X88332459Y-107996400D01*
X88338778Y-107979039D01*
X88348225Y-107966927D01*
X88365832Y-107960197D01*
X88397343Y-107956781D01*
X88448498Y-107954611D01*
X88552250Y-107950922D01*
X88552250Y-108701250D01*
X88287973Y-108701250D01*
X88283400Y-108469475D01*
X88281440Y-108387104D01*
X88278569Y-108318510D01*
X88274219Y-108267679D01*
X88267667Y-108230635D01*
X88258192Y-108203406D01*
X88245069Y-108182016D01*
X88227577Y-108162490D01*
X88212983Y-108152065D01*
X88174472Y-108142795D01*
X88133123Y-108148688D01*
X88100194Y-108169154D01*
X88092872Y-108178749D01*
X88086277Y-108193464D01*
X88081410Y-108215444D01*
X88077904Y-108248316D01*
X88075390Y-108295707D01*
X88073502Y-108361244D01*
X88071872Y-108448554D01*
X88067744Y-108701250D01*
X87800538Y-108701250D01*
X87805221Y-108412325D01*
X87806021Y-108364883D01*
X87807747Y-108281398D01*
X87809797Y-108217923D01*
X87812511Y-108170798D01*
X87816231Y-108136364D01*
X87821296Y-108110959D01*
X87828048Y-108090924D01*
X87836826Y-108072600D01*
X87863143Y-108031163D01*
X87917151Y-107979706D01*
X87984981Y-107949265D01*
X88067655Y-107939250D01*
X88119794Y-107940909D01*
G37*
X88119794Y-107940909D02*
X88173646Y-107949629D01*
X88217599Y-107968232D01*
X88260195Y-107999384D01*
X88281336Y-108016797D01*
X88305237Y-108034310D01*
X88316169Y-108039184D01*
X88316270Y-108039058D01*
X88322738Y-108024337D01*
X88332459Y-107996400D01*
X88338778Y-107979039D01*
X88348225Y-107966927D01*
X88365832Y-107960197D01*
X88397343Y-107956781D01*
X88448498Y-107954611D01*
X88552250Y-107950922D01*
X88552250Y-108701250D01*
X88287973Y-108701250D01*
X88283400Y-108469475D01*
X88281440Y-108387104D01*
X88278569Y-108318510D01*
X88274219Y-108267679D01*
X88267667Y-108230635D01*
X88258192Y-108203406D01*
X88245069Y-108182016D01*
X88227577Y-108162490D01*
X88212983Y-108152065D01*
X88174472Y-108142795D01*
X88133123Y-108148688D01*
X88100194Y-108169154D01*
X88092872Y-108178749D01*
X88086277Y-108193464D01*
X88081410Y-108215444D01*
X88077904Y-108248316D01*
X88075390Y-108295707D01*
X88073502Y-108361244D01*
X88071872Y-108448554D01*
X88067744Y-108701250D01*
X87800538Y-108701250D01*
X87805221Y-108412325D01*
X87806021Y-108364883D01*
X87807747Y-108281398D01*
X87809797Y-108217923D01*
X87812511Y-108170798D01*
X87816231Y-108136364D01*
X87821296Y-108110959D01*
X87828048Y-108090924D01*
X87836826Y-108072600D01*
X87863143Y-108031163D01*
X87917151Y-107979706D01*
X87984981Y-107949265D01*
X88067655Y-107939250D01*
X88119794Y-107940909D01*
G36*
X95536986Y-108836407D02*
G01*
X95523396Y-108899991D01*
X95488701Y-108951119D01*
X95432177Y-108990553D01*
X95353100Y-109019055D01*
X95344823Y-109020762D01*
X95307771Y-109025141D01*
X95256817Y-109028476D01*
X95200426Y-109030150D01*
X95182094Y-109030184D01*
X95070813Y-109022188D01*
X94973655Y-109000629D01*
X94892949Y-108966452D01*
X94831023Y-108920598D01*
X94790207Y-108864012D01*
X94784980Y-108852619D01*
X94765832Y-108788843D01*
X94978450Y-108788843D01*
X94988596Y-108809225D01*
X95018080Y-108831742D01*
X95060889Y-108851594D01*
X95110958Y-108865283D01*
X95145455Y-108871307D01*
X95178113Y-108876325D01*
X95193508Y-108877750D01*
X95201980Y-108876172D01*
X95263618Y-108860352D01*
X95301511Y-108840577D01*
X95317011Y-108815784D01*
X95311467Y-108784910D01*
X95292195Y-108761102D01*
X95248462Y-108740499D01*
X95185051Y-108731317D01*
X95103877Y-108734027D01*
X95083300Y-108736417D01*
X95026235Y-108748562D01*
X94990693Y-108766296D01*
X94978450Y-108788843D01*
X94765832Y-108788843D01*
X94761855Y-108775597D01*
X94761830Y-108705114D01*
X94784157Y-108643413D01*
X94828092Y-108592736D01*
X94892887Y-108555325D01*
X94896725Y-108553867D01*
X94940676Y-108542526D01*
X95000408Y-108533398D01*
X95067350Y-108527835D01*
X95118023Y-108525146D01*
X95173908Y-108521074D01*
X95210769Y-108516094D01*
X95232400Y-108509335D01*
X95242595Y-108499924D01*
X95245150Y-108486990D01*
X95245023Y-108483981D01*
X95240026Y-108473104D01*
X95224199Y-108465727D01*
X95192690Y-108460396D01*
X95140647Y-108455655D01*
X95061558Y-108444936D01*
X94975681Y-108418324D01*
X94910425Y-108377637D01*
X94866172Y-108323059D01*
X94864486Y-108319906D01*
X94842802Y-108259333D01*
X94835284Y-108193729D01*
X94835727Y-108190515D01*
X95080775Y-108190515D01*
X95083893Y-108239375D01*
X95099821Y-108279324D01*
X95117296Y-108296365D01*
X95156250Y-108307550D01*
X95169495Y-108306460D01*
X95203834Y-108288716D01*
X95225137Y-108250357D01*
X95232450Y-108192818D01*
X95229634Y-108161659D01*
X95214172Y-108118535D01*
X95188660Y-108089494D01*
X95157033Y-108078288D01*
X95123227Y-108088669D01*
X95108449Y-108102887D01*
X95089337Y-108141950D01*
X95080775Y-108190515D01*
X94835727Y-108190515D01*
X94843375Y-108135020D01*
X94845201Y-108117268D01*
X94832837Y-108104400D01*
X94800841Y-108091712D01*
X94778099Y-108083741D01*
X94758536Y-108071690D01*
X94751055Y-108051698D01*
X94749850Y-108015036D01*
X94749850Y-107955188D01*
X95000675Y-107946113D01*
X95019803Y-107945425D01*
X95102070Y-107942695D01*
X95164154Y-107941359D01*
X95210383Y-107941660D01*
X95245091Y-107943837D01*
X95272607Y-107948131D01*
X95297263Y-107954782D01*
X95323390Y-107964032D01*
X95349610Y-107975134D01*
X95409914Y-108015591D01*
X95451291Y-108071507D01*
X95476084Y-108145668D01*
X95479413Y-108164465D01*
X95479641Y-108192818D01*
X95480044Y-108243005D01*
X95457154Y-108312093D01*
X95410637Y-108372093D01*
X95362863Y-108417586D01*
X95399003Y-108441876D01*
X95400015Y-108442561D01*
X95439353Y-108481272D01*
X95455819Y-108526468D01*
X95448149Y-108574735D01*
X95429994Y-108605599D01*
X95408509Y-108625982D01*
X95401725Y-108629841D01*
X95386705Y-108644719D01*
X95395086Y-108658561D01*
X95427756Y-108673562D01*
X95461489Y-108693025D01*
X95499231Y-108731947D01*
X95526659Y-108778920D01*
X95535145Y-108815784D01*
X95537250Y-108824930D01*
X95536986Y-108836407D01*
G37*
X95536986Y-108836407D02*
X95523396Y-108899991D01*
X95488701Y-108951119D01*
X95432177Y-108990553D01*
X95353100Y-109019055D01*
X95344823Y-109020762D01*
X95307771Y-109025141D01*
X95256817Y-109028476D01*
X95200426Y-109030150D01*
X95182094Y-109030184D01*
X95070813Y-109022188D01*
X94973655Y-109000629D01*
X94892949Y-108966452D01*
X94831023Y-108920598D01*
X94790207Y-108864012D01*
X94784980Y-108852619D01*
X94765832Y-108788843D01*
X94978450Y-108788843D01*
X94988596Y-108809225D01*
X95018080Y-108831742D01*
X95060889Y-108851594D01*
X95110958Y-108865283D01*
X95145455Y-108871307D01*
X95178113Y-108876325D01*
X95193508Y-108877750D01*
X95201980Y-108876172D01*
X95263618Y-108860352D01*
X95301511Y-108840577D01*
X95317011Y-108815784D01*
X95311467Y-108784910D01*
X95292195Y-108761102D01*
X95248462Y-108740499D01*
X95185051Y-108731317D01*
X95103877Y-108734027D01*
X95083300Y-108736417D01*
X95026235Y-108748562D01*
X94990693Y-108766296D01*
X94978450Y-108788843D01*
X94765832Y-108788843D01*
X94761855Y-108775597D01*
X94761830Y-108705114D01*
X94784157Y-108643413D01*
X94828092Y-108592736D01*
X94892887Y-108555325D01*
X94896725Y-108553867D01*
X94940676Y-108542526D01*
X95000408Y-108533398D01*
X95067350Y-108527835D01*
X95118023Y-108525146D01*
X95173908Y-108521074D01*
X95210769Y-108516094D01*
X95232400Y-108509335D01*
X95242595Y-108499924D01*
X95245150Y-108486990D01*
X95245023Y-108483981D01*
X95240026Y-108473104D01*
X95224199Y-108465727D01*
X95192690Y-108460396D01*
X95140647Y-108455655D01*
X95061558Y-108444936D01*
X94975681Y-108418324D01*
X94910425Y-108377637D01*
X94866172Y-108323059D01*
X94864486Y-108319906D01*
X94842802Y-108259333D01*
X94835284Y-108193729D01*
X94835727Y-108190515D01*
X95080775Y-108190515D01*
X95083893Y-108239375D01*
X95099821Y-108279324D01*
X95117296Y-108296365D01*
X95156250Y-108307550D01*
X95169495Y-108306460D01*
X95203834Y-108288716D01*
X95225137Y-108250357D01*
X95232450Y-108192818D01*
X95229634Y-108161659D01*
X95214172Y-108118535D01*
X95188660Y-108089494D01*
X95157033Y-108078288D01*
X95123227Y-108088669D01*
X95108449Y-108102887D01*
X95089337Y-108141950D01*
X95080775Y-108190515D01*
X94835727Y-108190515D01*
X94843375Y-108135020D01*
X94845201Y-108117268D01*
X94832837Y-108104400D01*
X94800841Y-108091712D01*
X94778099Y-108083741D01*
X94758536Y-108071690D01*
X94751055Y-108051698D01*
X94749850Y-108015036D01*
X94749850Y-107955188D01*
X95000675Y-107946113D01*
X95019803Y-107945425D01*
X95102070Y-107942695D01*
X95164154Y-107941359D01*
X95210383Y-107941660D01*
X95245091Y-107943837D01*
X95272607Y-107948131D01*
X95297263Y-107954782D01*
X95323390Y-107964032D01*
X95349610Y-107975134D01*
X95409914Y-108015591D01*
X95451291Y-108071507D01*
X95476084Y-108145668D01*
X95479413Y-108164465D01*
X95479641Y-108192818D01*
X95480044Y-108243005D01*
X95457154Y-108312093D01*
X95410637Y-108372093D01*
X95362863Y-108417586D01*
X95399003Y-108441876D01*
X95400015Y-108442561D01*
X95439353Y-108481272D01*
X95455819Y-108526468D01*
X95448149Y-108574735D01*
X95429994Y-108605599D01*
X95408509Y-108625982D01*
X95401725Y-108629841D01*
X95386705Y-108644719D01*
X95395086Y-108658561D01*
X95427756Y-108673562D01*
X95461489Y-108693025D01*
X95499231Y-108731947D01*
X95526659Y-108778920D01*
X95535145Y-108815784D01*
X95537250Y-108824930D01*
X95536986Y-108836407D01*
G36*
X92878657Y-108415105D02*
G01*
X92853337Y-108505731D01*
X92810340Y-108584036D01*
X92802260Y-108594565D01*
X92763930Y-108633489D01*
X92715612Y-108663807D01*
X92649625Y-108690611D01*
X92642458Y-108692948D01*
X92578205Y-108706250D01*
X92500288Y-108712737D01*
X92418222Y-108712395D01*
X92341522Y-108705210D01*
X92279700Y-108691169D01*
X92216200Y-108669500D01*
X92212469Y-108577425D01*
X92212239Y-108571064D01*
X92212323Y-108527640D01*
X92215239Y-108496971D01*
X92220443Y-108485350D01*
X92222190Y-108485482D01*
X92243550Y-108491321D01*
X92274975Y-108503139D01*
X92301907Y-108511762D01*
X92349337Y-108522187D01*
X92400406Y-108529684D01*
X92452181Y-108532265D01*
X92522623Y-108522745D01*
X92575164Y-108496506D01*
X92608922Y-108453868D01*
X92611764Y-108447801D01*
X92623988Y-108419510D01*
X92628950Y-108404055D01*
X92628947Y-108404014D01*
X92616523Y-108401629D01*
X92582702Y-108399553D01*
X92531423Y-108397913D01*
X92466622Y-108396836D01*
X92392239Y-108396450D01*
X92155527Y-108396450D01*
X92161896Y-108284745D01*
X92171001Y-108207662D01*
X92400350Y-108207662D01*
X92400944Y-108214457D01*
X92407131Y-108223434D01*
X92424061Y-108228537D01*
X92456615Y-108230823D01*
X92509677Y-108231350D01*
X92619004Y-108231350D01*
X92610736Y-108196425D01*
X92608741Y-108189210D01*
X92585239Y-108150007D01*
X92548333Y-108124803D01*
X92504971Y-108115330D01*
X92462102Y-108123322D01*
X92426672Y-108150512D01*
X92426138Y-108151196D01*
X92407907Y-108181486D01*
X92400350Y-108207662D01*
X92171001Y-108207662D01*
X92173373Y-108187577D01*
X92197286Y-108108270D01*
X92235255Y-108046439D01*
X92289036Y-107999242D01*
X92360385Y-107963841D01*
X92377177Y-107958012D01*
X92458388Y-107941559D01*
X92543677Y-107940573D01*
X92627495Y-107953803D01*
X92704292Y-107979996D01*
X92768517Y-108017901D01*
X92814620Y-108066268D01*
X92848058Y-108128943D01*
X92876067Y-108220746D01*
X92877176Y-108231350D01*
X92886250Y-108318121D01*
X92878657Y-108415105D01*
G37*
X92878657Y-108415105D02*
X92853337Y-108505731D01*
X92810340Y-108584036D01*
X92802260Y-108594565D01*
X92763930Y-108633489D01*
X92715612Y-108663807D01*
X92649625Y-108690611D01*
X92642458Y-108692948D01*
X92578205Y-108706250D01*
X92500288Y-108712737D01*
X92418222Y-108712395D01*
X92341522Y-108705210D01*
X92279700Y-108691169D01*
X92216200Y-108669500D01*
X92212469Y-108577425D01*
X92212239Y-108571064D01*
X92212323Y-108527640D01*
X92215239Y-108496971D01*
X92220443Y-108485350D01*
X92222190Y-108485482D01*
X92243550Y-108491321D01*
X92274975Y-108503139D01*
X92301907Y-108511762D01*
X92349337Y-108522187D01*
X92400406Y-108529684D01*
X92452181Y-108532265D01*
X92522623Y-108522745D01*
X92575164Y-108496506D01*
X92608922Y-108453868D01*
X92611764Y-108447801D01*
X92623988Y-108419510D01*
X92628950Y-108404055D01*
X92628947Y-108404014D01*
X92616523Y-108401629D01*
X92582702Y-108399553D01*
X92531423Y-108397913D01*
X92466622Y-108396836D01*
X92392239Y-108396450D01*
X92155527Y-108396450D01*
X92161896Y-108284745D01*
X92171001Y-108207662D01*
X92400350Y-108207662D01*
X92400944Y-108214457D01*
X92407131Y-108223434D01*
X92424061Y-108228537D01*
X92456615Y-108230823D01*
X92509677Y-108231350D01*
X92619004Y-108231350D01*
X92610736Y-108196425D01*
X92608741Y-108189210D01*
X92585239Y-108150007D01*
X92548333Y-108124803D01*
X92504971Y-108115330D01*
X92462102Y-108123322D01*
X92426672Y-108150512D01*
X92426138Y-108151196D01*
X92407907Y-108181486D01*
X92400350Y-108207662D01*
X92171001Y-108207662D01*
X92173373Y-108187577D01*
X92197286Y-108108270D01*
X92235255Y-108046439D01*
X92289036Y-107999242D01*
X92360385Y-107963841D01*
X92377177Y-107958012D01*
X92458388Y-107941559D01*
X92543677Y-107940573D01*
X92627495Y-107953803D01*
X92704292Y-107979996D01*
X92768517Y-108017901D01*
X92814620Y-108066268D01*
X92848058Y-108128943D01*
X92876067Y-108220746D01*
X92877176Y-108231350D01*
X92886250Y-108318121D01*
X92878657Y-108415105D01*
G36*
X85884937Y-108371451D02*
G01*
X85937309Y-108382399D01*
X85982050Y-108405393D01*
X86013238Y-108436507D01*
X86024950Y-108471815D01*
X86017478Y-108488651D01*
X85998228Y-108512072D01*
X85979997Y-108525377D01*
X85942490Y-108532926D01*
X85903599Y-108522326D01*
X85868906Y-108496892D01*
X85843995Y-108459942D01*
X85834450Y-108414791D01*
X85836390Y-108386223D01*
X85846949Y-108373550D01*
X85872958Y-108371050D01*
X85884937Y-108371451D01*
G37*
X85884937Y-108371451D02*
X85937309Y-108382399D01*
X85982050Y-108405393D01*
X86013238Y-108436507D01*
X86024950Y-108471815D01*
X86017478Y-108488651D01*
X85998228Y-108512072D01*
X85979997Y-108525377D01*
X85942490Y-108532926D01*
X85903599Y-108522326D01*
X85868906Y-108496892D01*
X85843995Y-108459942D01*
X85834450Y-108414791D01*
X85836390Y-108386223D01*
X85846949Y-108373550D01*
X85872958Y-108371050D01*
X85884937Y-108371451D01*
G36*
X91582957Y-107941740D02*
G01*
X91623926Y-107953411D01*
X91668223Y-107978745D01*
X91692052Y-107995717D01*
X91723185Y-108021962D01*
X91740697Y-108042245D01*
X91749683Y-108056492D01*
X91763804Y-108064265D01*
X91776969Y-108048815D01*
X91790750Y-108009100D01*
X91806752Y-107951950D01*
X92006650Y-107951950D01*
X92006650Y-108701250D01*
X91755261Y-108701250D01*
X91749992Y-108494875D01*
X91747398Y-108419265D01*
X91742496Y-108340035D01*
X91735968Y-108284778D01*
X91727877Y-108254187D01*
X91722267Y-108244339D01*
X91685238Y-108209765D01*
X91629165Y-108188069D01*
X91557056Y-108180550D01*
X91485950Y-108180550D01*
X91485950Y-108137962D01*
X91485246Y-108113959D01*
X91482282Y-108067362D01*
X91477791Y-108017312D01*
X91469632Y-107939250D01*
X91539114Y-107939250D01*
X91582957Y-107941740D01*
G37*
X91582957Y-107941740D02*
X91623926Y-107953411D01*
X91668223Y-107978745D01*
X91692052Y-107995717D01*
X91723185Y-108021962D01*
X91740697Y-108042245D01*
X91749683Y-108056492D01*
X91763804Y-108064265D01*
X91776969Y-108048815D01*
X91790750Y-108009100D01*
X91806752Y-107951950D01*
X92006650Y-107951950D01*
X92006650Y-108701250D01*
X91755261Y-108701250D01*
X91749992Y-108494875D01*
X91747398Y-108419265D01*
X91742496Y-108340035D01*
X91735968Y-108284778D01*
X91727877Y-108254187D01*
X91722267Y-108244339D01*
X91685238Y-108209765D01*
X91629165Y-108188069D01*
X91557056Y-108180550D01*
X91485950Y-108180550D01*
X91485950Y-108137962D01*
X91485246Y-108113959D01*
X91482282Y-108067362D01*
X91477791Y-108017312D01*
X91469632Y-107939250D01*
X91539114Y-107939250D01*
X91582957Y-107941740D01*
G36*
X89873050Y-108701250D02*
G01*
X89606350Y-108701250D01*
X89606350Y-107951950D01*
X89873050Y-107951950D01*
X89873050Y-108701250D01*
G37*
X89873050Y-108701250D02*
X89606350Y-108701250D01*
X89606350Y-107951950D01*
X89873050Y-107951950D01*
X89873050Y-108701250D01*
D14*
X67000000Y-77000000D03*
X113000000Y-77000000D03*
X67000000Y-107000000D03*
X113000000Y-107000000D03*
D15*
X106900000Y-105800000D03*
D16*
X106900000Y-108340000D03*
X104360000Y-105800000D03*
X104360000Y-108340000D03*
X101820000Y-105800000D03*
X101820000Y-108340000D03*
D17*
X77005000Y-76500000D03*
X73195000Y-76500000D03*
D18*
X81125000Y-78075000D03*
D16*
X81125000Y-75535000D03*
X83665000Y-78075000D03*
X83665000Y-75535000D03*
X86205000Y-78075000D03*
X86205000Y-75535000D03*
X88745000Y-78075000D03*
X88745000Y-75535000D03*
X91285000Y-78075000D03*
X91285000Y-75535000D03*
X93825000Y-78075000D03*
X93825000Y-75535000D03*
X96365000Y-78075000D03*
X96365000Y-75535000D03*
X98905000Y-78075000D03*
X98905000Y-75535000D03*
D15*
X106525000Y-75525000D03*
D16*
X106525000Y-78065000D03*
X103985000Y-75525000D03*
X103985000Y-78065000D03*
X101445000Y-75525000D03*
X101445000Y-78065000D03*
D19*
X65870000Y-83110000D03*
D20*
X65870000Y-81840000D03*
D19*
X68410000Y-83110000D03*
D20*
X68410000Y-81840000D03*
D21*
X70950000Y-83110000D03*
D20*
X70950000Y-81840000D03*
D19*
X73490000Y-83110000D03*
D20*
X73490000Y-81840000D03*
D19*
X76030000Y-83110000D03*
D20*
X76030000Y-81840000D03*
D19*
X78570000Y-83110000D03*
D20*
X78570000Y-81840000D03*
D19*
X81110000Y-83110000D03*
D20*
X81110000Y-81840000D03*
D21*
X83650000Y-83110000D03*
D20*
X83650000Y-81840000D03*
X86190000Y-81840000D03*
D19*
X86190000Y-83110000D03*
D20*
X88730000Y-81840000D03*
D19*
X88730000Y-83110000D03*
X91270000Y-83110000D03*
D20*
X91270000Y-81840000D03*
X93810000Y-81840000D03*
D19*
X93810000Y-83110000D03*
D21*
X96350000Y-83110000D03*
D20*
X96350000Y-81840000D03*
X98890000Y-81840000D03*
D19*
X98890000Y-83110000D03*
D20*
X101430000Y-81840000D03*
D19*
X101430000Y-83110000D03*
X103970000Y-83110000D03*
D20*
X103970000Y-81840000D03*
X106510000Y-81840000D03*
D19*
X106510000Y-83110000D03*
D20*
X109050000Y-81840000D03*
D21*
X109050000Y-83110000D03*
D19*
X111590000Y-83110000D03*
D20*
X111590000Y-81840000D03*
D19*
X114130000Y-83110000D03*
D20*
X114130000Y-81840000D03*
X114130000Y-102160000D03*
D19*
X114130000Y-100890000D03*
X111590000Y-100890000D03*
D20*
X111590000Y-102160000D03*
X109050000Y-102160000D03*
D21*
X109050000Y-100890000D03*
D20*
X106510000Y-102160000D03*
D19*
X106510000Y-100890000D03*
D20*
X103970000Y-102160000D03*
D19*
X103970000Y-100890000D03*
X101430000Y-100890000D03*
D20*
X101430000Y-102160000D03*
X98890000Y-102160000D03*
D19*
X98890000Y-100890000D03*
D21*
X96350000Y-100890000D03*
D20*
X96350000Y-102160000D03*
D19*
X93810000Y-100890000D03*
D20*
X93810000Y-102160000D03*
D19*
X91270000Y-100890000D03*
D20*
X91270000Y-102160000D03*
D19*
X88730000Y-100890000D03*
D20*
X88730000Y-102160000D03*
X86190000Y-102160000D03*
D19*
X86190000Y-100890000D03*
D21*
X83650000Y-100890000D03*
D20*
X83650000Y-102160000D03*
X81110000Y-102160000D03*
D19*
X81110000Y-100890000D03*
X78570000Y-100890000D03*
D20*
X78570000Y-102160000D03*
D19*
X76030000Y-100890000D03*
D20*
X76030000Y-102160000D03*
D19*
X73490000Y-100890000D03*
D20*
X73490000Y-102160000D03*
D21*
X70950000Y-100890000D03*
D20*
X70950000Y-102160000D03*
X68410000Y-102160000D03*
D19*
X68410000Y-100890000D03*
D20*
X65870000Y-102160000D03*
D19*
X65870000Y-100890000D03*
M02*
