G04 #@! TF.GenerationSoftware,KiCad,Pcbnew,6.0.11-2627ca5db0~126~ubuntu22.04.1*
G04 #@! TF.CreationDate,2023-08-03T02:59:46+02:00*
G04 #@! TF.ProjectId,OpenCyphalPicoBase,4f70656e-4379-4706-9861-6c5069636f42,0.2*
G04 #@! TF.SameCoordinates,Original*
G04 #@! TF.FileFunction,Paste,Top*
G04 #@! TF.FilePolarity,Positive*
%FSLAX46Y46*%
G04 Gerber Fmt 4.6, Leading zero omitted, Abs format (unit mm)*
G04 Created by KiCad (PCBNEW 6.0.11-2627ca5db0~126~ubuntu22.04.1) date 2023-08-03 02:59:46*
%MOMM*%
%LPD*%
G01*
G04 APERTURE LIST*
G04 Aperture macros list*
%AMRoundRect*
0 Rectangle with rounded corners*
0 $1 Rounding radius*
0 $2 $3 $4 $5 $6 $7 $8 $9 X,Y pos of 4 corners*
0 Add a 4 corners polygon primitive as box body*
4,1,4,$2,$3,$4,$5,$6,$7,$8,$9,$2,$3,0*
0 Add four circle primitives for the rounded corners*
1,1,$1+$1,$2,$3*
1,1,$1+$1,$4,$5*
1,1,$1+$1,$6,$7*
1,1,$1+$1,$8,$9*
0 Add four rect primitives between the rounded corners*
20,1,$1+$1,$2,$3,$4,$5,0*
20,1,$1+$1,$4,$5,$6,$7,0*
20,1,$1+$1,$6,$7,$8,$9,0*
20,1,$1+$1,$8,$9,$2,$3,0*%
G04 Aperture macros list end*
%ADD10RoundRect,0.200000X0.275000X-0.200000X0.275000X0.200000X-0.275000X0.200000X-0.275000X-0.200000X0*%
%ADD11RoundRect,0.150000X0.150000X-0.875000X0.150000X0.875000X-0.150000X0.875000X-0.150000X-0.875000X0*%
%ADD12RoundRect,0.225000X-0.250000X0.225000X-0.250000X-0.225000X0.250000X-0.225000X0.250000X0.225000X0*%
%ADD13RoundRect,0.225000X-0.225000X-0.250000X0.225000X-0.250000X0.225000X0.250000X-0.225000X0.250000X0*%
%ADD14RoundRect,0.200000X-0.275000X0.200000X-0.275000X-0.200000X0.275000X-0.200000X0.275000X0.200000X0*%
%ADD15RoundRect,0.150000X0.625000X-0.150000X0.625000X0.150000X-0.625000X0.150000X-0.625000X-0.150000X0*%
%ADD16RoundRect,0.250000X0.650000X-0.350000X0.650000X0.350000X-0.650000X0.350000X-0.650000X-0.350000X0*%
%ADD17RoundRect,0.150000X-0.150000X-0.625000X0.150000X-0.625000X0.150000X0.625000X-0.150000X0.625000X0*%
%ADD18RoundRect,0.250000X-0.350000X-0.650000X0.350000X-0.650000X0.350000X0.650000X-0.350000X0.650000X0*%
%ADD19R,1.200000X0.900000*%
%ADD20RoundRect,0.150000X0.150000X-0.825000X0.150000X0.825000X-0.150000X0.825000X-0.150000X-0.825000X0*%
%ADD21RoundRect,0.150000X-0.700000X0.150000X-0.700000X-0.150000X0.700000X-0.150000X0.700000X0.150000X0*%
%ADD22RoundRect,0.250000X-1.100000X0.250000X-1.100000X-0.250000X1.100000X-0.250000X1.100000X0.250000X0*%
%ADD23RoundRect,0.218750X0.218750X0.256250X-0.218750X0.256250X-0.218750X-0.256250X0.218750X-0.256250X0*%
%ADD24RoundRect,0.200000X-0.200000X-0.275000X0.200000X-0.275000X0.200000X0.275000X-0.200000X0.275000X0*%
%ADD25RoundRect,0.150000X-0.150000X0.825000X-0.150000X-0.825000X0.150000X-0.825000X0.150000X0.825000X0*%
%ADD26R,1.100000X1.300000*%
%ADD27RoundRect,0.225000X0.225000X0.250000X-0.225000X0.250000X-0.225000X-0.250000X0.225000X-0.250000X0*%
%ADD28R,1.500000X1.500000*%
%ADD29RoundRect,0.225000X0.250000X-0.225000X0.250000X0.225000X-0.250000X0.225000X-0.250000X-0.225000X0*%
%ADD30RoundRect,0.250000X1.500000X-0.250000X1.500000X0.250000X-1.500000X0.250000X-1.500000X-0.250000X0*%
%ADD31RoundRect,0.250001X1.449999X-0.499999X1.449999X0.499999X-1.449999X0.499999X-1.449999X-0.499999X0*%
%ADD32RoundRect,0.250000X0.625000X-0.375000X0.625000X0.375000X-0.625000X0.375000X-0.625000X-0.375000X0*%
%ADD33RoundRect,0.250000X-0.550000X1.250000X-0.550000X-1.250000X0.550000X-1.250000X0.550000X1.250000X0*%
G04 APERTURE END LIST*
D10*
X79800000Y-89025000D03*
X79800000Y-87375000D03*
D11*
X84120000Y-96850000D03*
X85390000Y-96850000D03*
X86660000Y-96850000D03*
X87930000Y-96850000D03*
X89200000Y-96850000D03*
X90470000Y-96850000D03*
X91740000Y-96850000D03*
X93010000Y-96850000D03*
X94280000Y-96850000D03*
X94280000Y-87550000D03*
X93010000Y-87550000D03*
X91740000Y-87550000D03*
X90470000Y-87550000D03*
X89200000Y-87550000D03*
X87930000Y-87550000D03*
X86660000Y-87550000D03*
X85390000Y-87550000D03*
X84120000Y-87550000D03*
D12*
X82300000Y-90525000D03*
X82300000Y-92075000D03*
D13*
X78225000Y-92000000D03*
X79775000Y-92000000D03*
D14*
X96800000Y-87575000D03*
X96800000Y-89225000D03*
D10*
X81500000Y-89025000D03*
X81500000Y-87375000D03*
D12*
X100000000Y-87225000D03*
X100000000Y-88775000D03*
D15*
X110700000Y-97700000D03*
X110700000Y-96700000D03*
X110700000Y-95700000D03*
X110700000Y-94700000D03*
D16*
X114575000Y-99000000D03*
X114575000Y-93400000D03*
D17*
X72300000Y-104700000D03*
X73300000Y-104700000D03*
X74300000Y-104700000D03*
X75300000Y-104700000D03*
D18*
X71000000Y-108575000D03*
X76600000Y-108575000D03*
D19*
X72100000Y-81050000D03*
X72100000Y-84350000D03*
D20*
X102295000Y-96875000D03*
X103565000Y-96875000D03*
X104835000Y-96875000D03*
X106105000Y-96875000D03*
X106105000Y-91925000D03*
X104835000Y-91925000D03*
X103565000Y-91925000D03*
X102295000Y-91925000D03*
D14*
X103500000Y-88275000D03*
X103500000Y-89925000D03*
X105000000Y-88275000D03*
X105000000Y-89925000D03*
X106700000Y-101575000D03*
X106700000Y-103225000D03*
D10*
X104500000Y-103225000D03*
X104500000Y-101575000D03*
D21*
X69550000Y-95025000D03*
X69550000Y-96275000D03*
X69550000Y-97525000D03*
X69550000Y-98775000D03*
D22*
X66350000Y-93175000D03*
X66350000Y-100625000D03*
D23*
X99187500Y-107900000D03*
X97612500Y-107900000D03*
D24*
X94475000Y-107900000D03*
X96125000Y-107900000D03*
D25*
X81405000Y-94025000D03*
X80135000Y-94025000D03*
X78865000Y-94025000D03*
X77595000Y-94025000D03*
X77595000Y-98975000D03*
X78865000Y-98975000D03*
X80135000Y-98975000D03*
X81405000Y-98975000D03*
D26*
X96800000Y-93150000D03*
X96800000Y-95450000D03*
X98600000Y-95450000D03*
X98600000Y-93150000D03*
D21*
X69550000Y-85325000D03*
X69550000Y-86575000D03*
X69550000Y-87825000D03*
X69550000Y-89075000D03*
D22*
X66350000Y-90925000D03*
X66350000Y-83475000D03*
D12*
X80100000Y-101825000D03*
X80100000Y-103375000D03*
D10*
X78600000Y-103425000D03*
X78600000Y-101775000D03*
D14*
X81600000Y-101775000D03*
X81600000Y-103425000D03*
D24*
X88275000Y-107900000D03*
X89925000Y-107900000D03*
D27*
X86175000Y-84300000D03*
X84625000Y-84300000D03*
X89175000Y-84300000D03*
X87625000Y-84300000D03*
X92175000Y-84300000D03*
X90625000Y-84300000D03*
X95175000Y-84300000D03*
X93625000Y-84300000D03*
D10*
X84600000Y-82225000D03*
X84600000Y-80575000D03*
X90600000Y-82225000D03*
X90600000Y-80575000D03*
X93600000Y-82225000D03*
X93600000Y-80575000D03*
D14*
X89100000Y-80575000D03*
X89100000Y-82225000D03*
X92100000Y-80575000D03*
X92100000Y-82225000D03*
X95100000Y-80575000D03*
X95100000Y-82225000D03*
X98900000Y-80575000D03*
X98900000Y-82225000D03*
X100400000Y-80575000D03*
X100400000Y-82225000D03*
X80600000Y-82575000D03*
X80600000Y-84225000D03*
X79100000Y-82575000D03*
X79100000Y-84225000D03*
X103200000Y-80575000D03*
X103200000Y-82225000D03*
X105000000Y-80575000D03*
X105000000Y-82225000D03*
D28*
X91200000Y-105000000D03*
X83400000Y-105000000D03*
D14*
X86100000Y-80575000D03*
X86100000Y-82225000D03*
D29*
X100300000Y-93575000D03*
X100300000Y-92025000D03*
D10*
X87600000Y-82225000D03*
X87600000Y-80575000D03*
D12*
X100300000Y-95025000D03*
X100300000Y-96575000D03*
D23*
X92987500Y-107900000D03*
X91412500Y-107900000D03*
D30*
X108050000Y-88100000D03*
X108050000Y-86100000D03*
X108050000Y-84100000D03*
D31*
X113800000Y-81750000D03*
X113800000Y-90450000D03*
D32*
X75000000Y-84100000D03*
X75000000Y-81300000D03*
D33*
X73800000Y-94800000D03*
X73800000Y-99200000D03*
X73800000Y-86800000D03*
X73800000Y-91200000D03*
M02*
