G04 #@! TF.GenerationSoftware,KiCad,Pcbnew,6.0.11-2627ca5db0~126~ubuntu22.04.1*
G04 #@! TF.CreationDate,2023-08-03T02:59:47+02:00*
G04 #@! TF.ProjectId,OpenCyphalPicoBase,4f70656e-4379-4706-9861-6c5069636f42,0.2*
G04 #@! TF.SameCoordinates,Original*
G04 #@! TF.FileFunction,Paste,Bot*
G04 #@! TF.FilePolarity,Positive*
%FSLAX46Y46*%
G04 Gerber Fmt 4.6, Leading zero omitted, Abs format (unit mm)*
G04 Created by KiCad (PCBNEW 6.0.11-2627ca5db0~126~ubuntu22.04.1) date 2023-08-03 02:59:47*
%MOMM*%
%LPD*%
G01*
G04 APERTURE LIST*
%ADD10C,1.600000*%
%ADD11R,1.524000X2.000000*%
%ADD12R,1.600000X1.600000*%
G04 APERTURE END LIST*
D10*
X65870000Y-83110000D03*
D11*
X65870000Y-81840000D03*
D10*
X68410000Y-83110000D03*
D11*
X68410000Y-81840000D03*
D12*
X70950000Y-83110000D03*
D11*
X70950000Y-81840000D03*
D10*
X73490000Y-83110000D03*
D11*
X73490000Y-81840000D03*
D10*
X76030000Y-83110000D03*
D11*
X76030000Y-81840000D03*
D10*
X78570000Y-83110000D03*
D11*
X78570000Y-81840000D03*
D10*
X81110000Y-83110000D03*
D11*
X81110000Y-81840000D03*
D12*
X83650000Y-83110000D03*
D11*
X83650000Y-81840000D03*
X86190000Y-81840000D03*
D10*
X86190000Y-83110000D03*
D11*
X88730000Y-81840000D03*
D10*
X88730000Y-83110000D03*
X91270000Y-83110000D03*
D11*
X91270000Y-81840000D03*
X93810000Y-81840000D03*
D10*
X93810000Y-83110000D03*
D12*
X96350000Y-83110000D03*
D11*
X96350000Y-81840000D03*
X98890000Y-81840000D03*
D10*
X98890000Y-83110000D03*
D11*
X101430000Y-81840000D03*
D10*
X101430000Y-83110000D03*
X103970000Y-83110000D03*
D11*
X103970000Y-81840000D03*
X106510000Y-81840000D03*
D10*
X106510000Y-83110000D03*
D11*
X109050000Y-81840000D03*
D12*
X109050000Y-83110000D03*
D10*
X111590000Y-83110000D03*
D11*
X111590000Y-81840000D03*
D10*
X114130000Y-83110000D03*
D11*
X114130000Y-81840000D03*
X114130000Y-102160000D03*
D10*
X114130000Y-100890000D03*
X111590000Y-100890000D03*
D11*
X111590000Y-102160000D03*
X109050000Y-102160000D03*
D12*
X109050000Y-100890000D03*
D11*
X106510000Y-102160000D03*
D10*
X106510000Y-100890000D03*
D11*
X103970000Y-102160000D03*
D10*
X103970000Y-100890000D03*
X101430000Y-100890000D03*
D11*
X101430000Y-102160000D03*
X98890000Y-102160000D03*
D10*
X98890000Y-100890000D03*
D12*
X96350000Y-100890000D03*
D11*
X96350000Y-102160000D03*
D10*
X93810000Y-100890000D03*
D11*
X93810000Y-102160000D03*
D10*
X91270000Y-100890000D03*
D11*
X91270000Y-102160000D03*
D10*
X88730000Y-100890000D03*
D11*
X88730000Y-102160000D03*
X86190000Y-102160000D03*
D10*
X86190000Y-100890000D03*
D12*
X83650000Y-100890000D03*
D11*
X83650000Y-102160000D03*
X81110000Y-102160000D03*
D10*
X81110000Y-100890000D03*
X78570000Y-100890000D03*
D11*
X78570000Y-102160000D03*
D10*
X76030000Y-100890000D03*
D11*
X76030000Y-102160000D03*
D10*
X73490000Y-100890000D03*
D11*
X73490000Y-102160000D03*
D12*
X70950000Y-100890000D03*
D11*
X70950000Y-102160000D03*
X68410000Y-102160000D03*
D10*
X68410000Y-100890000D03*
D11*
X65870000Y-102160000D03*
D10*
X65870000Y-100890000D03*
M02*
