%TF.GenerationSoftware,KiCad,Pcbnew,6.0.11-2627ca5db0~126~ubuntu22.04.1*%
%TF.CreationDate,2023-08-03T03:01:14+02:00*%
%TF.ProjectId,OpenCyphalPicoBase,4f70656e-4379-4706-9861-6c5069636f42,0.2*%
%TF.SameCoordinates,Original*%
%TF.FileFunction,Drillmap*%
%TF.FilePolarity,Positive*%
%FSLAX45Y45*%
G04 Gerber Fmt 4.5, Leading zero omitted, Abs format (unit mm)*
G04 Created by KiCad (PCBNEW 6.0.11-2627ca5db0~126~ubuntu22.04.1) date 2023-08-03 03:01:14*
%MOMM*%
%LPD*%
G01*
G04 APERTURE LIST*
%ADD10C,0.050000*%
%ADD11C,0.200000*%
%ADD12C,0.040000*%
%ADD13C,0.100000*%
%ADD14C,0.140000*%
%ADD15C,0.320000*%
G04 APERTURE END LIST*
D10*
X11300000Y-11000000D02*
X6712132Y-11000000D01*
X6400000Y-7700000D02*
X6400000Y-10700000D01*
X11600000Y-7700000D02*
X11600000Y-10700000D01*
X11300000Y-7400000D02*
X6700000Y-7400000D01*
X11600000Y-7700000D02*
G75*
G03*
X11300000Y-7400000I-300000J0D01*
G01*
X6700000Y-7400000D02*
G75*
G03*
X6400000Y-7700000I0J-300000D01*
G01*
X11300000Y-11000000D02*
G75*
G03*
X11600000Y-10700000I0J300000D01*
G01*
X6399995Y-10700000D02*
G75*
G03*
X6712132Y-11000000I312135J12380D01*
G01*
D11*
D12*
X6530000Y-9070000D02*
X6570000Y-9110000D01*
X6570000Y-9070000D02*
X6530000Y-9110000D01*
X6530000Y-9300000D02*
X6570000Y-9340000D01*
X6570000Y-9300000D02*
X6530000Y-9340000D01*
X6650000Y-8500000D02*
X6690000Y-8540000D01*
X6690000Y-8500000D02*
X6650000Y-8540000D01*
X6710000Y-9870000D02*
X6750000Y-9910000D01*
X6750000Y-9870000D02*
X6710000Y-9910000D01*
X6740000Y-8760000D02*
X6780000Y-8800000D01*
X6780000Y-8760000D02*
X6740000Y-8800000D01*
X6970000Y-9380000D02*
X7010000Y-9420000D01*
X7010000Y-9380000D02*
X6970000Y-9420000D01*
X7050000Y-10510000D02*
X7090000Y-10550000D01*
X7090000Y-10510000D02*
X7050000Y-10550000D01*
X7080000Y-10080000D02*
X7120000Y-10120000D01*
X7120000Y-10080000D02*
X7080000Y-10120000D01*
X7080000Y-10880000D02*
X7120000Y-10920000D01*
X7120000Y-10880000D02*
X7080000Y-10920000D01*
X7125000Y-9505000D02*
X7165000Y-9545000D01*
X7165000Y-9505000D02*
X7125000Y-9545000D01*
X7150000Y-9860000D02*
X7190000Y-9900000D01*
X7190000Y-9860000D02*
X7150000Y-9900000D01*
X7160000Y-9100000D02*
X7200000Y-9140000D01*
X7200000Y-9100000D02*
X7160000Y-9140000D01*
X7190000Y-8660000D02*
X7230000Y-8700000D01*
X7230000Y-8660000D02*
X7190000Y-8700000D01*
X7215047Y-9784112D02*
X7255047Y-9824112D01*
X7255047Y-9784112D02*
X7215047Y-9824112D01*
X7560000Y-9830000D02*
X7600000Y-9870000D01*
X7600000Y-9830000D02*
X7560000Y-9870000D01*
X7570000Y-9560000D02*
X7610000Y-9600000D01*
X7610000Y-9560000D02*
X7570000Y-9600000D01*
X7640000Y-10450000D02*
X7680000Y-10490000D01*
X7680000Y-10450000D02*
X7640000Y-10490000D01*
X7640000Y-10880000D02*
X7680000Y-10920000D01*
X7680000Y-10880000D02*
X7640000Y-10920000D01*
X7690000Y-9230000D02*
X7730000Y-9270000D01*
X7730000Y-9230000D02*
X7690000Y-9270000D01*
X7720050Y-8680000D02*
X7760050Y-8720000D01*
X7760050Y-8680000D02*
X7720050Y-8720000D01*
X7790000Y-7890000D02*
X7830000Y-7930000D01*
X7830000Y-7890000D02*
X7790000Y-7930000D01*
X7820000Y-8680000D02*
X7860000Y-8720000D01*
X7860000Y-8680000D02*
X7820000Y-8720000D01*
X7870000Y-10430000D02*
X7910000Y-10470000D01*
X7910000Y-10430000D02*
X7870000Y-10470000D01*
X8019000Y-9049000D02*
X8059000Y-9089000D01*
X8059000Y-9049000D02*
X8019000Y-9089000D01*
X8120000Y-9650000D02*
X8160000Y-9690000D01*
X8160000Y-9650000D02*
X8120000Y-9690000D01*
X8310000Y-8440000D02*
X8350000Y-8480000D01*
X8350000Y-8440000D02*
X8310000Y-8480000D01*
X8528000Y-9048000D02*
X8568000Y-9088000D01*
X8568000Y-9048000D02*
X8528000Y-9088000D01*
X8599000Y-8291000D02*
X8639000Y-8331000D01*
X8639000Y-8291000D02*
X8599000Y-8331000D01*
X8700000Y-9170000D02*
X8740000Y-9210000D01*
X8740000Y-9170000D02*
X8700000Y-9210000D01*
X8782000Y-9048000D02*
X8822000Y-9088000D01*
X8822000Y-9048000D02*
X8782000Y-9088000D01*
X8820000Y-8291000D02*
X8860000Y-8331000D01*
X8860000Y-8291000D02*
X8820000Y-8331000D01*
X8853000Y-10069000D02*
X8893000Y-10109000D01*
X8893000Y-10069000D02*
X8853000Y-10109000D01*
X9029000Y-9041000D02*
X9069000Y-9081000D01*
X9069000Y-9041000D02*
X9029000Y-9081000D01*
X9120000Y-8291000D02*
X9160000Y-8331000D01*
X9160000Y-8291000D02*
X9120000Y-8331000D01*
X9220000Y-10370000D02*
X9260000Y-10410000D01*
X9260000Y-10370000D02*
X9220000Y-10410000D01*
X9291000Y-9049000D02*
X9331000Y-9089000D01*
X9331000Y-9049000D02*
X9291000Y-9089000D01*
X9400000Y-10420000D02*
X9440000Y-10460000D01*
X9440000Y-10420000D02*
X9400000Y-10460000D01*
X9410000Y-8300000D02*
X9450000Y-8340000D01*
X9450000Y-8300000D02*
X9410000Y-8340000D01*
X9540000Y-8800000D02*
X9580000Y-8840000D01*
X9580000Y-8800000D02*
X9540000Y-8840000D01*
X9542000Y-9048000D02*
X9582000Y-9088000D01*
X9582000Y-9048000D02*
X9542000Y-9088000D01*
X9615000Y-10069000D02*
X9655000Y-10109000D01*
X9655000Y-10069000D02*
X9615000Y-10109000D01*
X9730000Y-8440000D02*
X9770000Y-8480000D01*
X9770000Y-8440000D02*
X9730000Y-8480000D01*
X9869000Y-8291000D02*
X9909000Y-8331000D01*
X9909000Y-8291000D02*
X9869000Y-8331000D01*
X9869000Y-10069000D02*
X9909000Y-10109000D01*
X9909000Y-10069000D02*
X9869000Y-10109000D01*
X9870000Y-9020000D02*
X9910000Y-9060000D01*
X9910000Y-9020000D02*
X9870000Y-9060000D01*
X10123000Y-8291000D02*
X10163000Y-8331000D01*
X10163000Y-8291000D02*
X10123000Y-8331000D01*
X10226143Y-8851197D02*
X10266143Y-8891197D01*
X10266143Y-8851197D02*
X10226143Y-8891197D01*
X10377000Y-8330000D02*
X10417000Y-8370000D01*
X10417000Y-8330000D02*
X10377000Y-8370000D01*
X10390000Y-9420000D02*
X10430000Y-9460000D01*
X10430000Y-9420000D02*
X10390000Y-9460000D01*
X10631000Y-8164000D02*
X10671000Y-8204000D01*
X10671000Y-8164000D02*
X10631000Y-8204000D01*
X10650000Y-9849050D02*
X10690000Y-9889050D01*
X10690000Y-9849050D02*
X10650000Y-9889050D01*
X10700000Y-9240000D02*
X10740000Y-9280000D01*
X10740000Y-9240000D02*
X10700000Y-9280000D01*
X10760000Y-8950000D02*
X10800000Y-8990000D01*
X10800000Y-8950000D02*
X10760000Y-8990000D01*
X10760000Y-9849050D02*
X10800000Y-9889050D01*
X10800000Y-9849050D02*
X10760000Y-9889050D01*
X10800000Y-7900000D02*
X10840000Y-7940000D01*
X10840000Y-7900000D02*
X10800000Y-7940000D01*
X10890000Y-10440000D02*
X10930000Y-10480000D01*
X10930000Y-10440000D02*
X10890000Y-10480000D01*
X10900000Y-8190000D02*
X10940000Y-8230000D01*
X10940000Y-8190000D02*
X10900000Y-8230000D01*
X11100000Y-8630000D02*
X11140000Y-8670000D01*
X11140000Y-8630000D02*
X11100000Y-8670000D01*
X11230000Y-9790000D02*
X11270000Y-9830000D01*
X11270000Y-9790000D02*
X11230000Y-9830000D01*
X11270000Y-9030000D02*
X11310000Y-9070000D01*
X11310000Y-9030000D02*
X11270000Y-9070000D01*
X11470000Y-9030000D02*
X11510000Y-9070000D01*
X11510000Y-9030000D02*
X11470000Y-9070000D01*
X11470000Y-9320000D02*
X11510000Y-9360000D01*
X11510000Y-9320000D02*
X11470000Y-9360000D01*
X11470000Y-9880000D02*
X11510000Y-9920000D01*
X11510000Y-9880000D02*
X11470000Y-9920000D01*
D13*
X8162500Y-7553500D02*
G75*
G03*
X8162500Y-7553500I-50000J0D01*
G01*
X8162500Y-7807500D02*
G75*
G03*
X8162500Y-7807500I-50000J0D01*
G01*
X8416500Y-7553500D02*
G75*
G03*
X8416500Y-7553500I-50000J0D01*
G01*
X8416500Y-7807500D02*
G75*
G03*
X8416500Y-7807500I-50000J0D01*
G01*
X8670500Y-7553500D02*
G75*
G03*
X8670500Y-7553500I-50000J0D01*
G01*
X8670500Y-7807500D02*
G75*
G03*
X8670500Y-7807500I-50000J0D01*
G01*
X8924500Y-7553500D02*
G75*
G03*
X8924500Y-7553500I-50000J0D01*
G01*
X8924500Y-7807500D02*
G75*
G03*
X8924500Y-7807500I-50000J0D01*
G01*
X9178500Y-7553500D02*
G75*
G03*
X9178500Y-7553500I-50000J0D01*
G01*
X9178500Y-7807500D02*
G75*
G03*
X9178500Y-7807500I-50000J0D01*
G01*
X9432500Y-7553500D02*
G75*
G03*
X9432500Y-7553500I-50000J0D01*
G01*
X9432500Y-7807500D02*
G75*
G03*
X9432500Y-7807500I-50000J0D01*
G01*
X9686500Y-7553500D02*
G75*
G03*
X9686500Y-7553500I-50000J0D01*
G01*
X9686500Y-7807500D02*
G75*
G03*
X9686500Y-7807500I-50000J0D01*
G01*
X9940500Y-7553500D02*
G75*
G03*
X9940500Y-7553500I-50000J0D01*
G01*
X9940500Y-7807500D02*
G75*
G03*
X9940500Y-7807500I-50000J0D01*
G01*
X10194500Y-7552500D02*
G75*
G03*
X10194500Y-7552500I-50000J0D01*
G01*
X10194500Y-7806500D02*
G75*
G03*
X10194500Y-7806500I-50000J0D01*
G01*
X10232000Y-10580000D02*
G75*
G03*
X10232000Y-10580000I-50000J0D01*
G01*
X10232000Y-10834000D02*
G75*
G03*
X10232000Y-10834000I-50000J0D01*
G01*
X10448500Y-7552500D02*
G75*
G03*
X10448500Y-7552500I-50000J0D01*
G01*
X10448500Y-7806500D02*
G75*
G03*
X10448500Y-7806500I-50000J0D01*
G01*
X10486000Y-10580000D02*
G75*
G03*
X10486000Y-10580000I-50000J0D01*
G01*
X10486000Y-10834000D02*
G75*
G03*
X10486000Y-10834000I-50000J0D01*
G01*
X10702500Y-7552500D02*
G75*
G03*
X10702500Y-7552500I-50000J0D01*
G01*
X10702500Y-7806500D02*
G75*
G03*
X10702500Y-7806500I-50000J0D01*
G01*
X10740000Y-10580000D02*
G75*
G03*
X10740000Y-10580000I-50000J0D01*
G01*
X10740000Y-10834000D02*
G75*
G03*
X10740000Y-10834000I-50000J0D01*
G01*
D14*
X7319500Y-7580000D02*
X7319500Y-7720000D01*
X7249500Y-7650000D02*
X7389500Y-7650000D01*
X7700500Y-7580000D02*
X7700500Y-7720000D01*
X7630500Y-7650000D02*
X7770500Y-7650000D01*
D15*
X6813138Y-7813138D02*
X6813138Y-7586862D01*
X6586862Y-7586862D01*
X6586862Y-7813138D01*
X6813138Y-7813138D01*
X6813138Y-10813138D02*
X6813138Y-10586862D01*
X6586862Y-10586862D01*
X6586862Y-10813138D01*
X6813138Y-10813138D01*
X11413138Y-7813138D02*
X11413138Y-7586862D01*
X11186862Y-7586862D01*
X11186862Y-7813138D01*
X11413138Y-7813138D01*
X11413138Y-10813138D02*
X11413138Y-10586862D01*
X11186862Y-10586862D01*
X11186862Y-10813138D01*
X11413138Y-10813138D01*
D11*
X6655119Y-11312976D02*
X6655119Y-11112976D01*
X6702738Y-11112976D01*
X6731309Y-11122500D01*
X6750357Y-11141548D01*
X6759881Y-11160595D01*
X6769405Y-11198690D01*
X6769405Y-11227262D01*
X6759881Y-11265357D01*
X6750357Y-11284405D01*
X6731309Y-11303452D01*
X6702738Y-11312976D01*
X6655119Y-11312976D01*
X6855119Y-11312976D02*
X6855119Y-11179643D01*
X6855119Y-11217738D02*
X6864643Y-11198690D01*
X6874167Y-11189167D01*
X6893214Y-11179643D01*
X6912262Y-11179643D01*
X6978928Y-11312976D02*
X6978928Y-11179643D01*
X6978928Y-11112976D02*
X6969405Y-11122500D01*
X6978928Y-11132024D01*
X6988452Y-11122500D01*
X6978928Y-11112976D01*
X6978928Y-11132024D01*
X7102738Y-11312976D02*
X7083690Y-11303452D01*
X7074167Y-11284405D01*
X7074167Y-11112976D01*
X7207500Y-11312976D02*
X7188452Y-11303452D01*
X7178928Y-11284405D01*
X7178928Y-11112976D01*
X7436071Y-11312976D02*
X7436071Y-11112976D01*
X7502738Y-11255833D01*
X7569405Y-11112976D01*
X7569405Y-11312976D01*
X7750357Y-11312976D02*
X7750357Y-11208214D01*
X7740833Y-11189167D01*
X7721786Y-11179643D01*
X7683690Y-11179643D01*
X7664643Y-11189167D01*
X7750357Y-11303452D02*
X7731309Y-11312976D01*
X7683690Y-11312976D01*
X7664643Y-11303452D01*
X7655119Y-11284405D01*
X7655119Y-11265357D01*
X7664643Y-11246309D01*
X7683690Y-11236786D01*
X7731309Y-11236786D01*
X7750357Y-11227262D01*
X7845595Y-11179643D02*
X7845595Y-11379643D01*
X7845595Y-11189167D02*
X7864643Y-11179643D01*
X7902738Y-11179643D01*
X7921786Y-11189167D01*
X7931309Y-11198690D01*
X7940833Y-11217738D01*
X7940833Y-11274881D01*
X7931309Y-11293928D01*
X7921786Y-11303452D01*
X7902738Y-11312976D01*
X7864643Y-11312976D01*
X7845595Y-11303452D01*
X8026548Y-11293928D02*
X8036071Y-11303452D01*
X8026548Y-11312976D01*
X8017024Y-11303452D01*
X8026548Y-11293928D01*
X8026548Y-11312976D01*
X8026548Y-11189167D02*
X8036071Y-11198690D01*
X8026548Y-11208214D01*
X8017024Y-11198690D01*
X8026548Y-11189167D01*
X8026548Y-11208214D01*
D12*
X6357500Y-11622500D02*
X6397500Y-11662500D01*
X6397500Y-11622500D02*
X6357500Y-11662500D01*
D11*
X6693214Y-11532976D02*
X6712262Y-11532976D01*
X6731309Y-11542500D01*
X6740833Y-11552024D01*
X6750357Y-11571071D01*
X6759881Y-11609167D01*
X6759881Y-11656786D01*
X6750357Y-11694881D01*
X6740833Y-11713928D01*
X6731309Y-11723452D01*
X6712262Y-11732976D01*
X6693214Y-11732976D01*
X6674167Y-11723452D01*
X6664643Y-11713928D01*
X6655119Y-11694881D01*
X6645595Y-11656786D01*
X6645595Y-11609167D01*
X6655119Y-11571071D01*
X6664643Y-11552024D01*
X6674167Y-11542500D01*
X6693214Y-11532976D01*
X6845595Y-11713928D02*
X6855119Y-11723452D01*
X6845595Y-11732976D01*
X6836071Y-11723452D01*
X6845595Y-11713928D01*
X6845595Y-11732976D01*
X7026548Y-11599643D02*
X7026548Y-11732976D01*
X6978928Y-11523452D02*
X6931309Y-11666309D01*
X7055119Y-11666309D01*
X7169405Y-11532976D02*
X7188452Y-11532976D01*
X7207500Y-11542500D01*
X7217024Y-11552024D01*
X7226548Y-11571071D01*
X7236071Y-11609167D01*
X7236071Y-11656786D01*
X7226548Y-11694881D01*
X7217024Y-11713928D01*
X7207500Y-11723452D01*
X7188452Y-11732976D01*
X7169405Y-11732976D01*
X7150357Y-11723452D01*
X7140833Y-11713928D01*
X7131309Y-11694881D01*
X7121786Y-11656786D01*
X7121786Y-11609167D01*
X7131309Y-11571071D01*
X7140833Y-11552024D01*
X7150357Y-11542500D01*
X7169405Y-11532976D01*
X7359881Y-11532976D02*
X7378928Y-11532976D01*
X7397976Y-11542500D01*
X7407500Y-11552024D01*
X7417024Y-11571071D01*
X7426548Y-11609167D01*
X7426548Y-11656786D01*
X7417024Y-11694881D01*
X7407500Y-11713928D01*
X7397976Y-11723452D01*
X7378928Y-11732976D01*
X7359881Y-11732976D01*
X7340833Y-11723452D01*
X7331309Y-11713928D01*
X7321786Y-11694881D01*
X7312262Y-11656786D01*
X7312262Y-11609167D01*
X7321786Y-11571071D01*
X7331309Y-11552024D01*
X7340833Y-11542500D01*
X7359881Y-11532976D01*
X7512262Y-11732976D02*
X7512262Y-11599643D01*
X7512262Y-11618690D02*
X7521786Y-11609167D01*
X7540833Y-11599643D01*
X7569405Y-11599643D01*
X7588452Y-11609167D01*
X7597976Y-11628214D01*
X7597976Y-11732976D01*
X7597976Y-11628214D02*
X7607500Y-11609167D01*
X7626548Y-11599643D01*
X7655119Y-11599643D01*
X7674167Y-11609167D01*
X7683690Y-11628214D01*
X7683690Y-11732976D01*
X7778928Y-11732976D02*
X7778928Y-11599643D01*
X7778928Y-11618690D02*
X7788452Y-11609167D01*
X7807500Y-11599643D01*
X7836071Y-11599643D01*
X7855119Y-11609167D01*
X7864643Y-11628214D01*
X7864643Y-11732976D01*
X7864643Y-11628214D02*
X7874167Y-11609167D01*
X7893214Y-11599643D01*
X7921786Y-11599643D01*
X7940833Y-11609167D01*
X7950357Y-11628214D01*
X7950357Y-11732976D01*
X8340833Y-11523452D02*
X8169405Y-11780595D01*
X8597976Y-11532976D02*
X8617024Y-11532976D01*
X8636071Y-11542500D01*
X8645595Y-11552024D01*
X8655119Y-11571071D01*
X8664643Y-11609167D01*
X8664643Y-11656786D01*
X8655119Y-11694881D01*
X8645595Y-11713928D01*
X8636071Y-11723452D01*
X8617024Y-11732976D01*
X8597976Y-11732976D01*
X8578929Y-11723452D01*
X8569405Y-11713928D01*
X8559881Y-11694881D01*
X8550357Y-11656786D01*
X8550357Y-11609167D01*
X8559881Y-11571071D01*
X8569405Y-11552024D01*
X8578929Y-11542500D01*
X8597976Y-11532976D01*
X8750357Y-11713928D02*
X8759881Y-11723452D01*
X8750357Y-11732976D01*
X8740833Y-11723452D01*
X8750357Y-11713928D01*
X8750357Y-11732976D01*
X8883690Y-11532976D02*
X8902738Y-11532976D01*
X8921786Y-11542500D01*
X8931310Y-11552024D01*
X8940833Y-11571071D01*
X8950357Y-11609167D01*
X8950357Y-11656786D01*
X8940833Y-11694881D01*
X8931310Y-11713928D01*
X8921786Y-11723452D01*
X8902738Y-11732976D01*
X8883690Y-11732976D01*
X8864643Y-11723452D01*
X8855119Y-11713928D01*
X8845595Y-11694881D01*
X8836071Y-11656786D01*
X8836071Y-11609167D01*
X8845595Y-11571071D01*
X8855119Y-11552024D01*
X8864643Y-11542500D01*
X8883690Y-11532976D01*
X9140833Y-11732976D02*
X9026548Y-11732976D01*
X9083690Y-11732976D02*
X9083690Y-11532976D01*
X9064643Y-11561548D01*
X9045595Y-11580595D01*
X9026548Y-11590119D01*
X9321786Y-11532976D02*
X9226548Y-11532976D01*
X9217024Y-11628214D01*
X9226548Y-11618690D01*
X9245595Y-11609167D01*
X9293214Y-11609167D01*
X9312262Y-11618690D01*
X9321786Y-11628214D01*
X9331310Y-11647262D01*
X9331310Y-11694881D01*
X9321786Y-11713928D01*
X9312262Y-11723452D01*
X9293214Y-11732976D01*
X9245595Y-11732976D01*
X9226548Y-11723452D01*
X9217024Y-11713928D01*
X9397976Y-11532976D02*
X9531310Y-11532976D01*
X9445595Y-11732976D01*
X9597976Y-11532976D02*
X9597976Y-11571071D01*
X9674167Y-11532976D02*
X9674167Y-11571071D01*
X9969405Y-11809167D02*
X9959881Y-11799643D01*
X9940833Y-11771071D01*
X9931310Y-11752024D01*
X9921786Y-11723452D01*
X9912262Y-11675833D01*
X9912262Y-11637738D01*
X9921786Y-11590119D01*
X9931310Y-11561548D01*
X9940833Y-11542500D01*
X9959881Y-11513928D01*
X9969405Y-11504405D01*
X10131310Y-11532976D02*
X10093214Y-11532976D01*
X10074167Y-11542500D01*
X10064643Y-11552024D01*
X10045595Y-11580595D01*
X10036071Y-11618690D01*
X10036071Y-11694881D01*
X10045595Y-11713928D01*
X10055119Y-11723452D01*
X10074167Y-11732976D01*
X10112262Y-11732976D01*
X10131310Y-11723452D01*
X10140833Y-11713928D01*
X10150357Y-11694881D01*
X10150357Y-11647262D01*
X10140833Y-11628214D01*
X10131310Y-11618690D01*
X10112262Y-11609167D01*
X10074167Y-11609167D01*
X10055119Y-11618690D01*
X10045595Y-11628214D01*
X10036071Y-11647262D01*
X10217024Y-11532976D02*
X10340833Y-11532976D01*
X10274167Y-11609167D01*
X10302738Y-11609167D01*
X10321786Y-11618690D01*
X10331310Y-11628214D01*
X10340833Y-11647262D01*
X10340833Y-11694881D01*
X10331310Y-11713928D01*
X10321786Y-11723452D01*
X10302738Y-11732976D01*
X10245595Y-11732976D01*
X10226548Y-11723452D01*
X10217024Y-11713928D01*
X10578929Y-11732976D02*
X10578929Y-11532976D01*
X10664643Y-11732976D02*
X10664643Y-11628214D01*
X10655119Y-11609167D01*
X10636071Y-11599643D01*
X10607500Y-11599643D01*
X10588452Y-11609167D01*
X10578929Y-11618690D01*
X10788452Y-11732976D02*
X10769405Y-11723452D01*
X10759881Y-11713928D01*
X10750357Y-11694881D01*
X10750357Y-11637738D01*
X10759881Y-11618690D01*
X10769405Y-11609167D01*
X10788452Y-11599643D01*
X10817024Y-11599643D01*
X10836071Y-11609167D01*
X10845595Y-11618690D01*
X10855119Y-11637738D01*
X10855119Y-11694881D01*
X10845595Y-11713928D01*
X10836071Y-11723452D01*
X10817024Y-11732976D01*
X10788452Y-11732976D01*
X10969405Y-11732976D02*
X10950357Y-11723452D01*
X10940833Y-11704405D01*
X10940833Y-11532976D01*
X11121786Y-11723452D02*
X11102738Y-11732976D01*
X11064643Y-11732976D01*
X11045595Y-11723452D01*
X11036071Y-11704405D01*
X11036071Y-11628214D01*
X11045595Y-11609167D01*
X11064643Y-11599643D01*
X11102738Y-11599643D01*
X11121786Y-11609167D01*
X11131310Y-11628214D01*
X11131310Y-11647262D01*
X11036071Y-11666309D01*
X11207500Y-11723452D02*
X11226548Y-11732976D01*
X11264643Y-11732976D01*
X11283690Y-11723452D01*
X11293214Y-11704405D01*
X11293214Y-11694881D01*
X11283690Y-11675833D01*
X11264643Y-11666309D01*
X11236071Y-11666309D01*
X11217024Y-11656786D01*
X11207500Y-11637738D01*
X11207500Y-11628214D01*
X11217024Y-11609167D01*
X11236071Y-11599643D01*
X11264643Y-11599643D01*
X11283690Y-11609167D01*
X11359881Y-11809167D02*
X11369405Y-11799643D01*
X11388452Y-11771071D01*
X11397976Y-11752024D01*
X11407500Y-11723452D01*
X11417024Y-11675833D01*
X11417024Y-11637738D01*
X11407500Y-11590119D01*
X11397976Y-11561548D01*
X11388452Y-11542500D01*
X11369405Y-11513928D01*
X11359881Y-11504405D01*
D13*
X6397500Y-11906500D02*
G75*
G03*
X6397500Y-11906500I-50000J0D01*
G01*
D11*
X6759881Y-11996976D02*
X6645595Y-11996976D01*
X6702738Y-11996976D02*
X6702738Y-11796976D01*
X6683690Y-11825548D01*
X6664643Y-11844595D01*
X6645595Y-11854119D01*
X6845595Y-11977928D02*
X6855119Y-11987452D01*
X6845595Y-11996976D01*
X6836071Y-11987452D01*
X6845595Y-11977928D01*
X6845595Y-11996976D01*
X6978928Y-11796976D02*
X6997976Y-11796976D01*
X7017024Y-11806500D01*
X7026548Y-11816024D01*
X7036071Y-11835071D01*
X7045595Y-11873167D01*
X7045595Y-11920786D01*
X7036071Y-11958881D01*
X7026548Y-11977928D01*
X7017024Y-11987452D01*
X6997976Y-11996976D01*
X6978928Y-11996976D01*
X6959881Y-11987452D01*
X6950357Y-11977928D01*
X6940833Y-11958881D01*
X6931309Y-11920786D01*
X6931309Y-11873167D01*
X6940833Y-11835071D01*
X6950357Y-11816024D01*
X6959881Y-11806500D01*
X6978928Y-11796976D01*
X7169405Y-11796976D02*
X7188452Y-11796976D01*
X7207500Y-11806500D01*
X7217024Y-11816024D01*
X7226548Y-11835071D01*
X7236071Y-11873167D01*
X7236071Y-11920786D01*
X7226548Y-11958881D01*
X7217024Y-11977928D01*
X7207500Y-11987452D01*
X7188452Y-11996976D01*
X7169405Y-11996976D01*
X7150357Y-11987452D01*
X7140833Y-11977928D01*
X7131309Y-11958881D01*
X7121786Y-11920786D01*
X7121786Y-11873167D01*
X7131309Y-11835071D01*
X7140833Y-11816024D01*
X7150357Y-11806500D01*
X7169405Y-11796976D01*
X7359881Y-11796976D02*
X7378928Y-11796976D01*
X7397976Y-11806500D01*
X7407500Y-11816024D01*
X7417024Y-11835071D01*
X7426548Y-11873167D01*
X7426548Y-11920786D01*
X7417024Y-11958881D01*
X7407500Y-11977928D01*
X7397976Y-11987452D01*
X7378928Y-11996976D01*
X7359881Y-11996976D01*
X7340833Y-11987452D01*
X7331309Y-11977928D01*
X7321786Y-11958881D01*
X7312262Y-11920786D01*
X7312262Y-11873167D01*
X7321786Y-11835071D01*
X7331309Y-11816024D01*
X7340833Y-11806500D01*
X7359881Y-11796976D01*
X7512262Y-11996976D02*
X7512262Y-11863643D01*
X7512262Y-11882690D02*
X7521786Y-11873167D01*
X7540833Y-11863643D01*
X7569405Y-11863643D01*
X7588452Y-11873167D01*
X7597976Y-11892214D01*
X7597976Y-11996976D01*
X7597976Y-11892214D02*
X7607500Y-11873167D01*
X7626548Y-11863643D01*
X7655119Y-11863643D01*
X7674167Y-11873167D01*
X7683690Y-11892214D01*
X7683690Y-11996976D01*
X7778928Y-11996976D02*
X7778928Y-11863643D01*
X7778928Y-11882690D02*
X7788452Y-11873167D01*
X7807500Y-11863643D01*
X7836071Y-11863643D01*
X7855119Y-11873167D01*
X7864643Y-11892214D01*
X7864643Y-11996976D01*
X7864643Y-11892214D02*
X7874167Y-11873167D01*
X7893214Y-11863643D01*
X7921786Y-11863643D01*
X7940833Y-11873167D01*
X7950357Y-11892214D01*
X7950357Y-11996976D01*
X8340833Y-11787452D02*
X8169405Y-12044595D01*
X8597976Y-11796976D02*
X8617024Y-11796976D01*
X8636071Y-11806500D01*
X8645595Y-11816024D01*
X8655119Y-11835071D01*
X8664643Y-11873167D01*
X8664643Y-11920786D01*
X8655119Y-11958881D01*
X8645595Y-11977928D01*
X8636071Y-11987452D01*
X8617024Y-11996976D01*
X8597976Y-11996976D01*
X8578929Y-11987452D01*
X8569405Y-11977928D01*
X8559881Y-11958881D01*
X8550357Y-11920786D01*
X8550357Y-11873167D01*
X8559881Y-11835071D01*
X8569405Y-11816024D01*
X8578929Y-11806500D01*
X8597976Y-11796976D01*
X8750357Y-11977928D02*
X8759881Y-11987452D01*
X8750357Y-11996976D01*
X8740833Y-11987452D01*
X8750357Y-11977928D01*
X8750357Y-11996976D01*
X8883690Y-11796976D02*
X8902738Y-11796976D01*
X8921786Y-11806500D01*
X8931310Y-11816024D01*
X8940833Y-11835071D01*
X8950357Y-11873167D01*
X8950357Y-11920786D01*
X8940833Y-11958881D01*
X8931310Y-11977928D01*
X8921786Y-11987452D01*
X8902738Y-11996976D01*
X8883690Y-11996976D01*
X8864643Y-11987452D01*
X8855119Y-11977928D01*
X8845595Y-11958881D01*
X8836071Y-11920786D01*
X8836071Y-11873167D01*
X8845595Y-11835071D01*
X8855119Y-11816024D01*
X8864643Y-11806500D01*
X8883690Y-11796976D01*
X9017024Y-11796976D02*
X9140833Y-11796976D01*
X9074167Y-11873167D01*
X9102738Y-11873167D01*
X9121786Y-11882690D01*
X9131310Y-11892214D01*
X9140833Y-11911262D01*
X9140833Y-11958881D01*
X9131310Y-11977928D01*
X9121786Y-11987452D01*
X9102738Y-11996976D01*
X9045595Y-11996976D01*
X9026548Y-11987452D01*
X9017024Y-11977928D01*
X9236071Y-11996976D02*
X9274167Y-11996976D01*
X9293214Y-11987452D01*
X9302738Y-11977928D01*
X9321786Y-11949357D01*
X9331310Y-11911262D01*
X9331310Y-11835071D01*
X9321786Y-11816024D01*
X9312262Y-11806500D01*
X9293214Y-11796976D01*
X9255119Y-11796976D01*
X9236071Y-11806500D01*
X9226548Y-11816024D01*
X9217024Y-11835071D01*
X9217024Y-11882690D01*
X9226548Y-11901738D01*
X9236071Y-11911262D01*
X9255119Y-11920786D01*
X9293214Y-11920786D01*
X9312262Y-11911262D01*
X9321786Y-11901738D01*
X9331310Y-11882690D01*
X9502738Y-11863643D02*
X9502738Y-11996976D01*
X9455119Y-11787452D02*
X9407500Y-11930309D01*
X9531310Y-11930309D01*
X9597976Y-11796976D02*
X9597976Y-11835071D01*
X9674167Y-11796976D02*
X9674167Y-11835071D01*
X9969405Y-12073167D02*
X9959881Y-12063643D01*
X9940833Y-12035071D01*
X9931310Y-12016024D01*
X9921786Y-11987452D01*
X9912262Y-11939833D01*
X9912262Y-11901738D01*
X9921786Y-11854119D01*
X9931310Y-11825548D01*
X9940833Y-11806500D01*
X9959881Y-11777928D01*
X9969405Y-11768405D01*
X10036071Y-11816024D02*
X10045595Y-11806500D01*
X10064643Y-11796976D01*
X10112262Y-11796976D01*
X10131310Y-11806500D01*
X10140833Y-11816024D01*
X10150357Y-11835071D01*
X10150357Y-11854119D01*
X10140833Y-11882690D01*
X10026548Y-11996976D01*
X10150357Y-11996976D01*
X10264643Y-11882690D02*
X10245595Y-11873167D01*
X10236071Y-11863643D01*
X10226548Y-11844595D01*
X10226548Y-11835071D01*
X10236071Y-11816024D01*
X10245595Y-11806500D01*
X10264643Y-11796976D01*
X10302738Y-11796976D01*
X10321786Y-11806500D01*
X10331310Y-11816024D01*
X10340833Y-11835071D01*
X10340833Y-11844595D01*
X10331310Y-11863643D01*
X10321786Y-11873167D01*
X10302738Y-11882690D01*
X10264643Y-11882690D01*
X10245595Y-11892214D01*
X10236071Y-11901738D01*
X10226548Y-11920786D01*
X10226548Y-11958881D01*
X10236071Y-11977928D01*
X10245595Y-11987452D01*
X10264643Y-11996976D01*
X10302738Y-11996976D01*
X10321786Y-11987452D01*
X10331310Y-11977928D01*
X10340833Y-11958881D01*
X10340833Y-11920786D01*
X10331310Y-11901738D01*
X10321786Y-11892214D01*
X10302738Y-11882690D01*
X10578929Y-11996976D02*
X10578929Y-11796976D01*
X10664643Y-11996976D02*
X10664643Y-11892214D01*
X10655119Y-11873167D01*
X10636071Y-11863643D01*
X10607500Y-11863643D01*
X10588452Y-11873167D01*
X10578929Y-11882690D01*
X10788452Y-11996976D02*
X10769405Y-11987452D01*
X10759881Y-11977928D01*
X10750357Y-11958881D01*
X10750357Y-11901738D01*
X10759881Y-11882690D01*
X10769405Y-11873167D01*
X10788452Y-11863643D01*
X10817024Y-11863643D01*
X10836071Y-11873167D01*
X10845595Y-11882690D01*
X10855119Y-11901738D01*
X10855119Y-11958881D01*
X10845595Y-11977928D01*
X10836071Y-11987452D01*
X10817024Y-11996976D01*
X10788452Y-11996976D01*
X10969405Y-11996976D02*
X10950357Y-11987452D01*
X10940833Y-11968405D01*
X10940833Y-11796976D01*
X11121786Y-11987452D02*
X11102738Y-11996976D01*
X11064643Y-11996976D01*
X11045595Y-11987452D01*
X11036071Y-11968405D01*
X11036071Y-11892214D01*
X11045595Y-11873167D01*
X11064643Y-11863643D01*
X11102738Y-11863643D01*
X11121786Y-11873167D01*
X11131310Y-11892214D01*
X11131310Y-11911262D01*
X11036071Y-11930309D01*
X11207500Y-11987452D02*
X11226548Y-11996976D01*
X11264643Y-11996976D01*
X11283690Y-11987452D01*
X11293214Y-11968405D01*
X11293214Y-11958881D01*
X11283690Y-11939833D01*
X11264643Y-11930309D01*
X11236071Y-11930309D01*
X11217024Y-11920786D01*
X11207500Y-11901738D01*
X11207500Y-11892214D01*
X11217024Y-11873167D01*
X11236071Y-11863643D01*
X11264643Y-11863643D01*
X11283690Y-11873167D01*
X11359881Y-12073167D02*
X11369405Y-12063643D01*
X11388452Y-12035071D01*
X11397976Y-12016024D01*
X11407500Y-11987452D01*
X11417024Y-11939833D01*
X11417024Y-11901738D01*
X11407500Y-11854119D01*
X11397976Y-11825548D01*
X11388452Y-11806500D01*
X11369405Y-11777928D01*
X11359881Y-11768405D01*
D14*
X6327500Y-12100500D02*
X6327500Y-12240500D01*
X6257500Y-12170500D02*
X6397500Y-12170500D01*
D11*
X6759881Y-12260976D02*
X6645595Y-12260976D01*
X6702738Y-12260976D02*
X6702738Y-12060976D01*
X6683690Y-12089548D01*
X6664643Y-12108595D01*
X6645595Y-12118119D01*
X6845595Y-12241928D02*
X6855119Y-12251452D01*
X6845595Y-12260976D01*
X6836071Y-12251452D01*
X6845595Y-12241928D01*
X6845595Y-12260976D01*
X7026548Y-12127643D02*
X7026548Y-12260976D01*
X6978928Y-12051452D02*
X6931309Y-12194309D01*
X7055119Y-12194309D01*
X7169405Y-12060976D02*
X7188452Y-12060976D01*
X7207500Y-12070500D01*
X7217024Y-12080024D01*
X7226548Y-12099071D01*
X7236071Y-12137167D01*
X7236071Y-12184786D01*
X7226548Y-12222881D01*
X7217024Y-12241928D01*
X7207500Y-12251452D01*
X7188452Y-12260976D01*
X7169405Y-12260976D01*
X7150357Y-12251452D01*
X7140833Y-12241928D01*
X7131309Y-12222881D01*
X7121786Y-12184786D01*
X7121786Y-12137167D01*
X7131309Y-12099071D01*
X7140833Y-12080024D01*
X7150357Y-12070500D01*
X7169405Y-12060976D01*
X7359881Y-12060976D02*
X7378928Y-12060976D01*
X7397976Y-12070500D01*
X7407500Y-12080024D01*
X7417024Y-12099071D01*
X7426548Y-12137167D01*
X7426548Y-12184786D01*
X7417024Y-12222881D01*
X7407500Y-12241928D01*
X7397976Y-12251452D01*
X7378928Y-12260976D01*
X7359881Y-12260976D01*
X7340833Y-12251452D01*
X7331309Y-12241928D01*
X7321786Y-12222881D01*
X7312262Y-12184786D01*
X7312262Y-12137167D01*
X7321786Y-12099071D01*
X7331309Y-12080024D01*
X7340833Y-12070500D01*
X7359881Y-12060976D01*
X7512262Y-12260976D02*
X7512262Y-12127643D01*
X7512262Y-12146690D02*
X7521786Y-12137167D01*
X7540833Y-12127643D01*
X7569405Y-12127643D01*
X7588452Y-12137167D01*
X7597976Y-12156214D01*
X7597976Y-12260976D01*
X7597976Y-12156214D02*
X7607500Y-12137167D01*
X7626548Y-12127643D01*
X7655119Y-12127643D01*
X7674167Y-12137167D01*
X7683690Y-12156214D01*
X7683690Y-12260976D01*
X7778928Y-12260976D02*
X7778928Y-12127643D01*
X7778928Y-12146690D02*
X7788452Y-12137167D01*
X7807500Y-12127643D01*
X7836071Y-12127643D01*
X7855119Y-12137167D01*
X7864643Y-12156214D01*
X7864643Y-12260976D01*
X7864643Y-12156214D02*
X7874167Y-12137167D01*
X7893214Y-12127643D01*
X7921786Y-12127643D01*
X7940833Y-12137167D01*
X7950357Y-12156214D01*
X7950357Y-12260976D01*
X8340833Y-12051452D02*
X8169405Y-12308595D01*
X8597976Y-12060976D02*
X8617024Y-12060976D01*
X8636071Y-12070500D01*
X8645595Y-12080024D01*
X8655119Y-12099071D01*
X8664643Y-12137167D01*
X8664643Y-12184786D01*
X8655119Y-12222881D01*
X8645595Y-12241928D01*
X8636071Y-12251452D01*
X8617024Y-12260976D01*
X8597976Y-12260976D01*
X8578929Y-12251452D01*
X8569405Y-12241928D01*
X8559881Y-12222881D01*
X8550357Y-12184786D01*
X8550357Y-12137167D01*
X8559881Y-12099071D01*
X8569405Y-12080024D01*
X8578929Y-12070500D01*
X8597976Y-12060976D01*
X8750357Y-12241928D02*
X8759881Y-12251452D01*
X8750357Y-12260976D01*
X8740833Y-12251452D01*
X8750357Y-12241928D01*
X8750357Y-12260976D01*
X8883690Y-12060976D02*
X8902738Y-12060976D01*
X8921786Y-12070500D01*
X8931310Y-12080024D01*
X8940833Y-12099071D01*
X8950357Y-12137167D01*
X8950357Y-12184786D01*
X8940833Y-12222881D01*
X8931310Y-12241928D01*
X8921786Y-12251452D01*
X8902738Y-12260976D01*
X8883690Y-12260976D01*
X8864643Y-12251452D01*
X8855119Y-12241928D01*
X8845595Y-12222881D01*
X8836071Y-12184786D01*
X8836071Y-12137167D01*
X8845595Y-12099071D01*
X8855119Y-12080024D01*
X8864643Y-12070500D01*
X8883690Y-12060976D01*
X9131310Y-12060976D02*
X9036071Y-12060976D01*
X9026548Y-12156214D01*
X9036071Y-12146690D01*
X9055119Y-12137167D01*
X9102738Y-12137167D01*
X9121786Y-12146690D01*
X9131310Y-12156214D01*
X9140833Y-12175262D01*
X9140833Y-12222881D01*
X9131310Y-12241928D01*
X9121786Y-12251452D01*
X9102738Y-12260976D01*
X9055119Y-12260976D01*
X9036071Y-12251452D01*
X9026548Y-12241928D01*
X9321786Y-12060976D02*
X9226548Y-12060976D01*
X9217024Y-12156214D01*
X9226548Y-12146690D01*
X9245595Y-12137167D01*
X9293214Y-12137167D01*
X9312262Y-12146690D01*
X9321786Y-12156214D01*
X9331310Y-12175262D01*
X9331310Y-12222881D01*
X9321786Y-12241928D01*
X9312262Y-12251452D01*
X9293214Y-12260976D01*
X9245595Y-12260976D01*
X9226548Y-12251452D01*
X9217024Y-12241928D01*
X9521786Y-12260976D02*
X9407500Y-12260976D01*
X9464643Y-12260976D02*
X9464643Y-12060976D01*
X9445595Y-12089548D01*
X9426548Y-12108595D01*
X9407500Y-12118119D01*
X9597976Y-12060976D02*
X9597976Y-12099071D01*
X9674167Y-12060976D02*
X9674167Y-12099071D01*
X9969405Y-12337167D02*
X9959881Y-12327643D01*
X9940833Y-12299071D01*
X9931310Y-12280024D01*
X9921786Y-12251452D01*
X9912262Y-12203833D01*
X9912262Y-12165738D01*
X9921786Y-12118119D01*
X9931310Y-12089548D01*
X9940833Y-12070500D01*
X9959881Y-12041928D01*
X9969405Y-12032405D01*
X10036071Y-12080024D02*
X10045595Y-12070500D01*
X10064643Y-12060976D01*
X10112262Y-12060976D01*
X10131310Y-12070500D01*
X10140833Y-12080024D01*
X10150357Y-12099071D01*
X10150357Y-12118119D01*
X10140833Y-12146690D01*
X10026548Y-12260976D01*
X10150357Y-12260976D01*
X10388452Y-12260976D02*
X10388452Y-12060976D01*
X10474167Y-12260976D02*
X10474167Y-12156214D01*
X10464643Y-12137167D01*
X10445595Y-12127643D01*
X10417024Y-12127643D01*
X10397976Y-12137167D01*
X10388452Y-12146690D01*
X10597976Y-12260976D02*
X10578929Y-12251452D01*
X10569405Y-12241928D01*
X10559881Y-12222881D01*
X10559881Y-12165738D01*
X10569405Y-12146690D01*
X10578929Y-12137167D01*
X10597976Y-12127643D01*
X10626548Y-12127643D01*
X10645595Y-12137167D01*
X10655119Y-12146690D01*
X10664643Y-12165738D01*
X10664643Y-12222881D01*
X10655119Y-12241928D01*
X10645595Y-12251452D01*
X10626548Y-12260976D01*
X10597976Y-12260976D01*
X10778929Y-12260976D02*
X10759881Y-12251452D01*
X10750357Y-12232405D01*
X10750357Y-12060976D01*
X10931310Y-12251452D02*
X10912262Y-12260976D01*
X10874167Y-12260976D01*
X10855119Y-12251452D01*
X10845595Y-12232405D01*
X10845595Y-12156214D01*
X10855119Y-12137167D01*
X10874167Y-12127643D01*
X10912262Y-12127643D01*
X10931310Y-12137167D01*
X10940833Y-12156214D01*
X10940833Y-12175262D01*
X10845595Y-12194309D01*
X11017024Y-12251452D02*
X11036071Y-12260976D01*
X11074167Y-12260976D01*
X11093214Y-12251452D01*
X11102738Y-12232405D01*
X11102738Y-12222881D01*
X11093214Y-12203833D01*
X11074167Y-12194309D01*
X11045595Y-12194309D01*
X11026548Y-12184786D01*
X11017024Y-12165738D01*
X11017024Y-12156214D01*
X11026548Y-12137167D01*
X11045595Y-12127643D01*
X11074167Y-12127643D01*
X11093214Y-12137167D01*
X11169405Y-12337167D02*
X11178929Y-12327643D01*
X11197976Y-12299071D01*
X11207500Y-12280024D01*
X11217024Y-12251452D01*
X11226548Y-12203833D01*
X11226548Y-12165738D01*
X11217024Y-12118119D01*
X11207500Y-12089548D01*
X11197976Y-12070500D01*
X11178929Y-12041928D01*
X11169405Y-12032405D01*
X6368211Y-12505211D02*
X6368211Y-12363789D01*
X6226789Y-12363789D01*
X6226789Y-12505211D01*
X6368211Y-12505211D01*
X6636071Y-12324976D02*
X6759881Y-12324976D01*
X6693214Y-12401167D01*
X6721786Y-12401167D01*
X6740833Y-12410690D01*
X6750357Y-12420214D01*
X6759881Y-12439262D01*
X6759881Y-12486881D01*
X6750357Y-12505928D01*
X6740833Y-12515452D01*
X6721786Y-12524976D01*
X6664643Y-12524976D01*
X6645595Y-12515452D01*
X6636071Y-12505928D01*
X6845595Y-12505928D02*
X6855119Y-12515452D01*
X6845595Y-12524976D01*
X6836071Y-12515452D01*
X6845595Y-12505928D01*
X6845595Y-12524976D01*
X6931309Y-12344024D02*
X6940833Y-12334500D01*
X6959881Y-12324976D01*
X7007500Y-12324976D01*
X7026548Y-12334500D01*
X7036071Y-12344024D01*
X7045595Y-12363071D01*
X7045595Y-12382119D01*
X7036071Y-12410690D01*
X6921786Y-12524976D01*
X7045595Y-12524976D01*
X7169405Y-12324976D02*
X7188452Y-12324976D01*
X7207500Y-12334500D01*
X7217024Y-12344024D01*
X7226548Y-12363071D01*
X7236071Y-12401167D01*
X7236071Y-12448786D01*
X7226548Y-12486881D01*
X7217024Y-12505928D01*
X7207500Y-12515452D01*
X7188452Y-12524976D01*
X7169405Y-12524976D01*
X7150357Y-12515452D01*
X7140833Y-12505928D01*
X7131309Y-12486881D01*
X7121786Y-12448786D01*
X7121786Y-12401167D01*
X7131309Y-12363071D01*
X7140833Y-12344024D01*
X7150357Y-12334500D01*
X7169405Y-12324976D01*
X7359881Y-12324976D02*
X7378928Y-12324976D01*
X7397976Y-12334500D01*
X7407500Y-12344024D01*
X7417024Y-12363071D01*
X7426548Y-12401167D01*
X7426548Y-12448786D01*
X7417024Y-12486881D01*
X7407500Y-12505928D01*
X7397976Y-12515452D01*
X7378928Y-12524976D01*
X7359881Y-12524976D01*
X7340833Y-12515452D01*
X7331309Y-12505928D01*
X7321786Y-12486881D01*
X7312262Y-12448786D01*
X7312262Y-12401167D01*
X7321786Y-12363071D01*
X7331309Y-12344024D01*
X7340833Y-12334500D01*
X7359881Y-12324976D01*
X7512262Y-12524976D02*
X7512262Y-12391643D01*
X7512262Y-12410690D02*
X7521786Y-12401167D01*
X7540833Y-12391643D01*
X7569405Y-12391643D01*
X7588452Y-12401167D01*
X7597976Y-12420214D01*
X7597976Y-12524976D01*
X7597976Y-12420214D02*
X7607500Y-12401167D01*
X7626548Y-12391643D01*
X7655119Y-12391643D01*
X7674167Y-12401167D01*
X7683690Y-12420214D01*
X7683690Y-12524976D01*
X7778928Y-12524976D02*
X7778928Y-12391643D01*
X7778928Y-12410690D02*
X7788452Y-12401167D01*
X7807500Y-12391643D01*
X7836071Y-12391643D01*
X7855119Y-12401167D01*
X7864643Y-12420214D01*
X7864643Y-12524976D01*
X7864643Y-12420214D02*
X7874167Y-12401167D01*
X7893214Y-12391643D01*
X7921786Y-12391643D01*
X7940833Y-12401167D01*
X7950357Y-12420214D01*
X7950357Y-12524976D01*
X8340833Y-12315452D02*
X8169405Y-12572595D01*
X8597976Y-12324976D02*
X8617024Y-12324976D01*
X8636071Y-12334500D01*
X8645595Y-12344024D01*
X8655119Y-12363071D01*
X8664643Y-12401167D01*
X8664643Y-12448786D01*
X8655119Y-12486881D01*
X8645595Y-12505928D01*
X8636071Y-12515452D01*
X8617024Y-12524976D01*
X8597976Y-12524976D01*
X8578929Y-12515452D01*
X8569405Y-12505928D01*
X8559881Y-12486881D01*
X8550357Y-12448786D01*
X8550357Y-12401167D01*
X8559881Y-12363071D01*
X8569405Y-12344024D01*
X8578929Y-12334500D01*
X8597976Y-12324976D01*
X8750357Y-12505928D02*
X8759881Y-12515452D01*
X8750357Y-12524976D01*
X8740833Y-12515452D01*
X8750357Y-12505928D01*
X8750357Y-12524976D01*
X8950357Y-12524976D02*
X8836071Y-12524976D01*
X8893214Y-12524976D02*
X8893214Y-12324976D01*
X8874167Y-12353548D01*
X8855119Y-12372595D01*
X8836071Y-12382119D01*
X9026548Y-12344024D02*
X9036071Y-12334500D01*
X9055119Y-12324976D01*
X9102738Y-12324976D01*
X9121786Y-12334500D01*
X9131310Y-12344024D01*
X9140833Y-12363071D01*
X9140833Y-12382119D01*
X9131310Y-12410690D01*
X9017024Y-12524976D01*
X9140833Y-12524976D01*
X9312262Y-12324976D02*
X9274167Y-12324976D01*
X9255119Y-12334500D01*
X9245595Y-12344024D01*
X9226548Y-12372595D01*
X9217024Y-12410690D01*
X9217024Y-12486881D01*
X9226548Y-12505928D01*
X9236071Y-12515452D01*
X9255119Y-12524976D01*
X9293214Y-12524976D01*
X9312262Y-12515452D01*
X9321786Y-12505928D01*
X9331310Y-12486881D01*
X9331310Y-12439262D01*
X9321786Y-12420214D01*
X9312262Y-12410690D01*
X9293214Y-12401167D01*
X9255119Y-12401167D01*
X9236071Y-12410690D01*
X9226548Y-12420214D01*
X9217024Y-12439262D01*
X9455119Y-12324976D02*
X9474167Y-12324976D01*
X9493214Y-12334500D01*
X9502738Y-12344024D01*
X9512262Y-12363071D01*
X9521786Y-12401167D01*
X9521786Y-12448786D01*
X9512262Y-12486881D01*
X9502738Y-12505928D01*
X9493214Y-12515452D01*
X9474167Y-12524976D01*
X9455119Y-12524976D01*
X9436071Y-12515452D01*
X9426548Y-12505928D01*
X9417024Y-12486881D01*
X9407500Y-12448786D01*
X9407500Y-12401167D01*
X9417024Y-12363071D01*
X9426548Y-12344024D01*
X9436071Y-12334500D01*
X9455119Y-12324976D01*
X9597976Y-12324976D02*
X9597976Y-12363071D01*
X9674167Y-12324976D02*
X9674167Y-12363071D01*
X9969405Y-12601167D02*
X9959881Y-12591643D01*
X9940833Y-12563071D01*
X9931310Y-12544024D01*
X9921786Y-12515452D01*
X9912262Y-12467833D01*
X9912262Y-12429738D01*
X9921786Y-12382119D01*
X9931310Y-12353548D01*
X9940833Y-12334500D01*
X9959881Y-12305928D01*
X9969405Y-12296405D01*
X10131310Y-12391643D02*
X10131310Y-12524976D01*
X10083690Y-12315452D02*
X10036071Y-12458309D01*
X10159881Y-12458309D01*
X10388452Y-12524976D02*
X10388452Y-12324976D01*
X10474167Y-12524976D02*
X10474167Y-12420214D01*
X10464643Y-12401167D01*
X10445595Y-12391643D01*
X10417024Y-12391643D01*
X10397976Y-12401167D01*
X10388452Y-12410690D01*
X10597976Y-12524976D02*
X10578929Y-12515452D01*
X10569405Y-12505928D01*
X10559881Y-12486881D01*
X10559881Y-12429738D01*
X10569405Y-12410690D01*
X10578929Y-12401167D01*
X10597976Y-12391643D01*
X10626548Y-12391643D01*
X10645595Y-12401167D01*
X10655119Y-12410690D01*
X10664643Y-12429738D01*
X10664643Y-12486881D01*
X10655119Y-12505928D01*
X10645595Y-12515452D01*
X10626548Y-12524976D01*
X10597976Y-12524976D01*
X10778929Y-12524976D02*
X10759881Y-12515452D01*
X10750357Y-12496405D01*
X10750357Y-12324976D01*
X10931310Y-12515452D02*
X10912262Y-12524976D01*
X10874167Y-12524976D01*
X10855119Y-12515452D01*
X10845595Y-12496405D01*
X10845595Y-12420214D01*
X10855119Y-12401167D01*
X10874167Y-12391643D01*
X10912262Y-12391643D01*
X10931310Y-12401167D01*
X10940833Y-12420214D01*
X10940833Y-12439262D01*
X10845595Y-12458309D01*
X11017024Y-12515452D02*
X11036071Y-12524976D01*
X11074167Y-12524976D01*
X11093214Y-12515452D01*
X11102738Y-12496405D01*
X11102738Y-12486881D01*
X11093214Y-12467833D01*
X11074167Y-12458309D01*
X11045595Y-12458309D01*
X11026548Y-12448786D01*
X11017024Y-12429738D01*
X11017024Y-12420214D01*
X11026548Y-12401167D01*
X11045595Y-12391643D01*
X11074167Y-12391643D01*
X11093214Y-12401167D01*
X11169405Y-12601167D02*
X11178929Y-12591643D01*
X11197976Y-12563071D01*
X11207500Y-12544024D01*
X11217024Y-12515452D01*
X11226548Y-12467833D01*
X11226548Y-12429738D01*
X11217024Y-12382119D01*
X11207500Y-12353548D01*
X11197976Y-12334500D01*
X11178929Y-12305928D01*
X11169405Y-12296405D01*
M02*
