M48
; DRILL file {KiCad 6.0.11-2627ca5db0~126~ubuntu22.04.1} date Do 03 Aug 2023 03:01:11 CEST
; FORMAT={-:-/ absolute / metric / decimal}
; #@! TF.CreationDate,2023-08-03T03:01:11+02:00
; #@! TF.GenerationSoftware,Kicad,Pcbnew,6.0.11-2627ca5db0~126~ubuntu22.04.1
; #@! TF.FileFunction,Plated,1,2,PTH
FMAT,2
METRIC
; #@! TA.AperFunction,Plated,PTH,ViaDrill
T1C0.400
; #@! TA.AperFunction,Plated,PTH,ComponentDrill
T2C1.000
; #@! TA.AperFunction,Plated,PTH,ComponentDrill
T3C1.400
; #@! TA.AperFunction,Plated,PTH,ComponentDrill
T4C3.200
%
G90
G05
T1
X65.5Y-90.9
X65.5Y-93.2
X66.7Y-85.2
X67.3Y-98.9
X67.6Y-87.8
X69.9Y-94.0
X70.7Y-105.3
X71.0Y-101.0
X71.0Y-109.0
X71.45Y-95.25
X71.7Y-98.8
X71.8Y-91.2
X72.1Y-86.8
X72.35Y-98.041
X75.8Y-98.5
X75.9Y-95.8
X76.6Y-104.7
X76.6Y-109.0
X77.1Y-92.5
X77.4Y-87.0
X78.1Y-79.1
X78.4Y-87.0
X78.9Y-104.5
X80.39Y-90.69
X81.4Y-96.7
X83.3Y-84.6
X85.48Y-90.68
X86.19Y-83.11
X87.2Y-91.9
X88.02Y-90.68
X88.4Y-83.11
X88.73Y-100.89
X90.49Y-90.61
X91.4Y-83.11
X92.4Y-103.9
X93.11Y-90.69
X94.2Y-104.4
X94.3Y-83.2
X95.6Y-88.2
X95.62Y-90.68
X96.35Y-100.89
X97.5Y-84.6
X98.89Y-83.11
X98.89Y-100.89
X98.9Y-90.4
X101.43Y-83.11
X102.461Y-88.712
X103.97Y-83.5
X104.1Y-94.4
X106.51Y-81.84
X106.7Y-98.691
X107.2Y-92.6
X107.8Y-89.7
X107.8Y-98.691
X108.2Y-79.2
X109.1Y-104.6
X109.2Y-82.1
X111.2Y-86.5
X112.5Y-98.1
X112.9Y-90.5
X114.9Y-90.5
X114.9Y-93.4
X114.9Y-99.0
T2
X81.125Y-75.535
X81.125Y-78.075
X83.665Y-75.535
X83.665Y-78.075
X86.205Y-75.535
X86.205Y-78.075
X88.745Y-75.535
X88.745Y-78.075
X91.285Y-75.535
X91.285Y-78.075
X93.825Y-75.535
X93.825Y-78.075
X96.365Y-75.535
X96.365Y-78.075
X98.905Y-75.535
X98.905Y-78.075
X101.445Y-75.525
X101.445Y-78.065
X101.82Y-105.8
X101.82Y-108.34
X103.985Y-75.525
X103.985Y-78.065
X104.36Y-105.8
X104.36Y-108.34
X106.525Y-75.525
X106.525Y-78.065
X106.9Y-105.8
X106.9Y-108.34
T3
X73.195Y-76.5
X77.005Y-76.5
T4
X67.0Y-77.0
X67.0Y-107.0
X113.0Y-77.0
X113.0Y-107.0
T0
M30
